G75*
%MOIN*%
%OFA0B0*%
%FSLAX25Y25*%
%IPPOS*%
%LPD*%
%AMOC8*
5,1,8,0,0,1.08239X$1,22.5*
%
%ADD10C,0.05150*%
%ADD11C,0.07500*%
%ADD12C,0.05543*%
%ADD13C,0.08550*%
%ADD14C,0.10000*%
%ADD15C,0.01600*%
D10*
X0030000Y0055157D03*
X0030000Y0074843D03*
X0030000Y0158110D03*
X0030000Y0171890D03*
D11*
X0060000Y0165000D03*
X0060000Y0055000D03*
X0290000Y0055000D03*
X0290000Y0165000D03*
D12*
X0327717Y0212874D03*
X0277874Y0237283D03*
X0366283Y0110488D03*
X0366283Y0008126D03*
X0327717Y0008150D03*
X0073150Y0237283D03*
D13*
X0035000Y0245000D03*
X0015000Y0245000D03*
X0375000Y0245000D03*
X0375000Y0230000D03*
D14*
X0375000Y0245000D02*
X0340000Y0245000D01*
X0327717Y0232717D01*
X0327717Y0212874D01*
X0340000Y0245000D02*
X0285000Y0245000D01*
X0277874Y0237874D01*
X0277874Y0237283D01*
X0366283Y0110488D02*
X0366283Y0066283D01*
X0355000Y0055000D01*
X0290000Y0055000D01*
X0060000Y0055000D02*
X0059843Y0055157D01*
X0030000Y0055157D01*
X0030000Y0074843D02*
X0030000Y0158110D01*
X0053110Y0158110D01*
X0060000Y0165000D01*
X0060000Y0224134D01*
X0073150Y0237283D01*
X0015000Y0245000D02*
X0015000Y0186890D01*
X0030000Y0171890D01*
D15*
X0020297Y0005735D02*
X0019757Y0004800D01*
X0285243Y0004800D01*
X0284703Y0005735D01*
X0283950Y0008545D01*
X0283950Y0011455D01*
X0284703Y0014265D01*
X0286158Y0016785D01*
X0288215Y0018842D01*
X0290735Y0020297D01*
X0293545Y0021050D01*
X0296455Y0021050D01*
X0299265Y0020297D01*
X0301785Y0018842D01*
X0303842Y0016785D01*
X0305297Y0014265D01*
X0306050Y0011455D01*
X0306050Y0008545D01*
X0305297Y0005735D01*
X0304757Y0004800D01*
X0324601Y0004800D01*
X0324229Y0005171D01*
X0323807Y0005754D01*
X0323480Y0006395D01*
X0323257Y0007079D01*
X0323145Y0007790D01*
X0323145Y0008064D01*
X0327631Y0008064D01*
X0327631Y0008235D01*
X0323145Y0008235D01*
X0323145Y0008509D01*
X0323257Y0009220D01*
X0323480Y0009905D01*
X0323807Y0010546D01*
X0324229Y0011128D01*
X0324738Y0011637D01*
X0325320Y0012060D01*
X0325962Y0012386D01*
X0326646Y0012609D01*
X0327357Y0012721D01*
X0327631Y0012721D01*
X0327631Y0008236D01*
X0327802Y0008236D01*
X0327802Y0012721D01*
X0328076Y0012721D01*
X0328787Y0012609D01*
X0329471Y0012386D01*
X0330113Y0012060D01*
X0330695Y0011637D01*
X0331204Y0011128D01*
X0331627Y0010546D01*
X0331953Y0009905D01*
X0332176Y0009220D01*
X0332288Y0008509D01*
X0332288Y0008235D01*
X0327802Y0008235D01*
X0327802Y0008064D01*
X0332288Y0008064D01*
X0332288Y0007790D01*
X0332176Y0007079D01*
X0331953Y0006395D01*
X0331627Y0005754D01*
X0331204Y0005171D01*
X0330832Y0004800D01*
X0363144Y0004800D01*
X0362796Y0005148D01*
X0362373Y0005730D01*
X0362047Y0006371D01*
X0361824Y0007055D01*
X0361712Y0007766D01*
X0361712Y0008040D01*
X0366198Y0008040D01*
X0366198Y0008212D01*
X0366198Y0012698D01*
X0365924Y0012698D01*
X0365213Y0012585D01*
X0364529Y0012363D01*
X0363887Y0012036D01*
X0363305Y0011613D01*
X0362796Y0011104D01*
X0362373Y0010522D01*
X0362047Y0009881D01*
X0361824Y0009197D01*
X0361712Y0008486D01*
X0361712Y0008212D01*
X0366198Y0008212D01*
X0366369Y0008212D01*
X0366369Y0012698D01*
X0366643Y0012698D01*
X0367354Y0012585D01*
X0368038Y0012363D01*
X0368680Y0012036D01*
X0369262Y0011613D01*
X0369771Y0011104D01*
X0370193Y0010522D01*
X0370520Y0009881D01*
X0370743Y0009197D01*
X0370855Y0008486D01*
X0370855Y0008212D01*
X0366369Y0008212D01*
X0366369Y0008040D01*
X0370855Y0008040D01*
X0370855Y0007766D01*
X0370743Y0007055D01*
X0370520Y0006371D01*
X0370193Y0005730D01*
X0369771Y0005148D01*
X0369423Y0004800D01*
X0385200Y0004800D01*
X0385200Y0205567D01*
X0383842Y0203215D01*
X0381785Y0201158D01*
X0379265Y0199703D01*
X0376455Y0198950D01*
X0373545Y0198950D01*
X0370735Y0199703D01*
X0368215Y0201158D01*
X0366158Y0203215D01*
X0364703Y0205735D01*
X0363950Y0208545D01*
X0363950Y0211455D01*
X0364703Y0214265D01*
X0366158Y0216785D01*
X0368215Y0218842D01*
X0370735Y0220297D01*
X0373545Y0221050D01*
X0376455Y0221050D01*
X0379265Y0220297D01*
X0381785Y0218842D01*
X0383842Y0216785D01*
X0385200Y0214433D01*
X0385200Y0255200D01*
X0004800Y0255200D01*
X0004800Y0019757D01*
X0005735Y0020297D01*
X0008545Y0021050D01*
X0011455Y0021050D01*
X0014265Y0020297D01*
X0016785Y0018842D01*
X0018842Y0016785D01*
X0020297Y0014265D01*
X0021050Y0011455D01*
X0021050Y0008545D01*
X0020297Y0005735D01*
X0020474Y0006394D02*
X0284526Y0006394D01*
X0284098Y0007993D02*
X0020902Y0007993D01*
X0021050Y0009591D02*
X0283950Y0009591D01*
X0283950Y0011190D02*
X0021050Y0011190D01*
X0020693Y0012788D02*
X0284307Y0012788D01*
X0284773Y0014387D02*
X0020227Y0014387D01*
X0019304Y0015985D02*
X0285696Y0015985D01*
X0286957Y0017584D02*
X0018043Y0017584D01*
X0016196Y0019182D02*
X0288804Y0019182D01*
X0292540Y0020781D02*
X0012460Y0020781D01*
X0007540Y0020781D02*
X0004800Y0020781D01*
X0004800Y0022379D02*
X0385200Y0022379D01*
X0385200Y0020781D02*
X0297460Y0020781D01*
X0301196Y0019182D02*
X0385200Y0019182D01*
X0385200Y0017584D02*
X0303043Y0017584D01*
X0304304Y0015985D02*
X0385200Y0015985D01*
X0385200Y0014387D02*
X0305227Y0014387D01*
X0305693Y0012788D02*
X0385200Y0012788D01*
X0385200Y0011190D02*
X0369685Y0011190D01*
X0370614Y0009591D02*
X0385200Y0009591D01*
X0385200Y0007993D02*
X0370855Y0007993D01*
X0370528Y0006394D02*
X0385200Y0006394D01*
X0366369Y0009591D02*
X0366198Y0009591D01*
X0366198Y0011190D02*
X0366369Y0011190D01*
X0362882Y0011190D02*
X0331142Y0011190D01*
X0332055Y0009591D02*
X0361953Y0009591D01*
X0361712Y0007993D02*
X0332288Y0007993D01*
X0331953Y0006394D02*
X0362039Y0006394D01*
X0385200Y0023978D02*
X0004800Y0023978D01*
X0004800Y0025576D02*
X0385200Y0025576D01*
X0385200Y0027175D02*
X0004800Y0027175D01*
X0004800Y0028773D02*
X0385200Y0028773D01*
X0385200Y0030372D02*
X0004800Y0030372D01*
X0004800Y0031970D02*
X0385200Y0031970D01*
X0385200Y0033569D02*
X0004800Y0033569D01*
X0004800Y0035167D02*
X0385200Y0035167D01*
X0385200Y0036766D02*
X0004800Y0036766D01*
X0004800Y0038364D02*
X0385200Y0038364D01*
X0385200Y0039963D02*
X0004800Y0039963D01*
X0004800Y0041561D02*
X0385200Y0041561D01*
X0385200Y0043160D02*
X0004800Y0043160D01*
X0004800Y0044758D02*
X0385200Y0044758D01*
X0385200Y0046357D02*
X0004800Y0046357D01*
X0004800Y0047955D02*
X0385200Y0047955D01*
X0385200Y0049554D02*
X0358888Y0049554D01*
X0358739Y0049405D02*
X0360595Y0051261D01*
X0371879Y0062545D01*
X0372883Y0064971D01*
X0372883Y0067596D01*
X0372883Y0111801D01*
X0371879Y0114227D01*
X0370022Y0116083D01*
X0367596Y0117088D01*
X0364971Y0117088D01*
X0362545Y0116083D01*
X0360688Y0114227D01*
X0359683Y0111801D01*
X0359683Y0069017D01*
X0352266Y0061600D01*
X0288687Y0061600D01*
X0286261Y0060595D01*
X0284405Y0058739D01*
X0283400Y0056313D01*
X0283400Y0053687D01*
X0284405Y0051261D01*
X0286261Y0049405D01*
X0288687Y0048400D01*
X0356313Y0048400D01*
X0358739Y0049405D01*
X0360486Y0051152D02*
X0385200Y0051152D01*
X0385200Y0052751D02*
X0362085Y0052751D01*
X0363683Y0054349D02*
X0385200Y0054349D01*
X0385200Y0055948D02*
X0365282Y0055948D01*
X0366880Y0057546D02*
X0385200Y0057546D01*
X0385200Y0059145D02*
X0368479Y0059145D01*
X0370077Y0060743D02*
X0385200Y0060743D01*
X0385200Y0062342D02*
X0371676Y0062342D01*
X0372457Y0063940D02*
X0385200Y0063940D01*
X0385200Y0065539D02*
X0372883Y0065539D01*
X0372883Y0067137D02*
X0385200Y0067137D01*
X0385200Y0068736D02*
X0372883Y0068736D01*
X0372883Y0070334D02*
X0385200Y0070334D01*
X0385200Y0071933D02*
X0372883Y0071933D01*
X0372883Y0073532D02*
X0385200Y0073532D01*
X0385200Y0075130D02*
X0372883Y0075130D01*
X0372883Y0076729D02*
X0385200Y0076729D01*
X0385200Y0078327D02*
X0372883Y0078327D01*
X0372883Y0079926D02*
X0385200Y0079926D01*
X0385200Y0081524D02*
X0372883Y0081524D01*
X0372883Y0083123D02*
X0385200Y0083123D01*
X0385200Y0084721D02*
X0372883Y0084721D01*
X0372883Y0086320D02*
X0385200Y0086320D01*
X0385200Y0087918D02*
X0372883Y0087918D01*
X0372883Y0089517D02*
X0385200Y0089517D01*
X0385200Y0091115D02*
X0372883Y0091115D01*
X0372883Y0092714D02*
X0385200Y0092714D01*
X0385200Y0094312D02*
X0372883Y0094312D01*
X0372883Y0095911D02*
X0385200Y0095911D01*
X0385200Y0097509D02*
X0372883Y0097509D01*
X0372883Y0099108D02*
X0385200Y0099108D01*
X0385200Y0100706D02*
X0372883Y0100706D01*
X0372883Y0102305D02*
X0385200Y0102305D01*
X0385200Y0103903D02*
X0372883Y0103903D01*
X0372883Y0105502D02*
X0385200Y0105502D01*
X0385200Y0107100D02*
X0372883Y0107100D01*
X0372883Y0108699D02*
X0385200Y0108699D01*
X0385200Y0110297D02*
X0372883Y0110297D01*
X0372844Y0111896D02*
X0385200Y0111896D01*
X0385200Y0113494D02*
X0372182Y0113494D01*
X0371013Y0115093D02*
X0385200Y0115093D01*
X0385200Y0116691D02*
X0368554Y0116691D01*
X0364013Y0116691D02*
X0036600Y0116691D01*
X0036600Y0115093D02*
X0361554Y0115093D01*
X0360385Y0113494D02*
X0036600Y0113494D01*
X0036600Y0111896D02*
X0359723Y0111896D01*
X0359683Y0110297D02*
X0036600Y0110297D01*
X0036600Y0108699D02*
X0359683Y0108699D01*
X0359683Y0107100D02*
X0036600Y0107100D01*
X0036600Y0105502D02*
X0359683Y0105502D01*
X0359683Y0103903D02*
X0036600Y0103903D01*
X0036600Y0102305D02*
X0359683Y0102305D01*
X0359683Y0100706D02*
X0036600Y0100706D01*
X0036600Y0099108D02*
X0359683Y0099108D01*
X0359683Y0097509D02*
X0036600Y0097509D01*
X0036600Y0095911D02*
X0359683Y0095911D01*
X0359683Y0094312D02*
X0036600Y0094312D01*
X0036600Y0092714D02*
X0359683Y0092714D01*
X0359683Y0091115D02*
X0036600Y0091115D01*
X0036600Y0089517D02*
X0359683Y0089517D01*
X0359683Y0087918D02*
X0036600Y0087918D01*
X0036600Y0086320D02*
X0359683Y0086320D01*
X0359683Y0084721D02*
X0036600Y0084721D01*
X0036600Y0083123D02*
X0359683Y0083123D01*
X0359683Y0081524D02*
X0036600Y0081524D01*
X0036600Y0079926D02*
X0359683Y0079926D01*
X0359683Y0078327D02*
X0036600Y0078327D01*
X0036600Y0076729D02*
X0359683Y0076729D01*
X0359683Y0075130D02*
X0036600Y0075130D01*
X0036600Y0073532D02*
X0359683Y0073532D01*
X0359683Y0071933D02*
X0035939Y0071933D01*
X0035595Y0071104D02*
X0036600Y0073530D01*
X0036600Y0151510D01*
X0051797Y0151510D01*
X0054423Y0151510D01*
X0056849Y0152515D01*
X0063739Y0159405D01*
X0065595Y0161261D01*
X0066600Y0163687D01*
X0066600Y0221400D01*
X0078745Y0233545D01*
X0079750Y0235971D01*
X0079750Y0238596D01*
X0078745Y0241022D01*
X0076888Y0242879D01*
X0074462Y0243883D01*
X0071837Y0243883D01*
X0069411Y0242879D01*
X0054405Y0227872D01*
X0053400Y0225447D01*
X0053400Y0167734D01*
X0050376Y0164710D01*
X0028687Y0164710D01*
X0026261Y0163705D01*
X0024405Y0161849D01*
X0023400Y0159423D01*
X0023400Y0073530D01*
X0024405Y0071104D01*
X0026261Y0069247D01*
X0028687Y0068243D01*
X0031313Y0068243D01*
X0033739Y0069247D01*
X0035595Y0071104D01*
X0034826Y0070334D02*
X0359683Y0070334D01*
X0359402Y0068736D02*
X0032504Y0068736D01*
X0027496Y0068736D02*
X0004800Y0068736D01*
X0004800Y0070334D02*
X0025174Y0070334D01*
X0024061Y0071933D02*
X0004800Y0071933D01*
X0004800Y0073532D02*
X0023400Y0073532D01*
X0023400Y0075130D02*
X0004800Y0075130D01*
X0004800Y0076729D02*
X0023400Y0076729D01*
X0023400Y0078327D02*
X0004800Y0078327D01*
X0004800Y0079926D02*
X0023400Y0079926D01*
X0023400Y0081524D02*
X0004800Y0081524D01*
X0004800Y0083123D02*
X0023400Y0083123D01*
X0023400Y0084721D02*
X0004800Y0084721D01*
X0004800Y0086320D02*
X0023400Y0086320D01*
X0023400Y0087918D02*
X0004800Y0087918D01*
X0004800Y0089517D02*
X0023400Y0089517D01*
X0023400Y0091115D02*
X0004800Y0091115D01*
X0004800Y0092714D02*
X0023400Y0092714D01*
X0023400Y0094312D02*
X0004800Y0094312D01*
X0004800Y0095911D02*
X0023400Y0095911D01*
X0023400Y0097509D02*
X0004800Y0097509D01*
X0004800Y0099108D02*
X0023400Y0099108D01*
X0023400Y0100706D02*
X0004800Y0100706D01*
X0004800Y0102305D02*
X0023400Y0102305D01*
X0023400Y0103903D02*
X0004800Y0103903D01*
X0004800Y0105502D02*
X0023400Y0105502D01*
X0023400Y0107100D02*
X0004800Y0107100D01*
X0004800Y0108699D02*
X0023400Y0108699D01*
X0023400Y0110297D02*
X0004800Y0110297D01*
X0004800Y0111896D02*
X0023400Y0111896D01*
X0023400Y0113494D02*
X0004800Y0113494D01*
X0004800Y0115093D02*
X0023400Y0115093D01*
X0023400Y0116691D02*
X0004800Y0116691D01*
X0004800Y0118290D02*
X0023400Y0118290D01*
X0023400Y0119888D02*
X0004800Y0119888D01*
X0004800Y0121487D02*
X0023400Y0121487D01*
X0023400Y0123085D02*
X0004800Y0123085D01*
X0004800Y0124684D02*
X0023400Y0124684D01*
X0023400Y0126282D02*
X0004800Y0126282D01*
X0004800Y0127881D02*
X0023400Y0127881D01*
X0023400Y0129479D02*
X0004800Y0129479D01*
X0004800Y0131078D02*
X0023400Y0131078D01*
X0023400Y0132676D02*
X0004800Y0132676D01*
X0004800Y0134275D02*
X0023400Y0134275D01*
X0023400Y0135873D02*
X0004800Y0135873D01*
X0004800Y0137472D02*
X0023400Y0137472D01*
X0023400Y0139070D02*
X0004800Y0139070D01*
X0004800Y0140669D02*
X0023400Y0140669D01*
X0023400Y0142268D02*
X0004800Y0142268D01*
X0004800Y0143866D02*
X0023400Y0143866D01*
X0023400Y0145465D02*
X0004800Y0145465D01*
X0004800Y0147063D02*
X0023400Y0147063D01*
X0023400Y0148662D02*
X0004800Y0148662D01*
X0004800Y0150260D02*
X0023400Y0150260D01*
X0023400Y0151859D02*
X0004800Y0151859D01*
X0004800Y0153457D02*
X0023400Y0153457D01*
X0023400Y0155056D02*
X0004800Y0155056D01*
X0004800Y0156654D02*
X0023400Y0156654D01*
X0023400Y0158253D02*
X0004800Y0158253D01*
X0004800Y0159851D02*
X0023577Y0159851D01*
X0024239Y0161450D02*
X0004800Y0161450D01*
X0004800Y0163048D02*
X0025604Y0163048D01*
X0026381Y0166245D02*
X0004800Y0166245D01*
X0004800Y0164647D02*
X0028534Y0164647D01*
X0028687Y0165290D02*
X0031313Y0165290D01*
X0033739Y0166295D01*
X0035595Y0168151D01*
X0036600Y0170577D01*
X0036600Y0173203D01*
X0035595Y0175628D01*
X0021600Y0189624D01*
X0021600Y0246313D01*
X0020595Y0248739D01*
X0018739Y0250595D01*
X0016313Y0251600D01*
X0013687Y0251600D01*
X0011261Y0250595D01*
X0009405Y0248739D01*
X0008400Y0246313D01*
X0008400Y0185577D01*
X0009405Y0183151D01*
X0026261Y0166295D01*
X0028687Y0165290D01*
X0024712Y0167844D02*
X0004800Y0167844D01*
X0004800Y0169442D02*
X0023114Y0169442D01*
X0021515Y0171041D02*
X0004800Y0171041D01*
X0004800Y0172639D02*
X0019917Y0172639D01*
X0018318Y0174238D02*
X0004800Y0174238D01*
X0004800Y0175836D02*
X0016720Y0175836D01*
X0015121Y0177435D02*
X0004800Y0177435D01*
X0004800Y0179033D02*
X0013523Y0179033D01*
X0011924Y0180632D02*
X0004800Y0180632D01*
X0004800Y0182230D02*
X0010326Y0182230D01*
X0009124Y0183829D02*
X0004800Y0183829D01*
X0004800Y0185427D02*
X0008462Y0185427D01*
X0008400Y0187026D02*
X0004800Y0187026D01*
X0004800Y0188624D02*
X0008400Y0188624D01*
X0008400Y0190223D02*
X0004800Y0190223D01*
X0004800Y0191821D02*
X0008400Y0191821D01*
X0008400Y0193420D02*
X0004800Y0193420D01*
X0004800Y0195018D02*
X0008400Y0195018D01*
X0008400Y0196617D02*
X0004800Y0196617D01*
X0004800Y0198215D02*
X0008400Y0198215D01*
X0008400Y0199814D02*
X0004800Y0199814D01*
X0004800Y0201412D02*
X0008400Y0201412D01*
X0008400Y0203011D02*
X0004800Y0203011D01*
X0004800Y0204609D02*
X0008400Y0204609D01*
X0008400Y0206208D02*
X0004800Y0206208D01*
X0004800Y0207806D02*
X0008400Y0207806D01*
X0008400Y0209405D02*
X0004800Y0209405D01*
X0004800Y0211003D02*
X0008400Y0211003D01*
X0008400Y0212602D02*
X0004800Y0212602D01*
X0004800Y0214201D02*
X0008400Y0214201D01*
X0008400Y0215799D02*
X0004800Y0215799D01*
X0004800Y0217398D02*
X0008400Y0217398D01*
X0008400Y0218996D02*
X0004800Y0218996D01*
X0004800Y0220595D02*
X0008400Y0220595D01*
X0008400Y0222193D02*
X0004800Y0222193D01*
X0004800Y0223792D02*
X0008400Y0223792D01*
X0008400Y0225390D02*
X0004800Y0225390D01*
X0004800Y0226989D02*
X0008400Y0226989D01*
X0008400Y0228587D02*
X0004800Y0228587D01*
X0004800Y0230186D02*
X0008400Y0230186D01*
X0008400Y0231784D02*
X0004800Y0231784D01*
X0004800Y0233383D02*
X0008400Y0233383D01*
X0008400Y0234981D02*
X0004800Y0234981D01*
X0004800Y0236580D02*
X0008400Y0236580D01*
X0008400Y0238178D02*
X0004800Y0238178D01*
X0004800Y0239777D02*
X0008400Y0239777D01*
X0008400Y0241375D02*
X0004800Y0241375D01*
X0004800Y0242974D02*
X0008400Y0242974D01*
X0008400Y0244572D02*
X0004800Y0244572D01*
X0004800Y0246171D02*
X0008400Y0246171D01*
X0009003Y0247769D02*
X0004800Y0247769D01*
X0004800Y0249368D02*
X0010034Y0249368D01*
X0012157Y0250966D02*
X0004800Y0250966D01*
X0004800Y0252565D02*
X0385200Y0252565D01*
X0385200Y0254163D02*
X0004800Y0254163D01*
X0017843Y0250966D02*
X0033836Y0250966D01*
X0033577Y0250925D02*
X0032668Y0250630D01*
X0031816Y0250196D01*
X0031042Y0249634D01*
X0030366Y0248958D01*
X0029804Y0248184D01*
X0029370Y0247332D01*
X0029075Y0246423D01*
X0028948Y0245625D01*
X0034375Y0245625D01*
X0034375Y0251052D01*
X0033577Y0250925D01*
X0034375Y0250966D02*
X0035625Y0250966D01*
X0035625Y0251052D02*
X0036423Y0250925D01*
X0037332Y0250630D01*
X0038184Y0250196D01*
X0038958Y0249634D01*
X0039634Y0248958D01*
X0040196Y0248184D01*
X0040630Y0247332D01*
X0040925Y0246423D01*
X0041052Y0245625D01*
X0035625Y0245625D01*
X0035625Y0244375D01*
X0041052Y0244375D01*
X0040925Y0243577D01*
X0040630Y0242668D01*
X0040196Y0241816D01*
X0039634Y0241042D01*
X0038958Y0240366D01*
X0038184Y0239804D01*
X0037332Y0239370D01*
X0036423Y0239075D01*
X0035625Y0238948D01*
X0035625Y0244375D01*
X0034375Y0244375D01*
X0034375Y0238948D01*
X0033577Y0239075D01*
X0032668Y0239370D01*
X0031816Y0239804D01*
X0031042Y0240366D01*
X0030366Y0241042D01*
X0029804Y0241816D01*
X0029370Y0242668D01*
X0029075Y0243577D01*
X0028948Y0244375D01*
X0034375Y0244375D01*
X0034375Y0245625D01*
X0035625Y0245625D01*
X0035625Y0251052D01*
X0036164Y0250966D02*
X0282157Y0250966D01*
X0281261Y0250595D02*
X0283687Y0251600D01*
X0376313Y0251600D01*
X0378739Y0250595D01*
X0380595Y0248739D01*
X0381600Y0246313D01*
X0381600Y0243687D01*
X0380595Y0241261D01*
X0378739Y0239405D01*
X0376313Y0238400D01*
X0342734Y0238400D01*
X0334317Y0229983D01*
X0334317Y0211561D01*
X0333312Y0209135D01*
X0331455Y0207279D01*
X0329029Y0206274D01*
X0326404Y0206274D01*
X0323978Y0207279D01*
X0322121Y0209135D01*
X0321117Y0211561D01*
X0321117Y0234029D01*
X0322121Y0236455D01*
X0324066Y0238400D01*
X0287734Y0238400D01*
X0283887Y0234553D01*
X0283469Y0233545D01*
X0281613Y0231688D01*
X0279187Y0230683D01*
X0276561Y0230683D01*
X0274135Y0231688D01*
X0272279Y0233545D01*
X0271274Y0235971D01*
X0271274Y0236561D01*
X0271274Y0239187D01*
X0272279Y0241613D01*
X0279405Y0248739D01*
X0281261Y0250595D01*
X0280034Y0249368D02*
X0039224Y0249368D01*
X0040407Y0247769D02*
X0278435Y0247769D01*
X0276837Y0246171D02*
X0040965Y0246171D01*
X0040729Y0242974D02*
X0069640Y0242974D01*
X0067908Y0241375D02*
X0039876Y0241375D01*
X0038130Y0239777D02*
X0066309Y0239777D01*
X0064711Y0238178D02*
X0021600Y0238178D01*
X0021600Y0236580D02*
X0063112Y0236580D01*
X0061513Y0234981D02*
X0039812Y0234981D01*
X0039265Y0235297D02*
X0036455Y0236050D01*
X0033545Y0236050D01*
X0030735Y0235297D01*
X0028215Y0233842D01*
X0026158Y0231785D01*
X0024703Y0229265D01*
X0023950Y0226455D01*
X0023950Y0223545D01*
X0024703Y0220735D01*
X0026158Y0218215D01*
X0028215Y0216158D01*
X0030735Y0214703D01*
X0033545Y0213950D01*
X0036455Y0213950D01*
X0039265Y0214703D01*
X0041785Y0216158D01*
X0043842Y0218215D01*
X0045297Y0220735D01*
X0046050Y0223545D01*
X0046050Y0226455D01*
X0045297Y0229265D01*
X0043842Y0231785D01*
X0041785Y0233842D01*
X0039265Y0235297D01*
X0042244Y0233383D02*
X0059915Y0233383D01*
X0058316Y0231784D02*
X0043843Y0231784D01*
X0044766Y0230186D02*
X0056718Y0230186D01*
X0055119Y0228587D02*
X0045479Y0228587D01*
X0045907Y0226989D02*
X0054039Y0226989D01*
X0053400Y0225390D02*
X0046050Y0225390D01*
X0046050Y0223792D02*
X0053400Y0223792D01*
X0053400Y0222193D02*
X0045688Y0222193D01*
X0045216Y0220595D02*
X0053400Y0220595D01*
X0053400Y0218996D02*
X0044293Y0218996D01*
X0043025Y0217398D02*
X0053400Y0217398D01*
X0053400Y0215799D02*
X0041163Y0215799D01*
X0037390Y0214201D02*
X0053400Y0214201D01*
X0053400Y0212602D02*
X0021600Y0212602D01*
X0021600Y0214201D02*
X0032610Y0214201D01*
X0028837Y0215799D02*
X0021600Y0215799D01*
X0021600Y0217398D02*
X0026975Y0217398D01*
X0025707Y0218996D02*
X0021600Y0218996D01*
X0021600Y0220595D02*
X0024784Y0220595D01*
X0024312Y0222193D02*
X0021600Y0222193D01*
X0021600Y0223792D02*
X0023950Y0223792D01*
X0023950Y0225390D02*
X0021600Y0225390D01*
X0021600Y0226989D02*
X0024093Y0226989D01*
X0024521Y0228587D02*
X0021600Y0228587D01*
X0021600Y0230186D02*
X0025234Y0230186D01*
X0026157Y0231784D02*
X0021600Y0231784D01*
X0021600Y0233383D02*
X0027756Y0233383D01*
X0030188Y0234981D02*
X0021600Y0234981D01*
X0021600Y0239777D02*
X0031870Y0239777D01*
X0030124Y0241375D02*
X0021600Y0241375D01*
X0021600Y0242974D02*
X0029271Y0242974D01*
X0029035Y0246171D02*
X0021600Y0246171D01*
X0021600Y0244572D02*
X0034375Y0244572D01*
X0035625Y0244572D02*
X0275238Y0244572D01*
X0273640Y0242974D02*
X0076659Y0242974D01*
X0078392Y0241375D02*
X0272180Y0241375D01*
X0271518Y0239777D02*
X0079261Y0239777D01*
X0079750Y0238178D02*
X0271274Y0238178D01*
X0271274Y0236580D02*
X0079750Y0236580D01*
X0079340Y0234981D02*
X0271684Y0234981D01*
X0272441Y0233383D02*
X0078583Y0233383D01*
X0076984Y0231784D02*
X0274040Y0231784D01*
X0281709Y0231784D02*
X0321117Y0231784D01*
X0321117Y0230186D02*
X0075386Y0230186D01*
X0073787Y0228587D02*
X0321117Y0228587D01*
X0321117Y0226989D02*
X0072189Y0226989D01*
X0070590Y0225390D02*
X0321117Y0225390D01*
X0321117Y0223792D02*
X0068992Y0223792D01*
X0067393Y0222193D02*
X0321117Y0222193D01*
X0321117Y0220595D02*
X0066600Y0220595D01*
X0066600Y0218996D02*
X0321117Y0218996D01*
X0321117Y0217398D02*
X0066600Y0217398D01*
X0066600Y0215799D02*
X0321117Y0215799D01*
X0321117Y0214201D02*
X0066600Y0214201D01*
X0066600Y0212602D02*
X0321117Y0212602D01*
X0321348Y0211003D02*
X0066600Y0211003D01*
X0066600Y0209405D02*
X0322010Y0209405D01*
X0323450Y0207806D02*
X0066600Y0207806D01*
X0066600Y0206208D02*
X0364576Y0206208D01*
X0364148Y0207806D02*
X0331983Y0207806D01*
X0333423Y0209405D02*
X0363950Y0209405D01*
X0363950Y0211003D02*
X0334086Y0211003D01*
X0334317Y0212602D02*
X0364257Y0212602D01*
X0364686Y0214201D02*
X0334317Y0214201D01*
X0334317Y0215799D02*
X0365589Y0215799D01*
X0366770Y0217398D02*
X0334317Y0217398D01*
X0334317Y0218996D02*
X0368482Y0218996D01*
X0371846Y0220595D02*
X0334317Y0220595D01*
X0334317Y0222193D02*
X0385200Y0222193D01*
X0385200Y0220595D02*
X0378154Y0220595D01*
X0381518Y0218996D02*
X0385200Y0218996D01*
X0385200Y0217398D02*
X0383230Y0217398D01*
X0384411Y0215799D02*
X0385200Y0215799D01*
X0385200Y0223792D02*
X0334317Y0223792D01*
X0334317Y0225390D02*
X0371019Y0225390D01*
X0371042Y0225366D02*
X0371816Y0224804D01*
X0372668Y0224370D01*
X0373577Y0224075D01*
X0374375Y0223948D01*
X0374375Y0229375D01*
X0375625Y0229375D01*
X0375625Y0230625D01*
X0381052Y0230625D01*
X0380925Y0231423D01*
X0380630Y0232332D01*
X0380196Y0233184D01*
X0379634Y0233958D01*
X0378958Y0234634D01*
X0378184Y0235196D01*
X0377332Y0235630D01*
X0376423Y0235925D01*
X0375625Y0236052D01*
X0375625Y0230625D01*
X0374375Y0230625D01*
X0374375Y0236052D01*
X0373577Y0235925D01*
X0372668Y0235630D01*
X0371816Y0235196D01*
X0371042Y0234634D01*
X0370366Y0233958D01*
X0369804Y0233184D01*
X0369370Y0232332D01*
X0369075Y0231423D01*
X0368948Y0230625D01*
X0374375Y0230625D01*
X0374375Y0229375D01*
X0368948Y0229375D01*
X0369075Y0228577D01*
X0369370Y0227668D01*
X0369804Y0226816D01*
X0370366Y0226042D01*
X0371042Y0225366D01*
X0369716Y0226989D02*
X0334317Y0226989D01*
X0334317Y0228587D02*
X0369073Y0228587D01*
X0374375Y0228587D02*
X0375625Y0228587D01*
X0375625Y0229375D02*
X0375625Y0223948D01*
X0376423Y0224075D01*
X0377332Y0224370D01*
X0378184Y0224804D01*
X0378958Y0225366D01*
X0379634Y0226042D01*
X0380196Y0226816D01*
X0380630Y0227668D01*
X0380925Y0228577D01*
X0381052Y0229375D01*
X0375625Y0229375D01*
X0375625Y0230186D02*
X0385200Y0230186D01*
X0385200Y0231784D02*
X0380808Y0231784D01*
X0380051Y0233383D02*
X0385200Y0233383D01*
X0385200Y0234981D02*
X0378479Y0234981D01*
X0375625Y0234981D02*
X0374375Y0234981D01*
X0374375Y0233383D02*
X0375625Y0233383D01*
X0375625Y0231784D02*
X0374375Y0231784D01*
X0374375Y0230186D02*
X0334519Y0230186D01*
X0336118Y0231784D02*
X0369192Y0231784D01*
X0369949Y0233383D02*
X0337716Y0233383D01*
X0339315Y0234981D02*
X0371521Y0234981D01*
X0379111Y0239777D02*
X0385200Y0239777D01*
X0385200Y0241375D02*
X0380642Y0241375D01*
X0381304Y0242974D02*
X0385200Y0242974D01*
X0385200Y0244572D02*
X0381600Y0244572D01*
X0381600Y0246171D02*
X0385200Y0246171D01*
X0385200Y0247769D02*
X0380997Y0247769D01*
X0379966Y0249368D02*
X0385200Y0249368D01*
X0385200Y0250966D02*
X0377843Y0250966D01*
X0385200Y0238178D02*
X0342512Y0238178D01*
X0340913Y0236580D02*
X0385200Y0236580D01*
X0385200Y0228587D02*
X0380927Y0228587D01*
X0380284Y0226989D02*
X0385200Y0226989D01*
X0385200Y0225390D02*
X0378981Y0225390D01*
X0375625Y0225390D02*
X0374375Y0225390D01*
X0374375Y0226989D02*
X0375625Y0226989D01*
X0384647Y0204609D02*
X0385200Y0204609D01*
X0385200Y0203011D02*
X0383638Y0203011D01*
X0385200Y0201412D02*
X0382039Y0201412D01*
X0379457Y0199814D02*
X0385200Y0199814D01*
X0385200Y0198215D02*
X0066600Y0198215D01*
X0066600Y0196617D02*
X0385200Y0196617D01*
X0385200Y0195018D02*
X0066600Y0195018D01*
X0066600Y0193420D02*
X0385200Y0193420D01*
X0385200Y0191821D02*
X0066600Y0191821D01*
X0066600Y0190223D02*
X0385200Y0190223D01*
X0385200Y0188624D02*
X0066600Y0188624D01*
X0066600Y0187026D02*
X0385200Y0187026D01*
X0385200Y0185427D02*
X0066600Y0185427D01*
X0066600Y0183829D02*
X0385200Y0183829D01*
X0385200Y0182230D02*
X0066600Y0182230D01*
X0066600Y0180632D02*
X0385200Y0180632D01*
X0385200Y0179033D02*
X0066600Y0179033D01*
X0066600Y0177435D02*
X0385200Y0177435D01*
X0385200Y0175836D02*
X0066600Y0175836D01*
X0066600Y0174238D02*
X0385200Y0174238D01*
X0385200Y0172639D02*
X0066600Y0172639D01*
X0066600Y0171041D02*
X0385200Y0171041D01*
X0385200Y0169442D02*
X0293328Y0169442D01*
X0293616Y0169233D02*
X0292909Y0169747D01*
X0292130Y0170143D01*
X0291300Y0170413D01*
X0290450Y0170548D01*
X0290450Y0165450D01*
X0295548Y0165450D01*
X0295413Y0166300D01*
X0295143Y0167130D01*
X0294747Y0167909D01*
X0294233Y0168616D01*
X0293616Y0169233D01*
X0294780Y0167844D02*
X0385200Y0167844D01*
X0385200Y0166245D02*
X0295422Y0166245D01*
X0295548Y0164550D02*
X0290450Y0164550D01*
X0290450Y0165450D01*
X0289550Y0165450D01*
X0289550Y0170548D01*
X0288700Y0170413D01*
X0287870Y0170143D01*
X0287091Y0169747D01*
X0286384Y0169233D01*
X0285767Y0168616D01*
X0285253Y0167909D01*
X0284857Y0167130D01*
X0284587Y0166300D01*
X0284452Y0165450D01*
X0289550Y0165450D01*
X0289550Y0164550D01*
X0290450Y0164550D01*
X0290450Y0159452D01*
X0291300Y0159587D01*
X0292130Y0159857D01*
X0292909Y0160253D01*
X0293616Y0160767D01*
X0294233Y0161384D01*
X0294747Y0162091D01*
X0295143Y0162870D01*
X0295413Y0163700D01*
X0295548Y0164550D01*
X0295201Y0163048D02*
X0385200Y0163048D01*
X0385200Y0161450D02*
X0294281Y0161450D01*
X0292114Y0159851D02*
X0385200Y0159851D01*
X0385200Y0158253D02*
X0062586Y0158253D01*
X0060988Y0156654D02*
X0385200Y0156654D01*
X0385200Y0155056D02*
X0059389Y0155056D01*
X0057791Y0153457D02*
X0385200Y0153457D01*
X0385200Y0151859D02*
X0055264Y0151859D01*
X0064185Y0159851D02*
X0287886Y0159851D01*
X0287870Y0159857D02*
X0288700Y0159587D01*
X0289550Y0159452D01*
X0289550Y0164550D01*
X0284452Y0164550D01*
X0284587Y0163700D01*
X0284857Y0162870D01*
X0285253Y0162091D01*
X0285767Y0161384D01*
X0286384Y0160767D01*
X0287091Y0160253D01*
X0287870Y0159857D01*
X0289550Y0159851D02*
X0290450Y0159851D01*
X0290450Y0161450D02*
X0289550Y0161450D01*
X0289550Y0163048D02*
X0290450Y0163048D01*
X0290450Y0164647D02*
X0385200Y0164647D01*
X0385200Y0150260D02*
X0036600Y0150260D01*
X0036600Y0148662D02*
X0385200Y0148662D01*
X0385200Y0147063D02*
X0036600Y0147063D01*
X0036600Y0145465D02*
X0385200Y0145465D01*
X0385200Y0143866D02*
X0036600Y0143866D01*
X0036600Y0142268D02*
X0385200Y0142268D01*
X0385200Y0140669D02*
X0036600Y0140669D01*
X0036600Y0139070D02*
X0385200Y0139070D01*
X0385200Y0137472D02*
X0036600Y0137472D01*
X0036600Y0135873D02*
X0385200Y0135873D01*
X0385200Y0134275D02*
X0036600Y0134275D01*
X0036600Y0132676D02*
X0385200Y0132676D01*
X0385200Y0131078D02*
X0036600Y0131078D01*
X0036600Y0129479D02*
X0385200Y0129479D01*
X0385200Y0127881D02*
X0036600Y0127881D01*
X0036600Y0126282D02*
X0385200Y0126282D01*
X0385200Y0124684D02*
X0036600Y0124684D01*
X0036600Y0123085D02*
X0385200Y0123085D01*
X0385200Y0121487D02*
X0036600Y0121487D01*
X0036600Y0119888D02*
X0385200Y0119888D01*
X0385200Y0118290D02*
X0036600Y0118290D01*
X0065673Y0161450D02*
X0285719Y0161450D01*
X0284799Y0163048D02*
X0066335Y0163048D01*
X0066600Y0164647D02*
X0289550Y0164647D01*
X0289550Y0166245D02*
X0290450Y0166245D01*
X0290450Y0167844D02*
X0289550Y0167844D01*
X0289550Y0169442D02*
X0290450Y0169442D01*
X0286672Y0169442D02*
X0066600Y0169442D01*
X0066600Y0167844D02*
X0285220Y0167844D01*
X0284578Y0166245D02*
X0066600Y0166245D01*
X0053400Y0167844D02*
X0035288Y0167844D01*
X0036130Y0169442D02*
X0053400Y0169442D01*
X0053400Y0171041D02*
X0036600Y0171041D01*
X0036600Y0172639D02*
X0053400Y0172639D01*
X0053400Y0174238D02*
X0036171Y0174238D01*
X0035387Y0175836D02*
X0053400Y0175836D01*
X0053400Y0177435D02*
X0033789Y0177435D01*
X0032190Y0179033D02*
X0053400Y0179033D01*
X0053400Y0180632D02*
X0030592Y0180632D01*
X0028993Y0182230D02*
X0053400Y0182230D01*
X0053400Y0183829D02*
X0027395Y0183829D01*
X0025796Y0185427D02*
X0053400Y0185427D01*
X0053400Y0187026D02*
X0024198Y0187026D01*
X0022599Y0188624D02*
X0053400Y0188624D01*
X0053400Y0190223D02*
X0021600Y0190223D01*
X0021600Y0191821D02*
X0053400Y0191821D01*
X0053400Y0193420D02*
X0021600Y0193420D01*
X0021600Y0195018D02*
X0053400Y0195018D01*
X0053400Y0196617D02*
X0021600Y0196617D01*
X0021600Y0198215D02*
X0053400Y0198215D01*
X0053400Y0199814D02*
X0021600Y0199814D01*
X0021600Y0201412D02*
X0053400Y0201412D01*
X0053400Y0203011D02*
X0021600Y0203011D01*
X0021600Y0204609D02*
X0053400Y0204609D01*
X0053400Y0206208D02*
X0021600Y0206208D01*
X0021600Y0207806D02*
X0053400Y0207806D01*
X0053400Y0209405D02*
X0021600Y0209405D01*
X0021600Y0211003D02*
X0053400Y0211003D01*
X0066600Y0204609D02*
X0365353Y0204609D01*
X0366362Y0203011D02*
X0066600Y0203011D01*
X0066600Y0201412D02*
X0367961Y0201412D01*
X0370543Y0199814D02*
X0066600Y0199814D01*
X0051911Y0166245D02*
X0033619Y0166245D01*
X0034375Y0239777D02*
X0035625Y0239777D01*
X0035625Y0241375D02*
X0034375Y0241375D01*
X0034375Y0242974D02*
X0035625Y0242974D01*
X0035625Y0246171D02*
X0034375Y0246171D01*
X0034375Y0247769D02*
X0035625Y0247769D01*
X0035625Y0249368D02*
X0034375Y0249368D01*
X0030776Y0249368D02*
X0019966Y0249368D01*
X0020997Y0247769D02*
X0029593Y0247769D01*
X0283307Y0233383D02*
X0321117Y0233383D01*
X0321511Y0234981D02*
X0284315Y0234981D01*
X0285913Y0236580D02*
X0322246Y0236580D01*
X0323844Y0238178D02*
X0287512Y0238178D01*
X0357804Y0067137D02*
X0004800Y0067137D01*
X0004800Y0065539D02*
X0356205Y0065539D01*
X0354607Y0063940D02*
X0004800Y0063940D01*
X0004800Y0062342D02*
X0353008Y0062342D01*
X0286619Y0060743D02*
X0063590Y0060743D01*
X0063581Y0060753D02*
X0061155Y0061757D01*
X0058530Y0061757D01*
X0028687Y0061757D01*
X0026261Y0060753D01*
X0024405Y0058896D01*
X0023400Y0056470D01*
X0023400Y0053845D01*
X0024405Y0051419D01*
X0026261Y0049562D01*
X0028687Y0048557D01*
X0058307Y0048557D01*
X0058687Y0048400D01*
X0061313Y0048400D01*
X0063739Y0049405D01*
X0065595Y0051261D01*
X0066600Y0053687D01*
X0066600Y0056313D01*
X0065595Y0058739D01*
X0063581Y0060753D01*
X0065189Y0059145D02*
X0284811Y0059145D01*
X0283911Y0057546D02*
X0066089Y0057546D01*
X0066600Y0055948D02*
X0283400Y0055948D01*
X0283400Y0054349D02*
X0066600Y0054349D01*
X0066212Y0052751D02*
X0283788Y0052751D01*
X0284514Y0051152D02*
X0065486Y0051152D01*
X0063888Y0049554D02*
X0286112Y0049554D01*
X0306050Y0011190D02*
X0324291Y0011190D01*
X0323378Y0009591D02*
X0306050Y0009591D01*
X0305902Y0007993D02*
X0323145Y0007993D01*
X0323480Y0006394D02*
X0305474Y0006394D01*
X0327631Y0009591D02*
X0327802Y0009591D01*
X0327802Y0011190D02*
X0327631Y0011190D01*
X0026282Y0049554D02*
X0004800Y0049554D01*
X0004800Y0051152D02*
X0024671Y0051152D01*
X0023853Y0052751D02*
X0004800Y0052751D01*
X0004800Y0054349D02*
X0023400Y0054349D01*
X0023400Y0055948D02*
X0004800Y0055948D01*
X0004800Y0057546D02*
X0023846Y0057546D01*
X0024654Y0059145D02*
X0004800Y0059145D01*
X0004800Y0060743D02*
X0026252Y0060743D01*
M02*
