G75*
%MOIN*%
%OFA0B0*%
%FSLAX25Y25*%
%IPPOS*%
%LPD*%
%AMOC8*
5,1,8,0,0,1.08239X$1,22.5*
%
%ADD10C,0.00000*%
D10*
X0000000Y0000000D02*
X0000000Y0260000D01*
X0390000Y0260000D01*
X0390000Y0000000D01*
X0000000Y0000000D01*
X0003750Y0010000D02*
X0003752Y0010158D01*
X0003758Y0010315D01*
X0003768Y0010473D01*
X0003782Y0010630D01*
X0003800Y0010786D01*
X0003821Y0010943D01*
X0003847Y0011098D01*
X0003877Y0011253D01*
X0003910Y0011407D01*
X0003948Y0011560D01*
X0003989Y0011713D01*
X0004034Y0011864D01*
X0004083Y0012014D01*
X0004136Y0012162D01*
X0004192Y0012310D01*
X0004253Y0012455D01*
X0004316Y0012600D01*
X0004384Y0012742D01*
X0004455Y0012883D01*
X0004529Y0013022D01*
X0004607Y0013159D01*
X0004689Y0013294D01*
X0004773Y0013427D01*
X0004862Y0013558D01*
X0004953Y0013686D01*
X0005048Y0013813D01*
X0005145Y0013936D01*
X0005246Y0014058D01*
X0005350Y0014176D01*
X0005457Y0014292D01*
X0005567Y0014405D01*
X0005679Y0014516D01*
X0005795Y0014623D01*
X0005913Y0014728D01*
X0006033Y0014830D01*
X0006156Y0014928D01*
X0006282Y0015024D01*
X0006410Y0015116D01*
X0006540Y0015205D01*
X0006672Y0015291D01*
X0006807Y0015373D01*
X0006944Y0015452D01*
X0007082Y0015527D01*
X0007222Y0015599D01*
X0007365Y0015667D01*
X0007508Y0015732D01*
X0007654Y0015793D01*
X0007801Y0015850D01*
X0007949Y0015904D01*
X0008099Y0015954D01*
X0008249Y0016000D01*
X0008401Y0016042D01*
X0008554Y0016081D01*
X0008708Y0016115D01*
X0008863Y0016146D01*
X0009018Y0016172D01*
X0009174Y0016195D01*
X0009331Y0016214D01*
X0009488Y0016229D01*
X0009645Y0016240D01*
X0009803Y0016247D01*
X0009961Y0016250D01*
X0010118Y0016249D01*
X0010276Y0016244D01*
X0010433Y0016235D01*
X0010591Y0016222D01*
X0010747Y0016205D01*
X0010904Y0016184D01*
X0011059Y0016160D01*
X0011214Y0016131D01*
X0011369Y0016098D01*
X0011522Y0016062D01*
X0011675Y0016021D01*
X0011826Y0015977D01*
X0011976Y0015929D01*
X0012125Y0015878D01*
X0012273Y0015822D01*
X0012419Y0015763D01*
X0012564Y0015700D01*
X0012707Y0015633D01*
X0012848Y0015563D01*
X0012987Y0015490D01*
X0013125Y0015413D01*
X0013261Y0015332D01*
X0013394Y0015248D01*
X0013525Y0015161D01*
X0013654Y0015070D01*
X0013781Y0014976D01*
X0013906Y0014879D01*
X0014027Y0014779D01*
X0014147Y0014676D01*
X0014263Y0014570D01*
X0014377Y0014461D01*
X0014489Y0014349D01*
X0014597Y0014235D01*
X0014702Y0014117D01*
X0014805Y0013997D01*
X0014904Y0013875D01*
X0015000Y0013750D01*
X0015093Y0013622D01*
X0015183Y0013493D01*
X0015269Y0013361D01*
X0015353Y0013227D01*
X0015432Y0013091D01*
X0015509Y0012953D01*
X0015581Y0012813D01*
X0015650Y0012671D01*
X0015716Y0012528D01*
X0015778Y0012383D01*
X0015836Y0012236D01*
X0015891Y0012088D01*
X0015942Y0011939D01*
X0015989Y0011788D01*
X0016032Y0011637D01*
X0016071Y0011484D01*
X0016107Y0011330D01*
X0016138Y0011176D01*
X0016166Y0011021D01*
X0016190Y0010865D01*
X0016210Y0010708D01*
X0016226Y0010551D01*
X0016238Y0010394D01*
X0016246Y0010237D01*
X0016250Y0010079D01*
X0016250Y0009921D01*
X0016246Y0009763D01*
X0016238Y0009606D01*
X0016226Y0009449D01*
X0016210Y0009292D01*
X0016190Y0009135D01*
X0016166Y0008979D01*
X0016138Y0008824D01*
X0016107Y0008670D01*
X0016071Y0008516D01*
X0016032Y0008363D01*
X0015989Y0008212D01*
X0015942Y0008061D01*
X0015891Y0007912D01*
X0015836Y0007764D01*
X0015778Y0007617D01*
X0015716Y0007472D01*
X0015650Y0007329D01*
X0015581Y0007187D01*
X0015509Y0007047D01*
X0015432Y0006909D01*
X0015353Y0006773D01*
X0015269Y0006639D01*
X0015183Y0006507D01*
X0015093Y0006378D01*
X0015000Y0006250D01*
X0014904Y0006125D01*
X0014805Y0006003D01*
X0014702Y0005883D01*
X0014597Y0005765D01*
X0014489Y0005651D01*
X0014377Y0005539D01*
X0014263Y0005430D01*
X0014147Y0005324D01*
X0014027Y0005221D01*
X0013906Y0005121D01*
X0013781Y0005024D01*
X0013654Y0004930D01*
X0013525Y0004839D01*
X0013394Y0004752D01*
X0013261Y0004668D01*
X0013125Y0004587D01*
X0012987Y0004510D01*
X0012848Y0004437D01*
X0012707Y0004367D01*
X0012564Y0004300D01*
X0012419Y0004237D01*
X0012273Y0004178D01*
X0012125Y0004122D01*
X0011976Y0004071D01*
X0011826Y0004023D01*
X0011675Y0003979D01*
X0011522Y0003938D01*
X0011369Y0003902D01*
X0011214Y0003869D01*
X0011059Y0003840D01*
X0010904Y0003816D01*
X0010747Y0003795D01*
X0010591Y0003778D01*
X0010433Y0003765D01*
X0010276Y0003756D01*
X0010118Y0003751D01*
X0009961Y0003750D01*
X0009803Y0003753D01*
X0009645Y0003760D01*
X0009488Y0003771D01*
X0009331Y0003786D01*
X0009174Y0003805D01*
X0009018Y0003828D01*
X0008863Y0003854D01*
X0008708Y0003885D01*
X0008554Y0003919D01*
X0008401Y0003958D01*
X0008249Y0004000D01*
X0008099Y0004046D01*
X0007949Y0004096D01*
X0007801Y0004150D01*
X0007654Y0004207D01*
X0007508Y0004268D01*
X0007365Y0004333D01*
X0007222Y0004401D01*
X0007082Y0004473D01*
X0006944Y0004548D01*
X0006807Y0004627D01*
X0006672Y0004709D01*
X0006540Y0004795D01*
X0006410Y0004884D01*
X0006282Y0004976D01*
X0006156Y0005072D01*
X0006033Y0005170D01*
X0005913Y0005272D01*
X0005795Y0005377D01*
X0005679Y0005484D01*
X0005567Y0005595D01*
X0005457Y0005708D01*
X0005350Y0005824D01*
X0005246Y0005942D01*
X0005145Y0006064D01*
X0005048Y0006187D01*
X0004953Y0006314D01*
X0004862Y0006442D01*
X0004773Y0006573D01*
X0004689Y0006706D01*
X0004607Y0006841D01*
X0004529Y0006978D01*
X0004455Y0007117D01*
X0004384Y0007258D01*
X0004316Y0007400D01*
X0004253Y0007545D01*
X0004192Y0007690D01*
X0004136Y0007838D01*
X0004083Y0007986D01*
X0004034Y0008136D01*
X0003989Y0008287D01*
X0003948Y0008440D01*
X0003910Y0008593D01*
X0003877Y0008747D01*
X0003847Y0008902D01*
X0003821Y0009057D01*
X0003800Y0009214D01*
X0003782Y0009370D01*
X0003768Y0009527D01*
X0003758Y0009685D01*
X0003752Y0009842D01*
X0003750Y0010000D01*
X0288750Y0010000D02*
X0288752Y0010158D01*
X0288758Y0010315D01*
X0288768Y0010473D01*
X0288782Y0010630D01*
X0288800Y0010786D01*
X0288821Y0010943D01*
X0288847Y0011098D01*
X0288877Y0011253D01*
X0288910Y0011407D01*
X0288948Y0011560D01*
X0288989Y0011713D01*
X0289034Y0011864D01*
X0289083Y0012014D01*
X0289136Y0012162D01*
X0289192Y0012310D01*
X0289253Y0012455D01*
X0289316Y0012600D01*
X0289384Y0012742D01*
X0289455Y0012883D01*
X0289529Y0013022D01*
X0289607Y0013159D01*
X0289689Y0013294D01*
X0289773Y0013427D01*
X0289862Y0013558D01*
X0289953Y0013686D01*
X0290048Y0013813D01*
X0290145Y0013936D01*
X0290246Y0014058D01*
X0290350Y0014176D01*
X0290457Y0014292D01*
X0290567Y0014405D01*
X0290679Y0014516D01*
X0290795Y0014623D01*
X0290913Y0014728D01*
X0291033Y0014830D01*
X0291156Y0014928D01*
X0291282Y0015024D01*
X0291410Y0015116D01*
X0291540Y0015205D01*
X0291672Y0015291D01*
X0291807Y0015373D01*
X0291944Y0015452D01*
X0292082Y0015527D01*
X0292222Y0015599D01*
X0292365Y0015667D01*
X0292508Y0015732D01*
X0292654Y0015793D01*
X0292801Y0015850D01*
X0292949Y0015904D01*
X0293099Y0015954D01*
X0293249Y0016000D01*
X0293401Y0016042D01*
X0293554Y0016081D01*
X0293708Y0016115D01*
X0293863Y0016146D01*
X0294018Y0016172D01*
X0294174Y0016195D01*
X0294331Y0016214D01*
X0294488Y0016229D01*
X0294645Y0016240D01*
X0294803Y0016247D01*
X0294961Y0016250D01*
X0295118Y0016249D01*
X0295276Y0016244D01*
X0295433Y0016235D01*
X0295591Y0016222D01*
X0295747Y0016205D01*
X0295904Y0016184D01*
X0296059Y0016160D01*
X0296214Y0016131D01*
X0296369Y0016098D01*
X0296522Y0016062D01*
X0296675Y0016021D01*
X0296826Y0015977D01*
X0296976Y0015929D01*
X0297125Y0015878D01*
X0297273Y0015822D01*
X0297419Y0015763D01*
X0297564Y0015700D01*
X0297707Y0015633D01*
X0297848Y0015563D01*
X0297987Y0015490D01*
X0298125Y0015413D01*
X0298261Y0015332D01*
X0298394Y0015248D01*
X0298525Y0015161D01*
X0298654Y0015070D01*
X0298781Y0014976D01*
X0298906Y0014879D01*
X0299027Y0014779D01*
X0299147Y0014676D01*
X0299263Y0014570D01*
X0299377Y0014461D01*
X0299489Y0014349D01*
X0299597Y0014235D01*
X0299702Y0014117D01*
X0299805Y0013997D01*
X0299904Y0013875D01*
X0300000Y0013750D01*
X0300093Y0013622D01*
X0300183Y0013493D01*
X0300269Y0013361D01*
X0300353Y0013227D01*
X0300432Y0013091D01*
X0300509Y0012953D01*
X0300581Y0012813D01*
X0300650Y0012671D01*
X0300716Y0012528D01*
X0300778Y0012383D01*
X0300836Y0012236D01*
X0300891Y0012088D01*
X0300942Y0011939D01*
X0300989Y0011788D01*
X0301032Y0011637D01*
X0301071Y0011484D01*
X0301107Y0011330D01*
X0301138Y0011176D01*
X0301166Y0011021D01*
X0301190Y0010865D01*
X0301210Y0010708D01*
X0301226Y0010551D01*
X0301238Y0010394D01*
X0301246Y0010237D01*
X0301250Y0010079D01*
X0301250Y0009921D01*
X0301246Y0009763D01*
X0301238Y0009606D01*
X0301226Y0009449D01*
X0301210Y0009292D01*
X0301190Y0009135D01*
X0301166Y0008979D01*
X0301138Y0008824D01*
X0301107Y0008670D01*
X0301071Y0008516D01*
X0301032Y0008363D01*
X0300989Y0008212D01*
X0300942Y0008061D01*
X0300891Y0007912D01*
X0300836Y0007764D01*
X0300778Y0007617D01*
X0300716Y0007472D01*
X0300650Y0007329D01*
X0300581Y0007187D01*
X0300509Y0007047D01*
X0300432Y0006909D01*
X0300353Y0006773D01*
X0300269Y0006639D01*
X0300183Y0006507D01*
X0300093Y0006378D01*
X0300000Y0006250D01*
X0299904Y0006125D01*
X0299805Y0006003D01*
X0299702Y0005883D01*
X0299597Y0005765D01*
X0299489Y0005651D01*
X0299377Y0005539D01*
X0299263Y0005430D01*
X0299147Y0005324D01*
X0299027Y0005221D01*
X0298906Y0005121D01*
X0298781Y0005024D01*
X0298654Y0004930D01*
X0298525Y0004839D01*
X0298394Y0004752D01*
X0298261Y0004668D01*
X0298125Y0004587D01*
X0297987Y0004510D01*
X0297848Y0004437D01*
X0297707Y0004367D01*
X0297564Y0004300D01*
X0297419Y0004237D01*
X0297273Y0004178D01*
X0297125Y0004122D01*
X0296976Y0004071D01*
X0296826Y0004023D01*
X0296675Y0003979D01*
X0296522Y0003938D01*
X0296369Y0003902D01*
X0296214Y0003869D01*
X0296059Y0003840D01*
X0295904Y0003816D01*
X0295747Y0003795D01*
X0295591Y0003778D01*
X0295433Y0003765D01*
X0295276Y0003756D01*
X0295118Y0003751D01*
X0294961Y0003750D01*
X0294803Y0003753D01*
X0294645Y0003760D01*
X0294488Y0003771D01*
X0294331Y0003786D01*
X0294174Y0003805D01*
X0294018Y0003828D01*
X0293863Y0003854D01*
X0293708Y0003885D01*
X0293554Y0003919D01*
X0293401Y0003958D01*
X0293249Y0004000D01*
X0293099Y0004046D01*
X0292949Y0004096D01*
X0292801Y0004150D01*
X0292654Y0004207D01*
X0292508Y0004268D01*
X0292365Y0004333D01*
X0292222Y0004401D01*
X0292082Y0004473D01*
X0291944Y0004548D01*
X0291807Y0004627D01*
X0291672Y0004709D01*
X0291540Y0004795D01*
X0291410Y0004884D01*
X0291282Y0004976D01*
X0291156Y0005072D01*
X0291033Y0005170D01*
X0290913Y0005272D01*
X0290795Y0005377D01*
X0290679Y0005484D01*
X0290567Y0005595D01*
X0290457Y0005708D01*
X0290350Y0005824D01*
X0290246Y0005942D01*
X0290145Y0006064D01*
X0290048Y0006187D01*
X0289953Y0006314D01*
X0289862Y0006442D01*
X0289773Y0006573D01*
X0289689Y0006706D01*
X0289607Y0006841D01*
X0289529Y0006978D01*
X0289455Y0007117D01*
X0289384Y0007258D01*
X0289316Y0007400D01*
X0289253Y0007545D01*
X0289192Y0007690D01*
X0289136Y0007838D01*
X0289083Y0007986D01*
X0289034Y0008136D01*
X0288989Y0008287D01*
X0288948Y0008440D01*
X0288910Y0008593D01*
X0288877Y0008747D01*
X0288847Y0008902D01*
X0288821Y0009057D01*
X0288800Y0009214D01*
X0288782Y0009370D01*
X0288768Y0009527D01*
X0288758Y0009685D01*
X0288752Y0009842D01*
X0288750Y0010000D01*
X0368750Y0210000D02*
X0368752Y0210158D01*
X0368758Y0210315D01*
X0368768Y0210473D01*
X0368782Y0210630D01*
X0368800Y0210786D01*
X0368821Y0210943D01*
X0368847Y0211098D01*
X0368877Y0211253D01*
X0368910Y0211407D01*
X0368948Y0211560D01*
X0368989Y0211713D01*
X0369034Y0211864D01*
X0369083Y0212014D01*
X0369136Y0212162D01*
X0369192Y0212310D01*
X0369253Y0212455D01*
X0369316Y0212600D01*
X0369384Y0212742D01*
X0369455Y0212883D01*
X0369529Y0213022D01*
X0369607Y0213159D01*
X0369689Y0213294D01*
X0369773Y0213427D01*
X0369862Y0213558D01*
X0369953Y0213686D01*
X0370048Y0213813D01*
X0370145Y0213936D01*
X0370246Y0214058D01*
X0370350Y0214176D01*
X0370457Y0214292D01*
X0370567Y0214405D01*
X0370679Y0214516D01*
X0370795Y0214623D01*
X0370913Y0214728D01*
X0371033Y0214830D01*
X0371156Y0214928D01*
X0371282Y0215024D01*
X0371410Y0215116D01*
X0371540Y0215205D01*
X0371672Y0215291D01*
X0371807Y0215373D01*
X0371944Y0215452D01*
X0372082Y0215527D01*
X0372222Y0215599D01*
X0372365Y0215667D01*
X0372508Y0215732D01*
X0372654Y0215793D01*
X0372801Y0215850D01*
X0372949Y0215904D01*
X0373099Y0215954D01*
X0373249Y0216000D01*
X0373401Y0216042D01*
X0373554Y0216081D01*
X0373708Y0216115D01*
X0373863Y0216146D01*
X0374018Y0216172D01*
X0374174Y0216195D01*
X0374331Y0216214D01*
X0374488Y0216229D01*
X0374645Y0216240D01*
X0374803Y0216247D01*
X0374961Y0216250D01*
X0375118Y0216249D01*
X0375276Y0216244D01*
X0375433Y0216235D01*
X0375591Y0216222D01*
X0375747Y0216205D01*
X0375904Y0216184D01*
X0376059Y0216160D01*
X0376214Y0216131D01*
X0376369Y0216098D01*
X0376522Y0216062D01*
X0376675Y0216021D01*
X0376826Y0215977D01*
X0376976Y0215929D01*
X0377125Y0215878D01*
X0377273Y0215822D01*
X0377419Y0215763D01*
X0377564Y0215700D01*
X0377707Y0215633D01*
X0377848Y0215563D01*
X0377987Y0215490D01*
X0378125Y0215413D01*
X0378261Y0215332D01*
X0378394Y0215248D01*
X0378525Y0215161D01*
X0378654Y0215070D01*
X0378781Y0214976D01*
X0378906Y0214879D01*
X0379027Y0214779D01*
X0379147Y0214676D01*
X0379263Y0214570D01*
X0379377Y0214461D01*
X0379489Y0214349D01*
X0379597Y0214235D01*
X0379702Y0214117D01*
X0379805Y0213997D01*
X0379904Y0213875D01*
X0380000Y0213750D01*
X0380093Y0213622D01*
X0380183Y0213493D01*
X0380269Y0213361D01*
X0380353Y0213227D01*
X0380432Y0213091D01*
X0380509Y0212953D01*
X0380581Y0212813D01*
X0380650Y0212671D01*
X0380716Y0212528D01*
X0380778Y0212383D01*
X0380836Y0212236D01*
X0380891Y0212088D01*
X0380942Y0211939D01*
X0380989Y0211788D01*
X0381032Y0211637D01*
X0381071Y0211484D01*
X0381107Y0211330D01*
X0381138Y0211176D01*
X0381166Y0211021D01*
X0381190Y0210865D01*
X0381210Y0210708D01*
X0381226Y0210551D01*
X0381238Y0210394D01*
X0381246Y0210237D01*
X0381250Y0210079D01*
X0381250Y0209921D01*
X0381246Y0209763D01*
X0381238Y0209606D01*
X0381226Y0209449D01*
X0381210Y0209292D01*
X0381190Y0209135D01*
X0381166Y0208979D01*
X0381138Y0208824D01*
X0381107Y0208670D01*
X0381071Y0208516D01*
X0381032Y0208363D01*
X0380989Y0208212D01*
X0380942Y0208061D01*
X0380891Y0207912D01*
X0380836Y0207764D01*
X0380778Y0207617D01*
X0380716Y0207472D01*
X0380650Y0207329D01*
X0380581Y0207187D01*
X0380509Y0207047D01*
X0380432Y0206909D01*
X0380353Y0206773D01*
X0380269Y0206639D01*
X0380183Y0206507D01*
X0380093Y0206378D01*
X0380000Y0206250D01*
X0379904Y0206125D01*
X0379805Y0206003D01*
X0379702Y0205883D01*
X0379597Y0205765D01*
X0379489Y0205651D01*
X0379377Y0205539D01*
X0379263Y0205430D01*
X0379147Y0205324D01*
X0379027Y0205221D01*
X0378906Y0205121D01*
X0378781Y0205024D01*
X0378654Y0204930D01*
X0378525Y0204839D01*
X0378394Y0204752D01*
X0378261Y0204668D01*
X0378125Y0204587D01*
X0377987Y0204510D01*
X0377848Y0204437D01*
X0377707Y0204367D01*
X0377564Y0204300D01*
X0377419Y0204237D01*
X0377273Y0204178D01*
X0377125Y0204122D01*
X0376976Y0204071D01*
X0376826Y0204023D01*
X0376675Y0203979D01*
X0376522Y0203938D01*
X0376369Y0203902D01*
X0376214Y0203869D01*
X0376059Y0203840D01*
X0375904Y0203816D01*
X0375747Y0203795D01*
X0375591Y0203778D01*
X0375433Y0203765D01*
X0375276Y0203756D01*
X0375118Y0203751D01*
X0374961Y0203750D01*
X0374803Y0203753D01*
X0374645Y0203760D01*
X0374488Y0203771D01*
X0374331Y0203786D01*
X0374174Y0203805D01*
X0374018Y0203828D01*
X0373863Y0203854D01*
X0373708Y0203885D01*
X0373554Y0203919D01*
X0373401Y0203958D01*
X0373249Y0204000D01*
X0373099Y0204046D01*
X0372949Y0204096D01*
X0372801Y0204150D01*
X0372654Y0204207D01*
X0372508Y0204268D01*
X0372365Y0204333D01*
X0372222Y0204401D01*
X0372082Y0204473D01*
X0371944Y0204548D01*
X0371807Y0204627D01*
X0371672Y0204709D01*
X0371540Y0204795D01*
X0371410Y0204884D01*
X0371282Y0204976D01*
X0371156Y0205072D01*
X0371033Y0205170D01*
X0370913Y0205272D01*
X0370795Y0205377D01*
X0370679Y0205484D01*
X0370567Y0205595D01*
X0370457Y0205708D01*
X0370350Y0205824D01*
X0370246Y0205942D01*
X0370145Y0206064D01*
X0370048Y0206187D01*
X0369953Y0206314D01*
X0369862Y0206442D01*
X0369773Y0206573D01*
X0369689Y0206706D01*
X0369607Y0206841D01*
X0369529Y0206978D01*
X0369455Y0207117D01*
X0369384Y0207258D01*
X0369316Y0207400D01*
X0369253Y0207545D01*
X0369192Y0207690D01*
X0369136Y0207838D01*
X0369083Y0207986D01*
X0369034Y0208136D01*
X0368989Y0208287D01*
X0368948Y0208440D01*
X0368910Y0208593D01*
X0368877Y0208747D01*
X0368847Y0208902D01*
X0368821Y0209057D01*
X0368800Y0209214D01*
X0368782Y0209370D01*
X0368768Y0209527D01*
X0368758Y0209685D01*
X0368752Y0209842D01*
X0368750Y0210000D01*
X0028750Y0225000D02*
X0028752Y0225158D01*
X0028758Y0225315D01*
X0028768Y0225473D01*
X0028782Y0225630D01*
X0028800Y0225786D01*
X0028821Y0225943D01*
X0028847Y0226098D01*
X0028877Y0226253D01*
X0028910Y0226407D01*
X0028948Y0226560D01*
X0028989Y0226713D01*
X0029034Y0226864D01*
X0029083Y0227014D01*
X0029136Y0227162D01*
X0029192Y0227310D01*
X0029253Y0227455D01*
X0029316Y0227600D01*
X0029384Y0227742D01*
X0029455Y0227883D01*
X0029529Y0228022D01*
X0029607Y0228159D01*
X0029689Y0228294D01*
X0029773Y0228427D01*
X0029862Y0228558D01*
X0029953Y0228686D01*
X0030048Y0228813D01*
X0030145Y0228936D01*
X0030246Y0229058D01*
X0030350Y0229176D01*
X0030457Y0229292D01*
X0030567Y0229405D01*
X0030679Y0229516D01*
X0030795Y0229623D01*
X0030913Y0229728D01*
X0031033Y0229830D01*
X0031156Y0229928D01*
X0031282Y0230024D01*
X0031410Y0230116D01*
X0031540Y0230205D01*
X0031672Y0230291D01*
X0031807Y0230373D01*
X0031944Y0230452D01*
X0032082Y0230527D01*
X0032222Y0230599D01*
X0032365Y0230667D01*
X0032508Y0230732D01*
X0032654Y0230793D01*
X0032801Y0230850D01*
X0032949Y0230904D01*
X0033099Y0230954D01*
X0033249Y0231000D01*
X0033401Y0231042D01*
X0033554Y0231081D01*
X0033708Y0231115D01*
X0033863Y0231146D01*
X0034018Y0231172D01*
X0034174Y0231195D01*
X0034331Y0231214D01*
X0034488Y0231229D01*
X0034645Y0231240D01*
X0034803Y0231247D01*
X0034961Y0231250D01*
X0035118Y0231249D01*
X0035276Y0231244D01*
X0035433Y0231235D01*
X0035591Y0231222D01*
X0035747Y0231205D01*
X0035904Y0231184D01*
X0036059Y0231160D01*
X0036214Y0231131D01*
X0036369Y0231098D01*
X0036522Y0231062D01*
X0036675Y0231021D01*
X0036826Y0230977D01*
X0036976Y0230929D01*
X0037125Y0230878D01*
X0037273Y0230822D01*
X0037419Y0230763D01*
X0037564Y0230700D01*
X0037707Y0230633D01*
X0037848Y0230563D01*
X0037987Y0230490D01*
X0038125Y0230413D01*
X0038261Y0230332D01*
X0038394Y0230248D01*
X0038525Y0230161D01*
X0038654Y0230070D01*
X0038781Y0229976D01*
X0038906Y0229879D01*
X0039027Y0229779D01*
X0039147Y0229676D01*
X0039263Y0229570D01*
X0039377Y0229461D01*
X0039489Y0229349D01*
X0039597Y0229235D01*
X0039702Y0229117D01*
X0039805Y0228997D01*
X0039904Y0228875D01*
X0040000Y0228750D01*
X0040093Y0228622D01*
X0040183Y0228493D01*
X0040269Y0228361D01*
X0040353Y0228227D01*
X0040432Y0228091D01*
X0040509Y0227953D01*
X0040581Y0227813D01*
X0040650Y0227671D01*
X0040716Y0227528D01*
X0040778Y0227383D01*
X0040836Y0227236D01*
X0040891Y0227088D01*
X0040942Y0226939D01*
X0040989Y0226788D01*
X0041032Y0226637D01*
X0041071Y0226484D01*
X0041107Y0226330D01*
X0041138Y0226176D01*
X0041166Y0226021D01*
X0041190Y0225865D01*
X0041210Y0225708D01*
X0041226Y0225551D01*
X0041238Y0225394D01*
X0041246Y0225237D01*
X0041250Y0225079D01*
X0041250Y0224921D01*
X0041246Y0224763D01*
X0041238Y0224606D01*
X0041226Y0224449D01*
X0041210Y0224292D01*
X0041190Y0224135D01*
X0041166Y0223979D01*
X0041138Y0223824D01*
X0041107Y0223670D01*
X0041071Y0223516D01*
X0041032Y0223363D01*
X0040989Y0223212D01*
X0040942Y0223061D01*
X0040891Y0222912D01*
X0040836Y0222764D01*
X0040778Y0222617D01*
X0040716Y0222472D01*
X0040650Y0222329D01*
X0040581Y0222187D01*
X0040509Y0222047D01*
X0040432Y0221909D01*
X0040353Y0221773D01*
X0040269Y0221639D01*
X0040183Y0221507D01*
X0040093Y0221378D01*
X0040000Y0221250D01*
X0039904Y0221125D01*
X0039805Y0221003D01*
X0039702Y0220883D01*
X0039597Y0220765D01*
X0039489Y0220651D01*
X0039377Y0220539D01*
X0039263Y0220430D01*
X0039147Y0220324D01*
X0039027Y0220221D01*
X0038906Y0220121D01*
X0038781Y0220024D01*
X0038654Y0219930D01*
X0038525Y0219839D01*
X0038394Y0219752D01*
X0038261Y0219668D01*
X0038125Y0219587D01*
X0037987Y0219510D01*
X0037848Y0219437D01*
X0037707Y0219367D01*
X0037564Y0219300D01*
X0037419Y0219237D01*
X0037273Y0219178D01*
X0037125Y0219122D01*
X0036976Y0219071D01*
X0036826Y0219023D01*
X0036675Y0218979D01*
X0036522Y0218938D01*
X0036369Y0218902D01*
X0036214Y0218869D01*
X0036059Y0218840D01*
X0035904Y0218816D01*
X0035747Y0218795D01*
X0035591Y0218778D01*
X0035433Y0218765D01*
X0035276Y0218756D01*
X0035118Y0218751D01*
X0034961Y0218750D01*
X0034803Y0218753D01*
X0034645Y0218760D01*
X0034488Y0218771D01*
X0034331Y0218786D01*
X0034174Y0218805D01*
X0034018Y0218828D01*
X0033863Y0218854D01*
X0033708Y0218885D01*
X0033554Y0218919D01*
X0033401Y0218958D01*
X0033249Y0219000D01*
X0033099Y0219046D01*
X0032949Y0219096D01*
X0032801Y0219150D01*
X0032654Y0219207D01*
X0032508Y0219268D01*
X0032365Y0219333D01*
X0032222Y0219401D01*
X0032082Y0219473D01*
X0031944Y0219548D01*
X0031807Y0219627D01*
X0031672Y0219709D01*
X0031540Y0219795D01*
X0031410Y0219884D01*
X0031282Y0219976D01*
X0031156Y0220072D01*
X0031033Y0220170D01*
X0030913Y0220272D01*
X0030795Y0220377D01*
X0030679Y0220484D01*
X0030567Y0220595D01*
X0030457Y0220708D01*
X0030350Y0220824D01*
X0030246Y0220942D01*
X0030145Y0221064D01*
X0030048Y0221187D01*
X0029953Y0221314D01*
X0029862Y0221442D01*
X0029773Y0221573D01*
X0029689Y0221706D01*
X0029607Y0221841D01*
X0029529Y0221978D01*
X0029455Y0222117D01*
X0029384Y0222258D01*
X0029316Y0222400D01*
X0029253Y0222545D01*
X0029192Y0222690D01*
X0029136Y0222838D01*
X0029083Y0222986D01*
X0029034Y0223136D01*
X0028989Y0223287D01*
X0028948Y0223440D01*
X0028910Y0223593D01*
X0028877Y0223747D01*
X0028847Y0223902D01*
X0028821Y0224057D01*
X0028800Y0224214D01*
X0028782Y0224370D01*
X0028768Y0224527D01*
X0028758Y0224685D01*
X0028752Y0224842D01*
X0028750Y0225000D01*
M02*
