%
M48
M72
T01C0.03150
T02C0.03543
T03C0.05000
T04C0.05700
T05C0.12500
%
T01
X30000Y55157
X30000Y74843
X30000Y158110
X30000Y171890
T02
X73150Y237283
X277874Y237283
X327717Y212874
X366283Y110488
X366283Y8126
X327717Y8150
T03
X290000Y55000
X290000Y165000
X60000Y165000
X60000Y55000
T04
X35000Y245000
X15000Y245000
X375000Y245000
X375000Y230000
T05
X10000Y10000
X295000Y10000
X375000Y210000
X35000Y225000
M30
