%
M48
M72
T01C0.0200
T02C0.0320
T03C0.0350
T04C0.0354
T05C0.0394
T06C0.0512
T07C0.1160
T08C0.1299
%
T01
X14000Y2125
X22875Y2000
X29250Y3375
X31720Y1917
X32600Y2750
X36562Y708
X12875Y10625
T02
X13500Y11000
X14500Y11000
X15500Y11000
X16500Y11000
X16500Y10000
X15500Y10000
X14500Y10000
X13500Y10000
X12000Y10000
X11000Y10000
X10000Y10000
X9000Y10000
X9000Y9250
X10000Y9250
X11000Y9250
X12000Y9250
X13500Y9250
X14500Y9250
X15500Y9250
X16500Y9250
X18000Y9250
X19000Y9250
X20000Y9250
X21000Y9250
X22500Y9250
X23500Y9250
X24500Y9250
X25500Y9250
X25500Y10000
X24500Y10000
X23500Y10000
X22500Y10000
X21000Y10000
X20000Y10000
X19000Y10000
X18000Y10000
X18000Y11000
X19000Y11000
X20000Y11000
X21000Y11000
X22500Y11000
X23500Y11000
X24500Y11000
X25500Y11000
X27000Y11000
X28000Y11000
X29000Y11000
X30000Y11000
X31500Y11000
X32500Y11000
X33500Y11000
X34500Y11000
X34500Y10000
X33500Y10000
X32500Y10000
X31500Y10000
X30000Y10000
X29000Y10000
X28000Y10000
X27000Y10000
X27000Y9250
X28000Y9250
X29000Y9250
X30000Y9250
X31500Y9250
X32500Y9250
X33500Y9250
X34500Y9250
X36000Y9000
X37000Y9000
X37000Y6500
X36000Y6500
X34500Y6250
X33500Y6250
X32500Y6250
X32500Y5500
X31500Y5500
X31500Y6250
X30000Y6250
X30000Y5500
X29000Y6250
X28000Y6250
X27000Y6250
X27000Y5500
X28000Y5500
X28000Y4750
X27000Y4750
X25500Y4500
X23500Y4750
X22500Y4750
X21000Y4500
X21000Y5500
X21000Y6250
X20000Y6250
X19000Y6250
X18000Y6250
X18000Y5375
X19000Y5375
X19000Y4625
X18000Y4625
X16500Y4500
X14500Y4500
X13500Y4500
X12000Y4500
X13500Y5250
X14500Y5250
X14500Y6250
X15500Y6250
X16500Y6250
X16500Y5500
X13500Y6250
X12000Y6250
X11000Y6250
X10000Y6250
X9000Y6250
X8375Y6250
X7375Y6250
X6750Y6250
X5750Y6250
X4750Y6250
X3750Y6250
X4750Y5375
X5750Y5375
X6750Y5375
X7500Y5375
X8250Y5375
X9000Y5125
X10000Y5125
X10000Y4375
X9000Y4375
X8250Y4375
X7500Y4375
X6750Y4375
X12000Y5500
X16750Y2125
X17750Y2125
X17750Y1375
X16750Y1375
X22500Y5500
X22500Y6250
X23500Y6250
X24500Y6250
X25500Y6250
X25500Y5500
X23500Y5500
X30000Y4500
X31500Y4750
X32500Y4750
X34500Y4500
X34500Y5500
X34750Y3125
X35750Y3125
X35750Y2375
X34750Y2375
X34750Y1625
X35750Y1625
X35750Y875
X34750Y875
X26750Y1375
X25750Y1375
X25750Y2125
X26750Y2125
X12000Y11000
X11000Y11000
X10000Y11000
X9000Y11000
X7500Y11125
X6500Y11125
X5500Y11125
X4250Y10750
X3125Y10750
X2250Y10750
X2250Y9750
X3125Y9750
X3750Y9250
X4250Y9750
X4750Y9250
X5750Y9250
X6750Y9250
X6500Y10125
X5500Y10125
X7500Y10125
X7500Y12000
X6500Y12000
X6500Y13000
X7500Y13000
X4375Y15250
X3375Y15250
X9625Y15375
X10625Y15375
X15375Y15375
X16375Y15375
X21250Y15375
X22250Y15375
X24250Y13125
X25250Y13125
X30250Y13125
X31250Y13125
X33125Y15375
X34125Y15375
X36250Y13125
X37250Y13125
X37250Y12250
X36250Y12250
X19250Y12875
X18250Y12875
X13500Y13000
X12500Y13000
T03
X1375Y12750
X1375Y11750
X1375Y10750
X1375Y8750
X1375Y7750
X1375Y6750
X38125Y6750
X38125Y7750
X38125Y8750
T04
X34734Y13125
X32766Y13125
X28734Y13125
X26766Y13125
X22734Y13125
X20766Y13125
X16859Y13125
X14891Y13125
X10984Y13125
X9016Y13125
X7984Y15250
X6016Y15250
X4859Y12875
X2891Y12875
X12016Y15375
X13984Y15375
X17766Y15375
X19734Y15375
X23766Y15375
X25734Y15375
X29766Y15375
X31734Y15375
X35766Y15375
X37734Y15375
T05
X33112Y1125
X32325Y1125
X31537Y1125
X30750Y1125
X29963Y1125
X29175Y1125
X28388Y1125
X24112Y1125
X23325Y1125
X22537Y1125
X21750Y1125
X20963Y1125
X20175Y1125
X19388Y1125
X15112Y1125
X14325Y1125
X13537Y1125
X12750Y1125
X11963Y1125
X11175Y1125
X10388Y1125
T06
X7683Y1121
X5714Y1121
X3746Y1121
X3746Y3090
X5714Y3090
X7683Y3090
T07
X1000Y1250
X38625Y1250
T08
X33565Y2424
X27935Y2424
X24565Y2424
X18935Y2424
X15565Y2424
X9935Y2424
M30
