G75*
%MOIN*%
%OFA0B0*%
%FSLAX25Y25*%
%IPPOS*%
%LPD*%
%AMOC8*
5,1,8,0,0,1.08239X$1,22.5*
%
%ADD10C,0.00000*%
D10*
X0000000Y0000000D02*
X0000000Y0156250D01*
X0000006Y0156750D01*
X0000024Y0157250D01*
X0000055Y0157750D01*
X0000097Y0158248D01*
X0000152Y0158745D01*
X0000219Y0159241D01*
X0000298Y0159735D01*
X0000389Y0160227D01*
X0000492Y0160717D01*
X0000607Y0161204D01*
X0000733Y0161688D01*
X0000872Y0162168D01*
X0001022Y0162646D01*
X0001184Y0163119D01*
X0001357Y0163588D01*
X0001541Y0164053D01*
X0001737Y0164514D01*
X0001944Y0164969D01*
X0002162Y0165419D01*
X0002391Y0165864D01*
X0002631Y0166303D01*
X0002881Y0166737D01*
X0003142Y0167163D01*
X0003413Y0167584D01*
X0003694Y0167998D01*
X0003986Y0168404D01*
X0004287Y0168804D01*
X0004598Y0169196D01*
X0004918Y0169580D01*
X0005247Y0169957D01*
X0005586Y0170325D01*
X0005933Y0170685D01*
X0006290Y0171036D01*
X0006654Y0171379D01*
X0007027Y0171712D01*
X0007408Y0172037D01*
X0007797Y0172352D01*
X0008193Y0172657D01*
X0008596Y0172953D01*
X0009007Y0173239D01*
X0009424Y0173514D01*
X0009848Y0173780D01*
X0010279Y0174035D01*
X0010715Y0174279D01*
X0011158Y0174513D01*
X0011606Y0174736D01*
X0012059Y0174948D01*
X0012517Y0175148D01*
X0012980Y0175338D01*
X0013447Y0175516D01*
X0013919Y0175683D01*
X0014395Y0175838D01*
X0014874Y0175982D01*
X0015357Y0176114D01*
X0015842Y0176234D01*
X0016331Y0176342D01*
X0016822Y0176438D01*
X0017315Y0176522D01*
X0017810Y0176595D01*
X0018306Y0176655D01*
X0018804Y0176703D01*
X0019303Y0176739D01*
X0019803Y0176762D01*
X0020303Y0176774D01*
X0020804Y0176773D01*
X0021304Y0176760D01*
X0021803Y0176735D01*
X0022302Y0176698D01*
X0022800Y0176649D01*
X0023297Y0176587D01*
X0023791Y0176513D01*
X0024284Y0176428D01*
X0024775Y0176330D01*
X0025263Y0176221D01*
X0025748Y0176099D01*
X0026231Y0175966D01*
X0026709Y0175821D01*
X0027185Y0175665D01*
X0027656Y0175496D01*
X0028123Y0175317D01*
X0028585Y0175126D01*
X0029043Y0174924D01*
X0029496Y0174711D01*
X0029943Y0174487D01*
X0030384Y0174252D01*
X0030820Y0174006D01*
X0031250Y0173750D01*
X0031322Y0174177D01*
X0031404Y0174602D01*
X0031496Y0175025D01*
X0031598Y0175445D01*
X0031711Y0175863D01*
X0031834Y0176278D01*
X0031967Y0176689D01*
X0032110Y0177098D01*
X0032263Y0177503D01*
X0032425Y0177904D01*
X0032598Y0178300D01*
X0032780Y0178693D01*
X0032972Y0179081D01*
X0033173Y0179464D01*
X0033383Y0179842D01*
X0033603Y0180215D01*
X0033832Y0180582D01*
X0034069Y0180944D01*
X0034315Y0181299D01*
X0034570Y0181649D01*
X0034834Y0181992D01*
X0035105Y0182329D01*
X0035385Y0182659D01*
X0035673Y0182982D01*
X0035969Y0183298D01*
X0036272Y0183607D01*
X0036583Y0183908D01*
X0036901Y0184201D01*
X0037226Y0184487D01*
X0037558Y0184764D01*
X0037896Y0185034D01*
X0038241Y0185295D01*
X0038593Y0185547D01*
X0038950Y0185791D01*
X0039314Y0186026D01*
X0039682Y0186252D01*
X0040057Y0186469D01*
X0040436Y0186677D01*
X0040821Y0186876D01*
X0041210Y0187065D01*
X0041604Y0187244D01*
X0042002Y0187414D01*
X0042404Y0187574D01*
X0042810Y0187724D01*
X0043219Y0187864D01*
X0043632Y0187994D01*
X0044047Y0188114D01*
X0044466Y0188224D01*
X0044887Y0188324D01*
X0045310Y0188413D01*
X0045736Y0188492D01*
X0046163Y0188560D01*
X0046592Y0188618D01*
X0047022Y0188665D01*
X0047453Y0188702D01*
X0047885Y0188729D01*
X0048317Y0188745D01*
X0048750Y0188750D01*
X0396250Y0188750D01*
X0396250Y0000000D01*
X0000000Y0000000D01*
X0004200Y0012500D02*
X0004202Y0012652D01*
X0004208Y0012804D01*
X0004218Y0012955D01*
X0004232Y0013106D01*
X0004250Y0013257D01*
X0004271Y0013407D01*
X0004297Y0013557D01*
X0004327Y0013706D01*
X0004360Y0013854D01*
X0004398Y0014001D01*
X0004439Y0014147D01*
X0004484Y0014292D01*
X0004533Y0014436D01*
X0004585Y0014579D01*
X0004641Y0014720D01*
X0004701Y0014859D01*
X0004765Y0014997D01*
X0004832Y0015133D01*
X0004903Y0015268D01*
X0004977Y0015400D01*
X0005055Y0015530D01*
X0005136Y0015659D01*
X0005220Y0015785D01*
X0005308Y0015909D01*
X0005399Y0016031D01*
X0005493Y0016150D01*
X0005590Y0016267D01*
X0005690Y0016381D01*
X0005793Y0016492D01*
X0005899Y0016601D01*
X0006008Y0016707D01*
X0006119Y0016810D01*
X0006233Y0016910D01*
X0006350Y0017007D01*
X0006469Y0017101D01*
X0006591Y0017192D01*
X0006715Y0017280D01*
X0006841Y0017364D01*
X0006970Y0017445D01*
X0007100Y0017523D01*
X0007232Y0017597D01*
X0007367Y0017668D01*
X0007503Y0017735D01*
X0007641Y0017799D01*
X0007780Y0017859D01*
X0007921Y0017915D01*
X0008064Y0017967D01*
X0008208Y0018016D01*
X0008353Y0018061D01*
X0008499Y0018102D01*
X0008646Y0018140D01*
X0008794Y0018173D01*
X0008943Y0018203D01*
X0009093Y0018229D01*
X0009243Y0018250D01*
X0009394Y0018268D01*
X0009545Y0018282D01*
X0009696Y0018292D01*
X0009848Y0018298D01*
X0010000Y0018300D01*
X0010152Y0018298D01*
X0010304Y0018292D01*
X0010455Y0018282D01*
X0010606Y0018268D01*
X0010757Y0018250D01*
X0010907Y0018229D01*
X0011057Y0018203D01*
X0011206Y0018173D01*
X0011354Y0018140D01*
X0011501Y0018102D01*
X0011647Y0018061D01*
X0011792Y0018016D01*
X0011936Y0017967D01*
X0012079Y0017915D01*
X0012220Y0017859D01*
X0012359Y0017799D01*
X0012497Y0017735D01*
X0012633Y0017668D01*
X0012768Y0017597D01*
X0012900Y0017523D01*
X0013030Y0017445D01*
X0013159Y0017364D01*
X0013285Y0017280D01*
X0013409Y0017192D01*
X0013531Y0017101D01*
X0013650Y0017007D01*
X0013767Y0016910D01*
X0013881Y0016810D01*
X0013992Y0016707D01*
X0014101Y0016601D01*
X0014207Y0016492D01*
X0014310Y0016381D01*
X0014410Y0016267D01*
X0014507Y0016150D01*
X0014601Y0016031D01*
X0014692Y0015909D01*
X0014780Y0015785D01*
X0014864Y0015659D01*
X0014945Y0015530D01*
X0015023Y0015400D01*
X0015097Y0015268D01*
X0015168Y0015133D01*
X0015235Y0014997D01*
X0015299Y0014859D01*
X0015359Y0014720D01*
X0015415Y0014579D01*
X0015467Y0014436D01*
X0015516Y0014292D01*
X0015561Y0014147D01*
X0015602Y0014001D01*
X0015640Y0013854D01*
X0015673Y0013706D01*
X0015703Y0013557D01*
X0015729Y0013407D01*
X0015750Y0013257D01*
X0015768Y0013106D01*
X0015782Y0012955D01*
X0015792Y0012804D01*
X0015798Y0012652D01*
X0015800Y0012500D01*
X0015798Y0012348D01*
X0015792Y0012196D01*
X0015782Y0012045D01*
X0015768Y0011894D01*
X0015750Y0011743D01*
X0015729Y0011593D01*
X0015703Y0011443D01*
X0015673Y0011294D01*
X0015640Y0011146D01*
X0015602Y0010999D01*
X0015561Y0010853D01*
X0015516Y0010708D01*
X0015467Y0010564D01*
X0015415Y0010421D01*
X0015359Y0010280D01*
X0015299Y0010141D01*
X0015235Y0010003D01*
X0015168Y0009867D01*
X0015097Y0009732D01*
X0015023Y0009600D01*
X0014945Y0009470D01*
X0014864Y0009341D01*
X0014780Y0009215D01*
X0014692Y0009091D01*
X0014601Y0008969D01*
X0014507Y0008850D01*
X0014410Y0008733D01*
X0014310Y0008619D01*
X0014207Y0008508D01*
X0014101Y0008399D01*
X0013992Y0008293D01*
X0013881Y0008190D01*
X0013767Y0008090D01*
X0013650Y0007993D01*
X0013531Y0007899D01*
X0013409Y0007808D01*
X0013285Y0007720D01*
X0013159Y0007636D01*
X0013030Y0007555D01*
X0012900Y0007477D01*
X0012768Y0007403D01*
X0012633Y0007332D01*
X0012497Y0007265D01*
X0012359Y0007201D01*
X0012220Y0007141D01*
X0012079Y0007085D01*
X0011936Y0007033D01*
X0011792Y0006984D01*
X0011647Y0006939D01*
X0011501Y0006898D01*
X0011354Y0006860D01*
X0011206Y0006827D01*
X0011057Y0006797D01*
X0010907Y0006771D01*
X0010757Y0006750D01*
X0010606Y0006732D01*
X0010455Y0006718D01*
X0010304Y0006708D01*
X0010152Y0006702D01*
X0010000Y0006700D01*
X0009848Y0006702D01*
X0009696Y0006708D01*
X0009545Y0006718D01*
X0009394Y0006732D01*
X0009243Y0006750D01*
X0009093Y0006771D01*
X0008943Y0006797D01*
X0008794Y0006827D01*
X0008646Y0006860D01*
X0008499Y0006898D01*
X0008353Y0006939D01*
X0008208Y0006984D01*
X0008064Y0007033D01*
X0007921Y0007085D01*
X0007780Y0007141D01*
X0007641Y0007201D01*
X0007503Y0007265D01*
X0007367Y0007332D01*
X0007232Y0007403D01*
X0007100Y0007477D01*
X0006970Y0007555D01*
X0006841Y0007636D01*
X0006715Y0007720D01*
X0006591Y0007808D01*
X0006469Y0007899D01*
X0006350Y0007993D01*
X0006233Y0008090D01*
X0006119Y0008190D01*
X0006008Y0008293D01*
X0005899Y0008399D01*
X0005793Y0008508D01*
X0005690Y0008619D01*
X0005590Y0008733D01*
X0005493Y0008850D01*
X0005399Y0008969D01*
X0005308Y0009091D01*
X0005220Y0009215D01*
X0005136Y0009341D01*
X0005055Y0009470D01*
X0004977Y0009600D01*
X0004903Y0009732D01*
X0004832Y0009867D01*
X0004765Y0010003D01*
X0004701Y0010141D01*
X0004641Y0010280D01*
X0004585Y0010421D01*
X0004533Y0010564D01*
X0004484Y0010708D01*
X0004439Y0010853D01*
X0004398Y0010999D01*
X0004360Y0011146D01*
X0004327Y0011294D01*
X0004297Y0011443D01*
X0004271Y0011593D01*
X0004250Y0011743D01*
X0004232Y0011894D01*
X0004218Y0012045D01*
X0004208Y0012196D01*
X0004202Y0012348D01*
X0004200Y0012500D01*
X0095019Y0024242D02*
X0095021Y0024373D01*
X0095027Y0024505D01*
X0095037Y0024636D01*
X0095051Y0024767D01*
X0095069Y0024897D01*
X0095091Y0025026D01*
X0095116Y0025155D01*
X0095146Y0025283D01*
X0095180Y0025410D01*
X0095217Y0025537D01*
X0095258Y0025661D01*
X0095303Y0025785D01*
X0095352Y0025907D01*
X0095404Y0026028D01*
X0095460Y0026146D01*
X0095520Y0026264D01*
X0095583Y0026379D01*
X0095650Y0026492D01*
X0095720Y0026604D01*
X0095793Y0026713D01*
X0095869Y0026819D01*
X0095949Y0026924D01*
X0096032Y0027026D01*
X0096118Y0027125D01*
X0096207Y0027222D01*
X0096299Y0027316D01*
X0096394Y0027407D01*
X0096491Y0027496D01*
X0096591Y0027581D01*
X0096694Y0027663D01*
X0096799Y0027742D01*
X0096906Y0027818D01*
X0097016Y0027890D01*
X0097128Y0027959D01*
X0097242Y0028025D01*
X0097357Y0028087D01*
X0097475Y0028146D01*
X0097594Y0028201D01*
X0097715Y0028253D01*
X0097838Y0028300D01*
X0097962Y0028344D01*
X0098087Y0028385D01*
X0098213Y0028421D01*
X0098341Y0028454D01*
X0098469Y0028482D01*
X0098598Y0028507D01*
X0098728Y0028528D01*
X0098858Y0028545D01*
X0098989Y0028558D01*
X0099120Y0028567D01*
X0099251Y0028572D01*
X0099383Y0028573D01*
X0099514Y0028570D01*
X0099646Y0028563D01*
X0099777Y0028552D01*
X0099907Y0028537D01*
X0100037Y0028518D01*
X0100167Y0028495D01*
X0100295Y0028469D01*
X0100423Y0028438D01*
X0100550Y0028403D01*
X0100676Y0028365D01*
X0100800Y0028323D01*
X0100924Y0028277D01*
X0101045Y0028227D01*
X0101165Y0028174D01*
X0101284Y0028117D01*
X0101401Y0028057D01*
X0101515Y0027993D01*
X0101628Y0027925D01*
X0101739Y0027854D01*
X0101848Y0027780D01*
X0101954Y0027703D01*
X0102058Y0027622D01*
X0102159Y0027539D01*
X0102258Y0027452D01*
X0102354Y0027362D01*
X0102447Y0027269D01*
X0102538Y0027174D01*
X0102625Y0027076D01*
X0102710Y0026975D01*
X0102791Y0026872D01*
X0102869Y0026766D01*
X0102944Y0026658D01*
X0103016Y0026548D01*
X0103084Y0026436D01*
X0103149Y0026322D01*
X0103210Y0026205D01*
X0103268Y0026087D01*
X0103322Y0025967D01*
X0103373Y0025846D01*
X0103420Y0025723D01*
X0103463Y0025599D01*
X0103502Y0025474D01*
X0103538Y0025347D01*
X0103569Y0025219D01*
X0103597Y0025091D01*
X0103621Y0024962D01*
X0103641Y0024832D01*
X0103657Y0024701D01*
X0103669Y0024570D01*
X0103677Y0024439D01*
X0103681Y0024308D01*
X0103681Y0024176D01*
X0103677Y0024045D01*
X0103669Y0023914D01*
X0103657Y0023783D01*
X0103641Y0023652D01*
X0103621Y0023522D01*
X0103597Y0023393D01*
X0103569Y0023265D01*
X0103538Y0023137D01*
X0103502Y0023010D01*
X0103463Y0022885D01*
X0103420Y0022761D01*
X0103373Y0022638D01*
X0103322Y0022517D01*
X0103268Y0022397D01*
X0103210Y0022279D01*
X0103149Y0022162D01*
X0103084Y0022048D01*
X0103016Y0021936D01*
X0102944Y0021826D01*
X0102869Y0021718D01*
X0102791Y0021612D01*
X0102710Y0021509D01*
X0102625Y0021408D01*
X0102538Y0021310D01*
X0102447Y0021215D01*
X0102354Y0021122D01*
X0102258Y0021032D01*
X0102159Y0020945D01*
X0102058Y0020862D01*
X0101954Y0020781D01*
X0101848Y0020704D01*
X0101739Y0020630D01*
X0101628Y0020559D01*
X0101516Y0020491D01*
X0101401Y0020427D01*
X0101284Y0020367D01*
X0101165Y0020310D01*
X0101045Y0020257D01*
X0100924Y0020207D01*
X0100800Y0020161D01*
X0100676Y0020119D01*
X0100550Y0020081D01*
X0100423Y0020046D01*
X0100295Y0020015D01*
X0100167Y0019989D01*
X0100037Y0019966D01*
X0099907Y0019947D01*
X0099777Y0019932D01*
X0099646Y0019921D01*
X0099514Y0019914D01*
X0099383Y0019911D01*
X0099251Y0019912D01*
X0099120Y0019917D01*
X0098989Y0019926D01*
X0098858Y0019939D01*
X0098728Y0019956D01*
X0098598Y0019977D01*
X0098469Y0020002D01*
X0098341Y0020030D01*
X0098213Y0020063D01*
X0098087Y0020099D01*
X0097962Y0020140D01*
X0097838Y0020184D01*
X0097715Y0020231D01*
X0097594Y0020283D01*
X0097475Y0020338D01*
X0097357Y0020397D01*
X0097242Y0020459D01*
X0097128Y0020525D01*
X0097016Y0020594D01*
X0096906Y0020666D01*
X0096799Y0020742D01*
X0096694Y0020821D01*
X0096591Y0020903D01*
X0096491Y0020988D01*
X0096394Y0021077D01*
X0096299Y0021168D01*
X0096207Y0021262D01*
X0096118Y0021359D01*
X0096032Y0021458D01*
X0095949Y0021560D01*
X0095869Y0021665D01*
X0095793Y0021771D01*
X0095720Y0021880D01*
X0095650Y0021992D01*
X0095583Y0022105D01*
X0095520Y0022220D01*
X0095460Y0022338D01*
X0095404Y0022456D01*
X0095352Y0022577D01*
X0095303Y0022699D01*
X0095258Y0022823D01*
X0095217Y0022947D01*
X0095180Y0023074D01*
X0095146Y0023201D01*
X0095116Y0023329D01*
X0095091Y0023458D01*
X0095069Y0023587D01*
X0095051Y0023717D01*
X0095037Y0023848D01*
X0095027Y0023979D01*
X0095021Y0024111D01*
X0095019Y0024242D01*
X0151319Y0024242D02*
X0151321Y0024373D01*
X0151327Y0024505D01*
X0151337Y0024636D01*
X0151351Y0024767D01*
X0151369Y0024897D01*
X0151391Y0025026D01*
X0151416Y0025155D01*
X0151446Y0025283D01*
X0151480Y0025410D01*
X0151517Y0025537D01*
X0151558Y0025661D01*
X0151603Y0025785D01*
X0151652Y0025907D01*
X0151704Y0026028D01*
X0151760Y0026146D01*
X0151820Y0026264D01*
X0151883Y0026379D01*
X0151950Y0026492D01*
X0152020Y0026604D01*
X0152093Y0026713D01*
X0152169Y0026819D01*
X0152249Y0026924D01*
X0152332Y0027026D01*
X0152418Y0027125D01*
X0152507Y0027222D01*
X0152599Y0027316D01*
X0152694Y0027407D01*
X0152791Y0027496D01*
X0152891Y0027581D01*
X0152994Y0027663D01*
X0153099Y0027742D01*
X0153206Y0027818D01*
X0153316Y0027890D01*
X0153428Y0027959D01*
X0153542Y0028025D01*
X0153657Y0028087D01*
X0153775Y0028146D01*
X0153894Y0028201D01*
X0154015Y0028253D01*
X0154138Y0028300D01*
X0154262Y0028344D01*
X0154387Y0028385D01*
X0154513Y0028421D01*
X0154641Y0028454D01*
X0154769Y0028482D01*
X0154898Y0028507D01*
X0155028Y0028528D01*
X0155158Y0028545D01*
X0155289Y0028558D01*
X0155420Y0028567D01*
X0155551Y0028572D01*
X0155683Y0028573D01*
X0155814Y0028570D01*
X0155946Y0028563D01*
X0156077Y0028552D01*
X0156207Y0028537D01*
X0156337Y0028518D01*
X0156467Y0028495D01*
X0156595Y0028469D01*
X0156723Y0028438D01*
X0156850Y0028403D01*
X0156976Y0028365D01*
X0157100Y0028323D01*
X0157224Y0028277D01*
X0157345Y0028227D01*
X0157465Y0028174D01*
X0157584Y0028117D01*
X0157701Y0028057D01*
X0157815Y0027993D01*
X0157928Y0027925D01*
X0158039Y0027854D01*
X0158148Y0027780D01*
X0158254Y0027703D01*
X0158358Y0027622D01*
X0158459Y0027539D01*
X0158558Y0027452D01*
X0158654Y0027362D01*
X0158747Y0027269D01*
X0158838Y0027174D01*
X0158925Y0027076D01*
X0159010Y0026975D01*
X0159091Y0026872D01*
X0159169Y0026766D01*
X0159244Y0026658D01*
X0159316Y0026548D01*
X0159384Y0026436D01*
X0159449Y0026322D01*
X0159510Y0026205D01*
X0159568Y0026087D01*
X0159622Y0025967D01*
X0159673Y0025846D01*
X0159720Y0025723D01*
X0159763Y0025599D01*
X0159802Y0025474D01*
X0159838Y0025347D01*
X0159869Y0025219D01*
X0159897Y0025091D01*
X0159921Y0024962D01*
X0159941Y0024832D01*
X0159957Y0024701D01*
X0159969Y0024570D01*
X0159977Y0024439D01*
X0159981Y0024308D01*
X0159981Y0024176D01*
X0159977Y0024045D01*
X0159969Y0023914D01*
X0159957Y0023783D01*
X0159941Y0023652D01*
X0159921Y0023522D01*
X0159897Y0023393D01*
X0159869Y0023265D01*
X0159838Y0023137D01*
X0159802Y0023010D01*
X0159763Y0022885D01*
X0159720Y0022761D01*
X0159673Y0022638D01*
X0159622Y0022517D01*
X0159568Y0022397D01*
X0159510Y0022279D01*
X0159449Y0022162D01*
X0159384Y0022048D01*
X0159316Y0021936D01*
X0159244Y0021826D01*
X0159169Y0021718D01*
X0159091Y0021612D01*
X0159010Y0021509D01*
X0158925Y0021408D01*
X0158838Y0021310D01*
X0158747Y0021215D01*
X0158654Y0021122D01*
X0158558Y0021032D01*
X0158459Y0020945D01*
X0158358Y0020862D01*
X0158254Y0020781D01*
X0158148Y0020704D01*
X0158039Y0020630D01*
X0157928Y0020559D01*
X0157816Y0020491D01*
X0157701Y0020427D01*
X0157584Y0020367D01*
X0157465Y0020310D01*
X0157345Y0020257D01*
X0157224Y0020207D01*
X0157100Y0020161D01*
X0156976Y0020119D01*
X0156850Y0020081D01*
X0156723Y0020046D01*
X0156595Y0020015D01*
X0156467Y0019989D01*
X0156337Y0019966D01*
X0156207Y0019947D01*
X0156077Y0019932D01*
X0155946Y0019921D01*
X0155814Y0019914D01*
X0155683Y0019911D01*
X0155551Y0019912D01*
X0155420Y0019917D01*
X0155289Y0019926D01*
X0155158Y0019939D01*
X0155028Y0019956D01*
X0154898Y0019977D01*
X0154769Y0020002D01*
X0154641Y0020030D01*
X0154513Y0020063D01*
X0154387Y0020099D01*
X0154262Y0020140D01*
X0154138Y0020184D01*
X0154015Y0020231D01*
X0153894Y0020283D01*
X0153775Y0020338D01*
X0153657Y0020397D01*
X0153542Y0020459D01*
X0153428Y0020525D01*
X0153316Y0020594D01*
X0153206Y0020666D01*
X0153099Y0020742D01*
X0152994Y0020821D01*
X0152891Y0020903D01*
X0152791Y0020988D01*
X0152694Y0021077D01*
X0152599Y0021168D01*
X0152507Y0021262D01*
X0152418Y0021359D01*
X0152332Y0021458D01*
X0152249Y0021560D01*
X0152169Y0021665D01*
X0152093Y0021771D01*
X0152020Y0021880D01*
X0151950Y0021992D01*
X0151883Y0022105D01*
X0151820Y0022220D01*
X0151760Y0022338D01*
X0151704Y0022456D01*
X0151652Y0022577D01*
X0151603Y0022699D01*
X0151558Y0022823D01*
X0151517Y0022947D01*
X0151480Y0023074D01*
X0151446Y0023201D01*
X0151416Y0023329D01*
X0151391Y0023458D01*
X0151369Y0023587D01*
X0151351Y0023717D01*
X0151337Y0023848D01*
X0151327Y0023979D01*
X0151321Y0024111D01*
X0151319Y0024242D01*
X0185019Y0024242D02*
X0185021Y0024373D01*
X0185027Y0024505D01*
X0185037Y0024636D01*
X0185051Y0024767D01*
X0185069Y0024897D01*
X0185091Y0025026D01*
X0185116Y0025155D01*
X0185146Y0025283D01*
X0185180Y0025410D01*
X0185217Y0025537D01*
X0185258Y0025661D01*
X0185303Y0025785D01*
X0185352Y0025907D01*
X0185404Y0026028D01*
X0185460Y0026146D01*
X0185520Y0026264D01*
X0185583Y0026379D01*
X0185650Y0026492D01*
X0185720Y0026604D01*
X0185793Y0026713D01*
X0185869Y0026819D01*
X0185949Y0026924D01*
X0186032Y0027026D01*
X0186118Y0027125D01*
X0186207Y0027222D01*
X0186299Y0027316D01*
X0186394Y0027407D01*
X0186491Y0027496D01*
X0186591Y0027581D01*
X0186694Y0027663D01*
X0186799Y0027742D01*
X0186906Y0027818D01*
X0187016Y0027890D01*
X0187128Y0027959D01*
X0187242Y0028025D01*
X0187357Y0028087D01*
X0187475Y0028146D01*
X0187594Y0028201D01*
X0187715Y0028253D01*
X0187838Y0028300D01*
X0187962Y0028344D01*
X0188087Y0028385D01*
X0188213Y0028421D01*
X0188341Y0028454D01*
X0188469Y0028482D01*
X0188598Y0028507D01*
X0188728Y0028528D01*
X0188858Y0028545D01*
X0188989Y0028558D01*
X0189120Y0028567D01*
X0189251Y0028572D01*
X0189383Y0028573D01*
X0189514Y0028570D01*
X0189646Y0028563D01*
X0189777Y0028552D01*
X0189907Y0028537D01*
X0190037Y0028518D01*
X0190167Y0028495D01*
X0190295Y0028469D01*
X0190423Y0028438D01*
X0190550Y0028403D01*
X0190676Y0028365D01*
X0190800Y0028323D01*
X0190924Y0028277D01*
X0191045Y0028227D01*
X0191165Y0028174D01*
X0191284Y0028117D01*
X0191401Y0028057D01*
X0191515Y0027993D01*
X0191628Y0027925D01*
X0191739Y0027854D01*
X0191848Y0027780D01*
X0191954Y0027703D01*
X0192058Y0027622D01*
X0192159Y0027539D01*
X0192258Y0027452D01*
X0192354Y0027362D01*
X0192447Y0027269D01*
X0192538Y0027174D01*
X0192625Y0027076D01*
X0192710Y0026975D01*
X0192791Y0026872D01*
X0192869Y0026766D01*
X0192944Y0026658D01*
X0193016Y0026548D01*
X0193084Y0026436D01*
X0193149Y0026322D01*
X0193210Y0026205D01*
X0193268Y0026087D01*
X0193322Y0025967D01*
X0193373Y0025846D01*
X0193420Y0025723D01*
X0193463Y0025599D01*
X0193502Y0025474D01*
X0193538Y0025347D01*
X0193569Y0025219D01*
X0193597Y0025091D01*
X0193621Y0024962D01*
X0193641Y0024832D01*
X0193657Y0024701D01*
X0193669Y0024570D01*
X0193677Y0024439D01*
X0193681Y0024308D01*
X0193681Y0024176D01*
X0193677Y0024045D01*
X0193669Y0023914D01*
X0193657Y0023783D01*
X0193641Y0023652D01*
X0193621Y0023522D01*
X0193597Y0023393D01*
X0193569Y0023265D01*
X0193538Y0023137D01*
X0193502Y0023010D01*
X0193463Y0022885D01*
X0193420Y0022761D01*
X0193373Y0022638D01*
X0193322Y0022517D01*
X0193268Y0022397D01*
X0193210Y0022279D01*
X0193149Y0022162D01*
X0193084Y0022048D01*
X0193016Y0021936D01*
X0192944Y0021826D01*
X0192869Y0021718D01*
X0192791Y0021612D01*
X0192710Y0021509D01*
X0192625Y0021408D01*
X0192538Y0021310D01*
X0192447Y0021215D01*
X0192354Y0021122D01*
X0192258Y0021032D01*
X0192159Y0020945D01*
X0192058Y0020862D01*
X0191954Y0020781D01*
X0191848Y0020704D01*
X0191739Y0020630D01*
X0191628Y0020559D01*
X0191516Y0020491D01*
X0191401Y0020427D01*
X0191284Y0020367D01*
X0191165Y0020310D01*
X0191045Y0020257D01*
X0190924Y0020207D01*
X0190800Y0020161D01*
X0190676Y0020119D01*
X0190550Y0020081D01*
X0190423Y0020046D01*
X0190295Y0020015D01*
X0190167Y0019989D01*
X0190037Y0019966D01*
X0189907Y0019947D01*
X0189777Y0019932D01*
X0189646Y0019921D01*
X0189514Y0019914D01*
X0189383Y0019911D01*
X0189251Y0019912D01*
X0189120Y0019917D01*
X0188989Y0019926D01*
X0188858Y0019939D01*
X0188728Y0019956D01*
X0188598Y0019977D01*
X0188469Y0020002D01*
X0188341Y0020030D01*
X0188213Y0020063D01*
X0188087Y0020099D01*
X0187962Y0020140D01*
X0187838Y0020184D01*
X0187715Y0020231D01*
X0187594Y0020283D01*
X0187475Y0020338D01*
X0187357Y0020397D01*
X0187242Y0020459D01*
X0187128Y0020525D01*
X0187016Y0020594D01*
X0186906Y0020666D01*
X0186799Y0020742D01*
X0186694Y0020821D01*
X0186591Y0020903D01*
X0186491Y0020988D01*
X0186394Y0021077D01*
X0186299Y0021168D01*
X0186207Y0021262D01*
X0186118Y0021359D01*
X0186032Y0021458D01*
X0185949Y0021560D01*
X0185869Y0021665D01*
X0185793Y0021771D01*
X0185720Y0021880D01*
X0185650Y0021992D01*
X0185583Y0022105D01*
X0185520Y0022220D01*
X0185460Y0022338D01*
X0185404Y0022456D01*
X0185352Y0022577D01*
X0185303Y0022699D01*
X0185258Y0022823D01*
X0185217Y0022947D01*
X0185180Y0023074D01*
X0185146Y0023201D01*
X0185116Y0023329D01*
X0185091Y0023458D01*
X0185069Y0023587D01*
X0185051Y0023717D01*
X0185037Y0023848D01*
X0185027Y0023979D01*
X0185021Y0024111D01*
X0185019Y0024242D01*
X0241319Y0024242D02*
X0241321Y0024373D01*
X0241327Y0024505D01*
X0241337Y0024636D01*
X0241351Y0024767D01*
X0241369Y0024897D01*
X0241391Y0025026D01*
X0241416Y0025155D01*
X0241446Y0025283D01*
X0241480Y0025410D01*
X0241517Y0025537D01*
X0241558Y0025661D01*
X0241603Y0025785D01*
X0241652Y0025907D01*
X0241704Y0026028D01*
X0241760Y0026146D01*
X0241820Y0026264D01*
X0241883Y0026379D01*
X0241950Y0026492D01*
X0242020Y0026604D01*
X0242093Y0026713D01*
X0242169Y0026819D01*
X0242249Y0026924D01*
X0242332Y0027026D01*
X0242418Y0027125D01*
X0242507Y0027222D01*
X0242599Y0027316D01*
X0242694Y0027407D01*
X0242791Y0027496D01*
X0242891Y0027581D01*
X0242994Y0027663D01*
X0243099Y0027742D01*
X0243206Y0027818D01*
X0243316Y0027890D01*
X0243428Y0027959D01*
X0243542Y0028025D01*
X0243657Y0028087D01*
X0243775Y0028146D01*
X0243894Y0028201D01*
X0244015Y0028253D01*
X0244138Y0028300D01*
X0244262Y0028344D01*
X0244387Y0028385D01*
X0244513Y0028421D01*
X0244641Y0028454D01*
X0244769Y0028482D01*
X0244898Y0028507D01*
X0245028Y0028528D01*
X0245158Y0028545D01*
X0245289Y0028558D01*
X0245420Y0028567D01*
X0245551Y0028572D01*
X0245683Y0028573D01*
X0245814Y0028570D01*
X0245946Y0028563D01*
X0246077Y0028552D01*
X0246207Y0028537D01*
X0246337Y0028518D01*
X0246467Y0028495D01*
X0246595Y0028469D01*
X0246723Y0028438D01*
X0246850Y0028403D01*
X0246976Y0028365D01*
X0247100Y0028323D01*
X0247224Y0028277D01*
X0247345Y0028227D01*
X0247465Y0028174D01*
X0247584Y0028117D01*
X0247701Y0028057D01*
X0247815Y0027993D01*
X0247928Y0027925D01*
X0248039Y0027854D01*
X0248148Y0027780D01*
X0248254Y0027703D01*
X0248358Y0027622D01*
X0248459Y0027539D01*
X0248558Y0027452D01*
X0248654Y0027362D01*
X0248747Y0027269D01*
X0248838Y0027174D01*
X0248925Y0027076D01*
X0249010Y0026975D01*
X0249091Y0026872D01*
X0249169Y0026766D01*
X0249244Y0026658D01*
X0249316Y0026548D01*
X0249384Y0026436D01*
X0249449Y0026322D01*
X0249510Y0026205D01*
X0249568Y0026087D01*
X0249622Y0025967D01*
X0249673Y0025846D01*
X0249720Y0025723D01*
X0249763Y0025599D01*
X0249802Y0025474D01*
X0249838Y0025347D01*
X0249869Y0025219D01*
X0249897Y0025091D01*
X0249921Y0024962D01*
X0249941Y0024832D01*
X0249957Y0024701D01*
X0249969Y0024570D01*
X0249977Y0024439D01*
X0249981Y0024308D01*
X0249981Y0024176D01*
X0249977Y0024045D01*
X0249969Y0023914D01*
X0249957Y0023783D01*
X0249941Y0023652D01*
X0249921Y0023522D01*
X0249897Y0023393D01*
X0249869Y0023265D01*
X0249838Y0023137D01*
X0249802Y0023010D01*
X0249763Y0022885D01*
X0249720Y0022761D01*
X0249673Y0022638D01*
X0249622Y0022517D01*
X0249568Y0022397D01*
X0249510Y0022279D01*
X0249449Y0022162D01*
X0249384Y0022048D01*
X0249316Y0021936D01*
X0249244Y0021826D01*
X0249169Y0021718D01*
X0249091Y0021612D01*
X0249010Y0021509D01*
X0248925Y0021408D01*
X0248838Y0021310D01*
X0248747Y0021215D01*
X0248654Y0021122D01*
X0248558Y0021032D01*
X0248459Y0020945D01*
X0248358Y0020862D01*
X0248254Y0020781D01*
X0248148Y0020704D01*
X0248039Y0020630D01*
X0247928Y0020559D01*
X0247816Y0020491D01*
X0247701Y0020427D01*
X0247584Y0020367D01*
X0247465Y0020310D01*
X0247345Y0020257D01*
X0247224Y0020207D01*
X0247100Y0020161D01*
X0246976Y0020119D01*
X0246850Y0020081D01*
X0246723Y0020046D01*
X0246595Y0020015D01*
X0246467Y0019989D01*
X0246337Y0019966D01*
X0246207Y0019947D01*
X0246077Y0019932D01*
X0245946Y0019921D01*
X0245814Y0019914D01*
X0245683Y0019911D01*
X0245551Y0019912D01*
X0245420Y0019917D01*
X0245289Y0019926D01*
X0245158Y0019939D01*
X0245028Y0019956D01*
X0244898Y0019977D01*
X0244769Y0020002D01*
X0244641Y0020030D01*
X0244513Y0020063D01*
X0244387Y0020099D01*
X0244262Y0020140D01*
X0244138Y0020184D01*
X0244015Y0020231D01*
X0243894Y0020283D01*
X0243775Y0020338D01*
X0243657Y0020397D01*
X0243542Y0020459D01*
X0243428Y0020525D01*
X0243316Y0020594D01*
X0243206Y0020666D01*
X0243099Y0020742D01*
X0242994Y0020821D01*
X0242891Y0020903D01*
X0242791Y0020988D01*
X0242694Y0021077D01*
X0242599Y0021168D01*
X0242507Y0021262D01*
X0242418Y0021359D01*
X0242332Y0021458D01*
X0242249Y0021560D01*
X0242169Y0021665D01*
X0242093Y0021771D01*
X0242020Y0021880D01*
X0241950Y0021992D01*
X0241883Y0022105D01*
X0241820Y0022220D01*
X0241760Y0022338D01*
X0241704Y0022456D01*
X0241652Y0022577D01*
X0241603Y0022699D01*
X0241558Y0022823D01*
X0241517Y0022947D01*
X0241480Y0023074D01*
X0241446Y0023201D01*
X0241416Y0023329D01*
X0241391Y0023458D01*
X0241369Y0023587D01*
X0241351Y0023717D01*
X0241337Y0023848D01*
X0241327Y0023979D01*
X0241321Y0024111D01*
X0241319Y0024242D01*
X0275019Y0024242D02*
X0275021Y0024373D01*
X0275027Y0024505D01*
X0275037Y0024636D01*
X0275051Y0024767D01*
X0275069Y0024897D01*
X0275091Y0025026D01*
X0275116Y0025155D01*
X0275146Y0025283D01*
X0275180Y0025410D01*
X0275217Y0025537D01*
X0275258Y0025661D01*
X0275303Y0025785D01*
X0275352Y0025907D01*
X0275404Y0026028D01*
X0275460Y0026146D01*
X0275520Y0026264D01*
X0275583Y0026379D01*
X0275650Y0026492D01*
X0275720Y0026604D01*
X0275793Y0026713D01*
X0275869Y0026819D01*
X0275949Y0026924D01*
X0276032Y0027026D01*
X0276118Y0027125D01*
X0276207Y0027222D01*
X0276299Y0027316D01*
X0276394Y0027407D01*
X0276491Y0027496D01*
X0276591Y0027581D01*
X0276694Y0027663D01*
X0276799Y0027742D01*
X0276906Y0027818D01*
X0277016Y0027890D01*
X0277128Y0027959D01*
X0277242Y0028025D01*
X0277357Y0028087D01*
X0277475Y0028146D01*
X0277594Y0028201D01*
X0277715Y0028253D01*
X0277838Y0028300D01*
X0277962Y0028344D01*
X0278087Y0028385D01*
X0278213Y0028421D01*
X0278341Y0028454D01*
X0278469Y0028482D01*
X0278598Y0028507D01*
X0278728Y0028528D01*
X0278858Y0028545D01*
X0278989Y0028558D01*
X0279120Y0028567D01*
X0279251Y0028572D01*
X0279383Y0028573D01*
X0279514Y0028570D01*
X0279646Y0028563D01*
X0279777Y0028552D01*
X0279907Y0028537D01*
X0280037Y0028518D01*
X0280167Y0028495D01*
X0280295Y0028469D01*
X0280423Y0028438D01*
X0280550Y0028403D01*
X0280676Y0028365D01*
X0280800Y0028323D01*
X0280924Y0028277D01*
X0281045Y0028227D01*
X0281165Y0028174D01*
X0281284Y0028117D01*
X0281401Y0028057D01*
X0281515Y0027993D01*
X0281628Y0027925D01*
X0281739Y0027854D01*
X0281848Y0027780D01*
X0281954Y0027703D01*
X0282058Y0027622D01*
X0282159Y0027539D01*
X0282258Y0027452D01*
X0282354Y0027362D01*
X0282447Y0027269D01*
X0282538Y0027174D01*
X0282625Y0027076D01*
X0282710Y0026975D01*
X0282791Y0026872D01*
X0282869Y0026766D01*
X0282944Y0026658D01*
X0283016Y0026548D01*
X0283084Y0026436D01*
X0283149Y0026322D01*
X0283210Y0026205D01*
X0283268Y0026087D01*
X0283322Y0025967D01*
X0283373Y0025846D01*
X0283420Y0025723D01*
X0283463Y0025599D01*
X0283502Y0025474D01*
X0283538Y0025347D01*
X0283569Y0025219D01*
X0283597Y0025091D01*
X0283621Y0024962D01*
X0283641Y0024832D01*
X0283657Y0024701D01*
X0283669Y0024570D01*
X0283677Y0024439D01*
X0283681Y0024308D01*
X0283681Y0024176D01*
X0283677Y0024045D01*
X0283669Y0023914D01*
X0283657Y0023783D01*
X0283641Y0023652D01*
X0283621Y0023522D01*
X0283597Y0023393D01*
X0283569Y0023265D01*
X0283538Y0023137D01*
X0283502Y0023010D01*
X0283463Y0022885D01*
X0283420Y0022761D01*
X0283373Y0022638D01*
X0283322Y0022517D01*
X0283268Y0022397D01*
X0283210Y0022279D01*
X0283149Y0022162D01*
X0283084Y0022048D01*
X0283016Y0021936D01*
X0282944Y0021826D01*
X0282869Y0021718D01*
X0282791Y0021612D01*
X0282710Y0021509D01*
X0282625Y0021408D01*
X0282538Y0021310D01*
X0282447Y0021215D01*
X0282354Y0021122D01*
X0282258Y0021032D01*
X0282159Y0020945D01*
X0282058Y0020862D01*
X0281954Y0020781D01*
X0281848Y0020704D01*
X0281739Y0020630D01*
X0281628Y0020559D01*
X0281516Y0020491D01*
X0281401Y0020427D01*
X0281284Y0020367D01*
X0281165Y0020310D01*
X0281045Y0020257D01*
X0280924Y0020207D01*
X0280800Y0020161D01*
X0280676Y0020119D01*
X0280550Y0020081D01*
X0280423Y0020046D01*
X0280295Y0020015D01*
X0280167Y0019989D01*
X0280037Y0019966D01*
X0279907Y0019947D01*
X0279777Y0019932D01*
X0279646Y0019921D01*
X0279514Y0019914D01*
X0279383Y0019911D01*
X0279251Y0019912D01*
X0279120Y0019917D01*
X0278989Y0019926D01*
X0278858Y0019939D01*
X0278728Y0019956D01*
X0278598Y0019977D01*
X0278469Y0020002D01*
X0278341Y0020030D01*
X0278213Y0020063D01*
X0278087Y0020099D01*
X0277962Y0020140D01*
X0277838Y0020184D01*
X0277715Y0020231D01*
X0277594Y0020283D01*
X0277475Y0020338D01*
X0277357Y0020397D01*
X0277242Y0020459D01*
X0277128Y0020525D01*
X0277016Y0020594D01*
X0276906Y0020666D01*
X0276799Y0020742D01*
X0276694Y0020821D01*
X0276591Y0020903D01*
X0276491Y0020988D01*
X0276394Y0021077D01*
X0276299Y0021168D01*
X0276207Y0021262D01*
X0276118Y0021359D01*
X0276032Y0021458D01*
X0275949Y0021560D01*
X0275869Y0021665D01*
X0275793Y0021771D01*
X0275720Y0021880D01*
X0275650Y0021992D01*
X0275583Y0022105D01*
X0275520Y0022220D01*
X0275460Y0022338D01*
X0275404Y0022456D01*
X0275352Y0022577D01*
X0275303Y0022699D01*
X0275258Y0022823D01*
X0275217Y0022947D01*
X0275180Y0023074D01*
X0275146Y0023201D01*
X0275116Y0023329D01*
X0275091Y0023458D01*
X0275069Y0023587D01*
X0275051Y0023717D01*
X0275037Y0023848D01*
X0275027Y0023979D01*
X0275021Y0024111D01*
X0275019Y0024242D01*
X0331319Y0024242D02*
X0331321Y0024373D01*
X0331327Y0024505D01*
X0331337Y0024636D01*
X0331351Y0024767D01*
X0331369Y0024897D01*
X0331391Y0025026D01*
X0331416Y0025155D01*
X0331446Y0025283D01*
X0331480Y0025410D01*
X0331517Y0025537D01*
X0331558Y0025661D01*
X0331603Y0025785D01*
X0331652Y0025907D01*
X0331704Y0026028D01*
X0331760Y0026146D01*
X0331820Y0026264D01*
X0331883Y0026379D01*
X0331950Y0026492D01*
X0332020Y0026604D01*
X0332093Y0026713D01*
X0332169Y0026819D01*
X0332249Y0026924D01*
X0332332Y0027026D01*
X0332418Y0027125D01*
X0332507Y0027222D01*
X0332599Y0027316D01*
X0332694Y0027407D01*
X0332791Y0027496D01*
X0332891Y0027581D01*
X0332994Y0027663D01*
X0333099Y0027742D01*
X0333206Y0027818D01*
X0333316Y0027890D01*
X0333428Y0027959D01*
X0333542Y0028025D01*
X0333657Y0028087D01*
X0333775Y0028146D01*
X0333894Y0028201D01*
X0334015Y0028253D01*
X0334138Y0028300D01*
X0334262Y0028344D01*
X0334387Y0028385D01*
X0334513Y0028421D01*
X0334641Y0028454D01*
X0334769Y0028482D01*
X0334898Y0028507D01*
X0335028Y0028528D01*
X0335158Y0028545D01*
X0335289Y0028558D01*
X0335420Y0028567D01*
X0335551Y0028572D01*
X0335683Y0028573D01*
X0335814Y0028570D01*
X0335946Y0028563D01*
X0336077Y0028552D01*
X0336207Y0028537D01*
X0336337Y0028518D01*
X0336467Y0028495D01*
X0336595Y0028469D01*
X0336723Y0028438D01*
X0336850Y0028403D01*
X0336976Y0028365D01*
X0337100Y0028323D01*
X0337224Y0028277D01*
X0337345Y0028227D01*
X0337465Y0028174D01*
X0337584Y0028117D01*
X0337701Y0028057D01*
X0337815Y0027993D01*
X0337928Y0027925D01*
X0338039Y0027854D01*
X0338148Y0027780D01*
X0338254Y0027703D01*
X0338358Y0027622D01*
X0338459Y0027539D01*
X0338558Y0027452D01*
X0338654Y0027362D01*
X0338747Y0027269D01*
X0338838Y0027174D01*
X0338925Y0027076D01*
X0339010Y0026975D01*
X0339091Y0026872D01*
X0339169Y0026766D01*
X0339244Y0026658D01*
X0339316Y0026548D01*
X0339384Y0026436D01*
X0339449Y0026322D01*
X0339510Y0026205D01*
X0339568Y0026087D01*
X0339622Y0025967D01*
X0339673Y0025846D01*
X0339720Y0025723D01*
X0339763Y0025599D01*
X0339802Y0025474D01*
X0339838Y0025347D01*
X0339869Y0025219D01*
X0339897Y0025091D01*
X0339921Y0024962D01*
X0339941Y0024832D01*
X0339957Y0024701D01*
X0339969Y0024570D01*
X0339977Y0024439D01*
X0339981Y0024308D01*
X0339981Y0024176D01*
X0339977Y0024045D01*
X0339969Y0023914D01*
X0339957Y0023783D01*
X0339941Y0023652D01*
X0339921Y0023522D01*
X0339897Y0023393D01*
X0339869Y0023265D01*
X0339838Y0023137D01*
X0339802Y0023010D01*
X0339763Y0022885D01*
X0339720Y0022761D01*
X0339673Y0022638D01*
X0339622Y0022517D01*
X0339568Y0022397D01*
X0339510Y0022279D01*
X0339449Y0022162D01*
X0339384Y0022048D01*
X0339316Y0021936D01*
X0339244Y0021826D01*
X0339169Y0021718D01*
X0339091Y0021612D01*
X0339010Y0021509D01*
X0338925Y0021408D01*
X0338838Y0021310D01*
X0338747Y0021215D01*
X0338654Y0021122D01*
X0338558Y0021032D01*
X0338459Y0020945D01*
X0338358Y0020862D01*
X0338254Y0020781D01*
X0338148Y0020704D01*
X0338039Y0020630D01*
X0337928Y0020559D01*
X0337816Y0020491D01*
X0337701Y0020427D01*
X0337584Y0020367D01*
X0337465Y0020310D01*
X0337345Y0020257D01*
X0337224Y0020207D01*
X0337100Y0020161D01*
X0336976Y0020119D01*
X0336850Y0020081D01*
X0336723Y0020046D01*
X0336595Y0020015D01*
X0336467Y0019989D01*
X0336337Y0019966D01*
X0336207Y0019947D01*
X0336077Y0019932D01*
X0335946Y0019921D01*
X0335814Y0019914D01*
X0335683Y0019911D01*
X0335551Y0019912D01*
X0335420Y0019917D01*
X0335289Y0019926D01*
X0335158Y0019939D01*
X0335028Y0019956D01*
X0334898Y0019977D01*
X0334769Y0020002D01*
X0334641Y0020030D01*
X0334513Y0020063D01*
X0334387Y0020099D01*
X0334262Y0020140D01*
X0334138Y0020184D01*
X0334015Y0020231D01*
X0333894Y0020283D01*
X0333775Y0020338D01*
X0333657Y0020397D01*
X0333542Y0020459D01*
X0333428Y0020525D01*
X0333316Y0020594D01*
X0333206Y0020666D01*
X0333099Y0020742D01*
X0332994Y0020821D01*
X0332891Y0020903D01*
X0332791Y0020988D01*
X0332694Y0021077D01*
X0332599Y0021168D01*
X0332507Y0021262D01*
X0332418Y0021359D01*
X0332332Y0021458D01*
X0332249Y0021560D01*
X0332169Y0021665D01*
X0332093Y0021771D01*
X0332020Y0021880D01*
X0331950Y0021992D01*
X0331883Y0022105D01*
X0331820Y0022220D01*
X0331760Y0022338D01*
X0331704Y0022456D01*
X0331652Y0022577D01*
X0331603Y0022699D01*
X0331558Y0022823D01*
X0331517Y0022947D01*
X0331480Y0023074D01*
X0331446Y0023201D01*
X0331416Y0023329D01*
X0331391Y0023458D01*
X0331369Y0023587D01*
X0331351Y0023717D01*
X0331337Y0023848D01*
X0331327Y0023979D01*
X0331321Y0024111D01*
X0331319Y0024242D01*
X0380450Y0012500D02*
X0380452Y0012652D01*
X0380458Y0012804D01*
X0380468Y0012955D01*
X0380482Y0013106D01*
X0380500Y0013257D01*
X0380521Y0013407D01*
X0380547Y0013557D01*
X0380577Y0013706D01*
X0380610Y0013854D01*
X0380648Y0014001D01*
X0380689Y0014147D01*
X0380734Y0014292D01*
X0380783Y0014436D01*
X0380835Y0014579D01*
X0380891Y0014720D01*
X0380951Y0014859D01*
X0381015Y0014997D01*
X0381082Y0015133D01*
X0381153Y0015268D01*
X0381227Y0015400D01*
X0381305Y0015530D01*
X0381386Y0015659D01*
X0381470Y0015785D01*
X0381558Y0015909D01*
X0381649Y0016031D01*
X0381743Y0016150D01*
X0381840Y0016267D01*
X0381940Y0016381D01*
X0382043Y0016492D01*
X0382149Y0016601D01*
X0382258Y0016707D01*
X0382369Y0016810D01*
X0382483Y0016910D01*
X0382600Y0017007D01*
X0382719Y0017101D01*
X0382841Y0017192D01*
X0382965Y0017280D01*
X0383091Y0017364D01*
X0383220Y0017445D01*
X0383350Y0017523D01*
X0383482Y0017597D01*
X0383617Y0017668D01*
X0383753Y0017735D01*
X0383891Y0017799D01*
X0384030Y0017859D01*
X0384171Y0017915D01*
X0384314Y0017967D01*
X0384458Y0018016D01*
X0384603Y0018061D01*
X0384749Y0018102D01*
X0384896Y0018140D01*
X0385044Y0018173D01*
X0385193Y0018203D01*
X0385343Y0018229D01*
X0385493Y0018250D01*
X0385644Y0018268D01*
X0385795Y0018282D01*
X0385946Y0018292D01*
X0386098Y0018298D01*
X0386250Y0018300D01*
X0386402Y0018298D01*
X0386554Y0018292D01*
X0386705Y0018282D01*
X0386856Y0018268D01*
X0387007Y0018250D01*
X0387157Y0018229D01*
X0387307Y0018203D01*
X0387456Y0018173D01*
X0387604Y0018140D01*
X0387751Y0018102D01*
X0387897Y0018061D01*
X0388042Y0018016D01*
X0388186Y0017967D01*
X0388329Y0017915D01*
X0388470Y0017859D01*
X0388609Y0017799D01*
X0388747Y0017735D01*
X0388883Y0017668D01*
X0389018Y0017597D01*
X0389150Y0017523D01*
X0389280Y0017445D01*
X0389409Y0017364D01*
X0389535Y0017280D01*
X0389659Y0017192D01*
X0389781Y0017101D01*
X0389900Y0017007D01*
X0390017Y0016910D01*
X0390131Y0016810D01*
X0390242Y0016707D01*
X0390351Y0016601D01*
X0390457Y0016492D01*
X0390560Y0016381D01*
X0390660Y0016267D01*
X0390757Y0016150D01*
X0390851Y0016031D01*
X0390942Y0015909D01*
X0391030Y0015785D01*
X0391114Y0015659D01*
X0391195Y0015530D01*
X0391273Y0015400D01*
X0391347Y0015268D01*
X0391418Y0015133D01*
X0391485Y0014997D01*
X0391549Y0014859D01*
X0391609Y0014720D01*
X0391665Y0014579D01*
X0391717Y0014436D01*
X0391766Y0014292D01*
X0391811Y0014147D01*
X0391852Y0014001D01*
X0391890Y0013854D01*
X0391923Y0013706D01*
X0391953Y0013557D01*
X0391979Y0013407D01*
X0392000Y0013257D01*
X0392018Y0013106D01*
X0392032Y0012955D01*
X0392042Y0012804D01*
X0392048Y0012652D01*
X0392050Y0012500D01*
X0392048Y0012348D01*
X0392042Y0012196D01*
X0392032Y0012045D01*
X0392018Y0011894D01*
X0392000Y0011743D01*
X0391979Y0011593D01*
X0391953Y0011443D01*
X0391923Y0011294D01*
X0391890Y0011146D01*
X0391852Y0010999D01*
X0391811Y0010853D01*
X0391766Y0010708D01*
X0391717Y0010564D01*
X0391665Y0010421D01*
X0391609Y0010280D01*
X0391549Y0010141D01*
X0391485Y0010003D01*
X0391418Y0009867D01*
X0391347Y0009732D01*
X0391273Y0009600D01*
X0391195Y0009470D01*
X0391114Y0009341D01*
X0391030Y0009215D01*
X0390942Y0009091D01*
X0390851Y0008969D01*
X0390757Y0008850D01*
X0390660Y0008733D01*
X0390560Y0008619D01*
X0390457Y0008508D01*
X0390351Y0008399D01*
X0390242Y0008293D01*
X0390131Y0008190D01*
X0390017Y0008090D01*
X0389900Y0007993D01*
X0389781Y0007899D01*
X0389659Y0007808D01*
X0389535Y0007720D01*
X0389409Y0007636D01*
X0389280Y0007555D01*
X0389150Y0007477D01*
X0389018Y0007403D01*
X0388883Y0007332D01*
X0388747Y0007265D01*
X0388609Y0007201D01*
X0388470Y0007141D01*
X0388329Y0007085D01*
X0388186Y0007033D01*
X0388042Y0006984D01*
X0387897Y0006939D01*
X0387751Y0006898D01*
X0387604Y0006860D01*
X0387456Y0006827D01*
X0387307Y0006797D01*
X0387157Y0006771D01*
X0387007Y0006750D01*
X0386856Y0006732D01*
X0386705Y0006718D01*
X0386554Y0006708D01*
X0386402Y0006702D01*
X0386250Y0006700D01*
X0386098Y0006702D01*
X0385946Y0006708D01*
X0385795Y0006718D01*
X0385644Y0006732D01*
X0385493Y0006750D01*
X0385343Y0006771D01*
X0385193Y0006797D01*
X0385044Y0006827D01*
X0384896Y0006860D01*
X0384749Y0006898D01*
X0384603Y0006939D01*
X0384458Y0006984D01*
X0384314Y0007033D01*
X0384171Y0007085D01*
X0384030Y0007141D01*
X0383891Y0007201D01*
X0383753Y0007265D01*
X0383617Y0007332D01*
X0383482Y0007403D01*
X0383350Y0007477D01*
X0383220Y0007555D01*
X0383091Y0007636D01*
X0382965Y0007720D01*
X0382841Y0007808D01*
X0382719Y0007899D01*
X0382600Y0007993D01*
X0382483Y0008090D01*
X0382369Y0008190D01*
X0382258Y0008293D01*
X0382149Y0008399D01*
X0382043Y0008508D01*
X0381940Y0008619D01*
X0381840Y0008733D01*
X0381743Y0008850D01*
X0381649Y0008969D01*
X0381558Y0009091D01*
X0381470Y0009215D01*
X0381386Y0009341D01*
X0381305Y0009470D01*
X0381227Y0009600D01*
X0381153Y0009732D01*
X0381082Y0009867D01*
X0381015Y0010003D01*
X0380951Y0010141D01*
X0380891Y0010280D01*
X0380835Y0010421D01*
X0380783Y0010564D01*
X0380734Y0010708D01*
X0380689Y0010853D01*
X0380648Y0010999D01*
X0380610Y0011146D01*
X0380577Y0011294D01*
X0380547Y0011443D01*
X0380521Y0011593D01*
X0380500Y0011743D01*
X0380482Y0011894D01*
X0380468Y0012045D01*
X0380458Y0012196D01*
X0380452Y0012348D01*
X0380450Y0012500D01*
M02*
