G75*
%MOIN*%
%OFA0B0*%
%FSLAX24Y24*%
%IPPOS*%
%LPD*%
%AMOC8*
5,1,8,0,0,1.08239X$1,22.5*
%
%ADD10OC8,0.0480*%
%ADD11OC8,0.0630*%
%ADD12C,0.0630*%
%ADD13C,0.0560*%
%ADD14C,0.0768*%
%ADD15C,0.0591*%
%ADD16C,0.0526*%
%ADD17C,0.0500*%
%ADD18C,0.0160*%
%ADD19C,0.0120*%
%ADD20C,0.0400*%
%ADD21C,0.0360*%
D10*
X006750Y004375D03*
X007500Y004375D03*
X008250Y004375D03*
X009000Y004375D03*
X010000Y004375D03*
X010000Y005125D03*
X009000Y005125D03*
X008250Y005375D03*
X007500Y005375D03*
X006750Y005375D03*
X005750Y005375D03*
X004750Y005375D03*
X007375Y006250D03*
X008375Y006250D03*
X012000Y005500D03*
X013500Y005250D03*
X014500Y005250D03*
X014500Y004500D03*
X013500Y004500D03*
X012000Y004500D03*
X016500Y004500D03*
X018000Y004625D03*
X019000Y004625D03*
X019000Y005375D03*
X018000Y005375D03*
X016500Y005500D03*
X021000Y005500D03*
X022500Y005500D03*
X023500Y005500D03*
X023500Y004750D03*
X022500Y004750D03*
X021000Y004500D03*
X025500Y004500D03*
X027000Y004750D03*
X028000Y004750D03*
X028000Y005500D03*
X027000Y005500D03*
X025500Y005500D03*
X030000Y005500D03*
X031500Y005500D03*
X032500Y005500D03*
X032500Y004750D03*
X031500Y004750D03*
X030000Y004500D03*
X034500Y004500D03*
X034500Y005500D03*
X034750Y003125D03*
X035750Y003125D03*
X035750Y002375D03*
X034750Y002375D03*
X034750Y001625D03*
X035750Y001625D03*
X035750Y000875D03*
X034750Y000875D03*
X026750Y001375D03*
X025750Y001375D03*
X025750Y002125D03*
X026750Y002125D03*
X017750Y002125D03*
X016750Y002125D03*
X016750Y001375D03*
X017750Y001375D03*
X004250Y009750D03*
X003125Y009750D03*
X002250Y009750D03*
X002250Y010750D03*
X003125Y010750D03*
X004250Y010750D03*
X005500Y011125D03*
X006500Y011125D03*
X007500Y011125D03*
X007500Y012000D03*
X006500Y012000D03*
X006500Y013000D03*
X007500Y013000D03*
X009000Y011000D03*
X010000Y011000D03*
X011000Y011000D03*
X012000Y011000D03*
X013500Y011000D03*
X014500Y011000D03*
X015500Y011000D03*
X016500Y011000D03*
X016500Y010000D03*
X015500Y010000D03*
X014500Y010000D03*
X013500Y010000D03*
X012000Y010000D03*
X011000Y010000D03*
X010000Y010000D03*
X009000Y010000D03*
X007500Y010125D03*
X006500Y010125D03*
X005500Y010125D03*
X012500Y013000D03*
X013500Y013000D03*
X018250Y012875D03*
X019250Y012875D03*
X019000Y011000D03*
X018000Y011000D03*
X018000Y010000D03*
X019000Y010000D03*
X020000Y010000D03*
X021000Y010000D03*
X022500Y010000D03*
X023500Y010000D03*
X024500Y010000D03*
X025500Y010000D03*
X025500Y011000D03*
X024500Y011000D03*
X023500Y011000D03*
X022500Y011000D03*
X021000Y011000D03*
X020000Y011000D03*
X024250Y013125D03*
X025250Y013125D03*
X027000Y011000D03*
X028000Y011000D03*
X029000Y011000D03*
X030000Y011000D03*
X031500Y011000D03*
X032500Y011000D03*
X033500Y011000D03*
X034500Y011000D03*
X034500Y010000D03*
X033500Y010000D03*
X032500Y010000D03*
X031500Y010000D03*
X030000Y010000D03*
X029000Y010000D03*
X028000Y010000D03*
X027000Y010000D03*
X030250Y013125D03*
X031250Y013125D03*
X033125Y015375D03*
X034125Y015375D03*
X036250Y013125D03*
X037250Y013125D03*
X037250Y012250D03*
X036250Y012250D03*
X022250Y015375D03*
X021250Y015375D03*
X016375Y015375D03*
X015375Y015375D03*
X010625Y015375D03*
X009625Y015375D03*
X004375Y015250D03*
X003375Y015250D03*
D11*
X036000Y009000D03*
X037000Y006500D03*
D12*
X036000Y006500D03*
X037000Y009000D03*
D13*
X034734Y013125D03*
X032766Y013125D03*
X028734Y013125D03*
X026766Y013125D03*
X022734Y013125D03*
X020766Y013125D03*
X016859Y013125D03*
X014891Y013125D03*
X010984Y013125D03*
X009016Y013125D03*
X007984Y015250D03*
X006016Y015250D03*
X004859Y012875D03*
X002891Y012875D03*
X012016Y015375D03*
X013984Y015375D03*
X017766Y015375D03*
X019734Y015375D03*
X023766Y015375D03*
X025734Y015375D03*
X029766Y015375D03*
X031734Y015375D03*
X035766Y015375D03*
X037734Y015375D03*
D14*
X007683Y003090D03*
X005714Y003090D03*
X003746Y003090D03*
X003746Y001121D03*
X005714Y001121D03*
X007683Y001121D03*
D15*
X010388Y001125D03*
X011175Y001125D03*
X011963Y001125D03*
X012750Y001125D03*
X013537Y001125D03*
X014325Y001125D03*
X015112Y001125D03*
X019388Y001125D03*
X020175Y001125D03*
X020963Y001125D03*
X021750Y001125D03*
X022537Y001125D03*
X023325Y001125D03*
X024112Y001125D03*
X028388Y001125D03*
X029175Y001125D03*
X029963Y001125D03*
X030750Y001125D03*
X031537Y001125D03*
X032325Y001125D03*
X033112Y001125D03*
D16*
X038125Y006750D03*
X038125Y007750D03*
X038125Y008750D03*
X001375Y008750D03*
X001375Y007750D03*
X001375Y006750D03*
X001375Y010750D03*
X001375Y011750D03*
X001375Y012750D03*
D17*
X003750Y009250D03*
X004750Y009250D03*
X005750Y009250D03*
X006750Y009250D03*
X009000Y009250D03*
X010000Y009250D03*
X011000Y009250D03*
X012000Y009250D03*
X013500Y009250D03*
X014500Y009250D03*
X015500Y009250D03*
X016500Y009250D03*
X018000Y009250D03*
X019000Y009250D03*
X020000Y009250D03*
X021000Y009250D03*
X022500Y009250D03*
X023500Y009250D03*
X024500Y009250D03*
X025500Y009250D03*
X027000Y009250D03*
X028000Y009250D03*
X029000Y009250D03*
X030000Y009250D03*
X031500Y009250D03*
X032500Y009250D03*
X033500Y009250D03*
X034500Y009250D03*
X034500Y006250D03*
X033500Y006250D03*
X032500Y006250D03*
X031500Y006250D03*
X030000Y006250D03*
X029000Y006250D03*
X028000Y006250D03*
X027000Y006250D03*
X025500Y006250D03*
X024500Y006250D03*
X023500Y006250D03*
X022500Y006250D03*
X021000Y006250D03*
X020000Y006250D03*
X019000Y006250D03*
X018000Y006250D03*
X016500Y006250D03*
X015500Y006250D03*
X014500Y006250D03*
X013500Y006250D03*
X012000Y006250D03*
X011000Y006250D03*
X010000Y006250D03*
X009000Y006250D03*
X006750Y006250D03*
X005750Y006250D03*
X004750Y006250D03*
X003750Y006250D03*
D18*
X000230Y000992D02*
X000230Y000230D01*
X034153Y000230D01*
X034134Y000255D01*
X034080Y000309D01*
X034080Y000325D01*
X033970Y000469D01*
X033916Y000523D01*
X033916Y000539D01*
X033906Y000552D01*
X033916Y000628D01*
X033916Y001215D01*
X033871Y001246D01*
X033525Y001317D01*
X033567Y001216D01*
X033567Y001034D01*
X033498Y000867D01*
X033370Y000739D01*
X033203Y000670D01*
X033022Y000670D01*
X032854Y000739D01*
X032726Y000867D01*
X032719Y000886D01*
X032711Y000867D01*
X032583Y000739D01*
X032415Y000670D01*
X032384Y000670D01*
X032136Y000422D01*
X032048Y000385D01*
X030952Y000385D01*
X030864Y000422D01*
X030797Y000489D01*
X030585Y000701D01*
X030492Y000739D01*
X030364Y000867D01*
X030356Y000886D01*
X030349Y000867D01*
X030220Y000739D01*
X030053Y000670D01*
X029872Y000670D01*
X029705Y000739D01*
X029577Y000867D01*
X029569Y000886D01*
X029561Y000867D01*
X029433Y000739D01*
X029266Y000670D01*
X029085Y000670D01*
X028917Y000739D01*
X028789Y000867D01*
X028781Y000886D01*
X028774Y000867D01*
X028646Y000739D01*
X028478Y000670D01*
X028297Y000670D01*
X028130Y000739D01*
X028002Y000867D01*
X027933Y001034D01*
X027933Y001155D01*
X027096Y001155D01*
X026916Y000975D01*
X026584Y000975D01*
X026350Y001209D01*
X026350Y001464D01*
X026021Y001793D01*
X026021Y001831D01*
X025941Y001750D01*
X026150Y001541D01*
X026150Y001209D01*
X025916Y000975D01*
X025584Y000975D01*
X025350Y001209D01*
X025350Y001414D01*
X025266Y001330D01*
X024520Y001330D01*
X024567Y001216D01*
X024567Y001034D01*
X024498Y000867D01*
X024370Y000739D01*
X024203Y000670D01*
X024022Y000670D01*
X023854Y000739D01*
X023726Y000867D01*
X023719Y000886D01*
X023711Y000867D01*
X023583Y000739D01*
X023575Y000736D01*
X023511Y000672D01*
X023261Y000422D01*
X023173Y000385D01*
X021952Y000385D01*
X021864Y000422D01*
X021797Y000489D01*
X021585Y000701D01*
X021492Y000739D01*
X021364Y000867D01*
X021356Y000886D01*
X021349Y000867D01*
X021220Y000739D01*
X021053Y000670D01*
X020872Y000670D01*
X020705Y000739D01*
X020577Y000867D01*
X020569Y000886D01*
X020561Y000867D01*
X020433Y000739D01*
X020266Y000670D01*
X020085Y000670D01*
X019917Y000739D01*
X019789Y000867D01*
X019781Y000886D01*
X019774Y000867D01*
X019646Y000739D01*
X019478Y000670D01*
X019297Y000670D01*
X019130Y000739D01*
X019002Y000867D01*
X018933Y001034D01*
X018933Y001180D01*
X018912Y001180D01*
X018876Y001161D01*
X018825Y001178D01*
X018103Y001163D01*
X017916Y000975D01*
X017584Y000975D01*
X017350Y001209D01*
X017350Y001541D01*
X017559Y001750D01*
X017350Y001959D01*
X017350Y002291D01*
X017510Y002451D01*
X017510Y003298D01*
X017547Y003386D01*
X017671Y003510D01*
X013474Y003510D01*
X013136Y003172D01*
X013048Y003135D01*
X010468Y003135D01*
X010681Y002922D01*
X010815Y002599D01*
X010815Y002249D01*
X010681Y001926D01*
X010433Y001679D01*
X010110Y001545D01*
X009760Y001545D01*
X009437Y001679D01*
X009189Y001926D01*
X009055Y002249D01*
X009055Y002599D01*
X009189Y002922D01*
X009402Y003135D01*
X008865Y003135D01*
X008865Y002521D01*
X008828Y002433D01*
X008761Y002366D01*
X008410Y002015D01*
X008322Y001978D01*
X007055Y001978D01*
X006966Y002015D01*
X006899Y002082D01*
X006705Y002276D01*
X006668Y002364D01*
X006668Y003742D01*
X006617Y003793D01*
X006653Y003708D01*
X006653Y001772D01*
X006616Y001684D01*
X006549Y001616D01*
X006230Y001297D01*
X006258Y001229D01*
X006258Y001013D01*
X006175Y000813D01*
X006022Y000660D01*
X005822Y000577D01*
X005606Y000577D01*
X005406Y000660D01*
X005253Y000813D01*
X005170Y001013D01*
X005170Y001229D01*
X005253Y001429D01*
X005406Y001582D01*
X005606Y001665D01*
X005822Y001665D01*
X005890Y001637D01*
X006173Y001919D01*
X006173Y002779D01*
X006022Y002629D01*
X005822Y002546D01*
X005606Y002546D01*
X005406Y002629D01*
X005253Y002782D01*
X005170Y002981D01*
X005170Y003198D01*
X005253Y003398D01*
X005406Y003551D01*
X005606Y003633D01*
X005822Y003633D01*
X006022Y003551D01*
X006173Y003400D01*
X006173Y003561D01*
X006121Y003613D01*
X006054Y003680D01*
X006017Y003768D01*
X006017Y005076D01*
X005916Y004975D01*
X005584Y004975D01*
X005350Y005209D01*
X005350Y005541D01*
X005584Y005775D01*
X005916Y005775D01*
X006017Y005674D01*
X006017Y005937D01*
X005982Y005902D01*
X005832Y005840D01*
X005668Y005840D01*
X005518Y005902D01*
X005402Y006018D01*
X005340Y006168D01*
X005340Y006332D01*
X005402Y006482D01*
X005518Y006598D01*
X005668Y006660D01*
X005832Y006660D01*
X005982Y006598D01*
X006017Y006563D01*
X006017Y007053D01*
X006054Y007141D01*
X006509Y007597D01*
X006509Y007746D01*
X006510Y007748D01*
X006510Y008910D01*
X006402Y009018D01*
X006340Y009168D01*
X006340Y009332D01*
X006402Y009482D01*
X006518Y009598D01*
X006668Y009660D01*
X006832Y009660D01*
X006982Y009598D01*
X007098Y009482D01*
X007160Y009332D01*
X007160Y009168D01*
X007098Y009018D01*
X006990Y008910D01*
X006990Y007652D01*
X006989Y007650D01*
X006989Y007450D01*
X006953Y007361D01*
X006885Y007294D01*
X006497Y006906D01*
X006497Y006577D01*
X006518Y006598D01*
X006668Y006660D01*
X006832Y006660D01*
X006982Y006598D01*
X007070Y006510D01*
X007209Y006650D01*
X007541Y006650D01*
X007775Y006416D01*
X007775Y006084D01*
X007541Y005850D01*
X007209Y005850D01*
X007070Y005990D01*
X006982Y005902D01*
X006832Y005840D01*
X006668Y005840D01*
X006518Y005902D01*
X006497Y005923D01*
X006497Y005688D01*
X006584Y005775D01*
X006916Y005775D01*
X007125Y005566D01*
X007334Y005775D01*
X007666Y005775D01*
X007875Y005566D01*
X008084Y005775D01*
X008416Y005775D01*
X008650Y005541D01*
X008650Y005341D01*
X008834Y005525D01*
X009166Y005525D01*
X009400Y005291D01*
X009400Y004959D01*
X009191Y004750D01*
X009400Y004541D01*
X009400Y004209D01*
X009306Y004115D01*
X009694Y004115D01*
X009600Y004209D01*
X009600Y004541D01*
X009809Y004750D01*
X009600Y004959D01*
X009600Y005291D01*
X009834Y005525D01*
X010061Y005525D01*
X010260Y005724D01*
X010260Y005907D01*
X010225Y005882D01*
X010165Y005852D01*
X010101Y005831D01*
X010034Y005820D01*
X010000Y005820D01*
X010000Y006250D01*
X010000Y006250D01*
X010000Y006680D01*
X010034Y006680D01*
X010101Y006669D01*
X010165Y006648D01*
X010225Y006618D01*
X010260Y006593D01*
X010260Y008423D01*
X010297Y008511D01*
X010364Y008578D01*
X010614Y008828D01*
X010702Y008865D01*
X010858Y008865D01*
X010768Y008902D01*
X010652Y009018D01*
X010590Y009168D01*
X010590Y009332D01*
X010652Y009482D01*
X010768Y009598D01*
X010817Y009618D01*
X010600Y009834D01*
X010600Y010166D01*
X010694Y010260D01*
X010474Y010260D01*
X010390Y010176D01*
X010400Y010166D01*
X010400Y009834D01*
X010183Y009618D01*
X010232Y009598D01*
X010348Y009482D01*
X010410Y009332D01*
X010410Y009168D01*
X010348Y009018D01*
X010232Y008902D01*
X010082Y008840D01*
X009918Y008840D01*
X009768Y008902D01*
X009652Y009018D01*
X009590Y009168D01*
X009590Y009332D01*
X009652Y009482D01*
X009768Y009598D01*
X009817Y009618D01*
X009600Y009834D01*
X009600Y010166D01*
X009834Y010400D01*
X009936Y010400D01*
X010116Y010580D01*
X010000Y010580D01*
X010000Y011000D01*
X010000Y011000D01*
X010000Y011420D01*
X010174Y011420D01*
X010420Y011174D01*
X010420Y011000D01*
X010000Y011000D01*
X010000Y011000D01*
X010000Y011000D01*
X010000Y011000D01*
X009580Y011000D01*
X009580Y011174D01*
X009826Y011420D01*
X010000Y011420D01*
X010000Y011000D01*
X010420Y011000D01*
X010420Y010826D01*
X010334Y010740D01*
X010666Y010740D01*
X010580Y010826D01*
X010580Y011000D01*
X011000Y011000D01*
X011000Y011000D01*
X011000Y011420D01*
X011174Y011420D01*
X011420Y011174D01*
X011420Y011000D01*
X011000Y011000D01*
X011000Y011000D01*
X011000Y011000D01*
X011000Y011420D01*
X010826Y011420D01*
X010580Y011174D01*
X010580Y011000D01*
X011000Y011000D01*
X011420Y011000D01*
X011420Y010826D01*
X011334Y010740D01*
X011401Y010740D01*
X011600Y010939D01*
X011600Y011166D01*
X011834Y011400D01*
X012166Y011400D01*
X012400Y011166D01*
X012400Y010834D01*
X012166Y010600D01*
X011939Y010600D01*
X011636Y010297D01*
X011548Y010260D01*
X011306Y010260D01*
X011400Y010166D01*
X011400Y009834D01*
X011183Y009618D01*
X011232Y009598D01*
X011348Y009482D01*
X011410Y009332D01*
X011410Y009168D01*
X011348Y009018D01*
X011232Y008902D01*
X011142Y008865D01*
X011760Y008865D01*
X011760Y008910D01*
X011652Y009018D01*
X011590Y009168D01*
X011590Y009332D01*
X011652Y009482D01*
X011768Y009598D01*
X011817Y009618D01*
X011600Y009834D01*
X011600Y010166D01*
X011834Y010400D01*
X012166Y010400D01*
X012400Y010166D01*
X012400Y009834D01*
X012183Y009618D01*
X012232Y009598D01*
X012348Y009482D01*
X012410Y009332D01*
X012410Y009168D01*
X012348Y009018D01*
X012240Y008910D01*
X012240Y008702D01*
X012203Y008614D01*
X012078Y008489D01*
X012011Y008422D01*
X011923Y008385D01*
X010849Y008385D01*
X010740Y008276D01*
X010740Y006570D01*
X010768Y006598D01*
X010918Y006660D01*
X011082Y006660D01*
X011232Y006598D01*
X011348Y006482D01*
X011410Y006332D01*
X011410Y006168D01*
X011348Y006018D01*
X011232Y005902D01*
X011082Y005840D01*
X010918Y005840D01*
X010768Y005902D01*
X010740Y005930D01*
X010740Y005577D01*
X010703Y005489D01*
X010400Y005186D01*
X010400Y004959D01*
X010191Y004750D01*
X010400Y004541D01*
X010400Y004218D01*
X010452Y004240D01*
X011666Y004240D01*
X011580Y004326D01*
X011580Y004500D01*
X012000Y004500D01*
X012000Y004500D01*
X012000Y004920D01*
X012174Y004920D01*
X012420Y004674D01*
X012420Y004500D01*
X012000Y004500D01*
X012000Y004500D01*
X012000Y004500D01*
X012000Y004920D01*
X011826Y004920D01*
X011580Y004674D01*
X011580Y004500D01*
X012000Y004500D01*
X012420Y004500D01*
X012420Y004326D01*
X012334Y004240D01*
X012526Y004240D01*
X012635Y004349D01*
X012635Y010384D01*
X012587Y010432D01*
X012535Y010557D01*
X012535Y010693D01*
X012587Y010818D01*
X012682Y010913D01*
X012807Y010965D01*
X012943Y010965D01*
X013068Y010913D01*
X013080Y010901D01*
X013080Y011000D01*
X013500Y011000D01*
X013500Y011000D01*
X013500Y011420D01*
X013674Y011420D01*
X013920Y011174D01*
X013920Y011000D01*
X013500Y011000D01*
X013500Y011000D01*
X013500Y011000D01*
X013500Y011420D01*
X013326Y011420D01*
X013080Y011174D01*
X013080Y011000D01*
X013500Y011000D01*
X013920Y011000D01*
X013920Y010826D01*
X013674Y010580D01*
X013500Y010580D01*
X013500Y011000D01*
X013500Y011000D01*
X013500Y010580D01*
X013326Y010580D01*
X013215Y010691D01*
X013215Y010557D01*
X013163Y010432D01*
X013115Y010384D01*
X013115Y010181D01*
X013334Y010400D01*
X013666Y010400D01*
X013900Y010166D01*
X013900Y009834D01*
X013683Y009618D01*
X013732Y009598D01*
X013848Y009482D01*
X013910Y009332D01*
X013910Y009168D01*
X013848Y009018D01*
X013732Y008902D01*
X013582Y008840D01*
X013418Y008840D01*
X013268Y008902D01*
X013152Y009018D01*
X013115Y009108D01*
X013115Y006392D01*
X013152Y006482D01*
X013268Y006598D01*
X013418Y006660D01*
X013582Y006660D01*
X013732Y006598D01*
X013848Y006482D01*
X013910Y006332D01*
X013910Y006168D01*
X013848Y006018D01*
X013732Y005902D01*
X013582Y005840D01*
X013418Y005840D01*
X013268Y005902D01*
X013152Y006018D01*
X013115Y006108D01*
X013115Y005431D01*
X013334Y005650D01*
X013666Y005650D01*
X013900Y005416D01*
X013900Y005084D01*
X013691Y004875D01*
X013900Y004666D01*
X013900Y004334D01*
X013806Y004240D01*
X014194Y004240D01*
X014100Y004334D01*
X014100Y004666D01*
X014309Y004875D01*
X014100Y005084D01*
X014100Y005416D01*
X014334Y005650D01*
X014561Y005650D01*
X014760Y005849D01*
X014760Y005907D01*
X014725Y005882D01*
X014665Y005852D01*
X014601Y005831D01*
X014534Y005820D01*
X014500Y005820D01*
X014500Y006250D01*
X014500Y006250D01*
X014500Y006680D01*
X014534Y006680D01*
X014601Y006669D01*
X014665Y006648D01*
X014725Y006618D01*
X014760Y006593D01*
X014760Y008423D01*
X014797Y008511D01*
X014864Y008578D01*
X015114Y008828D01*
X015202Y008865D01*
X015358Y008865D01*
X015268Y008902D01*
X015152Y009018D01*
X015090Y009168D01*
X015090Y009332D01*
X015152Y009482D01*
X015268Y009598D01*
X015317Y009618D01*
X015100Y009834D01*
X015100Y010166D01*
X015194Y010260D01*
X014849Y010260D01*
X014828Y010238D01*
X014900Y010166D01*
X014900Y009834D01*
X014683Y009618D01*
X014732Y009598D01*
X014848Y009482D01*
X014910Y009332D01*
X014910Y009168D01*
X014848Y009018D01*
X014732Y008902D01*
X014582Y008840D01*
X014418Y008840D01*
X014268Y008902D01*
X014152Y009018D01*
X014090Y009168D01*
X014090Y009332D01*
X014152Y009482D01*
X014268Y009598D01*
X014317Y009618D01*
X014100Y009834D01*
X014100Y010166D01*
X014280Y010345D01*
X014297Y010386D01*
X014491Y010580D01*
X014326Y010580D01*
X014080Y010826D01*
X014080Y011000D01*
X014500Y011000D01*
X014500Y011000D01*
X014500Y011420D01*
X014674Y011420D01*
X014920Y011174D01*
X014920Y011000D01*
X014500Y011000D01*
X014500Y011000D01*
X014500Y011000D01*
X014500Y011420D01*
X014326Y011420D01*
X014080Y011174D01*
X014080Y011000D01*
X014500Y011000D01*
X014920Y011000D01*
X014920Y010826D01*
X014834Y010740D01*
X015166Y010740D01*
X015080Y010826D01*
X015080Y011000D01*
X015500Y011000D01*
X015500Y011000D01*
X015500Y011420D01*
X015674Y011420D01*
X015920Y011174D01*
X015920Y011000D01*
X015500Y011000D01*
X015500Y011000D01*
X015500Y011000D01*
X015500Y011420D01*
X015326Y011420D01*
X015080Y011174D01*
X015080Y011000D01*
X015500Y011000D01*
X015920Y011000D01*
X015920Y010826D01*
X015834Y010740D01*
X016194Y010740D01*
X016100Y010834D01*
X016100Y011166D01*
X016334Y011400D01*
X016666Y011400D01*
X016900Y011166D01*
X016900Y010834D01*
X016740Y010674D01*
X016740Y010577D01*
X016703Y010489D01*
X016636Y010422D01*
X016614Y010400D01*
X016666Y010400D01*
X016900Y010166D01*
X016900Y009834D01*
X016683Y009618D01*
X016732Y009598D01*
X016848Y009482D01*
X016910Y009332D01*
X016910Y009168D01*
X016848Y009018D01*
X016740Y008910D01*
X016740Y008702D01*
X016703Y008614D01*
X016578Y008489D01*
X016511Y008422D01*
X016423Y008385D01*
X015349Y008385D01*
X015240Y008276D01*
X015240Y006570D01*
X015268Y006598D01*
X015418Y006660D01*
X015582Y006660D01*
X015732Y006598D01*
X015848Y006482D01*
X015910Y006332D01*
X015910Y006168D01*
X015848Y006018D01*
X015732Y005902D01*
X015582Y005840D01*
X015418Y005840D01*
X015268Y005902D01*
X015240Y005930D01*
X015240Y005702D01*
X015203Y005614D01*
X014900Y005311D01*
X014900Y005084D01*
X014691Y004875D01*
X014900Y004666D01*
X014900Y004334D01*
X014806Y004240D01*
X016166Y004240D01*
X016080Y004326D01*
X016080Y004500D01*
X016500Y004500D01*
X016500Y004500D01*
X016500Y004920D01*
X016674Y004920D01*
X016920Y004674D01*
X016920Y004500D01*
X016500Y004500D01*
X016500Y004500D01*
X016500Y004500D01*
X016500Y004920D01*
X016326Y004920D01*
X016080Y004674D01*
X016080Y004500D01*
X016500Y004500D01*
X016920Y004500D01*
X016920Y004326D01*
X016834Y004240D01*
X017819Y004240D01*
X017600Y004459D01*
X017600Y004791D01*
X017809Y005000D01*
X017600Y005209D01*
X017600Y005541D01*
X017834Y005775D01*
X018166Y005775D01*
X018400Y005541D01*
X018400Y005209D01*
X018191Y005000D01*
X018400Y004791D01*
X018400Y004459D01*
X018181Y004240D01*
X018819Y004240D01*
X018600Y004459D01*
X018600Y004791D01*
X018809Y005000D01*
X018600Y005209D01*
X018600Y005541D01*
X018834Y005775D01*
X019166Y005775D01*
X019201Y005740D01*
X019260Y005740D01*
X019260Y005907D01*
X019225Y005882D01*
X019165Y005852D01*
X019101Y005831D01*
X019034Y005820D01*
X019000Y005820D01*
X019000Y006250D01*
X019000Y006250D01*
X019000Y006680D01*
X019034Y006680D01*
X019101Y006669D01*
X019165Y006648D01*
X019225Y006618D01*
X019260Y006593D01*
X019260Y008423D01*
X019297Y008511D01*
X019364Y008578D01*
X019364Y008578D01*
X019547Y008761D01*
X019547Y008761D01*
X019614Y008828D01*
X019702Y008865D01*
X019858Y008865D01*
X019768Y008902D01*
X019652Y009018D01*
X019590Y009168D01*
X019590Y009332D01*
X019652Y009482D01*
X019768Y009598D01*
X019817Y009618D01*
X019600Y009834D01*
X019600Y010166D01*
X019694Y010260D01*
X019349Y010260D01*
X019328Y010238D01*
X019400Y010166D01*
X019400Y009834D01*
X019183Y009618D01*
X019232Y009598D01*
X019348Y009482D01*
X019410Y009332D01*
X019410Y009168D01*
X019348Y009018D01*
X019232Y008902D01*
X019082Y008840D01*
X018918Y008840D01*
X018768Y008902D01*
X018652Y009018D01*
X018590Y009168D01*
X018590Y009332D01*
X018652Y009482D01*
X018768Y009598D01*
X018817Y009618D01*
X018600Y009834D01*
X018600Y010166D01*
X018780Y010345D01*
X018797Y010386D01*
X018991Y010580D01*
X018826Y010580D01*
X018580Y010826D01*
X018580Y011000D01*
X019000Y011000D01*
X019000Y011000D01*
X019000Y011420D01*
X019174Y011420D01*
X019420Y011174D01*
X019420Y011000D01*
X019000Y011000D01*
X019000Y011000D01*
X019000Y011000D01*
X019000Y011420D01*
X018826Y011420D01*
X018580Y011174D01*
X018580Y011000D01*
X019000Y011000D01*
X019420Y011000D01*
X019420Y010826D01*
X019334Y010740D01*
X019666Y010740D01*
X019580Y010826D01*
X019580Y011000D01*
X020000Y011000D01*
X020000Y011000D01*
X020000Y011420D01*
X020174Y011420D01*
X020420Y011174D01*
X020420Y011000D01*
X020000Y011000D01*
X020000Y011000D01*
X020000Y011000D01*
X020000Y011420D01*
X019826Y011420D01*
X019580Y011174D01*
X019580Y011000D01*
X020000Y011000D01*
X020420Y011000D01*
X020420Y010826D01*
X020334Y010740D01*
X020651Y010740D01*
X020672Y010762D01*
X020600Y010834D01*
X020600Y011166D01*
X020834Y011400D01*
X021166Y011400D01*
X021400Y011166D01*
X021400Y010834D01*
X021220Y010655D01*
X021203Y010614D01*
X021136Y010547D01*
X020989Y010400D01*
X021166Y010400D01*
X021400Y010166D01*
X021400Y009834D01*
X021183Y009618D01*
X021232Y009598D01*
X021348Y009482D01*
X021410Y009332D01*
X021410Y009168D01*
X021348Y009018D01*
X021240Y008910D01*
X021240Y008827D01*
X021203Y008739D01*
X020953Y008489D01*
X020886Y008422D01*
X020798Y008385D01*
X019849Y008385D01*
X019740Y008276D01*
X019740Y006570D01*
X019768Y006598D01*
X019918Y006660D01*
X020082Y006660D01*
X020232Y006598D01*
X020348Y006482D01*
X020410Y006332D01*
X020410Y006168D01*
X020348Y006018D01*
X020232Y005902D01*
X020082Y005840D01*
X019918Y005840D01*
X019768Y005902D01*
X019740Y005930D01*
X019740Y005577D01*
X019703Y005489D01*
X019578Y005364D01*
X019578Y005364D01*
X019511Y005297D01*
X019423Y005260D01*
X019400Y005260D01*
X019400Y005209D01*
X019191Y005000D01*
X019400Y004791D01*
X019400Y004459D01*
X019181Y004240D01*
X020666Y004240D01*
X020580Y004326D01*
X020580Y004500D01*
X021000Y004500D01*
X021000Y004500D01*
X021000Y004920D01*
X021174Y004920D01*
X021420Y004674D01*
X021420Y004500D01*
X021000Y004500D01*
X021000Y004500D01*
X021000Y004500D01*
X021000Y004920D01*
X020826Y004920D01*
X020580Y004674D01*
X020580Y004500D01*
X021000Y004500D01*
X021420Y004500D01*
X021420Y004326D01*
X021334Y004240D01*
X022651Y004240D01*
X022760Y004349D01*
X022760Y004444D01*
X022666Y004350D01*
X022334Y004350D01*
X022100Y004584D01*
X022100Y004916D01*
X022309Y005125D01*
X022100Y005334D01*
X022100Y005666D01*
X022317Y005882D01*
X022268Y005902D01*
X022152Y006018D01*
X022090Y006168D01*
X022090Y006332D01*
X022152Y006482D01*
X022268Y006598D01*
X022418Y006660D01*
X022582Y006660D01*
X022732Y006598D01*
X022760Y006570D01*
X022760Y008930D01*
X022732Y008902D01*
X022582Y008840D01*
X022418Y008840D01*
X022268Y008902D01*
X022152Y009018D01*
X022090Y009168D01*
X022090Y009332D01*
X022152Y009482D01*
X022268Y009598D01*
X022317Y009618D01*
X022100Y009834D01*
X022100Y010166D01*
X022334Y010400D01*
X022666Y010400D01*
X022760Y010306D01*
X022760Y010666D01*
X022674Y010580D01*
X022500Y010580D01*
X022500Y011000D01*
X022500Y011000D01*
X022500Y011420D01*
X022674Y011420D01*
X022760Y011334D01*
X022760Y011423D01*
X022797Y011511D01*
X023047Y011761D01*
X023114Y011828D01*
X023202Y011865D01*
X024010Y011865D01*
X024010Y012799D01*
X023865Y012944D01*
X023865Y012452D01*
X023828Y012364D01*
X023761Y012297D01*
X023511Y012047D01*
X023423Y012010D01*
X017952Y012010D01*
X017864Y012047D01*
X017797Y012114D01*
X017651Y012260D01*
X008724Y012260D01*
X008615Y012151D01*
X008615Y011209D01*
X008826Y011420D01*
X009000Y011420D01*
X009000Y011000D01*
X009000Y011000D01*
X009420Y011000D01*
X009420Y011174D01*
X009174Y011420D01*
X009000Y011420D01*
X009000Y011000D01*
X009000Y011000D01*
X009420Y011000D01*
X009420Y010826D01*
X009174Y010580D01*
X009000Y010580D01*
X009000Y011000D01*
X009000Y011000D01*
X009000Y010580D01*
X008826Y010580D01*
X008615Y010791D01*
X008615Y010259D01*
X008618Y010219D01*
X008615Y010211D01*
X008615Y010202D01*
X008600Y010166D01*
X008588Y010129D01*
X008582Y010122D01*
X008578Y010114D01*
X008551Y010086D01*
X008525Y010057D01*
X008517Y010053D01*
X008511Y010047D01*
X008475Y010032D01*
X008267Y009928D01*
X008261Y009922D01*
X008225Y009907D01*
X008190Y009889D01*
X008181Y009888D01*
X008173Y009885D01*
X008134Y009885D01*
X008094Y009882D01*
X008086Y009885D01*
X007826Y009885D01*
X007666Y009725D01*
X007334Y009725D01*
X007100Y009959D01*
X007100Y010291D01*
X007334Y010525D01*
X007666Y010525D01*
X007826Y010365D01*
X008068Y010365D01*
X008135Y010398D01*
X008135Y011046D01*
X008011Y010922D01*
X007923Y010885D01*
X007826Y010885D01*
X007666Y010725D01*
X007334Y010725D01*
X007100Y010959D01*
X007100Y011291D01*
X007334Y011525D01*
X007666Y011525D01*
X007801Y011390D01*
X007885Y011474D01*
X007885Y011819D01*
X007666Y011600D01*
X007334Y011600D01*
X007100Y011834D01*
X007100Y012166D01*
X007334Y012400D01*
X007666Y012400D01*
X007885Y012181D01*
X007885Y012819D01*
X007666Y012600D01*
X007334Y012600D01*
X007100Y012834D01*
X007100Y013166D01*
X007334Y013400D01*
X007666Y013400D01*
X007885Y013181D01*
X007885Y013423D01*
X007922Y013511D01*
X008239Y013828D01*
X008327Y013865D01*
X020313Y013865D01*
X020402Y013828D01*
X020669Y013561D01*
X020678Y013565D01*
X020853Y013565D01*
X021015Y013498D01*
X021139Y013374D01*
X021206Y013213D01*
X021206Y013037D01*
X021139Y012876D01*
X021015Y012752D01*
X020853Y012685D01*
X020678Y012685D01*
X020517Y012752D01*
X020393Y012876D01*
X020326Y013037D01*
X020326Y013213D01*
X020330Y013222D01*
X020166Y013385D01*
X017222Y013385D01*
X017232Y013374D01*
X017299Y013213D01*
X017299Y013037D01*
X017232Y012876D01*
X017108Y012752D01*
X017080Y012740D01*
X017798Y012740D01*
X017850Y012718D01*
X017850Y013041D01*
X018084Y013275D01*
X018416Y013275D01*
X018650Y013041D01*
X018650Y012709D01*
X018431Y012490D01*
X019041Y012490D01*
X018830Y012701D01*
X018830Y012875D01*
X019250Y012875D01*
X019250Y012875D01*
X019250Y013295D01*
X019424Y013295D01*
X019670Y013049D01*
X019670Y012875D01*
X019250Y012875D01*
X019250Y012875D01*
X019250Y012875D01*
X019250Y013295D01*
X019076Y013295D01*
X018830Y013049D01*
X018830Y012875D01*
X019250Y012875D01*
X019670Y012875D01*
X019670Y012701D01*
X019459Y012490D01*
X023276Y012490D01*
X023385Y012599D01*
X023385Y013548D01*
X023422Y013636D01*
X023672Y013886D01*
X023739Y013953D01*
X023827Y013990D01*
X031048Y013990D01*
X031136Y013953D01*
X031386Y013703D01*
X031453Y013636D01*
X031490Y013548D01*
X031490Y013451D01*
X031650Y013291D01*
X031650Y012959D01*
X031416Y012725D01*
X031084Y012725D01*
X030850Y012959D01*
X030850Y013291D01*
X030985Y013426D01*
X030901Y013510D01*
X030459Y013510D01*
X030670Y013299D01*
X030670Y013125D01*
X030250Y013125D01*
X030250Y013125D01*
X030670Y013125D01*
X030670Y012951D01*
X030424Y012705D01*
X030250Y012705D01*
X030250Y013125D01*
X030250Y013125D01*
X030250Y013125D01*
X029830Y013125D01*
X029830Y013299D01*
X030041Y013510D01*
X028987Y013510D01*
X029034Y013476D01*
X029085Y013425D01*
X029128Y013366D01*
X029161Y013302D01*
X029183Y013233D01*
X029194Y013161D01*
X029194Y013134D01*
X028743Y013134D01*
X028743Y013116D01*
X028743Y012665D01*
X028770Y012665D01*
X028842Y012676D01*
X028911Y012699D01*
X028975Y012732D01*
X029034Y012774D01*
X029085Y012825D01*
X029128Y012884D01*
X029161Y012948D01*
X029183Y013017D01*
X029194Y013089D01*
X029194Y013116D01*
X028743Y013116D01*
X028726Y013116D01*
X028726Y012665D01*
X028698Y012665D01*
X028627Y012676D01*
X028558Y012699D01*
X028493Y012732D01*
X028435Y012774D01*
X028383Y012825D01*
X028341Y012884D01*
X028308Y012948D01*
X028286Y013017D01*
X028274Y013089D01*
X028274Y013116D01*
X028726Y013116D01*
X028726Y013134D01*
X028274Y013134D01*
X028274Y013161D01*
X028286Y013233D01*
X028308Y013302D01*
X028341Y013366D01*
X028383Y013425D01*
X028435Y013476D01*
X028482Y013510D01*
X026986Y013510D01*
X027015Y013498D01*
X027139Y013374D01*
X027206Y013213D01*
X027206Y013037D01*
X027139Y012876D01*
X027015Y012752D01*
X026853Y012685D01*
X026678Y012685D01*
X026517Y012752D01*
X026393Y012876D01*
X026326Y013037D01*
X026326Y013213D01*
X026393Y013374D01*
X026517Y013498D01*
X026545Y013510D01*
X025431Y013510D01*
X025650Y013291D01*
X025650Y012959D01*
X025416Y012725D01*
X025084Y012725D01*
X024850Y012959D01*
X024850Y013291D01*
X025069Y013510D01*
X024431Y013510D01*
X024650Y013291D01*
X024650Y012959D01*
X024490Y012799D01*
X024490Y011702D01*
X024453Y011614D01*
X024261Y011422D01*
X024173Y011385D01*
X023709Y011385D01*
X023920Y011174D01*
X023920Y011000D01*
X023500Y011000D01*
X023500Y011000D01*
X023920Y011000D01*
X023920Y010826D01*
X023834Y010740D01*
X024166Y010740D01*
X024080Y010826D01*
X024080Y011000D01*
X024500Y011000D01*
X024500Y011000D01*
X024500Y011420D01*
X024674Y011420D01*
X024920Y011174D01*
X024920Y011000D01*
X024500Y011000D01*
X024500Y011000D01*
X024500Y011000D01*
X024500Y011420D01*
X024326Y011420D01*
X024080Y011174D01*
X024080Y011000D01*
X024500Y011000D01*
X024920Y011000D01*
X024920Y010826D01*
X024834Y010740D01*
X025151Y010740D01*
X025172Y010762D01*
X025100Y010834D01*
X025100Y011166D01*
X025334Y011400D01*
X025666Y011400D01*
X025900Y011166D01*
X025900Y010834D01*
X025720Y010655D01*
X025703Y010614D01*
X025636Y010547D01*
X025489Y010400D01*
X025666Y010400D01*
X025900Y010166D01*
X025900Y009834D01*
X025683Y009618D01*
X025732Y009598D01*
X025848Y009482D01*
X025910Y009332D01*
X025910Y009168D01*
X025848Y009018D01*
X025740Y008910D01*
X025740Y008827D01*
X025703Y008739D01*
X025453Y008489D01*
X025386Y008422D01*
X025298Y008385D01*
X024349Y008385D01*
X024240Y008276D01*
X024240Y006570D01*
X024268Y006598D01*
X024418Y006660D01*
X024582Y006660D01*
X024732Y006598D01*
X024848Y006482D01*
X024910Y006332D01*
X024910Y006168D01*
X024848Y006018D01*
X024732Y005902D01*
X024582Y005840D01*
X024418Y005840D01*
X024268Y005902D01*
X024240Y005930D01*
X024240Y005577D01*
X024203Y005489D01*
X024078Y005364D01*
X024011Y005297D01*
X023923Y005260D01*
X023826Y005260D01*
X023691Y005125D01*
X023900Y004916D01*
X023900Y004584D01*
X023706Y004390D01*
X025080Y004390D01*
X025080Y004500D01*
X025500Y004500D01*
X025500Y004500D01*
X025500Y004920D01*
X025674Y004920D01*
X025920Y004674D01*
X025920Y004500D01*
X025500Y004500D01*
X025500Y004500D01*
X025500Y004500D01*
X025500Y004920D01*
X025326Y004920D01*
X025080Y004674D01*
X025080Y004500D01*
X025500Y004500D01*
X025920Y004500D01*
X025920Y004326D01*
X025734Y004140D01*
X029766Y004140D01*
X029580Y004326D01*
X029580Y004500D01*
X030000Y004500D01*
X030000Y004500D01*
X030000Y004920D01*
X030174Y004920D01*
X030420Y004674D01*
X030420Y004500D01*
X030000Y004500D01*
X030000Y004500D01*
X030000Y004500D01*
X030000Y004920D01*
X029826Y004920D01*
X029580Y004674D01*
X029580Y004500D01*
X030000Y004500D01*
X030420Y004500D01*
X030420Y004326D01*
X030234Y004140D01*
X034266Y004140D01*
X034080Y004326D01*
X034080Y004500D01*
X034500Y004500D01*
X034500Y004500D01*
X034500Y004920D01*
X034674Y004920D01*
X034920Y004674D01*
X034920Y004500D01*
X034500Y004500D01*
X034500Y004500D01*
X034500Y004500D01*
X034500Y004920D01*
X034326Y004920D01*
X034080Y004674D01*
X034080Y004500D01*
X034500Y004500D01*
X034920Y004500D01*
X034920Y004326D01*
X034734Y004140D01*
X034901Y004140D01*
X035260Y004499D01*
X035260Y010798D01*
X035297Y010886D01*
X035510Y011099D01*
X035510Y011798D01*
X035547Y011886D01*
X035850Y012189D01*
X035850Y012416D01*
X036084Y012650D01*
X036416Y012650D01*
X036650Y012416D01*
X036650Y012084D01*
X036416Y011850D01*
X036189Y011850D01*
X035990Y011651D01*
X035990Y010952D01*
X035953Y010864D01*
X035886Y010797D01*
X035740Y010651D01*
X035740Y009412D01*
X035803Y009475D01*
X036197Y009475D01*
X036475Y009197D01*
X036475Y008803D01*
X036197Y008525D01*
X035803Y008525D01*
X035740Y008588D01*
X035740Y006906D01*
X035906Y006975D01*
X036094Y006975D01*
X036269Y006903D01*
X036403Y006769D01*
X036475Y006594D01*
X036475Y006406D01*
X036403Y006231D01*
X036269Y006097D01*
X036094Y006025D01*
X035906Y006025D01*
X035740Y006094D01*
X035740Y004352D01*
X035703Y004264D01*
X035136Y003697D01*
X035048Y003660D01*
X029446Y003660D01*
X029491Y003615D01*
X034423Y003615D01*
X034511Y003578D01*
X034574Y003515D01*
X034584Y003525D01*
X034916Y003525D01*
X035150Y003291D01*
X035150Y002959D01*
X034990Y002799D01*
X034990Y002701D01*
X035150Y002541D01*
X035150Y002364D01*
X035364Y002578D01*
X035405Y002595D01*
X035559Y002750D01*
X035350Y002959D01*
X035350Y003291D01*
X035584Y003525D01*
X035916Y003525D01*
X036150Y003291D01*
X036150Y002959D01*
X035941Y002750D01*
X036150Y002541D01*
X036150Y002209D01*
X035941Y002000D01*
X036150Y001791D01*
X036150Y001459D01*
X035941Y001250D01*
X036150Y001041D01*
X036150Y000709D01*
X036061Y000620D01*
X036202Y000620D01*
X036222Y000644D01*
X036222Y000775D01*
X036274Y000900D01*
X036370Y000996D01*
X036495Y001048D01*
X036630Y001048D01*
X036755Y000996D01*
X036850Y000900D01*
X036902Y000775D01*
X036902Y000640D01*
X036850Y000515D01*
X036755Y000419D01*
X036630Y000368D01*
X036564Y000368D01*
X036525Y000320D01*
X036525Y000309D01*
X036467Y000251D01*
X036449Y000230D01*
X039395Y000230D01*
X039395Y000992D01*
X039312Y000791D01*
X039084Y000563D01*
X038786Y000440D01*
X038464Y000440D01*
X038166Y000563D01*
X037938Y000791D01*
X037815Y001089D01*
X037815Y001411D01*
X037938Y001709D01*
X038166Y001937D01*
X038464Y002060D01*
X038786Y002060D01*
X039084Y001937D01*
X039312Y001709D01*
X039395Y001508D01*
X039395Y017395D01*
X004875Y017395D01*
X004693Y017384D01*
X004340Y017299D01*
X004017Y017134D01*
X003741Y016898D01*
X003529Y016603D01*
X003391Y016268D01*
X003361Y016129D01*
X003371Y016086D01*
X003345Y016044D01*
X003338Y015996D01*
X003297Y015966D01*
X003271Y015924D01*
X003224Y015912D01*
X003184Y015883D01*
X003135Y015891D01*
X003086Y015879D01*
X003044Y015905D01*
X002996Y015912D01*
X002970Y015948D01*
X002816Y016030D01*
X002408Y016162D01*
X001981Y016196D01*
X001558Y016129D01*
X001162Y015965D01*
X000815Y015713D01*
X000537Y015388D01*
X000343Y015006D01*
X000243Y014589D01*
X000230Y014375D01*
X000230Y001508D01*
X000313Y001709D01*
X000541Y001937D01*
X000839Y002060D01*
X001161Y002060D01*
X001459Y001937D01*
X001687Y001709D01*
X001810Y001411D01*
X001810Y001089D01*
X001687Y000791D01*
X001459Y000563D01*
X001161Y000440D01*
X000839Y000440D01*
X000541Y000563D01*
X000313Y000791D01*
X000230Y000992D01*
X000230Y000951D02*
X000247Y000951D01*
X000230Y000793D02*
X000313Y000793D01*
X000230Y000634D02*
X000470Y000634D01*
X000230Y000476D02*
X000753Y000476D01*
X001247Y000476D02*
X012935Y000476D01*
X012922Y000489D02*
X012989Y000422D01*
X013077Y000385D01*
X014048Y000385D01*
X014136Y000422D01*
X014384Y000670D01*
X014415Y000670D01*
X014583Y000739D01*
X014711Y000867D01*
X014719Y000886D01*
X014726Y000867D01*
X014854Y000739D01*
X015022Y000670D01*
X015203Y000670D01*
X015370Y000739D01*
X015498Y000867D01*
X015567Y001034D01*
X015567Y001216D01*
X015541Y001280D01*
X016241Y001280D01*
X016350Y001389D01*
X016350Y001209D01*
X016584Y000975D01*
X016916Y000975D01*
X017150Y001209D01*
X017150Y001541D01*
X016941Y001750D01*
X017150Y001959D01*
X017150Y002291D01*
X016916Y002525D01*
X016584Y002525D01*
X016445Y002385D01*
X016445Y002599D01*
X016311Y002922D01*
X016063Y003170D01*
X017510Y003170D01*
X017510Y003012D02*
X016222Y003012D01*
X016339Y002853D02*
X017510Y002853D01*
X017510Y002695D02*
X016405Y002695D01*
X016445Y002536D02*
X017510Y002536D01*
X017437Y002378D02*
X017063Y002378D01*
X017150Y002219D02*
X017350Y002219D01*
X017350Y002061D02*
X017150Y002061D01*
X017093Y001902D02*
X017407Y001902D01*
X017553Y001744D02*
X016947Y001744D01*
X017106Y001585D02*
X017394Y001585D01*
X017350Y001427D02*
X017150Y001427D01*
X017150Y001268D02*
X017350Y001268D01*
X017450Y001110D02*
X017050Y001110D01*
X016450Y001110D02*
X015567Y001110D01*
X015546Y001268D02*
X016350Y001268D01*
X015533Y000951D02*
X018967Y000951D01*
X018933Y001110D02*
X018050Y001110D01*
X019076Y000793D02*
X015424Y000793D01*
X014801Y000793D02*
X014636Y000793D01*
X014348Y000634D02*
X021652Y000634D01*
X021810Y000476D02*
X014190Y000476D01*
X014000Y000625D02*
X014250Y000875D01*
X014250Y001050D01*
X014325Y001125D01*
X014000Y000625D02*
X013125Y000625D01*
X012750Y001000D01*
X012750Y001125D01*
X012439Y000793D02*
X012274Y000793D01*
X012220Y000739D02*
X012349Y000867D01*
X012356Y000886D01*
X012364Y000867D01*
X012492Y000739D01*
X012659Y000670D01*
X012741Y000670D01*
X012922Y000489D01*
X012777Y000634D02*
X007928Y000634D01*
X007991Y000660D02*
X007791Y000577D01*
X007574Y000577D01*
X007375Y000660D01*
X007222Y000813D01*
X007139Y001013D01*
X007139Y001229D01*
X007222Y001429D01*
X007375Y001582D01*
X007574Y001665D01*
X007791Y001665D01*
X007991Y001582D01*
X008144Y001429D01*
X008227Y001229D01*
X008227Y001013D01*
X008144Y000813D01*
X007991Y000660D01*
X008123Y000793D02*
X010076Y000793D01*
X010130Y000739D02*
X010002Y000867D01*
X009933Y001034D01*
X009933Y001216D01*
X010002Y001383D01*
X010130Y001511D01*
X010297Y001580D01*
X010478Y001580D01*
X010646Y001511D01*
X010774Y001383D01*
X010781Y001364D01*
X010789Y001383D01*
X010917Y001511D01*
X011010Y001549D01*
X011010Y001923D01*
X011047Y002011D01*
X011114Y002078D01*
X011364Y002328D01*
X011452Y002365D01*
X013759Y002365D01*
X013807Y002413D01*
X013932Y002465D01*
X014068Y002465D01*
X014193Y002413D01*
X014288Y002318D01*
X014340Y002193D01*
X014340Y002057D01*
X014288Y001932D01*
X014193Y001837D01*
X014152Y001820D01*
X014925Y001820D01*
X014819Y001926D01*
X014685Y002249D01*
X014685Y002599D01*
X014819Y002922D01*
X015067Y003170D01*
X013132Y003170D01*
X013293Y003329D02*
X017523Y003329D01*
X017648Y003487D02*
X013451Y003487D01*
X013375Y003750D02*
X013000Y003375D01*
X008625Y003375D01*
X008625Y002569D01*
X008274Y002218D01*
X007102Y002218D01*
X006908Y002412D01*
X006908Y003842D01*
X006750Y004000D01*
X006750Y004375D01*
X007500Y004375D02*
X008000Y003875D01*
X008500Y003875D01*
X008750Y003625D01*
X010625Y003625D01*
X010750Y003750D01*
X012875Y003750D01*
X013125Y004000D01*
X022750Y004000D01*
X023000Y004250D01*
X023000Y011375D01*
X023250Y011625D01*
X024125Y011625D01*
X024250Y011750D01*
X024250Y013125D01*
X024650Y013156D02*
X024850Y013156D01*
X024850Y012997D02*
X024650Y012997D01*
X024529Y012839D02*
X024971Y012839D01*
X024490Y012680D02*
X028615Y012680D01*
X028726Y012680D02*
X028743Y012680D01*
X028853Y012680D02*
X039395Y012680D01*
X039395Y012522D02*
X037572Y012522D01*
X037670Y012424D02*
X037424Y012670D01*
X037250Y012670D01*
X037250Y012250D01*
X037670Y012250D01*
X037670Y012424D01*
X037670Y012363D02*
X039395Y012363D01*
X039395Y012205D02*
X037670Y012205D01*
X037670Y012250D02*
X037670Y012076D01*
X037424Y011830D01*
X037250Y011830D01*
X037250Y012250D01*
X037250Y012250D01*
X037250Y012250D01*
X037670Y012250D01*
X037640Y012046D02*
X039395Y012046D01*
X039395Y011888D02*
X037481Y011888D01*
X037250Y011888D02*
X037250Y011888D01*
X037250Y011830D02*
X037076Y011830D01*
X036830Y012076D01*
X036830Y012250D01*
X037250Y012250D01*
X037250Y012250D01*
X037250Y012250D01*
X037250Y012670D01*
X037076Y012670D01*
X036830Y012424D01*
X036830Y012250D01*
X037250Y012250D01*
X037250Y011830D01*
X037019Y011888D02*
X036453Y011888D01*
X036612Y012046D02*
X036860Y012046D01*
X036830Y012205D02*
X036650Y012205D01*
X036650Y012363D02*
X036830Y012363D01*
X036928Y012522D02*
X036544Y012522D01*
X036416Y012725D02*
X036084Y012725D01*
X035850Y012959D01*
X035850Y013291D01*
X036084Y013525D01*
X036416Y013525D01*
X036650Y013291D01*
X036650Y012959D01*
X036416Y012725D01*
X036529Y012839D02*
X036943Y012839D01*
X036830Y012951D02*
X037076Y012705D01*
X037250Y012705D01*
X037424Y012705D01*
X037670Y012951D01*
X037670Y013125D01*
X037670Y013299D01*
X037424Y013545D01*
X037250Y013545D01*
X037250Y013125D01*
X037670Y013125D01*
X037250Y013125D01*
X037250Y013125D01*
X037250Y013125D01*
X037250Y012705D01*
X037250Y013125D01*
X037250Y013125D01*
X037250Y013125D01*
X036830Y013125D01*
X036830Y013299D01*
X037076Y013545D01*
X037250Y013545D01*
X037250Y013125D01*
X036830Y013125D01*
X036830Y012951D01*
X036830Y012997D02*
X036650Y012997D01*
X036650Y013156D02*
X036830Y013156D01*
X036845Y013314D02*
X036627Y013314D01*
X036468Y013473D02*
X037004Y013473D01*
X037250Y013473D02*
X037250Y013473D01*
X037250Y013314D02*
X037250Y013314D01*
X037250Y013156D02*
X037250Y013156D01*
X037250Y012997D02*
X037250Y012997D01*
X037250Y012839D02*
X037250Y012839D01*
X037557Y012839D02*
X039395Y012839D01*
X039395Y012997D02*
X037670Y012997D01*
X037670Y013156D02*
X039395Y013156D01*
X039395Y013314D02*
X037655Y013314D01*
X037496Y013473D02*
X039395Y013473D01*
X039395Y013631D02*
X031456Y013631D01*
X031490Y013473D02*
X032491Y013473D01*
X032517Y013498D02*
X032393Y013374D01*
X032326Y013213D01*
X032326Y013037D01*
X032393Y012876D01*
X032517Y012752D01*
X032678Y012685D01*
X032853Y012685D01*
X033015Y012752D01*
X033139Y012876D01*
X033206Y013037D01*
X033206Y013213D01*
X033139Y013374D01*
X033015Y013498D01*
X032853Y013565D01*
X032678Y013565D01*
X032517Y013498D01*
X032368Y013314D02*
X031627Y013314D01*
X031650Y013156D02*
X032326Y013156D01*
X032343Y012997D02*
X031650Y012997D01*
X031529Y012839D02*
X032430Y012839D01*
X033102Y012839D02*
X034398Y012839D01*
X034361Y012876D02*
X034485Y012752D01*
X034647Y012685D01*
X034822Y012685D01*
X034983Y012752D01*
X035107Y012876D01*
X035174Y013037D01*
X035174Y013213D01*
X035107Y013374D01*
X034983Y013498D01*
X034822Y013565D01*
X034647Y013565D01*
X034485Y013498D01*
X034361Y013374D01*
X034294Y013213D01*
X034294Y013037D01*
X034361Y012876D01*
X034311Y012997D02*
X033189Y012997D01*
X033206Y013156D02*
X034294Y013156D01*
X034336Y013314D02*
X033164Y013314D01*
X033040Y013473D02*
X034460Y013473D01*
X035009Y013473D02*
X036032Y013473D01*
X035873Y013314D02*
X035132Y013314D01*
X035174Y013156D02*
X035850Y013156D01*
X035850Y012997D02*
X035157Y012997D01*
X035070Y012839D02*
X035971Y012839D01*
X035956Y012522D02*
X024490Y012522D01*
X024490Y012363D02*
X035850Y012363D01*
X035850Y012205D02*
X024490Y012205D01*
X024490Y012046D02*
X035707Y012046D01*
X035548Y011888D02*
X024490Y011888D01*
X024490Y011729D02*
X035510Y011729D01*
X035510Y011571D02*
X024410Y011571D01*
X024500Y011412D02*
X024500Y011412D01*
X024500Y011254D02*
X024500Y011254D01*
X024500Y011095D02*
X024500Y011095D01*
X024682Y011412D02*
X026818Y011412D01*
X026826Y011420D02*
X026580Y011174D01*
X026580Y011000D01*
X027000Y011000D01*
X027000Y011000D01*
X027000Y011420D01*
X027174Y011420D01*
X027420Y011174D01*
X027420Y011000D01*
X027000Y011000D01*
X027000Y011000D01*
X027000Y011000D01*
X027000Y011420D01*
X026826Y011420D01*
X027000Y011412D02*
X027000Y011412D01*
X027000Y011254D02*
X027000Y011254D01*
X027000Y011095D02*
X027000Y011095D01*
X027000Y011000D02*
X026580Y011000D01*
X026580Y010826D01*
X026826Y010580D01*
X027000Y010580D01*
X027174Y010580D01*
X027420Y010826D01*
X027420Y011000D01*
X027000Y011000D01*
X027000Y010580D01*
X027000Y011000D01*
X027000Y011000D01*
X027000Y010937D02*
X027000Y010937D01*
X027000Y010778D02*
X027000Y010778D01*
X027000Y010620D02*
X027000Y010620D01*
X027213Y010620D02*
X027787Y010620D01*
X027826Y010580D02*
X027580Y010826D01*
X027580Y011000D01*
X028000Y011000D01*
X028000Y011000D01*
X028000Y011420D01*
X028174Y011420D01*
X028420Y011174D01*
X028420Y011000D01*
X028000Y011000D01*
X028000Y011000D01*
X028000Y011000D01*
X028000Y011420D01*
X027826Y011420D01*
X027580Y011174D01*
X027580Y011000D01*
X028000Y011000D01*
X028420Y011000D01*
X028420Y010826D01*
X028174Y010580D01*
X028000Y010580D01*
X028000Y011000D01*
X028000Y011000D01*
X028000Y010580D01*
X027826Y010580D01*
X028000Y010620D02*
X028000Y010620D01*
X028000Y010778D02*
X028000Y010778D01*
X028000Y010937D02*
X028000Y010937D01*
X028000Y011095D02*
X028000Y011095D01*
X028000Y011254D02*
X028000Y011254D01*
X028000Y011412D02*
X028000Y011412D01*
X028182Y011412D02*
X028818Y011412D01*
X028826Y011420D02*
X028580Y011174D01*
X028580Y011000D01*
X029000Y011000D01*
X029000Y011000D01*
X029000Y011420D01*
X029174Y011420D01*
X029420Y011174D01*
X029420Y011000D01*
X029000Y011000D01*
X029000Y011000D01*
X029000Y011000D01*
X029000Y011420D01*
X028826Y011420D01*
X029000Y011412D02*
X029000Y011412D01*
X029000Y011254D02*
X029000Y011254D01*
X029000Y011095D02*
X029000Y011095D01*
X029000Y011000D02*
X028580Y011000D01*
X028580Y010826D01*
X028666Y010740D01*
X028577Y010740D01*
X028489Y010703D01*
X028422Y010636D01*
X028297Y010511D01*
X028260Y010423D01*
X028260Y010306D01*
X028166Y010400D01*
X027834Y010400D01*
X027600Y010166D01*
X027600Y009834D01*
X027817Y009618D01*
X027768Y009598D01*
X027652Y009482D01*
X027590Y009332D01*
X027590Y009168D01*
X027652Y009018D01*
X027768Y008902D01*
X027918Y008840D01*
X028082Y008840D01*
X028232Y008902D01*
X028348Y009018D01*
X028410Y009168D01*
X028410Y009332D01*
X028348Y009482D01*
X028232Y009598D01*
X028183Y009618D01*
X028326Y009760D01*
X028423Y009760D01*
X028511Y009797D01*
X028600Y009886D01*
X028600Y009834D01*
X028817Y009618D01*
X028768Y009598D01*
X028652Y009482D01*
X028590Y009332D01*
X028590Y009168D01*
X028652Y009018D01*
X028768Y008902D01*
X028918Y008840D01*
X029082Y008840D01*
X029232Y008902D01*
X029348Y009018D01*
X029410Y009168D01*
X029410Y009332D01*
X029348Y009482D01*
X029232Y009598D01*
X029183Y009618D01*
X029400Y009834D01*
X029400Y010166D01*
X029306Y010260D01*
X029694Y010260D01*
X029600Y010166D01*
X029600Y009834D01*
X029817Y009618D01*
X029768Y009598D01*
X029652Y009482D01*
X029590Y009332D01*
X029590Y009168D01*
X029652Y009018D01*
X029760Y008910D01*
X029760Y008849D01*
X029651Y008740D01*
X028702Y008740D01*
X028614Y008703D01*
X028364Y008453D01*
X028297Y008386D01*
X028260Y008298D01*
X028260Y006593D01*
X028225Y006618D01*
X028165Y006648D01*
X028101Y006669D01*
X028034Y006680D01*
X028000Y006680D01*
X028000Y006250D01*
X028000Y006250D01*
X028000Y006250D01*
X027570Y006250D01*
X027570Y006284D01*
X027581Y006351D01*
X027602Y006415D01*
X027632Y006475D01*
X027672Y006530D01*
X027720Y006578D01*
X027775Y006618D01*
X027835Y006648D01*
X027899Y006669D01*
X027966Y006680D01*
X028000Y006680D01*
X028000Y006250D01*
X027570Y006250D01*
X027570Y006216D01*
X027581Y006149D01*
X027602Y006085D01*
X027632Y006025D01*
X027672Y005970D01*
X027720Y005922D01*
X027775Y005882D01*
X027802Y005868D01*
X027600Y005666D01*
X027600Y005334D01*
X027809Y005125D01*
X027600Y004916D01*
X027600Y004584D01*
X027834Y004350D01*
X028166Y004350D01*
X028400Y004584D01*
X028400Y004916D01*
X028191Y005125D01*
X028326Y005260D01*
X028423Y005260D01*
X028511Y005297D01*
X028578Y005364D01*
X028703Y005489D01*
X028740Y005577D01*
X028740Y005930D01*
X028768Y005902D01*
X028918Y005840D01*
X029082Y005840D01*
X029232Y005902D01*
X029348Y006018D01*
X029410Y006168D01*
X029410Y006332D01*
X029348Y006482D01*
X029232Y006598D01*
X029082Y006660D01*
X028918Y006660D01*
X028768Y006598D01*
X028740Y006570D01*
X028740Y008151D01*
X028849Y008260D01*
X029798Y008260D01*
X029886Y008297D01*
X029953Y008364D01*
X030203Y008614D01*
X030240Y008702D01*
X030240Y008910D01*
X030348Y009018D01*
X030410Y009168D01*
X030410Y009332D01*
X030348Y009482D01*
X030232Y009598D01*
X030183Y009618D01*
X030400Y009834D01*
X030400Y010166D01*
X030166Y010400D01*
X030114Y010400D01*
X030136Y010422D01*
X030203Y010489D01*
X030240Y010577D01*
X030240Y010674D01*
X030400Y010834D01*
X030400Y011166D01*
X030166Y011400D01*
X029834Y011400D01*
X029600Y011166D01*
X029600Y010834D01*
X029694Y010740D01*
X029334Y010740D01*
X029420Y010826D01*
X029420Y011000D01*
X029000Y011000D01*
X029420Y010937D02*
X029600Y010937D01*
X029600Y011095D02*
X029420Y011095D01*
X029340Y011254D02*
X029688Y011254D01*
X029182Y011412D02*
X031318Y011412D01*
X031326Y011420D02*
X031080Y011174D01*
X031080Y011000D01*
X031500Y011000D01*
X031500Y011000D01*
X031500Y011420D01*
X031674Y011420D01*
X031920Y011174D01*
X031920Y011000D01*
X031500Y011000D01*
X031500Y011000D01*
X031500Y011000D01*
X031500Y011420D01*
X031326Y011420D01*
X031500Y011412D02*
X031500Y011412D01*
X031500Y011254D02*
X031500Y011254D01*
X031500Y011095D02*
X031500Y011095D01*
X031500Y011000D02*
X031080Y011000D01*
X031080Y010826D01*
X031326Y010580D01*
X031500Y010580D01*
X031674Y010580D01*
X031920Y010826D01*
X031920Y011000D01*
X031500Y011000D01*
X031500Y010580D01*
X031500Y011000D01*
X031500Y011000D01*
X031500Y010937D02*
X031500Y010937D01*
X031500Y010778D02*
X031500Y010778D01*
X031500Y010620D02*
X031500Y010620D01*
X031713Y010620D02*
X032287Y010620D01*
X032326Y010580D02*
X032491Y010580D01*
X032297Y010386D01*
X032280Y010345D01*
X032100Y010166D01*
X032100Y009834D01*
X032317Y009618D01*
X032268Y009598D01*
X032152Y009482D01*
X032090Y009332D01*
X032090Y009168D01*
X032152Y009018D01*
X032268Y008902D01*
X032418Y008840D01*
X032582Y008840D01*
X032732Y008902D01*
X032848Y009018D01*
X032910Y009168D01*
X032910Y009332D01*
X032848Y009482D01*
X032732Y009598D01*
X032683Y009618D01*
X032900Y009834D01*
X032900Y010166D01*
X032828Y010238D01*
X032849Y010260D01*
X033194Y010260D01*
X033100Y010166D01*
X033100Y009834D01*
X033317Y009618D01*
X033268Y009598D01*
X033152Y009482D01*
X033090Y009332D01*
X033090Y009168D01*
X033152Y009018D01*
X033268Y008902D01*
X033358Y008865D01*
X033202Y008865D01*
X033114Y008828D01*
X032864Y008578D01*
X032797Y008511D01*
X032760Y008423D01*
X032760Y006593D01*
X032725Y006618D01*
X032665Y006648D01*
X032601Y006669D01*
X032534Y006680D01*
X032500Y006680D01*
X032500Y006250D01*
X032500Y006250D01*
X032500Y006250D01*
X032070Y006250D01*
X032070Y006284D01*
X032081Y006351D01*
X032102Y006415D01*
X032132Y006475D01*
X032172Y006530D01*
X032220Y006578D01*
X032275Y006618D01*
X032335Y006648D01*
X032399Y006669D01*
X032466Y006680D01*
X032500Y006680D01*
X032500Y006250D01*
X032070Y006250D01*
X032070Y006216D01*
X032081Y006149D01*
X032102Y006085D01*
X032132Y006025D01*
X032172Y005970D01*
X032220Y005922D01*
X032275Y005882D01*
X032302Y005868D01*
X032100Y005666D01*
X032100Y005334D01*
X032309Y005125D01*
X032100Y004916D01*
X032100Y004584D01*
X032334Y004350D01*
X032666Y004350D01*
X032900Y004584D01*
X032900Y004916D01*
X032691Y005125D01*
X032826Y005260D01*
X032923Y005260D01*
X033011Y005297D01*
X033078Y005364D01*
X033203Y005489D01*
X033240Y005577D01*
X033240Y005930D01*
X033268Y005902D01*
X033418Y005840D01*
X033582Y005840D01*
X033732Y005902D01*
X033848Y006018D01*
X033910Y006168D01*
X033910Y006332D01*
X033848Y006482D01*
X033732Y006598D01*
X033582Y006660D01*
X033418Y006660D01*
X033268Y006598D01*
X033240Y006570D01*
X033240Y008276D01*
X033349Y008385D01*
X034298Y008385D01*
X034386Y008422D01*
X034453Y008489D01*
X034703Y008739D01*
X034740Y008827D01*
X034740Y008910D01*
X034848Y009018D01*
X034910Y009168D01*
X034910Y009332D01*
X034848Y009482D01*
X034732Y009598D01*
X034683Y009618D01*
X034900Y009834D01*
X034900Y010166D01*
X034666Y010400D01*
X034489Y010400D01*
X034703Y010614D01*
X034720Y010655D01*
X034900Y010834D01*
X034900Y011166D01*
X034666Y011400D01*
X034334Y011400D01*
X034100Y011166D01*
X034100Y010834D01*
X034172Y010762D01*
X034151Y010740D01*
X033834Y010740D01*
X033920Y010826D01*
X033920Y011000D01*
X033920Y011174D01*
X033674Y011420D01*
X033500Y011420D01*
X033500Y011000D01*
X033500Y011000D01*
X033920Y011000D01*
X033500Y011000D01*
X033500Y011000D01*
X033500Y011000D01*
X033080Y011000D01*
X033080Y011174D01*
X033326Y011420D01*
X033500Y011420D01*
X033500Y011000D01*
X033080Y011000D01*
X033080Y010826D01*
X033166Y010740D01*
X032834Y010740D01*
X032920Y010826D01*
X032920Y011000D01*
X032920Y011174D01*
X032674Y011420D01*
X032500Y011420D01*
X032500Y011000D01*
X032500Y011000D01*
X032920Y011000D01*
X032500Y011000D01*
X032500Y011000D01*
X032500Y011000D01*
X032080Y011000D01*
X032080Y011174D01*
X032326Y011420D01*
X032500Y011420D01*
X032500Y011000D01*
X032080Y011000D01*
X032080Y010826D01*
X032326Y010580D01*
X032372Y010461D02*
X030175Y010461D01*
X030240Y010620D02*
X031287Y010620D01*
X031128Y010778D02*
X030344Y010778D01*
X030400Y010937D02*
X031080Y010937D01*
X031080Y011095D02*
X030400Y011095D01*
X030312Y011254D02*
X031160Y011254D01*
X031682Y011412D02*
X032318Y011412D01*
X032500Y011412D02*
X032500Y011412D01*
X032500Y011254D02*
X032500Y011254D01*
X032500Y011095D02*
X032500Y011095D01*
X032682Y011412D02*
X033318Y011412D01*
X033500Y011412D02*
X033500Y011412D01*
X033500Y011254D02*
X033500Y011254D01*
X033500Y011095D02*
X033500Y011095D01*
X033682Y011412D02*
X035510Y011412D01*
X035510Y011254D02*
X034812Y011254D01*
X034900Y011095D02*
X035506Y011095D01*
X035347Y010937D02*
X034900Y010937D01*
X034844Y010778D02*
X035260Y010778D01*
X035260Y010620D02*
X034706Y010620D01*
X034550Y010461D02*
X035260Y010461D01*
X035260Y010303D02*
X034763Y010303D01*
X034900Y010144D02*
X035260Y010144D01*
X035260Y009986D02*
X034900Y009986D01*
X034893Y009827D02*
X035260Y009827D01*
X035260Y009669D02*
X034734Y009669D01*
X034820Y009510D02*
X035260Y009510D01*
X035260Y009352D02*
X034902Y009352D01*
X034910Y009193D02*
X035260Y009193D01*
X035260Y009035D02*
X034855Y009035D01*
X034740Y008876D02*
X035260Y008876D01*
X035260Y008718D02*
X034682Y008718D01*
X034523Y008559D02*
X035260Y008559D01*
X035260Y008401D02*
X034335Y008401D01*
X034250Y008625D02*
X033250Y008625D01*
X033000Y008375D01*
X033000Y005625D01*
X032875Y005500D01*
X032500Y005500D01*
X032100Y005548D02*
X031900Y005548D01*
X031900Y005666D02*
X031900Y005334D01*
X031691Y005125D01*
X031900Y004916D01*
X031900Y004584D01*
X031666Y004350D01*
X031334Y004350D01*
X031100Y004584D01*
X031100Y004916D01*
X031309Y005125D01*
X031100Y005334D01*
X031100Y005666D01*
X031317Y005882D01*
X031268Y005902D01*
X031152Y006018D01*
X031090Y006168D01*
X031090Y006332D01*
X031152Y006482D01*
X031268Y006598D01*
X031418Y006660D01*
X031582Y006660D01*
X031732Y006598D01*
X031848Y006482D01*
X031910Y006332D01*
X031910Y006168D01*
X031848Y006018D01*
X031732Y005902D01*
X031683Y005882D01*
X031900Y005666D01*
X031860Y005706D02*
X032140Y005706D01*
X032299Y005865D02*
X031701Y005865D01*
X031850Y006023D02*
X032133Y006023D01*
X032075Y006182D02*
X031910Y006182D01*
X031906Y006340D02*
X032079Y006340D01*
X032149Y006499D02*
X031831Y006499D01*
X031589Y006657D02*
X032361Y006657D01*
X032500Y006657D02*
X032500Y006657D01*
X032639Y006657D02*
X032760Y006657D01*
X032760Y006816D02*
X028740Y006816D01*
X028740Y006974D02*
X032760Y006974D01*
X032760Y007133D02*
X028740Y007133D01*
X028740Y007291D02*
X032760Y007291D01*
X032760Y007450D02*
X028740Y007450D01*
X028740Y007608D02*
X032760Y007608D01*
X032760Y007767D02*
X028740Y007767D01*
X028740Y007925D02*
X032760Y007925D01*
X032760Y008084D02*
X028740Y008084D01*
X028831Y008242D02*
X032760Y008242D01*
X032760Y008401D02*
X029990Y008401D01*
X030148Y008559D02*
X032845Y008559D01*
X033003Y008718D02*
X030240Y008718D01*
X030240Y008876D02*
X031331Y008876D01*
X031268Y008902D02*
X031418Y008840D01*
X031582Y008840D01*
X031732Y008902D01*
X031848Y009018D01*
X031910Y009168D01*
X031910Y009332D01*
X031848Y009482D01*
X031732Y009598D01*
X031683Y009618D01*
X031900Y009834D01*
X031900Y010166D01*
X031666Y010400D01*
X031334Y010400D01*
X031100Y010166D01*
X031100Y009834D01*
X031317Y009618D01*
X031268Y009598D01*
X031152Y009482D01*
X031090Y009332D01*
X031090Y009168D01*
X031152Y009018D01*
X031268Y008902D01*
X031145Y009035D02*
X030355Y009035D01*
X030410Y009193D02*
X031090Y009193D01*
X031098Y009352D02*
X030402Y009352D01*
X030320Y009510D02*
X031180Y009510D01*
X031266Y009669D02*
X030234Y009669D01*
X030393Y009827D02*
X031107Y009827D01*
X031100Y009986D02*
X030400Y009986D01*
X030400Y010144D02*
X031100Y010144D01*
X031237Y010303D02*
X030263Y010303D01*
X030000Y010625D02*
X029875Y010500D01*
X028625Y010500D01*
X028500Y010375D01*
X028500Y010125D01*
X028375Y010000D01*
X028000Y010000D01*
X027600Y009986D02*
X027400Y009986D01*
X027400Y009834D02*
X027400Y010166D01*
X027166Y010400D01*
X026834Y010400D01*
X026600Y010166D01*
X026600Y009834D01*
X026817Y009618D01*
X026768Y009598D01*
X026652Y009482D01*
X026590Y009332D01*
X026590Y009168D01*
X026652Y009018D01*
X026768Y008902D01*
X026918Y008840D01*
X027082Y008840D01*
X027232Y008902D01*
X027348Y009018D01*
X027410Y009168D01*
X027410Y009332D01*
X027348Y009482D01*
X027232Y009598D01*
X027183Y009618D01*
X027400Y009834D01*
X027393Y009827D02*
X027607Y009827D01*
X027766Y009669D02*
X027234Y009669D01*
X027320Y009510D02*
X027680Y009510D01*
X027598Y009352D02*
X027402Y009352D01*
X027410Y009193D02*
X027590Y009193D01*
X027645Y009035D02*
X027355Y009035D01*
X027168Y008876D02*
X027831Y008876D01*
X028168Y008876D02*
X028831Y008876D01*
X028648Y008718D02*
X025682Y008718D01*
X025740Y008876D02*
X026831Y008876D01*
X026645Y009035D02*
X025855Y009035D01*
X025910Y009193D02*
X026590Y009193D01*
X026598Y009352D02*
X025902Y009352D01*
X025820Y009510D02*
X026680Y009510D01*
X026766Y009669D02*
X025734Y009669D01*
X025893Y009827D02*
X026607Y009827D01*
X026600Y009986D02*
X025900Y009986D01*
X025900Y010144D02*
X026600Y010144D01*
X026737Y010303D02*
X025763Y010303D01*
X025550Y010461D02*
X028276Y010461D01*
X028213Y010620D02*
X028405Y010620D01*
X028422Y010636D02*
X028422Y010636D01*
X028372Y010778D02*
X028628Y010778D01*
X028580Y010937D02*
X028420Y010937D01*
X028420Y011095D02*
X028580Y011095D01*
X028660Y011254D02*
X028340Y011254D01*
X027818Y011412D02*
X027182Y011412D01*
X027340Y011254D02*
X027660Y011254D01*
X027580Y011095D02*
X027420Y011095D01*
X027420Y010937D02*
X027580Y010937D01*
X027628Y010778D02*
X027372Y010778D01*
X027263Y010303D02*
X027737Y010303D01*
X027600Y010144D02*
X027400Y010144D01*
X028234Y009669D02*
X028766Y009669D01*
X028680Y009510D02*
X028320Y009510D01*
X028402Y009352D02*
X028598Y009352D01*
X028590Y009193D02*
X028410Y009193D01*
X028355Y009035D02*
X028645Y009035D01*
X029168Y008876D02*
X029760Y008876D01*
X029645Y009035D02*
X029355Y009035D01*
X029410Y009193D02*
X029590Y009193D01*
X029598Y009352D02*
X029402Y009352D01*
X029320Y009510D02*
X029680Y009510D01*
X029766Y009669D02*
X029234Y009669D01*
X029393Y009827D02*
X029607Y009827D01*
X029600Y009986D02*
X029400Y009986D01*
X029400Y010144D02*
X029600Y010144D01*
X028607Y009827D02*
X028541Y009827D01*
X029372Y010778D02*
X029656Y010778D01*
X030000Y010625D02*
X030000Y011000D01*
X031840Y011254D02*
X032160Y011254D01*
X032080Y011095D02*
X031920Y011095D01*
X031920Y010937D02*
X032080Y010937D01*
X032128Y010778D02*
X031872Y010778D01*
X031763Y010303D02*
X032237Y010303D01*
X032100Y010144D02*
X031900Y010144D01*
X031900Y009986D02*
X032100Y009986D01*
X032107Y009827D02*
X031893Y009827D01*
X031734Y009669D02*
X032266Y009669D01*
X032180Y009510D02*
X031820Y009510D01*
X031902Y009352D02*
X032098Y009352D01*
X032090Y009193D02*
X031910Y009193D01*
X031855Y009035D02*
X032145Y009035D01*
X032331Y008876D02*
X031668Y008876D01*
X032668Y008876D02*
X033332Y008876D01*
X033145Y009035D02*
X032855Y009035D01*
X032910Y009193D02*
X033090Y009193D01*
X033098Y009352D02*
X032902Y009352D01*
X032820Y009510D02*
X033180Y009510D01*
X033266Y009669D02*
X032734Y009669D01*
X032893Y009827D02*
X033107Y009827D01*
X033100Y009986D02*
X032900Y009986D01*
X032900Y010144D02*
X033100Y010144D01*
X032750Y010500D02*
X032500Y010250D01*
X032500Y010000D01*
X032750Y010500D02*
X034250Y010500D01*
X034500Y010750D01*
X034500Y011000D01*
X034100Y010937D02*
X033920Y010937D01*
X033920Y011095D02*
X034100Y011095D01*
X034188Y011254D02*
X033840Y011254D01*
X033160Y011254D02*
X032840Y011254D01*
X032920Y011095D02*
X033080Y011095D01*
X033080Y010937D02*
X032920Y010937D01*
X032872Y010778D02*
X033128Y010778D01*
X033872Y010778D02*
X034156Y010778D01*
X035500Y010750D02*
X035750Y011000D01*
X035750Y011750D01*
X036250Y012250D01*
X036068Y011729D02*
X039395Y011729D01*
X039395Y011571D02*
X035990Y011571D01*
X035990Y011412D02*
X039395Y011412D01*
X039395Y011254D02*
X035990Y011254D01*
X035990Y011095D02*
X039395Y011095D01*
X039395Y010937D02*
X035983Y010937D01*
X035867Y010778D02*
X039395Y010778D01*
X039395Y010620D02*
X035740Y010620D01*
X035740Y010461D02*
X039395Y010461D01*
X039395Y010303D02*
X035740Y010303D01*
X035740Y010144D02*
X039395Y010144D01*
X039395Y009986D02*
X035740Y009986D01*
X035740Y009827D02*
X039395Y009827D01*
X039395Y009669D02*
X035740Y009669D01*
X035740Y009510D02*
X039395Y009510D01*
X039395Y009352D02*
X037349Y009352D01*
X037322Y009378D02*
X037378Y009322D01*
X037423Y009259D01*
X037459Y009190D01*
X037483Y009116D01*
X037495Y009039D01*
X037495Y009000D01*
X037000Y009000D01*
X037000Y009000D01*
X037000Y009000D01*
X037000Y009495D01*
X037039Y009495D01*
X037116Y009483D01*
X037190Y009459D01*
X037259Y009423D01*
X037322Y009378D01*
X037457Y009193D02*
X039395Y009193D01*
X039395Y009035D02*
X038438Y009035D01*
X038483Y008989D02*
X038364Y009108D01*
X038209Y009173D01*
X038041Y009173D01*
X037886Y009108D01*
X037767Y008989D01*
X037702Y008834D01*
X037702Y008666D01*
X037767Y008511D01*
X037886Y008392D01*
X038041Y008327D01*
X038209Y008327D01*
X038364Y008392D01*
X038483Y008511D01*
X038548Y008666D01*
X038548Y008834D01*
X038483Y008989D01*
X038530Y008876D02*
X039395Y008876D01*
X039395Y008718D02*
X038548Y008718D01*
X038504Y008559D02*
X039395Y008559D01*
X039395Y008401D02*
X038373Y008401D01*
X038209Y008173D02*
X038041Y008173D01*
X037886Y008108D01*
X037767Y007989D01*
X037702Y007834D01*
X037702Y007666D01*
X037767Y007511D01*
X037886Y007392D01*
X038041Y007327D01*
X038209Y007327D01*
X038364Y007392D01*
X038483Y007511D01*
X038548Y007666D01*
X038548Y007834D01*
X038483Y007989D01*
X038364Y008108D01*
X038209Y008173D01*
X038389Y008084D02*
X039395Y008084D01*
X039395Y008242D02*
X035740Y008242D01*
X035740Y008084D02*
X037861Y008084D01*
X037740Y007925D02*
X035740Y007925D01*
X035740Y007767D02*
X037702Y007767D01*
X037726Y007608D02*
X035740Y007608D01*
X035740Y007450D02*
X037828Y007450D01*
X037944Y007133D02*
X035740Y007133D01*
X035740Y007291D02*
X039395Y007291D01*
X039395Y007133D02*
X038306Y007133D01*
X038364Y007108D02*
X038209Y007173D01*
X038041Y007173D01*
X037886Y007108D01*
X037767Y006989D01*
X037702Y006834D01*
X037702Y006666D01*
X037767Y006511D01*
X037886Y006392D01*
X038041Y006327D01*
X038209Y006327D01*
X038364Y006392D01*
X038483Y006511D01*
X038548Y006666D01*
X038548Y006834D01*
X038483Y006989D01*
X038364Y007108D01*
X038490Y006974D02*
X039395Y006974D01*
X039395Y006816D02*
X038548Y006816D01*
X038544Y006657D02*
X039395Y006657D01*
X039395Y006499D02*
X038471Y006499D01*
X038240Y006340D02*
X039395Y006340D01*
X039395Y006182D02*
X037382Y006182D01*
X037495Y006295D02*
X037205Y006005D01*
X037000Y006005D01*
X037000Y006500D01*
X037495Y006500D01*
X037495Y006705D01*
X037205Y006995D01*
X037000Y006995D01*
X037000Y006500D01*
X037000Y006500D01*
X037000Y006500D01*
X037495Y006500D01*
X037495Y006295D01*
X037495Y006340D02*
X038010Y006340D01*
X037779Y006499D02*
X037495Y006499D01*
X037495Y006657D02*
X037706Y006657D01*
X037702Y006816D02*
X037385Y006816D01*
X037226Y006974D02*
X037760Y006974D01*
X037000Y006974D02*
X037000Y006974D01*
X037000Y006995D02*
X036795Y006995D01*
X036505Y006705D01*
X036505Y006500D01*
X037000Y006500D01*
X037000Y006500D01*
X037000Y006500D01*
X037000Y006995D01*
X037000Y006816D02*
X037000Y006816D01*
X037000Y006657D02*
X037000Y006657D01*
X037000Y006500D02*
X036505Y006500D01*
X036505Y006295D01*
X036795Y006005D01*
X037000Y006005D01*
X037000Y006500D01*
X037000Y006499D02*
X037000Y006499D01*
X037000Y006340D02*
X037000Y006340D01*
X037000Y006182D02*
X037000Y006182D01*
X037000Y006023D02*
X037000Y006023D01*
X037223Y006023D02*
X039395Y006023D01*
X039395Y005865D02*
X035740Y005865D01*
X035740Y006023D02*
X036777Y006023D01*
X036618Y006182D02*
X036353Y006182D01*
X036448Y006340D02*
X036505Y006340D01*
X036505Y006499D02*
X036475Y006499D01*
X036449Y006657D02*
X036505Y006657D01*
X036615Y006816D02*
X036356Y006816D01*
X036097Y006974D02*
X036774Y006974D01*
X035903Y006974D02*
X035740Y006974D01*
X035260Y006974D02*
X033240Y006974D01*
X033240Y006816D02*
X035260Y006816D01*
X035260Y006657D02*
X034589Y006657D01*
X034582Y006660D02*
X034418Y006660D01*
X034268Y006598D01*
X034152Y006482D01*
X034090Y006332D01*
X034090Y006168D01*
X034152Y006018D01*
X034268Y005902D01*
X034317Y005882D01*
X034100Y005666D01*
X034100Y005334D01*
X034334Y005100D01*
X034666Y005100D01*
X034900Y005334D01*
X034900Y005666D01*
X034683Y005882D01*
X034732Y005902D01*
X034848Y006018D01*
X034910Y006168D01*
X034910Y006332D01*
X034848Y006482D01*
X034732Y006598D01*
X034582Y006660D01*
X034411Y006657D02*
X033589Y006657D01*
X033411Y006657D02*
X033240Y006657D01*
X032500Y006499D02*
X032500Y006499D01*
X032500Y006340D02*
X032500Y006340D01*
X033240Y005865D02*
X033359Y005865D01*
X033240Y005706D02*
X034140Y005706D01*
X034100Y005548D02*
X033228Y005548D01*
X033103Y005389D02*
X034100Y005389D01*
X034204Y005231D02*
X032796Y005231D01*
X032744Y005072D02*
X035260Y005072D01*
X035260Y004914D02*
X034680Y004914D01*
X034500Y004914D02*
X034500Y004914D01*
X034500Y004755D02*
X034500Y004755D01*
X034500Y004597D02*
X034500Y004597D01*
X034839Y004755D02*
X035260Y004755D01*
X035260Y004597D02*
X034920Y004597D01*
X034920Y004438D02*
X035199Y004438D01*
X035040Y004280D02*
X034873Y004280D01*
X035000Y003900D02*
X035500Y004400D01*
X035500Y010750D01*
X036678Y009378D02*
X036622Y009322D01*
X036577Y009259D01*
X036541Y009190D01*
X036517Y009116D01*
X036505Y009039D01*
X036505Y009000D01*
X037000Y009000D01*
X037495Y009000D01*
X037495Y008961D01*
X037483Y008884D01*
X037459Y008810D01*
X037423Y008741D01*
X037378Y008678D01*
X037322Y008622D01*
X037259Y008577D01*
X037190Y008541D01*
X037116Y008517D01*
X037039Y008505D01*
X037000Y008505D01*
X037000Y009000D01*
X037000Y009000D01*
X037000Y009000D01*
X037000Y009495D01*
X036961Y009495D01*
X036884Y009483D01*
X036810Y009459D01*
X036741Y009423D01*
X036678Y009378D01*
X036651Y009352D02*
X036320Y009352D01*
X036475Y009193D02*
X036543Y009193D01*
X036505Y009035D02*
X036475Y009035D01*
X036505Y009000D02*
X036505Y008961D01*
X036517Y008884D01*
X036541Y008810D01*
X036577Y008741D01*
X036622Y008678D01*
X036678Y008622D01*
X036741Y008577D01*
X036810Y008541D01*
X036884Y008517D01*
X036961Y008505D01*
X037000Y008505D01*
X037000Y009000D01*
X036505Y009000D01*
X036520Y008876D02*
X036475Y008876D01*
X036389Y008718D02*
X036593Y008718D01*
X036775Y008559D02*
X036231Y008559D01*
X035769Y008559D02*
X035740Y008559D01*
X035740Y008401D02*
X037877Y008401D01*
X037746Y008559D02*
X037225Y008559D01*
X037000Y008559D02*
X037000Y008559D01*
X037000Y008718D02*
X037000Y008718D01*
X037000Y008876D02*
X037000Y008876D01*
X037000Y009035D02*
X037000Y009035D01*
X037000Y009193D02*
X037000Y009193D01*
X037000Y009352D02*
X037000Y009352D01*
X037495Y009035D02*
X037812Y009035D01*
X037720Y008876D02*
X037480Y008876D01*
X037407Y008718D02*
X037702Y008718D01*
X038510Y007925D02*
X039395Y007925D01*
X039395Y007767D02*
X038548Y007767D01*
X038524Y007608D02*
X039395Y007608D01*
X039395Y007450D02*
X038422Y007450D01*
X035260Y007450D02*
X033240Y007450D01*
X033240Y007608D02*
X035260Y007608D01*
X035260Y007767D02*
X033240Y007767D01*
X033240Y007925D02*
X035260Y007925D01*
X035260Y008084D02*
X033240Y008084D01*
X033240Y008242D02*
X035260Y008242D01*
X034500Y008875D02*
X034250Y008625D01*
X034500Y008875D02*
X034500Y009250D01*
X035260Y007291D02*
X033240Y007291D01*
X033240Y007133D02*
X035260Y007133D01*
X035260Y006499D02*
X034831Y006499D01*
X034906Y006340D02*
X035260Y006340D01*
X035260Y006182D02*
X034910Y006182D01*
X034850Y006023D02*
X035260Y006023D01*
X035260Y005865D02*
X034701Y005865D01*
X034860Y005706D02*
X035260Y005706D01*
X035260Y005548D02*
X034900Y005548D01*
X034900Y005389D02*
X035260Y005389D01*
X035260Y005231D02*
X034796Y005231D01*
X034320Y004914D02*
X032900Y004914D01*
X032900Y004755D02*
X034161Y004755D01*
X034080Y004597D02*
X032900Y004597D01*
X032754Y004438D02*
X034080Y004438D01*
X034127Y004280D02*
X030373Y004280D01*
X030420Y004438D02*
X031246Y004438D01*
X031100Y004597D02*
X030420Y004597D01*
X030339Y004755D02*
X031100Y004755D01*
X031100Y004914D02*
X030180Y004914D01*
X030000Y004914D02*
X030000Y004914D01*
X030000Y004755D02*
X030000Y004755D01*
X030000Y004597D02*
X030000Y004597D01*
X029661Y004755D02*
X028400Y004755D01*
X028400Y004597D02*
X029580Y004597D01*
X029580Y004438D02*
X028254Y004438D01*
X027746Y004438D02*
X027254Y004438D01*
X027166Y004350D02*
X026834Y004350D01*
X026600Y004584D01*
X026600Y004916D01*
X026809Y005125D01*
X026600Y005334D01*
X026600Y005666D01*
X026817Y005882D01*
X026768Y005902D01*
X026652Y006018D01*
X026590Y006168D01*
X026590Y006332D01*
X026652Y006482D01*
X026768Y006598D01*
X026918Y006660D01*
X027082Y006660D01*
X027232Y006598D01*
X027348Y006482D01*
X027410Y006332D01*
X027410Y006168D01*
X027348Y006018D01*
X027232Y005902D01*
X027183Y005882D01*
X027400Y005666D01*
X027400Y005334D01*
X027191Y005125D01*
X027400Y004916D01*
X027400Y004584D01*
X027166Y004350D01*
X027400Y004597D02*
X027600Y004597D01*
X027600Y004755D02*
X027400Y004755D01*
X027400Y004914D02*
X027600Y004914D01*
X027756Y005072D02*
X027244Y005072D01*
X027296Y005231D02*
X027704Y005231D01*
X027600Y005389D02*
X027400Y005389D01*
X027400Y005548D02*
X027600Y005548D01*
X027640Y005706D02*
X027360Y005706D01*
X027201Y005865D02*
X027799Y005865D01*
X027633Y006023D02*
X027350Y006023D01*
X027410Y006182D02*
X027575Y006182D01*
X027579Y006340D02*
X027406Y006340D01*
X027331Y006499D02*
X027649Y006499D01*
X027861Y006657D02*
X027089Y006657D01*
X026911Y006657D02*
X025589Y006657D01*
X025582Y006660D02*
X025732Y006598D01*
X025848Y006482D01*
X025910Y006332D01*
X025910Y006168D01*
X025848Y006018D01*
X025732Y005902D01*
X025683Y005882D01*
X025900Y005666D01*
X025900Y005334D01*
X025666Y005100D01*
X025334Y005100D01*
X025100Y005334D01*
X025100Y005666D01*
X025317Y005882D01*
X025268Y005902D01*
X025152Y006018D01*
X025090Y006168D01*
X025090Y006332D01*
X025152Y006482D01*
X025268Y006598D01*
X025418Y006660D01*
X025582Y006660D01*
X025411Y006657D02*
X024589Y006657D01*
X024411Y006657D02*
X024240Y006657D01*
X024240Y006816D02*
X028260Y006816D01*
X028260Y006974D02*
X024240Y006974D01*
X024240Y007133D02*
X028260Y007133D01*
X028260Y007291D02*
X024240Y007291D01*
X024240Y007450D02*
X028260Y007450D01*
X028260Y007608D02*
X024240Y007608D01*
X024240Y007767D02*
X028260Y007767D01*
X028260Y007925D02*
X024240Y007925D01*
X024240Y008084D02*
X028260Y008084D01*
X028260Y008242D02*
X024240Y008242D01*
X024000Y008375D02*
X024000Y005625D01*
X023875Y005500D01*
X023500Y005500D01*
X024103Y005389D02*
X025100Y005389D01*
X025100Y005548D02*
X024228Y005548D01*
X024240Y005706D02*
X025140Y005706D01*
X025299Y005865D02*
X024641Y005865D01*
X024850Y006023D02*
X025150Y006023D01*
X025090Y006182D02*
X024910Y006182D01*
X024906Y006340D02*
X025094Y006340D01*
X025169Y006499D02*
X024831Y006499D01*
X025831Y006499D02*
X026669Y006499D01*
X026594Y006340D02*
X025906Y006340D01*
X025910Y006182D02*
X026590Y006182D01*
X026650Y006023D02*
X025850Y006023D01*
X025701Y005865D02*
X026799Y005865D01*
X026640Y005706D02*
X025860Y005706D01*
X025900Y005548D02*
X026600Y005548D01*
X026600Y005389D02*
X025900Y005389D01*
X025796Y005231D02*
X026704Y005231D01*
X026756Y005072D02*
X023744Y005072D01*
X023796Y005231D02*
X025204Y005231D01*
X025320Y004914D02*
X023900Y004914D01*
X023900Y004755D02*
X025161Y004755D01*
X025080Y004597D02*
X023900Y004597D01*
X023754Y004438D02*
X025080Y004438D01*
X025500Y004597D02*
X025500Y004597D01*
X025500Y004755D02*
X025500Y004755D01*
X025500Y004914D02*
X025500Y004914D01*
X025680Y004914D02*
X026600Y004914D01*
X026600Y004755D02*
X025839Y004755D01*
X025920Y004597D02*
X026600Y004597D01*
X026746Y004438D02*
X025920Y004438D01*
X025873Y004280D02*
X029627Y004280D01*
X029460Y003646D02*
X039395Y003646D01*
X039395Y003804D02*
X035243Y003804D01*
X035402Y003963D02*
X039395Y003963D01*
X039395Y004121D02*
X035560Y004121D01*
X035710Y004280D02*
X039395Y004280D01*
X039395Y004438D02*
X035740Y004438D01*
X035740Y004597D02*
X039395Y004597D01*
X039395Y004755D02*
X035740Y004755D01*
X035740Y004914D02*
X039395Y004914D01*
X039395Y005072D02*
X035740Y005072D01*
X035740Y005231D02*
X039395Y005231D01*
X039395Y005389D02*
X035740Y005389D01*
X035740Y005548D02*
X039395Y005548D01*
X039395Y005706D02*
X035740Y005706D01*
X034299Y005865D02*
X033641Y005865D01*
X033850Y006023D02*
X034150Y006023D01*
X034090Y006182D02*
X033910Y006182D01*
X033906Y006340D02*
X034094Y006340D01*
X034169Y006499D02*
X033831Y006499D01*
X032100Y005389D02*
X031900Y005389D01*
X031796Y005231D02*
X032204Y005231D01*
X032256Y005072D02*
X031744Y005072D01*
X031900Y004914D02*
X032100Y004914D01*
X032100Y004755D02*
X031900Y004755D01*
X031900Y004597D02*
X032100Y004597D01*
X032246Y004438D02*
X031754Y004438D01*
X031256Y005072D02*
X028244Y005072D01*
X028296Y005231D02*
X029704Y005231D01*
X029600Y005334D02*
X029834Y005100D01*
X030166Y005100D01*
X030400Y005334D01*
X030400Y005666D01*
X030183Y005882D01*
X030232Y005902D01*
X030348Y006018D01*
X030410Y006168D01*
X030410Y006332D01*
X030348Y006482D01*
X030232Y006598D01*
X030082Y006660D01*
X029918Y006660D01*
X029768Y006598D01*
X029652Y006482D01*
X029590Y006332D01*
X029590Y006168D01*
X029652Y006018D01*
X029768Y005902D01*
X029817Y005882D01*
X029600Y005666D01*
X029600Y005334D01*
X029600Y005389D02*
X028603Y005389D01*
X028728Y005548D02*
X029600Y005548D01*
X029640Y005706D02*
X028740Y005706D01*
X028740Y005865D02*
X028859Y005865D01*
X029141Y005865D02*
X029799Y005865D01*
X029650Y006023D02*
X029350Y006023D01*
X029410Y006182D02*
X029590Y006182D01*
X029594Y006340D02*
X029406Y006340D01*
X029331Y006499D02*
X029669Y006499D01*
X029911Y006657D02*
X029089Y006657D01*
X028911Y006657D02*
X028740Y006657D01*
X028260Y006657D02*
X028139Y006657D01*
X028000Y006657D02*
X028000Y006657D01*
X028000Y006499D02*
X028000Y006499D01*
X028000Y006340D02*
X028000Y006340D01*
X028000Y005500D02*
X028375Y005500D01*
X028500Y005625D01*
X028500Y008250D01*
X028750Y008500D01*
X029750Y008500D01*
X030000Y008750D01*
X030000Y009250D01*
X028470Y008559D02*
X025523Y008559D01*
X025335Y008401D02*
X028311Y008401D01*
X025500Y008875D02*
X025250Y008625D01*
X024250Y008625D01*
X024000Y008375D01*
X023845Y008559D02*
X023240Y008559D01*
X023240Y008401D02*
X023760Y008401D01*
X023760Y008423D02*
X023760Y006593D01*
X023725Y006618D01*
X023665Y006648D01*
X023601Y006669D01*
X023534Y006680D01*
X023500Y006680D01*
X023500Y006250D01*
X023500Y006250D01*
X023500Y006680D01*
X023466Y006680D01*
X023399Y006669D01*
X023335Y006648D01*
X023275Y006618D01*
X023240Y006593D01*
X023240Y008930D01*
X023268Y008902D01*
X023418Y008840D01*
X023582Y008840D01*
X023732Y008902D01*
X023848Y009018D01*
X023910Y009168D01*
X023910Y009332D01*
X023848Y009482D01*
X023732Y009598D01*
X023683Y009618D01*
X023900Y009834D01*
X023900Y010166D01*
X023828Y010238D01*
X023849Y010260D01*
X024194Y010260D01*
X024100Y010166D01*
X024100Y009834D01*
X024317Y009618D01*
X024268Y009598D01*
X024152Y009482D01*
X024090Y009332D01*
X024090Y009168D01*
X024152Y009018D01*
X024268Y008902D01*
X024358Y008865D01*
X024202Y008865D01*
X024114Y008828D01*
X023864Y008578D01*
X023797Y008511D01*
X023760Y008423D01*
X023760Y008242D02*
X023240Y008242D01*
X023240Y008084D02*
X023760Y008084D01*
X023760Y007925D02*
X023240Y007925D01*
X023240Y007767D02*
X023760Y007767D01*
X023760Y007608D02*
X023240Y007608D01*
X023240Y007450D02*
X023760Y007450D01*
X023760Y007291D02*
X023240Y007291D01*
X023240Y007133D02*
X023760Y007133D01*
X023760Y006974D02*
X023240Y006974D01*
X023240Y006816D02*
X023760Y006816D01*
X023760Y006657D02*
X023639Y006657D01*
X023500Y006657D02*
X023500Y006657D01*
X023361Y006657D02*
X023240Y006657D01*
X023500Y006499D02*
X023500Y006499D01*
X023500Y006340D02*
X023500Y006340D01*
X022760Y006657D02*
X022589Y006657D01*
X022411Y006657D02*
X021089Y006657D01*
X021082Y006660D02*
X020918Y006660D01*
X020768Y006598D01*
X020652Y006482D01*
X020590Y006332D01*
X020590Y006168D01*
X020652Y006018D01*
X020768Y005902D01*
X020817Y005882D01*
X020600Y005666D01*
X020600Y005334D01*
X020834Y005100D01*
X021166Y005100D01*
X021400Y005334D01*
X021400Y005666D01*
X021183Y005882D01*
X021232Y005902D01*
X021348Y006018D01*
X021410Y006168D01*
X021410Y006332D01*
X021348Y006482D01*
X021232Y006598D01*
X021082Y006660D01*
X020911Y006657D02*
X020089Y006657D01*
X019911Y006657D02*
X019740Y006657D01*
X019740Y006816D02*
X022760Y006816D01*
X022760Y006974D02*
X019740Y006974D01*
X019740Y007133D02*
X022760Y007133D01*
X022760Y007291D02*
X019740Y007291D01*
X019740Y007450D02*
X022760Y007450D01*
X022760Y007608D02*
X019740Y007608D01*
X019740Y007767D02*
X022760Y007767D01*
X022760Y007925D02*
X019740Y007925D01*
X019740Y008084D02*
X022760Y008084D01*
X022760Y008242D02*
X019740Y008242D01*
X019500Y008375D02*
X019500Y005625D01*
X019375Y005500D01*
X019125Y005500D01*
X019000Y005375D01*
X018600Y005389D02*
X018400Y005389D01*
X018400Y005231D02*
X018600Y005231D01*
X018737Y005072D02*
X018263Y005072D01*
X018277Y004914D02*
X018723Y004914D01*
X018600Y004755D02*
X018400Y004755D01*
X018400Y004597D02*
X018600Y004597D01*
X018621Y004438D02*
X018379Y004438D01*
X018220Y004280D02*
X018780Y004280D01*
X019220Y004280D02*
X020627Y004280D01*
X020580Y004438D02*
X019379Y004438D01*
X019400Y004597D02*
X020580Y004597D01*
X020661Y004755D02*
X019400Y004755D01*
X019277Y004914D02*
X020820Y004914D01*
X021000Y004914D02*
X021000Y004914D01*
X021000Y004755D02*
X021000Y004755D01*
X021000Y004597D02*
X021000Y004597D01*
X021339Y004755D02*
X022100Y004755D01*
X022100Y004597D02*
X021420Y004597D01*
X021420Y004438D02*
X022246Y004438D01*
X022690Y004280D02*
X021373Y004280D01*
X021180Y004914D02*
X022100Y004914D01*
X022256Y005072D02*
X019263Y005072D01*
X019400Y005231D02*
X020704Y005231D01*
X020600Y005389D02*
X019603Y005389D01*
X019728Y005548D02*
X020600Y005548D01*
X020640Y005706D02*
X019740Y005706D01*
X019740Y005865D02*
X019859Y005865D01*
X020141Y005865D02*
X020799Y005865D01*
X020650Y006023D02*
X020350Y006023D01*
X020410Y006182D02*
X020590Y006182D01*
X020594Y006340D02*
X020406Y006340D01*
X020331Y006499D02*
X020669Y006499D01*
X021331Y006499D02*
X022169Y006499D01*
X022094Y006340D02*
X021406Y006340D01*
X021410Y006182D02*
X022090Y006182D01*
X022150Y006023D02*
X021350Y006023D01*
X021201Y005865D02*
X022299Y005865D01*
X022140Y005706D02*
X021360Y005706D01*
X021400Y005548D02*
X022100Y005548D01*
X022100Y005389D02*
X021400Y005389D01*
X021296Y005231D02*
X022204Y005231D01*
X022754Y004438D02*
X022760Y004438D01*
X023350Y004150D02*
X025050Y004150D01*
X025300Y003900D01*
X035000Y003900D01*
X034954Y003487D02*
X035546Y003487D01*
X035388Y003329D02*
X035112Y003329D01*
X035150Y003170D02*
X035350Y003170D01*
X035350Y003012D02*
X035150Y003012D01*
X035044Y002853D02*
X035456Y002853D01*
X035504Y002695D02*
X034996Y002695D01*
X035150Y002536D02*
X035322Y002536D01*
X035163Y002378D02*
X035150Y002378D01*
X035250Y002125D02*
X035500Y002375D01*
X035750Y002375D01*
X036150Y002378D02*
X039395Y002378D01*
X039395Y002536D02*
X036150Y002536D01*
X035996Y002695D02*
X039395Y002695D01*
X039395Y002853D02*
X036044Y002853D01*
X036150Y003012D02*
X039395Y003012D01*
X039395Y003170D02*
X036150Y003170D01*
X036112Y003329D02*
X039395Y003329D01*
X039395Y003487D02*
X035954Y003487D01*
X034750Y003125D02*
X034625Y003125D01*
X034375Y003375D01*
X029250Y003375D01*
X029125Y002750D02*
X028500Y003375D01*
X027125Y003375D01*
X026750Y003000D01*
X026150Y003600D01*
X025150Y003600D01*
X024850Y003900D01*
X023550Y003900D01*
X023150Y003500D01*
X018000Y003500D01*
X017750Y003250D01*
X017750Y002125D01*
X016063Y003170D02*
X015740Y003304D01*
X015390Y003304D01*
X015067Y003170D01*
X014908Y003012D02*
X010592Y003012D01*
X010710Y002853D02*
X014790Y002853D01*
X014725Y002695D02*
X010775Y002695D01*
X010815Y002536D02*
X014685Y002536D01*
X014685Y002378D02*
X014228Y002378D01*
X014329Y002219D02*
X014698Y002219D01*
X014764Y002061D02*
X014340Y002061D01*
X014258Y001902D02*
X014843Y001902D01*
X014000Y002125D02*
X011500Y002125D01*
X011250Y001875D01*
X011250Y001200D01*
X011175Y001125D01*
X010864Y000793D02*
X010699Y000793D01*
X010646Y000739D02*
X010774Y000867D01*
X010781Y000886D01*
X010789Y000867D01*
X010917Y000739D01*
X011085Y000670D01*
X011266Y000670D01*
X011433Y000739D01*
X011561Y000867D01*
X011569Y000886D01*
X011577Y000867D01*
X011705Y000739D01*
X011872Y000670D01*
X012053Y000670D01*
X012220Y000739D01*
X011651Y000793D02*
X011487Y000793D01*
X010646Y000739D02*
X010478Y000670D01*
X010297Y000670D01*
X010130Y000739D01*
X009967Y000951D02*
X008201Y000951D01*
X008227Y001110D02*
X009933Y001110D01*
X009954Y001268D02*
X008210Y001268D01*
X008145Y001427D02*
X010045Y001427D01*
X010208Y001585D02*
X011010Y001585D01*
X011010Y001744D02*
X010498Y001744D01*
X010657Y001902D02*
X011010Y001902D01*
X011096Y002061D02*
X010736Y002061D01*
X010802Y002219D02*
X011255Y002219D01*
X010815Y002378D02*
X013772Y002378D01*
X013375Y003750D02*
X022950Y003750D01*
X023350Y004150D01*
X024240Y005865D02*
X024359Y005865D01*
X028400Y004914D02*
X029820Y004914D01*
X030296Y005231D02*
X031204Y005231D01*
X031100Y005389D02*
X030400Y005389D01*
X030400Y005548D02*
X031100Y005548D01*
X031140Y005706D02*
X030360Y005706D01*
X030201Y005865D02*
X031299Y005865D01*
X031150Y006023D02*
X030350Y006023D01*
X030410Y006182D02*
X031090Y006182D01*
X031094Y006340D02*
X030406Y006340D01*
X030331Y006499D02*
X031169Y006499D01*
X031411Y006657D02*
X030089Y006657D01*
X025500Y008875D02*
X025500Y009250D01*
X024332Y008876D02*
X023668Y008876D01*
X023855Y009035D02*
X024145Y009035D01*
X024090Y009193D02*
X023910Y009193D01*
X023902Y009352D02*
X024098Y009352D01*
X024180Y009510D02*
X023820Y009510D01*
X023734Y009669D02*
X024266Y009669D01*
X024107Y009827D02*
X023893Y009827D01*
X023900Y009986D02*
X024100Y009986D01*
X024100Y010144D02*
X023900Y010144D01*
X023750Y010500D02*
X023500Y010250D01*
X023500Y010000D01*
X023750Y010500D02*
X025250Y010500D01*
X025500Y010750D01*
X025500Y011000D01*
X025900Y010937D02*
X026580Y010937D01*
X026580Y011095D02*
X025900Y011095D01*
X025812Y011254D02*
X026660Y011254D01*
X026628Y010778D02*
X025844Y010778D01*
X025706Y010620D02*
X026787Y010620D01*
X025188Y011254D02*
X024840Y011254D01*
X024920Y011095D02*
X025100Y011095D01*
X025100Y010937D02*
X024920Y010937D01*
X024872Y010778D02*
X025156Y010778D01*
X024128Y010778D02*
X023872Y010778D01*
X023920Y010937D02*
X024080Y010937D01*
X024080Y011095D02*
X023920Y011095D01*
X023840Y011254D02*
X024160Y011254D01*
X024238Y011412D02*
X024318Y011412D01*
X024010Y011888D02*
X008615Y011888D01*
X008615Y012046D02*
X017865Y012046D01*
X017706Y012205D02*
X008669Y012205D01*
X008375Y012250D02*
X008625Y012500D01*
X017750Y012500D01*
X018000Y012250D01*
X023375Y012250D01*
X023625Y012500D01*
X023625Y013500D01*
X023875Y013750D01*
X031000Y013750D01*
X031250Y013500D01*
X031250Y013125D01*
X030850Y013156D02*
X030670Y013156D01*
X030655Y013314D02*
X030873Y013314D01*
X030938Y013473D02*
X030496Y013473D01*
X030250Y013125D02*
X029830Y013125D01*
X029830Y012951D01*
X030076Y012705D01*
X030250Y012705D01*
X030250Y013125D01*
X030250Y012997D02*
X030250Y012997D01*
X030250Y012839D02*
X030250Y012839D01*
X030557Y012839D02*
X030971Y012839D01*
X030850Y012997D02*
X030670Y012997D01*
X029943Y012839D02*
X029095Y012839D01*
X029176Y012997D02*
X029830Y012997D01*
X029830Y013156D02*
X029194Y013156D01*
X029154Y013314D02*
X029845Y013314D01*
X030004Y013473D02*
X029037Y013473D01*
X028743Y012997D02*
X028726Y012997D01*
X028726Y012839D02*
X028743Y012839D01*
X028374Y012839D02*
X027102Y012839D01*
X027189Y012997D02*
X028292Y012997D01*
X028274Y013156D02*
X027206Y013156D01*
X027164Y013314D02*
X028314Y013314D01*
X028431Y013473D02*
X027040Y013473D01*
X026491Y013473D02*
X025468Y013473D01*
X025627Y013314D02*
X026368Y013314D01*
X026326Y013156D02*
X025650Y013156D01*
X025650Y012997D02*
X026343Y012997D01*
X026430Y012839D02*
X025529Y012839D01*
X025032Y013473D02*
X024468Y013473D01*
X024627Y013314D02*
X024873Y013314D01*
X023971Y012839D02*
X023865Y012839D01*
X023865Y012680D02*
X024010Y012680D01*
X024010Y012522D02*
X023865Y012522D01*
X023827Y012363D02*
X024010Y012363D01*
X024010Y012205D02*
X023669Y012205D01*
X023510Y012046D02*
X024010Y012046D01*
X023307Y012522D02*
X019490Y012522D01*
X019649Y012680D02*
X022615Y012680D01*
X022627Y012676D02*
X022698Y012665D01*
X022726Y012665D01*
X022726Y013116D01*
X022743Y013116D01*
X022743Y012665D01*
X022770Y012665D01*
X022842Y012676D01*
X022911Y012699D01*
X022975Y012732D01*
X023034Y012774D01*
X023085Y012825D01*
X023128Y012884D01*
X023161Y012948D01*
X023183Y013017D01*
X023194Y013089D01*
X023194Y013116D01*
X022743Y013116D01*
X022743Y013134D01*
X022726Y013134D01*
X022726Y013585D01*
X022698Y013585D01*
X022627Y013574D01*
X022558Y013551D01*
X022493Y013518D01*
X022435Y013476D01*
X022383Y013425D01*
X022341Y013366D01*
X022308Y013302D01*
X022286Y013233D01*
X022274Y013161D01*
X022274Y013134D01*
X022726Y013134D01*
X022726Y013116D01*
X022274Y013116D01*
X022274Y013089D01*
X022286Y013017D01*
X022308Y012948D01*
X022341Y012884D01*
X022383Y012825D01*
X022435Y012774D01*
X022493Y012732D01*
X022558Y012699D01*
X022627Y012676D01*
X022726Y012680D02*
X022743Y012680D01*
X022853Y012680D02*
X023385Y012680D01*
X023385Y012839D02*
X023095Y012839D01*
X023176Y012997D02*
X023385Y012997D01*
X023385Y013156D02*
X023194Y013156D01*
X023194Y013161D02*
X023183Y013233D01*
X023161Y013302D01*
X023128Y013366D01*
X023085Y013425D01*
X023034Y013476D01*
X022975Y013518D01*
X022911Y013551D01*
X022842Y013574D01*
X022770Y013585D01*
X022743Y013585D01*
X022743Y013134D01*
X023194Y013134D01*
X023194Y013161D01*
X023154Y013314D02*
X023385Y013314D01*
X023385Y013473D02*
X023037Y013473D01*
X022743Y013473D02*
X022726Y013473D01*
X022726Y013314D02*
X022743Y013314D01*
X022726Y013156D02*
X022743Y013156D01*
X022726Y012997D02*
X022743Y012997D01*
X022726Y012839D02*
X022743Y012839D01*
X022374Y012839D02*
X021102Y012839D01*
X021189Y012997D02*
X022292Y012997D01*
X022274Y013156D02*
X021206Y013156D01*
X021164Y013314D02*
X022314Y013314D01*
X022431Y013473D02*
X021040Y013473D01*
X020766Y013125D02*
X020266Y013625D01*
X008375Y013625D01*
X008125Y013375D01*
X008125Y011375D01*
X007875Y011125D01*
X007500Y011125D01*
X007779Y011412D02*
X007823Y011412D01*
X007885Y011571D02*
X001758Y011571D01*
X001733Y011511D02*
X001798Y011666D01*
X001798Y011834D01*
X001733Y011989D01*
X001614Y012108D01*
X001459Y012173D01*
X001291Y012173D01*
X001136Y012108D01*
X001017Y011989D01*
X000952Y011834D01*
X000952Y011666D01*
X001017Y011511D01*
X001136Y011392D01*
X001291Y011327D01*
X001459Y011327D01*
X001614Y011392D01*
X001733Y011511D01*
X001635Y011412D02*
X005221Y011412D01*
X005334Y011525D02*
X005100Y011291D01*
X005100Y010959D01*
X005334Y010725D01*
X005666Y010725D01*
X005900Y010959D01*
X005900Y011291D01*
X005666Y011525D01*
X005334Y011525D01*
X005100Y011254D02*
X000230Y011254D01*
X000230Y011412D02*
X001115Y011412D01*
X000992Y011571D02*
X000230Y011571D01*
X000230Y011729D02*
X000952Y011729D01*
X000974Y011888D02*
X000230Y011888D01*
X000230Y012046D02*
X001073Y012046D01*
X001204Y012363D02*
X000230Y012363D01*
X000230Y012205D02*
X006139Y012205D01*
X006100Y012166D02*
X006100Y011834D01*
X006334Y011600D01*
X006666Y011600D01*
X006900Y011834D01*
X006900Y012166D01*
X006666Y012400D01*
X006334Y012400D01*
X006100Y012166D01*
X006100Y012046D02*
X001677Y012046D01*
X001776Y011888D02*
X006100Y011888D01*
X006205Y011729D02*
X001798Y011729D01*
X001545Y011160D02*
X001479Y011182D01*
X001410Y011193D01*
X001383Y011193D01*
X001383Y010758D01*
X001367Y010758D01*
X001367Y011193D01*
X001340Y011193D01*
X001271Y011182D01*
X001205Y011160D01*
X001143Y011129D01*
X001087Y011088D01*
X001037Y011038D01*
X000996Y010982D01*
X000965Y010920D01*
X000943Y010854D01*
X000932Y010785D01*
X000932Y010758D01*
X001367Y010758D01*
X001367Y010742D01*
X000932Y010742D01*
X000932Y010715D01*
X000943Y010646D01*
X000965Y010580D01*
X000996Y010518D01*
X001037Y010462D01*
X001087Y010412D01*
X001143Y010371D01*
X001205Y010340D01*
X001271Y010318D01*
X001340Y010307D01*
X001367Y010307D01*
X001367Y010742D01*
X001383Y010742D01*
X001383Y010758D01*
X001818Y010758D01*
X001818Y010785D01*
X001807Y010854D01*
X001785Y010920D01*
X001754Y010982D01*
X001713Y011038D01*
X001663Y011088D01*
X001607Y011129D01*
X001545Y011160D01*
X001653Y011095D02*
X002029Y011095D01*
X002084Y011150D02*
X001850Y010916D01*
X001850Y010584D01*
X002084Y010350D01*
X002416Y010350D01*
X002650Y010584D01*
X002650Y010916D01*
X002416Y011150D01*
X002084Y011150D01*
X001871Y010937D02*
X001777Y010937D01*
X001818Y010778D02*
X001850Y010778D01*
X001818Y010742D02*
X001383Y010742D01*
X001383Y010307D01*
X001410Y010307D01*
X001479Y010318D01*
X001545Y010340D01*
X001607Y010371D01*
X001663Y010412D01*
X001713Y010462D01*
X001754Y010518D01*
X001785Y010580D01*
X001807Y010646D01*
X001818Y010715D01*
X001818Y010742D01*
X001798Y010620D02*
X001850Y010620D01*
X001973Y010461D02*
X001712Y010461D01*
X001383Y010461D02*
X001367Y010461D01*
X001367Y010620D02*
X001383Y010620D01*
X001367Y010778D02*
X001383Y010778D01*
X001367Y010937D02*
X001383Y010937D01*
X001367Y011095D02*
X001383Y011095D01*
X001097Y011095D02*
X000230Y011095D01*
X000230Y010937D02*
X000973Y010937D01*
X000932Y010778D02*
X000230Y010778D01*
X000230Y010620D02*
X000952Y010620D01*
X001038Y010461D02*
X000230Y010461D01*
X000230Y010303D02*
X005112Y010303D01*
X005100Y010291D02*
X005100Y009959D01*
X005334Y009725D01*
X005666Y009725D01*
X005900Y009959D01*
X005900Y010291D01*
X005666Y010525D01*
X005334Y010525D01*
X005100Y010291D01*
X005100Y010144D02*
X004422Y010144D01*
X004416Y010150D02*
X004084Y010150D01*
X003850Y009916D01*
X003850Y009652D01*
X003832Y009660D01*
X003668Y009660D01*
X003525Y009601D01*
X003525Y009916D01*
X003291Y010150D01*
X002959Y010150D01*
X002725Y009916D01*
X002725Y009584D01*
X002959Y009350D01*
X003291Y009350D01*
X003388Y009447D01*
X003340Y009332D01*
X003340Y009168D01*
X003402Y009018D01*
X003518Y008902D01*
X003668Y008840D01*
X003832Y008840D01*
X003982Y008902D01*
X004098Y009018D01*
X004160Y009168D01*
X004160Y009332D01*
X004152Y009350D01*
X004348Y009350D01*
X004340Y009332D01*
X004340Y009168D01*
X004402Y009018D01*
X004510Y008910D01*
X004510Y008849D01*
X004047Y008386D01*
X004010Y008298D01*
X004010Y006570D01*
X003982Y006598D01*
X003832Y006660D01*
X003668Y006660D01*
X003548Y006610D01*
X002774Y006610D01*
X002610Y006774D01*
X002610Y009544D01*
X002650Y009584D01*
X002650Y009916D01*
X002416Y010150D01*
X002084Y010150D01*
X001850Y009916D01*
X001850Y009584D01*
X001890Y009544D01*
X001890Y006553D01*
X001945Y006421D01*
X002320Y006046D01*
X002421Y005945D01*
X002553Y005890D01*
X003390Y005890D01*
X003390Y003503D01*
X003285Y003398D01*
X003202Y003198D01*
X003202Y002981D01*
X003285Y002782D01*
X003438Y002629D01*
X003637Y002546D01*
X003854Y002546D01*
X004054Y002629D01*
X004207Y002782D01*
X004260Y002910D01*
X004260Y001361D01*
X004235Y001361D01*
X004207Y001429D01*
X004054Y001582D01*
X003854Y001665D01*
X003637Y001665D01*
X003438Y001582D01*
X003285Y001429D01*
X003202Y001229D01*
X003202Y001013D01*
X003285Y000813D01*
X003438Y000660D01*
X003637Y000577D01*
X003854Y000577D01*
X004054Y000660D01*
X004207Y000813D01*
X004235Y000881D01*
X004419Y000881D01*
X004507Y000918D01*
X004636Y001047D01*
X004703Y001114D01*
X004740Y001202D01*
X004740Y004423D01*
X004703Y004511D01*
X004490Y004724D01*
X004490Y005069D01*
X004584Y004975D01*
X004916Y004975D01*
X005150Y005209D01*
X005150Y005541D01*
X004916Y005775D01*
X004584Y005775D01*
X004490Y005681D01*
X004490Y005907D01*
X004525Y005882D01*
X004585Y005852D01*
X004649Y005831D01*
X004716Y005820D01*
X004750Y005820D01*
X004784Y005820D01*
X004851Y005831D01*
X004915Y005852D01*
X004975Y005882D01*
X005030Y005922D01*
X005078Y005970D01*
X005118Y006025D01*
X005148Y006085D01*
X005169Y006149D01*
X005180Y006216D01*
X005180Y006250D01*
X005180Y006284D01*
X005169Y006351D01*
X005148Y006415D01*
X005118Y006475D01*
X005078Y006530D01*
X005030Y006578D01*
X004975Y006618D01*
X004915Y006648D01*
X004851Y006669D01*
X004784Y006680D01*
X004750Y006680D01*
X004750Y006250D01*
X004750Y006250D01*
X005180Y006250D01*
X004750Y006250D01*
X004750Y006250D01*
X004750Y006680D01*
X004716Y006680D01*
X004649Y006669D01*
X004585Y006648D01*
X004525Y006618D01*
X004490Y006593D01*
X004490Y008151D01*
X004886Y008547D01*
X004953Y008614D01*
X004990Y008702D01*
X004990Y008910D01*
X005098Y009018D01*
X005160Y009168D01*
X005160Y009332D01*
X005098Y009482D01*
X004982Y009598D01*
X004832Y009660D01*
X004668Y009660D01*
X004650Y009652D01*
X004650Y009916D01*
X004416Y010150D01*
X004416Y010350D02*
X004084Y010350D01*
X003850Y010584D01*
X003850Y010916D01*
X004084Y011150D01*
X004416Y011150D01*
X004650Y010916D01*
X004650Y010584D01*
X004416Y010350D01*
X004527Y010461D02*
X005270Y010461D01*
X005281Y010778D02*
X004650Y010778D01*
X004650Y010620D02*
X008135Y010620D01*
X008135Y010778D02*
X007719Y010778D01*
X007730Y010461D02*
X008135Y010461D01*
X008375Y010250D02*
X008375Y012250D01*
X007885Y012205D02*
X007861Y012205D01*
X007885Y012363D02*
X007703Y012363D01*
X007885Y012522D02*
X005128Y012522D01*
X005108Y012502D02*
X005232Y012626D01*
X005299Y012787D01*
X005299Y012963D01*
X005232Y013124D01*
X005108Y013248D01*
X004947Y013315D01*
X004772Y013315D01*
X004610Y013248D01*
X004486Y013124D01*
X004419Y012963D01*
X004419Y012787D01*
X004486Y012626D01*
X004610Y012502D01*
X004772Y012435D01*
X004947Y012435D01*
X005108Y012502D01*
X005255Y012680D02*
X006254Y012680D01*
X006334Y012600D02*
X006100Y012834D01*
X006100Y013166D01*
X006334Y013400D01*
X006666Y013400D01*
X006900Y013166D01*
X006900Y012834D01*
X006666Y012600D01*
X006334Y012600D01*
X006297Y012363D02*
X001546Y012363D01*
X001614Y012392D02*
X001733Y012511D01*
X001798Y012666D01*
X001798Y012834D01*
X001733Y012989D01*
X001614Y013108D01*
X001459Y013173D01*
X001291Y013173D01*
X001136Y013108D01*
X001017Y012989D01*
X000952Y012834D01*
X000952Y012666D01*
X001017Y012511D01*
X001136Y012392D01*
X001291Y012327D01*
X001459Y012327D01*
X001614Y012392D01*
X001738Y012522D02*
X002595Y012522D01*
X002591Y012524D02*
X002650Y012482D01*
X002714Y012449D01*
X002783Y012426D01*
X002855Y012415D01*
X002882Y012415D01*
X002882Y012866D01*
X002899Y012866D01*
X002899Y012415D01*
X002927Y012415D01*
X002998Y012426D01*
X003067Y012449D01*
X003132Y012482D01*
X003190Y012524D01*
X003242Y012575D01*
X003284Y012634D01*
X003317Y012698D01*
X003339Y012767D01*
X003351Y012839D01*
X003351Y012866D01*
X002899Y012866D01*
X002899Y012884D01*
X002882Y012884D01*
X002882Y013335D01*
X002855Y013335D01*
X002783Y013324D01*
X002714Y013301D01*
X002650Y013268D01*
X002591Y013226D01*
X002540Y013175D01*
X002497Y013116D01*
X002464Y013052D01*
X002442Y012983D01*
X002431Y012911D01*
X002431Y012884D01*
X002882Y012884D01*
X002882Y012866D01*
X002431Y012866D01*
X002431Y012839D01*
X002442Y012767D01*
X002464Y012698D01*
X002497Y012634D01*
X002540Y012575D01*
X002591Y012524D01*
X002474Y012680D02*
X001798Y012680D01*
X001796Y012839D02*
X002431Y012839D01*
X002447Y012997D02*
X001726Y012997D01*
X001501Y013156D02*
X002526Y013156D01*
X002753Y013314D02*
X000230Y013314D01*
X000230Y013156D02*
X001249Y013156D01*
X001024Y012997D02*
X000230Y012997D01*
X000230Y012839D02*
X000954Y012839D01*
X000952Y012680D02*
X000230Y012680D01*
X000230Y012522D02*
X001012Y012522D01*
X000230Y013473D02*
X007906Y013473D01*
X007885Y013314D02*
X007752Y013314D01*
X008042Y013631D02*
X000230Y013631D01*
X000230Y013790D02*
X008200Y013790D01*
X007248Y013314D02*
X006752Y013314D01*
X006900Y013156D02*
X007100Y013156D01*
X007100Y012997D02*
X006900Y012997D01*
X006900Y012839D02*
X007100Y012839D01*
X007254Y012680D02*
X006746Y012680D01*
X006703Y012363D02*
X007297Y012363D01*
X007139Y012205D02*
X006861Y012205D01*
X006900Y012046D02*
X007100Y012046D01*
X007100Y011888D02*
X006900Y011888D01*
X006795Y011729D02*
X007205Y011729D01*
X007795Y011729D02*
X007885Y011729D01*
X008615Y011729D02*
X023015Y011729D01*
X022856Y011571D02*
X008615Y011571D01*
X008615Y011412D02*
X008818Y011412D01*
X009000Y011412D02*
X009000Y011412D01*
X009000Y011254D02*
X009000Y011254D01*
X009000Y011095D02*
X009000Y011095D01*
X009000Y010937D02*
X009000Y010937D01*
X009000Y010778D02*
X009000Y010778D01*
X009000Y010620D02*
X009000Y010620D01*
X009213Y010620D02*
X009787Y010620D01*
X009826Y010580D02*
X009580Y010826D01*
X009580Y011000D01*
X010000Y011000D01*
X010000Y010580D01*
X009826Y010580D01*
X010000Y010620D02*
X010000Y010620D01*
X010000Y010778D02*
X010000Y010778D01*
X010000Y010937D02*
X010000Y010937D01*
X010000Y011095D02*
X010000Y011095D01*
X010000Y011254D02*
X010000Y011254D01*
X010000Y011412D02*
X010000Y011412D01*
X010182Y011412D02*
X010818Y011412D01*
X011000Y011412D02*
X011000Y011412D01*
X011000Y011254D02*
X011000Y011254D01*
X011000Y011095D02*
X011000Y011095D01*
X011182Y011412D02*
X013318Y011412D01*
X013500Y011412D02*
X013500Y011412D01*
X013500Y011254D02*
X013500Y011254D01*
X013500Y011095D02*
X013500Y011095D01*
X013500Y010937D02*
X013500Y010937D01*
X013500Y010778D02*
X013500Y010778D01*
X013500Y010620D02*
X013500Y010620D01*
X013713Y010620D02*
X014287Y010620D01*
X014372Y010461D02*
X013175Y010461D01*
X013215Y010620D02*
X013287Y010620D01*
X013080Y010937D02*
X013011Y010937D01*
X013080Y011095D02*
X012400Y011095D01*
X012400Y010937D02*
X012739Y010937D01*
X012570Y010778D02*
X012344Y010778D01*
X012185Y010620D02*
X012535Y010620D01*
X012575Y010461D02*
X011800Y010461D01*
X011737Y010303D02*
X011642Y010303D01*
X011600Y010144D02*
X011400Y010144D01*
X011400Y009986D02*
X011600Y009986D01*
X011607Y009827D02*
X011393Y009827D01*
X011234Y009669D02*
X011766Y009669D01*
X011680Y009510D02*
X011320Y009510D01*
X011402Y009352D02*
X011598Y009352D01*
X011590Y009193D02*
X011410Y009193D01*
X011355Y009035D02*
X011645Y009035D01*
X011760Y008876D02*
X011168Y008876D01*
X010832Y008876D02*
X010168Y008876D01*
X010355Y009035D02*
X010645Y009035D01*
X010590Y009193D02*
X010410Y009193D01*
X010402Y009352D02*
X010598Y009352D01*
X010680Y009510D02*
X010320Y009510D01*
X010234Y009669D02*
X010766Y009669D01*
X010607Y009827D02*
X010393Y009827D01*
X010400Y009986D02*
X010600Y009986D01*
X010600Y010144D02*
X010400Y010144D01*
X010375Y010500D02*
X010000Y010125D01*
X010000Y010000D01*
X009600Y009986D02*
X009400Y009986D01*
X009400Y009834D02*
X009400Y010166D01*
X009166Y010400D01*
X008834Y010400D01*
X008600Y010166D01*
X008600Y009834D01*
X008817Y009618D01*
X008768Y009598D01*
X008652Y009482D01*
X008590Y009332D01*
X008590Y009168D01*
X008652Y009018D01*
X008768Y008902D01*
X008918Y008840D01*
X009082Y008840D01*
X009232Y008902D01*
X009348Y009018D01*
X009410Y009168D01*
X009410Y009332D01*
X009348Y009482D01*
X009232Y009598D01*
X009183Y009618D01*
X009400Y009834D01*
X009393Y009827D02*
X009607Y009827D01*
X009766Y009669D02*
X009234Y009669D01*
X009320Y009510D02*
X009680Y009510D01*
X009598Y009352D02*
X009402Y009352D01*
X009410Y009193D02*
X009590Y009193D01*
X009645Y009035D02*
X009355Y009035D01*
X009168Y008876D02*
X009831Y008876D01*
X010345Y008559D02*
X006990Y008559D01*
X006990Y008401D02*
X010260Y008401D01*
X010260Y008242D02*
X006990Y008242D01*
X006990Y008084D02*
X010260Y008084D01*
X010260Y007925D02*
X006990Y007925D01*
X006990Y007767D02*
X010260Y007767D01*
X010260Y007608D02*
X006989Y007608D01*
X006989Y007450D02*
X010260Y007450D01*
X010260Y007291D02*
X006882Y007291D01*
X006724Y007133D02*
X010260Y007133D01*
X010260Y006974D02*
X006565Y006974D01*
X006497Y006816D02*
X010260Y006816D01*
X010260Y006657D02*
X010139Y006657D01*
X010000Y006657D02*
X010000Y006657D01*
X010000Y006680D02*
X009966Y006680D01*
X009899Y006669D01*
X009835Y006648D01*
X009775Y006618D01*
X009720Y006578D01*
X009672Y006530D01*
X009632Y006475D01*
X009602Y006415D01*
X009581Y006351D01*
X009570Y006284D01*
X009570Y006250D01*
X010000Y006250D01*
X010000Y006250D01*
X010000Y006250D01*
X010000Y006680D01*
X009861Y006657D02*
X009089Y006657D01*
X009082Y006660D02*
X008918Y006660D01*
X008768Y006598D01*
X008695Y006524D01*
X008549Y006670D01*
X008375Y006670D01*
X008375Y006250D01*
X008375Y006250D01*
X008375Y005830D01*
X008549Y005830D01*
X008695Y005976D01*
X008768Y005902D01*
X008918Y005840D01*
X009082Y005840D01*
X009232Y005902D01*
X009348Y006018D01*
X009410Y006168D01*
X009410Y006332D01*
X009348Y006482D01*
X009232Y006598D01*
X009082Y006660D01*
X008911Y006657D02*
X008562Y006657D01*
X008375Y006657D02*
X008375Y006657D01*
X008375Y006670D02*
X008201Y006670D01*
X007955Y006424D01*
X007955Y006250D01*
X008375Y006250D01*
X008375Y006250D01*
X008375Y006250D01*
X008375Y006670D01*
X008375Y006499D02*
X008375Y006499D01*
X008375Y006340D02*
X008375Y006340D01*
X008375Y006250D02*
X007955Y006250D01*
X007955Y006076D01*
X008201Y005830D01*
X008375Y005830D01*
X008375Y006250D01*
X008375Y006182D02*
X008375Y006182D01*
X008375Y006023D02*
X008375Y006023D01*
X008375Y005865D02*
X008375Y005865D01*
X008485Y005706D02*
X010242Y005706D01*
X010260Y005865D02*
X010191Y005865D01*
X010000Y005865D02*
X010000Y005865D01*
X010000Y005820D02*
X010000Y006250D01*
X009570Y006250D01*
X009570Y006216D01*
X009581Y006149D01*
X009602Y006085D01*
X009632Y006025D01*
X009672Y005970D01*
X009720Y005922D01*
X009775Y005882D01*
X009835Y005852D01*
X009899Y005831D01*
X009966Y005820D01*
X010000Y005820D01*
X009809Y005865D02*
X009141Y005865D01*
X009350Y006023D02*
X009633Y006023D01*
X009575Y006182D02*
X009410Y006182D01*
X009406Y006340D02*
X009579Y006340D01*
X009649Y006499D02*
X009331Y006499D01*
X010000Y006499D02*
X010000Y006499D01*
X010000Y006340D02*
X010000Y006340D01*
X010000Y006182D02*
X010000Y006182D01*
X010000Y006023D02*
X010000Y006023D01*
X010083Y005548D02*
X008643Y005548D01*
X008650Y005389D02*
X008698Y005389D01*
X008583Y005865D02*
X008859Y005865D01*
X008167Y005865D02*
X007555Y005865D01*
X007714Y006023D02*
X008008Y006023D01*
X007955Y006182D02*
X007775Y006182D01*
X007775Y006340D02*
X007955Y006340D01*
X008030Y006499D02*
X007692Y006499D01*
X008188Y006657D02*
X006839Y006657D01*
X006661Y006657D02*
X006497Y006657D01*
X006017Y006657D02*
X005839Y006657D01*
X005661Y006657D02*
X004889Y006657D01*
X004750Y006657D02*
X004750Y006657D01*
X004611Y006657D02*
X004490Y006657D01*
X004490Y006816D02*
X006017Y006816D01*
X006017Y006974D02*
X004490Y006974D01*
X004490Y007133D02*
X006050Y007133D01*
X006203Y007291D02*
X004490Y007291D01*
X004490Y007450D02*
X006362Y007450D01*
X006509Y007608D02*
X004490Y007608D01*
X004490Y007767D02*
X006510Y007767D01*
X006510Y007925D02*
X004490Y007925D01*
X004490Y008084D02*
X006510Y008084D01*
X006510Y008242D02*
X004581Y008242D01*
X004740Y008401D02*
X006510Y008401D01*
X006510Y008559D02*
X004898Y008559D01*
X004990Y008718D02*
X006510Y008718D01*
X006510Y008876D02*
X005963Y008876D01*
X005975Y008882D02*
X006030Y008922D01*
X006078Y008970D01*
X006118Y009025D01*
X006148Y009085D01*
X006169Y009149D01*
X006180Y009216D01*
X006180Y009250D01*
X006180Y009284D01*
X006169Y009351D01*
X006148Y009415D01*
X006118Y009475D01*
X006078Y009530D01*
X006030Y009578D01*
X005975Y009618D01*
X005915Y009648D01*
X005851Y009669D01*
X005784Y009680D01*
X005750Y009680D01*
X005750Y009250D01*
X005750Y009250D01*
X006180Y009250D01*
X005750Y009250D01*
X005750Y009250D01*
X005750Y009250D01*
X005320Y009250D01*
X005320Y009284D01*
X005331Y009351D01*
X005352Y009415D01*
X005382Y009475D01*
X005422Y009530D01*
X005470Y009578D01*
X005525Y009618D01*
X005585Y009648D01*
X005649Y009669D01*
X005716Y009680D01*
X005750Y009680D01*
X005750Y009250D01*
X005750Y008820D01*
X005784Y008820D01*
X005851Y008831D01*
X005915Y008852D01*
X005975Y008882D01*
X006123Y009035D02*
X006395Y009035D01*
X006340Y009193D02*
X006176Y009193D01*
X006169Y009352D02*
X006348Y009352D01*
X006430Y009510D02*
X006093Y009510D01*
X005853Y009669D02*
X008766Y009669D01*
X008680Y009510D02*
X007070Y009510D01*
X007152Y009352D02*
X008598Y009352D01*
X008590Y009193D02*
X007160Y009193D01*
X007105Y009035D02*
X008645Y009035D01*
X008831Y008876D02*
X006990Y008876D01*
X006990Y008718D02*
X010503Y008718D01*
X010750Y008625D02*
X010500Y008375D01*
X010500Y005625D01*
X010000Y005125D01*
X009698Y005389D02*
X009302Y005389D01*
X009400Y005231D02*
X009600Y005231D01*
X009600Y005072D02*
X009400Y005072D01*
X009354Y004914D02*
X009646Y004914D01*
X009804Y004755D02*
X009196Y004755D01*
X009344Y004597D02*
X009656Y004597D01*
X009600Y004438D02*
X009400Y004438D01*
X009400Y004280D02*
X009600Y004280D01*
X009688Y004121D02*
X009312Y004121D01*
X008875Y003875D02*
X008500Y004250D01*
X008375Y004250D01*
X008250Y004375D01*
X008875Y003875D02*
X010375Y003875D01*
X010500Y004000D01*
X012625Y004000D01*
X012875Y004250D01*
X012875Y010625D01*
X013115Y010303D02*
X013237Y010303D01*
X013763Y010303D02*
X014237Y010303D01*
X014100Y010144D02*
X013900Y010144D01*
X013900Y009986D02*
X014100Y009986D01*
X014107Y009827D02*
X013893Y009827D01*
X013734Y009669D02*
X014266Y009669D01*
X014180Y009510D02*
X013820Y009510D01*
X013902Y009352D02*
X014098Y009352D01*
X014090Y009193D02*
X013910Y009193D01*
X013855Y009035D02*
X014145Y009035D01*
X014331Y008876D02*
X013668Y008876D01*
X013331Y008876D02*
X013115Y008876D01*
X013115Y008718D02*
X015003Y008718D01*
X014845Y008559D02*
X013115Y008559D01*
X013115Y008401D02*
X014760Y008401D01*
X014760Y008242D02*
X013115Y008242D01*
X013115Y008084D02*
X014760Y008084D01*
X014760Y007925D02*
X013115Y007925D01*
X013115Y007767D02*
X014760Y007767D01*
X014760Y007608D02*
X013115Y007608D01*
X013115Y007450D02*
X014760Y007450D01*
X014760Y007291D02*
X013115Y007291D01*
X013115Y007133D02*
X014760Y007133D01*
X014760Y006974D02*
X013115Y006974D01*
X013115Y006816D02*
X014760Y006816D01*
X014760Y006657D02*
X014639Y006657D01*
X014500Y006657D02*
X014500Y006657D01*
X014500Y006680D02*
X014466Y006680D01*
X014399Y006669D01*
X014335Y006648D01*
X014275Y006618D01*
X014220Y006578D01*
X014172Y006530D01*
X014132Y006475D01*
X014102Y006415D01*
X014081Y006351D01*
X014070Y006284D01*
X014070Y006250D01*
X014500Y006250D01*
X014500Y006250D01*
X014500Y006250D01*
X014500Y006680D01*
X014361Y006657D02*
X013589Y006657D01*
X013411Y006657D02*
X013115Y006657D01*
X013115Y006499D02*
X013169Y006499D01*
X013831Y006499D02*
X014149Y006499D01*
X014079Y006340D02*
X013906Y006340D01*
X013910Y006182D02*
X014075Y006182D01*
X014081Y006149D02*
X014102Y006085D01*
X014132Y006025D01*
X014172Y005970D01*
X014220Y005922D01*
X014275Y005882D01*
X014335Y005852D01*
X014399Y005831D01*
X014466Y005820D01*
X014500Y005820D01*
X014500Y006250D01*
X014070Y006250D01*
X014070Y006216D01*
X014081Y006149D01*
X014133Y006023D02*
X013850Y006023D01*
X013641Y005865D02*
X014309Y005865D01*
X014500Y005865D02*
X014500Y005865D01*
X014500Y006023D02*
X014500Y006023D01*
X014500Y006182D02*
X014500Y006182D01*
X014500Y006340D02*
X014500Y006340D01*
X014500Y006499D02*
X014500Y006499D01*
X015240Y006657D02*
X015411Y006657D01*
X015589Y006657D02*
X016411Y006657D01*
X016418Y006660D02*
X016268Y006598D01*
X016152Y006482D01*
X016090Y006332D01*
X016090Y006168D01*
X016152Y006018D01*
X016268Y005902D01*
X016317Y005882D01*
X016100Y005666D01*
X016100Y005334D01*
X016334Y005100D01*
X016666Y005100D01*
X016900Y005334D01*
X016900Y005666D01*
X016683Y005882D01*
X016732Y005902D01*
X016848Y006018D01*
X016910Y006168D01*
X016910Y006332D01*
X016848Y006482D01*
X016732Y006598D01*
X016582Y006660D01*
X016418Y006660D01*
X016589Y006657D02*
X017911Y006657D01*
X017918Y006660D02*
X017768Y006598D01*
X017652Y006482D01*
X017590Y006332D01*
X017590Y006168D01*
X017652Y006018D01*
X017768Y005902D01*
X017918Y005840D01*
X018082Y005840D01*
X018232Y005902D01*
X018348Y006018D01*
X018410Y006168D01*
X018410Y006332D01*
X018348Y006482D01*
X018232Y006598D01*
X018082Y006660D01*
X017918Y006660D01*
X018089Y006657D02*
X018861Y006657D01*
X018835Y006648D02*
X018775Y006618D01*
X018720Y006578D01*
X018672Y006530D01*
X018632Y006475D01*
X018602Y006415D01*
X018581Y006351D01*
X018570Y006284D01*
X018570Y006250D01*
X019000Y006250D01*
X019000Y006250D01*
X019000Y006250D01*
X019000Y006680D01*
X018966Y006680D01*
X018899Y006669D01*
X018835Y006648D01*
X019000Y006657D02*
X019000Y006657D01*
X019139Y006657D02*
X019260Y006657D01*
X019260Y006816D02*
X015240Y006816D01*
X015240Y006974D02*
X019260Y006974D01*
X019260Y007133D02*
X015240Y007133D01*
X015240Y007291D02*
X019260Y007291D01*
X019260Y007450D02*
X015240Y007450D01*
X015240Y007608D02*
X019260Y007608D01*
X019260Y007767D02*
X015240Y007767D01*
X015240Y007925D02*
X019260Y007925D01*
X019260Y008084D02*
X015240Y008084D01*
X015240Y008242D02*
X019260Y008242D01*
X019260Y008401D02*
X016460Y008401D01*
X016375Y008625D02*
X015250Y008625D01*
X015000Y008375D01*
X015000Y005750D01*
X014500Y005250D01*
X014900Y005231D02*
X016204Y005231D01*
X016100Y005389D02*
X014978Y005389D01*
X015137Y005548D02*
X016100Y005548D01*
X016140Y005706D02*
X015240Y005706D01*
X015240Y005865D02*
X015359Y005865D01*
X015641Y005865D02*
X016299Y005865D01*
X016150Y006023D02*
X015850Y006023D01*
X015910Y006182D02*
X016090Y006182D01*
X016094Y006340D02*
X015906Y006340D01*
X015831Y006499D02*
X016169Y006499D01*
X016831Y006499D02*
X017669Y006499D01*
X017594Y006340D02*
X016906Y006340D01*
X016910Y006182D02*
X017590Y006182D01*
X017650Y006023D02*
X016850Y006023D01*
X016701Y005865D02*
X017859Y005865D01*
X017765Y005706D02*
X016860Y005706D01*
X016900Y005548D02*
X017607Y005548D01*
X017600Y005389D02*
X016900Y005389D01*
X016796Y005231D02*
X017600Y005231D01*
X017737Y005072D02*
X014888Y005072D01*
X014729Y004914D02*
X016320Y004914D01*
X016500Y004914D02*
X016500Y004914D01*
X016500Y004755D02*
X016500Y004755D01*
X016500Y004597D02*
X016500Y004597D01*
X016839Y004755D02*
X017600Y004755D01*
X017600Y004597D02*
X016920Y004597D01*
X016920Y004438D02*
X017621Y004438D01*
X017780Y004280D02*
X016873Y004280D01*
X016127Y004280D02*
X014845Y004280D01*
X014900Y004438D02*
X016080Y004438D01*
X016080Y004597D02*
X014900Y004597D01*
X014811Y004755D02*
X016161Y004755D01*
X016680Y004914D02*
X017723Y004914D01*
X018393Y005548D02*
X018607Y005548D01*
X018765Y005706D02*
X018235Y005706D01*
X018141Y005865D02*
X018809Y005865D01*
X018835Y005852D02*
X018775Y005882D01*
X018720Y005922D01*
X018672Y005970D01*
X018632Y006025D01*
X018602Y006085D01*
X018581Y006149D01*
X018570Y006216D01*
X018570Y006250D01*
X019000Y006250D01*
X019000Y005820D01*
X018966Y005820D01*
X018899Y005831D01*
X018835Y005852D01*
X019000Y005865D02*
X019000Y005865D01*
X019000Y006023D02*
X019000Y006023D01*
X019000Y006182D02*
X019000Y006182D01*
X019000Y006340D02*
X019000Y006340D01*
X019000Y006499D02*
X019000Y006499D01*
X018649Y006499D02*
X018331Y006499D01*
X018406Y006340D02*
X018579Y006340D01*
X018575Y006182D02*
X018410Y006182D01*
X018350Y006023D02*
X018633Y006023D01*
X019191Y005865D02*
X019260Y005865D01*
X014760Y005865D02*
X014691Y005865D01*
X014617Y005706D02*
X013115Y005706D01*
X013115Y005548D02*
X013232Y005548D01*
X013115Y005865D02*
X013359Y005865D01*
X013150Y006023D02*
X013115Y006023D01*
X012635Y006023D02*
X012350Y006023D01*
X012348Y006018D02*
X012410Y006168D01*
X012410Y006332D01*
X012348Y006482D01*
X012232Y006598D01*
X012082Y006660D01*
X011918Y006660D01*
X011768Y006598D01*
X011652Y006482D01*
X011590Y006332D01*
X011590Y006168D01*
X011652Y006018D01*
X011768Y005902D01*
X011817Y005882D01*
X011600Y005666D01*
X011600Y005334D01*
X011834Y005100D01*
X012166Y005100D01*
X012400Y005334D01*
X012400Y005666D01*
X012183Y005882D01*
X012232Y005902D01*
X012348Y006018D01*
X012410Y006182D02*
X012635Y006182D01*
X012635Y006340D02*
X012406Y006340D01*
X012331Y006499D02*
X012635Y006499D01*
X012635Y006657D02*
X012089Y006657D01*
X011911Y006657D02*
X011089Y006657D01*
X010911Y006657D02*
X010740Y006657D01*
X010740Y006816D02*
X012635Y006816D01*
X012635Y006974D02*
X010740Y006974D01*
X010740Y007133D02*
X012635Y007133D01*
X012635Y007291D02*
X010740Y007291D01*
X010740Y007450D02*
X012635Y007450D01*
X012635Y007608D02*
X010740Y007608D01*
X010740Y007767D02*
X012635Y007767D01*
X012635Y007925D02*
X010740Y007925D01*
X010740Y008084D02*
X012635Y008084D01*
X012635Y008242D02*
X010740Y008242D01*
X010750Y008625D02*
X011875Y008625D01*
X012000Y008750D01*
X012000Y009250D01*
X012320Y009510D02*
X012635Y009510D01*
X012635Y009352D02*
X012402Y009352D01*
X012410Y009193D02*
X012635Y009193D01*
X012635Y009035D02*
X012355Y009035D01*
X012240Y008876D02*
X012635Y008876D01*
X012635Y008718D02*
X012240Y008718D01*
X012148Y008559D02*
X012635Y008559D01*
X012635Y008401D02*
X011960Y008401D01*
X013115Y009035D02*
X013145Y009035D01*
X012635Y009669D02*
X012234Y009669D01*
X012393Y009827D02*
X012635Y009827D01*
X012635Y009986D02*
X012400Y009986D01*
X012400Y010144D02*
X012635Y010144D01*
X012635Y010303D02*
X012263Y010303D01*
X012000Y011000D02*
X011500Y010500D01*
X010375Y010500D01*
X010372Y010778D02*
X010628Y010778D01*
X010580Y010937D02*
X010420Y010937D01*
X010420Y011095D02*
X010580Y011095D01*
X010660Y011254D02*
X010340Y011254D01*
X009818Y011412D02*
X009182Y011412D01*
X009340Y011254D02*
X009660Y011254D01*
X009580Y011095D02*
X009420Y011095D01*
X009420Y010937D02*
X009580Y010937D01*
X009628Y010778D02*
X009372Y010778D01*
X009997Y010461D02*
X008615Y010461D01*
X008615Y010303D02*
X008737Y010303D01*
X008600Y010144D02*
X008593Y010144D01*
X008600Y009986D02*
X008383Y009986D01*
X008375Y010250D02*
X008125Y010125D01*
X007500Y010125D01*
X007100Y010144D02*
X006900Y010144D01*
X006900Y010291D02*
X006900Y009959D01*
X006666Y009725D01*
X006334Y009725D01*
X006100Y009959D01*
X006100Y010291D01*
X006334Y010525D01*
X006666Y010525D01*
X006900Y010291D01*
X006888Y010303D02*
X007112Y010303D01*
X007270Y010461D02*
X006730Y010461D01*
X006666Y010725D02*
X006900Y010959D01*
X006900Y011291D01*
X006666Y011525D01*
X006334Y011525D01*
X006100Y011291D01*
X006100Y010959D01*
X006334Y010725D01*
X006666Y010725D01*
X006719Y010778D02*
X007281Y010778D01*
X007123Y010937D02*
X006877Y010937D01*
X006900Y011095D02*
X007100Y011095D01*
X007100Y011254D02*
X006900Y011254D01*
X006779Y011412D02*
X007221Y011412D01*
X008026Y010937D02*
X008135Y010937D01*
X008615Y010778D02*
X008628Y010778D01*
X008615Y010620D02*
X008787Y010620D01*
X009263Y010303D02*
X009737Y010303D01*
X009600Y010144D02*
X009400Y010144D01*
X008607Y009827D02*
X007768Y009827D01*
X007232Y009827D02*
X006768Y009827D01*
X006900Y009986D02*
X007100Y009986D01*
X006232Y009827D02*
X005768Y009827D01*
X005750Y009669D02*
X005750Y009669D01*
X005647Y009669D02*
X004650Y009669D01*
X004650Y009827D02*
X005232Y009827D01*
X005100Y009986D02*
X004580Y009986D01*
X004078Y010144D02*
X003297Y010144D01*
X003299Y010330D02*
X003125Y010330D01*
X003125Y010750D01*
X003125Y010750D01*
X003125Y011170D01*
X003299Y011170D01*
X003545Y010924D01*
X003545Y010750D01*
X003125Y010750D01*
X003125Y010750D01*
X003125Y010750D01*
X002705Y010750D01*
X002705Y010924D01*
X002951Y011170D01*
X003125Y011170D01*
X003125Y010750D01*
X003545Y010750D01*
X003545Y010576D01*
X003299Y010330D01*
X003125Y010330D02*
X003125Y010750D01*
X003125Y010750D01*
X002705Y010750D01*
X002705Y010576D01*
X002951Y010330D01*
X003125Y010330D01*
X003125Y010461D02*
X003125Y010461D01*
X003125Y010620D02*
X003125Y010620D01*
X003125Y010778D02*
X003125Y010778D01*
X003125Y010937D02*
X003125Y010937D01*
X003125Y011095D02*
X003125Y011095D01*
X003374Y011095D02*
X004029Y011095D01*
X003871Y010937D02*
X003532Y010937D01*
X003545Y010778D02*
X003850Y010778D01*
X003850Y010620D02*
X003545Y010620D01*
X003430Y010461D02*
X003973Y010461D01*
X003920Y009986D02*
X003455Y009986D01*
X003525Y009827D02*
X003850Y009827D01*
X003850Y009669D02*
X003525Y009669D01*
X003348Y009352D02*
X003292Y009352D01*
X003340Y009193D02*
X002610Y009193D01*
X002610Y009035D02*
X003395Y009035D01*
X003581Y008876D02*
X002610Y008876D01*
X002610Y008718D02*
X004378Y008718D01*
X004510Y008876D02*
X003918Y008876D01*
X004105Y009035D02*
X004395Y009035D01*
X004340Y009193D02*
X004160Y009193D01*
X004750Y009250D02*
X004750Y008750D01*
X004250Y008250D01*
X004250Y004625D01*
X004500Y004375D01*
X004500Y001250D01*
X004371Y001121D01*
X003746Y001121D01*
X004186Y000793D02*
X005274Y000793D01*
X005196Y000951D02*
X004540Y000951D01*
X004699Y001110D02*
X005170Y001110D01*
X005186Y001268D02*
X004740Y001268D01*
X004740Y001427D02*
X005252Y001427D01*
X005413Y001585D02*
X004740Y001585D01*
X004740Y001744D02*
X005997Y001744D01*
X006156Y001902D02*
X004740Y001902D01*
X004740Y002061D02*
X006173Y002061D01*
X006173Y002219D02*
X004740Y002219D01*
X004740Y002378D02*
X006173Y002378D01*
X006173Y002536D02*
X004740Y002536D01*
X004740Y002695D02*
X005340Y002695D01*
X005223Y002853D02*
X004740Y002853D01*
X004740Y003012D02*
X005170Y003012D01*
X005170Y003170D02*
X004740Y003170D01*
X004740Y003329D02*
X005224Y003329D01*
X005342Y003487D02*
X004740Y003487D01*
X004740Y003646D02*
X006088Y003646D01*
X006086Y003487D02*
X006173Y003487D01*
X006413Y003660D02*
X006257Y003816D01*
X006257Y007005D01*
X006749Y007497D01*
X006749Y007698D01*
X006750Y007699D01*
X006750Y009250D01*
X005750Y009250D02*
X005750Y009250D01*
X005320Y009250D01*
X005320Y009216D01*
X005331Y009149D01*
X005352Y009085D01*
X005382Y009025D01*
X005422Y008970D01*
X005470Y008922D01*
X005525Y008882D01*
X005585Y008852D01*
X005649Y008831D01*
X005716Y008820D01*
X005750Y008820D01*
X005750Y009250D01*
X005750Y009193D02*
X005750Y009193D01*
X005750Y009035D02*
X005750Y009035D01*
X005750Y008876D02*
X005750Y008876D01*
X005537Y008876D02*
X004990Y008876D01*
X005105Y009035D02*
X005377Y009035D01*
X005324Y009193D02*
X005160Y009193D01*
X005152Y009352D02*
X005331Y009352D01*
X005407Y009510D02*
X005070Y009510D01*
X005750Y009510D02*
X005750Y009510D01*
X005750Y009352D02*
X005750Y009352D01*
X004220Y008559D02*
X002610Y008559D01*
X002610Y008401D02*
X004061Y008401D01*
X004010Y008242D02*
X002610Y008242D01*
X002610Y008084D02*
X004010Y008084D01*
X004010Y007925D02*
X002610Y007925D01*
X002610Y007767D02*
X004010Y007767D01*
X004010Y007608D02*
X002610Y007608D01*
X002610Y007450D02*
X004010Y007450D01*
X004010Y007291D02*
X002610Y007291D01*
X002610Y007133D02*
X004010Y007133D01*
X004010Y006974D02*
X002610Y006974D01*
X002610Y006816D02*
X004010Y006816D01*
X004010Y006657D02*
X003839Y006657D01*
X003661Y006657D02*
X002727Y006657D01*
X002026Y006340D02*
X001546Y006340D01*
X001545Y006340D02*
X001607Y006371D01*
X001663Y006412D01*
X001713Y006462D01*
X001754Y006518D01*
X001785Y006580D01*
X001807Y006646D01*
X001818Y006715D01*
X001818Y006742D01*
X001383Y006742D01*
X001383Y006758D01*
X001367Y006758D01*
X001367Y007193D01*
X001340Y007193D01*
X001271Y007182D01*
X001205Y007160D01*
X001143Y007129D01*
X001087Y007088D01*
X001037Y007038D01*
X000996Y006982D01*
X000965Y006920D01*
X000943Y006854D01*
X000932Y006785D01*
X000932Y006758D01*
X001367Y006758D01*
X001367Y006742D01*
X000932Y006742D01*
X000932Y006715D01*
X000943Y006646D01*
X000965Y006580D01*
X000996Y006518D01*
X001037Y006462D01*
X001087Y006412D01*
X001143Y006371D01*
X001205Y006340D01*
X001271Y006318D01*
X001340Y006307D01*
X001367Y006307D01*
X001367Y006742D01*
X001383Y006742D01*
X001383Y006307D01*
X001410Y006307D01*
X001479Y006318D01*
X001545Y006340D01*
X001383Y006340D02*
X001367Y006340D01*
X001367Y006499D02*
X001383Y006499D01*
X001367Y006657D02*
X001383Y006657D01*
X001383Y006758D02*
X001818Y006758D01*
X001818Y006785D01*
X001807Y006854D01*
X001785Y006920D01*
X001754Y006982D01*
X001713Y007038D01*
X001663Y007088D01*
X001607Y007129D01*
X001545Y007160D01*
X001479Y007182D01*
X001410Y007193D01*
X001383Y007193D01*
X001383Y006758D01*
X001383Y006816D02*
X001367Y006816D01*
X001367Y006974D02*
X001383Y006974D01*
X001367Y007133D02*
X001383Y007133D01*
X001459Y007327D02*
X001614Y007392D01*
X001733Y007511D01*
X001798Y007666D01*
X001798Y007834D01*
X001733Y007989D01*
X001614Y008108D01*
X001459Y008173D01*
X001291Y008173D01*
X001136Y008108D01*
X001017Y007989D01*
X000952Y007834D01*
X000952Y007666D01*
X001017Y007511D01*
X001136Y007392D01*
X001291Y007327D01*
X001459Y007327D01*
X001600Y007133D02*
X001890Y007133D01*
X001890Y007291D02*
X000230Y007291D01*
X000230Y007133D02*
X001150Y007133D01*
X000992Y006974D02*
X000230Y006974D01*
X000230Y006816D02*
X000937Y006816D01*
X000941Y006657D02*
X000230Y006657D01*
X000230Y006499D02*
X001010Y006499D01*
X001204Y006340D02*
X000230Y006340D01*
X000230Y006182D02*
X002184Y006182D01*
X002343Y006023D02*
X000230Y006023D01*
X000230Y005865D02*
X003390Y005865D01*
X003390Y005706D02*
X000230Y005706D01*
X000230Y005548D02*
X003390Y005548D01*
X003390Y005389D02*
X000230Y005389D01*
X000230Y005231D02*
X003390Y005231D01*
X003390Y005072D02*
X000230Y005072D01*
X000230Y004914D02*
X003390Y004914D01*
X003390Y004755D02*
X000230Y004755D01*
X000230Y004597D02*
X003390Y004597D01*
X003390Y004438D02*
X000230Y004438D01*
X000230Y004280D02*
X003390Y004280D01*
X003390Y004121D02*
X000230Y004121D01*
X000230Y003963D02*
X003390Y003963D01*
X003390Y003804D02*
X000230Y003804D01*
X000230Y003646D02*
X003390Y003646D01*
X003374Y003487D02*
X000230Y003487D01*
X000230Y003329D02*
X003256Y003329D01*
X003202Y003170D02*
X000230Y003170D01*
X000230Y003012D02*
X003202Y003012D01*
X003255Y002853D02*
X000230Y002853D01*
X000230Y002695D02*
X003372Y002695D01*
X004120Y002695D02*
X004260Y002695D01*
X004260Y002853D02*
X004236Y002853D01*
X004260Y002536D02*
X000230Y002536D01*
X000230Y002378D02*
X004260Y002378D01*
X004260Y002219D02*
X000230Y002219D01*
X000230Y002061D02*
X004260Y002061D01*
X004260Y001902D02*
X001494Y001902D01*
X001652Y001744D02*
X004260Y001744D01*
X004260Y001585D02*
X004047Y001585D01*
X004208Y001427D02*
X004260Y001427D01*
X003444Y001585D02*
X001738Y001585D01*
X001804Y001427D02*
X003283Y001427D01*
X003218Y001268D02*
X001810Y001268D01*
X001810Y001110D02*
X003202Y001110D01*
X003227Y000951D02*
X001753Y000951D01*
X001687Y000793D02*
X003305Y000793D01*
X003500Y000634D02*
X001530Y000634D01*
X000230Y000317D02*
X034080Y000317D01*
X033963Y000476D02*
X032190Y000476D01*
X032348Y000634D02*
X033916Y000634D01*
X033916Y000793D02*
X033424Y000793D01*
X033533Y000951D02*
X033916Y000951D01*
X033916Y001110D02*
X033567Y001110D01*
X033546Y001268D02*
X033765Y001268D01*
X034750Y001625D02*
X034750Y000875D01*
X035250Y001125D02*
X035500Y000875D01*
X035750Y000875D01*
X036075Y000634D02*
X036214Y000634D01*
X036229Y000793D02*
X036150Y000793D01*
X036150Y000951D02*
X036325Y000951D01*
X036081Y001110D02*
X037815Y001110D01*
X037815Y001268D02*
X035959Y001268D01*
X036117Y001427D02*
X037821Y001427D01*
X037887Y001585D02*
X036150Y001585D01*
X036150Y001744D02*
X037973Y001744D01*
X038131Y001902D02*
X036039Y001902D01*
X036001Y002061D02*
X039395Y002061D01*
X039395Y002219D02*
X036150Y002219D01*
X035250Y002125D02*
X035250Y001125D01*
X036525Y000317D02*
X039395Y000317D01*
X039395Y000476D02*
X038872Y000476D01*
X039155Y000634D02*
X039395Y000634D01*
X039395Y000793D02*
X039312Y000793D01*
X039378Y000951D02*
X039395Y000951D01*
X039363Y001585D02*
X039395Y001585D01*
X039395Y001744D02*
X039277Y001744D01*
X039395Y001902D02*
X039119Y001902D01*
X037872Y000951D02*
X036800Y000951D01*
X036895Y000793D02*
X037938Y000793D01*
X038095Y000634D02*
X036900Y000634D01*
X036811Y000476D02*
X038378Y000476D01*
X034750Y002375D02*
X034750Y003125D01*
X032600Y002750D02*
X029125Y002750D01*
X029375Y002000D02*
X029125Y001750D01*
X029125Y001175D01*
X029175Y001125D01*
X028864Y000793D02*
X028699Y000793D01*
X028076Y000793D02*
X024424Y000793D01*
X024533Y000951D02*
X027967Y000951D01*
X027933Y001110D02*
X027050Y001110D01*
X026450Y001110D02*
X026050Y001110D01*
X026150Y001268D02*
X026350Y001268D01*
X026350Y001427D02*
X026150Y001427D01*
X026106Y001585D02*
X026229Y001585D01*
X026070Y001744D02*
X025947Y001744D01*
X025350Y001268D02*
X024546Y001268D01*
X024567Y001110D02*
X025450Y001110D01*
X023801Y000793D02*
X023636Y000793D01*
X023473Y000634D02*
X030652Y000634D01*
X030810Y000476D02*
X023315Y000476D01*
X023125Y000625D02*
X023375Y000875D01*
X023375Y001075D01*
X023325Y001125D01*
X023125Y000625D02*
X022000Y000625D01*
X021750Y000875D01*
X021750Y001125D01*
X021439Y000793D02*
X021274Y000793D01*
X020651Y000793D02*
X020487Y000793D01*
X020175Y001125D02*
X020250Y001200D01*
X020250Y001750D01*
X020500Y002000D01*
X022875Y002000D01*
X019864Y000793D02*
X019699Y000793D01*
X026750Y002125D02*
X026750Y003000D01*
X029375Y002000D02*
X031720Y001917D01*
X032325Y001125D02*
X032250Y001050D01*
X032250Y000875D01*
X032000Y000625D01*
X031000Y000625D01*
X030750Y000875D01*
X030750Y001125D01*
X030439Y000793D02*
X030274Y000793D01*
X029651Y000793D02*
X029487Y000793D01*
X032636Y000793D02*
X032801Y000793D01*
X022760Y008401D02*
X020835Y008401D01*
X020750Y008625D02*
X019750Y008625D01*
X019500Y008375D01*
X019345Y008559D02*
X016648Y008559D01*
X016740Y008718D02*
X019503Y008718D01*
X019832Y008876D02*
X019168Y008876D01*
X019355Y009035D02*
X019645Y009035D01*
X019590Y009193D02*
X019410Y009193D01*
X019402Y009352D02*
X019598Y009352D01*
X019680Y009510D02*
X019320Y009510D01*
X019234Y009669D02*
X019766Y009669D01*
X019607Y009827D02*
X019393Y009827D01*
X019400Y009986D02*
X019600Y009986D01*
X019600Y010144D02*
X019400Y010144D01*
X019250Y010500D02*
X019000Y010250D01*
X019000Y010000D01*
X018600Y009986D02*
X018400Y009986D01*
X018400Y009834D02*
X018400Y010166D01*
X018166Y010400D01*
X017834Y010400D01*
X017600Y010166D01*
X017600Y009834D01*
X017817Y009618D01*
X017768Y009598D01*
X017652Y009482D01*
X017590Y009332D01*
X017590Y009168D01*
X017652Y009018D01*
X017768Y008902D01*
X017918Y008840D01*
X018082Y008840D01*
X018232Y008902D01*
X018348Y009018D01*
X018410Y009168D01*
X018410Y009332D01*
X018348Y009482D01*
X018232Y009598D01*
X018183Y009618D01*
X018400Y009834D01*
X018393Y009827D02*
X018607Y009827D01*
X018766Y009669D02*
X018234Y009669D01*
X018320Y009510D02*
X018680Y009510D01*
X018598Y009352D02*
X018402Y009352D01*
X018410Y009193D02*
X018590Y009193D01*
X018645Y009035D02*
X018355Y009035D01*
X018168Y008876D02*
X018831Y008876D01*
X017831Y008876D02*
X016740Y008876D01*
X016855Y009035D02*
X017645Y009035D01*
X017590Y009193D02*
X016910Y009193D01*
X016902Y009352D02*
X017598Y009352D01*
X017680Y009510D02*
X016820Y009510D01*
X016734Y009669D02*
X017766Y009669D01*
X017607Y009827D02*
X016893Y009827D01*
X016900Y009986D02*
X017600Y009986D01*
X017600Y010144D02*
X016900Y010144D01*
X016763Y010303D02*
X017737Y010303D01*
X017826Y010580D02*
X017580Y010826D01*
X017580Y011000D01*
X018000Y011000D01*
X018000Y011000D01*
X018000Y011420D01*
X018174Y011420D01*
X018420Y011174D01*
X018420Y011000D01*
X018000Y011000D01*
X018000Y011000D01*
X018000Y011000D01*
X018000Y011420D01*
X017826Y011420D01*
X017580Y011174D01*
X017580Y011000D01*
X018000Y011000D01*
X018420Y011000D01*
X018420Y010826D01*
X018174Y010580D01*
X018000Y010580D01*
X018000Y011000D01*
X018000Y011000D01*
X018000Y010580D01*
X017826Y010580D01*
X017787Y010620D02*
X016740Y010620D01*
X016675Y010461D02*
X018872Y010461D01*
X018787Y010620D02*
X018213Y010620D01*
X018000Y010620D02*
X018000Y010620D01*
X018000Y010778D02*
X018000Y010778D01*
X018000Y010937D02*
X018000Y010937D01*
X018000Y011095D02*
X018000Y011095D01*
X018000Y011254D02*
X018000Y011254D01*
X018000Y011412D02*
X018000Y011412D01*
X018182Y011412D02*
X018818Y011412D01*
X019000Y011412D02*
X019000Y011412D01*
X019000Y011254D02*
X019000Y011254D01*
X019000Y011095D02*
X019000Y011095D01*
X019182Y011412D02*
X019818Y011412D01*
X020000Y011412D02*
X020000Y011412D01*
X020000Y011254D02*
X020000Y011254D01*
X020000Y011095D02*
X020000Y011095D01*
X020182Y011412D02*
X022318Y011412D01*
X022326Y011420D02*
X022080Y011174D01*
X022080Y011000D01*
X022500Y011000D01*
X022500Y011000D01*
X022500Y011000D01*
X022500Y011420D01*
X022326Y011420D01*
X022500Y011412D02*
X022500Y011412D01*
X022500Y011254D02*
X022500Y011254D01*
X022500Y011095D02*
X022500Y011095D01*
X022500Y011000D02*
X022080Y011000D01*
X022080Y010826D01*
X022326Y010580D01*
X022500Y010580D01*
X022500Y011000D01*
X022500Y010937D02*
X022500Y010937D01*
X022500Y010778D02*
X022500Y010778D01*
X022500Y010620D02*
X022500Y010620D01*
X022713Y010620D02*
X022760Y010620D01*
X022760Y010461D02*
X021050Y010461D01*
X021206Y010620D02*
X022287Y010620D01*
X022128Y010778D02*
X021344Y010778D01*
X021400Y010937D02*
X022080Y010937D01*
X022080Y011095D02*
X021400Y011095D01*
X021312Y011254D02*
X022160Y011254D01*
X022682Y011412D02*
X022760Y011412D01*
X021000Y011000D02*
X021000Y010750D01*
X020750Y010500D01*
X019250Y010500D01*
X019372Y010778D02*
X019628Y010778D01*
X019580Y010937D02*
X019420Y010937D01*
X019420Y011095D02*
X019580Y011095D01*
X019660Y011254D02*
X019340Y011254D01*
X018660Y011254D02*
X018340Y011254D01*
X018420Y011095D02*
X018580Y011095D01*
X018580Y010937D02*
X018420Y010937D01*
X018372Y010778D02*
X018628Y010778D01*
X018737Y010303D02*
X018263Y010303D01*
X018400Y010144D02*
X018600Y010144D01*
X017628Y010778D02*
X016844Y010778D01*
X016900Y010937D02*
X017580Y010937D01*
X017580Y011095D02*
X016900Y011095D01*
X016812Y011254D02*
X017660Y011254D01*
X017818Y011412D02*
X015682Y011412D01*
X015500Y011412D02*
X015500Y011412D01*
X015500Y011254D02*
X015500Y011254D01*
X015500Y011095D02*
X015500Y011095D01*
X015318Y011412D02*
X014682Y011412D01*
X014500Y011412D02*
X014500Y011412D01*
X014500Y011254D02*
X014500Y011254D01*
X014500Y011095D02*
X014500Y011095D01*
X014318Y011412D02*
X013682Y011412D01*
X013840Y011254D02*
X014160Y011254D01*
X014080Y011095D02*
X013920Y011095D01*
X013920Y010937D02*
X014080Y010937D01*
X014128Y010778D02*
X013872Y010778D01*
X014500Y010250D02*
X014750Y010500D01*
X016375Y010500D01*
X016500Y010625D01*
X016500Y011000D01*
X016100Y010937D02*
X015920Y010937D01*
X015920Y011095D02*
X016100Y011095D01*
X016188Y011254D02*
X015840Y011254D01*
X015160Y011254D02*
X014840Y011254D01*
X014920Y011095D02*
X015080Y011095D01*
X015080Y010937D02*
X014920Y010937D01*
X014872Y010778D02*
X015128Y010778D01*
X015872Y010778D02*
X016156Y010778D01*
X015100Y010144D02*
X014900Y010144D01*
X014900Y009986D02*
X015100Y009986D01*
X015107Y009827D02*
X014893Y009827D01*
X014734Y009669D02*
X015266Y009669D01*
X015180Y009510D02*
X014820Y009510D01*
X014902Y009352D02*
X015098Y009352D01*
X015090Y009193D02*
X014910Y009193D01*
X014855Y009035D02*
X015145Y009035D01*
X015332Y008876D02*
X014668Y008876D01*
X016375Y008625D02*
X016500Y008750D01*
X016500Y009250D01*
X014500Y010000D02*
X014500Y010250D01*
X013160Y011254D02*
X012312Y011254D01*
X011688Y011254D02*
X011340Y011254D01*
X011420Y011095D02*
X011600Y011095D01*
X011597Y010937D02*
X011420Y010937D01*
X011439Y010778D02*
X011372Y010778D01*
X008660Y011254D02*
X008615Y011254D01*
X006281Y010778D02*
X005719Y010778D01*
X005877Y010937D02*
X006123Y010937D01*
X006100Y011095D02*
X005900Y011095D01*
X005900Y011254D02*
X006100Y011254D01*
X006221Y011412D02*
X005779Y011412D01*
X005100Y011095D02*
X004471Y011095D01*
X004629Y010937D02*
X005123Y010937D01*
X005730Y010461D02*
X006270Y010461D01*
X006112Y010303D02*
X005888Y010303D01*
X005900Y010144D02*
X006100Y010144D01*
X006100Y009986D02*
X005900Y009986D01*
X002953Y010144D02*
X002422Y010144D01*
X002580Y009986D02*
X002795Y009986D01*
X002725Y009827D02*
X002650Y009827D01*
X002650Y009669D02*
X002725Y009669D01*
X002799Y009510D02*
X002610Y009510D01*
X002610Y009352D02*
X002958Y009352D01*
X001890Y009352D02*
X000230Y009352D01*
X000230Y009510D02*
X001890Y009510D01*
X001850Y009669D02*
X000230Y009669D01*
X000230Y009827D02*
X001850Y009827D01*
X001920Y009986D02*
X000230Y009986D01*
X000230Y010144D02*
X002078Y010144D01*
X002527Y010461D02*
X002820Y010461D01*
X002705Y010620D02*
X002650Y010620D01*
X002650Y010778D02*
X002705Y010778D01*
X002718Y010937D02*
X002629Y010937D01*
X002471Y011095D02*
X002876Y011095D01*
X002882Y012522D02*
X002899Y012522D01*
X002882Y012680D02*
X002899Y012680D01*
X002882Y012839D02*
X002899Y012839D01*
X002899Y012884D02*
X003351Y012884D01*
X003351Y012911D01*
X003339Y012983D01*
X003317Y013052D01*
X003284Y013116D01*
X003242Y013175D01*
X003190Y013226D01*
X003132Y013268D01*
X003067Y013301D01*
X002998Y013324D01*
X002927Y013335D01*
X002899Y013335D01*
X002899Y012884D01*
X002899Y012997D02*
X002882Y012997D01*
X002882Y013156D02*
X002899Y013156D01*
X002882Y013314D02*
X002899Y013314D01*
X003028Y013314D02*
X004769Y013314D01*
X004949Y013314D02*
X006248Y013314D01*
X006100Y013156D02*
X005201Y013156D01*
X005285Y012997D02*
X006100Y012997D01*
X006100Y012839D02*
X005299Y012839D01*
X004590Y012522D02*
X003187Y012522D01*
X003308Y012680D02*
X004464Y012680D01*
X004419Y012839D02*
X003351Y012839D01*
X003335Y012997D02*
X004434Y012997D01*
X004518Y013156D02*
X003256Y013156D01*
X003201Y014830D02*
X003375Y014830D01*
X003549Y014830D01*
X003795Y015076D01*
X003795Y015250D01*
X003795Y015424D01*
X003549Y015670D01*
X003375Y015670D01*
X003375Y015250D01*
X003795Y015250D01*
X003375Y015250D01*
X003375Y015250D01*
X003375Y015250D01*
X003375Y014830D01*
X003375Y015250D01*
X003375Y015250D01*
X003375Y015250D01*
X002955Y015250D01*
X002955Y015424D01*
X003201Y015670D01*
X003375Y015670D01*
X003375Y015250D01*
X002955Y015250D01*
X002955Y015076D01*
X003201Y014830D01*
X003132Y014899D02*
X000317Y014899D01*
X000279Y014741D02*
X039395Y014741D01*
X039395Y014899D02*
X008256Y014899D01*
X008233Y014877D02*
X008357Y015001D01*
X008424Y015162D01*
X008424Y015338D01*
X008357Y015499D01*
X008233Y015623D01*
X008072Y015690D01*
X007897Y015690D01*
X007735Y015623D01*
X007611Y015499D01*
X007544Y015338D01*
X007544Y015162D01*
X007611Y015001D01*
X007735Y014877D01*
X007897Y014810D01*
X008072Y014810D01*
X008233Y014877D01*
X008381Y015058D02*
X009377Y015058D01*
X009459Y014975D02*
X009791Y014975D01*
X010025Y015209D01*
X010025Y015541D01*
X009791Y015775D01*
X009459Y015775D01*
X009225Y015541D01*
X009225Y015209D01*
X009459Y014975D01*
X009225Y015216D02*
X008424Y015216D01*
X008409Y015375D02*
X009225Y015375D01*
X009225Y015533D02*
X008323Y015533D01*
X007645Y015533D02*
X006355Y015533D01*
X006389Y015499D02*
X006265Y015623D01*
X006103Y015690D01*
X005928Y015690D01*
X005767Y015623D01*
X005643Y015499D01*
X005576Y015338D01*
X005576Y015162D01*
X005643Y015001D01*
X005767Y014877D01*
X005928Y014810D01*
X006103Y014810D01*
X006265Y014877D01*
X006389Y015001D01*
X006456Y015162D01*
X006456Y015338D01*
X006389Y015499D01*
X006440Y015375D02*
X007560Y015375D01*
X007544Y015216D02*
X006456Y015216D01*
X006412Y015058D02*
X007588Y015058D01*
X007713Y014899D02*
X006287Y014899D01*
X005744Y014899D02*
X004590Y014899D01*
X004541Y014850D02*
X004775Y015084D01*
X004775Y015416D01*
X004541Y015650D01*
X004209Y015650D01*
X003975Y015416D01*
X003975Y015084D01*
X004209Y014850D01*
X004541Y014850D01*
X004748Y015058D02*
X005619Y015058D01*
X005576Y015216D02*
X004775Y015216D01*
X004775Y015375D02*
X005591Y015375D01*
X005677Y015533D02*
X004658Y015533D01*
X004092Y015533D02*
X003686Y015533D01*
X003795Y015375D02*
X003975Y015375D01*
X003975Y015216D02*
X003795Y015216D01*
X003776Y015058D02*
X004002Y015058D01*
X004160Y014899D02*
X003618Y014899D01*
X003375Y014899D02*
X003375Y014899D01*
X003375Y015058D02*
X003375Y015058D01*
X003375Y015216D02*
X003375Y015216D01*
X003375Y015375D02*
X003375Y015375D01*
X003375Y015533D02*
X003375Y015533D01*
X003064Y015533D02*
X000661Y015533D01*
X000531Y015375D02*
X002955Y015375D01*
X002955Y015216D02*
X000450Y015216D01*
X000369Y015058D02*
X002974Y015058D01*
X002856Y016009D02*
X001267Y016009D01*
X001004Y015850D02*
X039395Y015850D01*
X039395Y015692D02*
X038040Y015692D01*
X037983Y015748D02*
X037822Y015815D01*
X037647Y015815D01*
X037485Y015748D01*
X037361Y015624D01*
X037294Y015463D01*
X037294Y015287D01*
X037361Y015126D01*
X037485Y015002D01*
X037647Y014935D01*
X037822Y014935D01*
X037983Y015002D01*
X038107Y015126D01*
X038174Y015287D01*
X038174Y015463D01*
X038107Y015624D01*
X037983Y015748D01*
X037429Y015692D02*
X036071Y015692D01*
X036015Y015748D02*
X036139Y015624D01*
X036206Y015463D01*
X036206Y015287D01*
X036139Y015126D01*
X036015Y015002D01*
X035853Y014935D01*
X035678Y014935D01*
X035517Y015002D01*
X035393Y015126D01*
X035326Y015287D01*
X035326Y015463D01*
X035393Y015624D01*
X035517Y015748D01*
X035678Y015815D01*
X035853Y015815D01*
X036015Y015748D01*
X036177Y015533D02*
X037323Y015533D01*
X037294Y015375D02*
X036206Y015375D01*
X036176Y015216D02*
X037324Y015216D01*
X037429Y015058D02*
X036071Y015058D01*
X035461Y015058D02*
X034373Y015058D01*
X034291Y014975D02*
X034525Y015209D01*
X034525Y015541D01*
X034291Y015775D01*
X033959Y015775D01*
X033725Y015541D01*
X033725Y015209D01*
X033959Y014975D01*
X034291Y014975D01*
X034525Y015216D02*
X035355Y015216D01*
X035326Y015375D02*
X034525Y015375D01*
X034525Y015533D02*
X035355Y015533D01*
X035460Y015692D02*
X034374Y015692D01*
X033876Y015692D02*
X033402Y015692D01*
X033299Y015795D02*
X033545Y015549D01*
X033545Y015375D01*
X033125Y015375D01*
X033125Y015375D01*
X033125Y015375D01*
X033125Y015795D01*
X033299Y015795D01*
X033125Y015795D02*
X032951Y015795D01*
X032705Y015549D01*
X032705Y015375D01*
X033125Y015375D01*
X033545Y015375D01*
X033545Y015201D01*
X033299Y014955D01*
X033125Y014955D01*
X033125Y015375D01*
X033125Y015375D01*
X033125Y015375D01*
X033125Y015795D01*
X033125Y015692D02*
X033125Y015692D01*
X033125Y015533D02*
X033125Y015533D01*
X033125Y015375D02*
X032705Y015375D01*
X032705Y015201D01*
X032951Y014955D01*
X033125Y014955D01*
X033125Y015375D01*
X033125Y015375D01*
X033125Y015216D02*
X033125Y015216D01*
X033125Y015058D02*
X033125Y015058D01*
X033401Y015058D02*
X033877Y015058D01*
X033725Y015216D02*
X033545Y015216D01*
X033545Y015375D02*
X033725Y015375D01*
X033725Y015533D02*
X033545Y015533D01*
X032848Y015692D02*
X032068Y015692D01*
X032085Y015675D02*
X032034Y015726D01*
X031975Y015768D01*
X031911Y015801D01*
X031842Y015824D01*
X031770Y015835D01*
X031743Y015835D01*
X031743Y015384D01*
X031726Y015384D01*
X031726Y015835D01*
X031698Y015835D01*
X031627Y015824D01*
X031558Y015801D01*
X031493Y015768D01*
X031435Y015726D01*
X031383Y015675D01*
X031341Y015616D01*
X031308Y015552D01*
X031286Y015483D01*
X031274Y015411D01*
X031274Y015384D01*
X031726Y015384D01*
X031726Y015366D01*
X031743Y015366D01*
X031743Y014915D01*
X031770Y014915D01*
X031842Y014926D01*
X031911Y014949D01*
X031975Y014982D01*
X032034Y015024D01*
X032085Y015075D01*
X032128Y015134D01*
X032161Y015198D01*
X032183Y015267D01*
X032194Y015339D01*
X032194Y015366D01*
X031743Y015366D01*
X031743Y015384D01*
X032194Y015384D01*
X032194Y015411D01*
X032183Y015483D01*
X032161Y015552D01*
X032128Y015616D01*
X032085Y015675D01*
X032167Y015533D02*
X032705Y015533D01*
X032705Y015375D02*
X031743Y015375D01*
X031726Y015375D02*
X030206Y015375D01*
X030206Y015463D02*
X030139Y015624D01*
X030015Y015748D01*
X029853Y015815D01*
X029678Y015815D01*
X029517Y015748D01*
X029393Y015624D01*
X029326Y015463D01*
X029326Y015287D01*
X029393Y015126D01*
X029517Y015002D01*
X029678Y014935D01*
X029853Y014935D01*
X030015Y015002D01*
X030139Y015126D01*
X030206Y015287D01*
X030206Y015463D01*
X030177Y015533D02*
X031302Y015533D01*
X031274Y015366D02*
X031274Y015339D01*
X031286Y015267D01*
X031308Y015198D01*
X031341Y015134D01*
X031383Y015075D01*
X031435Y015024D01*
X031493Y014982D01*
X031558Y014949D01*
X031627Y014926D01*
X031698Y014915D01*
X031726Y014915D01*
X031726Y015366D01*
X031274Y015366D01*
X031302Y015216D02*
X030176Y015216D01*
X030071Y015058D02*
X031401Y015058D01*
X031726Y015058D02*
X031743Y015058D01*
X031726Y015216D02*
X031743Y015216D01*
X031726Y015533D02*
X031743Y015533D01*
X031726Y015692D02*
X031743Y015692D01*
X031400Y015692D02*
X030071Y015692D01*
X029460Y015692D02*
X026068Y015692D01*
X026085Y015675D02*
X026034Y015726D01*
X025975Y015768D01*
X025911Y015801D01*
X025842Y015824D01*
X025770Y015835D01*
X025743Y015835D01*
X025743Y015384D01*
X025726Y015384D01*
X025726Y015835D01*
X025698Y015835D01*
X025627Y015824D01*
X025558Y015801D01*
X025493Y015768D01*
X025435Y015726D01*
X025383Y015675D01*
X025341Y015616D01*
X025308Y015552D01*
X025286Y015483D01*
X025274Y015411D01*
X025274Y015384D01*
X025726Y015384D01*
X025726Y015366D01*
X025743Y015366D01*
X025743Y014915D01*
X025770Y014915D01*
X025842Y014926D01*
X025911Y014949D01*
X025975Y014982D01*
X026034Y015024D01*
X026085Y015075D01*
X026128Y015134D01*
X026161Y015198D01*
X026183Y015267D01*
X026194Y015339D01*
X026194Y015366D01*
X025743Y015366D01*
X025743Y015384D01*
X026194Y015384D01*
X026194Y015411D01*
X026183Y015483D01*
X026161Y015552D01*
X026128Y015616D01*
X026085Y015675D01*
X026167Y015533D02*
X029355Y015533D01*
X029326Y015375D02*
X025743Y015375D01*
X025726Y015375D02*
X024206Y015375D01*
X024206Y015463D02*
X024139Y015624D01*
X024015Y015748D01*
X023853Y015815D01*
X023678Y015815D01*
X023517Y015748D01*
X023393Y015624D01*
X023326Y015463D01*
X023326Y015287D01*
X023393Y015126D01*
X023517Y015002D01*
X023678Y014935D01*
X023853Y014935D01*
X024015Y015002D01*
X024139Y015126D01*
X024206Y015287D01*
X024206Y015463D01*
X024177Y015533D02*
X025302Y015533D01*
X025274Y015366D02*
X025274Y015339D01*
X025286Y015267D01*
X025308Y015198D01*
X025341Y015134D01*
X025383Y015075D01*
X025435Y015024D01*
X025493Y014982D01*
X025558Y014949D01*
X025627Y014926D01*
X025698Y014915D01*
X025726Y014915D01*
X025726Y015366D01*
X025274Y015366D01*
X025302Y015216D02*
X024176Y015216D01*
X024071Y015058D02*
X025401Y015058D01*
X025726Y015058D02*
X025743Y015058D01*
X025726Y015216D02*
X025743Y015216D01*
X025726Y015533D02*
X025743Y015533D01*
X025726Y015692D02*
X025743Y015692D01*
X025400Y015692D02*
X024071Y015692D01*
X023460Y015692D02*
X022499Y015692D01*
X022416Y015775D02*
X022084Y015775D01*
X021850Y015541D01*
X021850Y015209D01*
X022084Y014975D01*
X022416Y014975D01*
X022650Y015209D01*
X022650Y015541D01*
X022416Y015775D01*
X022001Y015692D02*
X021499Y015692D01*
X021416Y015775D02*
X021650Y015541D01*
X021650Y015209D01*
X021416Y014975D01*
X021084Y014975D01*
X020850Y015209D01*
X020850Y015541D01*
X021084Y015775D01*
X021416Y015775D01*
X021001Y015692D02*
X020068Y015692D01*
X020085Y015675D02*
X020034Y015726D01*
X019975Y015768D01*
X019911Y015801D01*
X019842Y015824D01*
X019770Y015835D01*
X019743Y015835D01*
X019743Y015384D01*
X019726Y015384D01*
X019726Y015835D01*
X019698Y015835D01*
X019627Y015824D01*
X019558Y015801D01*
X019493Y015768D01*
X019435Y015726D01*
X019383Y015675D01*
X019341Y015616D01*
X019308Y015552D01*
X019286Y015483D01*
X019274Y015411D01*
X019274Y015384D01*
X019726Y015384D01*
X019726Y015366D01*
X019743Y015366D01*
X019743Y014915D01*
X019770Y014915D01*
X019842Y014926D01*
X019911Y014949D01*
X019975Y014982D01*
X020034Y015024D01*
X020085Y015075D01*
X020128Y015134D01*
X020161Y015198D01*
X020183Y015267D01*
X020194Y015339D01*
X020194Y015366D01*
X019743Y015366D01*
X019743Y015384D01*
X020194Y015384D01*
X020194Y015411D01*
X020183Y015483D01*
X020161Y015552D01*
X020128Y015616D01*
X020085Y015675D01*
X020167Y015533D02*
X020850Y015533D01*
X020850Y015375D02*
X019743Y015375D01*
X019726Y015375D02*
X018206Y015375D01*
X018206Y015463D02*
X018139Y015624D01*
X018015Y015748D01*
X017853Y015815D01*
X017678Y015815D01*
X017517Y015748D01*
X017393Y015624D01*
X017326Y015463D01*
X017326Y015287D01*
X017393Y015126D01*
X017517Y015002D01*
X017678Y014935D01*
X017853Y014935D01*
X018015Y015002D01*
X018139Y015126D01*
X018206Y015287D01*
X018206Y015463D01*
X018177Y015533D02*
X019302Y015533D01*
X019274Y015366D02*
X019274Y015339D01*
X019286Y015267D01*
X019308Y015198D01*
X019341Y015134D01*
X019383Y015075D01*
X019435Y015024D01*
X019493Y014982D01*
X019558Y014949D01*
X019627Y014926D01*
X019698Y014915D01*
X019726Y014915D01*
X019726Y015366D01*
X019274Y015366D01*
X019302Y015216D02*
X018176Y015216D01*
X018071Y015058D02*
X019401Y015058D01*
X019726Y015058D02*
X019743Y015058D01*
X019726Y015216D02*
X019743Y015216D01*
X019726Y015533D02*
X019743Y015533D01*
X019726Y015692D02*
X019743Y015692D01*
X019400Y015692D02*
X018071Y015692D01*
X017460Y015692D02*
X016624Y015692D01*
X016541Y015775D02*
X016775Y015541D01*
X016775Y015209D01*
X016541Y014975D01*
X016209Y014975D01*
X015975Y015209D01*
X015975Y015541D01*
X016209Y015775D01*
X016541Y015775D01*
X016126Y015692D02*
X015624Y015692D01*
X015541Y015775D02*
X015209Y015775D01*
X014975Y015541D01*
X014975Y015209D01*
X015209Y014975D01*
X015541Y014975D01*
X015775Y015209D01*
X015775Y015541D01*
X015541Y015775D01*
X015126Y015692D02*
X014290Y015692D01*
X014233Y015748D02*
X014357Y015624D01*
X014424Y015463D01*
X014424Y015287D01*
X014357Y015126D01*
X014233Y015002D01*
X014072Y014935D01*
X013897Y014935D01*
X013735Y015002D01*
X013611Y015126D01*
X013544Y015287D01*
X013544Y015463D01*
X013611Y015624D01*
X013735Y015748D01*
X013897Y015815D01*
X014072Y015815D01*
X014233Y015748D01*
X013679Y015692D02*
X012350Y015692D01*
X012367Y015675D02*
X012315Y015726D01*
X012257Y015768D01*
X012192Y015801D01*
X012123Y015824D01*
X012052Y015835D01*
X012024Y015835D01*
X012024Y015384D01*
X012007Y015384D01*
X012007Y015835D01*
X011980Y015835D01*
X011908Y015824D01*
X011839Y015801D01*
X011775Y015768D01*
X011716Y015726D01*
X011665Y015675D01*
X011622Y015616D01*
X011589Y015552D01*
X011567Y015483D01*
X011556Y015411D01*
X011556Y015384D01*
X012007Y015384D01*
X012007Y015366D01*
X012024Y015366D01*
X012024Y014915D01*
X012052Y014915D01*
X012123Y014926D01*
X012192Y014949D01*
X012257Y014982D01*
X012315Y015024D01*
X012367Y015075D01*
X012409Y015134D01*
X012442Y015198D01*
X012464Y015267D01*
X012476Y015339D01*
X012476Y015366D01*
X012024Y015366D01*
X012024Y015384D01*
X012476Y015384D01*
X012476Y015411D01*
X012464Y015483D01*
X012442Y015552D01*
X012409Y015616D01*
X012367Y015675D01*
X012448Y015533D02*
X013573Y015533D01*
X013544Y015375D02*
X012024Y015375D01*
X012007Y015375D02*
X011045Y015375D01*
X011045Y015549D01*
X010799Y015795D01*
X010625Y015795D01*
X010625Y015375D01*
X011045Y015375D01*
X010625Y015375D01*
X010625Y015375D01*
X010625Y015375D01*
X010625Y014955D01*
X010799Y014955D01*
X011045Y015201D01*
X011045Y015375D01*
X011045Y015533D02*
X011583Y015533D01*
X011556Y015366D02*
X011556Y015339D01*
X011567Y015267D01*
X011589Y015198D01*
X011622Y015134D01*
X011665Y015075D01*
X011716Y015024D01*
X011775Y014982D01*
X011839Y014949D01*
X011908Y014926D01*
X011980Y014915D01*
X012007Y014915D01*
X012007Y015366D01*
X011556Y015366D01*
X011584Y015216D02*
X011045Y015216D01*
X010901Y015058D02*
X011683Y015058D01*
X012007Y015058D02*
X012024Y015058D01*
X012007Y015216D02*
X012024Y015216D01*
X012007Y015533D02*
X012024Y015533D01*
X012007Y015692D02*
X012024Y015692D01*
X011682Y015692D02*
X010902Y015692D01*
X010625Y015692D02*
X010625Y015692D01*
X010625Y015795D02*
X010451Y015795D01*
X010205Y015549D01*
X010205Y015375D01*
X010625Y015375D01*
X010625Y015375D01*
X010625Y015375D01*
X010625Y015795D01*
X010348Y015692D02*
X009874Y015692D01*
X010025Y015533D02*
X010205Y015533D01*
X010205Y015375D02*
X010205Y015201D01*
X010451Y014955D01*
X010625Y014955D01*
X010625Y015375D01*
X010205Y015375D01*
X010025Y015375D01*
X010025Y015216D02*
X010205Y015216D01*
X010349Y015058D02*
X009873Y015058D01*
X010625Y015058D02*
X010625Y015058D01*
X010625Y015216D02*
X010625Y015216D01*
X010625Y015375D02*
X010625Y015375D01*
X010625Y015533D02*
X010625Y015533D01*
X009376Y015692D02*
X000797Y015692D01*
X001797Y016167D02*
X002350Y016167D01*
X003340Y016009D02*
X039395Y016009D01*
X039395Y016167D02*
X003369Y016167D01*
X003414Y016326D02*
X039395Y016326D01*
X039395Y016484D02*
X003480Y016484D01*
X003557Y016643D02*
X039395Y016643D01*
X039395Y016801D02*
X003671Y016801D01*
X003813Y016960D02*
X039395Y016960D01*
X039395Y017118D02*
X003998Y017118D01*
X004296Y017277D02*
X039395Y017277D01*
X039395Y015533D02*
X038145Y015533D01*
X038174Y015375D02*
X039395Y015375D01*
X039395Y015216D02*
X038145Y015216D01*
X038039Y015058D02*
X039395Y015058D01*
X039395Y014582D02*
X000242Y014582D01*
X000233Y014424D02*
X039395Y014424D01*
X039395Y014265D02*
X000230Y014265D01*
X000230Y014107D02*
X039395Y014107D01*
X039395Y013948D02*
X031141Y013948D01*
X031300Y013790D02*
X039395Y013790D01*
X037250Y012522D02*
X037250Y012522D01*
X037250Y012363D02*
X037250Y012363D01*
X037250Y012205D02*
X037250Y012205D01*
X037250Y012046D02*
X037250Y012046D01*
X032849Y015058D02*
X032067Y015058D01*
X032166Y015216D02*
X032705Y015216D01*
X029461Y015058D02*
X026067Y015058D01*
X026166Y015216D02*
X029355Y015216D01*
X023734Y013948D02*
X000230Y013948D01*
X007746Y012680D02*
X007885Y012680D01*
X009236Y012740D02*
X009265Y012752D01*
X009389Y012876D01*
X009456Y013037D01*
X009456Y013213D01*
X009389Y013374D01*
X009378Y013385D01*
X010605Y013385D01*
X010591Y013366D01*
X010558Y013302D01*
X010536Y013233D01*
X010524Y013161D01*
X010524Y013134D01*
X010976Y013134D01*
X010976Y013116D01*
X010524Y013116D01*
X010524Y013089D01*
X010536Y013017D01*
X010558Y012948D01*
X010591Y012884D01*
X010633Y012825D01*
X010685Y012774D01*
X010732Y012740D01*
X009236Y012740D01*
X009352Y012839D02*
X010624Y012839D01*
X010542Y012997D02*
X009439Y012997D01*
X009456Y013156D02*
X010524Y013156D01*
X010564Y013314D02*
X009414Y013314D01*
X010993Y013134D02*
X011444Y013134D01*
X011444Y013161D01*
X011433Y013233D01*
X011411Y013302D01*
X011378Y013366D01*
X011364Y013385D01*
X012291Y013385D01*
X012080Y013174D01*
X012080Y013000D01*
X012500Y013000D01*
X012920Y013000D01*
X012920Y013174D01*
X012709Y013385D01*
X013319Y013385D01*
X013100Y013166D01*
X013100Y012834D01*
X013194Y012740D01*
X012834Y012740D01*
X012920Y012826D01*
X012920Y013000D01*
X012500Y013000D01*
X012500Y013000D01*
X012500Y013000D01*
X012080Y013000D01*
X012080Y012826D01*
X012166Y012740D01*
X011237Y012740D01*
X011284Y012774D01*
X011335Y012825D01*
X011378Y012884D01*
X011411Y012948D01*
X011433Y013017D01*
X011444Y013089D01*
X011444Y013116D01*
X010993Y013116D01*
X010993Y013134D01*
X011404Y013314D02*
X012220Y013314D01*
X012080Y013156D02*
X011444Y013156D01*
X011426Y012997D02*
X012080Y012997D01*
X012080Y012839D02*
X011345Y012839D01*
X012780Y013314D02*
X013248Y013314D01*
X013100Y013156D02*
X012920Y013156D01*
X012920Y012997D02*
X013100Y012997D01*
X013100Y012839D02*
X012920Y012839D01*
X017195Y012839D02*
X017850Y012839D01*
X017850Y012997D02*
X017282Y012997D01*
X017299Y013156D02*
X017965Y013156D01*
X018535Y013156D02*
X018937Y013156D01*
X018830Y012997D02*
X018650Y012997D01*
X018650Y012839D02*
X018830Y012839D01*
X018851Y012680D02*
X018621Y012680D01*
X018462Y012522D02*
X019010Y012522D01*
X019250Y012997D02*
X019250Y012997D01*
X019250Y013156D02*
X019250Y013156D01*
X019563Y013156D02*
X020326Y013156D01*
X020343Y012997D02*
X019670Y012997D01*
X019670Y012839D02*
X020430Y012839D01*
X020237Y013314D02*
X017257Y013314D01*
X017461Y015058D02*
X016623Y015058D01*
X016775Y015216D02*
X017355Y015216D01*
X017326Y015375D02*
X016775Y015375D01*
X016775Y015533D02*
X017355Y015533D01*
X016127Y015058D02*
X015623Y015058D01*
X015775Y015216D02*
X015975Y015216D01*
X015975Y015375D02*
X015775Y015375D01*
X015775Y015533D02*
X015975Y015533D01*
X015127Y015058D02*
X014289Y015058D01*
X014395Y015216D02*
X014975Y015216D01*
X014975Y015375D02*
X014424Y015375D01*
X014395Y015533D02*
X014975Y015533D01*
X013679Y015058D02*
X012349Y015058D01*
X012448Y015216D02*
X013574Y015216D01*
X020067Y015058D02*
X021002Y015058D01*
X020850Y015216D02*
X020166Y015216D01*
X021498Y015058D02*
X022002Y015058D01*
X021850Y015216D02*
X021650Y015216D01*
X021650Y015375D02*
X021850Y015375D01*
X021850Y015533D02*
X021650Y015533D01*
X022498Y015058D02*
X023461Y015058D01*
X023355Y015216D02*
X022650Y015216D01*
X022650Y015375D02*
X023326Y015375D01*
X023355Y015533D02*
X022650Y015533D01*
X023575Y013790D02*
X020441Y013790D01*
X020599Y013631D02*
X023419Y013631D01*
X020688Y011254D02*
X020340Y011254D01*
X020420Y011095D02*
X020600Y011095D01*
X020600Y010937D02*
X020420Y010937D01*
X020372Y010778D02*
X020656Y010778D01*
X021263Y010303D02*
X022237Y010303D01*
X022100Y010144D02*
X021400Y010144D01*
X021400Y009986D02*
X022100Y009986D01*
X022107Y009827D02*
X021393Y009827D01*
X021234Y009669D02*
X022266Y009669D01*
X022180Y009510D02*
X021320Y009510D01*
X021402Y009352D02*
X022098Y009352D01*
X022090Y009193D02*
X021410Y009193D01*
X021355Y009035D02*
X022145Y009035D01*
X022331Y008876D02*
X021240Y008876D01*
X021182Y008718D02*
X022760Y008718D01*
X022760Y008876D02*
X022668Y008876D01*
X022760Y008559D02*
X021023Y008559D01*
X020750Y008625D02*
X021000Y008875D01*
X021000Y009250D01*
X023240Y008876D02*
X023331Y008876D01*
X023240Y008718D02*
X024003Y008718D01*
X014232Y005548D02*
X013768Y005548D01*
X013900Y005389D02*
X014100Y005389D01*
X014100Y005231D02*
X013900Y005231D01*
X013888Y005072D02*
X014112Y005072D01*
X014271Y004914D02*
X013729Y004914D01*
X013811Y004755D02*
X014189Y004755D01*
X014100Y004597D02*
X013900Y004597D01*
X013900Y004438D02*
X014100Y004438D01*
X014155Y004280D02*
X013845Y004280D01*
X012635Y004438D02*
X012420Y004438D01*
X012420Y004597D02*
X012635Y004597D01*
X012635Y004755D02*
X012339Y004755D01*
X012180Y004914D02*
X012635Y004914D01*
X012635Y005072D02*
X010400Y005072D01*
X010445Y005231D02*
X011704Y005231D01*
X011600Y005389D02*
X010603Y005389D01*
X010728Y005548D02*
X011600Y005548D01*
X011640Y005706D02*
X010740Y005706D01*
X010740Y005865D02*
X010859Y005865D01*
X011141Y005865D02*
X011799Y005865D01*
X011650Y006023D02*
X011350Y006023D01*
X011410Y006182D02*
X011590Y006182D01*
X011594Y006340D02*
X011406Y006340D01*
X011331Y006499D02*
X011669Y006499D01*
X012201Y005865D02*
X012635Y005865D01*
X012635Y005706D02*
X012360Y005706D01*
X012400Y005548D02*
X012635Y005548D01*
X012635Y005389D02*
X012400Y005389D01*
X012296Y005231D02*
X012635Y005231D01*
X012000Y004914D02*
X012000Y004914D01*
X012000Y004755D02*
X012000Y004755D01*
X012000Y004597D02*
X012000Y004597D01*
X011661Y004755D02*
X010196Y004755D01*
X010344Y004597D02*
X011580Y004597D01*
X011580Y004438D02*
X010400Y004438D01*
X010400Y004280D02*
X011627Y004280D01*
X012373Y004280D02*
X012565Y004280D01*
X011820Y004914D02*
X010354Y004914D01*
X008015Y005706D02*
X007735Y005706D01*
X007265Y005706D02*
X006985Y005706D01*
X006891Y005865D02*
X007195Y005865D01*
X006609Y005865D02*
X006497Y005865D01*
X006497Y005706D02*
X006515Y005706D01*
X006017Y005706D02*
X005985Y005706D01*
X006017Y005865D02*
X005891Y005865D01*
X005609Y005865D02*
X004941Y005865D01*
X004985Y005706D02*
X005515Y005706D01*
X005357Y005548D02*
X005143Y005548D01*
X005150Y005389D02*
X005350Y005389D01*
X005350Y005231D02*
X005150Y005231D01*
X005013Y005072D02*
X005487Y005072D01*
X006013Y005072D02*
X006017Y005072D01*
X006017Y004914D02*
X004490Y004914D01*
X004490Y004755D02*
X006017Y004755D01*
X006017Y004597D02*
X004618Y004597D01*
X004734Y004438D02*
X006017Y004438D01*
X006017Y004280D02*
X004740Y004280D01*
X004740Y004121D02*
X006017Y004121D01*
X006017Y003963D02*
X004740Y003963D01*
X004740Y003804D02*
X006017Y003804D01*
X006413Y003660D02*
X006413Y001820D01*
X005714Y001121D01*
X006258Y001110D02*
X007139Y001110D01*
X007155Y001268D02*
X006242Y001268D01*
X006359Y001427D02*
X007220Y001427D01*
X007381Y001585D02*
X006517Y001585D01*
X006641Y001744D02*
X009372Y001744D01*
X009213Y001902D02*
X006653Y001902D01*
X006653Y002061D02*
X006920Y002061D01*
X006762Y002219D02*
X006653Y002219D01*
X006653Y002378D02*
X006668Y002378D01*
X006653Y002536D02*
X006668Y002536D01*
X006653Y002695D02*
X006668Y002695D01*
X006653Y002853D02*
X006668Y002853D01*
X006653Y003012D02*
X006668Y003012D01*
X006653Y003170D02*
X006668Y003170D01*
X006653Y003329D02*
X006668Y003329D01*
X006653Y003487D02*
X006668Y003487D01*
X006653Y003646D02*
X006668Y003646D01*
X006173Y002695D02*
X006088Y002695D01*
X007984Y001585D02*
X009663Y001585D01*
X009134Y002061D02*
X008456Y002061D01*
X008614Y002219D02*
X009068Y002219D01*
X009055Y002378D02*
X008773Y002378D01*
X008865Y002536D02*
X009055Y002536D01*
X009095Y002695D02*
X008865Y002695D01*
X008865Y002853D02*
X009161Y002853D01*
X009278Y003012D02*
X008865Y003012D01*
X010730Y001427D02*
X010833Y001427D01*
X007437Y000634D02*
X005959Y000634D01*
X006155Y000793D02*
X007242Y000793D01*
X007164Y000951D02*
X006232Y000951D01*
X005469Y000634D02*
X003991Y000634D01*
X000506Y001902D02*
X000230Y001902D01*
X000230Y001744D02*
X000348Y001744D01*
X000262Y001585D02*
X000230Y001585D01*
X004490Y005706D02*
X004515Y005706D01*
X004490Y005865D02*
X004559Y005865D01*
X004750Y005865D02*
X004750Y005865D01*
X004750Y005820D02*
X004750Y006250D01*
X004750Y006250D01*
X004750Y005820D01*
X004750Y006023D02*
X004750Y006023D01*
X004750Y006182D02*
X004750Y006182D01*
X004750Y006340D02*
X004750Y006340D01*
X004750Y006499D02*
X004750Y006499D01*
X005101Y006499D02*
X005419Y006499D01*
X005344Y006340D02*
X005171Y006340D01*
X005175Y006182D02*
X005340Y006182D01*
X005400Y006023D02*
X005117Y006023D01*
X001913Y006499D02*
X001740Y006499D01*
X001809Y006657D02*
X001890Y006657D01*
X001890Y006816D02*
X001813Y006816D01*
X001758Y006974D02*
X001890Y006974D01*
X001890Y007450D02*
X001672Y007450D01*
X001774Y007608D02*
X001890Y007608D01*
X001890Y007767D02*
X001798Y007767D01*
X001760Y007925D02*
X001890Y007925D01*
X001890Y008084D02*
X001639Y008084D01*
X001890Y008242D02*
X000230Y008242D01*
X000230Y008084D02*
X001111Y008084D01*
X000990Y007925D02*
X000230Y007925D01*
X000230Y007767D02*
X000952Y007767D01*
X000976Y007608D02*
X000230Y007608D01*
X000230Y007450D02*
X001078Y007450D01*
X001291Y008327D02*
X001459Y008327D01*
X001614Y008392D01*
X001733Y008511D01*
X001798Y008666D01*
X001798Y008834D01*
X001733Y008989D01*
X001614Y009108D01*
X001459Y009173D01*
X001291Y009173D01*
X001136Y009108D01*
X001017Y008989D01*
X000952Y008834D01*
X000952Y008666D01*
X001017Y008511D01*
X001136Y008392D01*
X001291Y008327D01*
X001127Y008401D02*
X000230Y008401D01*
X000230Y008559D02*
X000996Y008559D01*
X000952Y008718D02*
X000230Y008718D01*
X000230Y008876D02*
X000970Y008876D01*
X001062Y009035D02*
X000230Y009035D01*
X000230Y009193D02*
X001890Y009193D01*
X001890Y009035D02*
X001688Y009035D01*
X001780Y008876D02*
X001890Y008876D01*
X001890Y008718D02*
X001798Y008718D01*
X001754Y008559D02*
X001890Y008559D01*
X001890Y008401D02*
X001623Y008401D01*
D19*
X013537Y001437D02*
X013700Y001600D01*
X015250Y001600D01*
X015350Y001500D01*
X016150Y001500D01*
X016750Y002100D01*
X016750Y002125D01*
X017750Y001375D02*
X018857Y001399D01*
X019250Y001600D01*
X019400Y001600D01*
X020150Y002350D01*
X022419Y002350D01*
X023720Y003650D01*
X024700Y003650D01*
X025050Y003300D01*
X025959Y003300D01*
X026241Y003018D01*
X026241Y001884D01*
X026750Y001375D01*
X027975Y001375D01*
X028200Y001600D01*
X028550Y001600D01*
X029261Y002311D01*
X032442Y002311D01*
X032830Y001685D01*
X033959Y001453D01*
X034136Y001330D01*
X034136Y000614D01*
X034300Y000400D01*
X036305Y000400D01*
X036562Y000708D01*
X025750Y002125D02*
X025250Y001625D01*
X025175Y001550D01*
X024250Y001550D01*
X024150Y001650D01*
X022900Y001650D01*
X022875Y001625D01*
X022625Y001375D01*
X022625Y001213D01*
X022537Y001125D01*
X013537Y001125D02*
X013537Y001437D01*
D20*
X003750Y003094D02*
X003746Y003090D01*
X003750Y003094D02*
X003750Y006250D01*
X002625Y006250D01*
X002250Y006625D01*
X002250Y009750D01*
D21*
X012875Y010625D03*
X029250Y003375D03*
X031720Y001917D03*
X032600Y002750D03*
X036562Y000708D03*
X022875Y002000D03*
X014000Y002125D03*
M02*
