%
M48
M72
T01C0.0150
T02C0.0320
T03C0.0350
T04C0.0354
T05C0.0394
T06C0.0512
T07C0.1160
T08C0.1299
%
T01
X2500Y750
X4750Y625
X6750Y625
X9000Y625
X7750Y2125
X5250Y2125
X750Y3000
X750Y5250
X625Y6750
X625Y8000
X3550Y7700
X4750Y7700
X6150Y7700
X7550Y7700
X8850Y7700
X10150Y7700
X11250Y7700
X12450Y7700
X13550Y7700
X15650Y7700
X17750Y7700
X20050Y7700
X22150Y7700
X23550Y7700
X24850Y7700
X26650Y7700
X29350Y7700
X32050Y7700
X33850Y7700
X36250Y7700
X37000Y8250
X37350Y7700
X37000Y7125
X37625Y6500
X37000Y5875
X35125Y4500
X33875Y4500
X30875Y4625
X30875Y5375
X30875Y6250
X26250Y6250
X26250Y5375
X26250Y4625
X24625Y5000
X21875Y5250
X21875Y4500
X19750Y5125
X21875Y6125
X17250Y5500
X15750Y5375
X17250Y4625
X15625Y4500
X16625Y3250
X14000Y2125
X12500Y1750
X12500Y2875
X15875Y1000
X17375Y500
X21375Y1625
X22875Y2000
X21500Y2875
X25000Y1000
X26250Y500
X30375Y1625
X31725Y2000
X32500Y1750
X33750Y1000
X36562Y708
X37500Y500
X39125Y2125
X36875Y4000
X32600Y2750
X29250Y3375
X37625Y9000
X37000Y9750
X39000Y10000
X37250Y11500
X37875Y12125
X39000Y12000
X37875Y13125
X39000Y13625
X37250Y13875
X39000Y15000
X39000Y16375
X37750Y17250
X34375Y17250
X33125Y16000
X31750Y16000
X31000Y15375
X31750Y14625
X33125Y14750
X32500Y15375
X31625Y17250
X28125Y17250
X25750Y16125
X26375Y15375
X25000Y15375
X25750Y14625
X28750Y14125
X29625Y13125
X28750Y12500
X29000Y11625
X28000Y11625
X27000Y11625
X25625Y11625
X24625Y11625
X23750Y12000
X20000Y11625
X19000Y11625
X18000Y11750
X17250Y11000
X14000Y11875
X11625Y11750
X11000Y12125
X9500Y11500
X12875Y10625
X11750Y13125
X10250Y13125
X11000Y14125
X10625Y14625
X11375Y15375
X12000Y14750
X12750Y15375
X12000Y16125
X10625Y16125
X10000Y17250
X12750Y17250
X15625Y17250
X18250Y17250
X19750Y16125
X19000Y15375
X19750Y14625
X20500Y15375
X22750Y13875
X15875Y13125
X21625Y17250
X24375Y17250
X31500Y11625
X30750Y11000
X32500Y11625
X33500Y11625
X12500Y5000
X10625Y4875
X7125Y4875
X5500Y4750
X625Y10750
X3500Y12875
X2875Y13500
X625Y13125
X625Y15250
X2250Y15875
X3875Y16375
X4875Y17125
X7125Y17250
T02
X9625Y15375
X10625Y15375
X15375Y15375
X16375Y15375
X21250Y15375
X22250Y15375
X24250Y13125
X25250Y13125
X25500Y11000
X24500Y11000
X23500Y11000
X22500Y11000
X21000Y11000
X20000Y11000
X19000Y11000
X18000Y11000
X16500Y11000
X15500Y11000
X14500Y11000
X13500Y11000
X12000Y11000
X11000Y11000
X10000Y11000
X9000Y11000
X7500Y11125
X6500Y11125
X5500Y11125
X4250Y10750
X3125Y10750
X2250Y10750
X2250Y9750
X3125Y9750
X4250Y9750
X3750Y9250
X4750Y9250
X5750Y9250
X6750Y9250
X6500Y10125
X5500Y10125
X7500Y10125
X9000Y10000
X10000Y10000
X11000Y10000
X12000Y10000
X13500Y10000
X14500Y10000
X15500Y10000
X16500Y10000
X16500Y9250
X15500Y9250
X14500Y9250
X13500Y9250
X12000Y9250
X11000Y9250
X10000Y9250
X9000Y9250
X7500Y12000
X6500Y12000
X6500Y13000
X7500Y13000
X4375Y15250
X3375Y15250
X12500Y13000
X13500Y13000
X18250Y12875
X19250Y12875
X19000Y10000
X18000Y10000
X18000Y9250
X19000Y9250
X20000Y9250
X21000Y9250
X21000Y10000
X20000Y10000
X22500Y10000
X23500Y10000
X24500Y10000
X25500Y10000
X25500Y9250
X24500Y9250
X23500Y9250
X22500Y9250
X27000Y9250
X28000Y9250
X29000Y9250
X30000Y9250
X30000Y10000
X29000Y10000
X28000Y10000
X27000Y10000
X27000Y11000
X28000Y11000
X29000Y11000
X30000Y11000
X31500Y11000
X32500Y11000
X33500Y11000
X34500Y11000
X34500Y10000
X33500Y10000
X32500Y10000
X31500Y10000
X31500Y9250
X32500Y9250
X33500Y9250
X34500Y9250
X36000Y9000
X37000Y9000
X37000Y6500
X36000Y6500
X34500Y6250
X33500Y6250
X32500Y6250
X31500Y6250
X31500Y5500
X32500Y5500
X32500Y4750
X31500Y4750
X30000Y4500
X28000Y4750
X27000Y4750
X27000Y5500
X28000Y5500
X28000Y6250
X27000Y6250
X25500Y6250
X24500Y6250
X23500Y6250
X22500Y6250
X22500Y5500
X23500Y5500
X23500Y4750
X22500Y4750
X21000Y4500
X19000Y4625
X18000Y4625
X18000Y5375
X19000Y5375
X19000Y6250
X18000Y6250
X16500Y6250
X15500Y6250
X14500Y6250
X13500Y6250
X12000Y6250
X11000Y6250
X10000Y6250
X9000Y6250
X8375Y6250
X7375Y6250
X6750Y6250
X5750Y6250
X4750Y6250
X3750Y6250
X4750Y5375
X5750Y5375
X6750Y5375
X7500Y5375
X8250Y5375
X9000Y5125
X10000Y5125
X10000Y4375
X9000Y4375
X8250Y4375
X7500Y4375
X6750Y4375
X12000Y4500
X13500Y4500
X14500Y4500
X14500Y5250
X13500Y5250
X12000Y5500
X16500Y5500
X16500Y4500
X20000Y6250
X21000Y6250
X21000Y5500
X25500Y5500
X25500Y4500
X29000Y6250
X30000Y6250
X30000Y5500
X34500Y5500
X34500Y4500
X34750Y3125
X35750Y3125
X35750Y2375
X34750Y2375
X34750Y1625
X35750Y1625
X35750Y875
X34750Y875
X26750Y1375
X25750Y1375
X25750Y2125
X26750Y2125
X17750Y2125
X16750Y2125
X16750Y1375
X17750Y1375
X36250Y12250
X37250Y12250
X37250Y13125
X36250Y13125
X34125Y15375
X33125Y15375
X31250Y13125
X30250Y13125
T03
X38125Y8750
X38125Y7750
X38125Y6750
X1375Y6750
X1375Y7750
X1375Y8750
X1375Y10750
X1375Y11750
X1375Y12750
T04
X2891Y12875
X4859Y12875
X9016Y13125
X10984Y13125
X14891Y13125
X16859Y13125
X20766Y13125
X22734Y13125
X26766Y13125
X28734Y13125
X32766Y13125
X34734Y13125
X35766Y15375
X37734Y15375
X31734Y15375
X29766Y15375
X25734Y15375
X23766Y15375
X19734Y15375
X17766Y15375
X13984Y15375
X12016Y15375
X7984Y15250
X6016Y15250
T05
X10388Y1125
X11175Y1125
X11963Y1125
X12750Y1125
X13537Y1125
X14325Y1125
X15112Y1125
X19388Y1125
X20175Y1125
X20963Y1125
X21750Y1125
X22537Y1125
X23325Y1125
X24112Y1125
X28388Y1125
X29175Y1125
X29963Y1125
X30750Y1125
X31537Y1125
X32325Y1125
X33112Y1125
T06
X7683Y1121
X5714Y1121
X3746Y1121
X3746Y3090
X5714Y3090
X7683Y3090
T07
X1000Y1250
X38625Y1250
T08
X33565Y2424
X27935Y2424
X24565Y2424
X18935Y2424
X15565Y2424
X9935Y2424
M30
