%
M48
M72
T01C0.01500
T02C0.02000
T03C0.03200
T04C0.03504
T05C0.03543
T06C0.03937
T07C0.05118
T08C0.08661
T09C0.11600
%
T01
X57500Y50000
T02
X140000Y21250
X228750Y20000
X317250Y20000
X326000Y27500
X365621Y7076
X336919Y5478
X360000Y50000
X128750Y118750
T03
X120000Y116250
X110000Y116250
X100000Y116250
X100000Y106250
X110000Y106250
X110000Y100000
X100000Y100000
X90000Y100000
X90000Y106250
X76250Y113750
X66250Y113750
X57500Y111250
X50000Y111250
X41250Y111250
X22500Y110000
X31250Y102500
X37500Y100000
X47500Y100000
X57500Y100000
X67500Y100000
X66250Y122500
X76250Y122500
X90000Y126250
X76250Y132500
X66250Y132500
X57500Y131250
X50000Y121250
X41250Y121250
X31250Y122500
X22500Y120000
X60000Y142500
X80000Y142500
X120000Y142500
X140000Y142500
X135000Y126250
X145000Y116250
X155000Y116250
X165000Y116250
X165000Y106250
X165000Y100000
X155000Y100000
X145000Y100000
X145000Y106250
X155000Y106250
X135000Y106250
X135000Y100000
X120000Y100000
X120000Y106250
X180000Y106250
X190000Y106250
X190000Y100000
X180000Y100000
X200000Y100000
X210000Y100000
X210000Y106250
X200000Y106250
X200000Y116250
X210000Y116250
X225000Y106250
X235000Y106250
X235000Y100000
X225000Y100000
X245000Y100000
X255000Y100000
X255000Y106250
X245000Y106250
X245000Y116250
X255000Y116250
X270000Y106250
X280000Y106250
X280000Y100000
X270000Y100000
X290000Y100000
X300000Y100000
X300000Y106250
X290000Y106250
X290000Y116250
X300000Y116250
X315000Y108750
X325000Y108750
X335000Y108750
X345000Y108750
X345000Y100000
X335000Y100000
X325000Y100000
X315000Y100000
X325000Y118750
X335000Y118750
X345000Y118750
X360000Y133750
X360000Y142500
X380000Y142500
X380000Y133750
X317500Y143750
X297500Y143750
X315000Y128750
X280000Y116250
X270000Y126250
X257500Y143750
X237500Y143750
X225000Y126250
X235000Y116250
X190000Y116250
X180000Y126250
X177500Y141250
X197500Y141250
X207500Y166250
X227500Y166250
X168750Y166250
X148750Y166250
X110000Y166250
X90000Y166250
X43750Y165000
X23750Y165000
X37500Y70000
X47500Y70000
X57500Y70000
X67500Y70000
X57500Y61250
X50000Y61250
X37500Y61250
X37500Y51250
X50000Y41250
X57500Y41250
X67500Y48750
X75000Y48750
X82500Y48750
X90000Y48750
X98750Y50000
X108750Y50000
X108750Y57500
X98750Y57500
X90000Y58750
X82500Y58750
X75000Y58750
X67500Y58750
X90000Y70000
X100000Y70000
X110000Y70000
X120000Y70000
X135000Y70000
X145000Y70000
X155000Y70000
X165000Y70000
X180000Y70000
X190000Y70000
X200000Y70000
X210000Y70000
X225000Y70000
X235000Y70000
X245000Y70000
X255000Y70000
X270000Y70000
X280000Y70000
X290000Y70000
X300000Y70000
X315000Y70000
X325000Y70000
X335000Y70000
X345000Y70000
X360000Y72500
X370000Y72500
X345000Y60000
X335000Y60000
X325000Y60000
X315000Y59900
X325000Y52500
X335000Y52500
X315000Y49900
X300000Y40000
X290000Y51250
X280000Y51250
X270150Y50650
X280000Y58750
X270150Y60650
X255000Y58750
X245000Y58750
X235000Y58750
X224200Y60850
X210000Y57500
X200000Y58750
X190000Y58750
X179950Y61400
X165000Y57500
X155000Y57500
X145000Y57500
X134989Y60364
X120000Y61250
X134989Y50364
X145000Y50000
X155000Y50000
X165000Y37500
X179950Y51400
X190000Y51250
X200000Y51250
X224200Y50850
X235000Y51250
X245000Y51250
X255000Y38750
X257500Y21250
X267500Y21250
X267500Y13750
X257500Y13750
X210000Y37500
X177500Y21250
X167500Y21250
X167500Y13750
X177500Y13750
X120000Y41250
X290000Y58750
X300000Y60000
X345000Y40000
X347500Y31250
X357500Y31250
X357500Y23750
X357500Y16250
X347500Y16250
X347500Y23750
X347500Y8750
X357500Y8750
X360000Y97500
X370000Y97500
X347500Y166250
X327500Y166250
T04
X381250Y95000
X381250Y85000
X381250Y75000
X13750Y75000
X13750Y85000
X13750Y95000
X13750Y120000
X13750Y130000
X13750Y140000
T05
X28907Y141250
X48593Y141250
X90157Y143750
X109843Y143750
X148907Y143750
X168593Y143750
X207657Y143750
X227343Y143750
X267657Y143750
X287343Y143750
X327657Y143750
X347343Y143750
X357657Y166250
X377343Y166250
X317343Y166250
X297657Y166250
X257343Y166250
X237657Y166250
X197343Y166250
X177657Y166250
X139843Y166250
X120157Y166250
X79843Y165000
X60157Y165000
T06
X103878Y11250
X111752Y11250
X119626Y11250
X127500Y11250
X135374Y11250
X143248Y11250
X151122Y11250
X193878Y11250
X201752Y11250
X209626Y11250
X217500Y11250
X225374Y11250
X233248Y11250
X241122Y11250
X283878Y11250
X291752Y11250
X299626Y11250
X307500Y11250
X315374Y11250
X323248Y11250
X331122Y11250
T07
X76827Y8711
X57142Y8711
X37457Y8711
X37457Y28396
X57142Y28396
X76827Y28396
T08
X99350Y24242
X155650Y24242
X189350Y24242
X245650Y24242
X279350Y24242
X335650Y24242
T09
X10000Y12500
X386250Y12500
M30
