G75*
%MOIN*%
%OFA0B0*%
%FSLAX24Y24*%
%IPPOS*%
%LPD*%
%AMOC8*
5,1,8,0,0,1.08239X$1,22.5*
%
%ADD10OC8,0.0480*%
%ADD11OC8,0.0630*%
%ADD12C,0.0630*%
%ADD13C,0.0560*%
%ADD14C,0.0768*%
%ADD15C,0.0591*%
%ADD16C,0.0526*%
%ADD17C,0.0500*%
%ADD18C,0.0160*%
%ADD19C,0.0120*%
%ADD20C,0.0290*%
%ADD21C,0.0400*%
D10*
X006750Y004375D03*
X007500Y004375D03*
X008250Y004375D03*
X009000Y004375D03*
X010000Y004375D03*
X010000Y005125D03*
X009000Y005125D03*
X008250Y005375D03*
X007500Y005375D03*
X006750Y005375D03*
X005750Y005375D03*
X004750Y005375D03*
X007375Y006250D03*
X008375Y006250D03*
X012000Y005500D03*
X013500Y005250D03*
X014500Y005250D03*
X014500Y004500D03*
X013500Y004500D03*
X012000Y004500D03*
X016500Y004500D03*
X018000Y004625D03*
X019000Y004625D03*
X019000Y005375D03*
X018000Y005375D03*
X016500Y005500D03*
X021000Y005500D03*
X022500Y005500D03*
X023500Y005500D03*
X023500Y004750D03*
X022500Y004750D03*
X021000Y004500D03*
X025500Y004500D03*
X027000Y004750D03*
X028000Y004750D03*
X028000Y005500D03*
X027000Y005500D03*
X025500Y005500D03*
X030000Y005500D03*
X031500Y005500D03*
X032500Y005500D03*
X032500Y004750D03*
X031500Y004750D03*
X030000Y004500D03*
X034500Y004500D03*
X034500Y005500D03*
X034750Y003125D03*
X035750Y003125D03*
X035750Y002375D03*
X034750Y002375D03*
X034750Y001625D03*
X035750Y001625D03*
X035750Y000875D03*
X034750Y000875D03*
X026750Y001375D03*
X025750Y001375D03*
X025750Y002125D03*
X026750Y002125D03*
X017750Y002125D03*
X016750Y002125D03*
X016750Y001375D03*
X017750Y001375D03*
X004250Y009750D03*
X003125Y009750D03*
X002250Y009750D03*
X002250Y010750D03*
X003125Y010750D03*
X004250Y010750D03*
X005500Y011125D03*
X006500Y011125D03*
X007500Y011125D03*
X009000Y011000D03*
X010000Y011000D03*
X011000Y011000D03*
X012000Y011000D03*
X013500Y011000D03*
X014500Y011000D03*
X015500Y011000D03*
X016500Y011000D03*
X018000Y011000D03*
X019000Y011000D03*
X020000Y011000D03*
X021000Y011000D03*
X022500Y011000D03*
X023500Y011000D03*
X024500Y011000D03*
X025500Y011000D03*
X027000Y011000D03*
X028000Y011000D03*
X029000Y011000D03*
X030000Y011000D03*
X031500Y011000D03*
X032500Y011000D03*
X033500Y011000D03*
X034500Y011000D03*
X034500Y010000D03*
X033500Y010000D03*
X032500Y010000D03*
X031500Y010000D03*
X030000Y010000D03*
X029000Y010000D03*
X028000Y010000D03*
X027000Y010000D03*
X025500Y010000D03*
X024500Y010000D03*
X023500Y010000D03*
X022500Y010000D03*
X021000Y010000D03*
X020000Y010000D03*
X019000Y010000D03*
X018000Y010000D03*
X016500Y010000D03*
X015500Y010000D03*
X014500Y010000D03*
X013500Y010000D03*
X012000Y010000D03*
X011000Y010000D03*
X010000Y010000D03*
X009000Y010000D03*
X007500Y010125D03*
X006500Y010125D03*
X005500Y010125D03*
X006500Y012000D03*
X007500Y012000D03*
X007500Y013000D03*
X006500Y013000D03*
X004375Y015250D03*
X003375Y015250D03*
X009625Y015375D03*
X010625Y015375D03*
X015375Y015375D03*
X016375Y015375D03*
X021250Y015375D03*
X022250Y015375D03*
X024250Y013125D03*
X025250Y013125D03*
X030250Y013125D03*
X031250Y013125D03*
X033125Y015375D03*
X034125Y015375D03*
X036250Y013125D03*
X037250Y013125D03*
X037250Y012250D03*
X036250Y012250D03*
X019250Y012875D03*
X018250Y012875D03*
X013500Y013000D03*
X012500Y013000D03*
D11*
X036000Y009000D03*
X037000Y006500D03*
D12*
X036000Y006500D03*
X037000Y009000D03*
D13*
X034734Y013125D03*
X032766Y013125D03*
X028734Y013125D03*
X026766Y013125D03*
X022734Y013125D03*
X020766Y013125D03*
X016859Y013125D03*
X014891Y013125D03*
X010984Y013125D03*
X009016Y013125D03*
X004859Y012875D03*
X002891Y012875D03*
X006016Y015250D03*
X007984Y015250D03*
X012016Y015375D03*
X013984Y015375D03*
X017766Y015375D03*
X019734Y015375D03*
X023766Y015375D03*
X025734Y015375D03*
X029766Y015375D03*
X031734Y015375D03*
X035766Y015375D03*
X037734Y015375D03*
D14*
X007683Y003090D03*
X005714Y003090D03*
X003746Y003090D03*
X003746Y001121D03*
X005714Y001121D03*
X007683Y001121D03*
D15*
X010388Y001125D03*
X011175Y001125D03*
X011963Y001125D03*
X012750Y001125D03*
X013537Y001125D03*
X014325Y001125D03*
X015112Y001125D03*
X019388Y001125D03*
X020175Y001125D03*
X020963Y001125D03*
X021750Y001125D03*
X022537Y001125D03*
X023325Y001125D03*
X024112Y001125D03*
X028388Y001125D03*
X029175Y001125D03*
X029963Y001125D03*
X030750Y001125D03*
X031537Y001125D03*
X032325Y001125D03*
X033112Y001125D03*
D16*
X038125Y006750D03*
X038125Y007750D03*
X038125Y008750D03*
X001375Y008750D03*
X001375Y007750D03*
X001375Y006750D03*
X001375Y010750D03*
X001375Y011750D03*
X001375Y012750D03*
D17*
X003750Y009250D03*
X004750Y009250D03*
X005750Y009250D03*
X006750Y009250D03*
X009000Y009250D03*
X010000Y009250D03*
X011000Y009250D03*
X012000Y009250D03*
X013500Y009250D03*
X014500Y009250D03*
X015500Y009250D03*
X016500Y009250D03*
X018000Y009250D03*
X019000Y009250D03*
X020000Y009250D03*
X021000Y009250D03*
X022500Y009250D03*
X023500Y009250D03*
X024500Y009250D03*
X025500Y009250D03*
X027000Y009250D03*
X028000Y009250D03*
X029000Y009250D03*
X030000Y009250D03*
X031500Y009250D03*
X032500Y009250D03*
X033500Y009250D03*
X034500Y009250D03*
X034500Y006250D03*
X033500Y006250D03*
X032500Y006250D03*
X031500Y006250D03*
X030000Y006250D03*
X029000Y006250D03*
X028000Y006250D03*
X027000Y006250D03*
X025500Y006250D03*
X024500Y006250D03*
X023500Y006250D03*
X022500Y006250D03*
X021000Y006250D03*
X020000Y006250D03*
X019000Y006250D03*
X018000Y006250D03*
X016500Y006250D03*
X015500Y006250D03*
X014500Y006250D03*
X013500Y006250D03*
X012000Y006250D03*
X011000Y006250D03*
X010000Y006250D03*
X009000Y006250D03*
X006750Y006250D03*
X005750Y006250D03*
X004750Y006250D03*
X003750Y006250D03*
D18*
X000230Y000992D02*
X000230Y000230D01*
X034178Y000230D01*
X034149Y000268D01*
X034100Y000317D01*
X000230Y000317D01*
X000230Y000476D02*
X000753Y000476D01*
X000839Y000440D02*
X001161Y000440D01*
X001459Y000563D01*
X001687Y000791D01*
X001810Y001089D01*
X001810Y001411D01*
X001687Y001709D01*
X001459Y001937D01*
X001161Y002060D01*
X000839Y002060D01*
X000541Y001937D01*
X000313Y001709D01*
X000230Y001508D01*
X000230Y014375D01*
X000243Y014589D01*
X000343Y015006D01*
X000537Y015388D01*
X000815Y015713D01*
X001162Y015965D01*
X001558Y016129D01*
X001981Y016196D01*
X002408Y016162D01*
X002816Y016030D01*
X002970Y015948D01*
X002996Y015912D01*
X003044Y015905D01*
X003086Y015879D01*
X003135Y015891D01*
X003184Y015883D01*
X003224Y015912D01*
X003271Y015924D01*
X003297Y015966D01*
X003338Y015996D01*
X003345Y016044D01*
X003371Y016086D01*
X003361Y016129D01*
X003391Y016268D01*
X003529Y016603D01*
X003741Y016898D01*
X004017Y017134D01*
X004340Y017299D01*
X004693Y017384D01*
X004875Y017395D01*
X039395Y017395D01*
X039395Y001508D01*
X039312Y001709D01*
X039084Y001937D01*
X038786Y002060D01*
X038464Y002060D01*
X038166Y001937D01*
X037938Y001709D01*
X037815Y001411D01*
X037815Y001089D01*
X037938Y000791D01*
X038166Y000563D01*
X038464Y000440D01*
X038786Y000440D01*
X039084Y000563D01*
X039312Y000791D01*
X039395Y000992D01*
X039395Y000230D01*
X036423Y000230D01*
X036452Y000265D01*
X036505Y000317D01*
X036505Y000327D01*
X036584Y000423D01*
X036619Y000423D01*
X036724Y000466D01*
X036804Y000546D01*
X036847Y000651D01*
X036847Y000764D01*
X036804Y000869D01*
X036724Y000949D01*
X036619Y000993D01*
X036505Y000993D01*
X036401Y000949D01*
X036321Y000869D01*
X036277Y000764D01*
X036277Y000679D01*
X036211Y000600D01*
X036012Y000600D01*
X036130Y000718D01*
X036130Y001032D01*
X035912Y001250D01*
X036130Y001468D01*
X036130Y001782D01*
X035912Y002000D01*
X036130Y002218D01*
X036130Y002532D01*
X035912Y002750D01*
X036130Y002968D01*
X036130Y003282D01*
X035907Y003505D01*
X035593Y003505D01*
X035370Y003282D01*
X035370Y002968D01*
X035588Y002750D01*
X035433Y002595D01*
X035409Y002595D01*
X035159Y002345D01*
X035130Y002316D01*
X035130Y002532D01*
X034970Y002692D01*
X034970Y002808D01*
X035130Y002968D01*
X035130Y003282D01*
X034907Y003505D01*
X034593Y003505D01*
X034574Y003487D01*
X034575Y003487D01*
X034574Y003487D02*
X034466Y003595D01*
X029433Y003595D01*
X029411Y003617D01*
X029307Y003660D01*
X029193Y003660D01*
X029089Y003617D01*
X029008Y003536D01*
X028965Y003432D01*
X028965Y003318D01*
X029008Y003214D01*
X029089Y003133D01*
X029193Y003090D01*
X029307Y003090D01*
X029411Y003133D01*
X029433Y003155D01*
X033052Y003155D01*
X032825Y002928D01*
X032761Y002992D01*
X032657Y003035D01*
X032543Y003035D01*
X032439Y002992D01*
X032417Y002970D01*
X029216Y002970D01*
X028720Y003466D01*
X028591Y003595D01*
X027034Y003595D01*
X026750Y003311D01*
X026381Y003680D01*
X035091Y003680D01*
X035720Y004309D01*
X035720Y006137D01*
X035742Y006114D01*
X035909Y006045D01*
X036091Y006045D01*
X036258Y006114D01*
X036386Y006242D01*
X036455Y006409D01*
X036455Y006591D01*
X036386Y006758D01*
X036258Y006886D01*
X036091Y006955D01*
X035909Y006955D01*
X035742Y006886D01*
X035720Y006863D01*
X035720Y008637D01*
X035812Y008545D01*
X036188Y008545D01*
X036455Y008812D01*
X036455Y009188D01*
X036188Y009455D01*
X035812Y009455D01*
X035720Y009363D01*
X035720Y010659D01*
X035841Y010780D01*
X035970Y010909D01*
X035970Y011659D01*
X036181Y011870D01*
X036407Y011870D01*
X036630Y012093D01*
X036630Y012407D01*
X036407Y012630D01*
X036093Y012630D01*
X035870Y012407D01*
X035870Y012181D01*
X035530Y011841D01*
X035530Y011091D01*
X035280Y010841D01*
X035280Y004491D01*
X034909Y004120D01*
X034714Y004120D01*
X034920Y004326D01*
X034920Y004500D01*
X034920Y004674D01*
X034674Y004920D01*
X034500Y004920D01*
X034500Y004500D01*
X034500Y004500D01*
X034920Y004500D01*
X034500Y004500D01*
X034500Y004500D01*
X034500Y004500D01*
X034080Y004500D01*
X034080Y004674D01*
X034326Y004920D01*
X034500Y004920D01*
X034500Y004500D01*
X034080Y004500D01*
X034080Y004326D01*
X034286Y004120D01*
X030214Y004120D01*
X030420Y004326D01*
X030420Y004500D01*
X030420Y004674D01*
X030174Y004920D01*
X030000Y004920D01*
X030000Y004500D01*
X030000Y004500D01*
X030420Y004500D01*
X030000Y004500D01*
X030000Y004500D01*
X030000Y004500D01*
X029580Y004500D01*
X029580Y004674D01*
X029826Y004920D01*
X030000Y004920D01*
X030000Y004500D01*
X029580Y004500D01*
X029580Y004326D01*
X029786Y004120D01*
X025714Y004120D01*
X025920Y004326D01*
X025920Y004500D01*
X025920Y004674D01*
X025674Y004920D01*
X025500Y004920D01*
X025500Y004500D01*
X025500Y004500D01*
X025920Y004500D01*
X025500Y004500D01*
X025500Y004500D01*
X025500Y004500D01*
X025080Y004500D01*
X025080Y004674D01*
X025326Y004920D01*
X025500Y004920D01*
X025500Y004500D01*
X025080Y004500D01*
X025080Y004370D01*
X023259Y004370D01*
X023220Y004331D01*
X023220Y004493D01*
X023343Y004370D01*
X023657Y004370D01*
X023880Y004593D01*
X023880Y004907D01*
X023662Y005125D01*
X023817Y005280D01*
X023966Y005280D01*
X024095Y005409D01*
X024220Y005534D01*
X024220Y005978D01*
X024279Y005919D01*
X024422Y005860D01*
X024578Y005860D01*
X024721Y005919D01*
X024831Y006029D01*
X024890Y006172D01*
X024890Y006328D01*
X024831Y006471D01*
X024721Y006581D01*
X024578Y006640D01*
X024422Y006640D01*
X024279Y006581D01*
X024220Y006522D01*
X024220Y008284D01*
X024341Y008405D01*
X025341Y008405D01*
X025470Y008534D01*
X025720Y008784D01*
X025720Y008919D01*
X025721Y008919D01*
X025831Y009029D01*
X025890Y009172D01*
X025890Y009328D01*
X025831Y009471D01*
X025721Y009581D01*
X025626Y009620D01*
X025657Y009620D01*
X025880Y009843D01*
X025880Y010157D01*
X025657Y010380D01*
X025441Y010380D01*
X025591Y010530D01*
X025591Y010530D01*
X025720Y010659D01*
X025720Y010683D01*
X025880Y010843D01*
X025880Y011157D01*
X025657Y011380D01*
X025343Y011380D01*
X025120Y011157D01*
X025120Y010843D01*
X025201Y010762D01*
X025159Y010720D01*
X024814Y010720D01*
X024920Y010826D01*
X024920Y011000D01*
X024920Y011174D01*
X024674Y011420D01*
X024500Y011420D01*
X024500Y011000D01*
X024500Y011000D01*
X024920Y011000D01*
X024500Y011000D01*
X024500Y011000D01*
X024500Y011000D01*
X024080Y011000D01*
X024080Y011174D01*
X024326Y011420D01*
X024500Y011420D01*
X024500Y011000D01*
X024080Y011000D01*
X024080Y010826D01*
X024186Y010720D01*
X023814Y010720D01*
X023920Y010826D01*
X023920Y011000D01*
X023920Y011174D01*
X023689Y011405D01*
X024216Y011405D01*
X024470Y011659D01*
X024470Y012808D01*
X024630Y012968D01*
X024630Y013282D01*
X024407Y013505D01*
X024093Y013505D01*
X023870Y013282D01*
X023870Y012968D01*
X024030Y012808D01*
X024030Y011845D01*
X023159Y011845D01*
X023030Y011716D01*
X022780Y011466D01*
X022780Y011314D01*
X022674Y011420D01*
X022500Y011420D01*
X022500Y011000D01*
X022500Y011000D01*
X022500Y010580D01*
X022674Y010580D01*
X022780Y010686D01*
X022780Y010257D01*
X022657Y010380D01*
X022343Y010380D01*
X022120Y010157D01*
X022120Y009843D01*
X022343Y009620D01*
X022374Y009620D01*
X022279Y009581D01*
X022169Y009471D01*
X022110Y009328D01*
X022110Y009172D01*
X022169Y009029D01*
X022279Y008919D01*
X022422Y008860D01*
X022578Y008860D01*
X022721Y008919D01*
X022780Y008978D01*
X022780Y006522D01*
X022721Y006581D01*
X022578Y006640D01*
X022422Y006640D01*
X022279Y006581D01*
X022169Y006471D01*
X022110Y006328D01*
X022110Y006172D01*
X022169Y006029D01*
X022279Y005919D01*
X022374Y005880D01*
X022343Y005880D01*
X022120Y005657D01*
X022120Y005343D01*
X022338Y005125D01*
X022120Y004907D01*
X022120Y004593D01*
X022343Y004370D01*
X022657Y004370D01*
X022780Y004493D01*
X022780Y004341D01*
X022659Y004220D01*
X021314Y004220D01*
X021420Y004326D01*
X021420Y004500D01*
X021420Y004674D01*
X021174Y004920D01*
X021000Y004920D01*
X021000Y004500D01*
X021000Y004500D01*
X021420Y004500D01*
X021000Y004500D01*
X021000Y004500D01*
X021000Y004500D01*
X020580Y004500D01*
X020580Y004674D01*
X020826Y004920D01*
X021000Y004920D01*
X021000Y004500D01*
X020580Y004500D01*
X020580Y004326D01*
X020686Y004220D01*
X016814Y004220D01*
X016920Y004326D01*
X016920Y004500D01*
X016920Y004674D01*
X016674Y004920D01*
X016500Y004920D01*
X016500Y004500D01*
X016500Y004500D01*
X016920Y004500D01*
X016500Y004500D01*
X016500Y004500D01*
X016500Y004500D01*
X016080Y004500D01*
X016080Y004674D01*
X016326Y004920D01*
X016500Y004920D01*
X016500Y004500D01*
X016080Y004500D01*
X016080Y004326D01*
X016186Y004220D01*
X014757Y004220D01*
X014880Y004343D01*
X014880Y004657D01*
X014662Y004875D01*
X014880Y005093D01*
X014880Y005319D01*
X015220Y005659D01*
X015220Y005978D01*
X015279Y005919D01*
X015422Y005860D01*
X015578Y005860D01*
X015721Y005919D01*
X015831Y006029D01*
X015890Y006172D01*
X015890Y006328D01*
X015831Y006471D01*
X015721Y006581D01*
X015578Y006640D01*
X015422Y006640D01*
X015279Y006581D01*
X015220Y006522D01*
X015220Y008284D01*
X015341Y008405D01*
X016466Y008405D01*
X016595Y008534D01*
X016720Y008659D01*
X016720Y008919D01*
X016721Y008919D01*
X016831Y009029D01*
X016890Y009172D01*
X016890Y009328D01*
X016831Y009471D01*
X016721Y009581D01*
X016626Y009620D01*
X016657Y009620D01*
X016880Y009843D01*
X016880Y010157D01*
X016657Y010380D01*
X016566Y010380D01*
X016591Y010405D01*
X016720Y010534D01*
X016720Y010683D01*
X016880Y010843D01*
X016880Y011157D01*
X016657Y011380D01*
X016343Y011380D01*
X016120Y011157D01*
X016120Y010843D01*
X016243Y010720D01*
X015814Y010720D01*
X015920Y010826D01*
X015920Y011000D01*
X015920Y011174D01*
X015674Y011420D01*
X015500Y011420D01*
X015500Y011000D01*
X015500Y011000D01*
X015920Y011000D01*
X015500Y011000D01*
X015500Y011000D01*
X015500Y011000D01*
X015080Y011000D01*
X015080Y011174D01*
X015326Y011420D01*
X015500Y011420D01*
X015500Y011000D01*
X015080Y011000D01*
X015080Y010826D01*
X015186Y010720D01*
X014814Y010720D01*
X014920Y010826D01*
X014920Y011000D01*
X014920Y011174D01*
X014674Y011420D01*
X014500Y011420D01*
X014500Y011000D01*
X014500Y011000D01*
X014920Y011000D01*
X014500Y011000D01*
X014500Y011000D01*
X014500Y010580D01*
X014519Y010580D01*
X014280Y010341D01*
X014280Y010317D01*
X014120Y010157D01*
X014120Y009843D01*
X014343Y009620D01*
X014374Y009620D01*
X014279Y009581D01*
X014169Y009471D01*
X014110Y009328D01*
X014110Y009172D01*
X014169Y009029D01*
X014279Y008919D01*
X014422Y008860D01*
X014578Y008860D01*
X014721Y008919D01*
X014831Y009029D01*
X014890Y009172D01*
X014890Y009328D01*
X014831Y009471D01*
X014721Y009581D01*
X014626Y009620D01*
X014657Y009620D01*
X014880Y009843D01*
X014880Y010157D01*
X014799Y010238D01*
X014841Y010280D01*
X015243Y010280D01*
X015120Y010157D01*
X015120Y009843D01*
X015343Y009620D01*
X015374Y009620D01*
X015279Y009581D01*
X015169Y009471D01*
X015110Y009328D01*
X015110Y009172D01*
X015169Y009029D01*
X015279Y008919D01*
X015422Y008860D01*
X015578Y008860D01*
X015721Y008919D01*
X015831Y009029D01*
X015890Y009172D01*
X015890Y009328D01*
X015831Y009471D01*
X015721Y009581D01*
X015626Y009620D01*
X015657Y009620D01*
X015880Y009843D01*
X015880Y010157D01*
X015757Y010280D01*
X016243Y010280D01*
X016120Y010157D01*
X016120Y009843D01*
X016343Y009620D01*
X016374Y009620D01*
X016279Y009581D01*
X016169Y009471D01*
X016110Y009328D01*
X016110Y009172D01*
X016169Y009029D01*
X016279Y008919D01*
X016280Y008919D01*
X016280Y008845D01*
X015159Y008845D01*
X014909Y008595D01*
X014780Y008466D01*
X014780Y006578D01*
X014725Y006618D01*
X014665Y006648D01*
X014601Y006669D01*
X014534Y006680D01*
X014500Y006680D01*
X014500Y006250D01*
X014500Y006250D01*
X014500Y005820D01*
X014534Y005820D01*
X014601Y005831D01*
X014665Y005852D01*
X014725Y005882D01*
X014780Y005922D01*
X014780Y005841D01*
X014569Y005630D01*
X014343Y005630D01*
X014120Y005407D01*
X014120Y005093D01*
X014338Y004875D01*
X014120Y004657D01*
X014120Y004343D01*
X014243Y004220D01*
X013757Y004220D01*
X013880Y004343D01*
X013880Y004657D01*
X013662Y004875D01*
X013880Y005093D01*
X013880Y005407D01*
X013657Y005630D01*
X013343Y005630D01*
X013120Y005407D01*
X013120Y005093D01*
X013338Y004875D01*
X013120Y004657D01*
X013120Y004343D01*
X013243Y004220D01*
X013095Y004220D01*
X013095Y010442D01*
X013117Y010464D01*
X013160Y010568D01*
X013160Y010682D01*
X013117Y010786D01*
X013036Y010867D01*
X012932Y010910D01*
X012818Y010910D01*
X012714Y010867D01*
X012633Y010786D01*
X012590Y010682D01*
X012590Y010568D01*
X012633Y010464D01*
X012655Y010442D01*
X012655Y004341D01*
X012534Y004220D01*
X012314Y004220D01*
X012420Y004326D01*
X012420Y004500D01*
X012420Y004674D01*
X012174Y004920D01*
X012000Y004920D01*
X012000Y004500D01*
X012000Y004500D01*
X012420Y004500D01*
X012000Y004500D01*
X012000Y004500D01*
X012000Y004500D01*
X011580Y004500D01*
X011580Y004674D01*
X011826Y004920D01*
X012000Y004920D01*
X012000Y004500D01*
X011580Y004500D01*
X011580Y004326D01*
X011686Y004220D01*
X010409Y004220D01*
X010284Y004095D01*
X010257Y004095D01*
X010380Y004218D01*
X010380Y004532D01*
X010162Y004750D01*
X010380Y004968D01*
X010380Y005194D01*
X010720Y005534D01*
X010720Y005978D01*
X010779Y005919D01*
X010922Y005860D01*
X011078Y005860D01*
X011221Y005919D01*
X011331Y006029D01*
X011390Y006172D01*
X011390Y006328D01*
X011331Y006471D01*
X011221Y006581D01*
X011078Y006640D01*
X010922Y006640D01*
X010779Y006581D01*
X010720Y006522D01*
X010720Y008284D01*
X010841Y008405D01*
X011966Y008405D01*
X012095Y008534D01*
X012220Y008659D01*
X012220Y008919D01*
X012221Y008919D01*
X012331Y009029D01*
X012390Y009172D01*
X012390Y009328D01*
X012331Y009471D01*
X012221Y009581D01*
X012126Y009620D01*
X012157Y009620D01*
X012380Y009843D01*
X012380Y010157D01*
X012157Y010380D01*
X011843Y010380D01*
X011620Y010157D01*
X011620Y009843D01*
X011843Y009620D01*
X011874Y009620D01*
X011779Y009581D01*
X011669Y009471D01*
X011610Y009328D01*
X011610Y009172D01*
X011669Y009029D01*
X011779Y008919D01*
X011780Y008919D01*
X011780Y008845D01*
X010659Y008845D01*
X010409Y008595D01*
X010280Y008466D01*
X010280Y006578D01*
X010225Y006618D01*
X010165Y006648D01*
X010101Y006669D01*
X010034Y006680D01*
X010000Y006680D01*
X010000Y006250D01*
X010000Y006250D01*
X010000Y005820D01*
X010034Y005820D01*
X010101Y005831D01*
X010165Y005852D01*
X010225Y005882D01*
X010280Y005922D01*
X010280Y005716D01*
X010069Y005505D01*
X009843Y005505D01*
X009620Y005282D01*
X009620Y004968D01*
X009838Y004750D01*
X009620Y004532D01*
X009620Y004218D01*
X009743Y004095D01*
X009257Y004095D01*
X009380Y004218D01*
X009380Y004532D01*
X009162Y004750D01*
X009380Y004968D01*
X009380Y005282D01*
X009157Y005505D01*
X008843Y005505D01*
X008630Y005292D01*
X008630Y005532D01*
X008407Y005755D01*
X008093Y005755D01*
X007875Y005537D01*
X007657Y005755D01*
X007343Y005755D01*
X007125Y005537D01*
X006907Y005755D01*
X006593Y005755D01*
X006477Y005639D01*
X006477Y005971D01*
X006529Y005919D01*
X006672Y005860D01*
X006828Y005860D01*
X006971Y005919D01*
X007070Y006018D01*
X007218Y005870D01*
X007532Y005870D01*
X007755Y006093D01*
X007755Y006407D01*
X007532Y006630D01*
X007218Y006630D01*
X007070Y006482D01*
X006971Y006581D01*
X006828Y006640D01*
X006672Y006640D01*
X006529Y006581D01*
X006477Y006529D01*
X006477Y006914D01*
X006840Y007277D01*
X006969Y007406D01*
X006969Y007607D01*
X006970Y007608D01*
X010280Y007608D01*
X010280Y007450D02*
X006969Y007450D01*
X006970Y007608D02*
X006970Y008919D01*
X006971Y008919D01*
X007081Y009029D01*
X007140Y009172D01*
X007140Y009328D01*
X007081Y009471D01*
X006971Y009581D01*
X006828Y009640D01*
X006672Y009640D01*
X006529Y009581D01*
X006419Y009471D01*
X006360Y009328D01*
X006360Y009172D01*
X006419Y009029D01*
X006529Y008919D01*
X006530Y008919D01*
X006530Y007790D01*
X006529Y007790D01*
X006529Y007589D01*
X006037Y007096D01*
X006037Y006514D01*
X005971Y006581D01*
X005828Y006640D01*
X005672Y006640D01*
X005529Y006581D01*
X005419Y006471D01*
X005360Y006328D01*
X005360Y006172D01*
X005419Y006029D01*
X005529Y005919D01*
X005672Y005860D01*
X005828Y005860D01*
X005971Y005919D01*
X006037Y005986D01*
X006037Y005625D01*
X005907Y005755D01*
X005593Y005755D01*
X005370Y005532D01*
X005370Y005218D01*
X005593Y004995D01*
X005907Y004995D01*
X006037Y005125D01*
X006037Y003725D01*
X006166Y003596D01*
X006193Y003569D01*
X006193Y003303D01*
X006158Y003386D01*
X006011Y003534D01*
X005818Y003613D01*
X005610Y003613D01*
X005417Y003534D01*
X005270Y003386D01*
X005190Y003194D01*
X005190Y002985D01*
X005270Y002793D01*
X005417Y002646D01*
X005610Y002566D01*
X005818Y002566D01*
X006011Y002646D01*
X006158Y002793D01*
X006193Y002876D01*
X006193Y001911D01*
X005895Y001613D01*
X005818Y001645D01*
X005610Y001645D01*
X005417Y001565D01*
X005270Y001418D01*
X005190Y001225D01*
X005190Y001017D01*
X005270Y000824D01*
X005417Y000677D01*
X005610Y000597D01*
X005818Y000597D01*
X006011Y000677D01*
X006158Y000824D01*
X006238Y001017D01*
X006238Y001225D01*
X006206Y001302D01*
X006504Y001600D01*
X006633Y001729D01*
X006633Y003751D01*
X006477Y003907D01*
X006477Y004111D01*
X006530Y004058D01*
X006530Y003909D01*
X006905Y003534D01*
X007034Y003405D01*
X007257Y003405D01*
X007239Y003386D01*
X007159Y003194D01*
X007159Y002985D01*
X007239Y002793D01*
X007386Y002646D01*
X007578Y002566D01*
X007787Y002566D01*
X007979Y002646D01*
X008127Y002793D01*
X008207Y002985D01*
X008207Y003194D01*
X008127Y003386D01*
X008108Y003405D01*
X008284Y003405D01*
X008405Y003284D01*
X008534Y003155D01*
X009422Y003155D01*
X009189Y002922D01*
X009055Y002599D01*
X009055Y002249D01*
X009189Y001926D01*
X009437Y001679D01*
X009760Y001545D01*
X010110Y001545D01*
X010433Y001679D01*
X010681Y001926D01*
X010815Y002249D01*
X010815Y002599D01*
X010681Y002922D01*
X010448Y003155D01*
X013091Y003155D01*
X013466Y003530D01*
X017719Y003530D01*
X017530Y003341D01*
X017530Y002442D01*
X017370Y002282D01*
X017370Y001968D01*
X017588Y001750D01*
X017370Y001532D01*
X017370Y001218D01*
X017593Y000995D01*
X017907Y000995D01*
X018087Y001175D01*
X018953Y001175D01*
X018953Y001038D01*
X019019Y000878D01*
X019141Y000756D01*
X019301Y000690D01*
X019474Y000690D01*
X019634Y000756D01*
X019757Y000878D01*
X019781Y000938D01*
X019806Y000878D01*
X019929Y000756D01*
X020089Y000690D01*
X020262Y000690D01*
X020422Y000756D01*
X020544Y000878D01*
X020569Y000938D01*
X020594Y000878D01*
X020716Y000756D01*
X020876Y000690D01*
X021049Y000690D01*
X021209Y000756D01*
X021332Y000878D01*
X021356Y000938D01*
X021381Y000878D01*
X021503Y000756D01*
X021596Y000717D01*
X021780Y000534D01*
X021909Y000405D01*
X023216Y000405D01*
X023466Y000655D01*
X023564Y000753D01*
X023571Y000756D01*
X023694Y000878D01*
X023719Y000938D01*
X023743Y000878D01*
X023866Y000756D01*
X024026Y000690D01*
X024199Y000690D01*
X024359Y000756D01*
X024481Y000878D01*
X024547Y001038D01*
X024547Y001212D01*
X024490Y001350D01*
X025258Y001350D01*
X025370Y001462D01*
X025370Y001218D01*
X025593Y000995D01*
X025907Y000995D01*
X026130Y001218D01*
X026130Y001532D01*
X025912Y001750D01*
X026041Y001879D01*
X026041Y001801D01*
X026370Y001472D01*
X026370Y001218D01*
X026593Y000995D01*
X026907Y000995D01*
X027087Y001175D01*
X027953Y001175D01*
X027953Y001038D01*
X028019Y000878D01*
X028141Y000756D01*
X028301Y000690D01*
X028474Y000690D01*
X028634Y000756D01*
X028757Y000878D01*
X028781Y000938D01*
X028806Y000878D01*
X028929Y000756D01*
X029089Y000690D01*
X029262Y000690D01*
X029422Y000756D01*
X029544Y000878D01*
X029569Y000938D01*
X029594Y000878D01*
X029716Y000756D01*
X029876Y000690D01*
X030049Y000690D01*
X030209Y000756D01*
X030332Y000878D01*
X030356Y000938D01*
X030381Y000878D01*
X030503Y000756D01*
X030596Y000717D01*
X030780Y000534D01*
X030909Y000405D01*
X032091Y000405D01*
X032341Y000655D01*
X032376Y000690D01*
X032411Y000690D01*
X032571Y000756D01*
X032694Y000878D01*
X032719Y000938D01*
X032743Y000878D01*
X032866Y000756D01*
X033026Y000690D01*
X033199Y000690D01*
X033359Y000756D01*
X033481Y000878D01*
X033547Y001038D01*
X033547Y001212D01*
X033490Y001350D01*
X033868Y001350D01*
X033936Y001262D01*
X033936Y000627D01*
X033927Y000558D01*
X033936Y000546D01*
X033936Y000531D01*
X033985Y000482D01*
X034100Y000332D01*
X034100Y000317D01*
X033990Y000476D02*
X032162Y000476D01*
X032000Y000625D02*
X032250Y000875D01*
X032250Y001050D01*
X032325Y001125D01*
X032639Y001427D02*
X032798Y001427D01*
X032743Y001372D02*
X032719Y001312D01*
X032694Y001372D01*
X032571Y001494D01*
X032411Y001560D01*
X032238Y001560D01*
X032078Y001494D01*
X031956Y001372D01*
X031931Y001312D01*
X031906Y001372D01*
X031784Y001494D01*
X031624Y001560D01*
X031451Y001560D01*
X031291Y001494D01*
X031168Y001372D01*
X031144Y001312D01*
X031119Y001372D01*
X030997Y001494D01*
X030837Y001560D01*
X030663Y001560D01*
X030503Y001494D01*
X030381Y001372D01*
X030356Y001312D01*
X030332Y001372D01*
X030209Y001494D01*
X030049Y001560D01*
X029876Y001560D01*
X029716Y001494D01*
X029594Y001372D01*
X029569Y001312D01*
X029544Y001372D01*
X029422Y001494D01*
X029345Y001526D01*
X029345Y001659D01*
X029466Y001780D01*
X031542Y001780D01*
X031564Y001758D01*
X031668Y001715D01*
X031782Y001715D01*
X031886Y001758D01*
X031967Y001839D01*
X032010Y001943D01*
X032010Y002057D01*
X031987Y002111D01*
X032359Y002111D01*
X032944Y001526D01*
X032866Y001494D01*
X032743Y001372D01*
X032885Y001585D02*
X029345Y001585D01*
X029430Y001744D02*
X031599Y001744D01*
X031851Y001744D02*
X032727Y001744D01*
X032568Y001902D02*
X031993Y001902D01*
X032008Y002061D02*
X032410Y002061D01*
X031725Y002000D02*
X029375Y002000D01*
X029125Y001750D01*
X029125Y001175D01*
X029175Y001125D01*
X029489Y001427D02*
X029649Y001427D01*
X030277Y001427D02*
X030436Y001427D01*
X030750Y001125D02*
X030750Y000875D01*
X031000Y000625D01*
X032000Y000625D01*
X032320Y000634D02*
X033936Y000634D01*
X033936Y000793D02*
X033395Y000793D01*
X033511Y000951D02*
X033936Y000951D01*
X033936Y001110D02*
X033547Y001110D01*
X033524Y001268D02*
X033931Y001268D01*
X034750Y001625D02*
X034750Y000875D01*
X035250Y001125D02*
X035500Y000875D01*
X035750Y000875D01*
X036046Y000634D02*
X036240Y000634D01*
X036289Y000793D02*
X036130Y000793D01*
X036130Y000951D02*
X036405Y000951D01*
X036719Y000951D02*
X037872Y000951D01*
X037815Y001110D02*
X036053Y001110D01*
X035930Y001268D02*
X037815Y001268D01*
X037821Y001427D02*
X036089Y001427D01*
X036130Y001585D02*
X037887Y001585D01*
X037973Y001744D02*
X036130Y001744D01*
X036010Y001902D02*
X038131Y001902D01*
X039119Y001902D02*
X039395Y001902D01*
X039395Y001744D02*
X039277Y001744D01*
X039363Y001585D02*
X039395Y001585D01*
X039395Y002061D02*
X035973Y002061D01*
X036130Y002219D02*
X039395Y002219D01*
X039395Y002378D02*
X036130Y002378D01*
X036126Y002536D02*
X039395Y002536D01*
X039395Y002695D02*
X035968Y002695D01*
X036015Y002853D02*
X039395Y002853D01*
X039395Y003012D02*
X036130Y003012D01*
X036130Y003170D02*
X039395Y003170D01*
X039395Y003329D02*
X036084Y003329D01*
X035925Y003487D02*
X039395Y003487D01*
X039395Y003646D02*
X029342Y003646D01*
X029158Y003646D02*
X026416Y003646D01*
X026574Y003487D02*
X026926Y003487D01*
X026767Y003329D02*
X026733Y003329D01*
X026750Y003000D02*
X026150Y003600D01*
X025150Y003600D01*
X024850Y003900D01*
X023550Y003900D01*
X023150Y003500D01*
X018000Y003500D01*
X017750Y003250D01*
X017750Y002125D01*
X017465Y002378D02*
X017035Y002378D01*
X017130Y002282D02*
X016907Y002505D01*
X016593Y002505D01*
X016445Y002357D01*
X016445Y002599D01*
X016311Y002922D01*
X016063Y003170D01*
X017530Y003170D01*
X017530Y003012D02*
X016222Y003012D01*
X016339Y002853D02*
X017530Y002853D01*
X017530Y002695D02*
X016405Y002695D01*
X016445Y002536D02*
X017530Y002536D01*
X017370Y002219D02*
X017130Y002219D01*
X017130Y002282D02*
X017130Y001968D01*
X016912Y001750D01*
X017130Y001532D01*
X017130Y001218D01*
X016907Y000995D01*
X016593Y000995D01*
X016370Y001218D01*
X016370Y001437D01*
X016233Y001300D01*
X015511Y001300D01*
X015547Y001212D01*
X015547Y001038D01*
X015481Y000878D01*
X015359Y000756D01*
X015199Y000690D01*
X015026Y000690D01*
X014866Y000756D01*
X014743Y000878D01*
X014719Y000938D01*
X014694Y000878D01*
X014571Y000756D01*
X014411Y000690D01*
X014376Y000690D01*
X014341Y000655D01*
X014091Y000405D01*
X013034Y000405D01*
X012905Y000534D01*
X012749Y000690D01*
X012663Y000690D01*
X012503Y000756D01*
X012381Y000878D01*
X012356Y000938D01*
X012332Y000878D01*
X012209Y000756D01*
X012049Y000690D01*
X011876Y000690D01*
X011716Y000756D01*
X011594Y000878D01*
X011569Y000938D01*
X011544Y000878D01*
X011422Y000756D01*
X011262Y000690D01*
X011089Y000690D01*
X010929Y000756D01*
X010806Y000878D01*
X010781Y000938D01*
X010757Y000878D01*
X010634Y000756D01*
X010474Y000690D01*
X010301Y000690D01*
X010141Y000756D01*
X010019Y000878D01*
X009953Y001038D01*
X009953Y001212D01*
X010019Y001372D01*
X010141Y001494D01*
X010301Y001560D01*
X010474Y001560D01*
X010634Y001494D01*
X010757Y001372D01*
X010781Y001312D01*
X010806Y001372D01*
X010929Y001494D01*
X011030Y001536D01*
X011030Y001966D01*
X011159Y002095D01*
X011409Y002345D01*
X013817Y002345D01*
X013839Y002367D01*
X013943Y002410D01*
X014057Y002410D01*
X014161Y002367D01*
X014242Y002286D01*
X014285Y002182D01*
X014285Y002068D01*
X014242Y001964D01*
X014161Y001883D01*
X014057Y001840D01*
X013943Y001840D01*
X013839Y001883D01*
X013817Y001905D01*
X011591Y001905D01*
X011470Y001784D01*
X011470Y001446D01*
X011544Y001372D01*
X011569Y001312D01*
X011594Y001372D01*
X011716Y001494D01*
X011876Y001560D01*
X012049Y001560D01*
X012209Y001494D01*
X012332Y001372D01*
X012356Y001312D01*
X012381Y001372D01*
X012503Y001494D01*
X012663Y001560D01*
X012837Y001560D01*
X012997Y001494D01*
X013119Y001372D01*
X013144Y001312D01*
X013168Y001372D01*
X013291Y001494D01*
X013337Y001513D01*
X013337Y001520D01*
X013500Y001683D01*
X013617Y001800D01*
X014945Y001800D01*
X014819Y001926D01*
X014685Y002249D01*
X014685Y002599D01*
X014819Y002922D01*
X015067Y003170D01*
X013106Y003170D01*
X013265Y003329D02*
X017530Y003329D01*
X017676Y003487D02*
X013423Y003487D01*
X013375Y003750D02*
X013000Y003375D01*
X008625Y003375D01*
X008375Y003625D01*
X007125Y003625D01*
X006750Y004000D01*
X006750Y004375D01*
X007125Y004537D02*
X006907Y004755D01*
X006593Y004755D01*
X006477Y004639D01*
X006477Y005111D01*
X006593Y004995D01*
X006907Y004995D01*
X007125Y005213D01*
X007343Y004995D01*
X007657Y004995D01*
X007875Y005213D01*
X008093Y004995D01*
X008407Y004995D01*
X008620Y005208D01*
X008620Y004968D01*
X008838Y004750D01*
X008625Y004537D01*
X008407Y004755D01*
X008093Y004755D01*
X007875Y004537D01*
X007657Y004755D01*
X007343Y004755D01*
X007125Y004537D01*
X007066Y004597D02*
X007184Y004597D01*
X007816Y004597D02*
X007934Y004597D01*
X008566Y004597D02*
X008684Y004597D01*
X008833Y004755D02*
X006477Y004755D01*
X006477Y004914D02*
X008674Y004914D01*
X008620Y005072D02*
X008484Y005072D01*
X008016Y005072D02*
X007734Y005072D01*
X007266Y005072D02*
X006984Y005072D01*
X006516Y005072D02*
X006477Y005072D01*
X006037Y005072D02*
X005984Y005072D01*
X006037Y004914D02*
X004470Y004914D01*
X004593Y004995D02*
X004907Y004995D01*
X005130Y005218D01*
X005130Y005532D01*
X004907Y005755D01*
X004593Y005755D01*
X004470Y005632D01*
X004470Y005922D01*
X004525Y005882D01*
X004585Y005852D01*
X004649Y005831D01*
X004716Y005820D01*
X004750Y005820D01*
X004784Y005820D01*
X004851Y005831D01*
X004915Y005852D01*
X004975Y005882D01*
X005030Y005922D01*
X005078Y005970D01*
X005118Y006025D01*
X005148Y006085D01*
X005169Y006149D01*
X005180Y006216D01*
X005180Y006250D01*
X005180Y006284D01*
X005169Y006351D01*
X005148Y006415D01*
X005118Y006475D01*
X005078Y006530D01*
X005030Y006578D01*
X004975Y006618D01*
X004915Y006648D01*
X004851Y006669D01*
X004784Y006680D01*
X004750Y006680D01*
X004750Y006250D01*
X004750Y006250D01*
X005180Y006250D01*
X004750Y006250D01*
X004750Y006250D01*
X004750Y006680D01*
X004716Y006680D01*
X004649Y006669D01*
X004585Y006648D01*
X004525Y006618D01*
X004470Y006578D01*
X004470Y008159D01*
X004841Y008530D01*
X004970Y008659D01*
X004970Y008919D01*
X004971Y008919D01*
X005081Y009029D01*
X005140Y009172D01*
X005140Y009328D01*
X005081Y009471D01*
X004971Y009581D01*
X004828Y009640D01*
X004672Y009640D01*
X004630Y009622D01*
X004630Y009907D01*
X004407Y010130D01*
X004093Y010130D01*
X003870Y009907D01*
X003870Y009622D01*
X003828Y009640D01*
X003672Y009640D01*
X003529Y009581D01*
X003419Y009471D01*
X003360Y009328D01*
X003360Y009172D01*
X003419Y009029D01*
X003529Y008919D01*
X003672Y008860D01*
X003828Y008860D01*
X003971Y008919D01*
X004081Y009029D01*
X004140Y009172D01*
X004140Y009328D01*
X004122Y009370D01*
X004378Y009370D01*
X004360Y009328D01*
X004360Y009172D01*
X004419Y009029D01*
X004529Y008919D01*
X004530Y008919D01*
X004530Y008841D01*
X004030Y008341D01*
X004030Y006522D01*
X003971Y006581D01*
X003828Y006640D01*
X003672Y006640D01*
X003552Y006590D01*
X002766Y006590D01*
X002590Y006766D01*
X002590Y009553D01*
X002630Y009593D01*
X002630Y009907D01*
X002407Y010130D01*
X002093Y010130D01*
X001870Y009907D01*
X001870Y009593D01*
X001910Y009553D01*
X001910Y006557D01*
X001962Y006432D01*
X002337Y006057D01*
X002432Y005962D01*
X002557Y005910D01*
X003410Y005910D01*
X003410Y003495D01*
X003302Y003386D01*
X003222Y003194D01*
X003222Y002985D01*
X003302Y002793D01*
X003449Y002646D01*
X003641Y002566D01*
X003850Y002566D01*
X004042Y002646D01*
X004190Y002793D01*
X004270Y002985D01*
X004270Y003194D01*
X004190Y003386D01*
X004090Y003486D01*
X004090Y004474D01*
X004159Y004405D01*
X004280Y004284D01*
X004280Y001341D01*
X004222Y001341D01*
X004190Y001418D01*
X004042Y001565D01*
X003850Y001645D01*
X003641Y001645D01*
X003449Y001565D01*
X003302Y001418D01*
X003222Y001225D01*
X003222Y001017D01*
X003302Y000824D01*
X003449Y000677D01*
X003641Y000597D01*
X003850Y000597D01*
X004042Y000677D01*
X004190Y000824D01*
X004222Y000901D01*
X004462Y000901D01*
X004591Y001030D01*
X004720Y001159D01*
X004720Y004466D01*
X004470Y004716D01*
X004470Y005118D01*
X004593Y004995D01*
X004516Y005072D02*
X004470Y005072D01*
X004470Y004755D02*
X006037Y004755D01*
X006037Y004597D02*
X004590Y004597D01*
X004720Y004438D02*
X006037Y004438D01*
X006037Y004280D02*
X004720Y004280D01*
X004720Y004121D02*
X006037Y004121D01*
X006037Y003963D02*
X004720Y003963D01*
X004720Y003804D02*
X006037Y003804D01*
X006116Y003646D02*
X004720Y003646D01*
X004720Y003487D02*
X005371Y003487D01*
X005246Y003329D02*
X004720Y003329D01*
X004720Y003170D02*
X005190Y003170D01*
X005190Y003012D02*
X004720Y003012D01*
X004720Y002853D02*
X005245Y002853D01*
X005368Y002695D02*
X004720Y002695D01*
X004720Y002536D02*
X006193Y002536D01*
X006193Y002378D02*
X004720Y002378D01*
X004720Y002219D02*
X006193Y002219D01*
X006193Y002061D02*
X004720Y002061D01*
X004720Y001902D02*
X006184Y001902D01*
X006025Y001744D02*
X004720Y001744D01*
X004720Y001585D02*
X005465Y001585D01*
X005279Y001427D02*
X004720Y001427D01*
X004720Y001268D02*
X005208Y001268D01*
X005190Y001110D02*
X004671Y001110D01*
X004500Y001250D02*
X004500Y004375D01*
X004250Y004625D01*
X004250Y008250D01*
X004750Y008750D01*
X004750Y009250D01*
X004370Y009352D02*
X004130Y009352D01*
X004140Y009193D02*
X004360Y009193D01*
X004417Y009035D02*
X004083Y009035D01*
X003866Y008876D02*
X004530Y008876D01*
X004406Y008718D02*
X002590Y008718D01*
X002590Y008876D02*
X003634Y008876D01*
X003417Y009035D02*
X002590Y009035D01*
X002590Y009193D02*
X003360Y009193D01*
X003370Y009352D02*
X002590Y009352D01*
X002590Y009510D02*
X002828Y009510D01*
X002745Y009593D02*
X002968Y009370D01*
X003282Y009370D01*
X003505Y009593D01*
X003505Y009907D01*
X003282Y010130D01*
X002968Y010130D01*
X002745Y009907D01*
X002745Y009593D01*
X002745Y009669D02*
X002630Y009669D01*
X002630Y009827D02*
X002745Y009827D01*
X002823Y009986D02*
X002552Y009986D01*
X001948Y009986D02*
X000230Y009986D01*
X000230Y010144D02*
X005120Y010144D01*
X005120Y010282D02*
X005120Y009968D01*
X005343Y009745D01*
X005657Y009745D01*
X005880Y009968D01*
X005880Y010282D01*
X005657Y010505D01*
X005343Y010505D01*
X005120Y010282D01*
X005140Y010303D02*
X000230Y010303D01*
X000230Y010461D02*
X001038Y010461D01*
X001037Y010462D02*
X001087Y010412D01*
X001143Y010371D01*
X001205Y010340D01*
X001271Y010318D01*
X001340Y010307D01*
X001367Y010307D01*
X001367Y010742D01*
X000932Y010742D01*
X000932Y010715D01*
X000943Y010646D01*
X000965Y010580D01*
X000996Y010518D01*
X001037Y010462D01*
X000952Y010620D02*
X000230Y010620D01*
X000230Y010778D02*
X000932Y010778D01*
X000932Y010785D02*
X000932Y010758D01*
X001367Y010758D01*
X001367Y011193D01*
X001340Y011193D01*
X001271Y011182D01*
X001205Y011160D01*
X001143Y011129D01*
X001087Y011088D01*
X001037Y011038D01*
X000996Y010982D01*
X000965Y010920D01*
X000943Y010854D01*
X000932Y010785D01*
X000973Y010937D02*
X000230Y010937D01*
X000230Y011095D02*
X001097Y011095D01*
X001367Y011095D02*
X001383Y011095D01*
X001383Y011193D02*
X001383Y010758D01*
X001367Y010758D01*
X001367Y010742D01*
X001383Y010742D01*
X001383Y010758D01*
X001818Y010758D01*
X001818Y010785D01*
X001807Y010854D01*
X001785Y010920D01*
X001754Y010982D01*
X001713Y011038D01*
X001663Y011088D01*
X001607Y011129D01*
X001545Y011160D01*
X001479Y011182D01*
X001410Y011193D01*
X001383Y011193D01*
X001455Y011347D02*
X001295Y011347D01*
X001147Y011409D01*
X001034Y011522D01*
X000972Y011670D01*
X000972Y011830D01*
X001034Y011978D01*
X001147Y012091D01*
X001295Y012153D01*
X001455Y012153D01*
X001603Y012091D01*
X001716Y011978D01*
X001778Y011830D01*
X001778Y011670D01*
X001716Y011522D01*
X001603Y011409D01*
X001455Y011347D01*
X001607Y011412D02*
X005250Y011412D01*
X005343Y011505D02*
X005120Y011282D01*
X005120Y010968D01*
X005343Y010745D01*
X005657Y010745D01*
X005880Y010968D01*
X005880Y011282D01*
X005657Y011505D01*
X005343Y011505D01*
X005750Y011412D02*
X006250Y011412D01*
X006343Y011505D02*
X006120Y011282D01*
X006120Y010968D01*
X006343Y010745D01*
X006657Y010745D01*
X006880Y010968D01*
X006880Y011282D01*
X006657Y011505D01*
X006343Y011505D01*
X006343Y011620D02*
X006657Y011620D01*
X006880Y011843D01*
X006880Y012157D01*
X006657Y012380D01*
X006343Y012380D01*
X006120Y012157D01*
X006120Y011843D01*
X006343Y011620D01*
X006234Y011729D02*
X001778Y011729D01*
X001754Y011888D02*
X006120Y011888D01*
X006120Y012046D02*
X001649Y012046D01*
X001455Y012347D02*
X001295Y012347D01*
X001147Y012409D01*
X001034Y012522D01*
X000972Y012670D01*
X000972Y012830D01*
X001034Y012978D01*
X001147Y013091D01*
X001295Y013153D01*
X001455Y013153D01*
X001603Y013091D01*
X001716Y012978D01*
X001778Y012830D01*
X001778Y012670D01*
X001716Y012522D01*
X001603Y012409D01*
X001455Y012347D01*
X001493Y012363D02*
X006326Y012363D01*
X006167Y012205D02*
X000230Y012205D01*
X000230Y012363D02*
X001257Y012363D01*
X001034Y012522D02*
X000230Y012522D01*
X000230Y012680D02*
X000972Y012680D01*
X000976Y012839D02*
X000230Y012839D01*
X000230Y012997D02*
X001052Y012997D01*
X001698Y012997D02*
X002447Y012997D01*
X002442Y012983D02*
X002431Y012911D01*
X002431Y012884D01*
X002882Y012884D01*
X002882Y013335D01*
X002855Y013335D01*
X002783Y013324D01*
X002714Y013301D01*
X002650Y013268D01*
X002591Y013226D01*
X002540Y013175D01*
X002497Y013116D01*
X002464Y013052D01*
X002442Y012983D01*
X002431Y012866D02*
X002431Y012839D01*
X002442Y012767D01*
X002464Y012698D01*
X002497Y012634D01*
X002540Y012575D01*
X002591Y012524D01*
X002650Y012482D01*
X002714Y012449D01*
X002783Y012426D01*
X002855Y012415D01*
X002882Y012415D01*
X002882Y012866D01*
X002899Y012866D01*
X002899Y012415D01*
X002927Y012415D01*
X002998Y012426D01*
X003067Y012449D01*
X003132Y012482D01*
X003190Y012524D01*
X003242Y012575D01*
X003284Y012634D01*
X003317Y012698D01*
X003339Y012767D01*
X003351Y012839D01*
X003351Y012866D01*
X002899Y012866D01*
X002899Y012884D01*
X002882Y012884D01*
X002882Y012866D01*
X002431Y012866D01*
X002431Y012839D02*
X001774Y012839D01*
X001778Y012680D02*
X002474Y012680D01*
X002595Y012522D02*
X001716Y012522D01*
X001101Y012046D02*
X000230Y012046D01*
X000230Y011888D02*
X000996Y011888D01*
X000972Y011729D02*
X000230Y011729D01*
X000230Y011571D02*
X001013Y011571D01*
X001143Y011412D02*
X000230Y011412D01*
X000230Y011254D02*
X005120Y011254D01*
X005120Y011095D02*
X004442Y011095D01*
X004407Y011130D02*
X004093Y011130D01*
X003870Y010907D01*
X003870Y010593D01*
X004093Y010370D01*
X004407Y010370D01*
X004630Y010593D01*
X004630Y010907D01*
X004407Y011130D01*
X004601Y010937D02*
X005151Y010937D01*
X005310Y010778D02*
X004630Y010778D01*
X004630Y010620D02*
X008155Y010620D01*
X008155Y010778D02*
X007690Y010778D01*
X007657Y010745D02*
X007817Y010905D01*
X007966Y010905D01*
X008155Y011094D01*
X008155Y010386D01*
X008073Y010345D01*
X007817Y010345D01*
X007657Y010505D01*
X007343Y010505D01*
X007120Y010282D01*
X007120Y009968D01*
X007343Y009745D01*
X007657Y009745D01*
X007817Y009905D01*
X008089Y009905D01*
X008142Y009887D01*
X008177Y009905D01*
X008216Y009905D01*
X008255Y009944D01*
X008427Y010030D01*
X008466Y010030D01*
X008505Y010069D01*
X008555Y010094D01*
X008567Y010131D01*
X008595Y010159D01*
X008595Y010214D01*
X008613Y010267D01*
X008595Y010302D01*
X008595Y010811D01*
X008826Y010580D01*
X009000Y010580D01*
X009174Y010580D01*
X009420Y010826D01*
X009420Y011000D01*
X009420Y011174D01*
X009174Y011420D01*
X009000Y011420D01*
X009000Y011000D01*
X009000Y011000D01*
X009420Y011000D01*
X009000Y011000D01*
X009000Y011000D01*
X009000Y011420D01*
X008826Y011420D01*
X008595Y011189D01*
X008595Y012159D01*
X008716Y012280D01*
X017659Y012280D01*
X017780Y012159D01*
X017909Y012030D01*
X023466Y012030D01*
X023716Y012280D01*
X023845Y012409D01*
X023845Y013409D01*
X023966Y013530D01*
X026646Y013530D01*
X026528Y013481D01*
X026410Y013363D01*
X026346Y013209D01*
X026346Y013041D01*
X026410Y012887D01*
X026528Y012769D01*
X026682Y012705D01*
X026849Y012705D01*
X027004Y012769D01*
X027122Y012887D01*
X027186Y013041D01*
X027186Y013209D01*
X027122Y013363D01*
X027004Y013481D01*
X026885Y013530D01*
X028516Y013530D01*
X028493Y013518D01*
X028435Y013476D01*
X028383Y013425D01*
X028341Y013366D01*
X028308Y013302D01*
X028286Y013233D01*
X028274Y013161D01*
X028274Y013134D01*
X028726Y013134D01*
X028726Y013116D01*
X028743Y013116D01*
X028743Y012665D01*
X028770Y012665D01*
X028842Y012676D01*
X028911Y012699D01*
X028975Y012732D01*
X029034Y012774D01*
X029085Y012825D01*
X029128Y012884D01*
X029161Y012948D01*
X029183Y013017D01*
X029194Y013089D01*
X029194Y013116D01*
X028743Y013116D01*
X028743Y013134D01*
X029194Y013134D01*
X029194Y013161D01*
X029183Y013233D01*
X029161Y013302D01*
X029128Y013366D01*
X029085Y013425D01*
X029034Y013476D01*
X028975Y013518D01*
X028953Y013530D01*
X030061Y013530D01*
X029830Y013299D01*
X029830Y013125D01*
X030250Y013125D01*
X030670Y013125D01*
X030670Y013299D01*
X030439Y013530D01*
X030909Y013530D01*
X031013Y013426D01*
X030870Y013282D01*
X030870Y012968D01*
X031093Y012745D01*
X031407Y012745D01*
X031630Y012968D01*
X031630Y013282D01*
X031470Y013442D01*
X031470Y013591D01*
X031341Y013720D01*
X031091Y013970D01*
X023784Y013970D01*
X023655Y013841D01*
X023405Y013591D01*
X023405Y012591D01*
X023284Y012470D01*
X019439Y012470D01*
X019670Y012701D01*
X019670Y012875D01*
X019670Y013049D01*
X019424Y013295D01*
X019250Y013295D01*
X019250Y012875D01*
X019250Y012875D01*
X019670Y012875D01*
X019250Y012875D01*
X019250Y012875D01*
X019250Y012875D01*
X018830Y012875D01*
X018830Y013049D01*
X019076Y013295D01*
X019250Y013295D01*
X019250Y012875D01*
X018830Y012875D01*
X018830Y012701D01*
X019061Y012470D01*
X018091Y012470D01*
X017841Y012720D01*
X016979Y012720D01*
X017097Y012769D01*
X017215Y012887D01*
X017279Y013041D01*
X017279Y013209D01*
X017215Y013363D01*
X017173Y013405D01*
X020175Y013405D01*
X020353Y013226D01*
X020346Y013209D01*
X020346Y013041D01*
X020410Y012887D01*
X020528Y012769D01*
X020682Y012705D01*
X020849Y012705D01*
X021004Y012769D01*
X021122Y012887D01*
X021186Y013041D01*
X021186Y013209D01*
X021122Y013363D01*
X021004Y013481D01*
X020849Y013545D01*
X020682Y013545D01*
X020664Y013538D01*
X020357Y013845D01*
X008284Y013845D01*
X007905Y013466D01*
X007905Y011466D01*
X007801Y011362D01*
X007657Y011505D01*
X007343Y011505D01*
X007120Y011282D01*
X007120Y010968D01*
X007343Y010745D01*
X007657Y010745D01*
X007310Y010778D02*
X006690Y010778D01*
X006849Y010937D02*
X007151Y010937D01*
X007120Y011095D02*
X006880Y011095D01*
X006880Y011254D02*
X007120Y011254D01*
X007250Y011412D02*
X006750Y011412D01*
X007120Y011843D02*
X007343Y011620D01*
X007657Y011620D01*
X007880Y011843D01*
X007880Y012157D01*
X007657Y012380D01*
X007343Y012380D01*
X007120Y012157D01*
X007120Y011843D01*
X007120Y011888D02*
X006880Y011888D01*
X006880Y012046D02*
X007120Y012046D01*
X007167Y012205D02*
X006833Y012205D01*
X006674Y012363D02*
X007326Y012363D01*
X007343Y012620D02*
X007657Y012620D01*
X007880Y012843D01*
X007880Y013157D01*
X007657Y013380D01*
X007343Y013380D01*
X007120Y013157D01*
X007120Y012843D01*
X007343Y012620D01*
X007283Y012680D02*
X006717Y012680D01*
X006657Y012620D02*
X006880Y012843D01*
X006880Y013157D01*
X006657Y013380D01*
X006343Y013380D01*
X006120Y013157D01*
X006120Y012843D01*
X006343Y012620D01*
X006657Y012620D01*
X006876Y012839D02*
X007124Y012839D01*
X007120Y012997D02*
X006880Y012997D01*
X006880Y013156D02*
X007120Y013156D01*
X007277Y013314D02*
X006723Y013314D01*
X006277Y013314D02*
X003028Y013314D01*
X002998Y013324D02*
X002927Y013335D01*
X002899Y013335D01*
X002899Y012884D01*
X003351Y012884D01*
X003351Y012911D01*
X003339Y012983D01*
X003317Y013052D01*
X003284Y013116D01*
X003242Y013175D01*
X003190Y013226D01*
X003132Y013268D01*
X003067Y013301D01*
X002998Y013324D01*
X002899Y013314D02*
X002882Y013314D01*
X002753Y013314D02*
X000230Y013314D01*
X000230Y013156D02*
X002526Y013156D01*
X002882Y013156D02*
X002899Y013156D01*
X002882Y012997D02*
X002899Y012997D01*
X002882Y012839D02*
X002899Y012839D01*
X002882Y012680D02*
X002899Y012680D01*
X002882Y012522D02*
X002899Y012522D01*
X003187Y012522D02*
X004619Y012522D01*
X004621Y012519D02*
X004776Y012455D01*
X004943Y012455D01*
X005097Y012519D01*
X005215Y012637D01*
X005279Y012791D01*
X005279Y012959D01*
X005215Y013113D01*
X005097Y013231D01*
X004943Y013295D01*
X004776Y013295D01*
X004621Y013231D01*
X004503Y013113D01*
X004439Y012959D01*
X004439Y012791D01*
X004503Y012637D01*
X004621Y012519D01*
X004485Y012680D02*
X003308Y012680D01*
X003351Y012839D02*
X004439Y012839D01*
X004455Y012997D02*
X003335Y012997D01*
X003256Y013156D02*
X004546Y013156D01*
X005173Y013156D02*
X006120Y013156D01*
X006120Y012997D02*
X005263Y012997D01*
X005279Y012839D02*
X006124Y012839D01*
X006283Y012680D02*
X005233Y012680D01*
X005100Y012522D02*
X007905Y012522D01*
X007905Y012680D02*
X007717Y012680D01*
X007876Y012839D02*
X007905Y012839D01*
X007905Y012997D02*
X007880Y012997D01*
X007880Y013156D02*
X007905Y013156D01*
X007905Y013314D02*
X007723Y013314D01*
X007911Y013473D02*
X000230Y013473D01*
X000230Y013631D02*
X008070Y013631D01*
X008228Y013790D02*
X000230Y013790D01*
X000230Y013948D02*
X023762Y013948D01*
X023603Y013790D02*
X020412Y013790D01*
X020266Y013625D02*
X020766Y013125D01*
X021142Y013314D02*
X022314Y013314D01*
X022308Y013302D02*
X022286Y013233D01*
X022274Y013161D01*
X022274Y013134D01*
X022726Y013134D01*
X022726Y013585D01*
X022698Y013585D01*
X022627Y013574D01*
X022558Y013551D01*
X022493Y013518D01*
X022435Y013476D01*
X022383Y013425D01*
X022341Y013366D01*
X022308Y013302D01*
X022274Y013156D02*
X021186Y013156D01*
X021167Y012997D02*
X022292Y012997D01*
X022286Y013017D02*
X022308Y012948D01*
X022341Y012884D01*
X022383Y012825D01*
X022435Y012774D01*
X022493Y012732D01*
X022558Y012699D01*
X022627Y012676D01*
X022698Y012665D01*
X022726Y012665D01*
X022726Y013116D01*
X022743Y013116D01*
X022743Y012665D01*
X022770Y012665D01*
X022842Y012676D01*
X022911Y012699D01*
X022975Y012732D01*
X023034Y012774D01*
X023085Y012825D01*
X023128Y012884D01*
X023161Y012948D01*
X023183Y013017D01*
X023194Y013089D01*
X023194Y013116D01*
X022743Y013116D01*
X022743Y013134D01*
X022726Y013134D01*
X022726Y013116D01*
X022274Y013116D01*
X022274Y013089D01*
X022286Y013017D01*
X022374Y012839D02*
X021073Y012839D01*
X020458Y012839D02*
X019670Y012839D01*
X019670Y012997D02*
X020364Y012997D01*
X020346Y013156D02*
X019563Y013156D01*
X019250Y013156D02*
X019250Y013156D01*
X019250Y012997D02*
X019250Y012997D01*
X018937Y013156D02*
X018507Y013156D01*
X018407Y013255D02*
X018093Y013255D01*
X017870Y013032D01*
X017870Y012718D01*
X018093Y012495D01*
X018407Y012495D01*
X018630Y012718D01*
X018630Y013032D01*
X018407Y013255D01*
X018630Y012997D02*
X018830Y012997D01*
X018830Y012839D02*
X018630Y012839D01*
X018592Y012680D02*
X018851Y012680D01*
X019010Y012522D02*
X018434Y012522D01*
X018066Y012522D02*
X018040Y012522D01*
X017908Y012680D02*
X017881Y012680D01*
X017870Y012839D02*
X017167Y012839D01*
X017261Y012997D02*
X017870Y012997D01*
X017993Y013156D02*
X017279Y013156D01*
X017236Y013314D02*
X020266Y013314D01*
X020266Y013625D02*
X008375Y013625D01*
X008125Y013375D01*
X008125Y011375D01*
X007875Y011125D01*
X007500Y011125D01*
X007750Y011412D02*
X007851Y011412D01*
X007905Y011571D02*
X001737Y011571D01*
X001653Y011095D02*
X002058Y011095D01*
X002093Y011130D02*
X001870Y010907D01*
X001870Y010593D01*
X002093Y010370D01*
X002407Y010370D01*
X002630Y010593D01*
X002630Y010907D01*
X002407Y011130D01*
X002093Y011130D01*
X001899Y010937D02*
X001777Y010937D01*
X001818Y010778D02*
X001870Y010778D01*
X001818Y010742D02*
X001818Y010715D01*
X001807Y010646D01*
X001785Y010580D01*
X001754Y010518D01*
X001713Y010462D01*
X001663Y010412D01*
X001607Y010371D01*
X001545Y010340D01*
X001479Y010318D01*
X001410Y010307D01*
X001383Y010307D01*
X001383Y010742D01*
X001818Y010742D01*
X001798Y010620D02*
X001870Y010620D01*
X002002Y010461D02*
X001712Y010461D01*
X001383Y010461D02*
X001367Y010461D01*
X001367Y010620D02*
X001383Y010620D01*
X001367Y010778D02*
X001383Y010778D01*
X001367Y010937D02*
X001383Y010937D01*
X002442Y011095D02*
X002876Y011095D01*
X002951Y011170D02*
X002705Y010924D01*
X002705Y010750D01*
X003125Y010750D01*
X003125Y010750D01*
X003125Y011170D01*
X003299Y011170D01*
X003545Y010924D01*
X003545Y010750D01*
X003125Y010750D01*
X003125Y010750D01*
X003125Y010750D01*
X003125Y011170D01*
X002951Y011170D01*
X003125Y011095D02*
X003125Y011095D01*
X003125Y010937D02*
X003125Y010937D01*
X003125Y010778D02*
X003125Y010778D01*
X003125Y010750D02*
X002705Y010750D01*
X002705Y010576D01*
X002951Y010330D01*
X003125Y010330D01*
X003299Y010330D01*
X003545Y010576D01*
X003545Y010750D01*
X003125Y010750D01*
X003125Y010330D01*
X003125Y010750D01*
X003125Y010750D01*
X003125Y010620D02*
X003125Y010620D01*
X003125Y010461D02*
X003125Y010461D01*
X003430Y010461D02*
X004002Y010461D01*
X003870Y010620D02*
X003545Y010620D01*
X003545Y010778D02*
X003870Y010778D01*
X003899Y010937D02*
X003532Y010937D01*
X003374Y011095D02*
X004058Y011095D01*
X002718Y010937D02*
X002601Y010937D01*
X002630Y010778D02*
X002705Y010778D01*
X002705Y010620D02*
X002630Y010620D01*
X002498Y010461D02*
X002820Y010461D01*
X003427Y009986D02*
X003948Y009986D01*
X003870Y009827D02*
X003505Y009827D01*
X003505Y009669D02*
X003870Y009669D01*
X003458Y009510D02*
X003422Y009510D01*
X004630Y009669D02*
X005647Y009669D01*
X005649Y009669D02*
X005585Y009648D01*
X005525Y009618D01*
X005470Y009578D01*
X005422Y009530D01*
X005382Y009475D01*
X005352Y009415D01*
X005331Y009351D01*
X005320Y009284D01*
X005320Y009250D01*
X005750Y009250D01*
X005750Y009250D01*
X005750Y009680D01*
X005784Y009680D01*
X005851Y009669D01*
X005915Y009648D01*
X005975Y009618D01*
X006030Y009578D01*
X006078Y009530D01*
X006118Y009475D01*
X006148Y009415D01*
X006169Y009351D01*
X006180Y009284D01*
X006180Y009250D01*
X005750Y009250D01*
X005750Y009250D01*
X005750Y009250D01*
X005750Y009680D01*
X005716Y009680D01*
X005649Y009669D01*
X005750Y009669D02*
X005750Y009669D01*
X005853Y009669D02*
X008794Y009669D01*
X008843Y009620D02*
X008620Y009843D01*
X008620Y010157D01*
X008843Y010380D01*
X009157Y010380D01*
X009380Y010157D01*
X009380Y009843D01*
X009157Y009620D01*
X009126Y009620D01*
X009221Y009581D01*
X009331Y009471D01*
X009390Y009328D01*
X009390Y009172D01*
X009331Y009029D01*
X009221Y008919D01*
X009078Y008860D01*
X008922Y008860D01*
X008779Y008919D01*
X008669Y009029D01*
X008610Y009172D01*
X008610Y009328D01*
X008669Y009471D01*
X008779Y009581D01*
X008874Y009620D01*
X008843Y009620D01*
X008708Y009510D02*
X007042Y009510D01*
X007130Y009352D02*
X008620Y009352D01*
X008610Y009193D02*
X007140Y009193D01*
X007083Y009035D02*
X008667Y009035D01*
X008884Y008876D02*
X006970Y008876D01*
X006970Y008718D02*
X010531Y008718D01*
X010373Y008559D02*
X006970Y008559D01*
X006970Y008401D02*
X010280Y008401D01*
X010280Y008242D02*
X006970Y008242D01*
X006970Y008084D02*
X010280Y008084D01*
X010280Y007925D02*
X006970Y007925D01*
X006970Y007767D02*
X010280Y007767D01*
X010720Y007767D02*
X012655Y007767D01*
X012655Y007925D02*
X010720Y007925D01*
X010720Y008084D02*
X012655Y008084D01*
X012655Y008242D02*
X010720Y008242D01*
X010837Y008401D02*
X012655Y008401D01*
X012655Y008559D02*
X012120Y008559D01*
X012220Y008718D02*
X012655Y008718D01*
X012655Y008876D02*
X012220Y008876D01*
X012333Y009035D02*
X012655Y009035D01*
X012655Y009193D02*
X012390Y009193D01*
X012380Y009352D02*
X012655Y009352D01*
X012655Y009510D02*
X012292Y009510D01*
X012206Y009669D02*
X012655Y009669D01*
X012655Y009827D02*
X012364Y009827D01*
X012380Y009986D02*
X012655Y009986D01*
X012655Y010144D02*
X012380Y010144D01*
X012235Y010303D02*
X012655Y010303D01*
X012636Y010461D02*
X011772Y010461D01*
X011765Y010303D02*
X011614Y010303D01*
X011591Y010280D02*
X011931Y010620D01*
X012157Y010620D01*
X012380Y010843D01*
X012380Y011157D01*
X012157Y011380D01*
X011843Y011380D01*
X011620Y011157D01*
X011620Y010931D01*
X011409Y010720D01*
X011314Y010720D01*
X011420Y010826D01*
X011420Y011000D01*
X011420Y011174D01*
X011174Y011420D01*
X011000Y011420D01*
X011000Y011000D01*
X011000Y011000D01*
X011420Y011000D01*
X011000Y011000D01*
X011000Y011000D01*
X011000Y011000D01*
X010580Y011000D01*
X010580Y011174D01*
X010826Y011420D01*
X011000Y011420D01*
X011000Y011000D01*
X010580Y011000D01*
X010580Y010826D01*
X010686Y010720D01*
X010314Y010720D01*
X010420Y010826D01*
X010420Y011000D01*
X010420Y011174D01*
X010174Y011420D01*
X010000Y011420D01*
X010000Y011000D01*
X010000Y011000D01*
X010420Y011000D01*
X010000Y011000D01*
X010000Y011000D01*
X010000Y010580D01*
X010144Y010580D01*
X009944Y010380D01*
X009843Y010380D01*
X009620Y010157D01*
X009620Y009843D01*
X009843Y009620D01*
X009874Y009620D01*
X009779Y009581D01*
X009669Y009471D01*
X009610Y009328D01*
X009610Y009172D01*
X009669Y009029D01*
X009779Y008919D01*
X009922Y008860D01*
X010078Y008860D01*
X010221Y008919D01*
X010331Y009029D01*
X010390Y009172D01*
X010390Y009328D01*
X010331Y009471D01*
X010221Y009581D01*
X010126Y009620D01*
X010157Y009620D01*
X010380Y009843D01*
X010380Y010157D01*
X010362Y010176D01*
X010466Y010280D01*
X010743Y010280D01*
X010620Y010157D01*
X010620Y009843D01*
X010843Y009620D01*
X010874Y009620D01*
X010779Y009581D01*
X010669Y009471D01*
X010610Y009328D01*
X010610Y009172D01*
X010669Y009029D01*
X010779Y008919D01*
X010922Y008860D01*
X011078Y008860D01*
X011221Y008919D01*
X011331Y009029D01*
X011390Y009172D01*
X011390Y009328D01*
X011331Y009471D01*
X011221Y009581D01*
X011126Y009620D01*
X011157Y009620D01*
X011380Y009843D01*
X011380Y010157D01*
X011257Y010280D01*
X011591Y010280D01*
X011620Y010144D02*
X011380Y010144D01*
X011380Y009986D02*
X011620Y009986D01*
X011636Y009827D02*
X011364Y009827D01*
X011206Y009669D02*
X011794Y009669D01*
X011708Y009510D02*
X011292Y009510D01*
X011380Y009352D02*
X011620Y009352D01*
X011610Y009193D02*
X011390Y009193D01*
X011333Y009035D02*
X011667Y009035D01*
X011780Y008876D02*
X011116Y008876D01*
X010884Y008876D02*
X010116Y008876D01*
X009884Y008876D02*
X009116Y008876D01*
X009333Y009035D02*
X009667Y009035D01*
X009610Y009193D02*
X009390Y009193D01*
X009380Y009352D02*
X009620Y009352D01*
X009708Y009510D02*
X009292Y009510D01*
X009206Y009669D02*
X009794Y009669D01*
X009636Y009827D02*
X009364Y009827D01*
X009380Y009986D02*
X009620Y009986D01*
X009620Y010144D02*
X009380Y010144D01*
X009235Y010303D02*
X009765Y010303D01*
X010000Y010125D02*
X010375Y010500D01*
X011500Y010500D01*
X012000Y011000D01*
X012284Y011254D02*
X013160Y011254D01*
X013080Y011174D02*
X013080Y011000D01*
X013500Y011000D01*
X013500Y011000D01*
X013500Y011420D01*
X013674Y011420D01*
X013920Y011174D01*
X013920Y011000D01*
X013500Y011000D01*
X013500Y011000D01*
X013500Y011000D01*
X013500Y011420D01*
X013326Y011420D01*
X013080Y011174D01*
X013080Y011095D02*
X012380Y011095D01*
X012380Y010937D02*
X013080Y010937D01*
X013080Y011000D02*
X013080Y010826D01*
X013326Y010580D01*
X013500Y010580D01*
X013674Y010580D01*
X013920Y010826D01*
X013920Y011000D01*
X013500Y011000D01*
X013500Y010580D01*
X013500Y011000D01*
X013500Y011000D01*
X013080Y011000D01*
X013120Y010778D02*
X013128Y010778D01*
X013160Y010620D02*
X013287Y010620D01*
X013500Y010620D02*
X013500Y010620D01*
X013500Y010778D02*
X013500Y010778D01*
X013500Y010937D02*
X013500Y010937D01*
X013500Y011095D02*
X013500Y011095D01*
X013500Y011254D02*
X013500Y011254D01*
X013500Y011412D02*
X013500Y011412D01*
X013682Y011412D02*
X014318Y011412D01*
X014326Y011420D02*
X014080Y011174D01*
X014080Y011000D01*
X014500Y011000D01*
X014500Y011000D01*
X014500Y011000D01*
X014500Y011420D01*
X014326Y011420D01*
X014500Y011412D02*
X014500Y011412D01*
X014500Y011254D02*
X014500Y011254D01*
X014500Y011095D02*
X014500Y011095D01*
X014500Y011000D02*
X014080Y011000D01*
X014080Y010826D01*
X014326Y010580D01*
X014500Y010580D01*
X014500Y011000D01*
X014500Y010937D02*
X014500Y010937D01*
X014500Y010778D02*
X014500Y010778D01*
X014500Y010620D02*
X014500Y010620D01*
X014400Y010461D02*
X013114Y010461D01*
X013095Y010303D02*
X013265Y010303D01*
X013343Y010380D02*
X013120Y010157D01*
X013120Y009843D01*
X013343Y009620D01*
X013374Y009620D01*
X013279Y009581D01*
X013169Y009471D01*
X013110Y009328D01*
X013110Y009172D01*
X013169Y009029D01*
X013279Y008919D01*
X013422Y008860D01*
X013578Y008860D01*
X013721Y008919D01*
X013831Y009029D01*
X013890Y009172D01*
X013890Y009328D01*
X013831Y009471D01*
X013721Y009581D01*
X013626Y009620D01*
X013657Y009620D01*
X013880Y009843D01*
X013880Y010157D01*
X013657Y010380D01*
X013343Y010380D01*
X013735Y010303D02*
X014265Y010303D01*
X014120Y010144D02*
X013880Y010144D01*
X013880Y009986D02*
X014120Y009986D01*
X014136Y009827D02*
X013864Y009827D01*
X013706Y009669D02*
X014294Y009669D01*
X014208Y009510D02*
X013792Y009510D01*
X013880Y009352D02*
X014120Y009352D01*
X014110Y009193D02*
X013890Y009193D01*
X013833Y009035D02*
X014167Y009035D01*
X014384Y008876D02*
X013616Y008876D01*
X013384Y008876D02*
X013095Y008876D01*
X013095Y008718D02*
X015031Y008718D01*
X014873Y008559D02*
X013095Y008559D01*
X013095Y008401D02*
X014780Y008401D01*
X014780Y008242D02*
X013095Y008242D01*
X013095Y008084D02*
X014780Y008084D01*
X014780Y007925D02*
X013095Y007925D01*
X013095Y007767D02*
X014780Y007767D01*
X014780Y007608D02*
X013095Y007608D01*
X013095Y007450D02*
X014780Y007450D01*
X014780Y007291D02*
X013095Y007291D01*
X013095Y007133D02*
X014780Y007133D01*
X014780Y006974D02*
X013095Y006974D01*
X013095Y006816D02*
X014780Y006816D01*
X014780Y006657D02*
X014639Y006657D01*
X014500Y006657D02*
X014500Y006657D01*
X014500Y006680D02*
X014466Y006680D01*
X014399Y006669D01*
X014335Y006648D01*
X014275Y006618D01*
X014220Y006578D01*
X014172Y006530D01*
X014132Y006475D01*
X014102Y006415D01*
X014081Y006351D01*
X014070Y006284D01*
X014070Y006250D01*
X014500Y006250D01*
X014500Y006250D01*
X014500Y006250D01*
X014500Y006680D01*
X014361Y006657D02*
X013095Y006657D01*
X013095Y006499D02*
X013197Y006499D01*
X013169Y006471D02*
X013110Y006328D01*
X013110Y006172D01*
X013169Y006029D01*
X013279Y005919D01*
X013422Y005860D01*
X013578Y005860D01*
X013721Y005919D01*
X013831Y006029D01*
X013890Y006172D01*
X013890Y006328D01*
X013831Y006471D01*
X013721Y006581D01*
X013578Y006640D01*
X013422Y006640D01*
X013279Y006581D01*
X013169Y006471D01*
X013115Y006340D02*
X013095Y006340D01*
X013095Y006182D02*
X013110Y006182D01*
X013095Y006023D02*
X013175Y006023D01*
X013095Y005865D02*
X013412Y005865D01*
X013588Y005865D02*
X014309Y005865D01*
X014335Y005852D02*
X014275Y005882D01*
X014220Y005922D01*
X014172Y005970D01*
X014132Y006025D01*
X014102Y006085D01*
X014081Y006149D01*
X014070Y006216D01*
X014070Y006250D01*
X014500Y006250D01*
X014500Y005820D01*
X014466Y005820D01*
X014399Y005831D01*
X014335Y005852D01*
X014500Y005865D02*
X014500Y005865D01*
X014500Y006023D02*
X014500Y006023D01*
X014500Y006182D02*
X014500Y006182D01*
X014500Y006340D02*
X014500Y006340D01*
X014500Y006499D02*
X014500Y006499D01*
X014149Y006499D02*
X013803Y006499D01*
X013885Y006340D02*
X014079Y006340D01*
X014075Y006182D02*
X013890Y006182D01*
X013825Y006023D02*
X014133Y006023D01*
X014691Y005865D02*
X014780Y005865D01*
X014645Y005706D02*
X013095Y005706D01*
X013095Y005548D02*
X013260Y005548D01*
X013120Y005389D02*
X013095Y005389D01*
X013095Y005231D02*
X013120Y005231D01*
X013095Y005072D02*
X013141Y005072D01*
X013095Y004914D02*
X013299Y004914D01*
X013218Y004755D02*
X013095Y004755D01*
X013095Y004597D02*
X013120Y004597D01*
X013120Y004438D02*
X013095Y004438D01*
X013095Y004280D02*
X013183Y004280D01*
X012875Y004250D02*
X012625Y004000D01*
X010500Y004000D01*
X010375Y003875D01*
X008875Y003875D01*
X008500Y004250D01*
X008375Y004250D01*
X008250Y004375D01*
X008000Y003875D02*
X007500Y004375D01*
X008000Y003875D02*
X008500Y003875D01*
X008750Y003625D01*
X010625Y003625D01*
X010750Y003750D01*
X012875Y003750D01*
X013125Y004000D01*
X022750Y004000D01*
X023000Y004250D01*
X023000Y011375D01*
X023250Y011625D01*
X024125Y011625D01*
X024250Y011750D01*
X024250Y013125D01*
X024630Y013156D02*
X024870Y013156D01*
X024870Y013282D02*
X024870Y012968D01*
X025093Y012745D01*
X025407Y012745D01*
X025630Y012968D01*
X025630Y013282D01*
X025407Y013505D01*
X025093Y013505D01*
X024870Y013282D01*
X024902Y013314D02*
X024598Y013314D01*
X024440Y013473D02*
X025060Y013473D01*
X025440Y013473D02*
X026519Y013473D01*
X026389Y013314D02*
X025598Y013314D01*
X025630Y013156D02*
X026346Y013156D01*
X026364Y012997D02*
X025630Y012997D01*
X025501Y012839D02*
X026458Y012839D01*
X027073Y012839D02*
X028374Y012839D01*
X028383Y012825D02*
X028435Y012774D01*
X028493Y012732D01*
X028558Y012699D01*
X028627Y012676D01*
X028698Y012665D01*
X028726Y012665D01*
X028726Y013116D01*
X028274Y013116D01*
X028274Y013089D01*
X028286Y013017D01*
X028308Y012948D01*
X028341Y012884D01*
X028383Y012825D01*
X028292Y012997D02*
X027167Y012997D01*
X027186Y013156D02*
X028274Y013156D01*
X028314Y013314D02*
X027142Y013314D01*
X027012Y013473D02*
X028431Y013473D01*
X029037Y013473D02*
X030004Y013473D01*
X029845Y013314D02*
X029154Y013314D01*
X029194Y013156D02*
X029830Y013156D01*
X029830Y013125D02*
X029830Y012951D01*
X030076Y012705D01*
X030250Y012705D01*
X030424Y012705D01*
X030670Y012951D01*
X030670Y013125D01*
X030250Y013125D01*
X030250Y013125D01*
X030250Y012705D01*
X030250Y013125D01*
X030250Y013125D01*
X030250Y013125D01*
X029830Y013125D01*
X029830Y012997D02*
X029176Y012997D01*
X029095Y012839D02*
X029943Y012839D01*
X030250Y012839D02*
X030250Y012839D01*
X030250Y012997D02*
X030250Y012997D01*
X030557Y012839D02*
X030999Y012839D01*
X030870Y012997D02*
X030670Y012997D01*
X030670Y013156D02*
X030870Y013156D01*
X030902Y013314D02*
X030655Y013314D01*
X030496Y013473D02*
X030966Y013473D01*
X031000Y013750D02*
X031250Y013500D01*
X031250Y013125D01*
X031630Y013156D02*
X032346Y013156D01*
X032346Y013209D02*
X032346Y013041D01*
X032410Y012887D01*
X032528Y012769D01*
X032682Y012705D01*
X032849Y012705D01*
X033004Y012769D01*
X033122Y012887D01*
X033186Y013041D01*
X033186Y013209D01*
X033122Y013363D01*
X033004Y013481D01*
X032849Y013545D01*
X032682Y013545D01*
X032528Y013481D01*
X032410Y013363D01*
X032346Y013209D01*
X032389Y013314D02*
X031598Y013314D01*
X031470Y013473D02*
X032519Y013473D01*
X033012Y013473D02*
X034488Y013473D01*
X034496Y013481D02*
X034378Y013363D01*
X034314Y013209D01*
X034314Y013041D01*
X034378Y012887D01*
X034496Y012769D01*
X034651Y012705D01*
X034818Y012705D01*
X034972Y012769D01*
X035090Y012887D01*
X035154Y013041D01*
X035154Y013209D01*
X035090Y013363D01*
X034972Y013481D01*
X034818Y013545D01*
X034651Y013545D01*
X034496Y013481D01*
X034358Y013314D02*
X033142Y013314D01*
X033186Y013156D02*
X034314Y013156D01*
X034333Y012997D02*
X033167Y012997D01*
X033073Y012839D02*
X034427Y012839D01*
X035042Y012839D02*
X035999Y012839D01*
X036093Y012745D02*
X035870Y012968D01*
X035870Y013282D01*
X036093Y013505D01*
X036407Y013505D01*
X036630Y013282D01*
X036630Y012968D01*
X036407Y012745D01*
X036093Y012745D01*
X035870Y012997D02*
X035136Y012997D01*
X035154Y013156D02*
X035870Y013156D01*
X035902Y013314D02*
X035111Y013314D01*
X034981Y013473D02*
X036060Y013473D01*
X036440Y013473D02*
X037004Y013473D01*
X037076Y013545D02*
X036830Y013299D01*
X036830Y013125D01*
X037250Y013125D01*
X037670Y013125D01*
X037670Y013299D01*
X037424Y013545D01*
X037250Y013545D01*
X037250Y013125D01*
X037250Y013125D01*
X037250Y013125D01*
X037670Y013125D01*
X037670Y012951D01*
X037424Y012705D01*
X037250Y012705D01*
X037250Y013125D01*
X037250Y013125D01*
X037250Y013125D01*
X037250Y013545D01*
X037076Y013545D01*
X037250Y013473D02*
X037250Y013473D01*
X037250Y013314D02*
X037250Y013314D01*
X037250Y013156D02*
X037250Y013156D01*
X037250Y013125D02*
X036830Y013125D01*
X036830Y012951D01*
X037076Y012705D01*
X037250Y012705D01*
X037250Y013125D01*
X037250Y012997D02*
X037250Y012997D01*
X037250Y012839D02*
X037250Y012839D01*
X037250Y012670D02*
X037076Y012670D01*
X036830Y012424D01*
X036830Y012250D01*
X037250Y012250D01*
X037670Y012250D01*
X037670Y012424D01*
X037424Y012670D01*
X037250Y012670D01*
X037250Y012250D01*
X037250Y012250D01*
X037250Y012250D01*
X037670Y012250D01*
X037670Y012076D01*
X037424Y011830D01*
X037250Y011830D01*
X037250Y012250D01*
X037250Y012250D01*
X037250Y012250D01*
X037250Y012670D01*
X037250Y012522D02*
X037250Y012522D01*
X037250Y012363D02*
X037250Y012363D01*
X037250Y012250D02*
X036830Y012250D01*
X036830Y012076D01*
X037076Y011830D01*
X037250Y011830D01*
X037250Y012250D01*
X037250Y012205D02*
X037250Y012205D01*
X037250Y012046D02*
X037250Y012046D01*
X037250Y011888D02*
X037250Y011888D01*
X037481Y011888D02*
X039395Y011888D01*
X039395Y012046D02*
X037640Y012046D01*
X037670Y012205D02*
X039395Y012205D01*
X039395Y012363D02*
X037670Y012363D01*
X037572Y012522D02*
X039395Y012522D01*
X039395Y012680D02*
X028853Y012680D01*
X028743Y012680D02*
X028726Y012680D01*
X028615Y012680D02*
X024470Y012680D01*
X024470Y012522D02*
X035984Y012522D01*
X035870Y012363D02*
X024470Y012363D01*
X024470Y012205D02*
X035870Y012205D01*
X035735Y012046D02*
X024470Y012046D01*
X024470Y011888D02*
X035576Y011888D01*
X035530Y011729D02*
X024470Y011729D01*
X024382Y011571D02*
X035530Y011571D01*
X035530Y011412D02*
X033682Y011412D01*
X033674Y011420D02*
X033500Y011420D01*
X033500Y011000D01*
X033500Y011000D01*
X033920Y011000D01*
X033920Y011174D01*
X033674Y011420D01*
X033500Y011420D02*
X033326Y011420D01*
X033080Y011174D01*
X033080Y011000D01*
X033500Y011000D01*
X033500Y011000D01*
X033500Y011000D01*
X033500Y011420D01*
X033500Y011412D02*
X033500Y011412D01*
X033500Y011254D02*
X033500Y011254D01*
X033500Y011095D02*
X033500Y011095D01*
X033500Y011000D02*
X033080Y011000D01*
X033080Y010826D01*
X033186Y010720D01*
X032814Y010720D01*
X032920Y010826D01*
X032920Y011000D01*
X032920Y011174D01*
X032674Y011420D01*
X032500Y011420D01*
X032500Y011000D01*
X032500Y011000D01*
X032920Y011000D01*
X032500Y011000D01*
X032500Y011000D01*
X032500Y010580D01*
X032519Y010580D01*
X032280Y010341D01*
X032280Y010317D01*
X032120Y010157D01*
X032120Y009843D01*
X032343Y009620D01*
X032374Y009620D01*
X032279Y009581D01*
X032169Y009471D01*
X032110Y009328D01*
X032110Y009172D01*
X032169Y009029D01*
X032279Y008919D01*
X032422Y008860D01*
X032578Y008860D01*
X032721Y008919D01*
X032831Y009029D01*
X032890Y009172D01*
X032890Y009328D01*
X032831Y009471D01*
X032721Y009581D01*
X032626Y009620D01*
X032657Y009620D01*
X032880Y009843D01*
X032880Y010157D01*
X032799Y010238D01*
X032841Y010280D01*
X033243Y010280D01*
X033120Y010157D01*
X033120Y009843D01*
X033343Y009620D01*
X033374Y009620D01*
X033279Y009581D01*
X033169Y009471D01*
X033110Y009328D01*
X033110Y009172D01*
X033169Y009029D01*
X033279Y008919D01*
X033422Y008860D01*
X033578Y008860D01*
X033721Y008919D01*
X033831Y009029D01*
X033890Y009172D01*
X033890Y009328D01*
X033831Y009471D01*
X033721Y009581D01*
X033626Y009620D01*
X033657Y009620D01*
X033880Y009843D01*
X033880Y010157D01*
X033757Y010280D01*
X034243Y010280D01*
X034120Y010157D01*
X034120Y009843D01*
X034343Y009620D01*
X034374Y009620D01*
X034279Y009581D01*
X034169Y009471D01*
X034110Y009328D01*
X034110Y009172D01*
X034169Y009029D01*
X034256Y008942D01*
X034159Y008845D01*
X033159Y008845D01*
X032909Y008595D01*
X032780Y008466D01*
X032780Y006578D01*
X032725Y006618D01*
X032665Y006648D01*
X032601Y006669D01*
X032534Y006680D01*
X032500Y006680D01*
X032500Y006250D01*
X032500Y006250D01*
X032500Y006250D01*
X032070Y006250D01*
X032070Y006284D01*
X032081Y006351D01*
X032102Y006415D01*
X032132Y006475D01*
X032172Y006530D01*
X032220Y006578D01*
X032275Y006618D01*
X032335Y006648D01*
X032399Y006669D01*
X032466Y006680D01*
X032500Y006680D01*
X032500Y006250D01*
X032070Y006250D01*
X032070Y006216D01*
X032081Y006149D01*
X032102Y006085D01*
X032132Y006025D01*
X032172Y005970D01*
X032220Y005922D01*
X032275Y005882D01*
X032321Y005859D01*
X032120Y005657D01*
X032120Y005343D01*
X032338Y005125D01*
X032120Y004907D01*
X032120Y004593D01*
X032343Y004370D01*
X032657Y004370D01*
X032880Y004593D01*
X032880Y004907D01*
X032662Y005125D01*
X032817Y005280D01*
X032966Y005280D01*
X033095Y005409D01*
X033220Y005534D01*
X033220Y005978D01*
X033279Y005919D01*
X033422Y005860D01*
X033578Y005860D01*
X033721Y005919D01*
X033831Y006029D01*
X033890Y006172D01*
X033890Y006328D01*
X033831Y006471D01*
X033721Y006581D01*
X033578Y006640D01*
X033422Y006640D01*
X033279Y006581D01*
X033220Y006522D01*
X033220Y008284D01*
X033341Y008405D01*
X034341Y008405D01*
X034470Y008534D01*
X034720Y008784D01*
X034720Y008919D01*
X034721Y008919D01*
X034831Y009029D01*
X034890Y009172D01*
X034890Y009328D01*
X034831Y009471D01*
X034721Y009581D01*
X034626Y009620D01*
X034657Y009620D01*
X034880Y009843D01*
X034880Y010157D01*
X034657Y010380D01*
X034441Y010380D01*
X034591Y010530D01*
X034720Y010659D01*
X034720Y010683D01*
X034880Y010843D01*
X034880Y011157D01*
X034657Y011380D01*
X034343Y011380D01*
X034120Y011157D01*
X034120Y010843D01*
X034201Y010762D01*
X034159Y010720D01*
X033814Y010720D01*
X033920Y010826D01*
X033920Y011000D01*
X033500Y011000D01*
X033840Y011254D02*
X034216Y011254D01*
X034120Y011095D02*
X033920Y011095D01*
X033920Y010937D02*
X034120Y010937D01*
X034185Y010778D02*
X033872Y010778D01*
X034250Y010500D02*
X034500Y010750D01*
X034500Y011000D01*
X034784Y011254D02*
X035530Y011254D01*
X035530Y011095D02*
X034880Y011095D01*
X034880Y010937D02*
X035375Y010937D01*
X035280Y010778D02*
X034815Y010778D01*
X034681Y010620D02*
X035280Y010620D01*
X035280Y010461D02*
X034522Y010461D01*
X034735Y010303D02*
X035280Y010303D01*
X035280Y010144D02*
X034880Y010144D01*
X034880Y009986D02*
X035280Y009986D01*
X035280Y009827D02*
X034864Y009827D01*
X034706Y009669D02*
X035280Y009669D01*
X035280Y009510D02*
X034792Y009510D01*
X034880Y009352D02*
X035280Y009352D01*
X035280Y009193D02*
X034890Y009193D01*
X034833Y009035D02*
X035280Y009035D01*
X035280Y008876D02*
X034720Y008876D01*
X034654Y008718D02*
X035280Y008718D01*
X035280Y008559D02*
X034495Y008559D01*
X034250Y008625D02*
X034500Y008875D01*
X034500Y009250D01*
X034120Y009352D02*
X033880Y009352D01*
X033890Y009193D02*
X034110Y009193D01*
X034167Y009035D02*
X033833Y009035D01*
X033616Y008876D02*
X034190Y008876D01*
X034250Y008625D02*
X033250Y008625D01*
X033000Y008375D01*
X033000Y005625D01*
X032875Y005500D01*
X032500Y005500D01*
X032120Y005548D02*
X031880Y005548D01*
X031880Y005657D02*
X031880Y005343D01*
X031662Y005125D01*
X031880Y004907D01*
X031880Y004593D01*
X031657Y004370D01*
X031343Y004370D01*
X031120Y004593D01*
X031120Y004907D01*
X031338Y005125D01*
X031120Y005343D01*
X031120Y005657D01*
X031343Y005880D01*
X031374Y005880D01*
X031279Y005919D01*
X031169Y006029D01*
X031110Y006172D01*
X031110Y006328D01*
X031169Y006471D01*
X031279Y006581D01*
X031422Y006640D01*
X031578Y006640D01*
X031721Y006581D01*
X031831Y006471D01*
X031890Y006328D01*
X031890Y006172D01*
X031831Y006029D01*
X031721Y005919D01*
X031626Y005880D01*
X031657Y005880D01*
X031880Y005657D01*
X031831Y005706D02*
X032169Y005706D01*
X032309Y005865D02*
X031673Y005865D01*
X031825Y006023D02*
X032133Y006023D01*
X032075Y006182D02*
X031890Y006182D01*
X031885Y006340D02*
X032079Y006340D01*
X032149Y006499D02*
X031803Y006499D01*
X032361Y006657D02*
X028720Y006657D01*
X028779Y006581D02*
X028720Y006522D01*
X028720Y008159D01*
X028841Y008280D01*
X029841Y008280D01*
X029970Y008409D01*
X030220Y008659D01*
X030220Y008919D01*
X030221Y008919D01*
X030331Y009029D01*
X030390Y009172D01*
X030390Y009328D01*
X030331Y009471D01*
X030221Y009581D01*
X030126Y009620D01*
X030157Y009620D01*
X030380Y009843D01*
X030380Y010157D01*
X030157Y010380D01*
X030066Y010380D01*
X030091Y010405D01*
X030220Y010534D01*
X030220Y010683D01*
X030380Y010843D01*
X030380Y011157D01*
X030157Y011380D01*
X029843Y011380D01*
X029620Y011157D01*
X029620Y010843D01*
X029743Y010720D01*
X029314Y010720D01*
X029420Y010826D01*
X029420Y011000D01*
X029420Y011174D01*
X029174Y011420D01*
X029000Y011420D01*
X029000Y011000D01*
X029000Y011000D01*
X029420Y011000D01*
X029000Y011000D01*
X029000Y011000D01*
X029000Y011000D01*
X028580Y011000D01*
X028580Y011174D01*
X028826Y011420D01*
X029000Y011420D01*
X029000Y011000D01*
X028580Y011000D01*
X028580Y010826D01*
X028686Y010720D01*
X028534Y010720D01*
X028405Y010591D01*
X028280Y010466D01*
X028280Y010257D01*
X028157Y010380D01*
X027843Y010380D01*
X027620Y010157D01*
X027620Y009843D01*
X027843Y009620D01*
X027874Y009620D01*
X027779Y009581D01*
X027669Y009471D01*
X027610Y009328D01*
X027610Y009172D01*
X027669Y009029D01*
X027779Y008919D01*
X027922Y008860D01*
X028078Y008860D01*
X028221Y008919D01*
X028331Y009029D01*
X028390Y009172D01*
X028390Y009328D01*
X028331Y009471D01*
X028221Y009581D01*
X028126Y009620D01*
X028157Y009620D01*
X028317Y009780D01*
X028466Y009780D01*
X028620Y009934D01*
X028620Y009843D01*
X028843Y009620D01*
X028874Y009620D01*
X028779Y009581D01*
X028669Y009471D01*
X028610Y009328D01*
X028610Y009172D01*
X028669Y009029D01*
X028779Y008919D01*
X028922Y008860D01*
X029078Y008860D01*
X029221Y008919D01*
X029331Y009029D01*
X029390Y009172D01*
X029390Y009328D01*
X029331Y009471D01*
X029221Y009581D01*
X029126Y009620D01*
X029157Y009620D01*
X029380Y009843D01*
X029380Y010157D01*
X029257Y010280D01*
X029743Y010280D01*
X029620Y010157D01*
X029620Y009843D01*
X029843Y009620D01*
X029874Y009620D01*
X029779Y009581D01*
X029669Y009471D01*
X029610Y009328D01*
X029610Y009172D01*
X029669Y009029D01*
X029779Y008919D01*
X029780Y008919D01*
X029780Y008841D01*
X029659Y008720D01*
X028659Y008720D01*
X028409Y008470D01*
X028280Y008341D01*
X028280Y006578D01*
X028225Y006618D01*
X028165Y006648D01*
X028101Y006669D01*
X028034Y006680D01*
X028000Y006680D01*
X028000Y006250D01*
X028000Y006250D01*
X028000Y006250D01*
X027570Y006250D01*
X027570Y006284D01*
X027581Y006351D01*
X027602Y006415D01*
X027632Y006475D01*
X027672Y006530D01*
X027720Y006578D01*
X027775Y006618D01*
X027835Y006648D01*
X027899Y006669D01*
X027966Y006680D01*
X028000Y006680D01*
X028000Y006250D01*
X027570Y006250D01*
X027570Y006216D01*
X027581Y006149D01*
X027602Y006085D01*
X027632Y006025D01*
X027672Y005970D01*
X027720Y005922D01*
X027775Y005882D01*
X027821Y005859D01*
X027620Y005657D01*
X027620Y005343D01*
X027838Y005125D01*
X027620Y004907D01*
X027620Y004593D01*
X027843Y004370D01*
X028157Y004370D01*
X028380Y004593D01*
X028380Y004907D01*
X028162Y005125D01*
X028317Y005280D01*
X028466Y005280D01*
X028595Y005409D01*
X028720Y005534D01*
X028720Y005978D01*
X028779Y005919D01*
X028922Y005860D01*
X029078Y005860D01*
X029221Y005919D01*
X029331Y006029D01*
X029390Y006172D01*
X029390Y006328D01*
X029331Y006471D01*
X029221Y006581D01*
X029078Y006640D01*
X028922Y006640D01*
X028779Y006581D01*
X028720Y006816D02*
X032780Y006816D01*
X032780Y006974D02*
X028720Y006974D01*
X028720Y007133D02*
X032780Y007133D01*
X032780Y007291D02*
X028720Y007291D01*
X028720Y007450D02*
X032780Y007450D01*
X032780Y007608D02*
X028720Y007608D01*
X028720Y007767D02*
X032780Y007767D01*
X032780Y007925D02*
X028720Y007925D01*
X028720Y008084D02*
X032780Y008084D01*
X032780Y008242D02*
X028803Y008242D01*
X028750Y008500D02*
X028500Y008250D01*
X028500Y005625D01*
X028375Y005500D01*
X028000Y005500D01*
X027620Y005548D02*
X027380Y005548D01*
X027380Y005657D02*
X027380Y005343D01*
X027162Y005125D01*
X027380Y004907D01*
X027380Y004593D01*
X027157Y004370D01*
X026843Y004370D01*
X026620Y004593D01*
X026620Y004907D01*
X026838Y005125D01*
X026620Y005343D01*
X026620Y005657D01*
X026843Y005880D01*
X026874Y005880D01*
X026779Y005919D01*
X026669Y006029D01*
X026610Y006172D01*
X026610Y006328D01*
X026669Y006471D01*
X026779Y006581D01*
X026922Y006640D01*
X027078Y006640D01*
X027221Y006581D01*
X027331Y006471D01*
X027390Y006328D01*
X027390Y006172D01*
X027331Y006029D01*
X027221Y005919D01*
X027126Y005880D01*
X027157Y005880D01*
X027380Y005657D01*
X027331Y005706D02*
X027669Y005706D01*
X027809Y005865D02*
X027173Y005865D01*
X027325Y006023D02*
X027633Y006023D01*
X027575Y006182D02*
X027390Y006182D01*
X027385Y006340D02*
X027579Y006340D01*
X027649Y006499D02*
X027303Y006499D01*
X027861Y006657D02*
X024220Y006657D01*
X024220Y006816D02*
X028280Y006816D01*
X028280Y006974D02*
X024220Y006974D01*
X024220Y007133D02*
X028280Y007133D01*
X028280Y007291D02*
X024220Y007291D01*
X024220Y007450D02*
X028280Y007450D01*
X028280Y007608D02*
X024220Y007608D01*
X024220Y007767D02*
X028280Y007767D01*
X028280Y007925D02*
X024220Y007925D01*
X024220Y008084D02*
X028280Y008084D01*
X028280Y008242D02*
X024220Y008242D01*
X024337Y008401D02*
X028339Y008401D01*
X028498Y008559D02*
X025495Y008559D01*
X025654Y008718D02*
X028656Y008718D01*
X028750Y008500D02*
X029750Y008500D01*
X030000Y008750D01*
X030000Y009250D01*
X029620Y009352D02*
X029380Y009352D01*
X029390Y009193D02*
X029610Y009193D01*
X029667Y009035D02*
X029333Y009035D01*
X029116Y008876D02*
X029780Y008876D01*
X030220Y008876D02*
X031384Y008876D01*
X031422Y008860D02*
X031578Y008860D01*
X031721Y008919D01*
X031831Y009029D01*
X031890Y009172D01*
X031890Y009328D01*
X031831Y009471D01*
X031721Y009581D01*
X031626Y009620D01*
X031657Y009620D01*
X031880Y009843D01*
X031880Y010157D01*
X031657Y010380D01*
X031343Y010380D01*
X031120Y010157D01*
X031120Y009843D01*
X031343Y009620D01*
X031374Y009620D01*
X031279Y009581D01*
X031169Y009471D01*
X031110Y009328D01*
X031110Y009172D01*
X031169Y009029D01*
X031279Y008919D01*
X031422Y008860D01*
X031616Y008876D02*
X032384Y008876D01*
X032616Y008876D02*
X033384Y008876D01*
X033167Y009035D02*
X032833Y009035D01*
X032890Y009193D02*
X033110Y009193D01*
X033120Y009352D02*
X032880Y009352D01*
X032792Y009510D02*
X033208Y009510D01*
X033294Y009669D02*
X032706Y009669D01*
X032864Y009827D02*
X033136Y009827D01*
X033120Y009986D02*
X032880Y009986D01*
X032880Y010144D02*
X033120Y010144D01*
X032750Y010500D02*
X032500Y010250D01*
X032500Y010000D01*
X032120Y009986D02*
X031880Y009986D01*
X031880Y010144D02*
X032120Y010144D01*
X032265Y010303D02*
X031735Y010303D01*
X031265Y010303D02*
X030235Y010303D01*
X030147Y010461D02*
X032400Y010461D01*
X032326Y010580D02*
X032500Y010580D01*
X032500Y011000D01*
X032500Y011000D01*
X032500Y011000D01*
X032080Y011000D01*
X032080Y011174D01*
X032326Y011420D01*
X032500Y011420D01*
X032500Y011000D01*
X032080Y011000D01*
X032080Y010826D01*
X032326Y010580D01*
X032287Y010620D02*
X031713Y010620D01*
X031674Y010580D02*
X031920Y010826D01*
X031920Y011000D01*
X031920Y011174D01*
X031674Y011420D01*
X031500Y011420D01*
X031500Y011000D01*
X031500Y011000D01*
X031920Y011000D01*
X031500Y011000D01*
X031500Y011000D01*
X031500Y011000D01*
X031080Y011000D01*
X031080Y011174D01*
X031326Y011420D01*
X031500Y011420D01*
X031500Y011000D01*
X031500Y010580D01*
X031674Y010580D01*
X031500Y010580D02*
X031500Y011000D01*
X031500Y011000D01*
X031080Y011000D01*
X031080Y010826D01*
X031326Y010580D01*
X031500Y010580D01*
X031500Y010620D02*
X031500Y010620D01*
X031500Y010778D02*
X031500Y010778D01*
X031500Y010937D02*
X031500Y010937D01*
X031500Y011095D02*
X031500Y011095D01*
X031500Y011254D02*
X031500Y011254D01*
X031500Y011412D02*
X031500Y011412D01*
X031682Y011412D02*
X032318Y011412D01*
X032500Y011412D02*
X032500Y011412D01*
X032500Y011254D02*
X032500Y011254D01*
X032500Y011095D02*
X032500Y011095D01*
X032500Y010937D02*
X032500Y010937D01*
X032500Y010778D02*
X032500Y010778D01*
X032500Y010620D02*
X032500Y010620D01*
X032750Y010500D02*
X034250Y010500D01*
X034120Y010144D02*
X033880Y010144D01*
X033880Y009986D02*
X034120Y009986D01*
X034136Y009827D02*
X033864Y009827D01*
X033706Y009669D02*
X034294Y009669D01*
X034208Y009510D02*
X033792Y009510D01*
X032294Y009669D02*
X031706Y009669D01*
X031792Y009510D02*
X032208Y009510D01*
X032120Y009352D02*
X031880Y009352D01*
X031890Y009193D02*
X032110Y009193D01*
X032167Y009035D02*
X031833Y009035D01*
X031167Y009035D02*
X030333Y009035D01*
X030390Y009193D02*
X031110Y009193D01*
X031120Y009352D02*
X030380Y009352D01*
X030292Y009510D02*
X031208Y009510D01*
X031294Y009669D02*
X030206Y009669D01*
X030364Y009827D02*
X031136Y009827D01*
X031120Y009986D02*
X030380Y009986D01*
X030380Y010144D02*
X031120Y010144D01*
X031864Y009827D02*
X032136Y009827D01*
X031287Y010620D02*
X030220Y010620D01*
X030315Y010778D02*
X031128Y010778D01*
X031080Y010937D02*
X030380Y010937D01*
X030380Y011095D02*
X031080Y011095D01*
X031160Y011254D02*
X030284Y011254D01*
X030000Y011000D02*
X030000Y010625D01*
X029875Y010500D01*
X028625Y010500D01*
X028500Y010375D01*
X028500Y010125D01*
X028375Y010000D01*
X028000Y010000D01*
X027620Y009986D02*
X027380Y009986D01*
X027380Y009843D02*
X027157Y009620D01*
X027126Y009620D01*
X027221Y009581D01*
X027331Y009471D01*
X027390Y009328D01*
X027390Y009172D01*
X027331Y009029D01*
X027221Y008919D01*
X027078Y008860D01*
X026922Y008860D01*
X026779Y008919D01*
X026669Y009029D01*
X026610Y009172D01*
X026610Y009328D01*
X026669Y009471D01*
X026779Y009581D01*
X026874Y009620D01*
X026843Y009620D01*
X026620Y009843D01*
X026620Y010157D01*
X026843Y010380D01*
X027157Y010380D01*
X027380Y010157D01*
X027380Y009843D01*
X027364Y009827D02*
X027636Y009827D01*
X027794Y009669D02*
X027206Y009669D01*
X027292Y009510D02*
X027708Y009510D01*
X027620Y009352D02*
X027380Y009352D01*
X027390Y009193D02*
X027610Y009193D01*
X027667Y009035D02*
X027333Y009035D01*
X027116Y008876D02*
X027884Y008876D01*
X028116Y008876D02*
X028884Y008876D01*
X028667Y009035D02*
X028333Y009035D01*
X028390Y009193D02*
X028610Y009193D01*
X028620Y009352D02*
X028380Y009352D01*
X028292Y009510D02*
X028708Y009510D01*
X028794Y009669D02*
X028206Y009669D01*
X028513Y009827D02*
X028636Y009827D01*
X029206Y009669D02*
X029794Y009669D01*
X029708Y009510D02*
X029292Y009510D01*
X029364Y009827D02*
X029636Y009827D01*
X029620Y009986D02*
X029380Y009986D01*
X029380Y010144D02*
X029620Y010144D01*
X028433Y010620D02*
X028213Y010620D01*
X028174Y010580D02*
X028420Y010826D01*
X028420Y011000D01*
X028420Y011174D01*
X028174Y011420D01*
X028000Y011420D01*
X028000Y011000D01*
X028000Y011000D01*
X028420Y011000D01*
X028000Y011000D01*
X028000Y011000D01*
X028000Y011000D01*
X027580Y011000D01*
X027580Y011174D01*
X027826Y011420D01*
X028000Y011420D01*
X028000Y011000D01*
X028000Y010580D01*
X028174Y010580D01*
X028280Y010461D02*
X025522Y010461D01*
X025681Y010620D02*
X026787Y010620D01*
X026826Y010580D02*
X026580Y010826D01*
X026580Y011000D01*
X027000Y011000D01*
X027000Y011000D01*
X027000Y011420D01*
X027174Y011420D01*
X027420Y011174D01*
X027420Y011000D01*
X027000Y011000D01*
X027000Y011000D01*
X027000Y011000D01*
X027000Y011420D01*
X026826Y011420D01*
X026580Y011174D01*
X026580Y011000D01*
X027000Y011000D01*
X027420Y011000D01*
X027420Y010826D01*
X027174Y010580D01*
X027000Y010580D01*
X027000Y011000D01*
X027000Y011000D01*
X027000Y010580D01*
X026826Y010580D01*
X027000Y010620D02*
X027000Y010620D01*
X027000Y010778D02*
X027000Y010778D01*
X027000Y010937D02*
X027000Y010937D01*
X027000Y011095D02*
X027000Y011095D01*
X027000Y011254D02*
X027000Y011254D01*
X027000Y011412D02*
X027000Y011412D01*
X027182Y011412D02*
X027818Y011412D01*
X028000Y011412D02*
X028000Y011412D01*
X028000Y011254D02*
X028000Y011254D01*
X028000Y011095D02*
X028000Y011095D01*
X028000Y011000D02*
X027580Y011000D01*
X027580Y010826D01*
X027826Y010580D01*
X028000Y010580D01*
X028000Y011000D01*
X028000Y011000D01*
X028000Y010937D02*
X028000Y010937D01*
X028000Y010778D02*
X028000Y010778D01*
X028000Y010620D02*
X028000Y010620D01*
X027787Y010620D02*
X027213Y010620D01*
X027372Y010778D02*
X027628Y010778D01*
X027580Y010937D02*
X027420Y010937D01*
X027420Y011095D02*
X027580Y011095D01*
X027660Y011254D02*
X027340Y011254D01*
X026818Y011412D02*
X024682Y011412D01*
X024500Y011412D02*
X024500Y011412D01*
X024500Y011254D02*
X024500Y011254D01*
X024500Y011095D02*
X024500Y011095D01*
X024318Y011412D02*
X024223Y011412D01*
X024160Y011254D02*
X023840Y011254D01*
X023920Y011095D02*
X024080Y011095D01*
X024080Y010937D02*
X023920Y010937D01*
X023920Y011000D02*
X023500Y011000D01*
X023920Y011000D01*
X023872Y010778D02*
X024128Y010778D01*
X023750Y010500D02*
X025250Y010500D01*
X025500Y010750D01*
X025500Y011000D01*
X025784Y011254D02*
X026660Y011254D01*
X026580Y011095D02*
X025880Y011095D01*
X025880Y010937D02*
X026580Y010937D01*
X026628Y010778D02*
X025815Y010778D01*
X025185Y010778D02*
X024872Y010778D01*
X024920Y010937D02*
X025120Y010937D01*
X025120Y011095D02*
X024920Y011095D01*
X024840Y011254D02*
X025216Y011254D01*
X024030Y011888D02*
X008595Y011888D01*
X008595Y012046D02*
X017893Y012046D01*
X017734Y012205D02*
X008641Y012205D01*
X008375Y012250D02*
X008625Y012500D01*
X017750Y012500D01*
X018000Y012250D01*
X023375Y012250D01*
X023625Y012500D01*
X023625Y013500D01*
X023875Y013750D01*
X031000Y013750D01*
X031113Y013948D02*
X039395Y013948D01*
X039395Y013790D02*
X031272Y013790D01*
X031430Y013631D02*
X039395Y013631D01*
X039395Y013473D02*
X037496Y013473D01*
X037655Y013314D02*
X039395Y013314D01*
X039395Y013156D02*
X037670Y013156D01*
X037670Y012997D02*
X039395Y012997D01*
X039395Y012839D02*
X037557Y012839D01*
X036943Y012839D02*
X036501Y012839D01*
X036630Y012997D02*
X036830Y012997D01*
X036830Y013156D02*
X036630Y013156D01*
X036598Y013314D02*
X036845Y013314D01*
X036928Y012522D02*
X036516Y012522D01*
X036630Y012363D02*
X036830Y012363D01*
X036830Y012205D02*
X036630Y012205D01*
X036583Y012046D02*
X036860Y012046D01*
X037019Y011888D02*
X036425Y011888D01*
X036250Y012250D02*
X035750Y011750D01*
X035750Y011000D01*
X035500Y010750D01*
X035500Y004400D01*
X035000Y003900D01*
X025300Y003900D01*
X025050Y004150D01*
X023350Y004150D01*
X022950Y003750D01*
X013375Y003750D01*
X013817Y004280D02*
X014183Y004280D01*
X014120Y004438D02*
X013880Y004438D01*
X013880Y004597D02*
X014120Y004597D01*
X014218Y004755D02*
X013782Y004755D01*
X013701Y004914D02*
X014299Y004914D01*
X014141Y005072D02*
X013859Y005072D01*
X013880Y005231D02*
X014120Y005231D01*
X014120Y005389D02*
X013880Y005389D01*
X013740Y005548D02*
X014260Y005548D01*
X014500Y005250D02*
X015000Y005750D01*
X015000Y008375D01*
X015250Y008625D01*
X016375Y008625D01*
X016500Y008750D01*
X016500Y009250D01*
X016120Y009352D02*
X015880Y009352D01*
X015890Y009193D02*
X016110Y009193D01*
X016167Y009035D02*
X015833Y009035D01*
X015616Y008876D02*
X016280Y008876D01*
X016720Y008876D02*
X017884Y008876D01*
X017922Y008860D02*
X018078Y008860D01*
X018221Y008919D01*
X018331Y009029D01*
X018390Y009172D01*
X018390Y009328D01*
X018331Y009471D01*
X018221Y009581D01*
X018126Y009620D01*
X018157Y009620D01*
X018380Y009843D01*
X018380Y010157D01*
X018157Y010380D01*
X017843Y010380D01*
X017620Y010157D01*
X017620Y009843D01*
X017843Y009620D01*
X017874Y009620D01*
X017779Y009581D01*
X017669Y009471D01*
X017610Y009328D01*
X017610Y009172D01*
X017669Y009029D01*
X017779Y008919D01*
X017922Y008860D01*
X018116Y008876D02*
X018884Y008876D01*
X018922Y008860D02*
X019078Y008860D01*
X019221Y008919D01*
X019331Y009029D01*
X019390Y009172D01*
X019390Y009328D01*
X019331Y009471D01*
X019221Y009581D01*
X019126Y009620D01*
X019157Y009620D01*
X019380Y009843D01*
X019380Y010157D01*
X019299Y010238D01*
X019341Y010280D01*
X019743Y010280D01*
X019620Y010157D01*
X019620Y009843D01*
X019843Y009620D01*
X019874Y009620D01*
X019779Y009581D01*
X019669Y009471D01*
X019610Y009328D01*
X019610Y009172D01*
X019669Y009029D01*
X019779Y008919D01*
X019922Y008860D01*
X020078Y008860D01*
X020221Y008919D01*
X020331Y009029D01*
X020390Y009172D01*
X020390Y009328D01*
X020331Y009471D01*
X020221Y009581D01*
X020126Y009620D01*
X020157Y009620D01*
X020380Y009843D01*
X020380Y010157D01*
X020257Y010280D01*
X020743Y010280D01*
X020620Y010157D01*
X020620Y009843D01*
X020843Y009620D01*
X020874Y009620D01*
X020779Y009581D01*
X020669Y009471D01*
X020610Y009328D01*
X020610Y009172D01*
X020669Y009029D01*
X020756Y008942D01*
X020659Y008845D01*
X019659Y008845D01*
X019530Y008716D01*
X019409Y008595D01*
X019409Y008595D01*
X019280Y008466D01*
X019280Y006578D01*
X019225Y006618D01*
X019165Y006648D01*
X019101Y006669D01*
X019034Y006680D01*
X019000Y006680D01*
X019000Y006250D01*
X019000Y006250D01*
X019000Y005820D01*
X019034Y005820D01*
X019101Y005831D01*
X019165Y005852D01*
X019225Y005882D01*
X019280Y005922D01*
X019280Y005720D01*
X019192Y005720D01*
X019157Y005755D01*
X018843Y005755D01*
X018620Y005532D01*
X018620Y005218D01*
X018838Y005000D01*
X018620Y004782D01*
X018620Y004468D01*
X018843Y004245D01*
X019157Y004245D01*
X019380Y004468D01*
X019380Y004782D01*
X019162Y005000D01*
X019380Y005218D01*
X019380Y005280D01*
X019466Y005280D01*
X019595Y005409D01*
X019720Y005534D01*
X019720Y005978D01*
X019779Y005919D01*
X019922Y005860D01*
X020078Y005860D01*
X020221Y005919D01*
X020331Y006029D01*
X020390Y006172D01*
X020390Y006328D01*
X020331Y006471D01*
X020221Y006581D01*
X020078Y006640D01*
X019922Y006640D01*
X019779Y006581D01*
X019720Y006522D01*
X019720Y008284D01*
X019841Y008405D01*
X020841Y008405D01*
X020970Y008534D01*
X021220Y008784D01*
X021220Y008919D01*
X021221Y008919D01*
X021331Y009029D01*
X021390Y009172D01*
X021390Y009328D01*
X021331Y009471D01*
X021221Y009581D01*
X021126Y009620D01*
X021157Y009620D01*
X021380Y009843D01*
X021380Y010157D01*
X021157Y010380D01*
X020941Y010380D01*
X021091Y010530D01*
X021220Y010659D01*
X021220Y010683D01*
X021380Y010843D01*
X021380Y011157D01*
X021157Y011380D01*
X020843Y011380D01*
X020620Y011157D01*
X020620Y010843D01*
X020701Y010762D01*
X020659Y010720D01*
X020314Y010720D01*
X020420Y010826D01*
X020420Y011000D01*
X020420Y011174D01*
X020174Y011420D01*
X020000Y011420D01*
X020000Y011000D01*
X020000Y011000D01*
X020420Y011000D01*
X020000Y011000D01*
X020000Y011000D01*
X020000Y011000D01*
X019580Y011000D01*
X019580Y011174D01*
X019826Y011420D01*
X020000Y011420D01*
X020000Y011000D01*
X019580Y011000D01*
X019580Y010826D01*
X019686Y010720D01*
X019314Y010720D01*
X019420Y010826D01*
X019420Y011000D01*
X019420Y011174D01*
X019174Y011420D01*
X019000Y011420D01*
X019000Y011000D01*
X019000Y011000D01*
X019420Y011000D01*
X019000Y011000D01*
X019000Y011000D01*
X019000Y010580D01*
X019019Y010580D01*
X018780Y010341D01*
X018780Y010317D01*
X018620Y010157D01*
X018620Y009843D01*
X018843Y009620D01*
X018874Y009620D01*
X018779Y009581D01*
X018669Y009471D01*
X018610Y009328D01*
X018610Y009172D01*
X018669Y009029D01*
X018779Y008919D01*
X018922Y008860D01*
X019116Y008876D02*
X019884Y008876D01*
X020116Y008876D02*
X020690Y008876D01*
X020667Y009035D02*
X020333Y009035D01*
X020390Y009193D02*
X020610Y009193D01*
X020620Y009352D02*
X020380Y009352D01*
X020292Y009510D02*
X020708Y009510D01*
X020794Y009669D02*
X020206Y009669D01*
X020364Y009827D02*
X020636Y009827D01*
X020620Y009986D02*
X020380Y009986D01*
X020380Y010144D02*
X020620Y010144D01*
X020750Y010500D02*
X021000Y010750D01*
X021000Y011000D01*
X021284Y011254D02*
X022160Y011254D01*
X022080Y011174D02*
X022080Y011000D01*
X022500Y011000D01*
X022500Y011000D01*
X022500Y011000D01*
X022500Y011420D01*
X022326Y011420D01*
X022080Y011174D01*
X022080Y011095D02*
X021380Y011095D01*
X021380Y010937D02*
X022080Y010937D01*
X022080Y011000D02*
X022080Y010826D01*
X022326Y010580D01*
X022500Y010580D01*
X022500Y011000D01*
X022080Y011000D01*
X022128Y010778D02*
X021315Y010778D01*
X021181Y010620D02*
X022287Y010620D01*
X022500Y010620D02*
X022500Y010620D01*
X022500Y010778D02*
X022500Y010778D01*
X022500Y010937D02*
X022500Y010937D01*
X022500Y011095D02*
X022500Y011095D01*
X022500Y011254D02*
X022500Y011254D01*
X022500Y011412D02*
X022500Y011412D01*
X022682Y011412D02*
X022780Y011412D01*
X022884Y011571D02*
X008595Y011571D01*
X008595Y011729D02*
X023043Y011729D01*
X023482Y012046D02*
X024030Y012046D01*
X024030Y012205D02*
X023641Y012205D01*
X023799Y012363D02*
X024030Y012363D01*
X024030Y012522D02*
X023845Y012522D01*
X023845Y012680D02*
X024030Y012680D01*
X023999Y012839D02*
X023845Y012839D01*
X023845Y012997D02*
X023870Y012997D01*
X023870Y013156D02*
X023845Y013156D01*
X023845Y013314D02*
X023902Y013314D01*
X023909Y013473D02*
X024060Y013473D01*
X023445Y013631D02*
X020571Y013631D01*
X021012Y013473D02*
X022431Y013473D01*
X022726Y013473D02*
X022743Y013473D01*
X022743Y013585D02*
X022770Y013585D01*
X022842Y013574D01*
X022911Y013551D01*
X022975Y013518D01*
X023034Y013476D01*
X023085Y013425D01*
X023128Y013366D01*
X023161Y013302D01*
X023183Y013233D01*
X023194Y013161D01*
X023194Y013134D01*
X022743Y013134D01*
X022743Y013585D01*
X022726Y013314D02*
X022743Y013314D01*
X022726Y013156D02*
X022743Y013156D01*
X022726Y012997D02*
X022743Y012997D01*
X022726Y012839D02*
X022743Y012839D01*
X022726Y012680D02*
X022743Y012680D01*
X022853Y012680D02*
X023405Y012680D01*
X023405Y012839D02*
X023095Y012839D01*
X023176Y012997D02*
X023405Y012997D01*
X023405Y013156D02*
X023194Y013156D01*
X023154Y013314D02*
X023405Y013314D01*
X023405Y013473D02*
X023037Y013473D01*
X024501Y012839D02*
X024999Y012839D01*
X024870Y012997D02*
X024630Y012997D01*
X023335Y012522D02*
X019490Y012522D01*
X019649Y012680D02*
X022615Y012680D01*
X022318Y011412D02*
X020182Y011412D01*
X020000Y011412D02*
X020000Y011412D01*
X020000Y011254D02*
X020000Y011254D01*
X020000Y011095D02*
X020000Y011095D01*
X019818Y011412D02*
X019182Y011412D01*
X019000Y011412D02*
X019000Y011412D01*
X019000Y011420D02*
X018826Y011420D01*
X018580Y011174D01*
X018580Y011000D01*
X019000Y011000D01*
X019000Y011000D01*
X019000Y011000D01*
X019000Y011420D01*
X019000Y011254D02*
X019000Y011254D01*
X019000Y011095D02*
X019000Y011095D01*
X019000Y011000D02*
X018580Y011000D01*
X018580Y010826D01*
X018826Y010580D01*
X019000Y010580D01*
X019000Y011000D01*
X019000Y010937D02*
X019000Y010937D01*
X019000Y010778D02*
X019000Y010778D01*
X019000Y010620D02*
X019000Y010620D01*
X018900Y010461D02*
X016647Y010461D01*
X016720Y010620D02*
X017787Y010620D01*
X017826Y010580D02*
X017580Y010826D01*
X017580Y011000D01*
X018000Y011000D01*
X018000Y011000D01*
X018000Y011420D01*
X018174Y011420D01*
X018420Y011174D01*
X018420Y011000D01*
X018000Y011000D01*
X018000Y011000D01*
X018000Y011000D01*
X018000Y011420D01*
X017826Y011420D01*
X017580Y011174D01*
X017580Y011000D01*
X018000Y011000D01*
X018420Y011000D01*
X018420Y010826D01*
X018174Y010580D01*
X018000Y010580D01*
X018000Y011000D01*
X018000Y011000D01*
X018000Y010580D01*
X017826Y010580D01*
X018000Y010620D02*
X018000Y010620D01*
X018000Y010778D02*
X018000Y010778D01*
X018000Y010937D02*
X018000Y010937D01*
X018000Y011095D02*
X018000Y011095D01*
X018000Y011254D02*
X018000Y011254D01*
X018000Y011412D02*
X018000Y011412D01*
X018182Y011412D02*
X018818Y011412D01*
X018660Y011254D02*
X018340Y011254D01*
X018420Y011095D02*
X018580Y011095D01*
X018580Y010937D02*
X018420Y010937D01*
X018372Y010778D02*
X018628Y010778D01*
X018787Y010620D02*
X018213Y010620D01*
X017628Y010778D02*
X016815Y010778D01*
X016880Y010937D02*
X017580Y010937D01*
X017580Y011095D02*
X016880Y011095D01*
X016784Y011254D02*
X017660Y011254D01*
X017818Y011412D02*
X015682Y011412D01*
X015500Y011412D02*
X015500Y011412D01*
X015500Y011254D02*
X015500Y011254D01*
X015500Y011095D02*
X015500Y011095D01*
X015318Y011412D02*
X014682Y011412D01*
X014840Y011254D02*
X015160Y011254D01*
X015080Y011095D02*
X014920Y011095D01*
X014920Y010937D02*
X015080Y010937D01*
X015128Y010778D02*
X014872Y010778D01*
X014750Y010500D02*
X016375Y010500D01*
X016500Y010625D01*
X016500Y011000D01*
X016216Y011254D02*
X015840Y011254D01*
X015920Y011095D02*
X016120Y011095D01*
X016120Y010937D02*
X015920Y010937D01*
X015872Y010778D02*
X016185Y010778D01*
X016735Y010303D02*
X017765Y010303D01*
X017620Y010144D02*
X016880Y010144D01*
X016880Y009986D02*
X017620Y009986D01*
X017636Y009827D02*
X016864Y009827D01*
X016706Y009669D02*
X017794Y009669D01*
X017708Y009510D02*
X016792Y009510D01*
X016880Y009352D02*
X017620Y009352D01*
X017610Y009193D02*
X016890Y009193D01*
X016833Y009035D02*
X017667Y009035D01*
X018333Y009035D02*
X018667Y009035D01*
X018610Y009193D02*
X018390Y009193D01*
X018380Y009352D02*
X018620Y009352D01*
X018708Y009510D02*
X018292Y009510D01*
X018206Y009669D02*
X018794Y009669D01*
X018636Y009827D02*
X018364Y009827D01*
X018380Y009986D02*
X018620Y009986D01*
X018620Y010144D02*
X018380Y010144D01*
X018235Y010303D02*
X018765Y010303D01*
X019000Y010250D02*
X019250Y010500D01*
X020750Y010500D01*
X021022Y010461D02*
X022780Y010461D01*
X022780Y010303D02*
X022735Y010303D01*
X022265Y010303D02*
X021235Y010303D01*
X021380Y010144D02*
X022120Y010144D01*
X022120Y009986D02*
X021380Y009986D01*
X021364Y009827D02*
X022136Y009827D01*
X022294Y009669D02*
X021206Y009669D01*
X021292Y009510D02*
X022208Y009510D01*
X022120Y009352D02*
X021380Y009352D01*
X021390Y009193D02*
X022110Y009193D01*
X022167Y009035D02*
X021333Y009035D01*
X021220Y008876D02*
X022384Y008876D01*
X022616Y008876D02*
X022780Y008876D01*
X022780Y008718D02*
X021154Y008718D01*
X021000Y008875D02*
X020750Y008625D01*
X019750Y008625D01*
X019500Y008375D01*
X019500Y005625D01*
X019375Y005500D01*
X019125Y005500D01*
X019000Y005375D01*
X018620Y005389D02*
X018380Y005389D01*
X018380Y005532D02*
X018380Y005218D01*
X018162Y005000D01*
X018380Y004782D01*
X018380Y004468D01*
X018157Y004245D01*
X017843Y004245D01*
X017620Y004468D01*
X017620Y004782D01*
X017838Y005000D01*
X017620Y005218D01*
X017620Y005532D01*
X017843Y005755D01*
X018157Y005755D01*
X018380Y005532D01*
X018365Y005548D02*
X018635Y005548D01*
X018794Y005706D02*
X018206Y005706D01*
X018088Y005865D02*
X018809Y005865D01*
X018835Y005852D02*
X018899Y005831D01*
X018966Y005820D01*
X019000Y005820D01*
X019000Y006250D01*
X019000Y006250D01*
X019000Y006250D01*
X018570Y006250D01*
X018570Y006284D01*
X018581Y006351D01*
X018602Y006415D01*
X018632Y006475D01*
X018672Y006530D01*
X018720Y006578D01*
X018775Y006618D01*
X018835Y006648D01*
X018899Y006669D01*
X018966Y006680D01*
X019000Y006680D01*
X019000Y006250D01*
X018570Y006250D01*
X018570Y006216D01*
X018581Y006149D01*
X018602Y006085D01*
X018632Y006025D01*
X018672Y005970D01*
X018720Y005922D01*
X018775Y005882D01*
X018835Y005852D01*
X019000Y005865D02*
X019000Y005865D01*
X019000Y006023D02*
X019000Y006023D01*
X019000Y006182D02*
X019000Y006182D01*
X019000Y006340D02*
X019000Y006340D01*
X019000Y006499D02*
X019000Y006499D01*
X019000Y006657D02*
X019000Y006657D01*
X019139Y006657D02*
X019280Y006657D01*
X019280Y006816D02*
X015220Y006816D01*
X015220Y006974D02*
X019280Y006974D01*
X019280Y007133D02*
X015220Y007133D01*
X015220Y007291D02*
X019280Y007291D01*
X019280Y007450D02*
X015220Y007450D01*
X015220Y007608D02*
X019280Y007608D01*
X019280Y007767D02*
X015220Y007767D01*
X015220Y007925D02*
X019280Y007925D01*
X019280Y008084D02*
X015220Y008084D01*
X015220Y008242D02*
X019280Y008242D01*
X019280Y008401D02*
X015337Y008401D01*
X015384Y008876D02*
X014616Y008876D01*
X014833Y009035D02*
X015167Y009035D01*
X015110Y009193D02*
X014890Y009193D01*
X014880Y009352D02*
X015120Y009352D01*
X015208Y009510D02*
X014792Y009510D01*
X014706Y009669D02*
X015294Y009669D01*
X015136Y009827D02*
X014864Y009827D01*
X014880Y009986D02*
X015120Y009986D01*
X015120Y010144D02*
X014880Y010144D01*
X014750Y010500D02*
X014500Y010250D01*
X014500Y010000D01*
X015706Y009669D02*
X016294Y009669D01*
X016208Y009510D02*
X015792Y009510D01*
X015864Y009827D02*
X016136Y009827D01*
X016120Y009986D02*
X015880Y009986D01*
X015880Y010144D02*
X016120Y010144D01*
X014287Y010620D02*
X013713Y010620D01*
X013872Y010778D02*
X014128Y010778D01*
X014080Y010937D02*
X013920Y010937D01*
X013920Y011095D02*
X014080Y011095D01*
X014160Y011254D02*
X013840Y011254D01*
X013318Y011412D02*
X011182Y011412D01*
X011000Y011412D02*
X011000Y011412D01*
X011000Y011254D02*
X011000Y011254D01*
X011000Y011095D02*
X011000Y011095D01*
X010818Y011412D02*
X010182Y011412D01*
X010000Y011412D02*
X010000Y011412D01*
X010000Y011420D02*
X009826Y011420D01*
X009580Y011174D01*
X009580Y011000D01*
X010000Y011000D01*
X010000Y011000D01*
X010000Y011000D01*
X010000Y011420D01*
X010000Y011254D02*
X010000Y011254D01*
X010000Y011095D02*
X010000Y011095D01*
X010000Y011000D02*
X009580Y011000D01*
X009580Y010826D01*
X009826Y010580D01*
X010000Y010580D01*
X010000Y011000D01*
X010000Y010937D02*
X010000Y010937D01*
X010000Y010778D02*
X010000Y010778D01*
X010000Y010620D02*
X010000Y010620D01*
X010025Y010461D02*
X008595Y010461D01*
X008595Y010303D02*
X008765Y010303D01*
X008620Y010144D02*
X008580Y010144D01*
X008620Y009986D02*
X008338Y009986D01*
X008125Y010125D02*
X008375Y010250D01*
X008375Y012250D01*
X007905Y012205D02*
X007833Y012205D01*
X007880Y012046D02*
X007905Y012046D01*
X007905Y011888D02*
X007880Y011888D01*
X007905Y011729D02*
X007766Y011729D01*
X007234Y011729D02*
X006766Y011729D01*
X006120Y011254D02*
X005880Y011254D01*
X005880Y011095D02*
X006120Y011095D01*
X006151Y010937D02*
X005849Y010937D01*
X005690Y010778D02*
X006310Y010778D01*
X006343Y010505D02*
X006120Y010282D01*
X006120Y009968D01*
X006343Y009745D01*
X006657Y009745D01*
X006880Y009968D01*
X006880Y010282D01*
X006657Y010505D01*
X006343Y010505D01*
X006299Y010461D02*
X005701Y010461D01*
X005860Y010303D02*
X006140Y010303D01*
X006120Y010144D02*
X005880Y010144D01*
X005880Y009986D02*
X006120Y009986D01*
X006261Y009827D02*
X005739Y009827D01*
X005261Y009827D02*
X004630Y009827D01*
X004552Y009986D02*
X005120Y009986D01*
X005042Y009510D02*
X005407Y009510D01*
X005331Y009352D02*
X005130Y009352D01*
X005140Y009193D02*
X005324Y009193D01*
X005320Y009216D02*
X005331Y009149D01*
X005352Y009085D01*
X005382Y009025D01*
X005422Y008970D01*
X005470Y008922D01*
X005525Y008882D01*
X005585Y008852D01*
X005649Y008831D01*
X005716Y008820D01*
X005750Y008820D01*
X005784Y008820D01*
X005851Y008831D01*
X005915Y008852D01*
X005975Y008882D01*
X006030Y008922D01*
X006078Y008970D01*
X006118Y009025D01*
X006148Y009085D01*
X006169Y009149D01*
X006180Y009216D01*
X006180Y009250D01*
X005750Y009250D01*
X005750Y008820D01*
X005750Y009250D01*
X005750Y009250D01*
X005320Y009250D01*
X005320Y009216D01*
X005377Y009035D02*
X005083Y009035D01*
X004970Y008876D02*
X005537Y008876D01*
X005750Y008876D02*
X005750Y008876D01*
X005750Y009035D02*
X005750Y009035D01*
X005750Y009193D02*
X005750Y009193D01*
X005750Y009352D02*
X005750Y009352D01*
X005750Y009510D02*
X005750Y009510D01*
X006093Y009510D02*
X006458Y009510D01*
X006370Y009352D02*
X006169Y009352D01*
X006176Y009193D02*
X006360Y009193D01*
X006417Y009035D02*
X006123Y009035D01*
X005963Y008876D02*
X006530Y008876D01*
X006530Y008718D02*
X004970Y008718D01*
X004870Y008559D02*
X006530Y008559D01*
X006530Y008401D02*
X004712Y008401D01*
X004553Y008242D02*
X006530Y008242D01*
X006530Y008084D02*
X004470Y008084D01*
X004470Y007925D02*
X006530Y007925D01*
X006529Y007767D02*
X004470Y007767D01*
X004470Y007608D02*
X006529Y007608D01*
X006390Y007450D02*
X004470Y007450D01*
X004470Y007291D02*
X006232Y007291D01*
X006073Y007133D02*
X004470Y007133D01*
X004470Y006974D02*
X006037Y006974D01*
X006037Y006816D02*
X004470Y006816D01*
X004470Y006657D02*
X004611Y006657D01*
X004750Y006657D02*
X004750Y006657D01*
X004889Y006657D02*
X006037Y006657D01*
X006477Y006657D02*
X008188Y006657D01*
X008201Y006670D02*
X007955Y006424D01*
X007955Y006250D01*
X008375Y006250D01*
X008375Y006250D01*
X008375Y006670D01*
X008549Y006670D01*
X008709Y006510D01*
X008779Y006581D01*
X008922Y006640D01*
X009078Y006640D01*
X009221Y006581D01*
X009331Y006471D01*
X009390Y006328D01*
X009390Y006172D01*
X009331Y006029D01*
X009221Y005919D01*
X009078Y005860D01*
X008922Y005860D01*
X008779Y005919D01*
X008709Y005990D01*
X008549Y005830D01*
X008375Y005830D01*
X008375Y006250D01*
X008375Y006250D01*
X008375Y006250D01*
X008375Y006670D01*
X008201Y006670D01*
X008375Y006657D02*
X008375Y006657D01*
X008375Y006499D02*
X008375Y006499D01*
X008375Y006340D02*
X008375Y006340D01*
X008375Y006250D02*
X007955Y006250D01*
X007955Y006076D01*
X008201Y005830D01*
X008375Y005830D01*
X008375Y006250D01*
X008375Y006182D02*
X008375Y006182D01*
X008375Y006023D02*
X008375Y006023D01*
X008375Y005865D02*
X008375Y005865D01*
X008456Y005706D02*
X010270Y005706D01*
X010280Y005865D02*
X010191Y005865D01*
X010000Y005865D02*
X010000Y005865D01*
X010000Y005820D02*
X010000Y006250D01*
X010000Y006250D01*
X010000Y006250D01*
X009570Y006250D01*
X009570Y006284D01*
X009581Y006351D01*
X009602Y006415D01*
X009632Y006475D01*
X009672Y006530D01*
X009720Y006578D01*
X009775Y006618D01*
X009835Y006648D01*
X009899Y006669D01*
X009966Y006680D01*
X010000Y006680D01*
X010000Y006250D01*
X009570Y006250D01*
X009570Y006216D01*
X009581Y006149D01*
X009602Y006085D01*
X009632Y006025D01*
X009672Y005970D01*
X009720Y005922D01*
X009775Y005882D01*
X009835Y005852D01*
X009899Y005831D01*
X009966Y005820D01*
X010000Y005820D01*
X009809Y005865D02*
X009088Y005865D01*
X008912Y005865D02*
X008583Y005865D01*
X008167Y005865D02*
X006838Y005865D01*
X006662Y005865D02*
X006477Y005865D01*
X006477Y005706D02*
X006544Y005706D01*
X006956Y005706D02*
X007294Y005706D01*
X007135Y005548D02*
X007115Y005548D01*
X007706Y005706D02*
X008044Y005706D01*
X007885Y005548D02*
X007865Y005548D01*
X008615Y005548D02*
X010111Y005548D01*
X010500Y005625D02*
X010000Y005125D01*
X009727Y005389D02*
X009273Y005389D01*
X009380Y005231D02*
X009620Y005231D01*
X009620Y005072D02*
X009380Y005072D01*
X009326Y004914D02*
X009674Y004914D01*
X009833Y004755D02*
X009167Y004755D01*
X009316Y004597D02*
X009684Y004597D01*
X009620Y004438D02*
X009380Y004438D01*
X009380Y004280D02*
X009620Y004280D01*
X009717Y004121D02*
X009283Y004121D01*
X010283Y004121D02*
X010310Y004121D01*
X010380Y004280D02*
X011627Y004280D01*
X011580Y004438D02*
X010380Y004438D01*
X010316Y004597D02*
X011580Y004597D01*
X011661Y004755D02*
X010167Y004755D01*
X010326Y004914D02*
X011820Y004914D01*
X012000Y004914D02*
X012000Y004914D01*
X012000Y004755D02*
X012000Y004755D01*
X012000Y004597D02*
X012000Y004597D01*
X012180Y004914D02*
X012655Y004914D01*
X012655Y005072D02*
X010380Y005072D01*
X010417Y005231D02*
X011732Y005231D01*
X011843Y005120D02*
X012157Y005120D01*
X012380Y005343D01*
X012380Y005657D01*
X012157Y005880D01*
X012126Y005880D01*
X012221Y005919D01*
X012331Y006029D01*
X012390Y006172D01*
X012390Y006328D01*
X012331Y006471D01*
X012221Y006581D01*
X012078Y006640D01*
X011922Y006640D01*
X011779Y006581D01*
X011669Y006471D01*
X011610Y006328D01*
X011610Y006172D01*
X011669Y006029D01*
X011779Y005919D01*
X011874Y005880D01*
X011843Y005880D01*
X011620Y005657D01*
X011620Y005343D01*
X011843Y005120D01*
X011620Y005389D02*
X010575Y005389D01*
X010720Y005548D02*
X011620Y005548D01*
X011669Y005706D02*
X010720Y005706D01*
X010720Y005865D02*
X010912Y005865D01*
X011088Y005865D02*
X011827Y005865D01*
X011675Y006023D02*
X011325Y006023D01*
X011390Y006182D02*
X011610Y006182D01*
X011615Y006340D02*
X011385Y006340D01*
X011303Y006499D02*
X011697Y006499D01*
X012303Y006499D02*
X012655Y006499D01*
X012655Y006657D02*
X010720Y006657D01*
X010720Y006816D02*
X012655Y006816D01*
X012655Y006974D02*
X010720Y006974D01*
X010720Y007133D02*
X012655Y007133D01*
X012655Y007291D02*
X010720Y007291D01*
X010720Y007450D02*
X012655Y007450D01*
X012655Y007608D02*
X010720Y007608D01*
X010280Y007291D02*
X006854Y007291D01*
X006695Y007133D02*
X010280Y007133D01*
X010280Y006974D02*
X006537Y006974D01*
X006477Y006816D02*
X010280Y006816D01*
X010280Y006657D02*
X010139Y006657D01*
X010000Y006657D02*
X010000Y006657D01*
X009861Y006657D02*
X008562Y006657D01*
X008030Y006499D02*
X007664Y006499D01*
X007755Y006340D02*
X007955Y006340D01*
X007955Y006182D02*
X007755Y006182D01*
X007685Y006023D02*
X008008Y006023D01*
X007086Y006499D02*
X007053Y006499D01*
X006257Y007005D02*
X006749Y007497D01*
X006749Y007698D01*
X006750Y007699D01*
X006750Y009250D01*
X006739Y009827D02*
X007261Y009827D01*
X007120Y009986D02*
X006880Y009986D01*
X006880Y010144D02*
X007120Y010144D01*
X007140Y010303D02*
X006860Y010303D01*
X006701Y010461D02*
X007299Y010461D01*
X007701Y010461D02*
X008155Y010461D01*
X008595Y010620D02*
X008787Y010620D01*
X009000Y010620D02*
X009000Y010620D01*
X009000Y010580D02*
X009000Y011000D01*
X009000Y011000D01*
X009000Y010580D01*
X009000Y010778D02*
X009000Y010778D01*
X009000Y010937D02*
X009000Y010937D01*
X009000Y011095D02*
X009000Y011095D01*
X009000Y011254D02*
X009000Y011254D01*
X009000Y011412D02*
X009000Y011412D01*
X008818Y011412D02*
X008595Y011412D01*
X008595Y011254D02*
X008660Y011254D01*
X008155Y010937D02*
X007998Y010937D01*
X008595Y010778D02*
X008628Y010778D01*
X009213Y010620D02*
X009787Y010620D01*
X009628Y010778D02*
X009372Y010778D01*
X009420Y010937D02*
X009580Y010937D01*
X009580Y011095D02*
X009420Y011095D01*
X009340Y011254D02*
X009660Y011254D01*
X009818Y011412D02*
X009182Y011412D01*
X010340Y011254D02*
X010660Y011254D01*
X010580Y011095D02*
X010420Y011095D01*
X010420Y010937D02*
X010580Y010937D01*
X010628Y010778D02*
X010372Y010778D01*
X011372Y010778D02*
X011467Y010778D01*
X011420Y010937D02*
X011620Y010937D01*
X011620Y011095D02*
X011420Y011095D01*
X011340Y011254D02*
X011716Y011254D01*
X012315Y010778D02*
X012630Y010778D01*
X012590Y010620D02*
X011931Y010620D01*
X012875Y010625D02*
X012875Y004250D01*
X012593Y004280D02*
X012373Y004280D01*
X012420Y004438D02*
X012655Y004438D01*
X012655Y004597D02*
X012420Y004597D01*
X012339Y004755D02*
X012655Y004755D01*
X012655Y005231D02*
X012268Y005231D01*
X012380Y005389D02*
X012655Y005389D01*
X012655Y005548D02*
X012380Y005548D01*
X012331Y005706D02*
X012655Y005706D01*
X012655Y005865D02*
X012173Y005865D01*
X012325Y006023D02*
X012655Y006023D01*
X012655Y006182D02*
X012390Y006182D01*
X012385Y006340D02*
X012655Y006340D01*
X010500Y005625D02*
X010500Y008375D01*
X010750Y008625D01*
X011875Y008625D01*
X012000Y008750D01*
X012000Y009250D01*
X013095Y009193D02*
X013110Y009193D01*
X013095Y009352D02*
X013120Y009352D01*
X013095Y009510D02*
X013208Y009510D01*
X013294Y009669D02*
X013095Y009669D01*
X013095Y009827D02*
X013136Y009827D01*
X013120Y009986D02*
X013095Y009986D01*
X013095Y010144D02*
X013120Y010144D01*
X013095Y009035D02*
X013167Y009035D01*
X010794Y009669D02*
X010206Y009669D01*
X010292Y009510D02*
X010708Y009510D01*
X010620Y009352D02*
X010380Y009352D01*
X010390Y009193D02*
X010610Y009193D01*
X010667Y009035D02*
X010333Y009035D01*
X010364Y009827D02*
X010636Y009827D01*
X010620Y009986D02*
X010380Y009986D01*
X010380Y010144D02*
X010620Y010144D01*
X010000Y010125D02*
X010000Y010000D01*
X008636Y009827D02*
X007739Y009827D01*
X007500Y010125D02*
X008125Y010125D01*
X005299Y010461D02*
X004498Y010461D01*
X001870Y009827D02*
X000230Y009827D01*
X000230Y009669D02*
X001870Y009669D01*
X001910Y009510D02*
X000230Y009510D01*
X000230Y009352D02*
X001910Y009352D01*
X001910Y009193D02*
X000230Y009193D01*
X000230Y009035D02*
X001090Y009035D01*
X001147Y009091D02*
X001034Y008978D01*
X000972Y008830D01*
X000972Y008670D01*
X001034Y008522D01*
X001147Y008409D01*
X001295Y008347D01*
X001455Y008347D01*
X001603Y008409D01*
X001716Y008522D01*
X001778Y008670D01*
X001778Y008830D01*
X001716Y008978D01*
X001603Y009091D01*
X001455Y009153D01*
X001295Y009153D01*
X001147Y009091D01*
X000991Y008876D02*
X000230Y008876D01*
X000230Y008718D02*
X000972Y008718D01*
X001018Y008559D02*
X000230Y008559D01*
X000230Y008401D02*
X001166Y008401D01*
X001584Y008401D02*
X001910Y008401D01*
X001910Y008559D02*
X001732Y008559D01*
X001778Y008718D02*
X001910Y008718D01*
X001910Y008876D02*
X001759Y008876D01*
X001660Y009035D02*
X001910Y009035D01*
X002590Y008559D02*
X004248Y008559D01*
X004089Y008401D02*
X002590Y008401D01*
X002590Y008242D02*
X004030Y008242D01*
X004030Y008084D02*
X002590Y008084D01*
X002590Y007925D02*
X004030Y007925D01*
X004030Y007767D02*
X002590Y007767D01*
X002590Y007608D02*
X004030Y007608D01*
X004030Y007450D02*
X002590Y007450D01*
X002590Y007291D02*
X004030Y007291D01*
X004030Y007133D02*
X002590Y007133D01*
X002590Y006974D02*
X004030Y006974D01*
X004030Y006816D02*
X002590Y006816D01*
X002699Y006657D02*
X004030Y006657D01*
X004750Y006499D02*
X004750Y006499D01*
X004750Y006340D02*
X004750Y006340D01*
X004750Y006250D02*
X004750Y005820D01*
X004750Y006250D01*
X004750Y006250D01*
X004750Y006182D02*
X004750Y006182D01*
X004750Y006023D02*
X004750Y006023D01*
X004750Y005865D02*
X004750Y005865D01*
X004941Y005865D02*
X005662Y005865D01*
X005838Y005865D02*
X006037Y005865D01*
X006037Y005706D02*
X005956Y005706D01*
X005544Y005706D02*
X004956Y005706D01*
X005115Y005548D02*
X005385Y005548D01*
X005370Y005389D02*
X005130Y005389D01*
X005130Y005231D02*
X005370Y005231D01*
X005516Y005072D02*
X004984Y005072D01*
X004126Y004438D02*
X004090Y004438D01*
X004090Y004280D02*
X004280Y004280D01*
X004280Y004121D02*
X004090Y004121D01*
X004090Y003963D02*
X004280Y003963D01*
X004280Y003804D02*
X004090Y003804D01*
X004090Y003646D02*
X004280Y003646D01*
X004280Y003487D02*
X004090Y003487D01*
X004214Y003329D02*
X004280Y003329D01*
X004270Y003170D02*
X004280Y003170D01*
X004270Y003012D02*
X004280Y003012D01*
X004280Y002853D02*
X004215Y002853D01*
X004280Y002695D02*
X004091Y002695D01*
X004280Y002536D02*
X000230Y002536D01*
X000230Y002378D02*
X004280Y002378D01*
X004280Y002219D02*
X000230Y002219D01*
X000230Y002061D02*
X004280Y002061D01*
X004280Y001902D02*
X001494Y001902D01*
X001652Y001744D02*
X004280Y001744D01*
X004280Y001585D02*
X003995Y001585D01*
X004181Y001427D02*
X004280Y001427D01*
X004280Y001341D02*
X004280Y001341D01*
X004371Y001121D02*
X004500Y001250D01*
X004371Y001121D02*
X003746Y001121D01*
X003222Y001110D02*
X001810Y001110D01*
X001810Y001268D02*
X003239Y001268D01*
X003310Y001427D02*
X001804Y001427D01*
X001738Y001585D02*
X003497Y001585D01*
X003249Y000951D02*
X001753Y000951D01*
X001687Y000793D02*
X003333Y000793D01*
X003553Y000634D02*
X001530Y000634D01*
X001247Y000476D02*
X012963Y000476D01*
X013125Y000625D02*
X014000Y000625D01*
X014250Y000875D01*
X014250Y001050D01*
X014325Y001125D01*
X014608Y000793D02*
X014829Y000793D01*
X015395Y000793D02*
X019105Y000793D01*
X018989Y000951D02*
X015511Y000951D01*
X015547Y001110D02*
X016478Y001110D01*
X016370Y001268D02*
X015524Y001268D01*
X016359Y001427D02*
X016370Y001427D01*
X017077Y001585D02*
X017423Y001585D01*
X017370Y001427D02*
X017130Y001427D01*
X017130Y001268D02*
X017370Y001268D01*
X017478Y001110D02*
X017022Y001110D01*
X018022Y001110D02*
X018953Y001110D01*
X019671Y000793D02*
X019892Y000793D01*
X020175Y001125D02*
X020250Y001200D01*
X020250Y001750D01*
X020500Y002000D01*
X022875Y002000D01*
X022692Y001780D02*
X020591Y001780D01*
X020470Y001659D01*
X020470Y001446D01*
X020544Y001372D01*
X020569Y001312D01*
X020594Y001372D01*
X020716Y001494D01*
X020876Y001560D01*
X021049Y001560D01*
X021209Y001494D01*
X021332Y001372D01*
X021356Y001312D01*
X021381Y001372D01*
X021503Y001494D01*
X021663Y001560D01*
X021837Y001560D01*
X021997Y001494D01*
X022119Y001372D01*
X022144Y001312D01*
X022168Y001372D01*
X022291Y001494D01*
X022451Y001560D01*
X022527Y001560D01*
X022542Y001575D01*
X022675Y001708D01*
X022675Y001708D01*
X022700Y001733D01*
X022722Y001755D01*
X022714Y001758D01*
X022692Y001780D01*
X022711Y001744D02*
X020555Y001744D01*
X020470Y001585D02*
X022552Y001585D01*
X022223Y001427D02*
X022064Y001427D01*
X021750Y001125D02*
X021750Y000875D01*
X022000Y000625D01*
X023125Y000625D01*
X023375Y000875D01*
X023375Y001075D01*
X023325Y001125D01*
X023608Y000793D02*
X023829Y000793D01*
X023445Y000634D02*
X030680Y000634D01*
X030838Y000476D02*
X023287Y000476D01*
X024395Y000793D02*
X028105Y000793D01*
X027989Y000951D02*
X024511Y000951D01*
X024547Y001110D02*
X025478Y001110D01*
X025370Y001268D02*
X024524Y001268D01*
X025334Y001427D02*
X025370Y001427D01*
X025919Y001744D02*
X026099Y001744D01*
X026077Y001585D02*
X026257Y001585D01*
X026370Y001427D02*
X026130Y001427D01*
X026130Y001268D02*
X026370Y001268D01*
X026478Y001110D02*
X026022Y001110D01*
X027022Y001110D02*
X027953Y001110D01*
X028671Y000793D02*
X028892Y000793D01*
X029458Y000793D02*
X029680Y000793D01*
X030246Y000793D02*
X030467Y000793D01*
X031064Y001427D02*
X031223Y001427D01*
X031851Y001427D02*
X032011Y001427D01*
X032608Y000793D02*
X032829Y000793D01*
X035250Y001125D02*
X035250Y002125D01*
X035500Y002375D01*
X035750Y002375D01*
X035350Y002536D02*
X035126Y002536D01*
X035130Y002378D02*
X035191Y002378D01*
X034750Y002375D02*
X034750Y003125D01*
X034625Y003125D01*
X034375Y003375D01*
X029250Y003375D01*
X028988Y003487D02*
X028699Y003487D01*
X028858Y003329D02*
X028965Y003329D01*
X029016Y003170D02*
X029052Y003170D01*
X029175Y003012D02*
X032487Y003012D01*
X032713Y003012D02*
X032908Y003012D01*
X032600Y002750D02*
X029125Y002750D01*
X028500Y003375D01*
X027125Y003375D01*
X026750Y003000D01*
X026750Y002125D01*
X023067Y003280D02*
X022336Y002550D01*
X020067Y002550D01*
X019815Y002297D01*
X019815Y002599D01*
X019681Y002922D01*
X019433Y003170D01*
X022957Y003170D01*
X023067Y003280D02*
X019168Y003280D01*
X019433Y003170D01*
X019592Y003012D02*
X022798Y003012D01*
X022640Y002853D02*
X019710Y002853D01*
X019775Y002695D02*
X022481Y002695D01*
X020053Y002536D02*
X019815Y002536D01*
X019815Y002378D02*
X019895Y002378D01*
X020489Y001427D02*
X020649Y001427D01*
X021277Y001427D02*
X021436Y001427D01*
X021467Y000793D02*
X021246Y000793D01*
X021680Y000634D02*
X014320Y000634D01*
X014162Y000476D02*
X021838Y000476D01*
X020680Y000793D02*
X020458Y000793D01*
X017581Y001744D02*
X016919Y001744D01*
X017064Y001902D02*
X017436Y001902D01*
X017370Y002061D02*
X017130Y002061D01*
X016465Y002378D02*
X016445Y002378D01*
X014908Y003012D02*
X010592Y003012D01*
X010710Y002853D02*
X014790Y002853D01*
X014725Y002695D02*
X010775Y002695D01*
X010815Y002536D02*
X014685Y002536D01*
X014685Y002378D02*
X014135Y002378D01*
X014270Y002219D02*
X014698Y002219D01*
X014764Y002061D02*
X014282Y002061D01*
X014180Y001902D02*
X014843Y001902D01*
X014000Y002125D02*
X011500Y002125D01*
X011250Y001875D01*
X011250Y001200D01*
X011175Y001125D01*
X010861Y001427D02*
X010702Y001427D01*
X011030Y001585D02*
X010208Y001585D01*
X010074Y001427D02*
X008118Y001427D01*
X008127Y001418D02*
X007979Y001565D01*
X007787Y001645D01*
X007578Y001645D01*
X007386Y001565D01*
X007239Y001418D01*
X007159Y001225D01*
X007159Y001017D01*
X007239Y000824D01*
X007386Y000677D01*
X007578Y000597D01*
X007787Y000597D01*
X007979Y000677D01*
X008127Y000824D01*
X008207Y001017D01*
X008207Y001225D01*
X008127Y001418D01*
X008189Y001268D02*
X009976Y001268D01*
X009953Y001110D02*
X008207Y001110D01*
X008179Y000951D02*
X009989Y000951D01*
X010105Y000793D02*
X008095Y000793D01*
X007876Y000634D02*
X012805Y000634D01*
X013125Y000625D02*
X012750Y001000D01*
X012750Y001125D01*
X013064Y001427D02*
X013223Y001427D01*
X013402Y001585D02*
X011470Y001585D01*
X011470Y001744D02*
X013561Y001744D01*
X013820Y001902D02*
X011588Y001902D01*
X011124Y002061D02*
X010736Y002061D01*
X010802Y002219D02*
X011283Y002219D01*
X010815Y002378D02*
X013865Y002378D01*
X015067Y003170D02*
X015390Y003304D01*
X015740Y003304D01*
X016063Y003170D01*
X016127Y004280D02*
X014817Y004280D01*
X014880Y004438D02*
X016080Y004438D01*
X016080Y004597D02*
X014880Y004597D01*
X014782Y004755D02*
X016161Y004755D01*
X016320Y004914D02*
X014701Y004914D01*
X014859Y005072D02*
X017766Y005072D01*
X017751Y004914D02*
X016680Y004914D01*
X016500Y004914D02*
X016500Y004914D01*
X016500Y004755D02*
X016500Y004755D01*
X016500Y004597D02*
X016500Y004597D01*
X016839Y004755D02*
X017620Y004755D01*
X017620Y004597D02*
X016920Y004597D01*
X016920Y004438D02*
X017650Y004438D01*
X017808Y004280D02*
X016873Y004280D01*
X018192Y004280D02*
X018808Y004280D01*
X018650Y004438D02*
X018350Y004438D01*
X018380Y004597D02*
X018620Y004597D01*
X018620Y004755D02*
X018380Y004755D01*
X018249Y004914D02*
X018751Y004914D01*
X018766Y005072D02*
X018234Y005072D01*
X018380Y005231D02*
X018620Y005231D01*
X019234Y005072D02*
X022285Y005072D01*
X022232Y005231D02*
X021268Y005231D01*
X021157Y005120D02*
X021380Y005343D01*
X021380Y005657D01*
X021157Y005880D01*
X021126Y005880D01*
X021221Y005919D01*
X021331Y006029D01*
X021390Y006172D01*
X021390Y006328D01*
X021331Y006471D01*
X021221Y006581D01*
X021078Y006640D01*
X020922Y006640D01*
X020779Y006581D01*
X020669Y006471D01*
X020610Y006328D01*
X020610Y006172D01*
X020669Y006029D01*
X020779Y005919D01*
X020874Y005880D01*
X020843Y005880D01*
X020620Y005657D01*
X020620Y005343D01*
X020843Y005120D01*
X021157Y005120D01*
X021380Y005389D02*
X022120Y005389D01*
X022120Y005548D02*
X021380Y005548D01*
X021331Y005706D02*
X022169Y005706D01*
X022327Y005865D02*
X021173Y005865D01*
X021325Y006023D02*
X022175Y006023D01*
X022110Y006182D02*
X021390Y006182D01*
X021385Y006340D02*
X022115Y006340D01*
X022197Y006499D02*
X021303Y006499D01*
X020697Y006499D02*
X020303Y006499D01*
X020385Y006340D02*
X020615Y006340D01*
X020610Y006182D02*
X020390Y006182D01*
X020325Y006023D02*
X020675Y006023D01*
X020827Y005865D02*
X020088Y005865D01*
X019912Y005865D02*
X019720Y005865D01*
X019720Y005706D02*
X020669Y005706D01*
X020620Y005548D02*
X019720Y005548D01*
X019575Y005389D02*
X020620Y005389D01*
X020732Y005231D02*
X019380Y005231D01*
X019249Y004914D02*
X020820Y004914D01*
X021000Y004914D02*
X021000Y004914D01*
X021000Y004755D02*
X021000Y004755D01*
X021000Y004597D02*
X021000Y004597D01*
X021180Y004914D02*
X022126Y004914D01*
X022120Y004755D02*
X021339Y004755D01*
X021420Y004597D02*
X022120Y004597D01*
X022275Y004438D02*
X021420Y004438D01*
X021373Y004280D02*
X022718Y004280D01*
X022725Y004438D02*
X022780Y004438D01*
X023220Y004438D02*
X023275Y004438D01*
X023725Y004438D02*
X025080Y004438D01*
X025080Y004597D02*
X023880Y004597D01*
X023880Y004755D02*
X025161Y004755D01*
X025320Y004914D02*
X023874Y004914D01*
X023715Y005072D02*
X026785Y005072D01*
X026732Y005231D02*
X025768Y005231D01*
X025657Y005120D02*
X025880Y005343D01*
X025880Y005657D01*
X025657Y005880D01*
X025626Y005880D01*
X025721Y005919D01*
X025831Y006029D01*
X025890Y006172D01*
X025890Y006328D01*
X025831Y006471D01*
X025721Y006581D01*
X025578Y006640D01*
X025422Y006640D01*
X025279Y006581D01*
X025169Y006471D01*
X025110Y006328D01*
X025110Y006172D01*
X025169Y006029D01*
X025279Y005919D01*
X025374Y005880D01*
X025343Y005880D01*
X025120Y005657D01*
X025120Y005343D01*
X025343Y005120D01*
X025657Y005120D01*
X025880Y005389D02*
X026620Y005389D01*
X026620Y005548D02*
X025880Y005548D01*
X025831Y005706D02*
X026669Y005706D01*
X026827Y005865D02*
X025673Y005865D01*
X025825Y006023D02*
X026675Y006023D01*
X026610Y006182D02*
X025890Y006182D01*
X025885Y006340D02*
X026615Y006340D01*
X026697Y006499D02*
X025803Y006499D01*
X025197Y006499D02*
X024803Y006499D01*
X024885Y006340D02*
X025115Y006340D01*
X025110Y006182D02*
X024890Y006182D01*
X024825Y006023D02*
X025175Y006023D01*
X025327Y005865D02*
X024588Y005865D01*
X024412Y005865D02*
X024220Y005865D01*
X024220Y005706D02*
X025169Y005706D01*
X025120Y005548D02*
X024220Y005548D01*
X024075Y005389D02*
X025120Y005389D01*
X025232Y005231D02*
X023768Y005231D01*
X023875Y005500D02*
X023500Y005500D01*
X023875Y005500D02*
X024000Y005625D01*
X024000Y008375D01*
X024250Y008625D01*
X025250Y008625D01*
X025500Y008875D01*
X025500Y009250D01*
X025256Y008942D02*
X025169Y009029D01*
X025110Y009172D01*
X025110Y009328D01*
X025169Y009471D01*
X025279Y009581D01*
X025374Y009620D01*
X025343Y009620D01*
X025120Y009843D01*
X025120Y010157D01*
X025243Y010280D01*
X024757Y010280D01*
X024880Y010157D01*
X024880Y009843D01*
X024657Y009620D01*
X024626Y009620D01*
X024721Y009581D01*
X024831Y009471D01*
X024890Y009328D01*
X024890Y009172D01*
X024831Y009029D01*
X024721Y008919D01*
X024578Y008860D01*
X024422Y008860D01*
X024279Y008919D01*
X024169Y009029D01*
X024110Y009172D01*
X024110Y009328D01*
X024169Y009471D01*
X024279Y009581D01*
X024374Y009620D01*
X024343Y009620D01*
X024120Y009843D01*
X024120Y010157D01*
X024243Y010280D01*
X023841Y010280D01*
X023799Y010238D01*
X023880Y010157D01*
X023880Y009843D01*
X023657Y009620D01*
X023626Y009620D01*
X023721Y009581D01*
X023831Y009471D01*
X023890Y009328D01*
X023890Y009172D01*
X023831Y009029D01*
X023721Y008919D01*
X023578Y008860D01*
X023422Y008860D01*
X023279Y008919D01*
X023220Y008978D01*
X023220Y006578D01*
X023275Y006618D01*
X023335Y006648D01*
X023399Y006669D01*
X023466Y006680D01*
X023500Y006680D01*
X023500Y006250D01*
X023500Y006250D01*
X023500Y006680D01*
X023534Y006680D01*
X023601Y006669D01*
X023665Y006648D01*
X023725Y006618D01*
X023780Y006578D01*
X023780Y008466D01*
X023909Y008595D01*
X024159Y008845D01*
X025159Y008845D01*
X025256Y008942D01*
X025190Y008876D02*
X024616Y008876D01*
X024384Y008876D02*
X023616Y008876D01*
X023384Y008876D02*
X023220Y008876D01*
X023220Y008718D02*
X024031Y008718D01*
X023873Y008559D02*
X023220Y008559D01*
X023220Y008401D02*
X023780Y008401D01*
X023780Y008242D02*
X023220Y008242D01*
X023220Y008084D02*
X023780Y008084D01*
X023780Y007925D02*
X023220Y007925D01*
X023220Y007767D02*
X023780Y007767D01*
X023780Y007608D02*
X023220Y007608D01*
X023220Y007450D02*
X023780Y007450D01*
X023780Y007291D02*
X023220Y007291D01*
X023220Y007133D02*
X023780Y007133D01*
X023780Y006974D02*
X023220Y006974D01*
X023220Y006816D02*
X023780Y006816D01*
X023780Y006657D02*
X023639Y006657D01*
X023500Y006657D02*
X023500Y006657D01*
X023361Y006657D02*
X023220Y006657D01*
X023500Y006499D02*
X023500Y006499D01*
X023500Y006340D02*
X023500Y006340D01*
X022780Y006657D02*
X019720Y006657D01*
X019720Y006816D02*
X022780Y006816D01*
X022780Y006974D02*
X019720Y006974D01*
X019720Y007133D02*
X022780Y007133D01*
X022780Y007291D02*
X019720Y007291D01*
X019720Y007450D02*
X022780Y007450D01*
X022780Y007608D02*
X019720Y007608D01*
X019720Y007767D02*
X022780Y007767D01*
X022780Y007925D02*
X019720Y007925D01*
X019720Y008084D02*
X022780Y008084D01*
X022780Y008242D02*
X019720Y008242D01*
X019837Y008401D02*
X022780Y008401D01*
X022780Y008559D02*
X020995Y008559D01*
X021000Y008875D02*
X021000Y009250D01*
X019794Y009669D02*
X019206Y009669D01*
X019292Y009510D02*
X019708Y009510D01*
X019620Y009352D02*
X019380Y009352D01*
X019390Y009193D02*
X019610Y009193D01*
X019667Y009035D02*
X019333Y009035D01*
X019531Y008718D02*
X016720Y008718D01*
X016620Y008559D02*
X019373Y008559D01*
X019530Y008716D02*
X019530Y008716D01*
X019636Y009827D02*
X019364Y009827D01*
X019380Y009986D02*
X019620Y009986D01*
X019620Y010144D02*
X019380Y010144D01*
X019000Y010250D02*
X019000Y010000D01*
X019372Y010778D02*
X019628Y010778D01*
X019580Y010937D02*
X019420Y010937D01*
X019420Y011095D02*
X019580Y011095D01*
X019660Y011254D02*
X019340Y011254D01*
X020340Y011254D02*
X020716Y011254D01*
X020620Y011095D02*
X020420Y011095D01*
X020420Y010937D02*
X020620Y010937D01*
X020685Y010778D02*
X020372Y010778D01*
X022713Y010620D02*
X022780Y010620D01*
X023220Y010620D02*
X023287Y010620D01*
X023326Y010580D02*
X023500Y010580D01*
X023519Y010580D01*
X023280Y010341D01*
X023280Y010317D01*
X023220Y010257D01*
X023220Y010686D01*
X023326Y010580D01*
X023400Y010461D02*
X023220Y010461D01*
X023220Y010303D02*
X023265Y010303D01*
X023500Y010250D02*
X023750Y010500D01*
X023500Y010580D02*
X023500Y011000D01*
X023500Y011000D01*
X023500Y011000D01*
X023500Y010580D01*
X023500Y010620D02*
X023500Y010620D01*
X023500Y010778D02*
X023500Y010778D01*
X023500Y010937D02*
X023500Y010937D01*
X023500Y010250D02*
X023500Y010000D01*
X023880Y009986D02*
X024120Y009986D01*
X024120Y010144D02*
X023880Y010144D01*
X023864Y009827D02*
X024136Y009827D01*
X024294Y009669D02*
X023706Y009669D01*
X023792Y009510D02*
X024208Y009510D01*
X024120Y009352D02*
X023880Y009352D01*
X023890Y009193D02*
X024110Y009193D01*
X024167Y009035D02*
X023833Y009035D01*
X024833Y009035D02*
X025167Y009035D01*
X025110Y009193D02*
X024890Y009193D01*
X024880Y009352D02*
X025120Y009352D01*
X025208Y009510D02*
X024792Y009510D01*
X024706Y009669D02*
X025294Y009669D01*
X025136Y009827D02*
X024864Y009827D01*
X024880Y009986D02*
X025120Y009986D01*
X025120Y010144D02*
X024880Y010144D01*
X025735Y010303D02*
X026765Y010303D01*
X026620Y010144D02*
X025880Y010144D01*
X025880Y009986D02*
X026620Y009986D01*
X026636Y009827D02*
X025864Y009827D01*
X025706Y009669D02*
X026794Y009669D01*
X026708Y009510D02*
X025792Y009510D01*
X025880Y009352D02*
X026620Y009352D01*
X026610Y009193D02*
X025890Y009193D01*
X025833Y009035D02*
X026667Y009035D01*
X026884Y008876D02*
X025720Y008876D01*
X027380Y010144D02*
X027620Y010144D01*
X027765Y010303D02*
X027235Y010303D01*
X028235Y010303D02*
X028280Y010303D01*
X028405Y010591D02*
X028405Y010591D01*
X028372Y010778D02*
X028628Y010778D01*
X028580Y010937D02*
X028420Y010937D01*
X028420Y011095D02*
X028580Y011095D01*
X028660Y011254D02*
X028340Y011254D01*
X028182Y011412D02*
X028818Y011412D01*
X029000Y011412D02*
X029000Y011412D01*
X029000Y011254D02*
X029000Y011254D01*
X029000Y011095D02*
X029000Y011095D01*
X029182Y011412D02*
X031318Y011412D01*
X031840Y011254D02*
X032160Y011254D01*
X032080Y011095D02*
X031920Y011095D01*
X031920Y010937D02*
X032080Y010937D01*
X032128Y010778D02*
X031872Y010778D01*
X032840Y011254D02*
X033160Y011254D01*
X033080Y011095D02*
X032920Y011095D01*
X032920Y010937D02*
X033080Y010937D01*
X033128Y010778D02*
X032872Y010778D01*
X032682Y011412D02*
X033318Y011412D01*
X035720Y010620D02*
X039395Y010620D01*
X039395Y010778D02*
X035839Y010778D01*
X035970Y010937D02*
X039395Y010937D01*
X039395Y011095D02*
X035970Y011095D01*
X035970Y011254D02*
X039395Y011254D01*
X039395Y011412D02*
X035970Y011412D01*
X035970Y011571D02*
X039395Y011571D01*
X039395Y011729D02*
X036040Y011729D01*
X035720Y010461D02*
X039395Y010461D01*
X039395Y010303D02*
X035720Y010303D01*
X035720Y010144D02*
X039395Y010144D01*
X039395Y009986D02*
X035720Y009986D01*
X035720Y009827D02*
X039395Y009827D01*
X039395Y009669D02*
X035720Y009669D01*
X035720Y009510D02*
X039395Y009510D01*
X039395Y009352D02*
X037349Y009352D01*
X037322Y009378D02*
X037259Y009423D01*
X037190Y009459D01*
X037116Y009483D01*
X037039Y009495D01*
X037000Y009495D01*
X037000Y009000D01*
X037495Y009000D01*
X037495Y009039D01*
X037483Y009116D01*
X037459Y009190D01*
X037423Y009259D01*
X037378Y009322D01*
X037322Y009378D01*
X037457Y009193D02*
X039395Y009193D01*
X039395Y009035D02*
X038410Y009035D01*
X038353Y009091D02*
X038205Y009153D01*
X038045Y009153D01*
X037897Y009091D01*
X037784Y008978D01*
X037722Y008830D01*
X037722Y008670D01*
X037784Y008522D01*
X037897Y008409D01*
X038045Y008347D01*
X038205Y008347D01*
X038353Y008409D01*
X038466Y008522D01*
X038528Y008670D01*
X038528Y008830D01*
X038466Y008978D01*
X038353Y009091D01*
X038509Y008876D02*
X039395Y008876D01*
X039395Y008718D02*
X038528Y008718D01*
X038482Y008559D02*
X039395Y008559D01*
X039395Y008401D02*
X038334Y008401D01*
X037916Y008401D02*
X035720Y008401D01*
X035720Y008559D02*
X035798Y008559D01*
X036202Y008559D02*
X036775Y008559D01*
X036741Y008577D02*
X036810Y008541D01*
X036884Y008517D01*
X036961Y008505D01*
X037000Y008505D01*
X037039Y008505D01*
X037116Y008517D01*
X037190Y008541D01*
X037259Y008577D01*
X037322Y008622D01*
X037378Y008678D01*
X037423Y008741D01*
X037459Y008810D01*
X037483Y008884D01*
X037495Y008961D01*
X037495Y009000D01*
X037000Y009000D01*
X037000Y009000D01*
X037000Y009000D01*
X037000Y008505D01*
X037000Y009000D01*
X037000Y009000D01*
X037000Y009000D01*
X036505Y009000D01*
X036505Y009039D01*
X036517Y009116D01*
X036541Y009190D01*
X036577Y009259D01*
X036622Y009322D01*
X036678Y009378D01*
X036741Y009423D01*
X036810Y009459D01*
X036884Y009483D01*
X036961Y009495D01*
X037000Y009495D01*
X037000Y009000D01*
X036505Y009000D01*
X036505Y008961D01*
X036517Y008884D01*
X036541Y008810D01*
X036577Y008741D01*
X036622Y008678D01*
X036678Y008622D01*
X036741Y008577D01*
X036593Y008718D02*
X036361Y008718D01*
X036455Y008876D02*
X036520Y008876D01*
X036505Y009035D02*
X036455Y009035D01*
X036450Y009193D02*
X036543Y009193D01*
X036651Y009352D02*
X036292Y009352D01*
X037000Y009352D02*
X037000Y009352D01*
X037000Y009193D02*
X037000Y009193D01*
X037000Y009035D02*
X037000Y009035D01*
X037000Y008876D02*
X037000Y008876D01*
X037000Y008718D02*
X037000Y008718D01*
X037000Y008559D02*
X037000Y008559D01*
X037225Y008559D02*
X037768Y008559D01*
X037722Y008718D02*
X037407Y008718D01*
X037480Y008876D02*
X037741Y008876D01*
X037840Y009035D02*
X037495Y009035D01*
X035720Y008242D02*
X039395Y008242D01*
X039395Y008084D02*
X038361Y008084D01*
X038353Y008091D02*
X038205Y008153D01*
X038045Y008153D01*
X037897Y008091D01*
X037784Y007978D01*
X037722Y007830D01*
X037722Y007670D01*
X037784Y007522D01*
X037897Y007409D01*
X038045Y007347D01*
X038205Y007347D01*
X038353Y007409D01*
X038466Y007522D01*
X038528Y007670D01*
X038528Y007830D01*
X038466Y007978D01*
X038353Y008091D01*
X038488Y007925D02*
X039395Y007925D01*
X039395Y007767D02*
X038528Y007767D01*
X038502Y007608D02*
X039395Y007608D01*
X039395Y007450D02*
X038394Y007450D01*
X038254Y007133D02*
X039395Y007133D01*
X039395Y007291D02*
X035720Y007291D01*
X035720Y007133D02*
X037996Y007133D01*
X038045Y007153D02*
X037897Y007091D01*
X037784Y006978D01*
X037722Y006830D01*
X037722Y006670D01*
X037784Y006522D01*
X037897Y006409D01*
X038045Y006347D01*
X038205Y006347D01*
X038353Y006409D01*
X038466Y006522D01*
X038528Y006670D01*
X038528Y006830D01*
X038466Y006978D01*
X038353Y007091D01*
X038205Y007153D01*
X038045Y007153D01*
X037782Y006974D02*
X037226Y006974D01*
X037205Y006995D02*
X037000Y006995D01*
X037000Y006500D01*
X037495Y006500D01*
X037495Y006705D01*
X037205Y006995D01*
X037000Y006995D02*
X036795Y006995D01*
X036505Y006705D01*
X036505Y006500D01*
X037000Y006500D01*
X037000Y006500D01*
X037000Y006500D01*
X037495Y006500D01*
X037495Y006295D01*
X037205Y006005D01*
X037000Y006005D01*
X037000Y006500D01*
X037000Y006500D01*
X037000Y006500D01*
X037000Y006995D01*
X037000Y006974D02*
X037000Y006974D01*
X037000Y006816D02*
X037000Y006816D01*
X037000Y006657D02*
X037000Y006657D01*
X037000Y006500D02*
X036505Y006500D01*
X036505Y006295D01*
X036795Y006005D01*
X037000Y006005D01*
X037000Y006500D01*
X037000Y006499D02*
X037000Y006499D01*
X037000Y006340D02*
X037000Y006340D01*
X037000Y006182D02*
X037000Y006182D01*
X037000Y006023D02*
X037000Y006023D01*
X037223Y006023D02*
X039395Y006023D01*
X039395Y005865D02*
X035720Y005865D01*
X035720Y006023D02*
X036777Y006023D01*
X036618Y006182D02*
X036325Y006182D01*
X036426Y006340D02*
X036505Y006340D01*
X036505Y006499D02*
X036455Y006499D01*
X036427Y006657D02*
X036505Y006657D01*
X036615Y006816D02*
X036328Y006816D01*
X036774Y006974D02*
X035720Y006974D01*
X035280Y006974D02*
X033220Y006974D01*
X033220Y006816D02*
X035280Y006816D01*
X035280Y006657D02*
X033220Y006657D01*
X032780Y006657D02*
X032639Y006657D01*
X032500Y006657D02*
X032500Y006657D01*
X032500Y006499D02*
X032500Y006499D01*
X032500Y006340D02*
X032500Y006340D01*
X033220Y005865D02*
X033412Y005865D01*
X033588Y005865D02*
X034327Y005865D01*
X034343Y005880D02*
X034120Y005657D01*
X034120Y005343D01*
X034343Y005120D01*
X034657Y005120D01*
X034880Y005343D01*
X034880Y005657D01*
X034657Y005880D01*
X034626Y005880D01*
X034721Y005919D01*
X034831Y006029D01*
X034890Y006172D01*
X034890Y006328D01*
X034831Y006471D01*
X034721Y006581D01*
X034578Y006640D01*
X034422Y006640D01*
X034279Y006581D01*
X034169Y006471D01*
X034110Y006328D01*
X034110Y006172D01*
X034169Y006029D01*
X034279Y005919D01*
X034374Y005880D01*
X034343Y005880D01*
X034175Y006023D02*
X033825Y006023D01*
X033890Y006182D02*
X034110Y006182D01*
X034115Y006340D02*
X033885Y006340D01*
X033803Y006499D02*
X034197Y006499D01*
X034803Y006499D02*
X035280Y006499D01*
X035280Y006340D02*
X034885Y006340D01*
X034890Y006182D02*
X035280Y006182D01*
X035280Y006023D02*
X034825Y006023D01*
X034673Y005865D02*
X035280Y005865D01*
X035280Y005706D02*
X034831Y005706D01*
X034880Y005548D02*
X035280Y005548D01*
X035280Y005389D02*
X034880Y005389D01*
X034768Y005231D02*
X035280Y005231D01*
X035280Y005072D02*
X032715Y005072D01*
X032768Y005231D02*
X034232Y005231D01*
X034120Y005389D02*
X033075Y005389D01*
X033220Y005548D02*
X034120Y005548D01*
X034169Y005706D02*
X033220Y005706D01*
X032120Y005389D02*
X031880Y005389D01*
X031768Y005231D02*
X032232Y005231D01*
X032285Y005072D02*
X031715Y005072D01*
X031874Y004914D02*
X032126Y004914D01*
X032120Y004755D02*
X031880Y004755D01*
X031880Y004597D02*
X032120Y004597D01*
X032275Y004438D02*
X031725Y004438D01*
X031275Y004438D02*
X030420Y004438D01*
X030420Y004597D02*
X031120Y004597D01*
X031120Y004755D02*
X030339Y004755D01*
X030180Y004914D02*
X031126Y004914D01*
X031285Y005072D02*
X028215Y005072D01*
X028268Y005231D02*
X029732Y005231D01*
X029843Y005120D02*
X030157Y005120D01*
X030380Y005343D01*
X030380Y005657D01*
X030157Y005880D01*
X030126Y005880D01*
X030221Y005919D01*
X030331Y006029D01*
X030390Y006172D01*
X030390Y006328D01*
X030331Y006471D01*
X030221Y006581D01*
X030078Y006640D01*
X029922Y006640D01*
X029779Y006581D01*
X029669Y006471D01*
X029610Y006328D01*
X029610Y006172D01*
X029669Y006029D01*
X029779Y005919D01*
X029874Y005880D01*
X029843Y005880D01*
X029620Y005657D01*
X029620Y005343D01*
X029843Y005120D01*
X029620Y005389D02*
X028575Y005389D01*
X028720Y005548D02*
X029620Y005548D01*
X029669Y005706D02*
X028720Y005706D01*
X028720Y005865D02*
X028912Y005865D01*
X029088Y005865D02*
X029827Y005865D01*
X029675Y006023D02*
X029325Y006023D01*
X029390Y006182D02*
X029610Y006182D01*
X029615Y006340D02*
X029385Y006340D01*
X029303Y006499D02*
X029697Y006499D01*
X030303Y006499D02*
X031197Y006499D01*
X031115Y006340D02*
X030385Y006340D01*
X030390Y006182D02*
X031110Y006182D01*
X031175Y006023D02*
X030325Y006023D01*
X030173Y005865D02*
X031327Y005865D01*
X031169Y005706D02*
X030331Y005706D01*
X030380Y005548D02*
X031120Y005548D01*
X031120Y005389D02*
X030380Y005389D01*
X030268Y005231D02*
X031232Y005231D01*
X030000Y004914D02*
X030000Y004914D01*
X030000Y004755D02*
X030000Y004755D01*
X030000Y004597D02*
X030000Y004597D01*
X029820Y004914D02*
X028374Y004914D01*
X028380Y004755D02*
X029661Y004755D01*
X029580Y004597D02*
X028380Y004597D01*
X028225Y004438D02*
X029580Y004438D01*
X029627Y004280D02*
X025873Y004280D01*
X025920Y004438D02*
X026775Y004438D01*
X026620Y004597D02*
X025920Y004597D01*
X025839Y004755D02*
X026620Y004755D01*
X026626Y004914D02*
X025680Y004914D01*
X025500Y004914D02*
X025500Y004914D01*
X025500Y004755D02*
X025500Y004755D01*
X025500Y004597D02*
X025500Y004597D01*
X025715Y004121D02*
X029785Y004121D01*
X030215Y004121D02*
X034285Y004121D01*
X034127Y004280D02*
X030373Y004280D01*
X032725Y004438D02*
X034080Y004438D01*
X034080Y004597D02*
X032880Y004597D01*
X032880Y004755D02*
X034161Y004755D01*
X034320Y004914D02*
X032874Y004914D01*
X034500Y004914D02*
X034500Y004914D01*
X034500Y004755D02*
X034500Y004755D01*
X034500Y004597D02*
X034500Y004597D01*
X034680Y004914D02*
X035280Y004914D01*
X035280Y004755D02*
X034839Y004755D01*
X034920Y004597D02*
X035280Y004597D01*
X035227Y004438D02*
X034920Y004438D01*
X034873Y004280D02*
X035068Y004280D01*
X034910Y004121D02*
X034715Y004121D01*
X035215Y003804D02*
X039395Y003804D01*
X039395Y003963D02*
X035374Y003963D01*
X035532Y004121D02*
X039395Y004121D01*
X039395Y004280D02*
X035691Y004280D01*
X035720Y004438D02*
X039395Y004438D01*
X039395Y004597D02*
X035720Y004597D01*
X035720Y004755D02*
X039395Y004755D01*
X039395Y004914D02*
X035720Y004914D01*
X035720Y005072D02*
X039395Y005072D01*
X039395Y005231D02*
X035720Y005231D01*
X035720Y005389D02*
X039395Y005389D01*
X039395Y005548D02*
X035720Y005548D01*
X035720Y005706D02*
X039395Y005706D01*
X039395Y006182D02*
X037382Y006182D01*
X037495Y006340D02*
X039395Y006340D01*
X039395Y006499D02*
X038443Y006499D01*
X038522Y006657D02*
X039395Y006657D01*
X039395Y006816D02*
X038528Y006816D01*
X038468Y006974D02*
X039395Y006974D01*
X037856Y007450D02*
X035720Y007450D01*
X035720Y007608D02*
X037748Y007608D01*
X037722Y007767D02*
X035720Y007767D01*
X035720Y007925D02*
X037762Y007925D01*
X037889Y008084D02*
X035720Y008084D01*
X035280Y008084D02*
X033220Y008084D01*
X033220Y008242D02*
X035280Y008242D01*
X035280Y008401D02*
X033337Y008401D01*
X033031Y008718D02*
X030220Y008718D01*
X030120Y008559D02*
X032873Y008559D01*
X032780Y008401D02*
X029962Y008401D01*
X033220Y007925D02*
X035280Y007925D01*
X035280Y007767D02*
X033220Y007767D01*
X033220Y007608D02*
X035280Y007608D01*
X035280Y007450D02*
X033220Y007450D01*
X033220Y007291D02*
X035280Y007291D01*
X035280Y007133D02*
X033220Y007133D01*
X037385Y006816D02*
X037722Y006816D01*
X037728Y006657D02*
X037495Y006657D01*
X037495Y006499D02*
X037807Y006499D01*
X035575Y003487D02*
X034925Y003487D01*
X035084Y003329D02*
X035416Y003329D01*
X035370Y003170D02*
X035130Y003170D01*
X035130Y003012D02*
X035370Y003012D01*
X035485Y002853D02*
X035015Y002853D01*
X034970Y002695D02*
X035532Y002695D01*
X036835Y000793D02*
X037938Y000793D01*
X038095Y000634D02*
X036840Y000634D01*
X036733Y000476D02*
X038378Y000476D01*
X038872Y000476D02*
X039395Y000476D01*
X039395Y000634D02*
X039155Y000634D01*
X039312Y000793D02*
X039395Y000793D01*
X039378Y000951D02*
X039395Y000951D01*
X039395Y000317D02*
X036504Y000317D01*
X027775Y004438D02*
X027225Y004438D01*
X027380Y004597D02*
X027620Y004597D01*
X027620Y004755D02*
X027380Y004755D01*
X027374Y004914D02*
X027626Y004914D01*
X027785Y005072D02*
X027215Y005072D01*
X027268Y005231D02*
X027732Y005231D01*
X027620Y005389D02*
X027380Y005389D01*
X028000Y006340D02*
X028000Y006340D01*
X028000Y006499D02*
X028000Y006499D01*
X028000Y006657D02*
X028000Y006657D01*
X028139Y006657D02*
X028280Y006657D01*
X020661Y004755D02*
X019380Y004755D01*
X019380Y004597D02*
X020580Y004597D01*
X020580Y004438D02*
X019350Y004438D01*
X019192Y004280D02*
X020627Y004280D01*
X017620Y005231D02*
X016768Y005231D01*
X016657Y005120D02*
X016880Y005343D01*
X016880Y005657D01*
X016657Y005880D01*
X016626Y005880D01*
X016721Y005919D01*
X016831Y006029D01*
X016890Y006172D01*
X016890Y006328D01*
X016831Y006471D01*
X016721Y006581D01*
X016578Y006640D01*
X016422Y006640D01*
X016279Y006581D01*
X016169Y006471D01*
X016110Y006328D01*
X016110Y006172D01*
X016169Y006029D01*
X016279Y005919D01*
X016374Y005880D01*
X016343Y005880D01*
X016120Y005657D01*
X016120Y005343D01*
X016343Y005120D01*
X016657Y005120D01*
X016880Y005389D02*
X017620Y005389D01*
X017635Y005548D02*
X016880Y005548D01*
X016831Y005706D02*
X017794Y005706D01*
X017912Y005865D02*
X016673Y005865D01*
X016825Y006023D02*
X017675Y006023D01*
X017669Y006029D02*
X017779Y005919D01*
X017922Y005860D01*
X018078Y005860D01*
X018221Y005919D01*
X018331Y006029D01*
X018390Y006172D01*
X018390Y006328D01*
X018331Y006471D01*
X018221Y006581D01*
X018078Y006640D01*
X017922Y006640D01*
X017779Y006581D01*
X017669Y006471D01*
X017610Y006328D01*
X017610Y006172D01*
X017669Y006029D01*
X017610Y006182D02*
X016890Y006182D01*
X016885Y006340D02*
X017615Y006340D01*
X017697Y006499D02*
X016803Y006499D01*
X016197Y006499D02*
X015803Y006499D01*
X015885Y006340D02*
X016115Y006340D01*
X016110Y006182D02*
X015890Y006182D01*
X015825Y006023D02*
X016175Y006023D01*
X016327Y005865D02*
X015588Y005865D01*
X015412Y005865D02*
X015220Y005865D01*
X015220Y005706D02*
X016169Y005706D01*
X016120Y005548D02*
X015109Y005548D01*
X014950Y005389D02*
X016120Y005389D01*
X016232Y005231D02*
X014880Y005231D01*
X015220Y006657D02*
X018861Y006657D01*
X018649Y006499D02*
X018303Y006499D01*
X018385Y006340D02*
X018579Y006340D01*
X018575Y006182D02*
X018390Y006182D01*
X018325Y006023D02*
X018633Y006023D01*
X019191Y005865D02*
X019280Y005865D01*
X011030Y001902D02*
X010657Y001902D01*
X010498Y001744D02*
X011030Y001744D01*
X011489Y001427D02*
X011649Y001427D01*
X012277Y001427D02*
X012436Y001427D01*
X012467Y000793D02*
X012246Y000793D01*
X011680Y000793D02*
X011458Y000793D01*
X010892Y000793D02*
X010671Y000793D01*
X009663Y001585D02*
X007932Y001585D01*
X007434Y001585D02*
X006489Y001585D01*
X006633Y001744D02*
X009372Y001744D01*
X009213Y001902D02*
X006633Y001902D01*
X006633Y002061D02*
X009134Y002061D01*
X009068Y002219D02*
X006633Y002219D01*
X006633Y002378D02*
X009055Y002378D01*
X009055Y002536D02*
X006633Y002536D01*
X006633Y002695D02*
X007337Y002695D01*
X007214Y002853D02*
X006633Y002853D01*
X006633Y003012D02*
X007159Y003012D01*
X007159Y003170D02*
X006633Y003170D01*
X006633Y003329D02*
X007215Y003329D01*
X006952Y003487D02*
X006633Y003487D01*
X006633Y003646D02*
X006793Y003646D01*
X006635Y003804D02*
X006580Y003804D01*
X006530Y003963D02*
X006477Y003963D01*
X006257Y003816D02*
X006257Y007005D01*
X005447Y006499D02*
X005101Y006499D01*
X005171Y006340D02*
X005365Y006340D01*
X005360Y006182D02*
X005175Y006182D01*
X005117Y006023D02*
X005425Y006023D01*
X004559Y005865D02*
X004470Y005865D01*
X004470Y005706D02*
X004544Y005706D01*
X003410Y005706D02*
X000230Y005706D01*
X000230Y005548D02*
X003410Y005548D01*
X003410Y005389D02*
X000230Y005389D01*
X000230Y005231D02*
X003410Y005231D01*
X003410Y005072D02*
X000230Y005072D01*
X000230Y004914D02*
X003410Y004914D01*
X003410Y004755D02*
X000230Y004755D01*
X000230Y004597D02*
X003410Y004597D01*
X003410Y004438D02*
X000230Y004438D01*
X000230Y004280D02*
X003410Y004280D01*
X003410Y004121D02*
X000230Y004121D01*
X000230Y003963D02*
X003410Y003963D01*
X003410Y003804D02*
X000230Y003804D01*
X000230Y003646D02*
X003410Y003646D01*
X003402Y003487D02*
X000230Y003487D01*
X000230Y003329D02*
X003278Y003329D01*
X003222Y003170D02*
X000230Y003170D01*
X000230Y003012D02*
X003222Y003012D01*
X003277Y002853D02*
X000230Y002853D01*
X000230Y002695D02*
X003400Y002695D01*
X006060Y002695D02*
X006193Y002695D01*
X006183Y002853D02*
X006193Y002853D01*
X006182Y003329D02*
X006193Y003329D01*
X006193Y003487D02*
X006058Y003487D01*
X006257Y003816D02*
X006413Y003660D01*
X006413Y001820D01*
X005714Y001121D01*
X006238Y001110D02*
X007159Y001110D01*
X007176Y001268D02*
X006220Y001268D01*
X006331Y001427D02*
X007247Y001427D01*
X007186Y000951D02*
X006211Y000951D01*
X006126Y000793D02*
X007270Y000793D01*
X007490Y000634D02*
X005907Y000634D01*
X005521Y000634D02*
X003939Y000634D01*
X004158Y000793D02*
X005302Y000793D01*
X005218Y000951D02*
X004512Y000951D01*
X000839Y000440D02*
X000541Y000563D01*
X000313Y000791D01*
X000230Y000992D01*
X000230Y000951D02*
X000247Y000951D01*
X000230Y000793D02*
X000313Y000793D01*
X000230Y000634D02*
X000470Y000634D01*
X000262Y001585D02*
X000230Y001585D01*
X000230Y001744D02*
X000348Y001744D01*
X000230Y001902D02*
X000506Y001902D01*
X008028Y002695D02*
X009095Y002695D01*
X009161Y002853D02*
X008152Y002853D01*
X008207Y003012D02*
X009278Y003012D01*
X008519Y003170D02*
X008207Y003170D01*
X008151Y003329D02*
X008360Y003329D01*
X008630Y005389D02*
X008727Y005389D01*
X009325Y006023D02*
X009633Y006023D01*
X009575Y006182D02*
X009390Y006182D01*
X009385Y006340D02*
X009579Y006340D01*
X009649Y006499D02*
X009303Y006499D01*
X010000Y006499D02*
X010000Y006499D01*
X010000Y006340D02*
X010000Y006340D01*
X010000Y006182D02*
X010000Y006182D01*
X010000Y006023D02*
X010000Y006023D01*
X003410Y005865D02*
X000230Y005865D01*
X000230Y006023D02*
X002371Y006023D01*
X002213Y006182D02*
X000230Y006182D01*
X000230Y006340D02*
X001204Y006340D01*
X001205Y006340D02*
X001271Y006318D01*
X001340Y006307D01*
X001367Y006307D01*
X001367Y006742D01*
X000932Y006742D01*
X000932Y006715D01*
X000943Y006646D01*
X000965Y006580D01*
X000996Y006518D01*
X001037Y006462D01*
X001087Y006412D01*
X001143Y006371D01*
X001205Y006340D01*
X001367Y006340D02*
X001383Y006340D01*
X001383Y006307D02*
X001410Y006307D01*
X001479Y006318D01*
X001545Y006340D01*
X001607Y006371D01*
X001663Y006412D01*
X001713Y006462D01*
X001754Y006518D01*
X001785Y006580D01*
X001807Y006646D01*
X001818Y006715D01*
X001818Y006742D01*
X001383Y006742D01*
X001383Y006758D01*
X001367Y006758D01*
X001367Y007193D01*
X001340Y007193D01*
X001271Y007182D01*
X001205Y007160D01*
X001143Y007129D01*
X001087Y007088D01*
X001037Y007038D01*
X000996Y006982D01*
X000965Y006920D01*
X000943Y006854D01*
X000932Y006785D01*
X000932Y006758D01*
X001367Y006758D01*
X001367Y006742D01*
X001383Y006742D01*
X001383Y006307D01*
X001546Y006340D02*
X002054Y006340D01*
X001934Y006499D02*
X001740Y006499D01*
X001809Y006657D02*
X001910Y006657D01*
X001818Y006758D02*
X001818Y006785D01*
X001807Y006854D01*
X001785Y006920D01*
X001754Y006982D01*
X001713Y007038D01*
X001663Y007088D01*
X001607Y007129D01*
X001545Y007160D01*
X001479Y007182D01*
X001410Y007193D01*
X001383Y007193D01*
X001383Y006758D01*
X001818Y006758D01*
X001813Y006816D02*
X001910Y006816D01*
X001910Y006974D02*
X001758Y006974D01*
X001910Y007133D02*
X001600Y007133D01*
X001383Y007133D02*
X001367Y007133D01*
X001367Y006974D02*
X001383Y006974D01*
X001367Y006816D02*
X001383Y006816D01*
X001367Y006657D02*
X001383Y006657D01*
X001367Y006499D02*
X001383Y006499D01*
X001010Y006499D02*
X000230Y006499D01*
X000230Y006657D02*
X000941Y006657D01*
X000937Y006816D02*
X000230Y006816D01*
X000230Y006974D02*
X000992Y006974D01*
X001150Y007133D02*
X000230Y007133D01*
X000230Y007291D02*
X001910Y007291D01*
X001910Y007450D02*
X001644Y007450D01*
X001603Y007409D02*
X001716Y007522D01*
X001778Y007670D01*
X001778Y007830D01*
X001716Y007978D01*
X001603Y008091D01*
X001455Y008153D01*
X001295Y008153D01*
X001147Y008091D01*
X001034Y007978D01*
X000972Y007830D01*
X000972Y007670D01*
X001034Y007522D01*
X001147Y007409D01*
X001295Y007347D01*
X001455Y007347D01*
X001603Y007409D01*
X001752Y007608D02*
X001910Y007608D01*
X001910Y007767D02*
X001778Y007767D01*
X001738Y007925D02*
X001910Y007925D01*
X001910Y008084D02*
X001611Y008084D01*
X001910Y008242D02*
X000230Y008242D01*
X000230Y008084D02*
X001139Y008084D01*
X001012Y007925D02*
X000230Y007925D01*
X000230Y007767D02*
X000972Y007767D01*
X000998Y007608D02*
X000230Y007608D01*
X000230Y007450D02*
X001106Y007450D01*
X007674Y012363D02*
X007905Y012363D01*
X009135Y012720D02*
X009254Y012769D01*
X009372Y012887D01*
X009436Y013041D01*
X009436Y013209D01*
X009372Y013363D01*
X009330Y013405D01*
X010619Y013405D01*
X010591Y013366D01*
X010558Y013302D01*
X010536Y013233D01*
X010524Y013161D01*
X010524Y013134D01*
X010976Y013134D01*
X010976Y013116D01*
X010524Y013116D01*
X010524Y013089D01*
X010536Y013017D01*
X010558Y012948D01*
X010591Y012884D01*
X010633Y012825D01*
X010685Y012774D01*
X010743Y012732D01*
X010766Y012720D01*
X009135Y012720D01*
X009323Y012839D02*
X010624Y012839D01*
X010542Y012997D02*
X009417Y012997D01*
X009436Y013156D02*
X010524Y013156D01*
X010564Y013314D02*
X009392Y013314D01*
X010993Y013134D02*
X011444Y013134D01*
X011444Y013161D01*
X011433Y013233D01*
X011411Y013302D01*
X011378Y013366D01*
X011349Y013405D01*
X012311Y013405D01*
X012080Y013174D01*
X012080Y013000D01*
X012500Y013000D01*
X012920Y013000D01*
X012920Y013174D01*
X012689Y013405D01*
X014577Y013405D01*
X014535Y013363D01*
X014471Y013209D01*
X014471Y013041D01*
X014535Y012887D01*
X014653Y012769D01*
X014771Y012720D01*
X013757Y012720D01*
X013880Y012843D01*
X013880Y013157D01*
X013657Y013380D01*
X013343Y013380D01*
X013120Y013157D01*
X013120Y012843D01*
X013243Y012720D01*
X012814Y012720D01*
X012920Y012826D01*
X012920Y013000D01*
X012500Y013000D01*
X012500Y013000D01*
X012500Y013000D01*
X012080Y013000D01*
X012080Y012826D01*
X012186Y012720D01*
X011203Y012720D01*
X011225Y012732D01*
X011284Y012774D01*
X011335Y012825D01*
X011378Y012884D01*
X011411Y012948D01*
X011433Y013017D01*
X011444Y013089D01*
X011444Y013116D01*
X010993Y013116D01*
X010993Y013134D01*
X011404Y013314D02*
X012220Y013314D01*
X012080Y013156D02*
X011444Y013156D01*
X011426Y012997D02*
X012080Y012997D01*
X012080Y012839D02*
X011345Y012839D01*
X012780Y013314D02*
X013277Y013314D01*
X013120Y013156D02*
X012920Y013156D01*
X012920Y012997D02*
X013120Y012997D01*
X013124Y012839D02*
X012920Y012839D01*
X013876Y012839D02*
X014583Y012839D01*
X014489Y012997D02*
X013880Y012997D01*
X013880Y013156D02*
X014471Y013156D01*
X014514Y013314D02*
X013723Y013314D01*
X015010Y012720D02*
X015129Y012769D01*
X015247Y012887D01*
X015311Y013041D01*
X015311Y013209D01*
X015247Y013363D01*
X015205Y013405D01*
X016545Y013405D01*
X016503Y013363D01*
X016439Y013209D01*
X016439Y013041D01*
X016503Y012887D01*
X016621Y012769D01*
X016740Y012720D01*
X015010Y012720D01*
X015198Y012839D02*
X016552Y012839D01*
X016458Y012997D02*
X015292Y012997D01*
X015311Y013156D02*
X016439Y013156D01*
X016483Y013314D02*
X015267Y013314D01*
X015218Y014995D02*
X015532Y014995D01*
X015755Y015218D01*
X015755Y015532D01*
X015532Y015755D01*
X015218Y015755D01*
X014995Y015532D01*
X014995Y015218D01*
X015218Y014995D01*
X015155Y015058D02*
X014261Y015058D01*
X014222Y015019D02*
X014340Y015137D01*
X014404Y015291D01*
X014404Y015459D01*
X014340Y015613D01*
X014222Y015731D01*
X014068Y015795D01*
X013901Y015795D01*
X013746Y015731D01*
X013628Y015613D01*
X013564Y015459D01*
X013564Y015291D01*
X013628Y015137D01*
X013746Y015019D01*
X013901Y014955D01*
X014068Y014955D01*
X014222Y015019D01*
X014373Y015216D02*
X014997Y015216D01*
X014995Y015375D02*
X014404Y015375D01*
X014373Y015533D02*
X014996Y015533D01*
X015154Y015692D02*
X014262Y015692D01*
X013707Y015692D02*
X012350Y015692D01*
X012367Y015675D02*
X012315Y015726D01*
X012257Y015768D01*
X012192Y015801D01*
X012123Y015824D01*
X012052Y015835D01*
X012024Y015835D01*
X012024Y015384D01*
X012007Y015384D01*
X012007Y015835D01*
X011980Y015835D01*
X011908Y015824D01*
X011839Y015801D01*
X011775Y015768D01*
X011716Y015726D01*
X011665Y015675D01*
X011622Y015616D01*
X011589Y015552D01*
X011567Y015483D01*
X011556Y015411D01*
X011556Y015384D01*
X012007Y015384D01*
X012007Y015366D01*
X012024Y015366D01*
X012024Y014915D01*
X012052Y014915D01*
X012123Y014926D01*
X012192Y014949D01*
X012257Y014982D01*
X012315Y015024D01*
X012367Y015075D01*
X012409Y015134D01*
X012442Y015198D01*
X012464Y015267D01*
X012476Y015339D01*
X012476Y015366D01*
X012024Y015366D01*
X012024Y015384D01*
X012476Y015384D01*
X012476Y015411D01*
X012464Y015483D01*
X012442Y015552D01*
X012409Y015616D01*
X012367Y015675D01*
X012448Y015533D02*
X013595Y015533D01*
X013564Y015375D02*
X012024Y015375D01*
X012007Y015375D02*
X011045Y015375D01*
X011045Y015549D01*
X010799Y015795D01*
X010625Y015795D01*
X010625Y015375D01*
X011045Y015375D01*
X010625Y015375D01*
X010625Y015375D01*
X010625Y015375D01*
X010625Y014955D01*
X010799Y014955D01*
X011045Y015201D01*
X011045Y015375D01*
X011045Y015533D02*
X011583Y015533D01*
X011556Y015366D02*
X011556Y015339D01*
X011567Y015267D01*
X011589Y015198D01*
X011622Y015134D01*
X011665Y015075D01*
X011716Y015024D01*
X011775Y014982D01*
X011839Y014949D01*
X011908Y014926D01*
X011980Y014915D01*
X012007Y014915D01*
X012007Y015366D01*
X011556Y015366D01*
X011584Y015216D02*
X011045Y015216D01*
X010901Y015058D02*
X011683Y015058D01*
X012007Y015058D02*
X012024Y015058D01*
X012007Y015216D02*
X012024Y015216D01*
X012349Y015058D02*
X013708Y015058D01*
X013595Y015216D02*
X012448Y015216D01*
X012024Y015533D02*
X012007Y015533D01*
X012007Y015692D02*
X012024Y015692D01*
X011682Y015692D02*
X010902Y015692D01*
X010625Y015692D02*
X010625Y015692D01*
X010625Y015795D02*
X010451Y015795D01*
X010205Y015549D01*
X010205Y015375D01*
X010625Y015375D01*
X010625Y015375D01*
X010625Y015375D01*
X010625Y015795D01*
X010625Y015533D02*
X010625Y015533D01*
X010625Y015375D02*
X010205Y015375D01*
X010205Y015201D01*
X010451Y014955D01*
X010625Y014955D01*
X010625Y015375D01*
X010625Y015375D01*
X010625Y015216D02*
X010625Y015216D01*
X010625Y015058D02*
X010625Y015058D01*
X010349Y015058D02*
X009845Y015058D01*
X009782Y014995D02*
X010005Y015218D01*
X010005Y015532D01*
X009782Y015755D01*
X009468Y015755D01*
X009245Y015532D01*
X009245Y015218D01*
X009468Y014995D01*
X009782Y014995D01*
X010003Y015216D02*
X010205Y015216D01*
X010205Y015375D02*
X010005Y015375D01*
X010004Y015533D02*
X010205Y015533D01*
X010348Y015692D02*
X009846Y015692D01*
X009404Y015692D02*
X000797Y015692D01*
X000661Y015533D02*
X003064Y015533D01*
X002955Y015424D02*
X002955Y015250D01*
X003375Y015250D01*
X003795Y015250D01*
X003795Y015424D01*
X003549Y015670D01*
X003375Y015670D01*
X003375Y015250D01*
X003375Y015250D01*
X003375Y015250D01*
X003795Y015250D01*
X003795Y015076D01*
X003549Y014830D01*
X003375Y014830D01*
X003375Y015250D01*
X003375Y015250D01*
X003375Y015250D01*
X003375Y015670D01*
X003201Y015670D01*
X002955Y015424D01*
X002955Y015375D02*
X000531Y015375D01*
X000450Y015216D02*
X002955Y015216D01*
X002955Y015250D02*
X002955Y015076D01*
X003201Y014830D01*
X003375Y014830D01*
X003375Y015250D01*
X002955Y015250D01*
X002974Y015058D02*
X000369Y015058D01*
X000317Y014899D02*
X003132Y014899D01*
X003375Y014899D02*
X003375Y014899D01*
X003375Y015058D02*
X003375Y015058D01*
X003375Y015216D02*
X003375Y015216D01*
X003375Y015375D02*
X003375Y015375D01*
X003375Y015533D02*
X003375Y015533D01*
X003686Y015533D02*
X004121Y015533D01*
X004218Y015630D02*
X003995Y015407D01*
X003995Y015093D01*
X004218Y014870D01*
X004532Y014870D01*
X004755Y015093D01*
X004755Y015407D01*
X004532Y015630D01*
X004218Y015630D01*
X004629Y015533D02*
X005705Y015533D01*
X005660Y015488D02*
X005596Y015334D01*
X005596Y015166D01*
X005660Y015012D01*
X005778Y014894D01*
X005932Y014830D01*
X006099Y014830D01*
X006254Y014894D01*
X006372Y015012D01*
X006436Y015166D01*
X006436Y015334D01*
X006372Y015488D01*
X006254Y015606D01*
X006099Y015670D01*
X005932Y015670D01*
X005778Y015606D01*
X005660Y015488D01*
X005613Y015375D02*
X004755Y015375D01*
X004755Y015216D02*
X005596Y015216D01*
X005641Y015058D02*
X004720Y015058D01*
X004561Y014899D02*
X005773Y014899D01*
X006259Y014899D02*
X007741Y014899D01*
X007746Y014894D02*
X007901Y014830D01*
X008068Y014830D01*
X008222Y014894D01*
X008340Y015012D01*
X008404Y015166D01*
X008404Y015334D01*
X008340Y015488D01*
X008222Y015606D01*
X008068Y015670D01*
X007901Y015670D01*
X007746Y015606D01*
X007628Y015488D01*
X007564Y015334D01*
X007564Y015166D01*
X007628Y015012D01*
X007746Y014894D01*
X007609Y015058D02*
X006391Y015058D01*
X006436Y015216D02*
X007564Y015216D01*
X007581Y015375D02*
X006419Y015375D01*
X006327Y015533D02*
X007673Y015533D01*
X008295Y015533D02*
X009246Y015533D01*
X009245Y015375D02*
X008387Y015375D01*
X008404Y015216D02*
X009247Y015216D01*
X009405Y015058D02*
X008359Y015058D01*
X008227Y014899D02*
X039395Y014899D01*
X039395Y014741D02*
X000279Y014741D01*
X000242Y014582D02*
X039395Y014582D01*
X039395Y014424D02*
X000233Y014424D01*
X000230Y014265D02*
X039395Y014265D01*
X039395Y014107D02*
X000230Y014107D01*
X003618Y014899D02*
X004189Y014899D01*
X004030Y015058D02*
X003776Y015058D01*
X003795Y015216D02*
X003995Y015216D01*
X003995Y015375D02*
X003795Y015375D01*
X003340Y016009D02*
X039395Y016009D01*
X039395Y016167D02*
X003369Y016167D01*
X003414Y016326D02*
X039395Y016326D01*
X039395Y016484D02*
X003480Y016484D01*
X003557Y016643D02*
X039395Y016643D01*
X039395Y016801D02*
X003671Y016801D01*
X003813Y016960D02*
X039395Y016960D01*
X039395Y017118D02*
X003998Y017118D01*
X004296Y017277D02*
X039395Y017277D01*
X039395Y015850D02*
X001004Y015850D01*
X001267Y016009D02*
X002856Y016009D01*
X002350Y016167D02*
X001797Y016167D01*
X015596Y015692D02*
X016154Y015692D01*
X016218Y015755D02*
X015995Y015532D01*
X015995Y015218D01*
X016218Y014995D01*
X016532Y014995D01*
X016755Y015218D01*
X016755Y015532D01*
X016532Y015755D01*
X016218Y015755D01*
X015996Y015533D02*
X015754Y015533D01*
X015755Y015375D02*
X015995Y015375D01*
X015997Y015216D02*
X015753Y015216D01*
X015595Y015058D02*
X016155Y015058D01*
X016595Y015058D02*
X017489Y015058D01*
X017528Y015019D02*
X017682Y014955D01*
X017849Y014955D01*
X018004Y015019D01*
X018122Y015137D01*
X018186Y015291D01*
X018186Y015459D01*
X018122Y015613D01*
X018004Y015731D01*
X017849Y015795D01*
X017682Y015795D01*
X017528Y015731D01*
X017410Y015613D01*
X017346Y015459D01*
X017346Y015291D01*
X017410Y015137D01*
X017528Y015019D01*
X017377Y015216D02*
X016753Y015216D01*
X016755Y015375D02*
X017346Y015375D01*
X017377Y015533D02*
X016754Y015533D01*
X016596Y015692D02*
X017488Y015692D01*
X018043Y015692D02*
X019400Y015692D01*
X019383Y015675D02*
X019341Y015616D01*
X019308Y015552D01*
X019286Y015483D01*
X019274Y015411D01*
X019274Y015384D01*
X019726Y015384D01*
X019726Y015835D01*
X019698Y015835D01*
X019627Y015824D01*
X019558Y015801D01*
X019493Y015768D01*
X019435Y015726D01*
X019383Y015675D01*
X019302Y015533D02*
X018155Y015533D01*
X018186Y015375D02*
X019726Y015375D01*
X019726Y015384D02*
X019726Y015366D01*
X019743Y015366D01*
X019743Y014915D01*
X019770Y014915D01*
X019842Y014926D01*
X019911Y014949D01*
X019975Y014982D01*
X020034Y015024D01*
X020085Y015075D01*
X020128Y015134D01*
X020161Y015198D01*
X020183Y015267D01*
X020194Y015339D01*
X020194Y015366D01*
X019743Y015366D01*
X019743Y015384D01*
X019726Y015384D01*
X019743Y015384D02*
X019743Y015835D01*
X019770Y015835D01*
X019842Y015824D01*
X019911Y015801D01*
X019975Y015768D01*
X020034Y015726D01*
X020085Y015675D01*
X020128Y015616D01*
X020161Y015552D01*
X020183Y015483D01*
X020194Y015411D01*
X020194Y015384D01*
X019743Y015384D01*
X019743Y015375D02*
X020870Y015375D01*
X020870Y015532D02*
X020870Y015218D01*
X021093Y014995D01*
X021407Y014995D01*
X021630Y015218D01*
X021630Y015532D01*
X021407Y015755D01*
X021093Y015755D01*
X020870Y015532D01*
X020871Y015533D02*
X020167Y015533D01*
X020068Y015692D02*
X021029Y015692D01*
X021471Y015692D02*
X022029Y015692D01*
X022093Y015755D02*
X021870Y015532D01*
X021870Y015218D01*
X022093Y014995D01*
X022407Y014995D01*
X022630Y015218D01*
X022630Y015532D01*
X022407Y015755D01*
X022093Y015755D01*
X021871Y015533D02*
X021629Y015533D01*
X021630Y015375D02*
X021870Y015375D01*
X021872Y015216D02*
X021628Y015216D01*
X021470Y015058D02*
X022030Y015058D01*
X022470Y015058D02*
X023489Y015058D01*
X023528Y015019D02*
X023682Y014955D01*
X023849Y014955D01*
X024004Y015019D01*
X024122Y015137D01*
X024186Y015291D01*
X024186Y015459D01*
X024122Y015613D01*
X024004Y015731D01*
X023849Y015795D01*
X023682Y015795D01*
X023528Y015731D01*
X023410Y015613D01*
X023346Y015459D01*
X023346Y015291D01*
X023410Y015137D01*
X023528Y015019D01*
X023377Y015216D02*
X022628Y015216D01*
X022630Y015375D02*
X023346Y015375D01*
X023377Y015533D02*
X022629Y015533D01*
X022471Y015692D02*
X023488Y015692D01*
X024043Y015692D02*
X025400Y015692D01*
X025383Y015675D02*
X025341Y015616D01*
X025308Y015552D01*
X025286Y015483D01*
X025274Y015411D01*
X025274Y015384D01*
X025726Y015384D01*
X025726Y015835D01*
X025698Y015835D01*
X025627Y015824D01*
X025558Y015801D01*
X025493Y015768D01*
X025435Y015726D01*
X025383Y015675D01*
X025302Y015533D02*
X024155Y015533D01*
X024186Y015375D02*
X025726Y015375D01*
X025726Y015384D02*
X025726Y015366D01*
X025743Y015366D01*
X025743Y014915D01*
X025770Y014915D01*
X025842Y014926D01*
X025911Y014949D01*
X025975Y014982D01*
X026034Y015024D01*
X026085Y015075D01*
X026128Y015134D01*
X026161Y015198D01*
X026183Y015267D01*
X026194Y015339D01*
X026194Y015366D01*
X025743Y015366D01*
X025743Y015384D01*
X025726Y015384D01*
X025743Y015384D02*
X025743Y015835D01*
X025770Y015835D01*
X025842Y015824D01*
X025911Y015801D01*
X025975Y015768D01*
X026034Y015726D01*
X026085Y015675D01*
X026128Y015616D01*
X026161Y015552D01*
X026183Y015483D01*
X026194Y015411D01*
X026194Y015384D01*
X025743Y015384D01*
X025743Y015375D02*
X029346Y015375D01*
X029346Y015459D02*
X029346Y015291D01*
X029410Y015137D01*
X029528Y015019D01*
X029682Y014955D01*
X029849Y014955D01*
X030004Y015019D01*
X030122Y015137D01*
X030186Y015291D01*
X030186Y015459D01*
X030122Y015613D01*
X030004Y015731D01*
X029849Y015795D01*
X029682Y015795D01*
X029528Y015731D01*
X029410Y015613D01*
X029346Y015459D01*
X029377Y015533D02*
X026167Y015533D01*
X026068Y015692D02*
X029488Y015692D01*
X030043Y015692D02*
X031400Y015692D01*
X031383Y015675D02*
X031341Y015616D01*
X031308Y015552D01*
X031286Y015483D01*
X031274Y015411D01*
X031274Y015384D01*
X031726Y015384D01*
X031726Y015835D01*
X031698Y015835D01*
X031627Y015824D01*
X031558Y015801D01*
X031493Y015768D01*
X031435Y015726D01*
X031383Y015675D01*
X031302Y015533D02*
X030155Y015533D01*
X030186Y015375D02*
X031726Y015375D01*
X031726Y015384D02*
X031726Y015366D01*
X031743Y015366D01*
X031743Y014915D01*
X031770Y014915D01*
X031842Y014926D01*
X031911Y014949D01*
X031975Y014982D01*
X032034Y015024D01*
X032085Y015075D01*
X032128Y015134D01*
X032161Y015198D01*
X032183Y015267D01*
X032194Y015339D01*
X032194Y015366D01*
X031743Y015366D01*
X031743Y015384D01*
X031726Y015384D01*
X031743Y015384D02*
X031743Y015835D01*
X031770Y015835D01*
X031842Y015824D01*
X031911Y015801D01*
X031975Y015768D01*
X032034Y015726D01*
X032085Y015675D01*
X032128Y015616D01*
X032161Y015552D01*
X032183Y015483D01*
X032194Y015411D01*
X032194Y015384D01*
X031743Y015384D01*
X031743Y015375D02*
X032705Y015375D01*
X033125Y015375D01*
X033545Y015375D01*
X033545Y015549D01*
X033299Y015795D01*
X033125Y015795D01*
X033125Y015375D01*
X033125Y015375D01*
X033125Y015375D01*
X033545Y015375D01*
X033545Y015201D01*
X033299Y014955D01*
X033125Y014955D01*
X033125Y015375D01*
X033125Y015375D01*
X033125Y015375D01*
X033125Y015795D01*
X032951Y015795D01*
X032705Y015549D01*
X032705Y015375D01*
X032705Y015201D01*
X032951Y014955D01*
X033125Y014955D01*
X033125Y015375D01*
X032705Y015375D01*
X032705Y015533D02*
X032167Y015533D01*
X032068Y015692D02*
X032848Y015692D01*
X033125Y015692D02*
X033125Y015692D01*
X033125Y015533D02*
X033125Y015533D01*
X033125Y015375D02*
X033125Y015375D01*
X033125Y015216D02*
X033125Y015216D01*
X033125Y015058D02*
X033125Y015058D01*
X033401Y015058D02*
X033905Y015058D01*
X033968Y014995D02*
X034282Y014995D01*
X034505Y015218D01*
X034505Y015532D01*
X034282Y015755D01*
X033968Y015755D01*
X033745Y015532D01*
X033745Y015218D01*
X033968Y014995D01*
X033747Y015216D02*
X033545Y015216D01*
X033545Y015375D02*
X033745Y015375D01*
X033746Y015533D02*
X033545Y015533D01*
X033402Y015692D02*
X033904Y015692D01*
X034346Y015692D02*
X035488Y015692D01*
X035528Y015731D02*
X035410Y015613D01*
X035346Y015459D01*
X035346Y015291D01*
X035410Y015137D01*
X035528Y015019D01*
X035682Y014955D01*
X035849Y014955D01*
X036004Y015019D01*
X036122Y015137D01*
X036186Y015291D01*
X036186Y015459D01*
X036122Y015613D01*
X036004Y015731D01*
X035849Y015795D01*
X035682Y015795D01*
X035528Y015731D01*
X035377Y015533D02*
X034504Y015533D01*
X034505Y015375D02*
X035346Y015375D01*
X035377Y015216D02*
X034503Y015216D01*
X034345Y015058D02*
X035489Y015058D01*
X036042Y015058D02*
X037458Y015058D01*
X037496Y015019D02*
X037651Y014955D01*
X037818Y014955D01*
X037972Y015019D01*
X038090Y015137D01*
X038154Y015291D01*
X038154Y015459D01*
X038090Y015613D01*
X037972Y015731D01*
X037818Y015795D01*
X037651Y015795D01*
X037496Y015731D01*
X037378Y015613D01*
X037314Y015459D01*
X037314Y015291D01*
X037378Y015137D01*
X037496Y015019D01*
X037345Y015216D02*
X036155Y015216D01*
X036186Y015375D02*
X037314Y015375D01*
X037345Y015533D02*
X036155Y015533D01*
X036043Y015692D02*
X037457Y015692D01*
X038012Y015692D02*
X039395Y015692D01*
X039395Y015533D02*
X038123Y015533D01*
X038154Y015375D02*
X039395Y015375D01*
X039395Y015216D02*
X038123Y015216D01*
X038011Y015058D02*
X039395Y015058D01*
X032849Y015058D02*
X032067Y015058D01*
X032166Y015216D02*
X032705Y015216D01*
X031743Y015216D02*
X031726Y015216D01*
X031726Y015366D02*
X031726Y014915D01*
X031698Y014915D01*
X031627Y014926D01*
X031558Y014949D01*
X031493Y014982D01*
X031435Y015024D01*
X031383Y015075D01*
X031341Y015134D01*
X031308Y015198D01*
X031286Y015267D01*
X031274Y015339D01*
X031274Y015366D01*
X031726Y015366D01*
X031726Y015533D02*
X031743Y015533D01*
X031726Y015692D02*
X031743Y015692D01*
X031302Y015216D02*
X030155Y015216D01*
X030042Y015058D02*
X031401Y015058D01*
X031726Y015058D02*
X031743Y015058D01*
X029489Y015058D02*
X026067Y015058D01*
X026166Y015216D02*
X029377Y015216D01*
X025743Y015216D02*
X025726Y015216D01*
X025726Y015366D02*
X025726Y014915D01*
X025698Y014915D01*
X025627Y014926D01*
X025558Y014949D01*
X025493Y014982D01*
X025435Y015024D01*
X025383Y015075D01*
X025341Y015134D01*
X025308Y015198D01*
X025286Y015267D01*
X025274Y015339D01*
X025274Y015366D01*
X025726Y015366D01*
X025726Y015533D02*
X025743Y015533D01*
X025726Y015692D02*
X025743Y015692D01*
X025302Y015216D02*
X024155Y015216D01*
X024042Y015058D02*
X025401Y015058D01*
X025726Y015058D02*
X025743Y015058D01*
X028726Y012997D02*
X028743Y012997D01*
X028726Y012839D02*
X028743Y012839D01*
X031501Y012839D02*
X032458Y012839D01*
X032364Y012997D02*
X031630Y012997D01*
X029716Y011254D02*
X029340Y011254D01*
X029420Y011095D02*
X029620Y011095D01*
X029620Y010937D02*
X029420Y010937D01*
X029372Y010778D02*
X029685Y010778D01*
X021030Y015058D02*
X020067Y015058D01*
X020166Y015216D02*
X020872Y015216D01*
X019743Y015216D02*
X019726Y015216D01*
X019726Y015366D02*
X019726Y014915D01*
X019698Y014915D01*
X019627Y014926D01*
X019558Y014949D01*
X019493Y014982D01*
X019435Y015024D01*
X019383Y015075D01*
X019341Y015134D01*
X019308Y015198D01*
X019286Y015267D01*
X019274Y015339D01*
X019274Y015366D01*
X019726Y015366D01*
X019726Y015533D02*
X019743Y015533D01*
X019726Y015692D02*
X019743Y015692D01*
X019302Y015216D02*
X018155Y015216D01*
X018042Y015058D02*
X019401Y015058D01*
X019726Y015058D02*
X019743Y015058D01*
D19*
X023720Y003650D02*
X024700Y003650D01*
X025050Y003300D01*
X025959Y003300D01*
X026241Y003018D01*
X026241Y001884D01*
X026750Y001375D01*
X027975Y001375D01*
X028200Y001600D01*
X028550Y001600D01*
X029261Y002311D01*
X032442Y002311D01*
X033203Y001550D01*
X033966Y001550D01*
X034136Y001330D01*
X034136Y000614D01*
X034300Y000400D01*
X036305Y000400D01*
X036562Y000708D01*
X025750Y002125D02*
X025250Y001625D01*
X025175Y001550D01*
X024250Y001550D01*
X024150Y001650D01*
X022900Y001650D01*
X022875Y001625D01*
X022625Y001375D01*
X022625Y001213D01*
X022537Y001125D01*
X022419Y002350D02*
X020150Y002350D01*
X019400Y001600D01*
X019250Y001600D01*
X019025Y001375D01*
X017750Y001375D01*
X016750Y002100D02*
X016750Y002125D01*
X016750Y002100D02*
X016150Y001500D01*
X015350Y001500D01*
X015250Y001600D01*
X013700Y001600D01*
X013537Y001437D01*
X013537Y001125D01*
X022419Y002350D02*
X023720Y003650D01*
D20*
X021875Y004500D03*
X021875Y005250D03*
X021875Y006125D03*
X019750Y005125D03*
X017250Y005500D03*
X015750Y005375D03*
X017250Y004625D03*
X015625Y004500D03*
X016625Y003250D03*
X014000Y002125D03*
X012500Y001750D03*
X012500Y002875D03*
X015875Y001000D03*
X017375Y000500D03*
X021375Y001625D03*
X022875Y002000D03*
X021500Y002875D03*
X025000Y001000D03*
X026250Y000500D03*
X030375Y001625D03*
X031725Y002000D03*
X032500Y001750D03*
X033750Y001000D03*
X036562Y000708D03*
X037500Y000500D03*
X039125Y002125D03*
X036875Y004000D03*
X035125Y004500D03*
X033875Y004500D03*
X030875Y004625D03*
X030875Y005375D03*
X030875Y006250D03*
X032050Y007700D03*
X033850Y007700D03*
X036250Y007700D03*
X037000Y008250D03*
X037350Y007700D03*
X037000Y007125D03*
X037625Y006500D03*
X037000Y005875D03*
X037625Y009000D03*
X037000Y009750D03*
X039000Y010000D03*
X037250Y011500D03*
X037875Y012125D03*
X039000Y012000D03*
X037875Y013125D03*
X039000Y013625D03*
X037250Y013875D03*
X039000Y015000D03*
X039000Y016375D03*
X037750Y017250D03*
X034375Y017250D03*
X033125Y016000D03*
X031750Y016000D03*
X031000Y015375D03*
X031750Y014625D03*
X033125Y014750D03*
X032500Y015375D03*
X031625Y017250D03*
X028125Y017250D03*
X025750Y016125D03*
X026375Y015375D03*
X025000Y015375D03*
X025750Y014625D03*
X028750Y014125D03*
X029625Y013125D03*
X028750Y012500D03*
X029000Y011625D03*
X028000Y011625D03*
X027000Y011625D03*
X025625Y011625D03*
X024625Y011625D03*
X023750Y012000D03*
X020000Y011625D03*
X019000Y011625D03*
X018000Y011750D03*
X017250Y011000D03*
X014000Y011875D03*
X011625Y011750D03*
X011000Y012125D03*
X009500Y011500D03*
X012875Y010625D03*
X011750Y013125D03*
X010250Y013125D03*
X011000Y014125D03*
X010625Y014625D03*
X011375Y015375D03*
X012000Y014750D03*
X012750Y015375D03*
X012000Y016125D03*
X010625Y016125D03*
X010000Y017250D03*
X012750Y017250D03*
X015625Y017250D03*
X018250Y017250D03*
X019750Y016125D03*
X019000Y015375D03*
X019750Y014625D03*
X020500Y015375D03*
X022750Y013875D03*
X015875Y013125D03*
X021625Y017250D03*
X024375Y017250D03*
X031500Y011625D03*
X030750Y011000D03*
X032500Y011625D03*
X033500Y011625D03*
X029350Y007700D03*
X026650Y007700D03*
X024850Y007700D03*
X023550Y007700D03*
X022150Y007700D03*
X020050Y007700D03*
X017750Y007700D03*
X015650Y007700D03*
X013550Y007700D03*
X012450Y007700D03*
X011250Y007700D03*
X010150Y007700D03*
X008850Y007700D03*
X007550Y007700D03*
X006150Y007700D03*
X004750Y007700D03*
X003550Y007700D03*
X000625Y008000D03*
X000625Y006750D03*
X000750Y005250D03*
X000750Y003000D03*
X005250Y002125D03*
X007750Y002125D03*
X006750Y000625D03*
X004750Y000625D03*
X002500Y000750D03*
X009000Y000625D03*
X010625Y004875D03*
X012500Y005000D03*
X007125Y004875D03*
X005500Y004750D03*
X000625Y010750D03*
X003500Y012875D03*
X002875Y013500D03*
X000625Y013125D03*
X000625Y015250D03*
X002250Y015875D03*
X003875Y016375D03*
X004875Y017125D03*
X007125Y017250D03*
X026250Y006250D03*
X026250Y005375D03*
X026250Y004625D03*
X024625Y005000D03*
X029250Y003375D03*
X032600Y002750D03*
D21*
X003750Y003094D02*
X003746Y003090D01*
X003750Y003094D02*
X003750Y006250D01*
X002625Y006250D01*
X002250Y006625D01*
X002250Y009750D01*
M02*
