%
M48
M72
T01C0.0150
T02C0.0276
T03C0.0320
T04C0.0350
T05C0.0400
T06C0.0433
T07C0.0512
%
T01
X708Y1407
X1053Y2638
X2470Y1309
X1584Y521
X3514Y600
X4656Y1348
X4663Y3360
X6615Y1276
X7469Y554
X8191Y1227
X11243Y964
X12005Y383
X12720Y1013
X14874Y482
X17413Y636
X18529Y2474
X19284Y2668
X18955Y669
X18004Y6508
X17335Y7316
X16646Y6567
X17412Y9328
X16199Y10811
X16199Y13487
X18437Y11012
X18125Y17033
X17452Y18559
X17206Y19183
X15870Y20117
X15204Y18297
X14466Y18280
X11923Y17099
X10528Y17525
X10381Y19855
X11972Y19855
X12031Y22054
X12014Y24138
X11949Y25106
X12851Y26107
X14328Y24122
X14361Y23268
X17331Y25402
X17692Y26058
X18102Y24647
X18463Y20741
X16993Y17000
X12145Y14373
X11932Y12108
X10422Y9810
X9077Y10811
X8987Y9659
X7190Y10795
X6287Y13060
X5171Y13290
X5286Y10844
X5040Y8711
X2858Y11927
X1135Y12108
X1168Y10664
X1233Y15243
X2095Y16968
X2817Y17886
X3933Y18740
X5237Y20921
X6337Y22398
X7157Y20823
X6181Y18953
X6312Y17854
X6328Y16738
X7378Y17050
X9963Y14931
X5450Y24548
X6894Y26846
X6394Y29305
X4376Y29371
X3941Y27535
X2119Y26747
X509Y25936
X1291Y29453
X635Y22004
X1709Y21775
X1709Y20642
X668Y20610
X9052Y29026
X10045Y25123
T02
X5500Y25150
X5500Y25910
X5500Y26670
X5500Y27430
X5500Y28189
X4500Y27809
X4500Y27050
X4500Y26290
X4500Y25530
X4500Y24770
X5500Y24010
X4500Y23250
X5500Y22491
X4500Y21731
X4500Y18794
X4500Y18034
X4500Y17275
X4500Y16515
X4500Y15755
X4500Y14995
X5500Y15375
X5500Y16135
X5500Y16895
X5500Y17655
X5500Y18414
X5500Y14235
X4500Y13475
X5500Y12716
X4500Y11956
X4500Y9419
X4500Y8659
X4500Y7900
X4500Y7140
X4500Y6380
X4500Y5620
X5500Y6000
X5500Y6760
X5500Y7520
X5500Y8280
X5500Y9039
X5500Y4860
X4500Y4100
X5500Y3341
X4500Y2581
X4500Y28569
T03
X3375Y28900
X3375Y27900
X3375Y26900
X3375Y26025
X3375Y25150
X2375Y25150
X2375Y26025
X1375Y26025
X1375Y26900
X2375Y27900
X2375Y28900
X1375Y24025
X1600Y23025
X1750Y22275
X2375Y23150
X3375Y23150
X3750Y22275
X3450Y20650
X2450Y20650
X2500Y19250
X2500Y18250
X3375Y18250
X3375Y19250
X3375Y17250
X3375Y16375
X3375Y15625
X2375Y15625
X2375Y16375
X1375Y16375
X1375Y17250
X1375Y14375
X1625Y13500
X1875Y12750
X2375Y13625
X3375Y13625
X3875Y12750
X3500Y11125
X2500Y11125
X2625Y9625
X2625Y8625
X3500Y8625
X3500Y9625
X3500Y7750
X3500Y6875
X3500Y6125
X2500Y6125
X2500Y6875
X1500Y7000
X1500Y7750
X1500Y5000
X1625Y4125
X1875Y3250
X2500Y4125
X3500Y4125
X3875Y3250
X6625Y3750
X7375Y4625
X6875Y5500
X7875Y6625
X7875Y7625
X6875Y8750
X6875Y9625
X7875Y9625
X7875Y10875
X7375Y12000
X8375Y12000
X9750Y12000
X9875Y10875
X10750Y11875
X10750Y12875
X10750Y14000
X10750Y15000
X10750Y16375
X11375Y17500
X11375Y18500
X11175Y19850
X11175Y20850
X10750Y22025
X10750Y23025
X10750Y24025
X10750Y25025
X10775Y26325
X9775Y26325
X9850Y27250
X9000Y28275
X8250Y29150
X7250Y29150
X7000Y28275
X8000Y27075
X8000Y26075
X7000Y24900
X7375Y24025
X8375Y24025
X9000Y24900
X9625Y24150
X9625Y22150
X9800Y20800
X9875Y19250
X9000Y18125
X8125Y17000
X8125Y16000
X9000Y14750
X8375Y13875
X7375Y13875
X7000Y14750
X7000Y18125
X7000Y19125
X8000Y19125
X7800Y20800
X7425Y22250
X8425Y22250
X9875Y17250
X9750Y16375
X9750Y14000
X11250Y10875
X11250Y9875
X11750Y8625
X11750Y7625
X11375Y6250
X12125Y5625
X12125Y4625
X12125Y3625
X11125Y3625
X10250Y3125
X10231Y2432
X10231Y432
X12000Y1000
X12000Y2000
X10250Y5125
X10375Y6250
X10000Y7125
X8875Y5500
X8375Y4625
X7625Y3750
X7500Y2250
X7500Y1250
X8875Y8750
X10000Y9125
X17000Y5500
X18000Y5500
X18000Y4500
X18000Y2500
X18000Y11375
X18000Y13375
X18000Y14500
X17000Y14500
X17975Y21050
X17975Y23050
X17950Y24100
X16950Y24100
X11600Y27500
X11600Y28500
X9850Y29250
X600Y23025
X625Y13500
X625Y4125
T04
X625Y2125
X1625Y2125
X2625Y2125
X3625Y2125
T05
X15375Y11500
X15375Y13500
X15375Y15375
X15375Y17375
X15525Y21050
X15525Y23050
X15525Y24950
X15525Y26950
X15500Y8125
X15500Y6125
X15500Y4125
X15500Y2125
T06
X13625Y2000
X13625Y3000
X13625Y4000
X13625Y5000
X13625Y6000
X13625Y7000
X13625Y8000
X13625Y9000
X13625Y10000
X13625Y11250
X13625Y12250
X13625Y13250
X13625Y14250
X13625Y15250
X13625Y16250
X13625Y17250
X13625Y18250
X13625Y19250
X13625Y20500
X13625Y21500
X13625Y22500
X13625Y23500
X13625Y24500
X13625Y25500
X13625Y26500
X13625Y27500
X13625Y28500
T07
X18143Y28195
X18143Y29573
X18143Y26817
X18143Y25439
X18010Y20159
X18010Y19159
X18135Y10284
X18135Y9284
X18260Y1659
X18260Y659
M30
