G75*
%MOIN*%
%OFA0B0*%
%FSLAX25Y25*%
%IPPOS*%
%LPD*%
%AMOC8*
5,1,8,0,0,1.08239X$1,22.5*
%
%ADD10OC8,0.04800*%
%ADD11OC8,0.06000*%
%ADD12OC8,0.05400*%
%ADD13C,0.05906*%
%ADD14C,0.06600*%
%ADD15C,0.07087*%
%ADD16C,0.12992*%
%ADD17C,0.20000*%
%ADD18C,0.11811*%
%ADD19C,0.05000*%
%ADD20C,0.07874*%
%ADD21OC8,0.06300*%
%ADD22C,0.06300*%
%ADD23C,0.09449*%
%ADD24C,0.15748*%
%ADD25C,0.09449*%
%ADD26OC8,0.12400*%
%ADD27C,0.12400*%
%ADD28OC8,0.06496*%
%ADD29C,0.01600*%
%ADD30C,0.06000*%
%ADD31C,0.05000*%
%ADD32C,0.06000*%
%ADD33C,0.20000*%
%ADD34C,0.15000*%
%ADD35C,0.10000*%
%ADD36C,0.03000*%
%ADD37C,0.07000*%
%ADD38C,0.25000*%
%ADD39C,0.01000*%
%ADD40C,0.12000*%
%ADD41C,0.02000*%
%ADD42R,0.03962X0.03962*%
D10*
X0224727Y0106294D03*
X0224727Y0116294D03*
X0238685Y0117315D03*
X0238685Y0127315D03*
X0236942Y0141046D03*
X0246942Y0141046D03*
X0330309Y0071159D03*
X0340309Y0081159D03*
X0350309Y0071159D03*
X0498593Y0070893D03*
X0508593Y0080893D03*
X0518593Y0070893D03*
X0531257Y0087467D03*
X0541257Y0087467D03*
X0558431Y0088353D03*
X0568431Y0088353D03*
X0594278Y0099110D03*
X0604278Y0099110D03*
X0604200Y0189550D03*
X0604200Y0249550D03*
X0371370Y0279460D03*
X0361370Y0279460D03*
X0360910Y0267384D03*
X0360910Y0257384D03*
X0330167Y0256614D03*
X0320167Y0256614D03*
X0321213Y0271010D03*
X0331213Y0271010D03*
X0329266Y0285166D03*
X0319266Y0285166D03*
X0300709Y0246243D03*
X0290709Y0246243D03*
X0352752Y0330634D03*
X0352752Y0340634D03*
X0328250Y0356750D03*
X0328250Y0376750D03*
X0346000Y0377500D03*
X0356000Y0377500D03*
X0323000Y0412250D03*
X0323000Y0422250D03*
X0375500Y0434000D03*
X0385500Y0434000D03*
X0508000Y0484250D03*
X0518000Y0484250D03*
X0533100Y0443400D03*
X0543100Y0443400D03*
D11*
X0391000Y0466000D03*
X0391000Y0486000D03*
X0361000Y0486000D03*
X0361000Y0466000D03*
X0287750Y0429000D03*
X0287750Y0409000D03*
X0329289Y0342593D03*
X0329289Y0302593D03*
X0194716Y0300734D03*
X0181353Y0329692D03*
X0181353Y0349692D03*
X0153178Y0349663D03*
X0153178Y0329663D03*
X0125921Y0329194D03*
X0125921Y0349194D03*
X0154716Y0300734D03*
X0154844Y0255322D03*
X0137318Y0255392D03*
X0097318Y0255392D03*
X0063569Y0197917D03*
X0095515Y0162730D03*
X0063569Y0157917D03*
X0135515Y0162730D03*
X0162629Y0160142D03*
X0153343Y0188685D03*
X0193343Y0188685D03*
X0202629Y0160142D03*
X0194844Y0255322D03*
X0543027Y0169150D03*
X0565457Y0163216D03*
X0605457Y0163216D03*
X0543027Y0129150D03*
D12*
X0195478Y0372516D03*
X0165478Y0372516D03*
X0063747Y0262766D03*
X0063747Y0212766D03*
X0092341Y0188354D03*
X0142341Y0188354D03*
D13*
X0249452Y0126741D03*
X0249452Y0116741D03*
X0272361Y0114317D03*
X0282361Y0114317D03*
X0542634Y0187595D03*
X0542634Y0197595D03*
X0553331Y0200922D03*
X0563331Y0200922D03*
X0573217Y0198044D03*
X0573217Y0188044D03*
X0562873Y0186939D03*
X0552873Y0186939D03*
X0574904Y0116733D03*
X0574904Y0106733D03*
X0581103Y0098536D03*
X0581103Y0088536D03*
X0355965Y0318725D03*
X0345965Y0318725D03*
X0351437Y0433750D03*
X0361437Y0433750D03*
X0376063Y0446250D03*
X0386063Y0446250D03*
X0507563Y0494750D03*
X0517563Y0494750D03*
D14*
X0368590Y0347045D02*
X0368590Y0340445D01*
X0368590Y0297045D02*
X0368590Y0290445D01*
X0344931Y0286241D02*
X0344931Y0279641D01*
X0344931Y0236241D02*
X0344931Y0229641D01*
D15*
X0279259Y0267205D03*
X0239259Y0267205D03*
D16*
X0224259Y0317205D03*
X0294259Y0327205D03*
D17*
X0131000Y0301435D03*
X0101000Y0301435D03*
X0048500Y0301435D03*
X0018500Y0301435D03*
D18*
X0018874Y0345323D03*
X0018874Y0377803D03*
X0018874Y0410283D03*
X0018874Y0442764D03*
X0018874Y0475244D03*
X0281304Y0219412D03*
X0281304Y0195790D03*
X0327652Y0163499D03*
X0351274Y0163499D03*
X0402719Y0163479D03*
X0426341Y0163479D03*
X0474793Y0163513D03*
X0498415Y0163513D03*
X0192930Y0110722D03*
X0160450Y0110722D03*
X0127969Y0110722D03*
X0095489Y0110722D03*
X0063009Y0110722D03*
X0030528Y0110722D03*
D19*
X0336000Y0391750D03*
X0336000Y0401750D03*
X0336000Y0411750D03*
X0336000Y0421750D03*
X0366000Y0421750D03*
X0366000Y0411750D03*
X0366000Y0401750D03*
X0366000Y0391750D03*
D20*
X0251042Y0406254D03*
X0207734Y0406254D03*
X0150177Y0421220D03*
X0150177Y0448780D03*
X0180175Y0477120D03*
X0251042Y0477120D03*
X0067500Y0448780D03*
X0067500Y0421220D03*
D21*
X0311750Y0393250D03*
X0578802Y0136535D03*
X0592225Y0119099D03*
X0606851Y0137015D03*
X0603311Y0081763D03*
X0282628Y0100980D03*
X0255486Y0101969D03*
D22*
X0255486Y0091969D03*
X0282628Y0090980D03*
X0568802Y0136535D03*
X0596851Y0137015D03*
X0592225Y0109099D03*
X0593311Y0081763D03*
X0311750Y0403250D03*
D23*
X0437000Y0460026D02*
X0437000Y0469474D01*
X0459000Y0469474D02*
X0459000Y0460026D01*
X0481000Y0460026D02*
X0481000Y0469474D01*
X0559026Y0466000D02*
X0568474Y0466000D01*
X0568474Y0488000D02*
X0559026Y0488000D01*
X0559026Y0444000D02*
X0568474Y0444000D01*
D24*
X0589546Y0445964D03*
X0589546Y0485964D03*
X0479036Y0490546D03*
X0439036Y0490546D03*
X0255911Y0227601D03*
X0255911Y0187601D03*
X0319463Y0138105D03*
X0359463Y0138105D03*
X0394530Y0138085D03*
X0434530Y0138085D03*
X0466604Y0138119D03*
X0506604Y0138119D03*
D25*
X0516500Y0238000D03*
X0496500Y0238000D03*
X0476500Y0238000D03*
X0456500Y0238000D03*
X0436500Y0238000D03*
X0416500Y0238000D03*
X0396500Y0238000D03*
X0536500Y0238000D03*
X0556500Y0238000D03*
X0576500Y0238000D03*
X0576500Y0398000D03*
X0556500Y0398000D03*
X0536500Y0398000D03*
X0516500Y0398000D03*
X0496500Y0398000D03*
X0476500Y0398000D03*
X0456500Y0398000D03*
X0436500Y0398000D03*
X0416500Y0398000D03*
X0396500Y0398000D03*
D26*
X0313500Y0478250D03*
D27*
X0313500Y0448250D03*
D28*
X0027119Y0262918D03*
X0079871Y0222029D03*
X0027119Y0142918D03*
X0199871Y0222029D03*
D29*
X0221250Y0230700D02*
X0221250Y0270500D01*
X0219834Y0273918D01*
X0217218Y0276534D01*
X0213800Y0277950D01*
X0018609Y0277950D01*
X0015350Y0279300D01*
X0008403Y0279300D01*
X0008414Y0285550D01*
X0011243Y0283917D01*
X0016025Y0282635D01*
X0020975Y0282635D01*
X0025757Y0283917D01*
X0027868Y0285135D01*
X0039132Y0285135D01*
X0041243Y0283917D01*
X0046025Y0282635D01*
X0050975Y0282635D01*
X0055757Y0283917D01*
X0060043Y0286392D01*
X0063544Y0289892D01*
X0066019Y0294179D01*
X0067300Y0298960D01*
X0067300Y0303910D01*
X0066019Y0308692D01*
X0064800Y0310803D01*
X0064800Y0347469D01*
X0063689Y0351614D01*
X0061543Y0355331D01*
X0058508Y0358366D01*
X0054792Y0360512D01*
X0051093Y0361503D01*
X0084700Y0361503D01*
X0084700Y0311687D01*
X0084457Y0311444D01*
X0082311Y0307727D01*
X0081200Y0303581D01*
X0081200Y0299289D01*
X0082311Y0295144D01*
X0084457Y0291427D01*
X0085908Y0289976D01*
X0085956Y0289892D01*
X0089457Y0286392D01*
X0093743Y0283917D01*
X0098525Y0282635D01*
X0103475Y0282635D01*
X0108257Y0283917D01*
X0110368Y0285135D01*
X0121632Y0285135D01*
X0123743Y0283917D01*
X0128525Y0282635D01*
X0133475Y0282635D01*
X0138257Y0283917D01*
X0142543Y0286392D01*
X0146044Y0289892D01*
X0148519Y0294179D01*
X0149800Y0298960D01*
X0149800Y0303910D01*
X0148519Y0308692D01*
X0146044Y0312979D01*
X0142543Y0316479D01*
X0138257Y0318954D01*
X0133613Y0320198D01*
X0137721Y0324306D01*
X0137721Y0330863D01*
X0141378Y0330863D01*
X0141378Y0324775D01*
X0148290Y0317863D01*
X0158066Y0317863D01*
X0164978Y0324775D01*
X0164978Y0330863D01*
X0169553Y0330863D01*
X0169553Y0324804D01*
X0176465Y0317892D01*
X0186240Y0317892D01*
X0193153Y0324804D01*
X0193153Y0330892D01*
X0205459Y0330892D01*
X0205459Y0314730D01*
X0206740Y0309948D01*
X0209215Y0305662D01*
X0212715Y0302161D01*
X0217002Y0299686D01*
X0221784Y0298405D01*
X0226734Y0298405D01*
X0231515Y0299686D01*
X0235802Y0302161D01*
X0239302Y0305662D01*
X0241777Y0309948D01*
X0243059Y0314730D01*
X0243059Y0352167D01*
X0242643Y0353716D01*
X0250095Y0353716D01*
X0250155Y0353700D01*
X0252239Y0353700D01*
X0252239Y0323645D01*
X0253520Y0318864D01*
X0255995Y0314577D01*
X0259495Y0311077D01*
X0263782Y0308602D01*
X0268198Y0307418D01*
X0268111Y0307368D01*
X0253622Y0292879D01*
X0250479Y0291577D01*
X0248003Y0289102D01*
X0246664Y0285867D01*
X0246664Y0278404D01*
X0248003Y0275170D01*
X0250479Y0272694D01*
X0253713Y0271355D01*
X0261176Y0271355D01*
X0264411Y0272694D01*
X0266886Y0275170D01*
X0268188Y0278312D01*
X0278702Y0288826D01*
X0301908Y0288826D01*
X0304527Y0289528D01*
X0306876Y0290884D01*
X0308285Y0292293D01*
X0320554Y0292293D01*
X0318066Y0289805D01*
X0318066Y0289366D01*
X0317526Y0289366D01*
X0315066Y0286905D01*
X0315065Y0285166D01*
X0318066Y0285166D01*
X0318066Y0285166D01*
X0315065Y0285166D01*
X0315066Y0283426D01*
X0316428Y0282064D01*
X0310013Y0275649D01*
X0310013Y0266371D01*
X0316574Y0259810D01*
X0317423Y0259810D01*
X0315967Y0258354D01*
X0315967Y0256614D01*
X0315967Y0254875D01*
X0318427Y0252414D01*
X0318967Y0252414D01*
X0318967Y0251975D01*
X0325527Y0245414D01*
X0334806Y0245414D01*
X0341367Y0251975D01*
X0341367Y0261253D01*
X0339331Y0263289D01*
X0342413Y0266371D01*
X0342413Y0267644D01*
X0342527Y0267758D01*
X0343338Y0267541D01*
X0346524Y0267541D01*
X0349602Y0268365D01*
X0349710Y0268428D01*
X0349710Y0262745D01*
X0350071Y0262384D01*
X0349710Y0262023D01*
X0349710Y0252745D01*
X0356271Y0246184D01*
X0365549Y0246184D01*
X0372110Y0252745D01*
X0372110Y0262023D01*
X0371749Y0262384D01*
X0372110Y0262745D01*
X0372110Y0268260D01*
X0376009Y0268260D01*
X0382570Y0274821D01*
X0382570Y0284099D01*
X0380083Y0286586D01*
X0380690Y0288852D01*
X0380690Y0298638D01*
X0379865Y0301715D01*
X0378272Y0304474D01*
X0376019Y0306727D01*
X0374800Y0307431D01*
X0374800Y0331990D01*
X0374098Y0334610D01*
X0372742Y0336959D01*
X0372521Y0337179D01*
X0372952Y0337772D01*
X0373316Y0338487D01*
X0373564Y0339250D01*
X0373690Y0340043D01*
X0373690Y0343445D01*
X0368890Y0343445D01*
X0368890Y0344045D01*
X0368290Y0344045D01*
X0368290Y0352145D01*
X0368189Y0352145D01*
X0367396Y0352019D01*
X0366632Y0351771D01*
X0365917Y0351407D01*
X0365267Y0350935D01*
X0364700Y0350367D01*
X0364228Y0349718D01*
X0363864Y0349002D01*
X0363615Y0348239D01*
X0363490Y0347446D01*
X0363490Y0345736D01*
X0357392Y0351834D01*
X0348113Y0351834D01*
X0341552Y0345273D01*
X0341552Y0335995D01*
X0341913Y0335634D01*
X0341552Y0335273D01*
X0341552Y0325995D01*
X0344350Y0323197D01*
X0344141Y0323129D01*
X0343474Y0322790D01*
X0342869Y0322350D01*
X0342340Y0321821D01*
X0341900Y0321216D01*
X0341561Y0320549D01*
X0341329Y0319838D01*
X0341212Y0319099D01*
X0341212Y0318909D01*
X0344212Y0318909D01*
X0344212Y0318541D01*
X0341212Y0318541D01*
X0341212Y0318351D01*
X0341329Y0317612D01*
X0341561Y0316900D01*
X0341900Y0316234D01*
X0342340Y0315629D01*
X0342869Y0315100D01*
X0343474Y0314660D01*
X0344141Y0314320D01*
X0344852Y0314089D01*
X0345093Y0314051D01*
X0345200Y0313866D01*
X0339951Y0308618D01*
X0334176Y0314393D01*
X0324401Y0314393D01*
X0322901Y0312893D01*
X0307618Y0312893D01*
X0309302Y0314577D01*
X0309771Y0315389D01*
X0310044Y0315662D01*
X0312519Y0319948D01*
X0313800Y0324730D01*
X0313800Y0329680D01*
X0312519Y0334462D01*
X0310044Y0338748D01*
X0306543Y0342249D01*
X0302257Y0344724D01*
X0297475Y0346005D01*
X0291784Y0346005D01*
X0289839Y0345484D01*
X0289839Y0374975D01*
X0288557Y0379757D01*
X0286082Y0384043D01*
X0282582Y0387544D01*
X0278295Y0390019D01*
X0273514Y0391300D01*
X0257741Y0391300D01*
X0261050Y0393211D01*
X0264085Y0396245D01*
X0266231Y0399962D01*
X0267342Y0404108D01*
X0267342Y0408400D01*
X0266231Y0412545D01*
X0264085Y0416262D01*
X0261050Y0419297D01*
X0257333Y0421443D01*
X0253187Y0422554D01*
X0240969Y0422554D01*
X0238858Y0423773D01*
X0234076Y0425054D01*
X0229126Y0425054D01*
X0224345Y0423773D01*
X0220058Y0421297D01*
X0216557Y0417797D01*
X0215696Y0416305D01*
X0215555Y0416446D01*
X0212651Y0418123D01*
X0209411Y0418991D01*
X0206058Y0418991D01*
X0202818Y0418123D01*
X0199914Y0416446D01*
X0197542Y0414074D01*
X0195865Y0411170D01*
X0194997Y0407931D01*
X0194997Y0404577D01*
X0195865Y0401337D01*
X0197542Y0398433D01*
X0199914Y0396062D01*
X0202818Y0394385D01*
X0206058Y0393517D01*
X0209411Y0393517D01*
X0212651Y0394385D01*
X0212801Y0394472D01*
X0212801Y0391316D01*
X0193003Y0391316D01*
X0188221Y0390035D01*
X0183934Y0387560D01*
X0180434Y0384060D01*
X0179035Y0381635D01*
X0178521Y0382525D01*
X0175486Y0385559D01*
X0171978Y0387585D01*
X0171978Y0423696D01*
X0170697Y0428477D01*
X0168222Y0432764D01*
X0164721Y0436264D01*
X0164422Y0436437D01*
X0165221Y0437236D01*
X0167696Y0441523D01*
X0168977Y0446304D01*
X0168977Y0451255D01*
X0168800Y0451916D01*
X0168800Y0458700D01*
X0176215Y0458700D01*
X0179891Y0458160D01*
X0184531Y0458700D01*
X0185916Y0458700D01*
X0186979Y0458985D01*
X0188073Y0459112D01*
X0189360Y0459623D01*
X0190697Y0459981D01*
X0191651Y0460532D01*
X0192674Y0460938D01*
X0193785Y0461764D01*
X0194984Y0462456D01*
X0195763Y0463235D01*
X0196646Y0463892D01*
X0197506Y0464977D01*
X0198485Y0465957D01*
X0199035Y0466910D01*
X0199718Y0467773D01*
X0200267Y0469044D01*
X0200960Y0470243D01*
X0201245Y0471307D01*
X0201681Y0472318D01*
X0201883Y0473688D01*
X0202241Y0475025D01*
X0202241Y0476126D01*
X0202401Y0477215D01*
X0202241Y0478591D01*
X0202241Y0479975D01*
X0201956Y0481038D01*
X0201829Y0482132D01*
X0201318Y0483419D01*
X0200960Y0484757D01*
X0200409Y0485710D01*
X0200003Y0486733D01*
X0199177Y0487844D01*
X0198485Y0489043D01*
X0197706Y0489822D01*
X0197049Y0490705D01*
X0196424Y0491200D01*
X0422362Y0491200D01*
X0422362Y0488350D01*
X0423498Y0484110D01*
X0425694Y0480307D01*
X0427200Y0478801D01*
X0426178Y0477779D01*
X0424397Y0474695D01*
X0423476Y0471255D01*
X0423476Y0467206D01*
X0413819Y0457550D01*
X0399238Y0457550D01*
X0402800Y0461112D01*
X0402800Y0470888D01*
X0395888Y0477800D01*
X0386112Y0477800D01*
X0379200Y0470888D01*
X0379200Y0461112D01*
X0382776Y0457537D01*
X0381527Y0457202D01*
X0381063Y0456934D01*
X0380599Y0457202D01*
X0377610Y0458003D01*
X0374516Y0458003D01*
X0371527Y0457202D01*
X0368847Y0455655D01*
X0366658Y0453466D01*
X0365111Y0450786D01*
X0364310Y0447797D01*
X0364310Y0447586D01*
X0364200Y0447175D01*
X0364200Y0445177D01*
X0362984Y0445503D01*
X0359890Y0445503D01*
X0356901Y0444702D01*
X0356437Y0444434D01*
X0355973Y0444702D01*
X0352984Y0445503D01*
X0349890Y0445503D01*
X0348200Y0445050D01*
X0338262Y0445050D01*
X0335388Y0444280D01*
X0332812Y0442792D01*
X0331319Y0441300D01*
X0326808Y0441300D01*
X0327478Y0442460D01*
X0328500Y0446275D01*
X0328500Y0450225D01*
X0327478Y0454040D01*
X0325503Y0457460D01*
X0322710Y0460253D01*
X0319290Y0462228D01*
X0315475Y0463250D01*
X0311525Y0463250D01*
X0307710Y0462228D01*
X0304290Y0460253D01*
X0301497Y0457460D01*
X0299522Y0454040D01*
X0298500Y0450225D01*
X0298500Y0446275D01*
X0299522Y0442460D01*
X0301497Y0439040D01*
X0302903Y0437634D01*
X0302208Y0436938D01*
X0300720Y0434362D01*
X0299950Y0431488D01*
X0299950Y0420300D01*
X0295738Y0420300D01*
X0299550Y0424112D01*
X0299550Y0433888D01*
X0292638Y0440800D01*
X0282862Y0440800D01*
X0275950Y0433888D01*
X0275950Y0424112D01*
X0281062Y0419000D01*
X0275950Y0413888D01*
X0275950Y0404112D01*
X0282862Y0397200D01*
X0292638Y0397200D01*
X0293138Y0397700D01*
X0301156Y0397700D01*
X0302188Y0395913D01*
X0304413Y0393688D01*
X0306800Y0392309D01*
X0306800Y0391200D01*
X0309700Y0388300D01*
X0311750Y0388300D01*
X0313800Y0388300D01*
X0316700Y0391200D01*
X0316700Y0392309D01*
X0319087Y0393688D01*
X0321312Y0395913D01*
X0322886Y0398637D01*
X0322938Y0398832D01*
X0329062Y0392708D01*
X0330752Y0391732D01*
X0329069Y0390050D01*
X0328762Y0390050D01*
X0325888Y0389280D01*
X0323312Y0387792D01*
X0319208Y0383688D01*
X0319015Y0383354D01*
X0317050Y0381389D01*
X0317050Y0378611D01*
X0316950Y0378238D01*
X0316950Y0375262D01*
X0317050Y0374889D01*
X0317050Y0372111D01*
X0318183Y0370977D01*
X0317950Y0370106D01*
X0317950Y0362289D01*
X0317050Y0361389D01*
X0317050Y0352111D01*
X0323611Y0345550D01*
X0325457Y0345550D01*
X0324489Y0344581D01*
X0324489Y0342793D01*
X0329088Y0342793D01*
X0329088Y0342393D01*
X0324489Y0342393D01*
X0324489Y0340605D01*
X0327300Y0337793D01*
X0329089Y0337793D01*
X0329089Y0342393D01*
X0329489Y0342393D01*
X0329489Y0342793D01*
X0334089Y0342793D01*
X0334089Y0344581D01*
X0333005Y0345665D01*
X0339450Y0352111D01*
X0339450Y0361389D01*
X0338550Y0362289D01*
X0338550Y0362300D01*
X0363156Y0362300D01*
X0365776Y0363002D01*
X0368124Y0364358D01*
X0381624Y0377858D01*
X0383542Y0379776D01*
X0384898Y0382124D01*
X0385600Y0384744D01*
X0385600Y0387950D01*
X0387034Y0387950D01*
X0388027Y0386957D01*
X0391173Y0385140D01*
X0394683Y0384200D01*
X0443713Y0384200D01*
X0444957Y0382956D01*
X0449243Y0380481D01*
X0454025Y0379200D01*
X0458975Y0379200D01*
X0463757Y0380481D01*
X0468043Y0382956D01*
X0469287Y0384200D01*
X0478317Y0384200D01*
X0481827Y0385140D01*
X0484973Y0386957D01*
X0486695Y0388679D01*
X0488196Y0387178D01*
X0491280Y0385397D01*
X0494719Y0384476D01*
X0498281Y0384476D01*
X0501720Y0385397D01*
X0503977Y0386700D01*
X0508156Y0386700D01*
X0508487Y0386509D01*
X0509078Y0386350D01*
X0511173Y0385140D01*
X0514683Y0384200D01*
X0518317Y0384200D01*
X0521827Y0385140D01*
X0524528Y0386700D01*
X0529023Y0386700D01*
X0531280Y0385397D01*
X0534719Y0384476D01*
X0538281Y0384476D01*
X0541720Y0385397D01*
X0543977Y0386700D01*
X0549023Y0386700D01*
X0551280Y0385397D01*
X0554719Y0384476D01*
X0558281Y0384476D01*
X0561720Y0385397D01*
X0563977Y0386700D01*
X0569023Y0386700D01*
X0571280Y0385397D01*
X0574719Y0384476D01*
X0578281Y0384476D01*
X0581720Y0385397D01*
X0584804Y0387178D01*
X0587322Y0389696D01*
X0589103Y0392780D01*
X0590024Y0396219D01*
X0590024Y0399781D01*
X0589103Y0403220D01*
X0587322Y0406304D01*
X0584804Y0408822D01*
X0581720Y0410603D01*
X0578281Y0411524D01*
X0574719Y0411524D01*
X0571280Y0410603D01*
X0569023Y0409300D01*
X0563977Y0409300D01*
X0561720Y0410603D01*
X0558281Y0411524D01*
X0554719Y0411524D01*
X0551280Y0410603D01*
X0549023Y0409300D01*
X0543977Y0409300D01*
X0541720Y0410603D01*
X0538281Y0411524D01*
X0534719Y0411524D01*
X0531280Y0410603D01*
X0529150Y0409373D01*
X0529150Y0423170D01*
X0534580Y0428600D01*
X0535048Y0428600D01*
X0538813Y0429609D01*
X0542187Y0431557D01*
X0544943Y0434313D01*
X0546891Y0437687D01*
X0547900Y0441452D01*
X0547900Y0445348D01*
X0547404Y0447200D01*
X0553339Y0447200D01*
X0553161Y0446892D01*
X0552834Y0446102D01*
X0552613Y0445276D01*
X0552547Y0444775D01*
X0562975Y0444775D01*
X0562975Y0443225D01*
X0564525Y0443225D01*
X0564525Y0437476D01*
X0568902Y0437476D01*
X0569750Y0437587D01*
X0570576Y0437809D01*
X0571366Y0438136D01*
X0572107Y0438564D01*
X0572785Y0439084D01*
X0573390Y0439689D01*
X0573816Y0440244D01*
X0574008Y0439528D01*
X0576203Y0435726D01*
X0579307Y0432621D01*
X0583110Y0430426D01*
X0587350Y0429290D01*
X0591741Y0429290D01*
X0595981Y0430426D01*
X0599784Y0432621D01*
X0602888Y0435726D01*
X0605083Y0439528D01*
X0606220Y0443769D01*
X0606220Y0448159D01*
X0605083Y0452400D01*
X0602888Y0456202D01*
X0599784Y0459306D01*
X0595981Y0461502D01*
X0591741Y0462638D01*
X0587350Y0462638D01*
X0583110Y0461502D01*
X0581806Y0460749D01*
X0582550Y0463525D01*
X0582550Y0468475D01*
X0581829Y0471166D01*
X0583110Y0470426D01*
X0587350Y0469290D01*
X0591741Y0469290D01*
X0595981Y0470426D01*
X0599784Y0472621D01*
X0602888Y0475726D01*
X0605083Y0479528D01*
X0606220Y0483769D01*
X0606220Y0488159D01*
X0605405Y0491200D01*
X0616184Y0491200D01*
X0615696Y0220000D01*
X0575631Y0220000D01*
X0575631Y0224476D01*
X0578281Y0224476D01*
X0581720Y0225397D01*
X0584804Y0227178D01*
X0587322Y0229696D01*
X0589103Y0232780D01*
X0590024Y0236219D01*
X0590024Y0239781D01*
X0589103Y0243220D01*
X0587322Y0246304D01*
X0584804Y0248822D01*
X0581720Y0250603D01*
X0578281Y0251524D01*
X0574719Y0251524D01*
X0571280Y0250603D01*
X0570755Y0250300D01*
X0562245Y0250300D01*
X0561720Y0250603D01*
X0558281Y0251524D01*
X0557800Y0251524D01*
X0557800Y0297804D01*
X0556348Y0303221D01*
X0553544Y0308078D01*
X0549578Y0312044D01*
X0544721Y0314848D01*
X0539304Y0316300D01*
X0433446Y0316300D01*
X0428028Y0314848D01*
X0423171Y0312044D01*
X0419206Y0308078D01*
X0416402Y0303221D01*
X0414950Y0297804D01*
X0414950Y0292196D01*
X0416402Y0286778D01*
X0419206Y0281921D01*
X0419950Y0281177D01*
X0419950Y0251362D01*
X0418317Y0251800D01*
X0409287Y0251800D01*
X0408043Y0253044D01*
X0403757Y0255519D01*
X0398975Y0256800D01*
X0394025Y0256800D01*
X0389243Y0255519D01*
X0384957Y0253044D01*
X0381456Y0249543D01*
X0378981Y0245257D01*
X0377700Y0240475D01*
X0377700Y0220000D01*
X0358113Y0220000D01*
X0355085Y0223028D01*
X0356207Y0224970D01*
X0357031Y0228048D01*
X0357031Y0237834D01*
X0356207Y0240911D01*
X0354614Y0243670D01*
X0352361Y0245923D01*
X0349602Y0247516D01*
X0346524Y0248341D01*
X0343338Y0248341D01*
X0340261Y0247516D01*
X0337502Y0245923D01*
X0335249Y0243670D01*
X0333656Y0240911D01*
X0332933Y0238212D01*
X0308517Y0238212D01*
X0311909Y0241604D01*
X0311909Y0250882D01*
X0305348Y0257443D01*
X0296069Y0257443D01*
X0295709Y0257082D01*
X0295348Y0257443D01*
X0286953Y0257443D01*
X0289136Y0259626D01*
X0290761Y0262441D01*
X0291602Y0265580D01*
X0291602Y0268830D01*
X0290761Y0271969D01*
X0289136Y0274784D01*
X0286838Y0277082D01*
X0284023Y0278707D01*
X0280884Y0279548D01*
X0277634Y0279548D01*
X0274494Y0278707D01*
X0271680Y0277082D01*
X0269382Y0274784D01*
X0267757Y0271969D01*
X0266915Y0268830D01*
X0266915Y0265580D01*
X0267757Y0262441D01*
X0269382Y0259626D01*
X0271680Y0257328D01*
X0274494Y0255703D01*
X0277634Y0254862D01*
X0280884Y0254862D01*
X0284023Y0255703D01*
X0284748Y0256121D01*
X0279509Y0250882D01*
X0279509Y0241604D01*
X0282901Y0238212D01*
X0278829Y0238212D01*
X0274048Y0236931D01*
X0270845Y0235082D01*
X0269253Y0237839D01*
X0266149Y0240944D01*
X0262346Y0243139D01*
X0258106Y0244275D01*
X0253715Y0244275D01*
X0249475Y0243139D01*
X0245672Y0240944D01*
X0242568Y0237839D01*
X0240373Y0234037D01*
X0239479Y0230700D01*
X0221250Y0230700D01*
X0221250Y0231784D02*
X0239769Y0231784D01*
X0240197Y0233383D02*
X0221250Y0233383D01*
X0221250Y0234981D02*
X0240918Y0234981D01*
X0241841Y0236580D02*
X0221250Y0236580D01*
X0221250Y0238178D02*
X0242907Y0238178D01*
X0244506Y0239777D02*
X0221250Y0239777D01*
X0221250Y0241375D02*
X0246420Y0241375D01*
X0249189Y0242974D02*
X0221250Y0242974D01*
X0221250Y0244572D02*
X0279509Y0244572D01*
X0279509Y0242974D02*
X0262632Y0242974D01*
X0265401Y0241375D02*
X0279737Y0241375D01*
X0281336Y0239777D02*
X0267315Y0239777D01*
X0268914Y0238178D02*
X0278703Y0238178D01*
X0273439Y0236580D02*
X0269980Y0236580D01*
X0279509Y0246171D02*
X0221250Y0246171D01*
X0221250Y0247769D02*
X0279509Y0247769D01*
X0279509Y0249368D02*
X0221250Y0249368D01*
X0221250Y0250966D02*
X0279593Y0250966D01*
X0281191Y0252565D02*
X0221250Y0252565D01*
X0221250Y0254163D02*
X0282790Y0254163D01*
X0284125Y0255762D02*
X0284388Y0255762D01*
X0288469Y0258959D02*
X0316572Y0258959D01*
X0315967Y0257360D02*
X0305431Y0257360D01*
X0307029Y0255762D02*
X0315967Y0255762D01*
X0315967Y0256614D02*
X0318967Y0256614D01*
X0318967Y0256614D01*
X0315967Y0256614D01*
X0316678Y0254163D02*
X0308628Y0254163D01*
X0310226Y0252565D02*
X0318276Y0252565D01*
X0319975Y0250966D02*
X0311825Y0250966D01*
X0311909Y0249368D02*
X0321574Y0249368D01*
X0323172Y0247769D02*
X0311909Y0247769D01*
X0311909Y0246171D02*
X0324771Y0246171D01*
X0333924Y0241375D02*
X0311680Y0241375D01*
X0311909Y0242974D02*
X0334847Y0242974D01*
X0336151Y0244572D02*
X0311909Y0244572D01*
X0310081Y0239777D02*
X0333352Y0239777D01*
X0335562Y0246171D02*
X0337930Y0246171D01*
X0337161Y0247769D02*
X0341205Y0247769D01*
X0338759Y0249368D02*
X0353087Y0249368D01*
X0351488Y0250966D02*
X0340358Y0250966D01*
X0341367Y0252565D02*
X0349890Y0252565D01*
X0349710Y0254163D02*
X0341367Y0254163D01*
X0341367Y0255762D02*
X0349710Y0255762D01*
X0349710Y0257360D02*
X0341367Y0257360D01*
X0341367Y0258959D02*
X0349710Y0258959D01*
X0349710Y0260557D02*
X0341367Y0260557D01*
X0340464Y0262156D02*
X0349843Y0262156D01*
X0349710Y0263754D02*
X0339796Y0263754D01*
X0341395Y0265353D02*
X0349710Y0265353D01*
X0349710Y0266951D02*
X0342413Y0266951D01*
X0348657Y0247769D02*
X0354686Y0247769D01*
X0351932Y0246171D02*
X0379509Y0246171D01*
X0378798Y0244572D02*
X0353712Y0244572D01*
X0355016Y0242974D02*
X0378370Y0242974D01*
X0377941Y0241375D02*
X0355939Y0241375D01*
X0356511Y0239777D02*
X0377700Y0239777D01*
X0377700Y0238178D02*
X0356939Y0238178D01*
X0357031Y0236580D02*
X0377700Y0236580D01*
X0377700Y0234981D02*
X0357031Y0234981D01*
X0357031Y0233383D02*
X0377700Y0233383D01*
X0377700Y0231784D02*
X0357031Y0231784D01*
X0357031Y0230186D02*
X0377700Y0230186D01*
X0377700Y0228587D02*
X0357031Y0228587D01*
X0356747Y0226989D02*
X0377700Y0226989D01*
X0377700Y0225390D02*
X0356319Y0225390D01*
X0355526Y0223792D02*
X0377700Y0223792D01*
X0377700Y0222193D02*
X0355920Y0222193D01*
X0357518Y0220595D02*
X0377700Y0220595D01*
X0380432Y0247769D02*
X0367135Y0247769D01*
X0368733Y0249368D02*
X0381355Y0249368D01*
X0382879Y0250966D02*
X0370332Y0250966D01*
X0371930Y0252565D02*
X0384478Y0252565D01*
X0386896Y0254163D02*
X0372110Y0254163D01*
X0372110Y0255762D02*
X0390150Y0255762D01*
X0402850Y0255762D02*
X0419950Y0255762D01*
X0419950Y0257360D02*
X0372110Y0257360D01*
X0372110Y0258959D02*
X0419950Y0258959D01*
X0419950Y0260557D02*
X0372110Y0260557D01*
X0371977Y0262156D02*
X0419950Y0262156D01*
X0419950Y0263754D02*
X0372110Y0263754D01*
X0372110Y0265353D02*
X0419950Y0265353D01*
X0419950Y0266951D02*
X0372110Y0266951D01*
X0376299Y0268550D02*
X0419950Y0268550D01*
X0419950Y0270148D02*
X0377898Y0270148D01*
X0379496Y0271747D02*
X0419950Y0271747D01*
X0419950Y0273345D02*
X0381095Y0273345D01*
X0382570Y0274944D02*
X0419950Y0274944D01*
X0419950Y0276542D02*
X0382570Y0276542D01*
X0382570Y0278141D02*
X0419950Y0278141D01*
X0419950Y0279739D02*
X0382570Y0279739D01*
X0382570Y0281338D02*
X0419789Y0281338D01*
X0418620Y0282937D02*
X0382570Y0282937D01*
X0382134Y0284535D02*
X0417697Y0284535D01*
X0416774Y0286134D02*
X0380536Y0286134D01*
X0380390Y0287732D02*
X0416146Y0287732D01*
X0415718Y0289331D02*
X0380690Y0289331D01*
X0380690Y0290929D02*
X0415289Y0290929D01*
X0414950Y0292528D02*
X0380690Y0292528D01*
X0380690Y0294126D02*
X0414950Y0294126D01*
X0414950Y0295725D02*
X0380690Y0295725D01*
X0380690Y0297323D02*
X0414950Y0297323D01*
X0415249Y0298922D02*
X0380614Y0298922D01*
X0380185Y0300520D02*
X0415678Y0300520D01*
X0416106Y0302119D02*
X0379632Y0302119D01*
X0378709Y0303717D02*
X0416688Y0303717D01*
X0417611Y0305316D02*
X0377431Y0305316D01*
X0375695Y0306914D02*
X0418534Y0306914D01*
X0419640Y0308513D02*
X0374800Y0308513D01*
X0374800Y0310111D02*
X0421238Y0310111D01*
X0422837Y0311710D02*
X0374800Y0311710D01*
X0374800Y0313308D02*
X0425361Y0313308D01*
X0428246Y0314907D02*
X0374800Y0314907D01*
X0374800Y0316505D02*
X0615870Y0316505D01*
X0615867Y0314907D02*
X0544504Y0314907D01*
X0547389Y0313308D02*
X0615864Y0313308D01*
X0615861Y0311710D02*
X0549913Y0311710D01*
X0551512Y0310111D02*
X0615858Y0310111D01*
X0615855Y0308513D02*
X0553110Y0308513D01*
X0554216Y0306914D02*
X0615852Y0306914D01*
X0615849Y0305316D02*
X0555139Y0305316D01*
X0556062Y0303717D02*
X0615847Y0303717D01*
X0615844Y0302119D02*
X0556644Y0302119D01*
X0557072Y0300520D02*
X0615841Y0300520D01*
X0615838Y0298922D02*
X0557501Y0298922D01*
X0557800Y0297323D02*
X0615835Y0297323D01*
X0615832Y0295725D02*
X0557800Y0295725D01*
X0557800Y0294126D02*
X0615829Y0294126D01*
X0615826Y0292528D02*
X0557800Y0292528D01*
X0557800Y0290929D02*
X0615824Y0290929D01*
X0615821Y0289331D02*
X0557800Y0289331D01*
X0557800Y0287732D02*
X0615818Y0287732D01*
X0615815Y0286134D02*
X0557800Y0286134D01*
X0557800Y0284535D02*
X0615812Y0284535D01*
X0615809Y0282937D02*
X0557800Y0282937D01*
X0557800Y0281338D02*
X0615806Y0281338D01*
X0615803Y0279739D02*
X0557800Y0279739D01*
X0557800Y0278141D02*
X0615801Y0278141D01*
X0615798Y0276542D02*
X0557800Y0276542D01*
X0557800Y0274944D02*
X0615795Y0274944D01*
X0615792Y0273345D02*
X0557800Y0273345D01*
X0557800Y0271747D02*
X0615789Y0271747D01*
X0615786Y0270148D02*
X0557800Y0270148D01*
X0557800Y0268550D02*
X0615783Y0268550D01*
X0615780Y0266951D02*
X0557800Y0266951D01*
X0557800Y0265353D02*
X0615778Y0265353D01*
X0615775Y0263754D02*
X0557800Y0263754D01*
X0557800Y0262156D02*
X0615772Y0262156D01*
X0615769Y0260557D02*
X0557800Y0260557D01*
X0557800Y0258959D02*
X0615766Y0258959D01*
X0615763Y0257360D02*
X0557800Y0257360D01*
X0557800Y0255762D02*
X0615760Y0255762D01*
X0615757Y0254163D02*
X0557800Y0254163D01*
X0557800Y0252565D02*
X0601275Y0252565D01*
X0602460Y0253750D02*
X0600000Y0251290D01*
X0600000Y0249550D01*
X0604200Y0249550D01*
X0604200Y0249550D01*
X0604200Y0253750D01*
X0605940Y0253750D01*
X0608400Y0251290D01*
X0608400Y0249550D01*
X0604200Y0249550D01*
X0604200Y0249550D01*
X0604200Y0249550D01*
X0604200Y0253750D01*
X0602460Y0253750D01*
X0604200Y0252565D02*
X0604200Y0252565D01*
X0604200Y0250966D02*
X0604200Y0250966D01*
X0604200Y0249550D02*
X0600000Y0249550D01*
X0600000Y0247810D01*
X0602460Y0245350D01*
X0604200Y0245350D01*
X0605940Y0245350D01*
X0608400Y0247810D01*
X0608400Y0249550D01*
X0604200Y0249550D01*
X0604200Y0245350D01*
X0604200Y0249550D01*
X0604200Y0249550D01*
X0604200Y0249368D02*
X0604200Y0249368D01*
X0604200Y0247769D02*
X0604200Y0247769D01*
X0604200Y0246171D02*
X0604200Y0246171D01*
X0606760Y0246171D02*
X0615743Y0246171D01*
X0615746Y0247769D02*
X0608359Y0247769D01*
X0608400Y0249368D02*
X0615749Y0249368D01*
X0615752Y0250966D02*
X0608400Y0250966D01*
X0607125Y0252565D02*
X0615754Y0252565D01*
X0615740Y0244572D02*
X0588322Y0244572D01*
X0589169Y0242974D02*
X0615737Y0242974D01*
X0615734Y0241375D02*
X0589597Y0241375D01*
X0590024Y0239777D02*
X0615731Y0239777D01*
X0615729Y0238178D02*
X0590024Y0238178D01*
X0590024Y0236580D02*
X0615726Y0236580D01*
X0615723Y0234981D02*
X0589693Y0234981D01*
X0589264Y0233383D02*
X0615720Y0233383D01*
X0615717Y0231784D02*
X0588528Y0231784D01*
X0587605Y0230186D02*
X0615714Y0230186D01*
X0615711Y0228587D02*
X0586214Y0228587D01*
X0584477Y0226989D02*
X0615708Y0226989D01*
X0615706Y0225390D02*
X0581693Y0225390D01*
X0575631Y0223792D02*
X0615703Y0223792D01*
X0615700Y0222193D02*
X0575631Y0222193D01*
X0575631Y0220595D02*
X0615697Y0220595D01*
X0601640Y0246171D02*
X0587399Y0246171D01*
X0585857Y0247769D02*
X0600041Y0247769D01*
X0600000Y0249368D02*
X0583859Y0249368D01*
X0580363Y0250966D02*
X0600000Y0250966D01*
X0572637Y0250966D02*
X0560363Y0250966D01*
X0615872Y0318104D02*
X0374800Y0318104D01*
X0374800Y0319702D02*
X0615875Y0319702D01*
X0615878Y0321301D02*
X0374800Y0321301D01*
X0374800Y0322899D02*
X0615881Y0322899D01*
X0615884Y0324498D02*
X0374800Y0324498D01*
X0374800Y0326096D02*
X0615887Y0326096D01*
X0615890Y0327695D02*
X0374800Y0327695D01*
X0374800Y0329293D02*
X0615893Y0329293D01*
X0615896Y0330892D02*
X0374800Y0330892D01*
X0374666Y0332490D02*
X0615898Y0332490D01*
X0615901Y0334089D02*
X0374238Y0334089D01*
X0373476Y0335687D02*
X0615904Y0335687D01*
X0615907Y0337286D02*
X0372599Y0337286D01*
X0373445Y0338884D02*
X0615910Y0338884D01*
X0615913Y0340483D02*
X0373690Y0340483D01*
X0373690Y0342081D02*
X0615916Y0342081D01*
X0615919Y0343680D02*
X0368890Y0343680D01*
X0368890Y0344045D02*
X0373690Y0344045D01*
X0373690Y0347446D01*
X0373564Y0348239D01*
X0373316Y0349002D01*
X0372952Y0349718D01*
X0372480Y0350367D01*
X0371912Y0350935D01*
X0371263Y0351407D01*
X0370548Y0351771D01*
X0369784Y0352019D01*
X0368991Y0352145D01*
X0368890Y0352145D01*
X0368890Y0344045D01*
X0368890Y0345278D02*
X0368290Y0345278D01*
X0368290Y0346877D02*
X0368890Y0346877D01*
X0368890Y0348475D02*
X0368290Y0348475D01*
X0368290Y0350074D02*
X0368890Y0350074D01*
X0368890Y0351672D02*
X0368290Y0351672D01*
X0366439Y0351672D02*
X0357553Y0351672D01*
X0359152Y0350074D02*
X0364487Y0350074D01*
X0363692Y0348475D02*
X0360750Y0348475D01*
X0362349Y0346877D02*
X0363490Y0346877D01*
X0370741Y0351672D02*
X0615933Y0351672D01*
X0615930Y0350074D02*
X0372693Y0350074D01*
X0373487Y0348475D02*
X0615927Y0348475D01*
X0615924Y0346877D02*
X0373690Y0346877D01*
X0373690Y0345278D02*
X0615921Y0345278D01*
X0615936Y0353271D02*
X0339450Y0353271D01*
X0339450Y0354870D02*
X0615939Y0354870D01*
X0615942Y0356468D02*
X0339450Y0356468D01*
X0339450Y0358067D02*
X0615944Y0358067D01*
X0615947Y0359665D02*
X0339450Y0359665D01*
X0339450Y0361264D02*
X0615950Y0361264D01*
X0615953Y0362862D02*
X0365254Y0362862D01*
X0368227Y0364461D02*
X0615956Y0364461D01*
X0615959Y0366059D02*
X0369825Y0366059D01*
X0371424Y0367658D02*
X0615962Y0367658D01*
X0615965Y0369256D02*
X0373023Y0369256D01*
X0374621Y0370855D02*
X0615967Y0370855D01*
X0615970Y0372453D02*
X0376220Y0372453D01*
X0377818Y0374052D02*
X0615973Y0374052D01*
X0615976Y0375650D02*
X0379417Y0375650D01*
X0381015Y0377249D02*
X0615979Y0377249D01*
X0615982Y0378847D02*
X0382614Y0378847D01*
X0383929Y0380446D02*
X0449376Y0380446D01*
X0446536Y0382044D02*
X0384852Y0382044D01*
X0385305Y0383643D02*
X0444270Y0383643D01*
X0463624Y0380446D02*
X0615985Y0380446D01*
X0615988Y0382044D02*
X0466464Y0382044D01*
X0468730Y0383643D02*
X0615990Y0383643D01*
X0615993Y0385241D02*
X0581138Y0385241D01*
X0584219Y0386840D02*
X0615996Y0386840D01*
X0615999Y0388438D02*
X0586065Y0388438D01*
X0587519Y0390037D02*
X0616002Y0390037D01*
X0616005Y0391635D02*
X0588442Y0391635D01*
X0589224Y0393234D02*
X0616008Y0393234D01*
X0616011Y0394832D02*
X0589653Y0394832D01*
X0590024Y0396431D02*
X0616014Y0396431D01*
X0616016Y0398029D02*
X0590024Y0398029D01*
X0590024Y0399628D02*
X0616019Y0399628D01*
X0616022Y0401226D02*
X0589637Y0401226D01*
X0589209Y0402825D02*
X0616025Y0402825D01*
X0616028Y0404423D02*
X0588408Y0404423D01*
X0587485Y0406022D02*
X0616031Y0406022D01*
X0616034Y0407620D02*
X0586006Y0407620D01*
X0584117Y0409219D02*
X0616037Y0409219D01*
X0616039Y0410817D02*
X0580919Y0410817D01*
X0572081Y0410817D02*
X0560919Y0410817D01*
X0552081Y0410817D02*
X0540919Y0410817D01*
X0532081Y0410817D02*
X0529150Y0410817D01*
X0529150Y0412416D02*
X0616042Y0412416D01*
X0616045Y0414014D02*
X0529150Y0414014D01*
X0529150Y0415613D02*
X0616048Y0415613D01*
X0616051Y0417211D02*
X0529150Y0417211D01*
X0529150Y0418810D02*
X0616054Y0418810D01*
X0616057Y0420408D02*
X0529150Y0420408D01*
X0529150Y0422007D02*
X0616060Y0422007D01*
X0616062Y0423605D02*
X0529586Y0423605D01*
X0531184Y0425204D02*
X0616065Y0425204D01*
X0616068Y0426803D02*
X0532783Y0426803D01*
X0534381Y0428401D02*
X0616071Y0428401D01*
X0616074Y0430000D02*
X0594389Y0430000D01*
X0598011Y0431598D02*
X0616077Y0431598D01*
X0616080Y0433197D02*
X0600359Y0433197D01*
X0601957Y0434795D02*
X0616083Y0434795D01*
X0616085Y0436394D02*
X0603274Y0436394D01*
X0604196Y0437992D02*
X0616088Y0437992D01*
X0616091Y0439591D02*
X0605100Y0439591D01*
X0605528Y0441189D02*
X0616094Y0441189D01*
X0616097Y0442788D02*
X0605957Y0442788D01*
X0606220Y0444386D02*
X0616100Y0444386D01*
X0616103Y0445985D02*
X0606220Y0445985D01*
X0606220Y0447583D02*
X0616106Y0447583D01*
X0616108Y0449182D02*
X0605946Y0449182D01*
X0605517Y0450780D02*
X0616111Y0450780D01*
X0616114Y0452379D02*
X0605089Y0452379D01*
X0604173Y0453977D02*
X0616117Y0453977D01*
X0616120Y0455576D02*
X0603250Y0455576D01*
X0601916Y0457174D02*
X0616123Y0457174D01*
X0616126Y0458773D02*
X0600317Y0458773D01*
X0597939Y0460371D02*
X0616129Y0460371D01*
X0616132Y0461970D02*
X0594234Y0461970D01*
X0584857Y0461970D02*
X0582133Y0461970D01*
X0582550Y0463568D02*
X0616134Y0463568D01*
X0616137Y0465167D02*
X0582550Y0465167D01*
X0582550Y0466765D02*
X0616140Y0466765D01*
X0616143Y0468364D02*
X0582550Y0468364D01*
X0582151Y0469962D02*
X0584841Y0469962D01*
X0594250Y0469962D02*
X0616146Y0469962D01*
X0616149Y0471561D02*
X0597947Y0471561D01*
X0600322Y0473159D02*
X0616152Y0473159D01*
X0616155Y0474758D02*
X0601920Y0474758D01*
X0603252Y0476356D02*
X0616157Y0476356D01*
X0616160Y0477955D02*
X0604175Y0477955D01*
X0605090Y0479553D02*
X0616163Y0479553D01*
X0616166Y0481152D02*
X0605518Y0481152D01*
X0605947Y0482750D02*
X0616169Y0482750D01*
X0616172Y0484349D02*
X0606220Y0484349D01*
X0606220Y0485947D02*
X0616175Y0485947D01*
X0616178Y0487546D02*
X0606220Y0487546D01*
X0605956Y0489144D02*
X0616180Y0489144D01*
X0616183Y0490743D02*
X0605527Y0490743D01*
X0562975Y0444386D02*
X0547900Y0444386D01*
X0547900Y0442788D02*
X0552604Y0442788D01*
X0552613Y0442724D02*
X0552834Y0441898D01*
X0553161Y0441108D01*
X0553589Y0440367D01*
X0554110Y0439689D01*
X0554715Y0439084D01*
X0555393Y0438564D01*
X0556134Y0438136D01*
X0556924Y0437809D01*
X0557750Y0437587D01*
X0558598Y0437476D01*
X0562975Y0437476D01*
X0562975Y0443225D01*
X0552547Y0443225D01*
X0552613Y0442724D01*
X0553128Y0441189D02*
X0547830Y0441189D01*
X0547401Y0439591D02*
X0554208Y0439591D01*
X0556481Y0437992D02*
X0546973Y0437992D01*
X0546144Y0436394D02*
X0575818Y0436394D01*
X0574895Y0437992D02*
X0571019Y0437992D01*
X0573292Y0439591D02*
X0573991Y0439591D01*
X0577134Y0434795D02*
X0545221Y0434795D01*
X0543827Y0433197D02*
X0578732Y0433197D01*
X0581080Y0431598D02*
X0542228Y0431598D01*
X0539490Y0430000D02*
X0584702Y0430000D01*
X0564525Y0437992D02*
X0562975Y0437992D01*
X0562975Y0439591D02*
X0564525Y0439591D01*
X0564525Y0441189D02*
X0562975Y0441189D01*
X0562975Y0442788D02*
X0564525Y0442788D01*
X0552803Y0445985D02*
X0547730Y0445985D01*
X0488781Y0386840D02*
X0484770Y0386840D01*
X0486454Y0388438D02*
X0486935Y0388438D01*
X0491862Y0385241D02*
X0482001Y0385241D01*
X0501138Y0385241D02*
X0510999Y0385241D01*
X0522001Y0385241D02*
X0531862Y0385241D01*
X0541138Y0385241D02*
X0551862Y0385241D01*
X0561138Y0385241D02*
X0571862Y0385241D01*
X0423035Y0466765D02*
X0402800Y0466765D01*
X0402800Y0465167D02*
X0421436Y0465167D01*
X0419838Y0463568D02*
X0402800Y0463568D01*
X0402800Y0461970D02*
X0418239Y0461970D01*
X0416641Y0460371D02*
X0402059Y0460371D01*
X0400460Y0458773D02*
X0415042Y0458773D01*
X0423476Y0468364D02*
X0402800Y0468364D01*
X0402800Y0469962D02*
X0423476Y0469962D01*
X0423558Y0471561D02*
X0402127Y0471561D01*
X0400528Y0473159D02*
X0423986Y0473159D01*
X0424434Y0474758D02*
X0398930Y0474758D01*
X0397331Y0476356D02*
X0425357Y0476356D01*
X0426354Y0477955D02*
X0321500Y0477955D01*
X0321500Y0478050D02*
X0313700Y0478050D01*
X0313700Y0478450D01*
X0313300Y0478450D01*
X0313300Y0486250D01*
X0310186Y0486250D01*
X0305500Y0481564D01*
X0305500Y0478450D01*
X0313300Y0478450D01*
X0313300Y0478050D01*
X0305500Y0478050D01*
X0305500Y0474936D01*
X0310186Y0470250D01*
X0313300Y0470250D01*
X0313300Y0478050D01*
X0313700Y0478050D01*
X0313700Y0470250D01*
X0316814Y0470250D01*
X0321500Y0474936D01*
X0321500Y0478050D01*
X0321500Y0478450D02*
X0321500Y0481564D01*
X0316814Y0486250D01*
X0313700Y0486250D01*
X0313700Y0478450D01*
X0321500Y0478450D01*
X0321500Y0479553D02*
X0426448Y0479553D01*
X0425206Y0481152D02*
X0321500Y0481152D01*
X0320313Y0482750D02*
X0357461Y0482750D01*
X0356200Y0484012D02*
X0359012Y0481200D01*
X0360800Y0481200D01*
X0360800Y0485800D01*
X0356200Y0485800D01*
X0356200Y0484012D01*
X0356200Y0484349D02*
X0318715Y0484349D01*
X0317116Y0485947D02*
X0360800Y0485947D01*
X0360800Y0485800D02*
X0360800Y0486200D01*
X0360800Y0490800D01*
X0359012Y0490800D01*
X0356200Y0487988D01*
X0356200Y0486200D01*
X0360800Y0486200D01*
X0361200Y0486200D01*
X0361200Y0490800D01*
X0362988Y0490800D01*
X0365800Y0487988D01*
X0365800Y0486200D01*
X0361200Y0486200D01*
X0361200Y0485800D01*
X0365800Y0485800D01*
X0365800Y0484012D01*
X0362988Y0481200D01*
X0361200Y0481200D01*
X0361200Y0485800D01*
X0360800Y0485800D01*
X0361200Y0485947D02*
X0390800Y0485947D01*
X0390800Y0485800D02*
X0386200Y0485800D01*
X0386200Y0484012D01*
X0389012Y0481200D01*
X0390800Y0481200D01*
X0390800Y0485800D01*
X0390800Y0486200D01*
X0390800Y0490800D01*
X0389012Y0490800D01*
X0386200Y0487988D01*
X0386200Y0486200D01*
X0390800Y0486200D01*
X0391200Y0486200D01*
X0391200Y0490800D01*
X0392988Y0490800D01*
X0395800Y0487988D01*
X0395800Y0486200D01*
X0391200Y0486200D01*
X0391200Y0485800D01*
X0395800Y0485800D01*
X0395800Y0484012D01*
X0392988Y0481200D01*
X0391200Y0481200D01*
X0391200Y0485800D01*
X0390800Y0485800D01*
X0391200Y0485947D02*
X0423006Y0485947D01*
X0423434Y0484349D02*
X0395800Y0484349D01*
X0394539Y0482750D02*
X0424283Y0482750D01*
X0422578Y0487546D02*
X0395800Y0487546D01*
X0394644Y0489144D02*
X0422362Y0489144D01*
X0422362Y0490743D02*
X0393045Y0490743D01*
X0391200Y0490743D02*
X0390800Y0490743D01*
X0390800Y0489144D02*
X0391200Y0489144D01*
X0391200Y0487546D02*
X0390800Y0487546D01*
X0390800Y0484349D02*
X0391200Y0484349D01*
X0391200Y0482750D02*
X0390800Y0482750D01*
X0387461Y0482750D02*
X0364539Y0482750D01*
X0365800Y0484349D02*
X0386200Y0484349D01*
X0386200Y0487546D02*
X0365800Y0487546D01*
X0364644Y0489144D02*
X0387356Y0489144D01*
X0388955Y0490743D02*
X0363045Y0490743D01*
X0361200Y0490743D02*
X0360800Y0490743D01*
X0360800Y0489144D02*
X0361200Y0489144D01*
X0361200Y0487546D02*
X0360800Y0487546D01*
X0360800Y0484349D02*
X0361200Y0484349D01*
X0361200Y0482750D02*
X0360800Y0482750D01*
X0356200Y0487546D02*
X0199399Y0487546D01*
X0200315Y0485947D02*
X0309884Y0485947D01*
X0308285Y0484349D02*
X0201069Y0484349D01*
X0201583Y0482750D02*
X0249918Y0482750D01*
X0249698Y0482716D02*
X0248839Y0482437D01*
X0248035Y0482027D01*
X0247304Y0481496D01*
X0246666Y0480857D01*
X0246135Y0480127D01*
X0245725Y0479322D01*
X0245446Y0478463D01*
X0245305Y0477571D01*
X0245305Y0477403D01*
X0250759Y0477403D01*
X0250759Y0482857D01*
X0250590Y0482857D01*
X0249698Y0482716D01*
X0250759Y0482750D02*
X0251324Y0482750D01*
X0251324Y0482857D02*
X0251493Y0482857D01*
X0252385Y0482716D01*
X0253244Y0482437D01*
X0254048Y0482027D01*
X0254779Y0481496D01*
X0255417Y0480857D01*
X0255948Y0480127D01*
X0256358Y0479322D01*
X0256637Y0478463D01*
X0256779Y0477571D01*
X0256779Y0477403D01*
X0251324Y0477403D01*
X0250759Y0477403D01*
X0250759Y0476837D01*
X0251324Y0476837D01*
X0251324Y0471383D01*
X0251493Y0471383D01*
X0252385Y0471524D01*
X0253244Y0471803D01*
X0254048Y0472213D01*
X0254779Y0472744D01*
X0255417Y0473382D01*
X0255948Y0474113D01*
X0256358Y0474918D01*
X0256637Y0475776D01*
X0256779Y0476668D01*
X0256779Y0476837D01*
X0251324Y0476837D01*
X0251324Y0477403D01*
X0251324Y0482857D01*
X0252165Y0482750D02*
X0306687Y0482750D01*
X0305500Y0481152D02*
X0255123Y0481152D01*
X0256240Y0479553D02*
X0305500Y0479553D01*
X0305500Y0477955D02*
X0256718Y0477955D01*
X0256729Y0476356D02*
X0305500Y0476356D01*
X0305678Y0474758D02*
X0256277Y0474758D01*
X0255194Y0473159D02*
X0307277Y0473159D01*
X0308875Y0471561D02*
X0252498Y0471561D01*
X0251324Y0471561D02*
X0250759Y0471561D01*
X0250759Y0471383D02*
X0250759Y0476837D01*
X0245305Y0476837D01*
X0245305Y0476668D01*
X0245446Y0475776D01*
X0245725Y0474918D01*
X0246135Y0474113D01*
X0246666Y0473382D01*
X0247304Y0472744D01*
X0248035Y0472213D01*
X0248839Y0471803D01*
X0249698Y0471524D01*
X0250590Y0471383D01*
X0250759Y0471383D01*
X0249585Y0471561D02*
X0201354Y0471561D01*
X0201805Y0473159D02*
X0246889Y0473159D01*
X0245806Y0474758D02*
X0202169Y0474758D01*
X0202275Y0476356D02*
X0245354Y0476356D01*
X0245365Y0477955D02*
X0202315Y0477955D01*
X0202241Y0479553D02*
X0245843Y0479553D01*
X0246960Y0481152D02*
X0201943Y0481152D01*
X0198384Y0489144D02*
X0357356Y0489144D01*
X0358955Y0490743D02*
X0197002Y0490743D01*
X0200797Y0469962D02*
X0349200Y0469962D01*
X0349200Y0470888D02*
X0349200Y0461112D01*
X0356112Y0454200D01*
X0365888Y0454200D01*
X0372800Y0461112D01*
X0372800Y0470888D01*
X0365888Y0477800D01*
X0356112Y0477800D01*
X0349200Y0470888D01*
X0349873Y0471561D02*
X0318125Y0471561D01*
X0319723Y0473159D02*
X0351472Y0473159D01*
X0353070Y0474758D02*
X0321322Y0474758D01*
X0321500Y0476356D02*
X0354669Y0476356D01*
X0349200Y0468364D02*
X0199973Y0468364D01*
X0198952Y0466765D02*
X0349200Y0466765D01*
X0349200Y0465167D02*
X0197695Y0465167D01*
X0196211Y0463568D02*
X0349200Y0463568D01*
X0349200Y0461970D02*
X0319737Y0461970D01*
X0322505Y0460371D02*
X0349941Y0460371D01*
X0351540Y0458773D02*
X0324190Y0458773D01*
X0325668Y0457174D02*
X0353138Y0457174D01*
X0354737Y0455576D02*
X0326591Y0455576D01*
X0327495Y0453977D02*
X0367169Y0453977D01*
X0367263Y0455576D02*
X0368768Y0455576D01*
X0368862Y0457174D02*
X0371479Y0457174D01*
X0370460Y0458773D02*
X0381540Y0458773D01*
X0381479Y0457174D02*
X0380647Y0457174D01*
X0379941Y0460371D02*
X0372059Y0460371D01*
X0372800Y0461970D02*
X0379200Y0461970D01*
X0379200Y0463568D02*
X0372800Y0463568D01*
X0372800Y0465167D02*
X0379200Y0465167D01*
X0379200Y0466765D02*
X0372800Y0466765D01*
X0372800Y0468364D02*
X0379200Y0468364D01*
X0379200Y0469962D02*
X0372800Y0469962D01*
X0372127Y0471561D02*
X0379873Y0471561D01*
X0381472Y0473159D02*
X0370528Y0473159D01*
X0368930Y0474758D02*
X0383070Y0474758D01*
X0384669Y0476356D02*
X0367331Y0476356D01*
X0366030Y0452379D02*
X0327923Y0452379D01*
X0328351Y0450780D02*
X0365110Y0450780D01*
X0364681Y0449182D02*
X0328500Y0449182D01*
X0328500Y0447583D02*
X0364309Y0447583D01*
X0364200Y0445985D02*
X0328422Y0445985D01*
X0327994Y0444386D02*
X0335785Y0444386D01*
X0332807Y0442788D02*
X0327565Y0442788D01*
X0302545Y0437992D02*
X0295446Y0437992D01*
X0297044Y0436394D02*
X0301893Y0436394D01*
X0300970Y0434795D02*
X0298643Y0434795D01*
X0299550Y0433197D02*
X0300408Y0433197D01*
X0299980Y0431598D02*
X0299550Y0431598D01*
X0299550Y0430000D02*
X0299950Y0430000D01*
X0299950Y0428401D02*
X0299550Y0428401D01*
X0299550Y0426803D02*
X0299950Y0426803D01*
X0299950Y0425204D02*
X0299550Y0425204D01*
X0299950Y0423605D02*
X0299043Y0423605D01*
X0299950Y0422007D02*
X0297445Y0422007D01*
X0295846Y0420408D02*
X0299950Y0420408D01*
X0280872Y0418810D02*
X0261537Y0418810D01*
X0263136Y0417211D02*
X0279274Y0417211D01*
X0277675Y0415613D02*
X0264460Y0415613D01*
X0265383Y0414014D02*
X0276077Y0414014D01*
X0275950Y0412416D02*
X0266265Y0412416D01*
X0266694Y0410817D02*
X0275950Y0410817D01*
X0275950Y0409219D02*
X0267122Y0409219D01*
X0267342Y0407620D02*
X0275950Y0407620D01*
X0275950Y0406022D02*
X0267342Y0406022D01*
X0267342Y0404423D02*
X0275950Y0404423D01*
X0277237Y0402825D02*
X0266998Y0402825D01*
X0266569Y0401226D02*
X0278836Y0401226D01*
X0280434Y0399628D02*
X0266038Y0399628D01*
X0265115Y0398029D02*
X0282033Y0398029D01*
X0278228Y0390037D02*
X0307963Y0390037D01*
X0306800Y0391635D02*
X0258322Y0391635D01*
X0261073Y0393234D02*
X0305199Y0393234D01*
X0303268Y0394832D02*
X0262672Y0394832D01*
X0264192Y0396431D02*
X0301888Y0396431D01*
X0311750Y0391300D02*
X0311750Y0391300D01*
X0311750Y0388300D01*
X0311750Y0391300D01*
X0311750Y0390037D02*
X0311750Y0390037D01*
X0311750Y0388438D02*
X0311750Y0388438D01*
X0313939Y0388438D02*
X0324431Y0388438D01*
X0322359Y0386840D02*
X0283286Y0386840D01*
X0284885Y0385241D02*
X0320761Y0385241D01*
X0319181Y0383643D02*
X0286314Y0383643D01*
X0287237Y0382044D02*
X0317705Y0382044D01*
X0317050Y0380446D02*
X0288160Y0380446D01*
X0288801Y0378847D02*
X0317050Y0378847D01*
X0316950Y0377249D02*
X0289229Y0377249D01*
X0289658Y0375650D02*
X0316950Y0375650D01*
X0317050Y0374052D02*
X0289839Y0374052D01*
X0289839Y0372453D02*
X0317050Y0372453D01*
X0318151Y0370855D02*
X0289839Y0370855D01*
X0289839Y0369256D02*
X0317950Y0369256D01*
X0317950Y0367658D02*
X0289839Y0367658D01*
X0289839Y0366059D02*
X0317950Y0366059D01*
X0317950Y0364461D02*
X0289839Y0364461D01*
X0289839Y0362862D02*
X0317950Y0362862D01*
X0317050Y0361264D02*
X0289839Y0361264D01*
X0289839Y0359665D02*
X0317050Y0359665D01*
X0317050Y0358067D02*
X0289839Y0358067D01*
X0289839Y0356468D02*
X0317050Y0356468D01*
X0317050Y0354870D02*
X0289839Y0354870D01*
X0289839Y0353271D02*
X0317050Y0353271D01*
X0317488Y0351672D02*
X0289839Y0351672D01*
X0289839Y0350074D02*
X0319087Y0350074D01*
X0320685Y0348475D02*
X0289839Y0348475D01*
X0289839Y0346877D02*
X0322284Y0346877D01*
X0325186Y0345278D02*
X0300187Y0345278D01*
X0304065Y0343680D02*
X0324489Y0343680D01*
X0324489Y0342081D02*
X0306711Y0342081D01*
X0308309Y0340483D02*
X0324610Y0340483D01*
X0326209Y0338884D02*
X0309908Y0338884D01*
X0310888Y0337286D02*
X0341552Y0337286D01*
X0341552Y0338884D02*
X0332368Y0338884D01*
X0331277Y0337793D02*
X0334089Y0340605D01*
X0334089Y0342393D01*
X0329489Y0342393D01*
X0329489Y0337793D01*
X0331277Y0337793D01*
X0329489Y0338884D02*
X0329089Y0338884D01*
X0329089Y0340483D02*
X0329489Y0340483D01*
X0329489Y0342081D02*
X0329089Y0342081D01*
X0334089Y0342081D02*
X0341552Y0342081D01*
X0341552Y0340483D02*
X0333967Y0340483D01*
X0334089Y0343680D02*
X0341552Y0343680D01*
X0341557Y0345278D02*
X0333391Y0345278D01*
X0334216Y0346877D02*
X0343156Y0346877D01*
X0344754Y0348475D02*
X0335815Y0348475D01*
X0337413Y0350074D02*
X0346353Y0350074D01*
X0347951Y0351672D02*
X0339012Y0351672D01*
X0341860Y0335687D02*
X0311811Y0335687D01*
X0312619Y0334089D02*
X0341552Y0334089D01*
X0341552Y0332490D02*
X0313047Y0332490D01*
X0313475Y0330892D02*
X0341552Y0330892D01*
X0341552Y0329293D02*
X0313800Y0329293D01*
X0313800Y0327695D02*
X0341552Y0327695D01*
X0341552Y0326096D02*
X0313800Y0326096D01*
X0313738Y0324498D02*
X0343050Y0324498D01*
X0343689Y0322899D02*
X0313309Y0322899D01*
X0312881Y0321301D02*
X0341962Y0321301D01*
X0341308Y0319702D02*
X0312377Y0319702D01*
X0311454Y0318104D02*
X0341252Y0318104D01*
X0341762Y0316505D02*
X0310531Y0316505D01*
X0309493Y0314907D02*
X0343134Y0314907D01*
X0344642Y0313308D02*
X0335261Y0313308D01*
X0336860Y0311710D02*
X0343043Y0311710D01*
X0341445Y0310111D02*
X0338458Y0310111D01*
X0323316Y0313308D02*
X0308034Y0313308D01*
X0306921Y0290929D02*
X0319190Y0290929D01*
X0317491Y0289331D02*
X0303790Y0289331D01*
X0315066Y0286134D02*
X0276009Y0286134D01*
X0277608Y0287732D02*
X0315892Y0287732D01*
X0315065Y0284535D02*
X0274411Y0284535D01*
X0272812Y0282937D02*
X0315555Y0282937D01*
X0315702Y0281338D02*
X0271214Y0281338D01*
X0269615Y0279739D02*
X0314103Y0279739D01*
X0312505Y0278141D02*
X0285004Y0278141D01*
X0287377Y0276542D02*
X0310906Y0276542D01*
X0310013Y0274944D02*
X0288976Y0274944D01*
X0289966Y0273345D02*
X0310013Y0273345D01*
X0310013Y0271747D02*
X0290820Y0271747D01*
X0291249Y0270148D02*
X0310013Y0270148D01*
X0310013Y0268550D02*
X0291602Y0268550D01*
X0291602Y0266951D02*
X0310013Y0266951D01*
X0311031Y0265353D02*
X0291541Y0265353D01*
X0291113Y0263754D02*
X0312630Y0263754D01*
X0314228Y0262156D02*
X0290596Y0262156D01*
X0289673Y0260557D02*
X0315827Y0260557D01*
X0295987Y0257360D02*
X0295431Y0257360D01*
X0274392Y0255762D02*
X0221250Y0255762D01*
X0221250Y0257360D02*
X0271647Y0257360D01*
X0270049Y0258959D02*
X0221250Y0258959D01*
X0221250Y0260557D02*
X0268844Y0260557D01*
X0267921Y0262156D02*
X0241010Y0262156D01*
X0241310Y0262253D02*
X0242059Y0262635D01*
X0242740Y0263129D01*
X0243334Y0263724D01*
X0243829Y0264405D01*
X0244210Y0265154D01*
X0244470Y0265954D01*
X0244602Y0266784D01*
X0244602Y0266824D01*
X0239640Y0266824D01*
X0239640Y0267586D01*
X0244602Y0267586D01*
X0244602Y0267626D01*
X0244470Y0268456D01*
X0244210Y0269256D01*
X0243829Y0270006D01*
X0243334Y0270686D01*
X0242740Y0271281D01*
X0242059Y0271775D01*
X0241310Y0272157D01*
X0240510Y0272417D01*
X0239679Y0272548D01*
X0239640Y0272548D01*
X0239640Y0267586D01*
X0238878Y0267586D01*
X0238878Y0272548D01*
X0238838Y0272548D01*
X0238007Y0272417D01*
X0237208Y0272157D01*
X0236458Y0271775D01*
X0235778Y0271281D01*
X0235183Y0270686D01*
X0234689Y0270006D01*
X0234307Y0269256D01*
X0234047Y0268456D01*
X0233915Y0267626D01*
X0233915Y0267586D01*
X0238877Y0267586D01*
X0238877Y0266824D01*
X0233915Y0266824D01*
X0233915Y0266784D01*
X0234047Y0265954D01*
X0234307Y0265154D01*
X0234689Y0264405D01*
X0235183Y0263724D01*
X0235778Y0263129D01*
X0236458Y0262635D01*
X0237208Y0262253D01*
X0238007Y0261993D01*
X0238838Y0261862D01*
X0238878Y0261862D01*
X0238878Y0266824D01*
X0239640Y0266824D01*
X0239640Y0261862D01*
X0239679Y0261862D01*
X0240510Y0261993D01*
X0241310Y0262253D01*
X0239640Y0262156D02*
X0238878Y0262156D01*
X0237507Y0262156D02*
X0221250Y0262156D01*
X0221250Y0263754D02*
X0235161Y0263754D01*
X0234242Y0265353D02*
X0221250Y0265353D01*
X0221250Y0266951D02*
X0238877Y0266951D01*
X0239640Y0266951D02*
X0266915Y0266951D01*
X0266915Y0268550D02*
X0244440Y0268550D01*
X0243725Y0270148D02*
X0267269Y0270148D01*
X0267697Y0271747D02*
X0262124Y0271747D01*
X0265062Y0273345D02*
X0268551Y0273345D01*
X0269541Y0274944D02*
X0266660Y0274944D01*
X0267455Y0276542D02*
X0271140Y0276542D01*
X0273514Y0278141D02*
X0268117Y0278141D01*
X0252766Y0271747D02*
X0242098Y0271747D01*
X0239640Y0271747D02*
X0238878Y0271747D01*
X0238878Y0270148D02*
X0239640Y0270148D01*
X0239640Y0268550D02*
X0238878Y0268550D01*
X0238878Y0265353D02*
X0239640Y0265353D01*
X0239640Y0263754D02*
X0238878Y0263754D01*
X0243356Y0263754D02*
X0267405Y0263754D01*
X0266976Y0265353D02*
X0244275Y0265353D01*
X0236419Y0271747D02*
X0220733Y0271747D01*
X0221250Y0270148D02*
X0234792Y0270148D01*
X0234077Y0268550D02*
X0221250Y0268550D01*
X0220071Y0273345D02*
X0249828Y0273345D01*
X0248229Y0274944D02*
X0218808Y0274944D01*
X0217198Y0276542D02*
X0247435Y0276542D01*
X0246773Y0278141D02*
X0018148Y0278141D01*
X0014901Y0282937D02*
X0008409Y0282937D01*
X0008412Y0284535D02*
X0010172Y0284535D01*
X0008406Y0281338D02*
X0246664Y0281338D01*
X0246664Y0282937D02*
X0134599Y0282937D01*
X0139328Y0284535D02*
X0246664Y0284535D01*
X0246774Y0286134D02*
X0142097Y0286134D01*
X0143884Y0287732D02*
X0247436Y0287732D01*
X0248232Y0289331D02*
X0200001Y0289331D01*
X0199604Y0288934D02*
X0206516Y0295846D01*
X0206516Y0305621D01*
X0199604Y0312534D01*
X0189828Y0312534D01*
X0182916Y0305621D01*
X0182916Y0295846D01*
X0189828Y0288934D01*
X0199604Y0288934D01*
X0201599Y0290929D02*
X0249831Y0290929D01*
X0252774Y0292528D02*
X0203198Y0292528D01*
X0204796Y0294126D02*
X0254869Y0294126D01*
X0256467Y0295725D02*
X0206395Y0295725D01*
X0206516Y0297323D02*
X0258066Y0297323D01*
X0259664Y0298922D02*
X0228662Y0298922D01*
X0232960Y0300520D02*
X0261263Y0300520D01*
X0262861Y0302119D02*
X0235728Y0302119D01*
X0237358Y0303717D02*
X0264460Y0303717D01*
X0266059Y0305316D02*
X0238956Y0305316D01*
X0240026Y0306914D02*
X0267657Y0306914D01*
X0264114Y0308513D02*
X0240948Y0308513D01*
X0241821Y0310111D02*
X0261168Y0310111D01*
X0258862Y0311710D02*
X0242249Y0311710D01*
X0242678Y0313308D02*
X0257264Y0313308D01*
X0255805Y0314907D02*
X0243059Y0314907D01*
X0243059Y0316505D02*
X0254882Y0316505D01*
X0253959Y0318104D02*
X0243059Y0318104D01*
X0243059Y0319702D02*
X0253295Y0319702D01*
X0252867Y0321301D02*
X0243059Y0321301D01*
X0243059Y0322899D02*
X0252439Y0322899D01*
X0252239Y0324498D02*
X0243059Y0324498D01*
X0243059Y0326096D02*
X0252239Y0326096D01*
X0252239Y0327695D02*
X0243059Y0327695D01*
X0243059Y0329293D02*
X0252239Y0329293D01*
X0252239Y0330892D02*
X0243059Y0330892D01*
X0243059Y0332490D02*
X0252239Y0332490D01*
X0252239Y0334089D02*
X0243059Y0334089D01*
X0243059Y0335687D02*
X0252239Y0335687D01*
X0252239Y0337286D02*
X0243059Y0337286D01*
X0243059Y0338884D02*
X0252239Y0338884D01*
X0252239Y0340483D02*
X0243059Y0340483D01*
X0243059Y0342081D02*
X0252239Y0342081D01*
X0252239Y0343680D02*
X0243059Y0343680D01*
X0243059Y0345278D02*
X0252239Y0345278D01*
X0252239Y0346877D02*
X0243059Y0346877D01*
X0243059Y0348475D02*
X0252239Y0348475D01*
X0252239Y0350074D02*
X0243059Y0350074D01*
X0243059Y0351672D02*
X0252239Y0351672D01*
X0252239Y0353271D02*
X0242763Y0353271D01*
X0205459Y0329293D02*
X0193153Y0329293D01*
X0193153Y0327695D02*
X0205459Y0327695D01*
X0205459Y0326096D02*
X0193153Y0326096D01*
X0192847Y0324498D02*
X0205459Y0324498D01*
X0205459Y0322899D02*
X0191248Y0322899D01*
X0189650Y0321301D02*
X0205459Y0321301D01*
X0205459Y0319702D02*
X0188051Y0319702D01*
X0186453Y0318104D02*
X0205459Y0318104D01*
X0205459Y0316505D02*
X0142498Y0316505D01*
X0144116Y0314907D02*
X0205459Y0314907D01*
X0205840Y0313308D02*
X0145714Y0313308D01*
X0146776Y0311710D02*
X0189005Y0311710D01*
X0187406Y0310111D02*
X0147699Y0310111D01*
X0148567Y0308513D02*
X0185807Y0308513D01*
X0184209Y0306914D02*
X0148995Y0306914D01*
X0149423Y0305316D02*
X0152510Y0305316D01*
X0152728Y0305534D02*
X0149916Y0302722D01*
X0149916Y0300934D01*
X0154516Y0300934D01*
X0154516Y0305534D01*
X0152728Y0305534D01*
X0154516Y0305316D02*
X0154916Y0305316D01*
X0154916Y0305534D02*
X0156704Y0305534D01*
X0159516Y0302722D01*
X0159516Y0300934D01*
X0154916Y0300934D01*
X0154516Y0300934D01*
X0154516Y0300534D01*
X0149916Y0300534D01*
X0149916Y0298745D01*
X0152728Y0295934D01*
X0154516Y0295934D01*
X0154516Y0300534D01*
X0154916Y0300534D01*
X0154916Y0300934D01*
X0154916Y0305534D01*
X0154916Y0303717D02*
X0154516Y0303717D01*
X0154516Y0302119D02*
X0154916Y0302119D01*
X0154916Y0300534D02*
X0159516Y0300534D01*
X0159516Y0298745D01*
X0156704Y0295934D01*
X0154916Y0295934D01*
X0154916Y0300534D01*
X0154916Y0300520D02*
X0154516Y0300520D01*
X0154516Y0298922D02*
X0154916Y0298922D01*
X0154916Y0297323D02*
X0154516Y0297323D01*
X0151338Y0297323D02*
X0149361Y0297323D01*
X0148933Y0295725D02*
X0183037Y0295725D01*
X0182916Y0297323D02*
X0158094Y0297323D01*
X0159516Y0298922D02*
X0182916Y0298922D01*
X0182916Y0300520D02*
X0159516Y0300520D01*
X0159516Y0302119D02*
X0182916Y0302119D01*
X0182916Y0303717D02*
X0158521Y0303717D01*
X0156922Y0305316D02*
X0182916Y0305316D01*
X0184636Y0294126D02*
X0148488Y0294126D01*
X0147565Y0292528D02*
X0186234Y0292528D01*
X0187833Y0290929D02*
X0146643Y0290929D01*
X0145482Y0289331D02*
X0189432Y0289331D01*
X0206516Y0298922D02*
X0219856Y0298922D01*
X0215558Y0300520D02*
X0206516Y0300520D01*
X0206516Y0302119D02*
X0212789Y0302119D01*
X0211159Y0303717D02*
X0206516Y0303717D01*
X0206516Y0305316D02*
X0209561Y0305316D01*
X0208492Y0306914D02*
X0205223Y0306914D01*
X0203625Y0308513D02*
X0207569Y0308513D01*
X0206696Y0310111D02*
X0202026Y0310111D01*
X0200428Y0311710D02*
X0206268Y0311710D01*
X0176253Y0318104D02*
X0158306Y0318104D01*
X0159905Y0319702D02*
X0174654Y0319702D01*
X0173056Y0321301D02*
X0161503Y0321301D01*
X0163102Y0322899D02*
X0171457Y0322899D01*
X0169859Y0324498D02*
X0164700Y0324498D01*
X0164978Y0326096D02*
X0169553Y0326096D01*
X0169553Y0327695D02*
X0164978Y0327695D01*
X0164978Y0329293D02*
X0169553Y0329293D01*
X0148049Y0318104D02*
X0139729Y0318104D01*
X0135464Y0319702D02*
X0146451Y0319702D01*
X0144852Y0321301D02*
X0134716Y0321301D01*
X0136314Y0322899D02*
X0143254Y0322899D01*
X0141655Y0324498D02*
X0137721Y0324498D01*
X0137721Y0326096D02*
X0141378Y0326096D01*
X0141378Y0327695D02*
X0137721Y0327695D01*
X0137721Y0329293D02*
X0141378Y0329293D01*
X0149800Y0303717D02*
X0150911Y0303717D01*
X0149916Y0302119D02*
X0149800Y0302119D01*
X0149800Y0300520D02*
X0149916Y0300520D01*
X0149916Y0298922D02*
X0149790Y0298922D01*
X0127401Y0282937D02*
X0104599Y0282937D01*
X0109328Y0284535D02*
X0122672Y0284535D01*
X0097401Y0282937D02*
X0052099Y0282937D01*
X0056828Y0284535D02*
X0092672Y0284535D01*
X0089903Y0286134D02*
X0059597Y0286134D01*
X0061384Y0287732D02*
X0088116Y0287732D01*
X0086518Y0289331D02*
X0062982Y0289331D01*
X0064143Y0290929D02*
X0084955Y0290929D01*
X0083821Y0292528D02*
X0065065Y0292528D01*
X0065988Y0294126D02*
X0082898Y0294126D01*
X0082155Y0295725D02*
X0066433Y0295725D01*
X0066861Y0297323D02*
X0081727Y0297323D01*
X0081299Y0298922D02*
X0067290Y0298922D01*
X0067300Y0300520D02*
X0081200Y0300520D01*
X0081200Y0302119D02*
X0067300Y0302119D01*
X0067300Y0303717D02*
X0081236Y0303717D01*
X0081665Y0305316D02*
X0066923Y0305316D01*
X0066495Y0306914D02*
X0082093Y0306914D01*
X0082765Y0308513D02*
X0066067Y0308513D01*
X0065199Y0310111D02*
X0083687Y0310111D01*
X0084700Y0311710D02*
X0064800Y0311710D01*
X0064800Y0313308D02*
X0084700Y0313308D01*
X0084700Y0314907D02*
X0064800Y0314907D01*
X0064800Y0316505D02*
X0084700Y0316505D01*
X0084700Y0318104D02*
X0064800Y0318104D01*
X0064800Y0319702D02*
X0084700Y0319702D01*
X0084700Y0321301D02*
X0064800Y0321301D01*
X0064800Y0322899D02*
X0084700Y0322899D01*
X0084700Y0324498D02*
X0064800Y0324498D01*
X0064800Y0326096D02*
X0084700Y0326096D01*
X0084700Y0327695D02*
X0064800Y0327695D01*
X0064800Y0329293D02*
X0084700Y0329293D01*
X0084700Y0330892D02*
X0064800Y0330892D01*
X0064800Y0332490D02*
X0084700Y0332490D01*
X0084700Y0334089D02*
X0064800Y0334089D01*
X0064800Y0335687D02*
X0084700Y0335687D01*
X0084700Y0337286D02*
X0064800Y0337286D01*
X0064800Y0338884D02*
X0084700Y0338884D01*
X0084700Y0340483D02*
X0064800Y0340483D01*
X0064800Y0342081D02*
X0084700Y0342081D01*
X0084700Y0343680D02*
X0064800Y0343680D01*
X0064800Y0345278D02*
X0084700Y0345278D01*
X0084700Y0346877D02*
X0064800Y0346877D01*
X0064530Y0348475D02*
X0084700Y0348475D01*
X0084700Y0350074D02*
X0064102Y0350074D01*
X0063656Y0351672D02*
X0084700Y0351672D01*
X0084700Y0353271D02*
X0062733Y0353271D01*
X0061810Y0354870D02*
X0084700Y0354870D01*
X0084700Y0356468D02*
X0060406Y0356468D01*
X0058808Y0358067D02*
X0084700Y0358067D01*
X0084700Y0359665D02*
X0056259Y0359665D01*
X0051987Y0361264D02*
X0084700Y0361264D01*
X0171574Y0425204D02*
X0275950Y0425204D01*
X0275950Y0426803D02*
X0171145Y0426803D01*
X0170717Y0428401D02*
X0275950Y0428401D01*
X0275950Y0430000D02*
X0169818Y0430000D01*
X0168895Y0431598D02*
X0275950Y0431598D01*
X0275950Y0433197D02*
X0167789Y0433197D01*
X0166190Y0434795D02*
X0276857Y0434795D01*
X0278456Y0436394D02*
X0164497Y0436394D01*
X0165657Y0437992D02*
X0280054Y0437992D01*
X0281653Y0439591D02*
X0166580Y0439591D01*
X0167503Y0441189D02*
X0300256Y0441189D01*
X0299434Y0442788D02*
X0168035Y0442788D01*
X0168463Y0444386D02*
X0299006Y0444386D01*
X0298578Y0445985D02*
X0168891Y0445985D01*
X0168977Y0447583D02*
X0298500Y0447583D01*
X0298500Y0449182D02*
X0168977Y0449182D01*
X0168977Y0450780D02*
X0298649Y0450780D01*
X0299077Y0452379D02*
X0168800Y0452379D01*
X0168800Y0453977D02*
X0299505Y0453977D01*
X0300409Y0455576D02*
X0168800Y0455576D01*
X0168800Y0457174D02*
X0301332Y0457174D01*
X0302810Y0458773D02*
X0186187Y0458773D01*
X0191373Y0460371D02*
X0304495Y0460371D01*
X0307263Y0461970D02*
X0194142Y0461970D01*
X0171978Y0423605D02*
X0224055Y0423605D01*
X0221287Y0422007D02*
X0171978Y0422007D01*
X0171978Y0420408D02*
X0219169Y0420408D01*
X0217570Y0418810D02*
X0210086Y0418810D01*
X0214229Y0417211D02*
X0216219Y0417211D01*
X0205383Y0418810D02*
X0171978Y0418810D01*
X0171978Y0417211D02*
X0201240Y0417211D01*
X0199081Y0415613D02*
X0171978Y0415613D01*
X0171978Y0414014D02*
X0197508Y0414014D01*
X0196585Y0412416D02*
X0171978Y0412416D01*
X0171978Y0410817D02*
X0195771Y0410817D01*
X0195343Y0409219D02*
X0171978Y0409219D01*
X0171978Y0407620D02*
X0194997Y0407620D01*
X0194997Y0406022D02*
X0171978Y0406022D01*
X0171978Y0404423D02*
X0195039Y0404423D01*
X0195467Y0402825D02*
X0171978Y0402825D01*
X0171978Y0401226D02*
X0195930Y0401226D01*
X0196853Y0399628D02*
X0171978Y0399628D01*
X0171978Y0398029D02*
X0197946Y0398029D01*
X0199545Y0396431D02*
X0171978Y0396431D01*
X0171978Y0394832D02*
X0202043Y0394832D01*
X0212801Y0393234D02*
X0171978Y0393234D01*
X0171978Y0391635D02*
X0212801Y0391635D01*
X0188228Y0390037D02*
X0171978Y0390037D01*
X0171978Y0388438D02*
X0185456Y0388438D01*
X0183214Y0386840D02*
X0173269Y0386840D01*
X0175805Y0385241D02*
X0181616Y0385241D01*
X0180194Y0383643D02*
X0177403Y0383643D01*
X0178799Y0382044D02*
X0179271Y0382044D01*
X0239147Y0423605D02*
X0276457Y0423605D01*
X0278055Y0422007D02*
X0255228Y0422007D01*
X0259125Y0420408D02*
X0279654Y0420408D01*
X0293847Y0439591D02*
X0301179Y0439591D01*
X0313300Y0471561D02*
X0313700Y0471561D01*
X0313700Y0473159D02*
X0313300Y0473159D01*
X0313300Y0474758D02*
X0313700Y0474758D01*
X0313700Y0476356D02*
X0313300Y0476356D01*
X0313300Y0477955D02*
X0313700Y0477955D01*
X0313700Y0479553D02*
X0313300Y0479553D01*
X0313300Y0481152D02*
X0313700Y0481152D01*
X0313700Y0482750D02*
X0313300Y0482750D01*
X0313300Y0484349D02*
X0313700Y0484349D01*
X0313700Y0485947D02*
X0313300Y0485947D01*
X0251324Y0481152D02*
X0250759Y0481152D01*
X0250759Y0479553D02*
X0251324Y0479553D01*
X0251324Y0477955D02*
X0250759Y0477955D01*
X0250759Y0476356D02*
X0251324Y0476356D01*
X0251324Y0474758D02*
X0250759Y0474758D01*
X0250759Y0473159D02*
X0251324Y0473159D01*
X0322534Y0398029D02*
X0323740Y0398029D01*
X0325339Y0396431D02*
X0321612Y0396431D01*
X0320232Y0394832D02*
X0326937Y0394832D01*
X0328536Y0393234D02*
X0318301Y0393234D01*
X0316700Y0391635D02*
X0330655Y0391635D01*
X0328713Y0390037D02*
X0315537Y0390037D01*
X0309561Y0388438D02*
X0281033Y0388438D01*
X0385600Y0386840D02*
X0388230Y0386840D01*
X0385600Y0385241D02*
X0390999Y0385241D01*
X0246664Y0279739D02*
X0008403Y0279739D01*
X0022099Y0282937D02*
X0044901Y0282937D01*
X0040172Y0284535D02*
X0026828Y0284535D01*
X0406104Y0254163D02*
X0419950Y0254163D01*
X0419950Y0252565D02*
X0408522Y0252565D01*
D30*
X0077500Y0327500D03*
D31*
X0072500Y0322500D01*
X0063747Y0212766D02*
X0063569Y0212766D01*
X0063569Y0197917D01*
X0142341Y0188685D02*
X0142341Y0188354D01*
X0142341Y0188685D02*
X0153343Y0188685D01*
X0224727Y0127158D02*
X0224727Y0116294D01*
X0224727Y0127158D02*
X0238685Y0127315D01*
X0254912Y0127158D01*
X0254431Y0127158D01*
X0254431Y0141046D01*
X0246942Y0141046D01*
X0249452Y0126741D02*
X0254912Y0127158D01*
X0255486Y0117158D02*
X0255486Y0101969D01*
X0272361Y0102143D01*
X0272361Y0114317D01*
X0282361Y0114317D02*
X0282628Y0114317D01*
X0282628Y0100980D01*
X0256938Y0116864D02*
X0254912Y0116864D01*
X0249452Y0116741D01*
X0255486Y0117158D02*
X0256938Y0117158D01*
X0256938Y0116864D01*
X0256938Y0117158D02*
X0238685Y0117315D01*
X0295000Y0280000D02*
X0295000Y0285166D01*
X0328250Y0376750D02*
X0330250Y0378750D01*
X0333750Y0378750D01*
X0347500Y0392500D01*
X0347500Y0405000D01*
X0364250Y0421750D01*
X0366000Y0421750D01*
X0366250Y0422000D01*
X0366250Y0433750D01*
X0361437Y0433750D01*
X0351437Y0433750D02*
X0339750Y0433750D01*
X0336000Y0430000D01*
X0311250Y0430000D01*
X0311250Y0403250D01*
X0311750Y0403250D01*
X0306000Y0409000D01*
X0287750Y0409000D01*
X0291687Y0409000D01*
X0323000Y0412250D02*
X0325500Y0412250D01*
X0336000Y0401750D01*
X0336000Y0411750D02*
X0325500Y0422250D01*
X0323000Y0422250D01*
X0336000Y0421750D02*
X0336000Y0430000D01*
X0366000Y0411750D02*
X0375500Y0421250D01*
X0375500Y0434000D01*
X0375500Y0445687D01*
X0376063Y0446250D01*
X0386063Y0446250D02*
X0386063Y0434563D01*
X0385500Y0434000D01*
X0386063Y0446250D02*
X0418500Y0446250D01*
X0437000Y0464750D01*
X0518000Y0484250D02*
X0560000Y0484250D01*
X0563750Y0488000D01*
X0518000Y0484250D02*
X0518000Y0494313D01*
X0517563Y0494750D01*
X0543100Y0444000D02*
X0543100Y0443400D01*
X0543100Y0444000D02*
X0563750Y0444000D01*
X0556500Y0398000D02*
X0536500Y0398000D01*
X0516500Y0398000D01*
X0496500Y0398000D01*
X0556500Y0398000D02*
X0576500Y0398000D01*
X0562873Y0186939D02*
X0562873Y0183642D01*
X0554032Y0174801D01*
X0548679Y0174801D01*
X0543027Y0169150D01*
X0568802Y0143376D01*
X0568802Y0136535D01*
X0574904Y0106733D02*
X0574904Y0104904D01*
X0570000Y0100000D01*
X0570000Y0099639D01*
X0581103Y0088536D01*
X0587876Y0081763D01*
X0593311Y0081763D01*
D32*
X0319266Y0285166D02*
X0295000Y0285166D01*
D33*
X0294259Y0326120D02*
X0271039Y0326120D01*
X0271039Y0372500D01*
X0252630Y0372500D01*
X0252630Y0372516D01*
X0231601Y0372516D01*
X0231601Y0406254D01*
X0231601Y0372516D02*
X0195478Y0372516D01*
X0181353Y0349692D02*
X0224259Y0349692D01*
X0224259Y0317205D01*
X0181353Y0349663D02*
X0153178Y0349663D01*
X0125921Y0349663D01*
X0153178Y0349663D02*
X0153178Y0372500D01*
X0153178Y0372516D02*
X0153178Y0421220D01*
X0150177Y0448780D02*
X0150000Y0448780D01*
X0150000Y0477500D01*
X0183441Y0477500D01*
X0180175Y0477120D01*
X0294259Y0327205D02*
X0294259Y0326120D01*
X0294259Y0327205D02*
X0295000Y0327205D01*
X0396500Y0238000D02*
X0396500Y0199162D01*
X0359586Y0199162D01*
X0357395Y0196971D01*
X0354554Y0196971D01*
X0332114Y0219412D01*
X0281304Y0219412D01*
X0281304Y0195790D02*
X0281233Y0162513D01*
X0351274Y0163499D02*
X0351274Y0198033D01*
X0359586Y0199162D01*
X0427834Y0175235D02*
X0426484Y0164829D01*
X0426341Y0163479D01*
X0427834Y0175235D02*
X0476500Y0175235D01*
X0476500Y0238000D01*
X0476500Y0175235D02*
X0476500Y0163513D01*
X0474793Y0163513D01*
X0200585Y0160142D02*
X0187500Y0160142D01*
X0187500Y0135000D01*
X0054806Y0135000D01*
X0030528Y0110722D01*
X0456500Y0398000D02*
X0456500Y0435000D01*
X0481250Y0435000D01*
X0481250Y0464750D01*
X0481000Y0464750D01*
X0481002Y0464818D01*
X0481007Y0464885D01*
X0481016Y0464952D01*
X0481029Y0465019D01*
X0481046Y0465084D01*
X0481065Y0465149D01*
X0481089Y0465213D01*
X0481116Y0465275D01*
X0481146Y0465336D01*
X0481179Y0465394D01*
X0481215Y0465451D01*
X0481255Y0465506D01*
X0481297Y0465559D01*
X0481343Y0465610D01*
X0481390Y0465657D01*
X0481441Y0465703D01*
X0481494Y0465745D01*
X0481549Y0465785D01*
X0481606Y0465821D01*
X0481664Y0465854D01*
X0481725Y0465884D01*
X0481787Y0465911D01*
X0481851Y0465935D01*
X0481916Y0465954D01*
X0481981Y0465971D01*
X0482048Y0465984D01*
X0482115Y0465993D01*
X0482182Y0465998D01*
X0482250Y0466000D01*
X0563750Y0466000D01*
D34*
X0436250Y0295000D02*
X0436250Y0238000D01*
X0436500Y0238000D01*
X0281233Y0162513D02*
X0281381Y0160142D01*
X0202629Y0160142D01*
X0200585Y0160142D01*
X0200585Y0188469D01*
X0193343Y0188469D01*
X0193343Y0188685D01*
X0200585Y0188469D02*
X0200585Y0222029D01*
X0199871Y0222029D01*
X0199871Y0255322D01*
X0194844Y0255322D01*
X0131000Y0301435D02*
X0101000Y0301435D01*
X0101000Y0377803D01*
X0018874Y0377803D01*
X0018874Y0345323D02*
X0048500Y0345323D01*
X0048500Y0301435D01*
X0018500Y0301435D01*
X0097500Y0301435D02*
X0101000Y0301435D01*
X0125921Y0349194D02*
X0125921Y0349663D01*
X0153178Y0372500D02*
X0153178Y0372516D01*
X0165478Y0372516D01*
X0181353Y0349692D02*
X0181353Y0349663D01*
X0231601Y0406254D02*
X0251042Y0406254D01*
X0153178Y0421220D02*
X0150177Y0421220D01*
X0067500Y0421220D02*
X0040000Y0421220D01*
X0040000Y0442764D01*
X0018874Y0442764D01*
X0018874Y0475244D02*
X0067500Y0475244D01*
X0067500Y0448780D01*
D35*
X0366000Y0401750D02*
X0375300Y0401750D01*
X0392750Y0401750D01*
X0396500Y0398000D01*
X0416500Y0398000D01*
X0436500Y0398000D01*
X0456500Y0398000D01*
X0476500Y0398000D01*
X0514200Y0400300D02*
X0516500Y0398000D01*
X0476500Y0238000D02*
X0456500Y0238000D01*
X0416500Y0238000D02*
X0396500Y0238000D01*
D36*
X0336150Y0275947D02*
X0331213Y0271010D01*
X0336150Y0275947D02*
X0336150Y0290250D01*
X0353700Y0307800D01*
X0364500Y0307800D01*
X0364500Y0330634D01*
X0352752Y0330634D01*
X0329289Y0302593D02*
X0300552Y0302593D01*
X0300552Y0299126D01*
X0274435Y0299126D01*
X0257445Y0282136D01*
X0328250Y0356750D02*
X0328250Y0368750D01*
X0332100Y0372600D01*
X0361800Y0372600D01*
X0375300Y0386100D01*
X0375300Y0401750D01*
D37*
X0496500Y0238000D02*
X0516500Y0238000D01*
X0529200Y0213150D01*
X0529200Y0197100D01*
X0538705Y0187595D01*
X0542634Y0187595D01*
X0543291Y0186939D01*
X0552873Y0186939D01*
X0562873Y0186939D02*
X0563978Y0188044D01*
X0573217Y0188044D01*
X0573217Y0198044D02*
X0570340Y0200922D01*
X0563331Y0200922D01*
X0563331Y0233569D01*
X0558900Y0238000D01*
X0576500Y0238000D01*
X0558900Y0238000D02*
X0556500Y0238000D01*
X0553331Y0200922D02*
X0550005Y0197595D01*
X0542634Y0197595D01*
D38*
X0536500Y0238000D02*
X0536500Y0295000D01*
X0436250Y0295000D01*
D39*
X0004960Y0200000D02*
X0004706Y0059046D01*
X0514706Y0059046D01*
X0513083Y0060669D01*
X0512093Y0063058D01*
X0512093Y0066220D01*
X0510693Y0067620D01*
X0510693Y0072993D01*
X0505321Y0072993D01*
X0500693Y0077620D01*
X0500693Y0084165D01*
X0505321Y0088792D01*
X0511865Y0088792D01*
X0513265Y0087392D01*
X0519886Y0087392D01*
X0522275Y0086403D01*
X0523357Y0085320D01*
X0523357Y0090739D01*
X0527985Y0095367D01*
X0534530Y0095367D01*
X0536257Y0093639D01*
X0537985Y0095367D01*
X0544530Y0095367D01*
X0549157Y0090739D01*
X0549157Y0084194D01*
X0544530Y0079567D01*
X0537985Y0079567D01*
X0536257Y0081294D01*
X0534530Y0079567D01*
X0527985Y0079567D01*
X0524900Y0082652D01*
X0525093Y0082185D01*
X0525093Y0075565D01*
X0526493Y0074165D01*
X0526493Y0070851D01*
X0605454Y0070851D01*
X0605454Y0077330D01*
X0605237Y0077113D01*
X0603611Y0077113D01*
X0603611Y0081463D01*
X0603010Y0081463D01*
X0603010Y0077113D01*
X0601384Y0077113D01*
X0600934Y0077563D01*
X0600644Y0076863D01*
X0598210Y0074430D01*
X0595031Y0073113D01*
X0591590Y0073113D01*
X0590021Y0073763D01*
X0586285Y0073763D01*
X0583345Y0074981D01*
X0581094Y0077231D01*
X0577408Y0080917D01*
X0576315Y0081370D01*
X0574468Y0083217D01*
X0571703Y0080453D01*
X0565159Y0080453D01*
X0560603Y0085009D01*
X0560046Y0084453D01*
X0558731Y0084453D01*
X0558731Y0088053D01*
X0558131Y0088053D01*
X0554531Y0088053D01*
X0554531Y0086737D01*
X0556816Y0084453D01*
X0558131Y0084453D01*
X0558131Y0088053D01*
X0558131Y0088653D01*
X0558131Y0092253D01*
X0556816Y0092253D01*
X0554531Y0089968D01*
X0554531Y0088653D01*
X0558131Y0088653D01*
X0558731Y0088653D01*
X0558731Y0092253D01*
X0560046Y0092253D01*
X0560603Y0091696D01*
X0563616Y0094710D01*
X0563218Y0095107D01*
X0562000Y0098048D01*
X0562000Y0101591D01*
X0563218Y0104532D01*
X0565468Y0106782D01*
X0566452Y0107765D01*
X0566452Y0108414D01*
X0567738Y0111521D01*
X0567950Y0111733D01*
X0567738Y0111945D01*
X0566452Y0115052D01*
X0566452Y0118414D01*
X0567738Y0121521D01*
X0570116Y0123899D01*
X0573223Y0125186D01*
X0576586Y0125186D01*
X0579692Y0123899D01*
X0582070Y0121521D01*
X0583357Y0118414D01*
X0583357Y0115052D01*
X0582070Y0111945D01*
X0581858Y0111733D01*
X0582070Y0111521D01*
X0583357Y0108414D01*
X0583357Y0106752D01*
X0583934Y0106513D01*
X0583575Y0107378D01*
X0583575Y0110819D01*
X0584892Y0113999D01*
X0587326Y0116432D01*
X0588026Y0116722D01*
X0587575Y0117173D01*
X0587575Y0118799D01*
X0591925Y0118799D01*
X0591925Y0119399D01*
X0587575Y0119399D01*
X0587575Y0121025D01*
X0590299Y0123749D01*
X0591925Y0123749D01*
X0591925Y0119399D01*
X0592525Y0119399D01*
X0592525Y0123749D01*
X0594152Y0123749D01*
X0596875Y0121025D01*
X0596875Y0119399D01*
X0592526Y0119399D01*
X0592526Y0118799D01*
X0596875Y0118799D01*
X0596875Y0117173D01*
X0596425Y0116722D01*
X0597125Y0116432D01*
X0599559Y0113999D01*
X0600875Y0110819D01*
X0600875Y0107378D01*
X0600523Y0106527D01*
X0601005Y0107010D01*
X0607550Y0107010D01*
X0608950Y0105610D01*
X0613246Y0105610D01*
X0615636Y0104620D01*
X0617464Y0102792D01*
X0618454Y0100403D01*
X0618454Y0063058D01*
X0617464Y0060669D01*
X0615840Y0059046D01*
X0618706Y0059046D01*
X0618960Y0200000D01*
X0582149Y0200000D01*
X0582217Y0199834D01*
X0582217Y0196254D01*
X0580888Y0193044D01*
X0582217Y0189834D01*
X0582217Y0186254D01*
X0580847Y0182946D01*
X0578315Y0180414D01*
X0575007Y0179044D01*
X0569588Y0179044D01*
X0562260Y0171716D01*
X0568978Y0171716D01*
X0573957Y0166737D01*
X0573957Y0159695D01*
X0568978Y0154716D01*
X0568775Y0154716D01*
X0575584Y0147907D01*
X0576802Y0144967D01*
X0576802Y0141111D01*
X0576876Y0141185D01*
X0578502Y0141185D01*
X0578502Y0136835D01*
X0579102Y0136835D01*
X0583452Y0136835D01*
X0583452Y0138461D01*
X0580728Y0141185D01*
X0579102Y0141185D01*
X0579102Y0136835D01*
X0579102Y0136235D01*
X0579102Y0131885D01*
X0580728Y0131885D01*
X0583452Y0134609D01*
X0583452Y0136235D01*
X0579102Y0136235D01*
X0578502Y0136235D01*
X0578502Y0131885D01*
X0576876Y0131885D01*
X0576425Y0132336D01*
X0576135Y0131635D01*
X0573702Y0129202D01*
X0570523Y0127885D01*
X0567081Y0127885D01*
X0563902Y0129202D01*
X0561469Y0131635D01*
X0560152Y0134815D01*
X0560152Y0138256D01*
X0560802Y0139825D01*
X0560802Y0140062D01*
X0540214Y0160650D01*
X0539507Y0160650D01*
X0534527Y0165629D01*
X0534527Y0172671D01*
X0539507Y0177650D01*
X0540214Y0177650D01*
X0540795Y0178231D01*
X0539915Y0178595D01*
X0536915Y0178595D01*
X0533607Y0179965D01*
X0524102Y0189470D01*
X0521570Y0192002D01*
X0520200Y0195310D01*
X0520200Y0200000D01*
X0492000Y0200000D01*
X0492000Y0172979D01*
X0494012Y0174141D01*
X0496913Y0174918D01*
X0499916Y0174918D01*
X0502817Y0174141D01*
X0505418Y0172640D01*
X0507541Y0170516D01*
X0509043Y0167915D01*
X0509820Y0165014D01*
X0509820Y0162011D01*
X0509043Y0159111D01*
X0507541Y0156510D01*
X0505418Y0154386D01*
X0502817Y0152885D01*
X0499916Y0152107D01*
X0496913Y0152107D01*
X0494012Y0152885D01*
X0491412Y0154386D01*
X0489964Y0155834D01*
X0488903Y0153996D01*
X0486017Y0151110D01*
X0482483Y0149069D01*
X0478541Y0148013D01*
X0475624Y0148013D01*
X0477306Y0146331D01*
X0479066Y0143281D01*
X0479978Y0139880D01*
X0479978Y0136358D01*
X0479066Y0132957D01*
X0477306Y0129907D01*
X0474816Y0127417D01*
X0471766Y0125657D01*
X0468364Y0124745D01*
X0464843Y0124745D01*
X0461442Y0125657D01*
X0458392Y0127417D01*
X0455902Y0129907D01*
X0454141Y0132957D01*
X0453230Y0136358D01*
X0453230Y0139880D01*
X0454141Y0143281D01*
X0455902Y0146331D01*
X0458392Y0148821D01*
X0461442Y0150582D01*
X0464843Y0151493D01*
X0464892Y0151493D01*
X0462390Y0153996D01*
X0460349Y0157530D01*
X0459758Y0159735D01*
X0441508Y0159735D01*
X0440074Y0156008D01*
X0437672Y0152708D01*
X0436128Y0151459D01*
X0436291Y0151459D01*
X0439692Y0150548D01*
X0442742Y0148787D01*
X0445232Y0146297D01*
X0446992Y0143247D01*
X0447904Y0139846D01*
X0447904Y0136324D01*
X0446992Y0132923D01*
X0445232Y0129873D01*
X0442742Y0127383D01*
X0439692Y0125622D01*
X0436291Y0124711D01*
X0432769Y0124711D01*
X0429368Y0125622D01*
X0426318Y0127383D01*
X0423828Y0129873D01*
X0422067Y0132923D01*
X0421156Y0136324D01*
X0421156Y0139846D01*
X0422067Y0143247D01*
X0423828Y0146297D01*
X0425511Y0147980D01*
X0422679Y0148280D01*
X0418870Y0149746D01*
X0415570Y0152147D01*
X0413004Y0155321D01*
X0412210Y0157108D01*
X0411846Y0156475D01*
X0409722Y0154352D01*
X0407121Y0152850D01*
X0404220Y0152073D01*
X0401217Y0152073D01*
X0398316Y0152850D01*
X0395716Y0154352D01*
X0393592Y0156475D01*
X0392091Y0159076D01*
X0391313Y0161977D01*
X0391313Y0164980D01*
X0392091Y0167881D01*
X0393592Y0170482D01*
X0395716Y0172605D01*
X0398316Y0174107D01*
X0401217Y0174884D01*
X0404220Y0174884D01*
X0407121Y0174107D01*
X0409722Y0172605D01*
X0411617Y0170710D01*
X0412334Y0176236D01*
X0412334Y0177275D01*
X0412595Y0178251D01*
X0412725Y0179253D01*
X0413121Y0180214D01*
X0413390Y0181218D01*
X0413895Y0182092D01*
X0414280Y0183026D01*
X0414911Y0183852D01*
X0415431Y0184752D01*
X0416145Y0185466D01*
X0416758Y0186269D01*
X0417582Y0186903D01*
X0418317Y0187638D01*
X0419191Y0188143D01*
X0419991Y0188759D01*
X0420951Y0189159D01*
X0421851Y0189679D01*
X0422827Y0189940D01*
X0423759Y0190328D01*
X0424789Y0190466D01*
X0425793Y0190735D01*
X0426803Y0190735D01*
X0427804Y0190869D01*
X0428835Y0190735D01*
X0461000Y0190735D01*
X0461000Y0200000D01*
X0412000Y0200000D01*
X0412000Y0197121D01*
X0410944Y0193179D01*
X0408903Y0189645D01*
X0406017Y0186759D01*
X0402483Y0184718D01*
X0398541Y0183662D01*
X0366774Y0183662D01*
X0366774Y0161458D01*
X0365717Y0157516D01*
X0363677Y0153982D01*
X0361174Y0151479D01*
X0361223Y0151479D01*
X0364625Y0150568D01*
X0367675Y0148807D01*
X0370165Y0146317D01*
X0371925Y0143267D01*
X0372837Y0139866D01*
X0372837Y0136345D01*
X0371925Y0132943D01*
X0370165Y0129893D01*
X0367675Y0127403D01*
X0364625Y0125643D01*
X0361223Y0124731D01*
X0357702Y0124731D01*
X0354301Y0125643D01*
X0351251Y0127403D01*
X0348761Y0129893D01*
X0347000Y0132943D01*
X0346089Y0136345D01*
X0346089Y0139866D01*
X0347000Y0143267D01*
X0348761Y0146317D01*
X0350443Y0147999D01*
X0349233Y0147999D01*
X0345291Y0149055D01*
X0341757Y0151096D01*
X0338871Y0153982D01*
X0337099Y0157051D01*
X0336778Y0156496D01*
X0334655Y0154372D01*
X0332054Y0152871D01*
X0329153Y0152093D01*
X0326150Y0152093D01*
X0323249Y0152871D01*
X0320649Y0154372D01*
X0318525Y0156496D01*
X0317023Y0159097D01*
X0316246Y0161997D01*
X0316246Y0165000D01*
X0317023Y0167901D01*
X0318525Y0170502D01*
X0320649Y0172626D01*
X0323249Y0174127D01*
X0326150Y0174904D01*
X0329153Y0174904D01*
X0332054Y0174127D01*
X0334655Y0172626D01*
X0335774Y0171507D01*
X0335774Y0193832D01*
X0329605Y0200000D01*
X0296223Y0200000D01*
X0296809Y0197797D01*
X0296728Y0160439D01*
X0295664Y0156499D01*
X0293615Y0152969D01*
X0290723Y0150089D01*
X0287184Y0148056D01*
X0283240Y0147009D01*
X0279159Y0147017D01*
X0278699Y0147142D01*
X0259650Y0147142D01*
X0261213Y0145578D01*
X0262431Y0142637D01*
X0262431Y0130017D01*
X0262767Y0129355D01*
X0262791Y0129041D01*
X0262912Y0128749D01*
X0262912Y0128709D01*
X0262927Y0128672D01*
X0262915Y0127425D01*
X0263010Y0126181D01*
X0262912Y0125882D01*
X0262912Y0125567D01*
X0262896Y0125530D01*
X0262896Y0125490D01*
X0262407Y0124342D01*
X0262079Y0123340D01*
X0262619Y0122791D01*
X0263720Y0121690D01*
X0263734Y0121657D01*
X0263759Y0121631D01*
X0264342Y0120189D01*
X0264938Y0118749D01*
X0264938Y0118714D01*
X0264952Y0118681D01*
X0264950Y0118515D01*
X0265195Y0119105D01*
X0267572Y0121483D01*
X0270679Y0122770D01*
X0274042Y0122770D01*
X0277149Y0121483D01*
X0277361Y0121271D01*
X0277572Y0121483D01*
X0280679Y0122770D01*
X0284042Y0122770D01*
X0287149Y0121483D01*
X0289526Y0119105D01*
X0290813Y0115998D01*
X0290813Y0112636D01*
X0290628Y0112189D01*
X0290628Y0105212D01*
X0291278Y0104562D01*
X0291278Y0097397D01*
X0286839Y0092958D01*
X0286938Y0092764D01*
X0287164Y0092068D01*
X0287278Y0091345D01*
X0287278Y0091280D01*
X0282928Y0091280D01*
X0282928Y0090679D01*
X0282928Y0086330D01*
X0282994Y0086330D01*
X0283717Y0086444D01*
X0284413Y0086670D01*
X0285065Y0087002D01*
X0285658Y0087433D01*
X0286175Y0087950D01*
X0286605Y0088542D01*
X0286938Y0089195D01*
X0287164Y0089891D01*
X0287278Y0090614D01*
X0287278Y0090679D01*
X0282928Y0090679D01*
X0282328Y0090679D01*
X0282328Y0086330D01*
X0282262Y0086330D01*
X0281539Y0086444D01*
X0280843Y0086670D01*
X0280191Y0087002D01*
X0279599Y0087433D01*
X0279081Y0087950D01*
X0278651Y0088542D01*
X0278319Y0089195D01*
X0278093Y0089891D01*
X0277978Y0090614D01*
X0277978Y0090679D01*
X0282328Y0090679D01*
X0282328Y0091280D01*
X0277978Y0091280D01*
X0277978Y0091345D01*
X0278093Y0092068D01*
X0278319Y0092764D01*
X0278417Y0092958D01*
X0276271Y0095104D01*
X0275460Y0094767D01*
X0274034Y0094160D01*
X0273991Y0094159D01*
X0273952Y0094143D01*
X0272401Y0094143D01*
X0259763Y0094013D01*
X0259697Y0093947D01*
X0259795Y0093754D01*
X0260022Y0093058D01*
X0260136Y0092335D01*
X0260136Y0092269D01*
X0255786Y0092269D01*
X0255786Y0091669D01*
X0255786Y0087319D01*
X0255852Y0087319D01*
X0256575Y0087433D01*
X0257271Y0087660D01*
X0257923Y0087992D01*
X0258515Y0088422D01*
X0259033Y0088940D01*
X0259463Y0089532D01*
X0259795Y0090184D01*
X0260022Y0090880D01*
X0260136Y0091603D01*
X0260136Y0091669D01*
X0255786Y0091669D01*
X0255186Y0091669D01*
X0250836Y0091669D01*
X0250836Y0091603D01*
X0250951Y0090880D01*
X0251177Y0090184D01*
X0251509Y0089532D01*
X0251939Y0088940D01*
X0252457Y0088422D01*
X0253049Y0087992D01*
X0253701Y0087660D01*
X0254397Y0087433D01*
X0255120Y0087319D01*
X0255186Y0087319D01*
X0255186Y0091669D01*
X0255186Y0092269D01*
X0250836Y0092269D01*
X0250836Y0092335D01*
X0250951Y0093058D01*
X0251177Y0093754D01*
X0251275Y0093947D01*
X0246836Y0098386D01*
X0246836Y0105552D01*
X0247486Y0106202D01*
X0247486Y0108406D01*
X0245432Y0109257D01*
X0237025Y0109329D01*
X0236823Y0109415D01*
X0235413Y0109415D01*
X0234374Y0110454D01*
X0234096Y0110572D01*
X0232153Y0112548D01*
X0231609Y0112004D01*
X0231509Y0111763D01*
X0229259Y0109512D01*
X0229017Y0109412D01*
X0228071Y0108466D01*
X0228627Y0107910D01*
X0228627Y0106594D01*
X0225027Y0106594D01*
X0225027Y0105994D01*
X0225027Y0102394D01*
X0226342Y0102394D01*
X0228627Y0104679D01*
X0228627Y0105994D01*
X0225027Y0105994D01*
X0224427Y0105994D01*
X0224427Y0102394D01*
X0223112Y0102394D01*
X0220827Y0104679D01*
X0220827Y0105994D01*
X0224427Y0105994D01*
X0224427Y0106594D01*
X0220827Y0106594D01*
X0220827Y0107910D01*
X0221383Y0108466D01*
X0220437Y0109412D01*
X0220195Y0109512D01*
X0217945Y0111763D01*
X0217845Y0112004D01*
X0216827Y0113022D01*
X0216827Y0114462D01*
X0216727Y0114703D01*
X0216727Y0127113D01*
X0216710Y0128660D01*
X0216727Y0128703D01*
X0216727Y0128749D01*
X0217319Y0130179D01*
X0217894Y0131613D01*
X0217927Y0131647D01*
X0217945Y0131690D01*
X0219039Y0132784D01*
X0220120Y0133889D01*
X0220162Y0133907D01*
X0220195Y0133940D01*
X0221624Y0134532D01*
X0221657Y0134546D01*
X0215079Y0134546D01*
X0215079Y0077589D01*
X0325566Y0077589D01*
X0327036Y0079059D01*
X0333581Y0079059D01*
X0338209Y0074431D01*
X0338209Y0067887D01*
X0333581Y0063259D01*
X0327036Y0063259D01*
X0325707Y0064589D01*
X0207286Y0064589D01*
X0204897Y0065578D01*
X0203068Y0067407D01*
X0202079Y0069796D01*
X0202079Y0103757D01*
X0202057Y0103719D01*
X0199933Y0101595D01*
X0197332Y0100094D01*
X0194432Y0099317D01*
X0191428Y0099317D01*
X0188528Y0100094D01*
X0185927Y0101595D01*
X0183803Y0103719D01*
X0182302Y0106320D01*
X0181525Y0109221D01*
X0181525Y0112224D01*
X0182302Y0115125D01*
X0183803Y0117725D01*
X0185578Y0119500D01*
X0167802Y0119500D01*
X0169576Y0117725D01*
X0171078Y0115125D01*
X0171855Y0112224D01*
X0171855Y0109221D01*
X0171078Y0106320D01*
X0169576Y0103719D01*
X0167453Y0101595D01*
X0164852Y0100094D01*
X0161951Y0099317D01*
X0158948Y0099317D01*
X0156047Y0100094D01*
X0153447Y0101595D01*
X0151323Y0103719D01*
X0149821Y0106320D01*
X0149044Y0109221D01*
X0149044Y0112224D01*
X0149821Y0115125D01*
X0151323Y0117725D01*
X0153098Y0119500D01*
X0102841Y0119500D01*
X0104616Y0117725D01*
X0106117Y0115125D01*
X0106895Y0112224D01*
X0106895Y0109221D01*
X0106117Y0106320D01*
X0104616Y0103719D01*
X0102492Y0101595D01*
X0099891Y0100094D01*
X0096991Y0099317D01*
X0093987Y0099317D01*
X0091087Y0100094D01*
X0088486Y0101595D01*
X0086362Y0103719D01*
X0084861Y0106320D01*
X0084084Y0109221D01*
X0084084Y0112224D01*
X0084861Y0115125D01*
X0086362Y0117725D01*
X0088137Y0119500D01*
X0070361Y0119500D01*
X0072135Y0117725D01*
X0073637Y0115125D01*
X0074414Y0112224D01*
X0074414Y0109221D01*
X0073637Y0106320D01*
X0072135Y0103719D01*
X0070012Y0101595D01*
X0067411Y0100094D01*
X0064510Y0099317D01*
X0061507Y0099317D01*
X0058606Y0100094D01*
X0056006Y0101595D01*
X0053882Y0103719D01*
X0052381Y0106320D01*
X0051603Y0109221D01*
X0051603Y0109877D01*
X0040046Y0098319D01*
X0036511Y0096278D01*
X0032569Y0095222D01*
X0028488Y0095222D01*
X0024546Y0096278D01*
X0021011Y0098319D01*
X0018125Y0101205D01*
X0016085Y0104739D01*
X0015028Y0108682D01*
X0015028Y0112763D01*
X0016085Y0116705D01*
X0018125Y0120239D01*
X0045289Y0147403D01*
X0048824Y0149444D01*
X0052766Y0150500D01*
X0058965Y0150500D01*
X0055069Y0154396D01*
X0055069Y0161438D01*
X0060048Y0166417D01*
X0067090Y0166417D01*
X0072069Y0161438D01*
X0072069Y0154396D01*
X0068173Y0150500D01*
X0172000Y0150500D01*
X0172000Y0162182D01*
X0173056Y0166124D01*
X0175097Y0169659D01*
X0177983Y0172545D01*
X0181517Y0174585D01*
X0185459Y0175642D01*
X0187585Y0175642D01*
X0187585Y0176782D01*
X0185361Y0178067D01*
X0182940Y0180487D01*
X0181229Y0183451D01*
X0180343Y0186758D01*
X0180343Y0190397D01*
X0181229Y0193703D01*
X0182940Y0196668D01*
X0185361Y0199088D01*
X0186941Y0200000D01*
X0072069Y0200000D01*
X0072069Y0194396D01*
X0067090Y0189417D01*
X0060048Y0189417D01*
X0055069Y0194396D01*
X0055069Y0200000D01*
X0004960Y0200000D01*
X0004959Y0199702D02*
X0055069Y0199702D01*
X0055069Y0198704D02*
X0004957Y0198704D01*
X0004956Y0197705D02*
X0055069Y0197705D01*
X0055069Y0196707D02*
X0004954Y0196707D01*
X0004952Y0195708D02*
X0055069Y0195708D01*
X0055069Y0194710D02*
X0004950Y0194710D01*
X0004948Y0193711D02*
X0055754Y0193711D01*
X0056752Y0192713D02*
X0004947Y0192713D01*
X0004945Y0191714D02*
X0057751Y0191714D01*
X0058749Y0190716D02*
X0004943Y0190716D01*
X0004941Y0189717D02*
X0059748Y0189717D01*
X0057502Y0187720D02*
X0008100Y0187720D01*
X0008100Y0186722D02*
X0058501Y0186722D01*
X0058805Y0186417D02*
X0068332Y0186417D01*
X0075069Y0193153D01*
X0075069Y0202680D01*
X0074569Y0203180D01*
X0074569Y0207748D01*
X0074947Y0208126D01*
X0074947Y0217405D01*
X0068387Y0223966D01*
X0059108Y0223966D01*
X0052547Y0217405D01*
X0052547Y0208126D01*
X0052569Y0208105D01*
X0052569Y0203180D01*
X0052069Y0202680D01*
X0052069Y0193153D01*
X0058805Y0186417D01*
X0056504Y0188719D02*
X0008100Y0188719D01*
X0008100Y0189717D02*
X0055505Y0189717D01*
X0054506Y0190716D02*
X0008100Y0190716D01*
X0008100Y0191714D02*
X0053508Y0191714D01*
X0052509Y0192713D02*
X0008100Y0192713D01*
X0008100Y0193711D02*
X0052069Y0193711D01*
X0052069Y0194710D02*
X0008100Y0194710D01*
X0008100Y0195708D02*
X0052069Y0195708D01*
X0052069Y0196707D02*
X0008100Y0196707D01*
X0008100Y0197705D02*
X0052069Y0197705D01*
X0052069Y0198704D02*
X0008100Y0198704D01*
X0008100Y0199702D02*
X0052069Y0199702D01*
X0052069Y0200701D02*
X0008100Y0200701D01*
X0008100Y0201699D02*
X0052069Y0201699D01*
X0052086Y0202698D02*
X0008100Y0202698D01*
X0008100Y0203696D02*
X0052569Y0203696D01*
X0052569Y0204695D02*
X0008100Y0204695D01*
X0008100Y0205693D02*
X0052569Y0205693D01*
X0052569Y0206692D02*
X0008100Y0206692D01*
X0008100Y0207690D02*
X0052569Y0207690D01*
X0052547Y0208689D02*
X0008100Y0208689D01*
X0008100Y0209687D02*
X0052547Y0209687D01*
X0052547Y0210686D02*
X0008100Y0210686D01*
X0008100Y0211684D02*
X0052547Y0211684D01*
X0052547Y0212683D02*
X0008100Y0212683D01*
X0008100Y0213681D02*
X0052547Y0213681D01*
X0052547Y0214680D02*
X0008100Y0214680D01*
X0008100Y0215678D02*
X0052547Y0215678D01*
X0052547Y0216677D02*
X0008100Y0216677D01*
X0008100Y0217675D02*
X0052818Y0217675D01*
X0053817Y0218674D02*
X0008100Y0218674D01*
X0008100Y0219672D02*
X0054815Y0219672D01*
X0055814Y0220671D02*
X0008100Y0220671D01*
X0008100Y0221670D02*
X0056812Y0221670D01*
X0057811Y0222668D02*
X0008100Y0222668D01*
X0008100Y0223667D02*
X0058809Y0223667D01*
X0068686Y0223667D02*
X0075123Y0223667D01*
X0075123Y0223996D02*
X0075123Y0222529D01*
X0079371Y0222529D01*
X0079371Y0221529D01*
X0080371Y0221529D01*
X0080371Y0217281D01*
X0081837Y0217281D01*
X0084619Y0220063D01*
X0084619Y0221529D01*
X0080371Y0221529D01*
X0080371Y0222529D01*
X0084619Y0222529D01*
X0084619Y0223996D01*
X0081837Y0226777D01*
X0080371Y0226777D01*
X0080371Y0222529D01*
X0079371Y0222529D01*
X0079371Y0226777D01*
X0077904Y0226777D01*
X0075123Y0223996D01*
X0075792Y0224665D02*
X0008100Y0224665D01*
X0008100Y0225664D02*
X0076790Y0225664D01*
X0077789Y0226662D02*
X0008100Y0226662D01*
X0008100Y0227661D02*
X0183871Y0227661D01*
X0183871Y0228659D02*
X0008100Y0228659D01*
X0008100Y0229658D02*
X0183871Y0229658D01*
X0183871Y0230656D02*
X0008100Y0230656D01*
X0008100Y0231655D02*
X0183871Y0231655D01*
X0183871Y0232653D02*
X0008100Y0232653D01*
X0008100Y0233652D02*
X0183871Y0233652D01*
X0183871Y0234650D02*
X0008100Y0234650D01*
X0008100Y0235649D02*
X0183871Y0235649D01*
X0183871Y0236647D02*
X0008100Y0236647D01*
X0008100Y0237646D02*
X0183871Y0237646D01*
X0183871Y0238644D02*
X0008100Y0238644D01*
X0008100Y0239643D02*
X0183871Y0239643D01*
X0183871Y0240641D02*
X0008100Y0240641D01*
X0008100Y0241640D02*
X0183871Y0241640D01*
X0183871Y0242638D02*
X0008100Y0242638D01*
X0008100Y0243637D02*
X0183871Y0243637D01*
X0183871Y0243668D02*
X0183871Y0219923D01*
X0184585Y0217256D01*
X0184585Y0202104D01*
X0183519Y0201489D01*
X0180540Y0198510D01*
X0178433Y0194861D01*
X0177343Y0190792D01*
X0177343Y0186363D01*
X0178433Y0182293D01*
X0180540Y0178645D01*
X0181499Y0177686D01*
X0180359Y0177381D01*
X0176141Y0174945D01*
X0172696Y0171501D01*
X0171830Y0170000D01*
X0104509Y0170000D01*
X0100279Y0174230D01*
X0090752Y0174230D01*
X0086522Y0170000D01*
X0008100Y0170000D01*
X0008100Y0270000D01*
X0013500Y0270000D01*
X0013500Y0268650D01*
X0185930Y0268650D01*
X0185020Y0268125D01*
X0182041Y0265146D01*
X0179935Y0261497D01*
X0178844Y0257428D01*
X0178844Y0253215D01*
X0179935Y0249146D01*
X0182041Y0245497D01*
X0183871Y0243668D01*
X0182903Y0244635D02*
X0102824Y0244635D01*
X0102081Y0243892D02*
X0108818Y0250628D01*
X0108818Y0260155D01*
X0102081Y0266892D01*
X0092554Y0266892D01*
X0085818Y0260155D01*
X0085818Y0250628D01*
X0092554Y0243892D01*
X0102081Y0243892D01*
X0103823Y0245634D02*
X0181963Y0245634D01*
X0181386Y0246632D02*
X0104821Y0246632D01*
X0105820Y0247631D02*
X0180810Y0247631D01*
X0180233Y0248629D02*
X0106818Y0248629D01*
X0107817Y0249628D02*
X0179806Y0249628D01*
X0179538Y0250626D02*
X0108816Y0250626D01*
X0108818Y0251625D02*
X0134721Y0251625D01*
X0135454Y0250892D02*
X0136818Y0250892D01*
X0136818Y0254892D01*
X0137818Y0254892D01*
X0137818Y0255892D01*
X0141818Y0255892D01*
X0141818Y0257256D01*
X0139182Y0259892D01*
X0137818Y0259892D01*
X0137818Y0255892D01*
X0136818Y0255892D01*
X0136818Y0259892D01*
X0135454Y0259892D01*
X0132818Y0257256D01*
X0132818Y0255892D01*
X0136818Y0255892D01*
X0136818Y0254892D01*
X0132818Y0254892D01*
X0132818Y0253528D01*
X0135454Y0250892D01*
X0136818Y0251625D02*
X0137818Y0251625D01*
X0137818Y0250892D02*
X0139182Y0250892D01*
X0141818Y0253528D01*
X0141818Y0254892D01*
X0137818Y0254892D01*
X0137818Y0250892D01*
X0137818Y0252623D02*
X0136818Y0252623D01*
X0136818Y0253622D02*
X0137818Y0253622D01*
X0137818Y0254620D02*
X0136818Y0254620D01*
X0136818Y0255619D02*
X0108818Y0255619D01*
X0108818Y0256617D02*
X0132818Y0256617D01*
X0133178Y0257616D02*
X0108818Y0257616D01*
X0108818Y0258614D02*
X0134176Y0258614D01*
X0135175Y0259613D02*
X0108818Y0259613D01*
X0108361Y0260611D02*
X0179697Y0260611D01*
X0179430Y0259613D02*
X0156917Y0259613D01*
X0156708Y0259822D02*
X0155344Y0259822D01*
X0155344Y0255822D01*
X0154344Y0255822D01*
X0154344Y0254822D01*
X0150344Y0254822D01*
X0150344Y0253458D01*
X0152980Y0250822D01*
X0154344Y0250822D01*
X0154344Y0254822D01*
X0155344Y0254822D01*
X0155344Y0250822D01*
X0156708Y0250822D01*
X0159344Y0253458D01*
X0159344Y0254822D01*
X0155345Y0254822D01*
X0155345Y0255822D01*
X0159344Y0255822D01*
X0159344Y0257186D01*
X0156708Y0259822D01*
X0155344Y0259613D02*
X0154344Y0259613D01*
X0154344Y0259822D02*
X0152980Y0259822D01*
X0150344Y0257186D01*
X0150344Y0255822D01*
X0154344Y0255822D01*
X0154344Y0259822D01*
X0154344Y0258614D02*
X0155344Y0258614D01*
X0155344Y0257616D02*
X0154344Y0257616D01*
X0154344Y0256617D02*
X0155344Y0256617D01*
X0155345Y0255619D02*
X0178844Y0255619D01*
X0178844Y0256617D02*
X0159344Y0256617D01*
X0158914Y0257616D02*
X0178895Y0257616D01*
X0179162Y0258614D02*
X0157916Y0258614D01*
X0159344Y0254620D02*
X0178844Y0254620D01*
X0178844Y0253622D02*
X0159344Y0253622D01*
X0158510Y0252623D02*
X0179003Y0252623D01*
X0179271Y0251625D02*
X0157512Y0251625D01*
X0155344Y0251625D02*
X0154344Y0251625D01*
X0154344Y0252623D02*
X0155344Y0252623D01*
X0155344Y0253622D02*
X0154344Y0253622D01*
X0154344Y0254620D02*
X0155344Y0254620D01*
X0154344Y0255619D02*
X0137818Y0255619D01*
X0137818Y0256617D02*
X0136818Y0256617D01*
X0136818Y0257616D02*
X0137818Y0257616D01*
X0137818Y0258614D02*
X0136818Y0258614D01*
X0136818Y0259613D02*
X0137818Y0259613D01*
X0139460Y0259613D02*
X0152772Y0259613D01*
X0151773Y0258614D02*
X0140459Y0258614D01*
X0141458Y0257616D02*
X0150775Y0257616D01*
X0150344Y0256617D02*
X0141818Y0256617D01*
X0141818Y0254620D02*
X0150344Y0254620D01*
X0150344Y0253622D02*
X0141818Y0253622D01*
X0140913Y0252623D02*
X0151179Y0252623D01*
X0152177Y0251625D02*
X0139915Y0251625D01*
X0133722Y0252623D02*
X0108818Y0252623D01*
X0108818Y0253622D02*
X0132818Y0253622D01*
X0132818Y0254620D02*
X0108818Y0254620D01*
X0107363Y0261610D02*
X0180000Y0261610D01*
X0180576Y0262608D02*
X0106364Y0262608D01*
X0105366Y0263607D02*
X0181153Y0263607D01*
X0181729Y0264605D02*
X0104367Y0264605D01*
X0103369Y0265604D02*
X0182499Y0265604D01*
X0183498Y0266603D02*
X0102370Y0266603D01*
X0092265Y0266603D02*
X0065850Y0266603D01*
X0065487Y0266966D02*
X0064147Y0266966D01*
X0064147Y0263166D01*
X0063347Y0263166D01*
X0063347Y0266966D01*
X0062008Y0266966D01*
X0059547Y0264505D01*
X0059547Y0263166D01*
X0063347Y0263166D01*
X0063347Y0262366D01*
X0059547Y0262366D01*
X0059547Y0261026D01*
X0062008Y0258566D01*
X0063347Y0258566D01*
X0063347Y0262365D01*
X0064147Y0262365D01*
X0064147Y0258566D01*
X0065487Y0258566D01*
X0067947Y0261026D01*
X0067947Y0262366D01*
X0064147Y0262366D01*
X0064147Y0263166D01*
X0067947Y0263166D01*
X0067947Y0264505D01*
X0065487Y0266966D01*
X0064147Y0266603D02*
X0063347Y0266603D01*
X0063347Y0265604D02*
X0064147Y0265604D01*
X0064147Y0264605D02*
X0063347Y0264605D01*
X0063347Y0263607D02*
X0064147Y0263607D01*
X0064147Y0262608D02*
X0088271Y0262608D01*
X0087272Y0261610D02*
X0067947Y0261610D01*
X0067533Y0260611D02*
X0086274Y0260611D01*
X0085818Y0259613D02*
X0066534Y0259613D01*
X0065536Y0258614D02*
X0085818Y0258614D01*
X0085818Y0257616D02*
X0008100Y0257616D01*
X0008100Y0258614D02*
X0024708Y0258614D01*
X0025152Y0258170D02*
X0022371Y0260951D01*
X0022371Y0262418D01*
X0026619Y0262418D01*
X0026619Y0263418D01*
X0026619Y0267666D01*
X0025152Y0267666D01*
X0022371Y0264884D01*
X0022371Y0263418D01*
X0026619Y0263418D01*
X0027619Y0263418D01*
X0027619Y0267666D01*
X0029086Y0267666D01*
X0031867Y0264884D01*
X0031867Y0263418D01*
X0027619Y0263418D01*
X0027619Y0262418D01*
X0031867Y0262418D01*
X0031867Y0260951D01*
X0029086Y0258170D01*
X0027619Y0258170D01*
X0027619Y0262418D01*
X0026619Y0262418D01*
X0026619Y0258170D01*
X0025152Y0258170D01*
X0026619Y0258614D02*
X0027619Y0258614D01*
X0027619Y0259613D02*
X0026619Y0259613D01*
X0026619Y0260611D02*
X0027619Y0260611D01*
X0027619Y0261610D02*
X0026619Y0261610D01*
X0026619Y0262608D02*
X0008100Y0262608D01*
X0008100Y0261610D02*
X0022371Y0261610D01*
X0022711Y0260611D02*
X0008100Y0260611D01*
X0008100Y0259613D02*
X0023709Y0259613D01*
X0022371Y0263607D02*
X0008100Y0263607D01*
X0008100Y0264605D02*
X0022371Y0264605D01*
X0023091Y0265604D02*
X0008100Y0265604D01*
X0008100Y0266603D02*
X0024089Y0266603D01*
X0025088Y0267601D02*
X0008100Y0267601D01*
X0008100Y0268600D02*
X0185842Y0268600D01*
X0184496Y0267601D02*
X0029151Y0267601D01*
X0030149Y0266603D02*
X0061645Y0266603D01*
X0060646Y0265604D02*
X0031148Y0265604D01*
X0031867Y0264605D02*
X0059648Y0264605D01*
X0059547Y0263607D02*
X0031867Y0263607D01*
X0031867Y0261610D02*
X0059547Y0261610D01*
X0059962Y0260611D02*
X0031527Y0260611D01*
X0030529Y0259613D02*
X0060960Y0259613D01*
X0061959Y0258614D02*
X0029530Y0258614D01*
X0027619Y0262608D02*
X0063347Y0262608D01*
X0063347Y0261610D02*
X0064147Y0261610D01*
X0064147Y0260611D02*
X0063347Y0260611D01*
X0063347Y0259613D02*
X0064147Y0259613D01*
X0064147Y0258614D02*
X0063347Y0258614D01*
X0067947Y0263607D02*
X0089269Y0263607D01*
X0090268Y0264605D02*
X0067847Y0264605D01*
X0066849Y0265604D02*
X0091266Y0265604D01*
X0085818Y0256617D02*
X0008100Y0256617D01*
X0008100Y0255619D02*
X0085818Y0255619D01*
X0085818Y0254620D02*
X0008100Y0254620D01*
X0008100Y0253622D02*
X0085818Y0253622D01*
X0085818Y0252623D02*
X0008100Y0252623D01*
X0008100Y0251625D02*
X0085818Y0251625D01*
X0085820Y0250626D02*
X0008100Y0250626D01*
X0008100Y0249628D02*
X0086818Y0249628D01*
X0087817Y0248629D02*
X0008100Y0248629D01*
X0008100Y0247631D02*
X0088815Y0247631D01*
X0089814Y0246632D02*
X0008100Y0246632D01*
X0008100Y0245634D02*
X0090812Y0245634D01*
X0091811Y0244635D02*
X0008100Y0244635D01*
X0026619Y0263607D02*
X0027619Y0263607D01*
X0027619Y0264605D02*
X0026619Y0264605D01*
X0026619Y0265604D02*
X0027619Y0265604D01*
X0027619Y0266603D02*
X0026619Y0266603D01*
X0026619Y0267601D02*
X0027619Y0267601D01*
X0013500Y0269598D02*
X0008100Y0269598D01*
X0069684Y0222668D02*
X0075123Y0222668D01*
X0075123Y0221529D02*
X0075123Y0220063D01*
X0077904Y0217281D01*
X0079371Y0217281D01*
X0079371Y0221529D01*
X0075123Y0221529D01*
X0075123Y0220671D02*
X0071681Y0220671D01*
X0070683Y0221670D02*
X0079371Y0221670D01*
X0079371Y0222668D02*
X0080371Y0222668D01*
X0080371Y0221670D02*
X0183871Y0221670D01*
X0183871Y0222668D02*
X0084619Y0222668D01*
X0084619Y0223667D02*
X0183871Y0223667D01*
X0183871Y0224665D02*
X0083950Y0224665D01*
X0082951Y0225664D02*
X0183871Y0225664D01*
X0183871Y0226662D02*
X0081953Y0226662D01*
X0080371Y0226662D02*
X0079371Y0226662D01*
X0079371Y0225664D02*
X0080371Y0225664D01*
X0080371Y0224665D02*
X0079371Y0224665D01*
X0079371Y0223667D02*
X0080371Y0223667D01*
X0080371Y0220671D02*
X0079371Y0220671D01*
X0079371Y0219672D02*
X0080371Y0219672D01*
X0080371Y0218674D02*
X0079371Y0218674D01*
X0079371Y0217675D02*
X0080371Y0217675D01*
X0082232Y0217675D02*
X0184473Y0217675D01*
X0184585Y0216677D02*
X0074947Y0216677D01*
X0074947Y0215678D02*
X0184585Y0215678D01*
X0184585Y0214680D02*
X0074947Y0214680D01*
X0074947Y0213681D02*
X0184585Y0213681D01*
X0184585Y0212683D02*
X0074947Y0212683D01*
X0074947Y0211684D02*
X0184585Y0211684D01*
X0184585Y0210686D02*
X0074947Y0210686D01*
X0074947Y0209687D02*
X0184585Y0209687D01*
X0184585Y0208689D02*
X0074947Y0208689D01*
X0074569Y0207690D02*
X0184585Y0207690D01*
X0184585Y0206692D02*
X0074569Y0206692D01*
X0074569Y0205693D02*
X0184585Y0205693D01*
X0184585Y0204695D02*
X0074569Y0204695D01*
X0074569Y0203696D02*
X0184585Y0203696D01*
X0184585Y0202698D02*
X0075051Y0202698D01*
X0075069Y0201699D02*
X0183884Y0201699D01*
X0182731Y0200701D02*
X0075069Y0200701D01*
X0075069Y0199702D02*
X0148096Y0199702D01*
X0148080Y0199685D02*
X0140893Y0199685D01*
X0140402Y0199554D01*
X0137702Y0199554D01*
X0135701Y0197554D01*
X0135587Y0197488D01*
X0133539Y0195440D01*
X0133472Y0195325D01*
X0131141Y0192993D01*
X0131141Y0183715D01*
X0137702Y0177154D01*
X0146980Y0177154D01*
X0147511Y0177685D01*
X0148080Y0177685D01*
X0148580Y0177185D01*
X0158107Y0177185D01*
X0164843Y0183922D01*
X0164843Y0193449D01*
X0158107Y0200185D01*
X0148580Y0200185D01*
X0148080Y0199685D01*
X0149822Y0197185D02*
X0149322Y0196685D01*
X0140749Y0196685D01*
X0140432Y0196554D01*
X0138944Y0196554D01*
X0137892Y0195502D01*
X0137809Y0195467D01*
X0135559Y0193217D01*
X0135524Y0193134D01*
X0134141Y0191751D01*
X0134141Y0184958D01*
X0138944Y0180154D01*
X0145737Y0180154D01*
X0146269Y0180685D01*
X0149322Y0180685D01*
X0149822Y0180185D01*
X0156864Y0180185D01*
X0161843Y0185165D01*
X0161843Y0192206D01*
X0156864Y0197185D01*
X0149822Y0197185D01*
X0149344Y0196707D02*
X0072069Y0196707D01*
X0072069Y0197705D02*
X0183978Y0197705D01*
X0182980Y0196707D02*
X0157343Y0196707D01*
X0158341Y0195708D02*
X0182387Y0195708D01*
X0181810Y0194710D02*
X0159340Y0194710D01*
X0160338Y0193711D02*
X0181234Y0193711D01*
X0180964Y0192713D02*
X0161337Y0192713D01*
X0161843Y0191714D02*
X0180696Y0191714D01*
X0180429Y0190716D02*
X0161843Y0190716D01*
X0161843Y0189717D02*
X0180343Y0189717D01*
X0180343Y0188719D02*
X0161843Y0188719D01*
X0161843Y0187720D02*
X0180343Y0187720D01*
X0180353Y0186722D02*
X0161843Y0186722D01*
X0161843Y0185723D02*
X0180620Y0185723D01*
X0180888Y0184725D02*
X0161403Y0184725D01*
X0160405Y0183726D02*
X0181155Y0183726D01*
X0181647Y0182728D02*
X0159406Y0182728D01*
X0158408Y0181729D02*
X0182223Y0181729D01*
X0182800Y0180731D02*
X0157409Y0180731D01*
X0159655Y0178734D02*
X0180489Y0178734D01*
X0179912Y0179732D02*
X0160653Y0179732D01*
X0161652Y0180731D02*
X0179336Y0180731D01*
X0178759Y0181729D02*
X0162650Y0181729D01*
X0163649Y0182728D02*
X0178317Y0182728D01*
X0178050Y0183726D02*
X0164647Y0183726D01*
X0164843Y0184725D02*
X0177782Y0184725D01*
X0177514Y0185723D02*
X0164843Y0185723D01*
X0164843Y0186722D02*
X0177343Y0186722D01*
X0177343Y0187720D02*
X0164843Y0187720D01*
X0164843Y0188719D02*
X0177343Y0188719D01*
X0177343Y0189717D02*
X0164843Y0189717D01*
X0164843Y0190716D02*
X0177343Y0190716D01*
X0177590Y0191714D02*
X0164843Y0191714D01*
X0164843Y0192713D02*
X0177858Y0192713D01*
X0178125Y0193711D02*
X0164581Y0193711D01*
X0163582Y0194710D02*
X0178393Y0194710D01*
X0178923Y0195708D02*
X0162584Y0195708D01*
X0161585Y0196707D02*
X0179499Y0196707D01*
X0180075Y0197705D02*
X0160587Y0197705D01*
X0159588Y0198704D02*
X0180734Y0198704D01*
X0181733Y0199702D02*
X0158590Y0199702D01*
X0138098Y0195708D02*
X0072069Y0195708D01*
X0072069Y0194710D02*
X0137051Y0194710D01*
X0136053Y0193711D02*
X0071384Y0193711D01*
X0070385Y0192713D02*
X0135103Y0192713D01*
X0134141Y0191714D02*
X0094920Y0191714D01*
X0131141Y0191714D01*
X0131141Y0190716D02*
X0095919Y0190716D01*
X0134141Y0190716D01*
X0134141Y0189717D02*
X0096541Y0189717D01*
X0131141Y0189717D01*
X0131141Y0188719D02*
X0092741Y0188719D01*
X0134141Y0188719D01*
X0134141Y0187720D02*
X0096541Y0187720D01*
X0131141Y0187720D01*
X0131141Y0186722D02*
X0096541Y0186722D01*
X0134141Y0186722D01*
X0134141Y0185723D02*
X0095649Y0185723D01*
X0131141Y0185723D01*
X0131141Y0184725D02*
X0094651Y0184725D01*
X0134374Y0184725D01*
X0135372Y0183726D02*
X0004931Y0183726D01*
X0004929Y0182728D02*
X0136371Y0182728D01*
X0137369Y0181729D02*
X0004927Y0181729D01*
X0004925Y0180731D02*
X0138368Y0180731D01*
X0136122Y0178734D02*
X0008100Y0178734D01*
X0008100Y0179732D02*
X0135124Y0179732D01*
X0134125Y0180731D02*
X0008100Y0180731D01*
X0008100Y0181729D02*
X0133127Y0181729D01*
X0132128Y0182728D02*
X0008100Y0182728D01*
X0008100Y0183726D02*
X0131141Y0183726D01*
X0137121Y0177735D02*
X0008100Y0177735D01*
X0008100Y0176737D02*
X0179243Y0176737D01*
X0177514Y0175738D02*
X0008100Y0175738D01*
X0008100Y0174739D02*
X0175935Y0174739D01*
X0174936Y0173741D02*
X0100768Y0173741D01*
X0101766Y0172742D02*
X0173938Y0172742D01*
X0172939Y0171744D02*
X0102765Y0171744D01*
X0103763Y0170745D02*
X0172260Y0170745D01*
X0174571Y0168748D02*
X0101518Y0168748D01*
X0102516Y0167750D02*
X0173995Y0167750D01*
X0173418Y0166751D02*
X0137858Y0166751D01*
X0137379Y0167230D02*
X0136015Y0167230D01*
X0136015Y0163230D01*
X0135015Y0163230D01*
X0135015Y0162230D01*
X0131015Y0162230D01*
X0131015Y0160866D01*
X0133651Y0158230D01*
X0135015Y0158230D01*
X0135015Y0162230D01*
X0136015Y0162230D01*
X0136015Y0158230D01*
X0137379Y0158230D01*
X0140015Y0160866D01*
X0140015Y0162230D01*
X0136015Y0162230D01*
X0136015Y0163230D01*
X0140015Y0163230D01*
X0140015Y0164594D01*
X0137379Y0167230D01*
X0136015Y0166751D02*
X0135015Y0166751D01*
X0135015Y0167230D02*
X0133651Y0167230D01*
X0131015Y0164594D01*
X0131015Y0163230D01*
X0135015Y0163230D01*
X0135015Y0167230D01*
X0135015Y0165753D02*
X0136015Y0165753D01*
X0136015Y0164754D02*
X0135015Y0164754D01*
X0135015Y0163756D02*
X0136015Y0163756D01*
X0136015Y0162757D02*
X0158881Y0162757D01*
X0158129Y0162005D02*
X0158129Y0160642D01*
X0162129Y0160642D01*
X0162129Y0164642D01*
X0160765Y0164642D01*
X0158129Y0162005D01*
X0158129Y0161759D02*
X0140015Y0161759D01*
X0139910Y0160760D02*
X0158129Y0160760D01*
X0158129Y0159642D02*
X0158129Y0158278D01*
X0160765Y0155642D01*
X0162129Y0155642D01*
X0162129Y0159641D01*
X0163129Y0159641D01*
X0163129Y0155642D01*
X0164493Y0155642D01*
X0167129Y0158278D01*
X0167129Y0159642D01*
X0163129Y0159642D01*
X0163129Y0160642D01*
X0162129Y0160642D01*
X0162129Y0159642D01*
X0158129Y0159642D01*
X0158129Y0158763D02*
X0137913Y0158763D01*
X0138911Y0159762D02*
X0162129Y0159762D01*
X0162129Y0160760D02*
X0163129Y0160760D01*
X0163129Y0160642D02*
X0163129Y0164642D01*
X0164493Y0164642D01*
X0167129Y0162005D01*
X0167129Y0160642D01*
X0163129Y0160642D01*
X0163129Y0159762D02*
X0172000Y0159762D01*
X0172000Y0160760D02*
X0167129Y0160760D01*
X0167129Y0161759D02*
X0172000Y0161759D01*
X0172154Y0162757D02*
X0166377Y0162757D01*
X0165378Y0163756D02*
X0172422Y0163756D01*
X0172689Y0164754D02*
X0139855Y0164754D01*
X0140015Y0163756D02*
X0159879Y0163756D01*
X0162129Y0163756D02*
X0163129Y0163756D01*
X0163129Y0162757D02*
X0162129Y0162757D01*
X0162129Y0161759D02*
X0163129Y0161759D01*
X0163129Y0158763D02*
X0162129Y0158763D01*
X0162129Y0157765D02*
X0163129Y0157765D01*
X0163129Y0156766D02*
X0162129Y0156766D01*
X0162129Y0155768D02*
X0163129Y0155768D01*
X0164619Y0155768D02*
X0172000Y0155768D01*
X0172000Y0156766D02*
X0165617Y0156766D01*
X0166616Y0157765D02*
X0172000Y0157765D01*
X0172000Y0158763D02*
X0167129Y0158763D01*
X0172000Y0154769D02*
X0099576Y0154769D01*
X0099036Y0154230D02*
X0104015Y0159209D01*
X0104015Y0166251D01*
X0099036Y0171230D01*
X0091995Y0171230D01*
X0087015Y0166251D01*
X0087015Y0159209D01*
X0091995Y0154230D01*
X0099036Y0154230D01*
X0100574Y0155768D02*
X0160638Y0155768D01*
X0159640Y0156766D02*
X0101573Y0156766D01*
X0102571Y0157765D02*
X0158641Y0157765D01*
X0172000Y0153771D02*
X0071443Y0153771D01*
X0072069Y0154769D02*
X0091455Y0154769D01*
X0090457Y0155768D02*
X0072069Y0155768D01*
X0072069Y0156766D02*
X0089458Y0156766D01*
X0088460Y0157765D02*
X0072069Y0157765D01*
X0072069Y0158763D02*
X0087461Y0158763D01*
X0087015Y0159762D02*
X0072069Y0159762D01*
X0072069Y0160760D02*
X0087015Y0160760D01*
X0087015Y0161759D02*
X0071748Y0161759D01*
X0070749Y0162757D02*
X0087015Y0162757D01*
X0087015Y0163756D02*
X0069751Y0163756D01*
X0068752Y0164754D02*
X0087015Y0164754D01*
X0087015Y0165753D02*
X0067754Y0165753D01*
X0059384Y0165753D02*
X0004898Y0165753D01*
X0004900Y0166751D02*
X0087516Y0166751D01*
X0088515Y0167750D02*
X0004902Y0167750D01*
X0004904Y0168748D02*
X0089513Y0168748D01*
X0090512Y0169747D02*
X0004905Y0169747D01*
X0004907Y0170745D02*
X0091510Y0170745D01*
X0089265Y0172742D02*
X0008100Y0172742D01*
X0008100Y0171744D02*
X0088266Y0171744D01*
X0087267Y0170745D02*
X0008100Y0170745D01*
X0008100Y0173741D02*
X0090263Y0173741D01*
X0099521Y0170745D02*
X0176184Y0170745D01*
X0175185Y0169747D02*
X0100519Y0169747D01*
X0103515Y0166751D02*
X0133173Y0166751D01*
X0132174Y0165753D02*
X0104015Y0165753D01*
X0104015Y0164754D02*
X0131176Y0164754D01*
X0131015Y0163756D02*
X0104015Y0163756D01*
X0104015Y0162757D02*
X0135015Y0162757D01*
X0135015Y0161759D02*
X0136015Y0161759D01*
X0136015Y0160760D02*
X0135015Y0160760D01*
X0135015Y0159762D02*
X0136015Y0159762D01*
X0136015Y0158763D02*
X0135015Y0158763D01*
X0133118Y0158763D02*
X0103570Y0158763D01*
X0104015Y0159762D02*
X0132120Y0159762D01*
X0131121Y0160760D02*
X0104015Y0160760D01*
X0104015Y0161759D02*
X0131015Y0161759D01*
X0138856Y0165753D02*
X0172957Y0165753D01*
X0177182Y0171744D02*
X0004909Y0171744D01*
X0004911Y0172742D02*
X0178325Y0172742D01*
X0180055Y0173741D02*
X0004913Y0173741D01*
X0004914Y0174739D02*
X0182093Y0174739D01*
X0181450Y0177735D02*
X0158656Y0177735D01*
X0183695Y0179732D02*
X0004923Y0179732D01*
X0004922Y0178734D02*
X0184694Y0178734D01*
X0185935Y0177735D02*
X0004920Y0177735D01*
X0004918Y0176737D02*
X0187585Y0176737D01*
X0187585Y0175738D02*
X0004916Y0175738D01*
X0004932Y0184725D02*
X0090031Y0184725D01*
X0008100Y0184725D01*
X0008100Y0185723D02*
X0089032Y0185723D01*
X0004934Y0185723D01*
X0004936Y0186722D02*
X0088141Y0186722D01*
X0068637Y0186722D01*
X0069635Y0187720D02*
X0088141Y0187720D01*
X0004938Y0187720D01*
X0004940Y0188719D02*
X0091941Y0188719D01*
X0070634Y0188719D01*
X0071632Y0189717D02*
X0088141Y0189717D01*
X0067390Y0189717D01*
X0068388Y0190716D02*
X0088763Y0190716D01*
X0072631Y0190716D01*
X0073629Y0191714D02*
X0089761Y0191714D01*
X0069387Y0191714D01*
X0074628Y0192713D02*
X0131141Y0192713D01*
X0131859Y0193711D02*
X0075069Y0193711D01*
X0075069Y0194710D02*
X0132857Y0194710D01*
X0133807Y0195708D02*
X0075069Y0195708D01*
X0075069Y0196707D02*
X0134806Y0196707D01*
X0135853Y0197705D02*
X0075069Y0197705D01*
X0075069Y0198704D02*
X0136851Y0198704D01*
X0096541Y0190094D02*
X0096541Y0188754D01*
X0092741Y0188754D01*
X0092741Y0187954D01*
X0096541Y0187954D01*
X0096541Y0186614D01*
X0094080Y0184154D01*
X0092741Y0184154D01*
X0092741Y0187954D01*
X0092741Y0188754D01*
X0096541Y0188754D01*
X0096541Y0190094D01*
X0094080Y0192554D01*
X0092741Y0192554D01*
X0092741Y0188754D01*
X0091941Y0188754D01*
X0091941Y0192554D01*
X0090601Y0192554D01*
X0088141Y0190094D01*
X0088141Y0188754D01*
X0091941Y0188754D01*
X0091941Y0192554D01*
X0090601Y0192554D01*
X0088141Y0190094D01*
X0088141Y0188754D01*
X0091941Y0188754D01*
X0092741Y0188754D01*
X0092741Y0192554D01*
X0094080Y0192554D01*
X0096541Y0190094D01*
X0096541Y0187954D02*
X0092741Y0187954D01*
X0091941Y0187954D01*
X0091941Y0184154D01*
X0090601Y0184154D01*
X0088141Y0186614D01*
X0088141Y0187954D01*
X0091941Y0187954D01*
X0092741Y0187954D01*
X0092741Y0184154D01*
X0094080Y0184154D01*
X0096541Y0186614D01*
X0096541Y0187954D01*
X0092741Y0187720D02*
X0091941Y0187720D01*
X0092741Y0187720D01*
X0091941Y0187954D02*
X0091941Y0184154D01*
X0090601Y0184154D01*
X0088141Y0186614D01*
X0088141Y0187954D01*
X0091941Y0187954D01*
X0091941Y0188754D01*
X0091941Y0187954D01*
X0091941Y0186722D02*
X0092741Y0186722D01*
X0091941Y0186722D01*
X0091941Y0185723D02*
X0092741Y0185723D01*
X0091941Y0185723D01*
X0091941Y0184725D02*
X0092741Y0184725D01*
X0091941Y0184725D01*
X0091941Y0189717D02*
X0092741Y0189717D01*
X0091941Y0189717D01*
X0091941Y0190716D02*
X0092741Y0190716D01*
X0091941Y0190716D01*
X0091941Y0191714D02*
X0092741Y0191714D01*
X0091941Y0191714D01*
X0072069Y0198704D02*
X0184977Y0198704D01*
X0186425Y0199702D02*
X0072069Y0199702D01*
X0074677Y0217675D02*
X0077510Y0217675D01*
X0076511Y0218674D02*
X0073678Y0218674D01*
X0072680Y0219672D02*
X0075513Y0219672D01*
X0083230Y0218674D02*
X0184205Y0218674D01*
X0183938Y0219672D02*
X0084229Y0219672D01*
X0084619Y0220671D02*
X0183871Y0220671D01*
X0172000Y0152772D02*
X0070445Y0152772D01*
X0069446Y0151774D02*
X0172000Y0151774D01*
X0172000Y0150775D02*
X0068448Y0150775D01*
X0058690Y0150775D02*
X0031633Y0150775D01*
X0030743Y0151666D02*
X0023495Y0151666D01*
X0018371Y0146541D01*
X0018371Y0139294D01*
X0023495Y0134170D01*
X0030743Y0134170D01*
X0035867Y0139294D01*
X0035867Y0146541D01*
X0030743Y0151666D01*
X0032632Y0149777D02*
X0050066Y0149777D01*
X0047671Y0148778D02*
X0033630Y0148778D01*
X0034629Y0147780D02*
X0045941Y0147780D01*
X0044667Y0146781D02*
X0035627Y0146781D01*
X0035867Y0145783D02*
X0043669Y0145783D01*
X0042670Y0144784D02*
X0035867Y0144784D01*
X0035867Y0143786D02*
X0041672Y0143786D01*
X0040673Y0142787D02*
X0035867Y0142787D01*
X0035867Y0141789D02*
X0039675Y0141789D01*
X0038676Y0140790D02*
X0035867Y0140790D01*
X0035867Y0139792D02*
X0037678Y0139792D01*
X0036679Y0138793D02*
X0035366Y0138793D01*
X0035681Y0137795D02*
X0034367Y0137795D01*
X0034682Y0136796D02*
X0033369Y0136796D01*
X0033684Y0135798D02*
X0032370Y0135798D01*
X0032685Y0134799D02*
X0031372Y0134799D01*
X0031687Y0133801D02*
X0004841Y0133801D01*
X0004842Y0134799D02*
X0022866Y0134799D01*
X0021868Y0135798D02*
X0004844Y0135798D01*
X0004846Y0136796D02*
X0020869Y0136796D01*
X0019871Y0137795D02*
X0004848Y0137795D01*
X0004850Y0138793D02*
X0018872Y0138793D01*
X0018371Y0139792D02*
X0004851Y0139792D01*
X0004853Y0140790D02*
X0018371Y0140790D01*
X0018371Y0141789D02*
X0004855Y0141789D01*
X0004857Y0142787D02*
X0018371Y0142787D01*
X0018371Y0143786D02*
X0004859Y0143786D01*
X0004860Y0144784D02*
X0018371Y0144784D01*
X0018371Y0145783D02*
X0004862Y0145783D01*
X0004864Y0146781D02*
X0018611Y0146781D01*
X0019609Y0147780D02*
X0004866Y0147780D01*
X0004868Y0148778D02*
X0020608Y0148778D01*
X0021606Y0149777D02*
X0004869Y0149777D01*
X0004871Y0150775D02*
X0022605Y0150775D01*
X0004873Y0151774D02*
X0057691Y0151774D01*
X0056693Y0152772D02*
X0004875Y0152772D01*
X0004877Y0153771D02*
X0055694Y0153771D01*
X0055069Y0154769D02*
X0004878Y0154769D01*
X0004880Y0155768D02*
X0055069Y0155768D01*
X0055069Y0156766D02*
X0004882Y0156766D01*
X0004884Y0157765D02*
X0055069Y0157765D01*
X0055069Y0158763D02*
X0004886Y0158763D01*
X0004887Y0159762D02*
X0055069Y0159762D01*
X0055069Y0160760D02*
X0004889Y0160760D01*
X0004891Y0161759D02*
X0055390Y0161759D01*
X0056388Y0162757D02*
X0004893Y0162757D01*
X0004895Y0163756D02*
X0057387Y0163756D01*
X0058385Y0164754D02*
X0004896Y0164754D01*
X0004839Y0132802D02*
X0030688Y0132802D01*
X0029689Y0131803D02*
X0004837Y0131803D01*
X0004835Y0130805D02*
X0028691Y0130805D01*
X0027692Y0129806D02*
X0004833Y0129806D01*
X0004832Y0128808D02*
X0026694Y0128808D01*
X0025695Y0127809D02*
X0004830Y0127809D01*
X0004828Y0126811D02*
X0024697Y0126811D01*
X0023698Y0125812D02*
X0004826Y0125812D01*
X0004824Y0124814D02*
X0022700Y0124814D01*
X0021701Y0123815D02*
X0004823Y0123815D01*
X0004821Y0122817D02*
X0020703Y0122817D01*
X0019704Y0121818D02*
X0004819Y0121818D01*
X0004817Y0120820D02*
X0018706Y0120820D01*
X0017884Y0119821D02*
X0004815Y0119821D01*
X0004814Y0118823D02*
X0017308Y0118823D01*
X0016731Y0117824D02*
X0004812Y0117824D01*
X0004810Y0116826D02*
X0016155Y0116826D01*
X0015850Y0115827D02*
X0004808Y0115827D01*
X0004806Y0114829D02*
X0015582Y0114829D01*
X0015314Y0113830D02*
X0004805Y0113830D01*
X0004803Y0112832D02*
X0015047Y0112832D01*
X0015028Y0111833D02*
X0004801Y0111833D01*
X0004799Y0110835D02*
X0015028Y0110835D01*
X0015028Y0109836D02*
X0004797Y0109836D01*
X0004796Y0108838D02*
X0015028Y0108838D01*
X0015254Y0107839D02*
X0004794Y0107839D01*
X0004792Y0106841D02*
X0015522Y0106841D01*
X0015789Y0105842D02*
X0004790Y0105842D01*
X0004788Y0104844D02*
X0016057Y0104844D01*
X0016601Y0103845D02*
X0004787Y0103845D01*
X0004785Y0102847D02*
X0017177Y0102847D01*
X0017754Y0101848D02*
X0004783Y0101848D01*
X0004781Y0100850D02*
X0018481Y0100850D01*
X0019479Y0099851D02*
X0004779Y0099851D01*
X0004778Y0098853D02*
X0020478Y0098853D01*
X0021817Y0097854D02*
X0004776Y0097854D01*
X0004774Y0096856D02*
X0023546Y0096856D01*
X0026118Y0095857D02*
X0004772Y0095857D01*
X0004771Y0094859D02*
X0202079Y0094859D01*
X0202079Y0095857D02*
X0034939Y0095857D01*
X0037511Y0096856D02*
X0202079Y0096856D01*
X0202079Y0097854D02*
X0039240Y0097854D01*
X0040579Y0098853D02*
X0202079Y0098853D01*
X0202079Y0099851D02*
X0196426Y0099851D01*
X0198641Y0100850D02*
X0202079Y0100850D01*
X0202079Y0101848D02*
X0200186Y0101848D01*
X0201184Y0102847D02*
X0202079Y0102847D01*
X0202079Y0093860D02*
X0004769Y0093860D01*
X0004767Y0092862D02*
X0202079Y0092862D01*
X0202079Y0091863D02*
X0004765Y0091863D01*
X0004763Y0090865D02*
X0202079Y0090865D01*
X0202079Y0089866D02*
X0004762Y0089866D01*
X0004760Y0088868D02*
X0202079Y0088868D01*
X0202079Y0087869D02*
X0004758Y0087869D01*
X0004756Y0086870D02*
X0202079Y0086870D01*
X0202079Y0085872D02*
X0004754Y0085872D01*
X0004753Y0084873D02*
X0202079Y0084873D01*
X0202079Y0083875D02*
X0004751Y0083875D01*
X0004749Y0082876D02*
X0202079Y0082876D01*
X0202079Y0081878D02*
X0004747Y0081878D01*
X0004745Y0080879D02*
X0202079Y0080879D01*
X0202079Y0079881D02*
X0004744Y0079881D01*
X0004742Y0078882D02*
X0202079Y0078882D01*
X0202079Y0077884D02*
X0004740Y0077884D01*
X0004738Y0076885D02*
X0202079Y0076885D01*
X0202079Y0075887D02*
X0004736Y0075887D01*
X0004735Y0074888D02*
X0202079Y0074888D01*
X0202079Y0073890D02*
X0004733Y0073890D01*
X0004731Y0072891D02*
X0202079Y0072891D01*
X0202079Y0071893D02*
X0004729Y0071893D01*
X0004727Y0070894D02*
X0202079Y0070894D01*
X0202079Y0069896D02*
X0004726Y0069896D01*
X0004724Y0068897D02*
X0202451Y0068897D01*
X0202864Y0067899D02*
X0004722Y0067899D01*
X0004720Y0066900D02*
X0203574Y0066900D01*
X0204573Y0065902D02*
X0004718Y0065902D01*
X0004717Y0064903D02*
X0206526Y0064903D01*
X0215079Y0077884D02*
X0325861Y0077884D01*
X0326860Y0078882D02*
X0215079Y0078882D01*
X0215079Y0079881D02*
X0336409Y0079881D01*
X0336409Y0079543D02*
X0338693Y0077259D01*
X0340009Y0077259D01*
X0340009Y0080859D01*
X0340609Y0080859D01*
X0340609Y0081459D01*
X0344209Y0081459D01*
X0344209Y0082774D01*
X0341924Y0085059D01*
X0340609Y0085059D01*
X0340609Y0081459D01*
X0340009Y0081459D01*
X0340009Y0085059D01*
X0338693Y0085059D01*
X0336409Y0082774D01*
X0336409Y0081459D01*
X0340009Y0081459D01*
X0340009Y0080859D01*
X0336409Y0080859D01*
X0336409Y0079543D01*
X0337070Y0078882D02*
X0333757Y0078882D01*
X0334756Y0077884D02*
X0338068Y0077884D01*
X0340009Y0077884D02*
X0340609Y0077884D01*
X0340609Y0077259D02*
X0341924Y0077259D01*
X0344209Y0079543D01*
X0344209Y0080859D01*
X0340609Y0080859D01*
X0340609Y0077259D01*
X0340609Y0078882D02*
X0340009Y0078882D01*
X0340009Y0079881D02*
X0340609Y0079881D01*
X0340609Y0080879D02*
X0500693Y0080879D01*
X0500693Y0079881D02*
X0344209Y0079881D01*
X0343548Y0078882D02*
X0500693Y0078882D01*
X0500693Y0077884D02*
X0342549Y0077884D01*
X0340009Y0080879D02*
X0215079Y0080879D01*
X0215079Y0081878D02*
X0336409Y0081878D01*
X0336511Y0082876D02*
X0215079Y0082876D01*
X0215079Y0083875D02*
X0337509Y0083875D01*
X0338508Y0084873D02*
X0215079Y0084873D01*
X0215079Y0085872D02*
X0502400Y0085872D01*
X0501402Y0084873D02*
X0342110Y0084873D01*
X0343108Y0083875D02*
X0500693Y0083875D01*
X0500693Y0082876D02*
X0344107Y0082876D01*
X0344209Y0081878D02*
X0500693Y0081878D01*
X0501428Y0076885D02*
X0335754Y0076885D01*
X0336753Y0075887D02*
X0502426Y0075887D01*
X0503425Y0074888D02*
X0352095Y0074888D01*
X0351924Y0075059D02*
X0350609Y0075059D01*
X0350609Y0071459D01*
X0354209Y0071459D01*
X0354209Y0072774D01*
X0351924Y0075059D01*
X0350609Y0074888D02*
X0350009Y0074888D01*
X0350009Y0075059D02*
X0348693Y0075059D01*
X0346409Y0072774D01*
X0346409Y0071459D01*
X0350009Y0071459D01*
X0350009Y0075059D01*
X0350009Y0073890D02*
X0350609Y0073890D01*
X0350609Y0072891D02*
X0350009Y0072891D01*
X0350009Y0071893D02*
X0350609Y0071893D01*
X0350609Y0071459D02*
X0350009Y0071459D01*
X0350009Y0070859D01*
X0350609Y0070859D01*
X0350609Y0071459D01*
X0350609Y0070894D02*
X0498293Y0070894D01*
X0498293Y0071193D02*
X0498293Y0070592D01*
X0498893Y0070592D01*
X0498893Y0066993D01*
X0500208Y0066993D01*
X0502493Y0069277D01*
X0502493Y0070592D01*
X0498893Y0070592D01*
X0498893Y0071193D01*
X0498293Y0071193D01*
X0498293Y0074792D01*
X0496978Y0074792D01*
X0494693Y0072508D01*
X0494693Y0071193D01*
X0498293Y0071193D01*
X0498893Y0071193D02*
X0498893Y0074792D01*
X0500208Y0074792D01*
X0502493Y0072508D01*
X0502493Y0071193D01*
X0498893Y0071193D01*
X0498893Y0070894D02*
X0510693Y0070894D01*
X0510693Y0069896D02*
X0502493Y0069896D01*
X0502113Y0068897D02*
X0510693Y0068897D01*
X0510693Y0067899D02*
X0501115Y0067899D01*
X0498893Y0067899D02*
X0498293Y0067899D01*
X0498293Y0066993D02*
X0498293Y0070592D01*
X0494693Y0070592D01*
X0494693Y0069277D01*
X0496978Y0066993D01*
X0498293Y0066993D01*
X0498293Y0068897D02*
X0498893Y0068897D01*
X0498893Y0069896D02*
X0498293Y0069896D01*
X0498293Y0071893D02*
X0498893Y0071893D01*
X0498893Y0072891D02*
X0498293Y0072891D01*
X0498293Y0073890D02*
X0498893Y0073890D01*
X0501111Y0073890D02*
X0504423Y0073890D01*
X0502110Y0072891D02*
X0510693Y0072891D01*
X0510693Y0071893D02*
X0502493Y0071893D01*
X0496075Y0073890D02*
X0353093Y0073890D01*
X0354092Y0072891D02*
X0495076Y0072891D01*
X0494693Y0071893D02*
X0354209Y0071893D01*
X0354209Y0070859D02*
X0350609Y0070859D01*
X0350609Y0067259D01*
X0351924Y0067259D01*
X0354209Y0069543D01*
X0354209Y0070859D01*
X0354209Y0069896D02*
X0494693Y0069896D01*
X0495073Y0068897D02*
X0353563Y0068897D01*
X0352564Y0067899D02*
X0496071Y0067899D01*
X0511413Y0066900D02*
X0337222Y0066900D01*
X0338209Y0067899D02*
X0348053Y0067899D01*
X0348693Y0067259D02*
X0350009Y0067259D01*
X0350009Y0070859D01*
X0346409Y0070859D01*
X0346409Y0069543D01*
X0348693Y0067259D01*
X0350009Y0067899D02*
X0350609Y0067899D01*
X0350609Y0068897D02*
X0350009Y0068897D01*
X0350009Y0069896D02*
X0350609Y0069896D01*
X0350009Y0070894D02*
X0338209Y0070894D01*
X0338209Y0069896D02*
X0346409Y0069896D01*
X0347055Y0068897D02*
X0338209Y0068897D01*
X0338209Y0071893D02*
X0346409Y0071893D01*
X0346526Y0072891D02*
X0338209Y0072891D01*
X0338209Y0073890D02*
X0347524Y0073890D01*
X0348523Y0074888D02*
X0337752Y0074888D01*
X0340009Y0081878D02*
X0340609Y0081878D01*
X0340609Y0082876D02*
X0340009Y0082876D01*
X0340009Y0083875D02*
X0340609Y0083875D01*
X0340609Y0084873D02*
X0340009Y0084873D01*
X0336224Y0065902D02*
X0512093Y0065902D01*
X0512093Y0064903D02*
X0335225Y0064903D01*
X0334227Y0063905D02*
X0512093Y0063905D01*
X0512156Y0062906D02*
X0004713Y0062906D01*
X0004711Y0061908D02*
X0512570Y0061908D01*
X0512983Y0060909D02*
X0004709Y0060909D01*
X0004708Y0059911D02*
X0513841Y0059911D01*
X0526493Y0070894D02*
X0605454Y0070894D01*
X0605454Y0071893D02*
X0526493Y0071893D01*
X0526493Y0072891D02*
X0605454Y0072891D01*
X0605454Y0073890D02*
X0596907Y0073890D01*
X0598669Y0074888D02*
X0605454Y0074888D01*
X0605454Y0075887D02*
X0599667Y0075887D01*
X0600653Y0076885D02*
X0605454Y0076885D01*
X0603611Y0077884D02*
X0603010Y0077884D01*
X0603010Y0078882D02*
X0603611Y0078882D01*
X0603611Y0079881D02*
X0603010Y0079881D01*
X0603010Y0080879D02*
X0603611Y0080879D01*
X0603611Y0082063D02*
X0603010Y0082063D01*
X0603010Y0086413D01*
X0601384Y0086413D01*
X0600934Y0085962D01*
X0600644Y0086663D01*
X0598210Y0089096D01*
X0595031Y0090413D01*
X0591590Y0090413D01*
X0590847Y0090105D01*
X0588722Y0092231D01*
X0588269Y0093324D01*
X0588057Y0093536D01*
X0588269Y0093748D01*
X0588327Y0093888D01*
X0591005Y0091210D01*
X0597550Y0091210D01*
X0599278Y0092938D01*
X0601005Y0091210D01*
X0605454Y0091210D01*
X0605454Y0086196D01*
X0605237Y0086413D01*
X0603611Y0086413D01*
X0603611Y0082063D01*
X0603611Y0082876D02*
X0603010Y0082876D01*
X0603010Y0083875D02*
X0603611Y0083875D01*
X0603611Y0084873D02*
X0603010Y0084873D01*
X0603010Y0085872D02*
X0603611Y0085872D01*
X0605454Y0086870D02*
X0600436Y0086870D01*
X0599437Y0087869D02*
X0605454Y0087869D01*
X0605454Y0088868D02*
X0598439Y0088868D01*
X0596351Y0089866D02*
X0605454Y0089866D01*
X0605454Y0090865D02*
X0590088Y0090865D01*
X0590352Y0091863D02*
X0589090Y0091863D01*
X0589354Y0092862D02*
X0588461Y0092862D01*
X0588355Y0093860D02*
X0588315Y0093860D01*
X0598203Y0091863D02*
X0600352Y0091863D01*
X0599354Y0092862D02*
X0599202Y0092862D01*
X0608718Y0105842D02*
X0618790Y0105842D01*
X0618789Y0104844D02*
X0615096Y0104844D01*
X0616411Y0103845D02*
X0618787Y0103845D01*
X0618785Y0102847D02*
X0617409Y0102847D01*
X0617855Y0101848D02*
X0618783Y0101848D01*
X0618781Y0100850D02*
X0618268Y0100850D01*
X0618454Y0099851D02*
X0618780Y0099851D01*
X0618778Y0098853D02*
X0618454Y0098853D01*
X0618454Y0097854D02*
X0618776Y0097854D01*
X0618774Y0096856D02*
X0618454Y0096856D01*
X0618454Y0095857D02*
X0618772Y0095857D01*
X0618771Y0094859D02*
X0618454Y0094859D01*
X0618454Y0093860D02*
X0618769Y0093860D01*
X0618767Y0092862D02*
X0618454Y0092862D01*
X0618454Y0091863D02*
X0618765Y0091863D01*
X0618763Y0090865D02*
X0618454Y0090865D01*
X0618454Y0089866D02*
X0618762Y0089866D01*
X0618760Y0088868D02*
X0618454Y0088868D01*
X0618454Y0087869D02*
X0618758Y0087869D01*
X0618756Y0086870D02*
X0618454Y0086870D01*
X0618454Y0085872D02*
X0618754Y0085872D01*
X0618753Y0084873D02*
X0618454Y0084873D01*
X0618454Y0083875D02*
X0618751Y0083875D01*
X0618749Y0082876D02*
X0618454Y0082876D01*
X0618454Y0081878D02*
X0618747Y0081878D01*
X0618745Y0080879D02*
X0618454Y0080879D01*
X0618454Y0079881D02*
X0618744Y0079881D01*
X0618742Y0078882D02*
X0618454Y0078882D01*
X0618454Y0077884D02*
X0618740Y0077884D01*
X0618738Y0076885D02*
X0618454Y0076885D01*
X0618454Y0075887D02*
X0618736Y0075887D01*
X0618735Y0074888D02*
X0618454Y0074888D01*
X0618454Y0073890D02*
X0618733Y0073890D01*
X0618731Y0072891D02*
X0618454Y0072891D01*
X0618454Y0071893D02*
X0618729Y0071893D01*
X0618727Y0070894D02*
X0618454Y0070894D01*
X0618454Y0069896D02*
X0618726Y0069896D01*
X0618724Y0068897D02*
X0618454Y0068897D01*
X0618454Y0067899D02*
X0618722Y0067899D01*
X0618720Y0066900D02*
X0618454Y0066900D01*
X0618454Y0065902D02*
X0618718Y0065902D01*
X0618717Y0064903D02*
X0618454Y0064903D01*
X0618454Y0063905D02*
X0618715Y0063905D01*
X0618713Y0062906D02*
X0618391Y0062906D01*
X0618711Y0061908D02*
X0617977Y0061908D01*
X0617563Y0060909D02*
X0618709Y0060909D01*
X0618708Y0059911D02*
X0616705Y0059911D01*
X0585978Y0073890D02*
X0526493Y0073890D01*
X0525769Y0074888D02*
X0583568Y0074888D01*
X0582439Y0075887D02*
X0525093Y0075887D01*
X0525093Y0076885D02*
X0581440Y0076885D01*
X0580442Y0077884D02*
X0525093Y0077884D01*
X0525093Y0078882D02*
X0579443Y0078882D01*
X0578444Y0079881D02*
X0544844Y0079881D01*
X0545842Y0080879D02*
X0564732Y0080879D01*
X0563733Y0081878D02*
X0546841Y0081878D01*
X0547840Y0082876D02*
X0562735Y0082876D01*
X0561736Y0083875D02*
X0548838Y0083875D01*
X0549157Y0084873D02*
X0556395Y0084873D01*
X0555396Y0085872D02*
X0549157Y0085872D01*
X0549157Y0086870D02*
X0554531Y0086870D01*
X0554531Y0087869D02*
X0549157Y0087869D01*
X0549157Y0088868D02*
X0554531Y0088868D01*
X0554531Y0089866D02*
X0549157Y0089866D01*
X0549032Y0090865D02*
X0555428Y0090865D01*
X0556426Y0091863D02*
X0548033Y0091863D01*
X0547035Y0092862D02*
X0561768Y0092862D01*
X0562766Y0093860D02*
X0546036Y0093860D01*
X0545038Y0094859D02*
X0563467Y0094859D01*
X0562907Y0095857D02*
X0289739Y0095857D01*
X0290737Y0096856D02*
X0562494Y0096856D01*
X0562080Y0097854D02*
X0291278Y0097854D01*
X0291278Y0098853D02*
X0562000Y0098853D01*
X0562000Y0099851D02*
X0291278Y0099851D01*
X0291278Y0100850D02*
X0562000Y0100850D01*
X0562106Y0101848D02*
X0291278Y0101848D01*
X0291278Y0102847D02*
X0562520Y0102847D01*
X0562934Y0103845D02*
X0291278Y0103845D01*
X0290997Y0104844D02*
X0563530Y0104844D01*
X0564528Y0105842D02*
X0290628Y0105842D01*
X0290628Y0106841D02*
X0565527Y0106841D01*
X0566452Y0107839D02*
X0290628Y0107839D01*
X0290628Y0108838D02*
X0566627Y0108838D01*
X0567040Y0109836D02*
X0290628Y0109836D01*
X0290628Y0110835D02*
X0567454Y0110835D01*
X0567850Y0111833D02*
X0290628Y0111833D01*
X0290813Y0112832D02*
X0567371Y0112832D01*
X0566957Y0113830D02*
X0290813Y0113830D01*
X0290813Y0114829D02*
X0566544Y0114829D01*
X0566452Y0115827D02*
X0290813Y0115827D01*
X0290471Y0116826D02*
X0566452Y0116826D01*
X0566452Y0117824D02*
X0290057Y0117824D01*
X0289643Y0118823D02*
X0566621Y0118823D01*
X0567034Y0119821D02*
X0288810Y0119821D01*
X0287812Y0120820D02*
X0567448Y0120820D01*
X0568036Y0121818D02*
X0286339Y0121818D01*
X0278383Y0121818D02*
X0276339Y0121818D01*
X0268383Y0121818D02*
X0263592Y0121818D01*
X0264087Y0120820D02*
X0266909Y0120820D01*
X0265911Y0119821D02*
X0264494Y0119821D01*
X0264908Y0118823D02*
X0265078Y0118823D01*
X0262594Y0122817D02*
X0569034Y0122817D01*
X0570033Y0123815D02*
X0262235Y0123815D01*
X0262608Y0124814D02*
X0317393Y0124814D01*
X0317702Y0124731D02*
X0321223Y0124731D01*
X0324625Y0125643D01*
X0327675Y0127403D01*
X0330165Y0129893D01*
X0331925Y0132943D01*
X0332837Y0136345D01*
X0332837Y0139866D01*
X0331925Y0143267D01*
X0330165Y0146317D01*
X0327675Y0148807D01*
X0324625Y0150568D01*
X0321223Y0151479D01*
X0317702Y0151479D01*
X0314301Y0150568D01*
X0311251Y0148807D01*
X0308761Y0146317D01*
X0307000Y0143267D01*
X0306089Y0139866D01*
X0306089Y0136345D01*
X0307000Y0132943D01*
X0308761Y0129893D01*
X0311251Y0127403D01*
X0314301Y0125643D01*
X0317702Y0124731D01*
X0321532Y0124814D02*
X0357393Y0124814D01*
X0354006Y0125812D02*
X0324919Y0125812D01*
X0326648Y0126811D02*
X0352277Y0126811D01*
X0350845Y0127809D02*
X0328081Y0127809D01*
X0329079Y0128808D02*
X0349846Y0128808D01*
X0348848Y0129806D02*
X0330078Y0129806D01*
X0330691Y0130805D02*
X0348235Y0130805D01*
X0347658Y0131803D02*
X0331267Y0131803D01*
X0331844Y0132802D02*
X0347082Y0132802D01*
X0346770Y0133801D02*
X0332155Y0133801D01*
X0332423Y0134799D02*
X0346503Y0134799D01*
X0346235Y0135798D02*
X0332690Y0135798D01*
X0332837Y0136796D02*
X0346089Y0136796D01*
X0346089Y0137795D02*
X0332837Y0137795D01*
X0332837Y0138793D02*
X0346089Y0138793D01*
X0346089Y0139792D02*
X0332837Y0139792D01*
X0332589Y0140790D02*
X0346336Y0140790D01*
X0346604Y0141789D02*
X0332322Y0141789D01*
X0332054Y0142787D02*
X0346871Y0142787D01*
X0347299Y0143786D02*
X0331626Y0143786D01*
X0331050Y0144784D02*
X0347876Y0144784D01*
X0348452Y0145783D02*
X0330473Y0145783D01*
X0329701Y0146781D02*
X0349225Y0146781D01*
X0350223Y0147780D02*
X0328702Y0147780D01*
X0327703Y0148778D02*
X0346325Y0148778D01*
X0344041Y0149777D02*
X0325995Y0149777D01*
X0323851Y0150775D02*
X0342312Y0150775D01*
X0341079Y0151774D02*
X0292415Y0151774D01*
X0293418Y0152772D02*
X0323617Y0152772D01*
X0321690Y0153771D02*
X0294080Y0153771D01*
X0294660Y0154769D02*
X0320252Y0154769D01*
X0319253Y0155768D02*
X0295239Y0155768D01*
X0295736Y0156766D02*
X0318369Y0156766D01*
X0317792Y0157765D02*
X0296006Y0157765D01*
X0296275Y0158763D02*
X0317216Y0158763D01*
X0316845Y0159762D02*
X0296545Y0159762D01*
X0296729Y0160760D02*
X0316578Y0160760D01*
X0316310Y0161759D02*
X0296731Y0161759D01*
X0296733Y0162757D02*
X0316246Y0162757D01*
X0316246Y0163756D02*
X0296735Y0163756D01*
X0296738Y0164754D02*
X0316246Y0164754D01*
X0316448Y0165753D02*
X0296740Y0165753D01*
X0296742Y0166751D02*
X0316715Y0166751D01*
X0316983Y0167750D02*
X0296744Y0167750D01*
X0296746Y0168748D02*
X0317513Y0168748D01*
X0318089Y0169747D02*
X0296748Y0169747D01*
X0296750Y0170745D02*
X0318768Y0170745D01*
X0319767Y0171744D02*
X0296753Y0171744D01*
X0296755Y0172742D02*
X0320851Y0172742D01*
X0322580Y0173741D02*
X0296757Y0173741D01*
X0296759Y0174739D02*
X0325535Y0174739D01*
X0329769Y0174739D02*
X0335774Y0174739D01*
X0335774Y0173741D02*
X0332723Y0173741D01*
X0334452Y0172742D02*
X0335774Y0172742D01*
X0335774Y0171744D02*
X0335537Y0171744D01*
X0335774Y0175738D02*
X0296761Y0175738D01*
X0296763Y0176737D02*
X0335774Y0176737D01*
X0335774Y0177735D02*
X0296765Y0177735D01*
X0296768Y0178734D02*
X0335774Y0178734D01*
X0335774Y0179732D02*
X0296770Y0179732D01*
X0296772Y0180731D02*
X0335774Y0180731D01*
X0335774Y0181729D02*
X0296774Y0181729D01*
X0296776Y0182728D02*
X0335774Y0182728D01*
X0335774Y0183726D02*
X0296778Y0183726D01*
X0296780Y0184725D02*
X0335774Y0184725D01*
X0335774Y0185723D02*
X0296783Y0185723D01*
X0296785Y0186722D02*
X0335774Y0186722D01*
X0335774Y0187720D02*
X0296787Y0187720D01*
X0296789Y0188719D02*
X0335774Y0188719D01*
X0335774Y0189717D02*
X0296791Y0189717D01*
X0296793Y0190716D02*
X0335774Y0190716D01*
X0335774Y0191714D02*
X0296795Y0191714D01*
X0296798Y0192713D02*
X0335774Y0192713D01*
X0335774Y0193711D02*
X0296800Y0193711D01*
X0296802Y0194710D02*
X0334896Y0194710D01*
X0333897Y0195708D02*
X0296804Y0195708D01*
X0296806Y0196707D02*
X0332899Y0196707D01*
X0331900Y0197705D02*
X0296808Y0197705D01*
X0296568Y0198704D02*
X0330902Y0198704D01*
X0329903Y0199702D02*
X0296302Y0199702D01*
X0336935Y0156766D02*
X0337263Y0156766D01*
X0337839Y0155768D02*
X0336050Y0155768D01*
X0335052Y0154769D02*
X0338416Y0154769D01*
X0339082Y0153771D02*
X0333613Y0153771D01*
X0331687Y0152772D02*
X0340080Y0152772D01*
X0361469Y0151774D02*
X0416083Y0151774D01*
X0415065Y0152772D02*
X0406830Y0152772D01*
X0408715Y0153771D02*
X0414257Y0153771D01*
X0413450Y0154769D02*
X0410139Y0154769D01*
X0411138Y0155768D02*
X0412806Y0155768D01*
X0412362Y0156766D02*
X0412013Y0156766D01*
X0417455Y0150775D02*
X0398842Y0150775D01*
X0399692Y0150548D02*
X0396291Y0151459D01*
X0392769Y0151459D01*
X0389368Y0150548D01*
X0386318Y0148787D01*
X0383828Y0146297D01*
X0382067Y0143247D01*
X0381156Y0139846D01*
X0381156Y0136324D01*
X0382067Y0132923D01*
X0383828Y0129873D01*
X0386318Y0127383D01*
X0389368Y0125622D01*
X0392769Y0124711D01*
X0396291Y0124711D01*
X0399692Y0125622D01*
X0402742Y0127383D01*
X0405232Y0129873D01*
X0406992Y0132923D01*
X0407904Y0136324D01*
X0407904Y0139846D01*
X0406992Y0143247D01*
X0405232Y0146297D01*
X0402742Y0148787D01*
X0399692Y0150548D01*
X0401027Y0149777D02*
X0418827Y0149777D01*
X0421384Y0148778D02*
X0402750Y0148778D01*
X0403749Y0147780D02*
X0425311Y0147780D01*
X0424312Y0146781D02*
X0404747Y0146781D01*
X0405529Y0145783D02*
X0423531Y0145783D01*
X0422955Y0144784D02*
X0406105Y0144784D01*
X0406682Y0143786D02*
X0422378Y0143786D01*
X0421944Y0142787D02*
X0407116Y0142787D01*
X0407383Y0141789D02*
X0421676Y0141789D01*
X0421409Y0140790D02*
X0407651Y0140790D01*
X0407904Y0139792D02*
X0421156Y0139792D01*
X0421156Y0138793D02*
X0407904Y0138793D01*
X0407904Y0137795D02*
X0421156Y0137795D01*
X0421156Y0136796D02*
X0407904Y0136796D01*
X0407763Y0135798D02*
X0421297Y0135798D01*
X0421565Y0134799D02*
X0407495Y0134799D01*
X0407228Y0133801D02*
X0421832Y0133801D01*
X0422137Y0132802D02*
X0406923Y0132802D01*
X0406346Y0131803D02*
X0422713Y0131803D01*
X0423290Y0130805D02*
X0405770Y0130805D01*
X0405165Y0129806D02*
X0423895Y0129806D01*
X0424893Y0128808D02*
X0404167Y0128808D01*
X0403168Y0127809D02*
X0425892Y0127809D01*
X0427309Y0126811D02*
X0401751Y0126811D01*
X0400021Y0125812D02*
X0429038Y0125812D01*
X0432385Y0124814D02*
X0396675Y0124814D01*
X0392385Y0124814D02*
X0361532Y0124814D01*
X0364919Y0125812D02*
X0389038Y0125812D01*
X0387309Y0126811D02*
X0366648Y0126811D01*
X0368081Y0127809D02*
X0385892Y0127809D01*
X0384893Y0128808D02*
X0369079Y0128808D01*
X0370078Y0129806D02*
X0383895Y0129806D01*
X0383290Y0130805D02*
X0370691Y0130805D01*
X0371267Y0131803D02*
X0382713Y0131803D01*
X0382137Y0132802D02*
X0371844Y0132802D01*
X0372155Y0133801D02*
X0381832Y0133801D01*
X0381565Y0134799D02*
X0372423Y0134799D01*
X0372690Y0135798D02*
X0381297Y0135798D01*
X0381156Y0136796D02*
X0372837Y0136796D01*
X0372837Y0137795D02*
X0381156Y0137795D01*
X0381156Y0138793D02*
X0372837Y0138793D01*
X0372837Y0139792D02*
X0381156Y0139792D01*
X0381409Y0140790D02*
X0372589Y0140790D01*
X0372322Y0141789D02*
X0381676Y0141789D01*
X0381944Y0142787D02*
X0372054Y0142787D01*
X0371626Y0143786D02*
X0382378Y0143786D01*
X0382955Y0144784D02*
X0371050Y0144784D01*
X0370473Y0145783D02*
X0383531Y0145783D01*
X0384312Y0146781D02*
X0369701Y0146781D01*
X0368702Y0147780D02*
X0385311Y0147780D01*
X0386309Y0148778D02*
X0367703Y0148778D01*
X0365995Y0149777D02*
X0388033Y0149777D01*
X0390217Y0150775D02*
X0363851Y0150775D01*
X0362467Y0152772D02*
X0398608Y0152772D01*
X0396722Y0153771D02*
X0363466Y0153771D01*
X0364132Y0154769D02*
X0395298Y0154769D01*
X0394300Y0155768D02*
X0364708Y0155768D01*
X0365284Y0156766D02*
X0393424Y0156766D01*
X0392848Y0157765D02*
X0365784Y0157765D01*
X0366052Y0158763D02*
X0392271Y0158763D01*
X0391907Y0159762D02*
X0366319Y0159762D01*
X0366587Y0160760D02*
X0391639Y0160760D01*
X0391372Y0161759D02*
X0366774Y0161759D01*
X0366774Y0162757D02*
X0391313Y0162757D01*
X0391313Y0163756D02*
X0366774Y0163756D01*
X0366774Y0164754D02*
X0391313Y0164754D01*
X0391520Y0165753D02*
X0366774Y0165753D01*
X0366774Y0166751D02*
X0391788Y0166751D01*
X0392055Y0167750D02*
X0366774Y0167750D01*
X0366774Y0168748D02*
X0392591Y0168748D01*
X0393168Y0169747D02*
X0366774Y0169747D01*
X0366774Y0170745D02*
X0393856Y0170745D01*
X0394854Y0171744D02*
X0366774Y0171744D01*
X0366774Y0172742D02*
X0395953Y0172742D01*
X0397683Y0173741D02*
X0366774Y0173741D01*
X0366774Y0174739D02*
X0400677Y0174739D01*
X0404760Y0174739D02*
X0412140Y0174739D01*
X0412010Y0173741D02*
X0407755Y0173741D01*
X0409484Y0172742D02*
X0411881Y0172742D01*
X0411751Y0171744D02*
X0410583Y0171744D01*
X0411582Y0170745D02*
X0411622Y0170745D01*
X0412269Y0175738D02*
X0366774Y0175738D01*
X0366774Y0176737D02*
X0412334Y0176737D01*
X0412457Y0177735D02*
X0366774Y0177735D01*
X0366774Y0178734D02*
X0412658Y0178734D01*
X0412923Y0179732D02*
X0366774Y0179732D01*
X0366774Y0180731D02*
X0413260Y0180731D01*
X0413685Y0181729D02*
X0366774Y0181729D01*
X0366774Y0182728D02*
X0414157Y0182728D01*
X0414815Y0183726D02*
X0398780Y0183726D01*
X0402494Y0184725D02*
X0415415Y0184725D01*
X0416341Y0185723D02*
X0404223Y0185723D01*
X0405953Y0186722D02*
X0417346Y0186722D01*
X0418459Y0187720D02*
X0406978Y0187720D01*
X0407977Y0188719D02*
X0419939Y0188719D01*
X0421995Y0189717D02*
X0408945Y0189717D01*
X0409521Y0190716D02*
X0425722Y0190716D01*
X0411354Y0194710D02*
X0461000Y0194710D01*
X0461000Y0195708D02*
X0411621Y0195708D01*
X0411889Y0196707D02*
X0461000Y0196707D01*
X0461000Y0197705D02*
X0412000Y0197705D01*
X0412000Y0198704D02*
X0461000Y0198704D01*
X0461000Y0199702D02*
X0412000Y0199702D01*
X0411086Y0193711D02*
X0461000Y0193711D01*
X0461000Y0192713D02*
X0410674Y0192713D01*
X0410098Y0191714D02*
X0461000Y0191714D01*
X0492000Y0191714D02*
X0521858Y0191714D01*
X0521276Y0192713D02*
X0492000Y0192713D01*
X0492000Y0193711D02*
X0520862Y0193711D01*
X0520449Y0194710D02*
X0492000Y0194710D01*
X0492000Y0195708D02*
X0520200Y0195708D01*
X0520200Y0196707D02*
X0492000Y0196707D01*
X0492000Y0197705D02*
X0520200Y0197705D01*
X0520200Y0198704D02*
X0492000Y0198704D01*
X0492000Y0199702D02*
X0520200Y0199702D01*
X0522856Y0190716D02*
X0492000Y0190716D01*
X0492000Y0189717D02*
X0523855Y0189717D01*
X0524853Y0188719D02*
X0492000Y0188719D01*
X0492000Y0187720D02*
X0525852Y0187720D01*
X0526850Y0186722D02*
X0492000Y0186722D01*
X0492000Y0185723D02*
X0527849Y0185723D01*
X0528847Y0184725D02*
X0492000Y0184725D01*
X0492000Y0183726D02*
X0529846Y0183726D01*
X0530845Y0182728D02*
X0492000Y0182728D01*
X0492000Y0181729D02*
X0531843Y0181729D01*
X0532842Y0180731D02*
X0492000Y0180731D01*
X0492000Y0179732D02*
X0534170Y0179732D01*
X0536581Y0178734D02*
X0492000Y0178734D01*
X0492000Y0177735D02*
X0540299Y0177735D01*
X0538593Y0176737D02*
X0492000Y0176737D01*
X0492000Y0175738D02*
X0537595Y0175738D01*
X0536596Y0174739D02*
X0500584Y0174739D01*
X0503510Y0173741D02*
X0535598Y0173741D01*
X0534599Y0172742D02*
X0505240Y0172742D01*
X0506314Y0171744D02*
X0534527Y0171744D01*
X0534527Y0170745D02*
X0507312Y0170745D01*
X0507985Y0169747D02*
X0534527Y0169747D01*
X0534527Y0168748D02*
X0508562Y0168748D01*
X0509087Y0167750D02*
X0534527Y0167750D01*
X0534527Y0166751D02*
X0509355Y0166751D01*
X0509622Y0165753D02*
X0534527Y0165753D01*
X0535402Y0164754D02*
X0509820Y0164754D01*
X0509820Y0163756D02*
X0536401Y0163756D01*
X0537399Y0162757D02*
X0509820Y0162757D01*
X0509753Y0161759D02*
X0538398Y0161759D01*
X0539396Y0160760D02*
X0509485Y0160760D01*
X0509217Y0159762D02*
X0541102Y0159762D01*
X0542100Y0158763D02*
X0508842Y0158763D01*
X0508266Y0157765D02*
X0543099Y0157765D01*
X0544097Y0156766D02*
X0507690Y0156766D01*
X0506799Y0155768D02*
X0545096Y0155768D01*
X0546094Y0154769D02*
X0505801Y0154769D01*
X0504352Y0153771D02*
X0547093Y0153771D01*
X0548091Y0152772D02*
X0502397Y0152772D01*
X0502163Y0150775D02*
X0485438Y0150775D01*
X0486681Y0151774D02*
X0549090Y0151774D01*
X0550089Y0150775D02*
X0511044Y0150775D01*
X0511766Y0150582D02*
X0508364Y0151493D01*
X0504843Y0151493D01*
X0501442Y0150582D01*
X0498392Y0148821D01*
X0495902Y0146331D01*
X0494141Y0143281D01*
X0493230Y0139880D01*
X0493230Y0136358D01*
X0494141Y0132957D01*
X0495902Y0129907D01*
X0498392Y0127417D01*
X0501442Y0125657D01*
X0504843Y0124745D01*
X0508364Y0124745D01*
X0511766Y0125657D01*
X0514816Y0127417D01*
X0517306Y0129907D01*
X0519066Y0132957D01*
X0519978Y0136358D01*
X0519978Y0139880D01*
X0519066Y0143281D01*
X0517306Y0146331D01*
X0514816Y0148821D01*
X0511766Y0150582D01*
X0513160Y0149777D02*
X0551087Y0149777D01*
X0552086Y0148778D02*
X0514858Y0148778D01*
X0515857Y0147780D02*
X0553084Y0147780D01*
X0554083Y0146781D02*
X0516855Y0146781D01*
X0517622Y0145783D02*
X0555081Y0145783D01*
X0556080Y0144784D02*
X0518199Y0144784D01*
X0518775Y0143786D02*
X0557078Y0143786D01*
X0558077Y0142787D02*
X0519199Y0142787D01*
X0519466Y0141789D02*
X0559075Y0141789D01*
X0560074Y0140790D02*
X0519734Y0140790D01*
X0519978Y0139792D02*
X0560788Y0139792D01*
X0560374Y0138793D02*
X0519978Y0138793D01*
X0519978Y0137795D02*
X0560152Y0137795D01*
X0560152Y0136796D02*
X0519978Y0136796D01*
X0519827Y0135798D02*
X0560152Y0135798D01*
X0560158Y0134799D02*
X0519560Y0134799D01*
X0519292Y0133801D02*
X0560572Y0133801D01*
X0560986Y0132802D02*
X0545739Y0132802D01*
X0544891Y0133650D02*
X0543527Y0133650D01*
X0543527Y0129650D01*
X0542527Y0129650D01*
X0542527Y0128650D01*
X0538527Y0128650D01*
X0538527Y0127286D01*
X0541163Y0124650D01*
X0542527Y0124650D01*
X0542527Y0128650D01*
X0543527Y0128650D01*
X0543527Y0124650D01*
X0544891Y0124650D01*
X0547527Y0127286D01*
X0547527Y0128650D01*
X0543527Y0128650D01*
X0543527Y0129650D01*
X0547527Y0129650D01*
X0547527Y0131014D01*
X0544891Y0133650D01*
X0543527Y0132802D02*
X0542527Y0132802D01*
X0542527Y0133650D02*
X0541163Y0133650D01*
X0538527Y0131014D01*
X0538527Y0129650D01*
X0542527Y0129650D01*
X0542527Y0133650D01*
X0542527Y0131803D02*
X0543527Y0131803D01*
X0543527Y0130805D02*
X0542527Y0130805D01*
X0542527Y0129806D02*
X0543527Y0129806D01*
X0543527Y0128808D02*
X0564854Y0128808D01*
X0563298Y0129806D02*
X0547527Y0129806D01*
X0547527Y0130805D02*
X0562299Y0130805D01*
X0561399Y0131803D02*
X0546738Y0131803D01*
X0547527Y0127809D02*
X0618830Y0127809D01*
X0618828Y0126811D02*
X0547052Y0126811D01*
X0546054Y0125812D02*
X0618826Y0125812D01*
X0618824Y0124814D02*
X0577483Y0124814D01*
X0579776Y0123815D02*
X0618823Y0123815D01*
X0618821Y0122817D02*
X0595083Y0122817D01*
X0596082Y0121818D02*
X0618819Y0121818D01*
X0618817Y0120820D02*
X0596875Y0120820D01*
X0596875Y0119821D02*
X0618815Y0119821D01*
X0618814Y0118823D02*
X0592526Y0118823D01*
X0591925Y0118823D02*
X0583188Y0118823D01*
X0583357Y0117824D02*
X0587575Y0117824D01*
X0587922Y0116826D02*
X0583357Y0116826D01*
X0583357Y0115827D02*
X0586721Y0115827D01*
X0585723Y0114829D02*
X0583265Y0114829D01*
X0582851Y0113830D02*
X0584823Y0113830D01*
X0584409Y0112832D02*
X0582438Y0112832D01*
X0581959Y0111833D02*
X0583995Y0111833D01*
X0583582Y0110835D02*
X0582354Y0110835D01*
X0582768Y0109836D02*
X0583575Y0109836D01*
X0583575Y0108838D02*
X0583182Y0108838D01*
X0583357Y0107839D02*
X0583575Y0107839D01*
X0583357Y0106841D02*
X0583798Y0106841D01*
X0582774Y0119821D02*
X0587575Y0119821D01*
X0587575Y0120820D02*
X0582361Y0120820D01*
X0581773Y0121818D02*
X0588369Y0121818D01*
X0589367Y0122817D02*
X0580774Y0122817D01*
X0572325Y0124814D02*
X0545055Y0124814D01*
X0543527Y0124814D02*
X0542527Y0124814D01*
X0542527Y0125812D02*
X0543527Y0125812D01*
X0543527Y0126811D02*
X0542527Y0126811D01*
X0542527Y0127809D02*
X0543527Y0127809D01*
X0542527Y0128808D02*
X0516206Y0128808D01*
X0515208Y0127809D02*
X0538527Y0127809D01*
X0539003Y0126811D02*
X0513765Y0126811D01*
X0512036Y0125812D02*
X0540001Y0125812D01*
X0541000Y0124814D02*
X0508621Y0124814D01*
X0504587Y0124814D02*
X0468621Y0124814D01*
X0472036Y0125812D02*
X0501172Y0125812D01*
X0499442Y0126811D02*
X0473765Y0126811D01*
X0475208Y0127809D02*
X0498000Y0127809D01*
X0497001Y0128808D02*
X0476206Y0128808D01*
X0477205Y0129806D02*
X0496003Y0129806D01*
X0495384Y0130805D02*
X0477824Y0130805D01*
X0478400Y0131803D02*
X0494807Y0131803D01*
X0494231Y0132802D02*
X0478977Y0132802D01*
X0479292Y0133801D02*
X0493915Y0133801D01*
X0493648Y0134799D02*
X0479560Y0134799D01*
X0479827Y0135798D02*
X0493380Y0135798D01*
X0493230Y0136796D02*
X0479978Y0136796D01*
X0479978Y0137795D02*
X0493230Y0137795D01*
X0493230Y0138793D02*
X0479978Y0138793D01*
X0479978Y0139792D02*
X0493230Y0139792D01*
X0493474Y0140790D02*
X0479734Y0140790D01*
X0479466Y0141789D02*
X0493741Y0141789D01*
X0494009Y0142787D02*
X0479199Y0142787D01*
X0478775Y0143786D02*
X0494432Y0143786D01*
X0495009Y0144784D02*
X0478199Y0144784D01*
X0477622Y0145783D02*
X0495585Y0145783D01*
X0496352Y0146781D02*
X0476855Y0146781D01*
X0475857Y0147780D02*
X0497350Y0147780D01*
X0498349Y0148778D02*
X0481397Y0148778D01*
X0483708Y0149777D02*
X0500047Y0149777D01*
X0494432Y0152772D02*
X0487680Y0152772D01*
X0488678Y0153771D02*
X0492478Y0153771D01*
X0491029Y0154769D02*
X0489350Y0154769D01*
X0489926Y0155768D02*
X0490030Y0155768D01*
X0492000Y0173741D02*
X0493319Y0173741D01*
X0492000Y0174739D02*
X0496245Y0174739D01*
X0464612Y0151774D02*
X0436517Y0151774D01*
X0437719Y0152772D02*
X0463613Y0152772D01*
X0462615Y0153771D02*
X0438446Y0153771D01*
X0439173Y0154769D02*
X0461943Y0154769D01*
X0461366Y0155768D02*
X0439899Y0155768D01*
X0440366Y0156766D02*
X0460790Y0156766D01*
X0460286Y0157765D02*
X0440750Y0157765D01*
X0441134Y0158763D02*
X0460019Y0158763D01*
X0462163Y0150775D02*
X0438842Y0150775D01*
X0441027Y0149777D02*
X0460047Y0149777D01*
X0458349Y0148778D02*
X0442750Y0148778D01*
X0443749Y0147780D02*
X0457350Y0147780D01*
X0456352Y0146781D02*
X0444747Y0146781D01*
X0445529Y0145783D02*
X0455585Y0145783D01*
X0455009Y0144784D02*
X0446105Y0144784D01*
X0446682Y0143786D02*
X0454432Y0143786D01*
X0454009Y0142787D02*
X0447116Y0142787D01*
X0447383Y0141789D02*
X0453741Y0141789D01*
X0453474Y0140790D02*
X0447651Y0140790D01*
X0447904Y0139792D02*
X0453230Y0139792D01*
X0453230Y0138793D02*
X0447904Y0138793D01*
X0447904Y0137795D02*
X0453230Y0137795D01*
X0453230Y0136796D02*
X0447904Y0136796D01*
X0447763Y0135798D02*
X0453380Y0135798D01*
X0453648Y0134799D02*
X0447495Y0134799D01*
X0447228Y0133801D02*
X0453915Y0133801D01*
X0454231Y0132802D02*
X0446923Y0132802D01*
X0446346Y0131803D02*
X0454807Y0131803D01*
X0455384Y0130805D02*
X0445770Y0130805D01*
X0445165Y0129806D02*
X0456003Y0129806D01*
X0457001Y0128808D02*
X0444167Y0128808D01*
X0443168Y0127809D02*
X0458000Y0127809D01*
X0459442Y0126811D02*
X0441751Y0126811D01*
X0440021Y0125812D02*
X0461172Y0125812D01*
X0464587Y0124814D02*
X0436675Y0124814D01*
X0503399Y0086870D02*
X0284806Y0086870D01*
X0286094Y0087869D02*
X0504397Y0087869D01*
X0512789Y0087869D02*
X0523357Y0087869D01*
X0523357Y0088868D02*
X0286771Y0088868D01*
X0287156Y0089866D02*
X0523357Y0089866D01*
X0523483Y0090865D02*
X0282928Y0090865D01*
X0282328Y0090865D02*
X0260017Y0090865D01*
X0259633Y0089866D02*
X0278101Y0089866D01*
X0278486Y0088868D02*
X0258961Y0088868D01*
X0257682Y0087869D02*
X0279163Y0087869D01*
X0280450Y0086870D02*
X0215079Y0086870D01*
X0215079Y0087869D02*
X0253290Y0087869D01*
X0252011Y0088868D02*
X0215079Y0088868D01*
X0215079Y0089866D02*
X0251339Y0089866D01*
X0250956Y0090865D02*
X0215079Y0090865D01*
X0215079Y0091863D02*
X0255186Y0091863D01*
X0255786Y0091863D02*
X0278060Y0091863D01*
X0278368Y0092862D02*
X0260053Y0092862D01*
X0259741Y0093860D02*
X0277515Y0093860D01*
X0276516Y0094859D02*
X0275680Y0094859D01*
X0282328Y0089866D02*
X0282928Y0089866D01*
X0282928Y0088868D02*
X0282328Y0088868D01*
X0282328Y0087869D02*
X0282928Y0087869D01*
X0282928Y0086870D02*
X0282328Y0086870D01*
X0287196Y0091863D02*
X0524482Y0091863D01*
X0525480Y0092862D02*
X0286888Y0092862D01*
X0287742Y0093860D02*
X0526479Y0093860D01*
X0527477Y0094859D02*
X0288740Y0094859D01*
X0255786Y0090865D02*
X0255186Y0090865D01*
X0255186Y0089866D02*
X0255786Y0089866D01*
X0255786Y0088868D02*
X0255186Y0088868D01*
X0255186Y0087869D02*
X0255786Y0087869D01*
X0250920Y0092862D02*
X0215079Y0092862D01*
X0215079Y0093860D02*
X0251231Y0093860D01*
X0250364Y0094859D02*
X0215079Y0094859D01*
X0215079Y0095857D02*
X0249365Y0095857D01*
X0248367Y0096856D02*
X0215079Y0096856D01*
X0215079Y0097854D02*
X0247368Y0097854D01*
X0246836Y0098853D02*
X0215079Y0098853D01*
X0215079Y0099851D02*
X0246836Y0099851D01*
X0246836Y0100850D02*
X0215079Y0100850D01*
X0215079Y0101848D02*
X0246836Y0101848D01*
X0246836Y0102847D02*
X0226795Y0102847D01*
X0227793Y0103845D02*
X0246836Y0103845D01*
X0246836Y0104844D02*
X0228627Y0104844D01*
X0228627Y0105842D02*
X0247126Y0105842D01*
X0247486Y0106841D02*
X0228627Y0106841D01*
X0228627Y0107839D02*
X0247486Y0107839D01*
X0246444Y0108838D02*
X0228443Y0108838D01*
X0229582Y0109836D02*
X0234992Y0109836D01*
X0233837Y0110835D02*
X0230581Y0110835D01*
X0231538Y0111833D02*
X0232856Y0111833D01*
X0225027Y0105842D02*
X0224427Y0105842D01*
X0224427Y0104844D02*
X0225027Y0104844D01*
X0225027Y0103845D02*
X0224427Y0103845D01*
X0224427Y0102847D02*
X0225027Y0102847D01*
X0222659Y0102847D02*
X0215079Y0102847D01*
X0215079Y0103845D02*
X0221661Y0103845D01*
X0220827Y0104844D02*
X0215079Y0104844D01*
X0215079Y0105842D02*
X0220827Y0105842D01*
X0220827Y0106841D02*
X0215079Y0106841D01*
X0215079Y0107839D02*
X0220827Y0107839D01*
X0221011Y0108838D02*
X0215079Y0108838D01*
X0215079Y0109836D02*
X0219871Y0109836D01*
X0218873Y0110835D02*
X0215079Y0110835D01*
X0215079Y0111833D02*
X0217916Y0111833D01*
X0217017Y0112832D02*
X0215079Y0112832D01*
X0215079Y0113830D02*
X0216827Y0113830D01*
X0216727Y0114829D02*
X0215079Y0114829D01*
X0215079Y0115827D02*
X0216727Y0115827D01*
X0216727Y0116826D02*
X0215079Y0116826D01*
X0215079Y0117824D02*
X0216727Y0117824D01*
X0216727Y0118823D02*
X0215079Y0118823D01*
X0215079Y0119821D02*
X0216727Y0119821D01*
X0216727Y0120820D02*
X0215079Y0120820D01*
X0215079Y0121818D02*
X0216727Y0121818D01*
X0216727Y0122817D02*
X0215079Y0122817D01*
X0215079Y0123815D02*
X0216727Y0123815D01*
X0216727Y0124814D02*
X0215079Y0124814D01*
X0215079Y0125812D02*
X0216727Y0125812D01*
X0216727Y0126811D02*
X0215079Y0126811D01*
X0215079Y0127809D02*
X0216719Y0127809D01*
X0216751Y0128808D02*
X0215079Y0128808D01*
X0215079Y0129806D02*
X0217165Y0129806D01*
X0217570Y0130805D02*
X0215079Y0130805D01*
X0215079Y0131803D02*
X0218059Y0131803D01*
X0219057Y0132802D02*
X0215079Y0132802D01*
X0215079Y0133801D02*
X0220033Y0133801D01*
X0184901Y0118823D02*
X0168479Y0118823D01*
X0169477Y0117824D02*
X0183902Y0117824D01*
X0183284Y0116826D02*
X0170096Y0116826D01*
X0170672Y0115827D02*
X0182708Y0115827D01*
X0182223Y0114829D02*
X0171157Y0114829D01*
X0171425Y0113830D02*
X0181955Y0113830D01*
X0181687Y0112832D02*
X0171692Y0112832D01*
X0171855Y0111833D02*
X0181525Y0111833D01*
X0181525Y0110835D02*
X0171855Y0110835D01*
X0171855Y0109836D02*
X0181525Y0109836D01*
X0181627Y0108838D02*
X0171753Y0108838D01*
X0171485Y0107839D02*
X0181895Y0107839D01*
X0182162Y0106841D02*
X0171218Y0106841D01*
X0170802Y0105842D02*
X0182577Y0105842D01*
X0183154Y0104844D02*
X0170226Y0104844D01*
X0169649Y0103845D02*
X0183730Y0103845D01*
X0184676Y0102847D02*
X0168704Y0102847D01*
X0167706Y0101848D02*
X0185674Y0101848D01*
X0187219Y0100850D02*
X0166161Y0100850D01*
X0163946Y0099851D02*
X0189434Y0099851D01*
X0156953Y0099851D02*
X0098985Y0099851D01*
X0101200Y0100850D02*
X0154738Y0100850D01*
X0153194Y0101848D02*
X0102745Y0101848D01*
X0103743Y0102847D02*
X0152195Y0102847D01*
X0151250Y0103845D02*
X0130718Y0103845D01*
X0130355Y0103695D02*
X0131252Y0104066D01*
X0132092Y0104551D01*
X0132863Y0105142D01*
X0133549Y0105829D01*
X0134140Y0106599D01*
X0134625Y0107440D01*
X0134997Y0108337D01*
X0135248Y0109274D01*
X0135373Y0110222D01*
X0128469Y0110222D01*
X0128469Y0103319D01*
X0129417Y0103443D01*
X0130355Y0103695D01*
X0128469Y0103845D02*
X0127469Y0103845D01*
X0127469Y0103319D02*
X0127469Y0110222D01*
X0120566Y0110222D01*
X0120691Y0109274D01*
X0120942Y0108337D01*
X0121313Y0107440D01*
X0121799Y0106599D01*
X0122390Y0105829D01*
X0123076Y0105142D01*
X0123846Y0104551D01*
X0124687Y0104066D01*
X0125584Y0103695D01*
X0126522Y0103443D01*
X0127469Y0103319D01*
X0127469Y0104844D02*
X0128469Y0104844D01*
X0128469Y0105842D02*
X0127469Y0105842D01*
X0127469Y0106841D02*
X0128469Y0106841D01*
X0128469Y0107839D02*
X0127469Y0107839D01*
X0127469Y0108838D02*
X0128469Y0108838D01*
X0128469Y0109836D02*
X0127469Y0109836D01*
X0127469Y0110222D02*
X0128469Y0110222D01*
X0128469Y0111222D01*
X0127469Y0111222D01*
X0127469Y0110222D01*
X0127469Y0110835D02*
X0106895Y0110835D01*
X0106895Y0111833D02*
X0120646Y0111833D01*
X0120691Y0112170D02*
X0120566Y0111222D01*
X0127469Y0111222D01*
X0127469Y0118126D01*
X0126522Y0118001D01*
X0125584Y0117750D01*
X0124687Y0117378D01*
X0123846Y0116893D01*
X0123076Y0116302D01*
X0122390Y0115615D01*
X0121799Y0114845D01*
X0121313Y0114005D01*
X0120942Y0113108D01*
X0120691Y0112170D01*
X0120868Y0112832D02*
X0106732Y0112832D01*
X0106464Y0113830D02*
X0121241Y0113830D01*
X0121789Y0114829D02*
X0106197Y0114829D01*
X0105712Y0115827D02*
X0122602Y0115827D01*
X0123759Y0116826D02*
X0105135Y0116826D01*
X0104517Y0117824D02*
X0125862Y0117824D01*
X0127469Y0117824D02*
X0128469Y0117824D01*
X0128469Y0118126D02*
X0129417Y0118001D01*
X0130355Y0117750D01*
X0131252Y0117378D01*
X0132092Y0116893D01*
X0132863Y0116302D01*
X0133549Y0115615D01*
X0134140Y0114845D01*
X0134625Y0114005D01*
X0134997Y0113108D01*
X0135248Y0112170D01*
X0135373Y0111222D01*
X0128469Y0111222D01*
X0128469Y0118126D01*
X0128469Y0116826D02*
X0127469Y0116826D01*
X0127469Y0115827D02*
X0128469Y0115827D01*
X0128469Y0114829D02*
X0127469Y0114829D01*
X0127469Y0113830D02*
X0128469Y0113830D01*
X0128469Y0112832D02*
X0127469Y0112832D01*
X0127469Y0111833D02*
X0128469Y0111833D01*
X0128469Y0110835D02*
X0149044Y0110835D01*
X0149044Y0111833D02*
X0135293Y0111833D01*
X0135071Y0112832D02*
X0149207Y0112832D01*
X0149475Y0113830D02*
X0134698Y0113830D01*
X0134150Y0114829D02*
X0149742Y0114829D01*
X0150227Y0115827D02*
X0133337Y0115827D01*
X0132180Y0116826D02*
X0150804Y0116826D01*
X0151422Y0117824D02*
X0130076Y0117824D01*
X0135322Y0109836D02*
X0149044Y0109836D01*
X0149147Y0108838D02*
X0135131Y0108838D01*
X0134791Y0107839D02*
X0149414Y0107839D01*
X0149682Y0106841D02*
X0134280Y0106841D01*
X0133559Y0105842D02*
X0150097Y0105842D01*
X0150674Y0104844D02*
X0132473Y0104844D01*
X0125220Y0103845D02*
X0104689Y0103845D01*
X0105265Y0104844D02*
X0123465Y0104844D01*
X0122379Y0105842D02*
X0105842Y0105842D01*
X0106257Y0106841D02*
X0121659Y0106841D01*
X0121148Y0107839D02*
X0106524Y0107839D01*
X0106792Y0108838D02*
X0120808Y0108838D01*
X0120617Y0109836D02*
X0106895Y0109836D01*
X0103518Y0118823D02*
X0152421Y0118823D01*
X0091993Y0099851D02*
X0066505Y0099851D01*
X0068720Y0100850D02*
X0089778Y0100850D01*
X0088233Y0101848D02*
X0070265Y0101848D01*
X0071263Y0102847D02*
X0087235Y0102847D01*
X0086290Y0103845D02*
X0072208Y0103845D01*
X0072785Y0104844D02*
X0085713Y0104844D01*
X0085137Y0105842D02*
X0073361Y0105842D01*
X0073777Y0106841D02*
X0084721Y0106841D01*
X0084454Y0107839D02*
X0074044Y0107839D01*
X0074312Y0108838D02*
X0084186Y0108838D01*
X0084084Y0109836D02*
X0074414Y0109836D01*
X0074414Y0110835D02*
X0084084Y0110835D01*
X0084084Y0111833D02*
X0074414Y0111833D01*
X0074251Y0112832D02*
X0084247Y0112832D01*
X0084514Y0113830D02*
X0073984Y0113830D01*
X0073716Y0114829D02*
X0084782Y0114829D01*
X0085267Y0115827D02*
X0073231Y0115827D01*
X0072655Y0116826D02*
X0085843Y0116826D01*
X0086461Y0117824D02*
X0072036Y0117824D01*
X0071038Y0118823D02*
X0087460Y0118823D01*
X0059512Y0099851D02*
X0041578Y0099851D01*
X0042576Y0100850D02*
X0057297Y0100850D01*
X0055753Y0101848D02*
X0043575Y0101848D01*
X0044573Y0102847D02*
X0054754Y0102847D01*
X0053809Y0103845D02*
X0045572Y0103845D01*
X0046570Y0104844D02*
X0053233Y0104844D01*
X0052656Y0105842D02*
X0047569Y0105842D01*
X0048567Y0106841D02*
X0052241Y0106841D01*
X0051973Y0107839D02*
X0049566Y0107839D01*
X0050564Y0108838D02*
X0051706Y0108838D01*
X0051603Y0109836D02*
X0051563Y0109836D01*
X0004715Y0063905D02*
X0326391Y0063905D01*
X0314006Y0125812D02*
X0262912Y0125812D01*
X0262962Y0126811D02*
X0312277Y0126811D01*
X0310845Y0127809D02*
X0262918Y0127809D01*
X0262887Y0128808D02*
X0309846Y0128808D01*
X0308848Y0129806D02*
X0262538Y0129806D01*
X0262431Y0130805D02*
X0308235Y0130805D01*
X0307658Y0131803D02*
X0262431Y0131803D01*
X0262431Y0132802D02*
X0307082Y0132802D01*
X0306770Y0133801D02*
X0262431Y0133801D01*
X0262431Y0134799D02*
X0306503Y0134799D01*
X0306235Y0135798D02*
X0262431Y0135798D01*
X0262431Y0136796D02*
X0306089Y0136796D01*
X0306089Y0137795D02*
X0262431Y0137795D01*
X0262431Y0138793D02*
X0306089Y0138793D01*
X0306089Y0139792D02*
X0262431Y0139792D01*
X0262431Y0140790D02*
X0306336Y0140790D01*
X0306604Y0141789D02*
X0262431Y0141789D01*
X0262369Y0142787D02*
X0306871Y0142787D01*
X0307299Y0143786D02*
X0261956Y0143786D01*
X0261542Y0144784D02*
X0307876Y0144784D01*
X0308452Y0145783D02*
X0261008Y0145783D01*
X0260010Y0146781D02*
X0309225Y0146781D01*
X0310223Y0147780D02*
X0286143Y0147780D01*
X0288441Y0148778D02*
X0311222Y0148778D01*
X0312930Y0149777D02*
X0290179Y0149777D01*
X0291412Y0150775D02*
X0315075Y0150775D01*
X0517205Y0129806D02*
X0538527Y0129806D01*
X0538527Y0130805D02*
X0517824Y0130805D01*
X0518400Y0131803D02*
X0539317Y0131803D01*
X0540315Y0132802D02*
X0518977Y0132802D01*
X0535038Y0094859D02*
X0537477Y0094859D01*
X0536479Y0093860D02*
X0536036Y0093860D01*
X0523357Y0086870D02*
X0521146Y0086870D01*
X0522806Y0085872D02*
X0523357Y0085872D01*
X0525093Y0081878D02*
X0525674Y0081878D01*
X0525093Y0080879D02*
X0526672Y0080879D01*
X0527671Y0079881D02*
X0525093Y0079881D01*
X0534844Y0079881D02*
X0537671Y0079881D01*
X0536672Y0080879D02*
X0535842Y0080879D01*
X0558131Y0084873D02*
X0558731Y0084873D01*
X0558731Y0085872D02*
X0558131Y0085872D01*
X0558131Y0086870D02*
X0558731Y0086870D01*
X0558731Y0087869D02*
X0558131Y0087869D01*
X0558131Y0088868D02*
X0558731Y0088868D01*
X0558731Y0089866D02*
X0558131Y0089866D01*
X0558131Y0090865D02*
X0558731Y0090865D01*
X0558731Y0091863D02*
X0558131Y0091863D01*
X0560436Y0091863D02*
X0560769Y0091863D01*
X0560738Y0084873D02*
X0560467Y0084873D01*
X0572130Y0080879D02*
X0577446Y0080879D01*
X0575807Y0081878D02*
X0573129Y0081878D01*
X0574127Y0082876D02*
X0574809Y0082876D01*
X0600653Y0106841D02*
X0600836Y0106841D01*
X0600875Y0107839D02*
X0618794Y0107839D01*
X0618792Y0106841D02*
X0607719Y0106841D01*
X0600875Y0108838D02*
X0618796Y0108838D01*
X0618797Y0109836D02*
X0600875Y0109836D01*
X0600869Y0110835D02*
X0618799Y0110835D01*
X0618801Y0111833D02*
X0600455Y0111833D01*
X0600042Y0112832D02*
X0618803Y0112832D01*
X0618805Y0113830D02*
X0599628Y0113830D01*
X0598728Y0114829D02*
X0618806Y0114829D01*
X0618808Y0115827D02*
X0597730Y0115827D01*
X0596529Y0116826D02*
X0618810Y0116826D01*
X0618812Y0117824D02*
X0596875Y0117824D01*
X0592525Y0119821D02*
X0591925Y0119821D01*
X0591925Y0120820D02*
X0592525Y0120820D01*
X0592525Y0121818D02*
X0591925Y0121818D01*
X0591925Y0122817D02*
X0592525Y0122817D01*
X0600828Y0130805D02*
X0575305Y0130805D01*
X0576205Y0131803D02*
X0599830Y0131803D01*
X0598831Y0132802D02*
X0598825Y0132802D01*
X0598829Y0132804D02*
X0603268Y0128365D01*
X0610434Y0128365D01*
X0615501Y0133432D01*
X0615501Y0140598D01*
X0610434Y0145665D01*
X0603268Y0145665D01*
X0598829Y0141226D01*
X0598636Y0141324D01*
X0597940Y0141551D01*
X0597217Y0141665D01*
X0597151Y0141665D01*
X0597151Y0137315D01*
X0596551Y0137315D01*
X0596551Y0136715D01*
X0592201Y0136715D01*
X0592201Y0136649D01*
X0592316Y0135926D01*
X0592542Y0135230D01*
X0592874Y0134578D01*
X0593304Y0133986D01*
X0593822Y0133468D01*
X0594414Y0133038D01*
X0595066Y0132706D01*
X0595762Y0132480D01*
X0596485Y0132365D01*
X0596551Y0132365D01*
X0596551Y0136715D01*
X0597151Y0136715D01*
X0597151Y0132365D01*
X0597217Y0132365D01*
X0597940Y0132480D01*
X0598636Y0132706D01*
X0598829Y0132804D01*
X0597151Y0132802D02*
X0596551Y0132802D01*
X0596551Y0133801D02*
X0597151Y0133801D01*
X0597151Y0134799D02*
X0596551Y0134799D01*
X0596551Y0135798D02*
X0597151Y0135798D01*
X0596551Y0136796D02*
X0579102Y0136796D01*
X0579102Y0135798D02*
X0578502Y0135798D01*
X0578502Y0134799D02*
X0579102Y0134799D01*
X0579102Y0133801D02*
X0578502Y0133801D01*
X0578502Y0132802D02*
X0579102Y0132802D01*
X0581645Y0132802D02*
X0594877Y0132802D01*
X0593490Y0133801D02*
X0582643Y0133801D01*
X0583452Y0134799D02*
X0592762Y0134799D01*
X0592358Y0135798D02*
X0583452Y0135798D01*
X0583452Y0137795D02*
X0592267Y0137795D01*
X0592316Y0138104D02*
X0592201Y0137381D01*
X0592201Y0137315D01*
X0596551Y0137315D01*
X0596551Y0141665D01*
X0596485Y0141665D01*
X0595762Y0141551D01*
X0595066Y0141324D01*
X0594414Y0140992D01*
X0593822Y0140562D01*
X0593304Y0140044D01*
X0592874Y0139452D01*
X0592542Y0138800D01*
X0592316Y0138104D01*
X0592540Y0138793D02*
X0583120Y0138793D01*
X0582122Y0139792D02*
X0593121Y0139792D01*
X0594136Y0140790D02*
X0581123Y0140790D01*
X0579102Y0140790D02*
X0578502Y0140790D01*
X0578502Y0139792D02*
X0579102Y0139792D01*
X0579102Y0138793D02*
X0578502Y0138793D01*
X0578502Y0137795D02*
X0579102Y0137795D01*
X0576802Y0141789D02*
X0599392Y0141789D01*
X0600390Y0142787D02*
X0576802Y0142787D01*
X0576802Y0143786D02*
X0601389Y0143786D01*
X0602387Y0144784D02*
X0576802Y0144784D01*
X0576464Y0145783D02*
X0618862Y0145783D01*
X0618864Y0146781D02*
X0576050Y0146781D01*
X0575637Y0147780D02*
X0618866Y0147780D01*
X0618868Y0148778D02*
X0574713Y0148778D01*
X0573714Y0149777D02*
X0618869Y0149777D01*
X0618871Y0150775D02*
X0572716Y0150775D01*
X0571717Y0151774D02*
X0618873Y0151774D01*
X0618875Y0152772D02*
X0570719Y0152772D01*
X0569720Y0153771D02*
X0618877Y0153771D01*
X0618878Y0154769D02*
X0569032Y0154769D01*
X0570030Y0155768D02*
X0618880Y0155768D01*
X0618882Y0156766D02*
X0571029Y0156766D01*
X0572027Y0157765D02*
X0618884Y0157765D01*
X0618886Y0158763D02*
X0607369Y0158763D01*
X0607321Y0158716D02*
X0609957Y0161352D01*
X0609957Y0162716D01*
X0605957Y0162716D01*
X0605957Y0163716D01*
X0604957Y0163716D01*
X0604957Y0167716D01*
X0603593Y0167716D01*
X0600957Y0165080D01*
X0600957Y0163716D01*
X0604957Y0163716D01*
X0604957Y0162716D01*
X0600957Y0162716D01*
X0600957Y0161352D01*
X0603593Y0158716D01*
X0604957Y0158716D01*
X0604957Y0162716D01*
X0605957Y0162716D01*
X0605957Y0158716D01*
X0607321Y0158716D01*
X0605957Y0158763D02*
X0604957Y0158763D01*
X0604957Y0159762D02*
X0605957Y0159762D01*
X0605957Y0160760D02*
X0604957Y0160760D01*
X0604957Y0161759D02*
X0605957Y0161759D01*
X0605957Y0162757D02*
X0618893Y0162757D01*
X0618891Y0161759D02*
X0609957Y0161759D01*
X0609366Y0160760D02*
X0618889Y0160760D01*
X0618887Y0159762D02*
X0608367Y0159762D01*
X0609957Y0163716D02*
X0605957Y0163716D01*
X0605957Y0167716D01*
X0607321Y0167716D01*
X0609957Y0165080D01*
X0609957Y0163716D01*
X0609957Y0163756D02*
X0618895Y0163756D01*
X0618896Y0164754D02*
X0609957Y0164754D01*
X0609284Y0165753D02*
X0618898Y0165753D01*
X0618900Y0166751D02*
X0608285Y0166751D01*
X0605957Y0166751D02*
X0604957Y0166751D01*
X0604957Y0165753D02*
X0605957Y0165753D01*
X0605957Y0164754D02*
X0604957Y0164754D01*
X0604957Y0163756D02*
X0605957Y0163756D01*
X0604957Y0162757D02*
X0573957Y0162757D01*
X0573957Y0161759D02*
X0600957Y0161759D01*
X0601549Y0160760D02*
X0573957Y0160760D01*
X0573957Y0159762D02*
X0602547Y0159762D01*
X0603546Y0158763D02*
X0573026Y0158763D01*
X0573957Y0163756D02*
X0600957Y0163756D01*
X0600957Y0164754D02*
X0573957Y0164754D01*
X0573957Y0165753D02*
X0601630Y0165753D01*
X0602629Y0166751D02*
X0573942Y0166751D01*
X0572944Y0167750D02*
X0618902Y0167750D01*
X0618904Y0168748D02*
X0571945Y0168748D01*
X0570947Y0169747D02*
X0618905Y0169747D01*
X0618907Y0170745D02*
X0569948Y0170745D01*
X0565284Y0174739D02*
X0618914Y0174739D01*
X0618913Y0173741D02*
X0564285Y0173741D01*
X0563287Y0172742D02*
X0618911Y0172742D01*
X0618909Y0171744D02*
X0562288Y0171744D01*
X0566282Y0175738D02*
X0618916Y0175738D01*
X0618918Y0176737D02*
X0567281Y0176737D01*
X0568279Y0177735D02*
X0618920Y0177735D01*
X0618922Y0178734D02*
X0569278Y0178734D01*
X0576668Y0179732D02*
X0618923Y0179732D01*
X0618925Y0180731D02*
X0578632Y0180731D01*
X0579630Y0181729D02*
X0618927Y0181729D01*
X0618929Y0182728D02*
X0580629Y0182728D01*
X0581170Y0183726D02*
X0618931Y0183726D01*
X0618932Y0184725D02*
X0581584Y0184725D01*
X0581997Y0185723D02*
X0602511Y0185723D01*
X0602585Y0185650D02*
X0600300Y0187935D01*
X0600300Y0189250D01*
X0603900Y0189250D01*
X0603900Y0189850D01*
X0603900Y0193450D01*
X0602585Y0193450D01*
X0600300Y0191165D01*
X0600300Y0189850D01*
X0603900Y0189850D01*
X0604500Y0189850D01*
X0604500Y0193450D01*
X0605815Y0193450D01*
X0608100Y0191165D01*
X0608100Y0189850D01*
X0604500Y0189850D01*
X0604500Y0189250D01*
X0608100Y0189250D01*
X0608100Y0187935D01*
X0605815Y0185650D01*
X0604500Y0185650D01*
X0604500Y0189250D01*
X0603900Y0189250D01*
X0603900Y0185650D01*
X0602585Y0185650D01*
X0603900Y0185723D02*
X0604500Y0185723D01*
X0604500Y0186722D02*
X0603900Y0186722D01*
X0603900Y0187720D02*
X0604500Y0187720D01*
X0604500Y0188719D02*
X0603900Y0188719D01*
X0603900Y0189717D02*
X0582217Y0189717D01*
X0582217Y0188719D02*
X0600300Y0188719D01*
X0600514Y0187720D02*
X0582217Y0187720D01*
X0582217Y0186722D02*
X0601513Y0186722D01*
X0600300Y0190716D02*
X0581852Y0190716D01*
X0581438Y0191714D02*
X0600849Y0191714D01*
X0601847Y0192713D02*
X0581025Y0192713D01*
X0581164Y0193711D02*
X0618949Y0193711D01*
X0618947Y0192713D02*
X0606553Y0192713D01*
X0607551Y0191714D02*
X0618945Y0191714D01*
X0618943Y0190716D02*
X0608100Y0190716D01*
X0608100Y0188719D02*
X0618940Y0188719D01*
X0618941Y0189717D02*
X0604500Y0189717D01*
X0604500Y0190716D02*
X0603900Y0190716D01*
X0603900Y0191714D02*
X0604500Y0191714D01*
X0604500Y0192713D02*
X0603900Y0192713D01*
X0607886Y0187720D02*
X0618938Y0187720D01*
X0618936Y0186722D02*
X0606887Y0186722D01*
X0605889Y0185723D02*
X0618934Y0185723D01*
X0618950Y0194710D02*
X0581578Y0194710D01*
X0581991Y0195708D02*
X0618952Y0195708D01*
X0618954Y0196707D02*
X0582217Y0196707D01*
X0582217Y0197705D02*
X0618956Y0197705D01*
X0618958Y0198704D02*
X0582217Y0198704D01*
X0582217Y0199702D02*
X0618959Y0199702D01*
X0618860Y0144784D02*
X0611315Y0144784D01*
X0612314Y0143786D02*
X0618859Y0143786D01*
X0618857Y0142787D02*
X0613312Y0142787D01*
X0614311Y0141789D02*
X0618855Y0141789D01*
X0618853Y0140790D02*
X0615309Y0140790D01*
X0615501Y0139792D02*
X0618851Y0139792D01*
X0618850Y0138793D02*
X0615501Y0138793D01*
X0615501Y0137795D02*
X0618848Y0137795D01*
X0618846Y0136796D02*
X0615501Y0136796D01*
X0615501Y0135798D02*
X0618844Y0135798D01*
X0618842Y0134799D02*
X0615501Y0134799D01*
X0615501Y0133801D02*
X0618841Y0133801D01*
X0618839Y0132802D02*
X0614871Y0132802D01*
X0613873Y0131803D02*
X0618837Y0131803D01*
X0618835Y0130805D02*
X0612874Y0130805D01*
X0611876Y0129806D02*
X0618833Y0129806D01*
X0618832Y0128808D02*
X0610877Y0128808D01*
X0602825Y0128808D02*
X0572750Y0128808D01*
X0574306Y0129806D02*
X0601827Y0129806D01*
X0597151Y0137795D02*
X0596551Y0137795D01*
X0596551Y0138793D02*
X0597151Y0138793D01*
X0597151Y0139792D02*
X0596551Y0139792D01*
X0596551Y0140790D02*
X0597151Y0140790D01*
D40*
X0514200Y0400300D02*
X0514350Y0400450D01*
X0514350Y0429300D01*
X0528450Y0443400D01*
X0533100Y0443400D01*
D41*
X0236942Y0141046D02*
X0208579Y0141046D01*
X0208579Y0071089D01*
X0330309Y0071089D01*
X0330309Y0071159D01*
X0508593Y0080893D02*
X0518593Y0080893D01*
X0518593Y0070893D01*
X0518593Y0064351D01*
X0611954Y0064351D01*
X0611954Y0099110D01*
X0604278Y0099110D01*
D42*
X0257445Y0282136D03*
M02*
