%
M48
M72
T01C0.02362
T02C0.03200
T03C0.03600
T04C0.03740
T05C0.03937
T06C0.04000
T07C0.04331
T08C0.04400
T09C0.04724
T10C0.06299
T11C0.07874
T12C0.08661
T13C0.09291
T14C0.10000
%
T01
X257445Y282136
T02
X290709Y246243
X300709Y246243
X320167Y256614
X330167Y256614
X331213Y271010
X321213Y271010
X319266Y285166
X329266Y285166
X361370Y279460
X371370Y279460
X360910Y267384
X360910Y257384
X352752Y330634
X352752Y340634
X328250Y356750
X328250Y376750
X336000Y391750
X336000Y401750
X336000Y411750
X336000Y421750
X323000Y422250
X323000Y412250
X311750Y403250
X311750Y393250
X346000Y377500
X356000Y377500
X366000Y391750
X366000Y401750
X366000Y411750
X366000Y421750
X375500Y434000
X385500Y434000
X508000Y484250
X518000Y484250
X533100Y443400
X543100Y443400
X604200Y249550
X604200Y189550
X606851Y137015
X596851Y137015
X578802Y136535
X568802Y136535
X592225Y119099
X592225Y109099
X594278Y99110
X604278Y99110
X603311Y81763
X593311Y81763
X568431Y88353
X558431Y88353
X541257Y87467
X531257Y87467
X508593Y80893
X518593Y70893
X498593Y70893
X350309Y71159
X340309Y81159
X330309Y71159
X282628Y90980
X282628Y100980
X255486Y101969
X255486Y91969
X238685Y117315
X238685Y127315
X224727Y116294
X224727Y106294
X236942Y141046
X246942Y141046
T03
X142341Y188354
X92341Y188354
X63747Y212766
X63747Y262766
X165478Y372516
X195478Y372516
T04
X281304Y219412
X281304Y195790
X327652Y163499
X351274Y163499
X402719Y163479
X426341Y163479
X474793Y163513
X498415Y163513
T05
X542634Y187595
X542634Y197595
X553331Y200922
X563331Y200922
X573217Y198044
X573217Y188044
X562873Y186939
X552873Y186939
X574904Y116733
X574904Y106733
X581103Y98536
X581103Y88536
X282361Y114317
X272361Y114317
X249452Y116741
X249452Y126741
X345965Y318725
X355965Y318725
X351437Y433750
X361437Y433750
X376063Y446250
X386063Y446250
X507563Y494750
X517563Y494750
X150177Y448780
X150177Y421220
X67500Y421220
X67500Y448780
T06
X125921Y349194
X125921Y329194
X153178Y329663
X153178Y349663
X181353Y349692
X181353Y329692
X194716Y300734
X154716Y300734
X154844Y255322
X137318Y255392
X97318Y255392
X63569Y197917
X95515Y162730
X63569Y157917
X135515Y162730
X162629Y160142
X153343Y188685
X193343Y188685
X202629Y160142
X194844Y255322
X77500Y327500
X287750Y409000
X287750Y429000
X313500Y448250
X313500Y478250
X361000Y486000
X361000Y466000
X391000Y466000
X391000Y486000
X329289Y342593
X329289Y302593
X543027Y169150
X565457Y163216
X605457Y163216
X543027Y129150
T07
X199871Y222029
X79871Y222029
X27119Y262918
X27119Y142918
X207734Y406254
X251042Y406254
X251042Y477120
X180175Y477120
T08
X368590Y343745
X368590Y293745
X344931Y282941
X344931Y232941
T09
X279259Y267205
X239259Y267205
T10
X396500Y238000
X416500Y238000
X436500Y238000
X456500Y238000
X476500Y238000
X496500Y238000
X516500Y238000
X536500Y238000
X556500Y238000
X576500Y238000
X576500Y398000
X556500Y398000
X536500Y398000
X516500Y398000
X496500Y398000
X476500Y398000
X456500Y398000
X436500Y398000
X416500Y398000
X396500Y398000
X437000Y464750
X459000Y464750
X481000Y464750
X563750Y466000
X563750Y488000
X563750Y444000
T11
X30528Y110722
X63009Y110722
X95489Y110722
X127969Y110722
X160450Y110722
X192930Y110722
X18874Y345323
X18874Y377803
X18874Y410283
X18874Y442764
X18874Y475244
T12
X224259Y317205
X294259Y327205
T13
X255911Y227601
X255911Y187601
X319463Y138105
X359463Y138105
X394530Y138085
X434530Y138085
X466604Y138119
X506604Y138119
X589546Y445964
X589546Y485964
X479036Y490546
X439036Y490546
T14
X131000Y301435
X101000Y301435
X48500Y301435
X18500Y301435
M30
