G75*
%MOIN*%
%OFA0B0*%
%FSLAX25Y25*%
%IPPOS*%
%LPD*%
%AMOC8*
5,1,8,0,0,1.08239X$1,22.5*
%
%ADD10OC8,0.04800*%
%ADD11OC8,0.06000*%
%ADD12OC8,0.05400*%
%ADD13C,0.05906*%
%ADD14C,0.06600*%
%ADD15C,0.07087*%
%ADD16C,0.12992*%
%ADD17C,0.20000*%
%ADD18C,0.11811*%
%ADD19C,0.05000*%
%ADD20C,0.07874*%
%ADD21OC8,0.06300*%
%ADD22C,0.06300*%
%ADD23C,0.09449*%
%ADD24C,0.15748*%
%ADD25C,0.09449*%
%ADD26OC8,0.12400*%
%ADD27C,0.12400*%
%ADD28OC8,0.06496*%
%ADD29R,0.24409X0.22835*%
%ADD30R,0.11811X0.06299*%
%ADD31R,0.06299X0.05118*%
%ADD32C,0.05000*%
%ADD33C,0.06000*%
%ADD34C,0.20000*%
%ADD35C,0.07000*%
%ADD36C,0.02000*%
%ADD37C,0.15000*%
%ADD38R,0.03962X0.03962*%
%ADD39C,0.03000*%
%ADD40C,0.08000*%
D10*
X0224727Y0106294D03*
X0224727Y0116294D03*
X0238685Y0117315D03*
X0238685Y0127315D03*
X0236942Y0141046D03*
X0246942Y0141046D03*
X0330309Y0071159D03*
X0340309Y0081159D03*
X0350309Y0071159D03*
X0498593Y0070893D03*
X0508593Y0080893D03*
X0518593Y0070893D03*
X0531257Y0087467D03*
X0541257Y0087467D03*
X0558431Y0088353D03*
X0568431Y0088353D03*
X0594278Y0099110D03*
X0604278Y0099110D03*
X0604200Y0189550D03*
X0604200Y0249550D03*
X0371370Y0279460D03*
X0361370Y0279460D03*
X0360910Y0267384D03*
X0360910Y0257384D03*
X0330167Y0256614D03*
X0320167Y0256614D03*
X0321213Y0271010D03*
X0331213Y0271010D03*
X0329266Y0285166D03*
X0319266Y0285166D03*
X0300709Y0246243D03*
X0290709Y0246243D03*
X0352752Y0330634D03*
X0352752Y0340634D03*
X0328250Y0356750D03*
X0328250Y0376750D03*
X0346000Y0377500D03*
X0356000Y0377500D03*
X0323000Y0412250D03*
X0323000Y0422250D03*
X0375500Y0434000D03*
X0385500Y0434000D03*
X0508000Y0484250D03*
X0518000Y0484250D03*
X0533100Y0443400D03*
X0543100Y0443400D03*
D11*
X0391000Y0466000D03*
X0391000Y0486000D03*
X0361000Y0486000D03*
X0361000Y0466000D03*
X0287750Y0429000D03*
X0287750Y0409000D03*
X0329289Y0342593D03*
X0329289Y0302593D03*
X0194716Y0300734D03*
X0181353Y0329692D03*
X0181353Y0349692D03*
X0153178Y0349663D03*
X0153178Y0329663D03*
X0125921Y0329194D03*
X0125921Y0349194D03*
X0154716Y0300734D03*
X0154844Y0255322D03*
X0137318Y0255392D03*
X0097318Y0255392D03*
X0063569Y0197917D03*
X0095515Y0162730D03*
X0063569Y0157917D03*
X0135515Y0162730D03*
X0162629Y0160142D03*
X0153343Y0188685D03*
X0193343Y0188685D03*
X0202629Y0160142D03*
X0194844Y0255322D03*
X0543027Y0169150D03*
X0565457Y0163216D03*
X0605457Y0163216D03*
X0543027Y0129150D03*
D12*
X0195478Y0372516D03*
X0165478Y0372516D03*
X0063747Y0262766D03*
X0063747Y0212766D03*
X0092341Y0188354D03*
X0142341Y0188354D03*
D13*
X0249452Y0126741D03*
X0249452Y0116741D03*
X0272361Y0114317D03*
X0282361Y0114317D03*
X0542634Y0187595D03*
X0542634Y0197595D03*
X0553331Y0200922D03*
X0563331Y0200922D03*
X0573217Y0198044D03*
X0573217Y0188044D03*
X0562873Y0186939D03*
X0552873Y0186939D03*
X0574904Y0116733D03*
X0574904Y0106733D03*
X0581103Y0098536D03*
X0581103Y0088536D03*
X0355965Y0318725D03*
X0345965Y0318725D03*
X0351437Y0433750D03*
X0361437Y0433750D03*
X0376063Y0446250D03*
X0386063Y0446250D03*
X0507563Y0494750D03*
X0517563Y0494750D03*
D14*
X0368590Y0347045D02*
X0368590Y0340445D01*
X0368590Y0297045D02*
X0368590Y0290445D01*
X0344931Y0286241D02*
X0344931Y0279641D01*
X0344931Y0236241D02*
X0344931Y0229641D01*
D15*
X0279259Y0267205D03*
X0239259Y0267205D03*
D16*
X0224259Y0317205D03*
X0294259Y0327205D03*
D17*
X0131000Y0301435D03*
X0101000Y0301435D03*
X0048500Y0301435D03*
X0018500Y0301435D03*
D18*
X0018874Y0345323D03*
X0018874Y0377803D03*
X0018874Y0410283D03*
X0018874Y0442764D03*
X0018874Y0475244D03*
X0281304Y0219412D03*
X0281304Y0195790D03*
X0327652Y0163499D03*
X0351274Y0163499D03*
X0402719Y0163479D03*
X0426341Y0163479D03*
X0474793Y0163513D03*
X0498415Y0163513D03*
X0192930Y0110722D03*
X0160450Y0110722D03*
X0127969Y0110722D03*
X0095489Y0110722D03*
X0063009Y0110722D03*
X0030528Y0110722D03*
D19*
X0336000Y0391750D03*
X0336000Y0401750D03*
X0336000Y0411750D03*
X0336000Y0421750D03*
X0366000Y0421750D03*
X0366000Y0411750D03*
X0366000Y0401750D03*
X0366000Y0391750D03*
D20*
X0251042Y0406254D03*
X0207734Y0406254D03*
X0150177Y0421220D03*
X0150177Y0448780D03*
X0180175Y0477120D03*
X0251042Y0477120D03*
X0067500Y0448780D03*
X0067500Y0421220D03*
D21*
X0311750Y0393250D03*
X0578802Y0136535D03*
X0592225Y0119099D03*
X0606851Y0137015D03*
X0603311Y0081763D03*
X0282628Y0100980D03*
X0255486Y0101969D03*
D22*
X0255486Y0091969D03*
X0282628Y0090980D03*
X0568802Y0136535D03*
X0596851Y0137015D03*
X0592225Y0109099D03*
X0593311Y0081763D03*
X0311750Y0403250D03*
D23*
X0437000Y0460026D02*
X0437000Y0469474D01*
X0459000Y0469474D02*
X0459000Y0460026D01*
X0481000Y0460026D02*
X0481000Y0469474D01*
X0559026Y0466000D02*
X0568474Y0466000D01*
X0568474Y0488000D02*
X0559026Y0488000D01*
X0559026Y0444000D02*
X0568474Y0444000D01*
D24*
X0589546Y0445964D03*
X0589546Y0485964D03*
X0479036Y0490546D03*
X0439036Y0490546D03*
X0255911Y0227601D03*
X0255911Y0187601D03*
X0319463Y0138105D03*
X0359463Y0138105D03*
X0394530Y0138085D03*
X0434530Y0138085D03*
X0466604Y0138119D03*
X0506604Y0138119D03*
D25*
X0516500Y0238000D03*
X0496500Y0238000D03*
X0476500Y0238000D03*
X0456500Y0238000D03*
X0436500Y0238000D03*
X0416500Y0238000D03*
X0396500Y0238000D03*
X0536500Y0238000D03*
X0556500Y0238000D03*
X0576500Y0238000D03*
X0576500Y0398000D03*
X0556500Y0398000D03*
X0536500Y0398000D03*
X0516500Y0398000D03*
X0496500Y0398000D03*
X0476500Y0398000D03*
X0456500Y0398000D03*
X0436500Y0398000D03*
X0416500Y0398000D03*
X0396500Y0398000D03*
D26*
X0313500Y0478250D03*
D27*
X0313500Y0448250D03*
D28*
X0027119Y0262918D03*
X0079871Y0222029D03*
X0027119Y0142918D03*
X0199871Y0222029D03*
D29*
X0289142Y0132669D03*
X0533188Y0106540D03*
D30*
X0561455Y0115516D03*
X0561455Y0097563D03*
X0260874Y0123693D03*
X0260874Y0141645D03*
D31*
X0077500Y0338563D03*
X0077500Y0346437D03*
D32*
X0063009Y0090000D02*
X0007500Y0090000D01*
X0007500Y0272500D01*
X0195000Y0272500D01*
X0195000Y0300734D01*
X0194716Y0300734D01*
X0195000Y0300734D02*
X0310500Y0300734D01*
X0310500Y0271350D01*
X0321213Y0271350D01*
X0321213Y0271010D01*
X0321300Y0271010D01*
X0321300Y0264600D01*
X0330750Y0264600D01*
X0330750Y0256614D01*
X0330167Y0256614D01*
X0330750Y0264600D02*
X0344931Y0264600D01*
X0344931Y0232941D01*
X0321213Y0271010D02*
X0329266Y0279063D01*
X0329266Y0285166D01*
X0344931Y0282941D02*
X0348412Y0279460D01*
X0360910Y0279460D01*
X0368590Y0294300D02*
X0368590Y0318560D01*
X0368550Y0318600D01*
X0358060Y0318600D01*
X0355965Y0318725D01*
X0355965Y0302593D01*
X0329289Y0302593D01*
X0346000Y0377500D02*
X0346000Y0381750D01*
X0336000Y0391750D01*
X0311750Y0391750D01*
X0311750Y0393250D01*
X0336000Y0401750D02*
X0347000Y0401750D01*
X0356250Y0392500D01*
X0356250Y0377750D01*
X0356000Y0377500D01*
X0366000Y0391750D02*
X0375500Y0391750D01*
X0405000Y0421250D01*
X0476250Y0421250D01*
X0506250Y0452500D01*
X0508000Y0454500D01*
X0508000Y0484250D01*
X0508000Y0494313D01*
X0507563Y0494750D01*
X0524314Y0197595D02*
X0524314Y0156531D01*
X0525719Y0157936D01*
X0548764Y0157936D01*
X0554043Y0163216D01*
X0565457Y0163216D01*
X0580651Y0163216D01*
X0606851Y0137015D01*
X0584591Y0116733D02*
X0574904Y0116733D01*
X0562672Y0116733D01*
X0561455Y0115516D01*
X0560847Y0116124D01*
X0559124Y0116124D01*
X0568802Y0125802D01*
X0568802Y0136535D01*
X0584591Y0116733D02*
X0592225Y0109099D01*
X0594278Y0099110D02*
X0593704Y0098536D01*
X0581103Y0098536D01*
X0573154Y0090587D01*
X0568431Y0090587D01*
X0568431Y0088353D01*
X0568431Y0080000D01*
X0550000Y0080000D01*
X0550000Y0087467D01*
X0541257Y0087467D01*
X0531257Y0087467D02*
X0530000Y0087467D01*
X0530000Y0106540D01*
X0317500Y0106540D01*
X0317500Y0082500D01*
X0160450Y0082500D01*
X0160450Y0110722D01*
X0192930Y0110722D02*
X0192930Y0097148D01*
X0237995Y0097148D01*
X0237995Y0117315D01*
X0238685Y0117315D01*
X0260874Y0123693D02*
X0272361Y0123937D01*
X0272361Y0114317D01*
X0282361Y0114317D02*
X0309532Y0114317D01*
X0309532Y0117453D01*
X0313410Y0117453D01*
X0313410Y0117354D01*
X0506267Y0117354D01*
X0524314Y0135400D01*
X0524314Y0156531D01*
X0530000Y0106540D02*
X0533188Y0106540D01*
X0533188Y0106733D01*
X0574904Y0106733D01*
X0561455Y0097563D02*
X0568431Y0090587D01*
X0309532Y0117453D02*
X0309532Y0131533D01*
X0293503Y0131533D01*
X0260874Y0141046D02*
X0260874Y0141645D01*
X0260874Y0141046D02*
X0246942Y0141046D01*
X0063009Y0110722D02*
X0063009Y0090000D01*
X0077500Y0327500D02*
X0077500Y0338563D01*
D33*
X0077500Y0327500D03*
D34*
X0207734Y0406254D02*
X0207870Y0429294D01*
X0287750Y0429000D01*
X0287750Y0448750D01*
X0290000Y0448750D01*
X0290000Y0448250D01*
X0313500Y0448250D01*
X0343250Y0448250D01*
X0361000Y0466000D01*
X0391000Y0466000D01*
X0407500Y0449500D01*
X0413250Y0443750D01*
X0413750Y0443750D01*
X0457500Y0443750D01*
X0459000Y0445250D01*
X0459000Y0464750D01*
X0413750Y0443750D02*
X0407500Y0449500D01*
X0536500Y0238000D02*
X0537300Y0238000D01*
X0537300Y0220050D01*
X0604200Y0220050D01*
X0604200Y0189550D01*
X0503550Y0211950D02*
X0503550Y0163513D01*
X0498415Y0163513D01*
X0503550Y0211950D02*
X0369900Y0211950D01*
X0305100Y0211950D01*
X0305100Y0195750D01*
X0281304Y0195750D01*
X0281304Y0195790D01*
X0327652Y0163499D02*
X0220442Y0163499D01*
X0220442Y0133446D01*
X0095515Y0133446D01*
X0095515Y0110748D01*
X0095489Y0110722D01*
X0095515Y0133446D02*
X0095515Y0162730D01*
X0327652Y0163499D02*
X0333450Y0163499D01*
X0333450Y0186300D01*
X0402719Y0186300D01*
X0402719Y0163479D01*
D35*
X0369900Y0211950D02*
X0369900Y0257384D01*
X0360910Y0257384D01*
X0360910Y0267384D02*
X0360910Y0279460D01*
X0361370Y0279460D01*
X0375300Y0279460D02*
X0375300Y0294300D01*
X0368590Y0294300D01*
X0524314Y0197595D02*
X0542634Y0197595D01*
X0293503Y0131533D02*
X0289142Y0132669D01*
X0205000Y0329692D02*
X0181353Y0329692D01*
X0181353Y0329663D01*
X0153178Y0329663D01*
X0153178Y0329194D01*
X0125921Y0329194D01*
X0077500Y0346437D02*
X0077500Y0410283D01*
X0018874Y0410283D01*
X0195478Y0372516D02*
X0205000Y0372516D01*
X0205000Y0329692D01*
D36*
X0352752Y0340634D02*
X0352752Y0358387D01*
X0357001Y0362636D01*
X0385578Y0362636D01*
X0394956Y0353257D01*
X0394956Y0279544D01*
X0436500Y0238000D01*
D37*
X0121667Y0255256D02*
X0121667Y0162730D01*
X0095515Y0162730D01*
X0063569Y0162730D01*
X0063569Y0157917D01*
X0027119Y0157917D01*
X0027119Y0142918D01*
X0097318Y0255256D02*
X0097318Y0255392D01*
X0097318Y0255256D02*
X0121667Y0255256D01*
D38*
X0257445Y0282136D03*
D39*
X0257445Y0257885D01*
X0277611Y0237719D01*
X0300707Y0237719D01*
X0300862Y0237874D01*
X0300862Y0246090D01*
X0300709Y0246243D01*
X0290709Y0246243D02*
X0290709Y0255755D01*
X0279259Y0267205D01*
D40*
X0368590Y0293745D02*
X0368590Y0294300D01*
X0371370Y0279460D02*
X0375300Y0279460D01*
M02*
