%
M48
M72
T01C0.0320
T02C0.0360
T03C0.0374
T04C0.0394
T05C0.0400
T06C0.0433
T07C0.0440
T08C0.0472
T09C0.0630
T10C0.0787
T11C0.0866
T12C0.0929
T13C0.1000
%
T01
X22473Y10629
X22473Y11629
X23869Y11731
X23869Y12731
X23694Y14105
X24694Y14105
X25549Y10197
X25549Y9197
X28263Y9098
X28263Y10098
X32017Y25661
X33017Y25661
X33121Y27101
X32121Y27101
X31927Y28517
X32927Y28517
X36137Y27946
X37137Y27946
X36091Y26738
X36091Y25738
X35275Y33063
X35275Y34063
X32825Y35675
X32825Y37675
X33600Y39175
X33600Y40175
X33600Y41175
X33600Y42175
X32300Y42225
X32300Y41225
X31175Y40325
X31175Y39325
X34600Y37750
X35600Y37750
X36600Y39175
X36600Y40175
X36600Y41175
X36600Y42175
X37550Y43400
X38550Y43400
X50800Y48425
X51800Y48425
X53310Y44340
X54310Y44340
X60420Y24955
X60420Y18955
X60685Y13702
X59685Y13702
X57880Y13654
X56880Y13654
X59223Y11910
X59223Y10910
X59428Y9911
X60428Y9911
X60331Y8176
X59331Y8176
X56843Y8835
X55843Y8835
X54126Y8747
X53126Y8747
T02
X19548Y37252
X16548Y37252
X6375Y26277
X6375Y21277
X9234Y18835
X14234Y18835
T03
X28130Y19579
X28130Y21941
X32765Y16350
X35127Y16350
X40272Y16348
X42634Y16348
X47479Y16351
X49841Y16351
T04
X54263Y18760
X54263Y19760
X55333Y20092
X56333Y20092
X57322Y19804
X57322Y18804
X56287Y18694
X55287Y18694
X57490Y11673
X57490Y10673
X58110Y9854
X58110Y8854
X28236Y11432
X27236Y11432
X24945Y11674
X24945Y12674
X34597Y31872
X35597Y31872
X35144Y43375
X36144Y43375
X37606Y44625
X38606Y44625
X50756Y49475
X51756Y49475
X15018Y44878
X15018Y42122
X6750Y42122
X6750Y44878
T05
X12592Y34919
X12592Y32919
X15318Y32966
X15318Y34966
X18135Y34969
X18135Y32969
X19472Y30073
X15472Y30073
X15484Y25532
X13732Y25539
X9732Y25539
X6357Y19792
X9552Y16273
X6357Y15792
X13552Y16273
X16263Y16014
X15334Y18869
X19334Y18869
X20263Y16014
X19484Y25532
X7750Y32750
X28775Y40900
X28775Y42900
X31350Y44825
X31350Y47825
X36100Y48600
X36100Y46600
X39100Y46600
X39100Y48600
X32929Y34259
X32929Y30259
X54303Y16915
X56546Y16322
X60546Y16322
X54303Y12915
T06
X19987Y22203
X7987Y22203
X2712Y26292
X2712Y14292
X20773Y40625
X25104Y40625
X25104Y47712
X18018Y47712
T07
X36859Y34374
X36859Y29374
X34493Y28294
X34493Y23294
T08
X27926Y26721
X23926Y26721
T09
X39650Y23800
X41650Y23800
X43650Y23800
X45650Y23800
X47650Y23800
X49650Y23800
X51650Y23800
X53650Y23800
X55650Y23800
X57650Y23800
X57650Y39800
X55650Y39800
X53650Y39800
X51650Y39800
X49650Y39800
X47650Y39800
X45650Y39800
X43650Y39800
X41650Y39800
X39650Y39800
X43700Y46475
X45900Y46475
X48100Y46475
X56375Y46600
X56375Y48800
X56375Y44400
T10
X3053Y11072
X6301Y11072
X9549Y11072
X12797Y11072
X16045Y11072
X19293Y11072
X1887Y34532
X1887Y37780
X1887Y41028
X1887Y44276
X1887Y47524
T11
X22426Y31721
X29426Y32721
T12
X25591Y22760
X25591Y18760
X31946Y13811
X35946Y13811
X39453Y13808
X43453Y13808
X46660Y13812
X50660Y13812
X58955Y44596
X58955Y48596
X47904Y49055
X43904Y49055
T13
X13100Y30144
X10100Y30144
X4850Y30144
X1850Y30144
M30
