%
M48
M72
T01C0.03200
T02C0.03937
T03C0.04000
T04C0.05500
T05C0.12000
%
T01
X87500Y37500
X112500Y32500
X112500Y42500
X125000Y42500
X125000Y32500
X137500Y50000
X147500Y50000
X150000Y62500
X137500Y62500
X125000Y62500
X115000Y72500
X105000Y62500
X87500Y87500
X137500Y72500
X150000Y72500
X155000Y37500
X155000Y27500
X87500Y182500
X102500Y187500
X102500Y197500
X115000Y192500
X125000Y192500
X122500Y210000
X122500Y220000
X140000Y212500
X150000Y222500
X160000Y212500
X117500Y242500
X107500Y242500
X97500Y242500
X87500Y242500
X87500Y232500
X102500Y222500
X102500Y212500
T02
X98937Y232500
X108937Y232500
X121437Y232500
X131437Y232500
X160000Y63563
X160000Y53563
X102500Y41437
X102500Y31437
T03
X67500Y52500
X67500Y62500
X67500Y72500
X67500Y197500
X67500Y207500
X67500Y217500
T04
X55000Y255000
X115000Y255000
X55000Y162028
X55000Y142343
X55000Y122657
X55000Y102972
X50000Y17500
X110000Y17500
X187500Y102972
X187500Y122657
X187500Y142343
X187500Y162028
T05
X35000Y12500
X195000Y12500
X195000Y262500
X32500Y262500
M30
