%
M48
M72
T01C0.03200
T02C0.03937
T03C0.04000
T04C0.05500
%
T01
X52500Y35000
X77500Y30000
X77500Y40000
X90000Y40000
X90000Y30000
X102500Y47500
X112500Y47500
X120000Y35000
X120000Y25000
X115000Y60000
X115000Y70000
X102500Y70000
X102500Y60000
X90000Y60000
X80000Y70000
X70000Y60000
X52500Y85000
X52500Y180000
X67500Y185000
X67500Y195000
X80000Y190000
X90000Y190000
X87500Y207500
X87500Y217500
X105000Y210000
X115000Y220000
X125000Y210000
X82500Y240000
X72500Y240000
X62500Y240000
X52500Y240000
X52500Y230000
X67500Y220000
X67500Y210000
T02
X63937Y230000
X73937Y230000
X86437Y230000
X96437Y230000
X125000Y61063
X125000Y51063
X67500Y38937
X67500Y28937
T03
X32500Y50000
X32500Y60000
X32500Y70000
X32500Y195000
X32500Y205000
X32500Y215000
T04
X15000Y15000
X75000Y15000
X20000Y100472
X20000Y120157
X20000Y139843
X20000Y159528
X20000Y252500
X80000Y252500
X152500Y159528
X152500Y139843
X152500Y120157
X152500Y100472
M30
