<?xml version="1.0" encoding="utf-8"?>
<!-- Generator: Adobe Illustrator 15.0.0, SVG Export Plug-In . SVG Version: 6.00 Build 0)  -->
<!DOCTYPE svg PUBLIC "-//W3C//DTD SVG 1.1//EN" "http://www.w3.org/Graphics/SVG/1.1/DTD/svg11.dtd">
<svg version="1.1" id="Layer_1" xmlns="http://www.w3.org/2000/svg" xmlns:xlink="http://www.w3.org/1999/xlink" x="0px" y="0px"
	 width="864px" height="576px" viewBox="0 0 864 576" enable-background="new 0 0 864 576" xml:space="preserve">
<g transform="translate(22.499999999999996, 22.499999999999996) ">
	<polygon fill="none" stroke="#FF0000" stroke-width="0.9" points="-4.5,-4.5 31.5,-4.5 31.5,3.996 67.5,3.996 67.5,-4.5 89.1,-4.5 
		89.1,3.996 110.7,3.996 110.7,-4.5 132.3,-4.5 132.3,3.996 153.9,3.996 153.9,-4.5 175.5,-4.5 175.5,3.996 211.5,3.996 211.5,-4.5 
		247.5,-4.5 247.5,22.5 239.004,22.5 239.004,49.5 247.5,49.5 247.5,71.1 239.004,71.1 239.004,92.7 247.5,92.7 247.5,114.3 
		239.004,114.3 239.004,135.9 247.5,135.9 247.5,157.5 239.004,157.5 239.004,184.5 247.5,184.5 247.5,211.5 211.5,211.5 
		211.5,203.004 175.5,203.004 175.5,211.5 153.9,211.5 153.9,203.004 132.3,203.004 132.3,211.5 110.7,211.5 110.7,203.004 
		89.1,203.004 89.1,211.5 67.5,211.5 67.5,203.004 31.5,203.004 31.5,211.5 -4.5,211.5 -4.5,184.5 3.996,184.5 3.996,157.5 
		-4.5,157.5 -4.5,135.9 3.996,135.9 3.996,114.3 -4.5,114.3 -4.5,92.7 3.996,92.7 3.996,71.1 -4.5,71.1 -4.5,49.5 3.996,49.5 
		3.996,22.5 -4.5,22.5 	"/>
</g>
<g transform="translate(337.5, 22.499999999999996) ">
	<polygon fill="none" stroke="#FF0000" stroke-width="0.9" points="-67.5,-4.5 -31.5,-4.5 -31.5,3.996 4.5,3.996 4.5,-4.5 
		26.1,-4.5 26.1,3.996 47.7,3.996 47.7,-4.5 69.3,-4.5 69.3,3.996 90.9,3.996 90.9,-4.5 112.5,-4.5 112.5,3.996 148.5,3.996 
		148.5,-4.5 184.5,-4.5 184.5,22.5 176.004,22.5 176.004,49.5 184.5,49.5 184.5,71.1 176.004,71.1 176.004,92.7 184.5,92.7 
		184.5,114.3 176.004,114.3 176.004,135.9 184.5,135.9 184.5,157.5 176.004,157.5 176.004,184.5 184.5,184.5 184.5,211.5 
		148.5,211.5 148.5,203.004 112.5,203.004 112.5,211.5 90.9,211.5 90.9,203.004 69.3,203.004 69.3,211.5 47.7,211.5 47.7,203.004 
		26.1,203.004 26.1,211.5 4.5,211.5 4.5,203.004 -31.5,203.004 -31.5,211.5 -67.5,211.5 -67.5,184.5 -59.004,184.5 -59.004,157.5 
		-67.5,157.5 -67.5,135.9 -59.004,135.9 -59.004,114.3 -67.5,114.3 -67.5,92.7 -59.004,92.7 -59.004,71.1 -67.5,71.1 -67.5,49.5 
		-59.004,49.5 -59.004,22.5 -67.5,22.5 	"/>
</g>
<g transform="translate(652.5, 22.499999999999996) ">
	<polygon fill="none" stroke="#FF0000" stroke-width="0.9" points="-122.004,-4.5 -98.1,-4.5 -98.1,3.996 -65.7,3.996 -65.7,-4.5 
		-44.1,-4.5 -44.1,3.996 -22.5,3.996 -22.5,-4.5 -0.9,-4.5 -0.9,3.996 20.7,3.996 20.7,-4.5 42.3,-4.5 42.3,3.996 63.9,3.996 
		63.9,-4.5 85.5,-4.5 85.5,3.996 107.1,3.996 107.1,-4.5 128.7,-4.5 128.7,3.996 161.1,3.996 161.1,-4.5 185.004,-4.5 185.004,22.5 
		193.5,22.5 193.5,49.5 185.004,49.5 185.004,71.1 193.5,71.1 193.5,92.7 185.004,92.7 185.004,114.3 193.5,114.3 193.5,135.9 
		185.004,135.9 185.004,157.5 193.5,157.5 193.5,184.5 185.004,184.5 185.004,211.5 161.1,211.5 161.1,203.004 128.7,203.004 
		128.7,211.5 107.1,211.5 107.1,203.004 85.5,203.004 85.5,211.5 63.9,211.5 63.9,203.004 42.3,203.004 42.3,211.5 20.7,211.5 
		20.7,203.004 -0.9,203.004 -0.9,211.5 -22.5,211.5 -22.5,203.004 -44.1,203.004 -44.1,211.5 -65.7,211.5 -65.7,203.004 
		-98.1,203.004 -98.1,211.5 -122.004,211.5 -122.004,184.5 -130.5,184.5 -130.5,157.5 -122.004,157.5 -122.004,135.9 -130.5,135.9 
		-130.5,114.3 -122.004,114.3 -122.004,92.7 -130.5,92.7 -130.5,71.1 -122.004,71.1 -122.004,49.5 -130.5,49.5 -130.5,22.5 
		-122.004,22.5 	"/>
</g>
<g transform="translate(652.5, 292.5) ">
	<polygon fill="none" stroke="#FF0000" stroke-width="0.9" points="-122.004,-58.5 -98.1,-58.5 -98.1,-50.004 -65.7,-50.004 
		-65.7,-58.5 -44.1,-58.5 -44.1,-50.004 -22.5,-50.004 -22.5,-58.5 -0.9,-58.5 -0.9,-50.004 20.7,-50.004 20.7,-58.5 42.3,-58.5 
		42.3,-50.004 63.9,-50.004 63.9,-58.5 85.5,-58.5 85.5,-50.004 107.1,-50.004 107.1,-58.5 128.7,-58.5 128.7,-50.004 
		161.1,-50.004 161.1,-58.5 185.004,-58.5 185.004,-31.5 193.5,-31.5 193.5,-4.5 185.004,-4.5 185.004,17.1 193.5,17.1 193.5,38.7 
		185.004,38.7 185.004,60.3 193.5,60.3 193.5,81.9 185.004,81.9 185.004,103.5 193.5,103.5 193.5,130.5 185.004,130.5 
		185.004,157.5 161.1,157.5 161.1,149.004 128.7,149.004 128.7,157.5 107.1,157.5 107.1,149.004 85.5,149.004 85.5,157.5 
		63.9,157.5 63.9,149.004 42.3,149.004 42.3,157.5 20.7,157.5 20.7,149.004 -0.9,149.004 -0.9,157.5 -22.5,157.5 -22.5,149.004 
		-44.1,149.004 -44.1,157.5 -65.7,157.5 -65.7,149.004 -98.1,149.004 -98.1,157.5 -122.004,157.5 -122.004,130.5 -130.5,130.5 
		-130.5,103.5 -122.004,103.5 -122.004,81.9 -130.5,81.9 -130.5,60.3 -122.004,60.3 -122.004,38.7 -130.5,38.7 -130.5,17.1 
		-122.004,17.1 -122.004,-4.5 -130.5,-4.5 -130.5,-31.5 -122.004,-31.5 	"/>
</g>
<g transform="translate(22.499999999999996, 292.5) ">
	<polygon fill="none" stroke="#FF0000" stroke-width="0.9" points="3.996,-50.004 31.5,-50.004 31.5,-58.5 67.5,-58.5 67.5,-50.004 
		89.1,-50.004 89.1,-58.5 110.7,-58.5 110.7,-50.004 132.3,-50.004 132.3,-58.5 153.9,-58.5 153.9,-50.004 175.5,-50.004 
		175.5,-58.5 211.5,-58.5 211.5,-50.004 239.004,-50.004 239.004,-26.1 247.5,-26.1 247.5,6.3 239.004,6.3 239.004,27.9 247.5,27.9 
		247.5,49.5 239.004,49.5 239.004,71.1 247.5,71.1 247.5,92.7 239.004,92.7 239.004,114.3 247.5,114.3 247.5,135.9 239.004,135.9 
		239.004,157.5 247.5,157.5 247.5,179.1 239.004,179.1 239.004,200.7 247.5,200.7 247.5,233.1 239.004,233.1 239.004,257.004 
		211.5,257.004 211.5,265.5 175.5,265.5 175.5,257.004 153.9,257.004 153.9,265.5 132.3,265.5 132.3,257.004 110.7,257.004 
		110.7,265.5 89.1,265.5 89.1,257.004 67.5,257.004 67.5,265.5 31.5,265.5 31.5,257.004 3.996,257.004 3.996,233.1 -4.5,233.1 
		-4.5,200.7 3.996,200.7 3.996,179.1 -4.5,179.1 -4.5,157.5 3.996,157.5 3.996,135.9 -4.5,135.9 -4.5,114.3 3.996,114.3 3.996,92.7 
		-4.5,92.7 -4.5,71.1 3.996,71.1 3.996,49.5 -4.5,49.5 -4.5,27.9 3.996,27.9 3.996,6.3 -4.5,6.3 -4.5,-26.1 3.996,-26.1 	"/>
</g>
<circle fill="none" stroke="#FF0000" stroke-width="0.9" cx="44.217" cy="519.086" r="4.252"/>
<circle fill="none" stroke="#FF0000" stroke-width="0.9" cx="245.833" cy="519.086" r="4.252"/>
<circle fill="none" stroke="#FF0000" stroke-width="0.9" cx="43.192" cy="256.5" r="4.252"/>
<circle fill="none" stroke="#FF0000" stroke-width="0.9" cx="244.808" cy="256.5" r="4.252"/>
<g transform="translate(22.499999999999996, 292.5) ">
	<polygon fill="none" stroke="#FF0000" stroke-width="0.9" points="255.996,-50.004 283.5,-50.004 283.5,-58.5 319.5,-58.5 
		319.5,-50.004 341.1,-50.004 341.1,-58.5 362.7,-58.5 362.7,-50.004 384.3,-50.004 384.3,-58.5 405.9,-58.5 405.9,-50.004 
		427.5,-50.004 427.5,-58.5 463.5,-58.5 463.5,-50.004 491.004,-50.004 491.004,-26.1 499.5,-26.1 499.5,6.3 491.004,6.3 
		491.004,27.9 499.5,27.9 499.5,49.5 491.004,49.5 491.004,71.1 499.5,71.1 499.5,92.7 491.004,92.7 491.004,114.3 499.5,114.3 
		499.5,135.9 491.004,135.9 491.004,157.5 499.5,157.5 499.5,179.1 491.004,179.1 491.004,200.7 499.5,200.7 499.5,233.1 
		491.004,233.1 491.004,257.004 463.5,257.004 463.5,265.5 427.5,265.5 427.5,257.004 405.9,257.004 405.9,265.5 384.3,265.5 
		384.3,257.004 362.7,257.004 362.7,265.5 341.1,265.5 341.1,257.004 319.5,257.004 319.5,265.5 283.5,265.5 283.5,257.004 
		255.996,257.004 255.996,233.1 247.5,233.1 247.5,200.7 255.996,200.7 255.996,179.1 247.5,179.1 247.5,157.5 255.996,157.5 
		255.996,135.9 247.5,135.9 247.5,114.3 255.996,114.3 255.996,92.7 247.5,92.7 247.5,71.1 255.996,71.1 255.996,49.5 247.5,49.5 
		247.5,27.9 255.996,27.9 255.996,6.3 247.5,6.3 247.5,-26.1 255.996,-26.1 	"/>
</g>
<line fill="none" stroke="#FF0000" stroke-width="0.9" x1="278.496" y1="363.832" x2="513.504" y2="363.832"/>
<circle fill="none" stroke="#FF0000" stroke-width="0.9" cx="137.5" cy="126" r="17.889"/>
<text transform="matrix(1 0 0 1 109.5 82)" font-family="'MyriadPro-Regular'" font-size="26.25">Input</text>
<text transform="matrix(1 0 0 1 359 82)" font-family="'MyriadPro-Regular'" font-size="26.25">Output</text>
<circle fill="none" stroke="#FF0000" stroke-width="0.9" cx="396" cy="126" r="17.889"/>
</svg>
